<svg width="60" height="60" viewBox="0 0 60 60" fill="none" xmlns="http://www.w3.org/2000/svg">
<circle cx="30" cy="30" r="30" fill="#796EFF"/>
<path d="M22.2584 21.5417H17.2417C16.9566 21.5417 16.6831 21.6549 16.4815 21.8565C16.2799 22.0581 16.1667 22.3315 16.1667 22.6167V38.3833C16.1667 38.5245 16.1945 38.6643 16.2485 38.7947C16.3025 38.9251 16.3817 39.0436 16.4815 39.1435C16.5814 39.2433 16.6999 39.3225 16.8303 39.3765C16.9607 39.4305 17.1005 39.4583 17.2417 39.4583H22.2584C22.3995 39.4583 22.5393 39.4305 22.6697 39.3765C22.8002 39.3225 22.9187 39.2433 23.0185 39.1435C23.1183 39.0436 23.1975 38.9251 23.2515 38.7947C23.3055 38.6643 23.3334 38.5245 23.3334 38.3833V22.6167C23.3334 22.3315 23.2201 22.0581 23.0185 21.8565C22.8169 21.6549 22.5435 21.5417 22.2584 21.5417V21.5417ZM43.7584 21.5417H38.7417C38.4566 21.5417 38.1831 21.6549 37.9815 21.8565C37.7799 22.0581 37.6667 22.3315 37.6667 22.6167V38.3833C37.6667 38.5245 37.6945 38.6643 37.7485 38.7947C37.8025 38.9251 37.8817 39.0436 37.9815 39.1435C38.0814 39.2433 38.1999 39.3225 38.3303 39.3765C38.4607 39.4305 38.6005 39.4583 38.7417 39.4583H43.7584C43.8995 39.4583 44.0393 39.4305 44.1697 39.3765C44.3002 39.3225 44.4187 39.2433 44.5185 39.1435C44.6183 39.0436 44.6975 38.9251 44.7515 38.7947C44.8055 38.6643 44.8334 38.5245 44.8334 38.3833V22.6167C44.8334 22.3315 44.7201 22.0581 44.5185 21.8565C44.3169 21.6549 44.0435 21.5417 43.7584 21.5417V21.5417Z" stroke="white" stroke-width="1.5" stroke-linecap="round" stroke-linejoin="round"/>
<path d="M23.3334 30.5H37.6667M10.7917 34.8V26.2C10.7917 25.9149 10.9049 25.6415 11.1065 25.4399C11.3081 25.2383 11.5816 25.125 11.8667 25.125H15.0917C15.3768 25.125 15.6502 25.2383 15.8518 25.4399C16.0534 25.6415 16.1667 25.9149 16.1667 26.2V34.8C16.1667 35.0851 16.0534 35.3585 15.8518 35.5601C15.6502 35.7617 15.3768 35.875 15.0917 35.875H11.8667C11.5816 35.875 11.3081 35.7617 11.1065 35.5601C10.9049 35.3585 10.7917 35.0851 10.7917 34.8V34.8ZM50.2084 34.8V26.2C50.2084 25.9149 50.0951 25.6415 49.8935 25.4399C49.6919 25.2383 49.4185 25.125 49.1333 25.125H45.9084C45.6232 25.125 45.3498 25.2383 45.1482 25.4399C44.9466 25.6415 44.8334 25.9149 44.8334 26.2V34.8C44.8334 35.0851 44.9466 35.3585 45.1482 35.5601C45.3498 35.7617 45.6232 35.875 45.9084 35.875H49.1333C49.4185 35.875 49.6919 35.7617 49.8935 35.5601C50.0951 35.3585 50.2084 35.0851 50.2084 34.8V34.8Z" stroke="white" stroke-width="1.5" stroke-linecap="round" stroke-linejoin="round"/>
</svg>
