<svg width="450" height="450" viewBox="0 0 450 450" fill="none" xmlns="http://www.w3.org/2000/svg">
<g opacity="0.3">
<path d="M331.052 365.406C319.358 373.525 312.515 379.918 298.472 383.833C295.151 384.759 272.506 388.601 266.069 390.481C260.251 392.181 255.005 393.709 247.101 394.914C243.981 395.389 235.492 396.029 232.876 396.391C228.678 396.972 215.572 398.068 211.537 398.607C193.777 400.978 191.02 400.352 174.074 396.498L173.602 396.391C167.791 395.07 160.058 390.723 154.294 387.307C145.94 382.356 136.09 376.452 129.344 369.059C121.12 360.047 113.332 351.699 104.788 343.055C99.1463 337.348 94.751 330.759 90.0078 324.411C79.9334 310.929 74.1509 293.955 66.6964 279.149C60.9734 267.782 57.0835 258.527 57.0835 245.736C57.0835 235.553 53.7711 219.106 55.4994 209.01C55.9914 206.136 67.6382 223.041 68.1692 223.963C71.76 230.196 76.2759 234.122 80.0475 240.585C80.8539 241.966 90.0078 260.984 89.2267 237.256C89.2267 230.763 88.8135 227.591 90.0078 223.963C91.8919 218.24 93.5927 215.021 97.468 210.364C99.8408 207.512 103.803 203.564 106.179 200.542C108.554 197.52 110.926 194.451 111.997 192.331C113.08 190.189 113.305 188.454 113.305 184.676C113.305 179.387 111.109 177.123 110.916 171.89C110.571 162.546 110.075 163.521 110.075 153.7C110.075 147.655 109.041 139.979 110.075 133.3C110.916 127.864 112.854 123.066 114.889 119.701C116.691 116.721 118.603 114.596 121.224 112.146C125.975 107.705 131.904 124.227 133.102 128.987C133.793 131.73 138.645 140.856 141.02 145.389C143.396 149.922 146.563 178.475 151.315 153.7C152.106 150.677 155.256 131.752 155.256 128.987C155.256 120.052 157.905 119.298 161.656 111.022C165.891 101.682 166.163 97.188 175.176 83.1552C184.189 69.1224 187.2 45.1063 193.954 49.5374C197.486 51.8548 215 69.9332 217.069 74.3174C220.206 80.9657 220.959 96.7785 229.709 103.866C237.562 110.227 242.082 132.198 244.754 128.987C246.651 126.708 256.142 105.858 258.014 103.67C261.186 98.3515 265.037 88.5588 265.944 83.1552C267.429 74.3087 267.398 70.8273 272.288 63.4C273.879 60.9834 275.073 57.0029 281.081 51.6793C287.09 46.3558 290.569 52.2883 290.569 55.1124C290.569 58.9743 291.357 65.4512 294.521 68.4078C300.008 73.5364 299.984 75.337 306.479 79.4566C312.73 83.4213 314.56 85.2999 321.392 88.3535C326.367 90.5778 330.009 99.7404 333.246 103.866C339.665 112.047 339.569 115.685 341.15 130.459C344.311 145.233 336.686 178.974 339.569 178.475C341.849 178.08 350.999 160.448 357.746 148.188C360.999 142.279 365.348 132.693 370.391 123.811C378.295 109.893 386.721 108.474 392.52 105.906C400.35 102.44 392.52 134.724 392.52 140.062C392.52 146.666 390.149 155.589 390.149 162.223C390.149 170.92 388.483 184.57 387.768 193.249C386.703 206.189 380.594 232.996 378.295 245.736C372.536 277.648 375.397 274.134 366.44 305.531C364.834 311.159 363.78 319.472 361.573 324.973C358.984 331.426 354.937 336.186 350.999 341.708C345.192 349.849 339.546 359.508 331.052 365.406Z" fill="black" stroke="black" stroke-width="6" stroke-linecap="round"/>
<path d="M244.311 341.311C244.691 348.651 244.725 356.008 244.38 363.339C244.225 366.761 243.966 370.575 243.664 373.763C243.595 374.483 243.535 375.222 243.422 375.934C243.362 376.29 243.267 376.62 243.181 376.968C243.095 377.315 243.233 376.785 243.259 376.742C243.431 376.473 243.725 376.325 243.354 376.603C243.768 376.29 244.277 376.056 244.682 375.786C245.088 375.517 244.889 375.726 244.63 375.786C243.863 375.943 245.2 375.786 244.415 375.786C243.63 375.786 242.62 375.786 241.732 375.786L229.034 375.83C227.024 375.83 224.47 377.055 224.056 379.261C223.967 379.729 223.984 380.212 224.107 380.672C224.23 381.133 224.456 381.559 224.766 381.919C225.077 382.279 225.466 382.563 225.901 382.749C226.337 382.936 226.81 383.02 227.283 382.996L239.549 382.952C241.49 382.952 243.604 383.135 245.51 382.657C246.851 382.363 248.092 381.724 249.113 380.801C250.134 379.878 250.899 378.704 251.333 377.393C251.785 375.577 252.03 373.715 252.066 371.843C252.256 369.854 252.403 367.865 252.532 365.875C252.796 361.822 252.949 357.768 252.989 353.715C253.035 349.082 252.935 344.45 252.687 339.817C252.575 337.68 250.143 336.681 248.288 337.09C246.433 337.498 244.19 339.105 244.311 341.354V341.311Z" fill="black"/>
<path d="M201.294 343.678C201.845 352.241 201.648 360.834 200.705 369.364C200.457 371.536 200.167 373.69 199.851 375.845C199.758 376.616 199.612 377.381 199.415 378.133C199.354 378.342 199.28 378.546 199.193 378.745C199.516 378.163 199.965 377.658 200.507 377.264C201.05 376.87 201.674 376.597 202.335 376.465C202.173 376.465 201.268 376.624 201.43 376.608C197.017 376.976 192.568 377.127 188.154 377.387C187.149 377.475 186.17 377.756 185.275 378.215C184.38 378.674 183.586 379.301 182.938 380.062C182.34 380.774 181.077 383.113 183.117 382.996L194.728 382.308C197.025 382.174 199.168 382.09 201.294 381.118C202.51 380.603 203.606 379.85 204.515 378.904C205.423 377.958 206.126 376.84 206.578 375.618C207.035 373.806 207.352 371.962 207.526 370.102C207.799 368.219 208.033 366.327 208.226 364.426C208.619 360.637 208.861 356.834 208.952 353.017C209.066 348.657 208.978 344.304 208.687 339.955C208.576 338.228 205.742 339.285 204.922 339.721C203.642 340.391 201.2 341.951 201.311 343.678H201.294Z" fill="black"/>
<path d="M129.783 328.996C125.242 314.471 127.798 299.714 137.217 286.068C137.915 285.071 131.948 282.285 131.284 283.242C121.789 297.075 119.263 312.028 123.936 326.737C124.54 327.695 125.763 328.527 127.398 329.092C128.147 329.38 130.073 329.932 129.782 329.029L129.783 328.996Z" fill="black"/>
<path d="M307.674 287.511C316.826 299.67 319.371 314.429 315.076 330.444C314.754 331.618 321.31 332.239 321.614 331.116C325.917 314.899 323.278 299.964 313.941 287.677C313.05 286.977 311.618 286.603 309.889 286.62C309.087 286.6 307.087 286.726 307.664 287.479L307.674 287.511Z" fill="black"/>
<path d="M323.418 201.493C329.146 213.911 316.077 230.924 316.659 243.822C317.251 257.192 331.579 272.961 327.152 285.371C322.725 297.781 301.748 300.566 292.851 310.448C284.276 319.978 283.558 341.533 271.316 347.352C259.074 353.171 242.304 339.904 229.589 340.496C216.418 341.096 200.864 355.631 188.631 351.14C176.397 346.649 173.652 325.369 163.91 316.344C154.516 307.645 133.268 306.917 127.582 294.499C121.896 282.08 134.915 265.068 134.341 252.169C133.749 238.8 119.421 223.03 123.848 210.62C128.275 198.21 149.252 195.425 158.148 185.543C166.724 176.013 167.442 154.459 179.684 148.648C191.926 142.837 208.696 156.087 221.411 155.504C234.591 154.904 250.136 140.369 262.369 144.86C274.603 149.351 277.349 170.631 287.09 179.655C296.434 188.346 317.682 189.074 323.418 201.493Z" fill="black"/>
<path d="M209.112 244.519C214.863 243.566 220.659 242.607 226.44 241.915C228.06 241.722 234.421 239.75 233.978 242.275C232.772 249.147 230.457 254.985 227.944 261.419C227.429 262.738 224.068 270.824 222.715 269.931C221.361 269.039 217.152 262.285 215.82 259.063C214.982 257.038 210.458 247.391 209 245.712" stroke="black" stroke-width="6" stroke-linecap="round"/>
<path d="M237.933 227.258C238.262 227.651 239.114 230.424 240.184 229.948C242.179 229.061 242.783 225.924 241.793 224.183C239.309 219.815 238.298 226.107 237.997 226.8" stroke="black" stroke-width="6" stroke-linecap="round"/>
<path d="M204.672 227.258C205.001 227.651 205.853 230.424 206.923 229.948C208.918 229.061 209.522 225.924 208.532 224.183C206.049 219.815 205.038 226.107 204.736 226.8" stroke="black" stroke-width="6" stroke-linecap="round"/>
<path d="M235.48 151.955C228.201 155.862 223.135 157.442 216.028 157.442C206.302 157.442 205.554 144.722 183.109 148.338C160.665 151.955 167.398 191.581 138.399 197.296C134.094 198.266 121.012 207.512 123.257 224.202C124.866 231.542 128.039 240.523 132.766 245.598C136.058 249.132 134.39 261.485 132.488 265.342L132.421 265.479C128.011 274.421 121.094 288.447 126.998 298.548C129.248 302.398 132.766 304.617 137.472 306.135C142.177 307.652 147.878 310.617 150.191 311.599C158.503 315.127 162.611 315.985 168.146 322.066C175.042 329.641 174.354 343.665 183.109 350.135C193.793 358.031 196.928 355.042 209.295 350.135C216.574 347.247 218.16 344.117 225.006 341.032C226.654 340.289 235.453 339.86 236.977 341.79C240.561 346.333 244.458 347.86 256.429 348.618C266.155 350.946 278.242 345.186 280.37 342.549C287.56 333.638 288.643 329.577 287.146 315.407C285.694 301.664 305.655 301.129 316.77 297.031C324.763 294.084 329 288.785 329 280.341C329 275.604 325.582 272.824 324.28 268.203C323.281 264.656 316.77 257.452 316.77 252.79C316.77 245.42 315.473 246.241 316.77 237.857C317.915 230.456 324.28 219.343 324.28 212.064C324.28 203.428 317.436 195.458 308.8 190.822C301.425 186.863 290.844 189.389 283.362 180.96C269.895 165.787 281.866 151.955 259.421 144.545C246.703 142.269 243.63 147.579 235.48 151.955Z" stroke="black" stroke-width="6" stroke-linecap="round"/>
<path d="M208 211C208.718 212.31 210.511 213.551 211 215" stroke="black" stroke-width="6" stroke-linecap="round"/>
<path d="M242 209C240.144 210.859 237.365 212.58 236 215" stroke="black" stroke-width="6" stroke-linecap="round"/>
</g>
</svg>
