<svg width="450" height="450" viewBox="0 0 450 450" fill="none" xmlns="http://www.w3.org/2000/svg">
<g opacity="0.3">
<path d="M277.359 342.303C277.852 352.952 277.843 363.624 277.281 374.255C277.027 379.217 276.619 384.746 276.153 389.368C276.047 390.413 275.953 391.483 275.783 392.515C275.693 393.031 275.552 393.509 275.423 394.013C275.295 394.516 275.5 393.748 275.538 393.686C275.792 393.296 276.22 393.085 275.678 393.485C276.284 393.035 277.027 392.699 277.62 392.311C278.213 391.924 277.922 392.225 277.545 392.311C276.425 392.531 278.374 392.316 277.23 392.309C276.087 392.303 274.616 392.295 273.321 392.287L254.818 392.247C251.889 392.231 248.159 393.986 247.537 397.183C247.403 397.862 247.425 398.562 247.6 399.231C247.776 399.9 248.101 400.52 248.551 401.045C249.001 401.569 249.564 401.984 250.198 402.258C250.831 402.532 251.519 402.658 252.208 402.627L270.083 402.664C272.911 402.68 275.989 402.961 278.771 402.284C280.727 401.869 282.541 400.951 284.036 399.621C285.531 398.291 286.655 396.594 287.298 394.696C287.971 392.065 288.344 389.367 288.412 386.652C288.704 383.768 288.934 380.884 289.139 378C289.557 372.123 289.812 366.244 289.904 360.365C290.008 353.646 289.899 346.926 289.576 340.204C289.43 337.104 285.894 335.636 283.188 336.213C280.482 336.79 277.201 339.102 277.358 342.366L277.359 342.303Z" fill="black"/>
<path d="M198.047 337.698C199.571 351.433 199.748 365.269 198.576 379.055C198.265 382.564 197.875 386.05 197.439 389.537C197.319 390.785 197.104 392.025 196.796 393.249C196.699 393.588 196.578 393.922 196.434 394.249C196.98 393.29 197.756 392.445 198.71 391.774C199.664 391.103 200.771 390.621 201.955 390.363C201.662 390.374 200.042 390.693 200.333 390.655C192.401 391.555 184.395 392.106 176.457 392.83C174.649 393.04 172.904 393.561 171.319 394.361C169.734 395.161 168.342 396.225 167.221 397.494C166.189 398.681 164.056 402.531 167.726 402.201L188.608 400.289C192.739 399.914 196.595 399.631 200.366 397.919C202.525 397.007 204.454 395.719 206.033 394.135C207.612 392.551 208.809 390.703 209.549 388.707C210.259 385.759 210.716 382.771 210.915 379.768C211.291 376.72 211.594 373.661 211.825 370.591C212.299 364.468 212.499 358.334 212.426 352.188C212.362 345.168 211.933 338.172 211.141 331.198C210.834 328.428 205.791 330.324 204.341 331.082C202.075 332.249 197.771 334.927 198.078 337.697L198.047 337.698Z" fill="black"/>
<path d="M351.501 270.394C369.566 283.89 379.312 303.828 379.852 328.392C379.881 330.195 389.464 328.358 389.43 326.634C388.819 301.779 378.866 281.631 360.483 268.028C358.925 267.402 356.734 267.466 354.281 268.207C353.132 268.512 350.339 269.522 351.472 270.353L351.501 270.394Z" fill="black"/>
<path d="M125.175 226.738C103.229 221.558 86.3453 207.155 76.0627 184.84C75.3173 183.197 67.2599 188.701 67.978 190.269C78.4422 212.821 95.5986 227.336 117.88 232.487C119.558 232.441 121.542 231.51 123.496 229.852C124.43 229.114 126.589 227.076 125.218 226.765L125.175 226.738Z" fill="black"/>
<path d="M394.006 133.818C402.519 152.139 383.095 177.237 383.961 196.266C384.84 215.99 406.135 239.254 399.556 257.562C392.976 275.871 361.799 279.98 348.577 294.558C335.832 308.618 334.765 340.417 316.571 349.002C298.377 357.587 273.453 338.014 254.555 338.887C234.98 339.772 211.864 361.216 193.682 354.59C175.501 347.965 171.42 316.571 156.942 303.257C142.98 290.423 111.401 289.349 102.95 271.028C94.4998 252.707 113.849 227.609 112.995 208.581C112.116 188.856 90.8207 165.592 97.4002 147.284C103.98 128.976 135.157 124.866 148.379 110.288C161.124 96.2284 162.191 64.4293 180.385 55.8569C198.579 47.2844 223.504 66.8316 242.401 65.9719C261.989 65.0868 285.092 43.6431 303.274 50.2684C321.456 56.8937 325.536 88.2881 340.014 101.602C353.901 114.423 385.48 115.497 394.006 133.818Z" fill="black"/>
<path d="M266.956 171.337C267.443 171.919 268.705 176.028 270.291 175.323C273.248 174.008 274.142 169.359 272.675 166.779C268.995 160.306 267.497 169.631 267.05 170.657" stroke="black" stroke-width="6" stroke-linecap="round"/>
<path d="M217.67 171.337C218.157 171.919 219.419 176.028 221.005 175.323C223.962 174.008 224.856 169.359 223.389 166.779C219.709 160.306 218.211 169.631 217.764 170.657" stroke="black" stroke-width="6" stroke-linecap="round"/>
<path d="M73.2086 68.6562C73.2086 74.2091 72.0973 79.561 68.7872 84.2226C64.8395 89.782 63.2619 90.8938 58.8398 94.2295C54.4176 97.5651 44.0847 97.2712 47.7857 97.5651C59.2953 98.4791 69.8929 120.479 69.8929 129.81" stroke="black" stroke-width="6" stroke-linecap="round"/>
<path d="M73.3835 68.6562C73.3835 73.2499 76.7763 94.7112 84.8865 96.4532C86.56 96.8127 91.4314 97.4147 92.8651 98.3386M90.638 99.7889C73.3835 104.236 69.9326 123.546 69.9326 129.81" stroke="black" stroke-width="6" stroke-linecap="round"/>
<path d="M263.692 60.6924C252.849 66.4358 245.303 68.7576 234.716 68.7576C220.228 68.7576 219.114 50.0612 185.68 55.3768C152.246 60.6924 162.276 118.936 119.079 127.336C112.666 128.762 93.1798 142.352 96.5234 166.884C98.9196 177.673 103.647 190.872 110.689 198.332C115.593 203.527 113.107 221.683 110.274 227.352L110.174 227.554C103.605 240.697 93.3021 261.313 102.096 276.16C105.447 281.819 110.689 285.081 117.698 287.311C124.707 289.541 133.198 293.9 136.644 295.343C149.027 300.529 155.145 301.79 163.391 310.727C173.663 321.862 172.638 342.475 185.68 351.985C201.594 363.59 206.265 359.197 224.686 351.985C235.529 347.74 237.891 343.139 248.09 338.604C250.544 337.513 263.652 336.881 265.921 339.719C271.26 346.397 277.066 348.64 294.897 349.755C309.385 353.176 327.39 344.71 330.56 340.834C341.27 327.736 342.883 321.768 340.653 300.939C338.49 280.74 368.225 279.954 384.781 273.93C396.688 269.598 403 261.81 403 249.399C403 242.436 397.908 238.35 395.969 231.557C394.48 226.344 384.781 215.756 384.781 208.903C384.781 198.071 382.849 199.278 384.781 186.955C386.487 176.076 395.969 159.742 395.969 149.042C395.969 136.349 385.774 124.635 372.909 117.821C361.923 112.001 346.162 115.714 335.017 103.325C314.957 81.0234 332.788 60.6924 299.355 49.8017C280.409 46.4563 275.832 54.2608 263.692 60.6924Z" stroke="black" stroke-width="6" stroke-linecap="round"/>
<path d="M210.723 182.28C211.931 181.973 219.29 182.978 222.365 186.064C224.344 187.572 225.494 189.646 226.429 192.103C227.693 195.427 227.143 197.014 226.429 199.821C225.001 202.628 223.614 206.068 220.718 207.539C218.324 208.755 217.722 209.589 215.172 209.524C210.967 209.417 207.239 206.943 203.585 204.732C200.975 201.926 201.443 199.119 200.976 195.368C201.086 191.894 201.474 189.998 205.012 186.064C207.154 183.683 207.602 183.073 210.723 182.28Z" stroke="black" stroke-width="6" stroke-linecap="round"/>
<path d="M256.868 182.28C257.975 181.973 264.721 182.978 267.539 186.064C269.353 187.572 270.408 189.646 271.265 192.103C272.423 195.427 271.919 197.014 271.265 199.821C269.956 202.628 268.684 206.068 266.03 207.539C263.835 208.755 263.284 209.589 260.946 209.524C257.092 209.417 253.674 206.943 250.324 204.732C247.932 201.926 248.361 199.119 247.933 195.368C248.034 191.894 248.39 189.998 251.633 186.064C253.596 183.683 254.007 183.073 256.868 182.28Z" stroke="black" stroke-width="6" stroke-linecap="round"/>
<path d="M229.368 189.871C233.348 188.907 237.046 188.421 241.009 189.086C242.557 189.346 244.214 189.871 245.749 189.871" stroke="black" stroke-width="6" stroke-linecap="round"/>
<path d="M220.632 218.626C223.897 221.923 229.601 228.597 233.62 232.17C236.313 233.884 238.292 237.219 241.234 237.894C244.176 238.568 261.311 226.233 267.39 222.127C275.659 216.54 282.695 210.235 289.429 202.976" stroke="black" stroke-width="6" stroke-linecap="round"/>
</g>
</svg>
