<svg width="96" height="109" viewBox="0 0 96 109" fill="none" xmlns="http://www.w3.org/2000/svg">
<path d="M56.1049 89.9681C56.2751 93.3189 56.2906 96.6776 56.1359 100.024C56.0663 101.587 55.9503 103.328 55.8149 104.783C55.784 105.112 55.7569 105.449 55.7066 105.774C55.6796 105.937 55.6371 106.087 55.5984 106.246C55.5598 106.405 55.6216 106.163 55.6332 106.143C55.7105 106.02 55.842 105.953 55.6757 106.08C55.8614 105.937 56.0895 105.83 56.2713 105.707C56.453 105.584 56.3641 105.679 56.2481 105.707C55.9039 105.778 56.5033 105.707 56.1514 105.707C55.7995 105.707 55.347 105.707 54.9487 105.707L49.2565 105.727C48.3555 105.727 47.2109 106.286 47.0252 107.293C46.9851 107.507 46.9929 107.727 47.0481 107.937C47.1032 108.148 47.2043 108.342 47.3436 108.507C47.4829 108.671 47.657 108.8 47.8524 108.886C48.0478 108.971 48.2595 109.009 48.4715 108.998L53.9703 108.978C54.8404 108.978 55.7879 109.062 56.6425 108.843C57.2434 108.709 57.8 108.417 58.2576 107.996C58.7153 107.575 59.0582 107.039 59.2527 106.44C59.4551 105.611 59.5654 104.761 59.5814 103.907C59.6664 102.998 59.7322 102.09 59.7902 101.182C59.9088 99.3317 59.9771 97.4812 59.9951 95.6307C60.0158 93.5158 59.9707 91.4009 59.8599 89.286C59.8096 88.3105 58.7191 87.8546 57.8877 88.0409C57.0563 88.2273 56.0508 88.9609 56.1049 89.9879V89.9681Z" fill="black"/>
<path d="M37.2896 91.1261C37.5549 95.0184 37.46 98.9247 37.0059 102.802C36.8867 103.789 36.747 104.768 36.5949 105.748C36.55 106.098 36.48 106.446 36.3852 106.788C36.3558 106.883 36.3201 106.975 36.2783 107.066C36.4337 106.802 36.6496 106.572 36.9109 106.393C37.1722 106.214 37.4726 106.09 37.791 106.03C37.7129 106.03 37.2773 106.102 37.3554 106.094C35.2302 106.262 33.0885 106.331 30.9633 106.449C30.479 106.488 30.0079 106.616 29.5769 106.825C29.1459 107.033 28.7635 107.319 28.4516 107.664C28.1638 107.988 27.5554 109.051 28.5379 108.998L34.1285 108.686C35.2342 108.625 36.266 108.587 37.2896 108.144C37.8751 107.911 38.4028 107.568 38.8404 107.138C39.278 106.708 39.6161 106.2 39.834 105.645C40.0539 104.821 40.2065 103.983 40.2904 103.137C40.4219 102.281 40.5343 101.421 40.6275 100.557C40.8166 98.8351 40.933 97.1063 40.9768 95.3712C41.0316 93.3897 40.9892 91.4107 40.8495 89.4342C40.796 88.6492 39.4312 89.1294 39.0366 89.3275C38.42 89.6324 37.2443 90.3411 37.2978 91.1261H37.2896Z" fill="black"/>
<path d="M84.5894 67.2444C86.5405 73.7499 85.6575 80.4354 82.021 86.6922C81.7516 87.1498 84.1624 88.3434 84.4186 87.9048C88.0835 81.5628 88.9528 74.7888 86.9474 68.2015C86.6969 67.7756 86.2003 67.4132 85.5418 67.1758C85.2396 67.0537 84.4646 66.8249 84.5894 67.2291V67.2444Z" fill="black"/>
<path d="M11.0018 69.7554L13.3052 91.9363C13.3059 92.1868 13.4791 92.4293 13.7946 92.6217C14.1101 92.8141 14.5481 92.9444 15.0327 92.99C15.885 93.0602 17.052 92.7558 16.9982 92.2446L14.6949 70.0637C14.6975 69.8133 14.5265 69.5705 14.2121 69.3778C13.8976 69.1852 13.4596 69.055 12.9751 69.01C12.1151 68.9398 10.948 69.2442 11.0018 69.7554Z" fill="black"/>
<path d="M92.8991 26.9823C95.5257 32.5945 89.5327 40.2827 89.8 46.1118C90.0711 52.154 96.6413 59.2805 94.6114 64.8889C92.5814 70.4972 82.9624 71.756 78.8831 76.2217C74.951 80.5287 74.6218 90.2696 69.0084 92.8995C63.395 95.5294 55.7053 89.5337 49.875 89.801C43.8355 90.0721 36.7036 96.641 31.0941 94.6115C25.4846 92.5819 24.2256 82.9649 19.7589 78.8864C15.4511 74.9552 5.70809 74.626 3.10092 69.0138C0.493755 63.4016 6.46351 55.7134 6.20008 49.8843C5.92891 43.8422 -0.64133 36.7156 1.38862 31.1072C3.41857 25.4989 13.0376 24.2402 17.1169 19.7744C21.0489 15.4675 21.3782 5.72646 26.9916 3.10047C32.6049 0.474471 40.2948 6.46236 46.125 6.19899C52.1684 5.92787 59.2965 -0.64099 64.9059 1.38854C70.5154 3.41807 71.7745 13.0351 76.2411 17.1135C80.5257 21.0409 90.2687 21.3701 92.8991 26.9823Z" fill="#FF9100"/>
<path d="M41.0493 48.4563C43.5797 48.0617 46.1301 47.6648 48.6737 47.3788C49.3866 47.2986 52.1852 46.4828 51.9903 47.5274C51.4598 50.371 50.4411 52.7871 49.3355 55.4494C49.1089 55.9952 47.6299 59.3409 47.0345 58.9716C46.439 58.6023 44.587 55.8076 44.0008 54.4745C43.6322 53.6363 41.6413 49.6444 41 48.9499" stroke="black" stroke-width="2" stroke-linecap="round"/>
<path d="M53.4584 38.5816C53.6081 38.7606 53.9961 40.0235 54.4835 39.8067C55.3922 39.4026 55.6669 37.9739 55.2162 37.181C54.0852 35.1916 53.6247 38.0574 53.4875 38.3728" stroke="black" stroke-width="2" stroke-linecap="round"/>
<path d="M38.31 38.5816C38.4597 38.7606 38.8477 40.0235 39.3351 39.8067C40.2437 39.4026 40.5185 37.9739 40.0677 37.181C38.9368 35.1916 38.4763 38.0574 38.339 38.3728" stroke="black" stroke-width="2" stroke-linecap="round"/>
<path d="M52.326 4.58161C49.0045 6.3409 46.6929 7.05212 43.4498 7.05212C39.0117 7.05212 38.6703 1.32505 28.4286 2.95333C18.1868 4.58161 21.2593 22.4225 8.02681 24.9956C6.06219 25.4324 0.0930068 29.5954 1.11725 37.1099C1.8513 40.4148 3.29953 44.458 5.45653 46.743C6.9587 48.3344 6.19741 53.896 5.3296 55.6325L5.29877 55.6942C3.28664 59.7202 0.13048 66.0354 2.82418 70.5833C3.85081 72.3166 5.45653 73.3158 7.60367 73.999C9.75081 74.6821 12.3519 76.0172 13.4073 76.4593C17.2005 78.0479 19.0749 78.4341 21.6007 81.1719C24.7475 84.5825 24.4334 90.8966 28.4286 93.8098C33.3036 97.3646 34.7343 96.019 40.3773 93.8098C43.6988 92.5094 44.4223 91.1002 47.5465 89.711C48.2982 89.3767 52.3136 89.1832 53.0088 90.0526C54.6443 92.098 56.4227 92.7851 61.885 93.1267C66.3231 94.1747 71.8387 91.5813 72.8095 90.3941C76.0905 86.382 76.5846 84.5538 75.9014 78.1737C75.2388 71.9863 84.3475 71.7454 89.4192 69.9002C93.0666 68.5732 95 66.1877 95 62.3857C95 60.253 93.4404 59.0012 92.8463 56.9207C92.3903 55.3239 89.4192 52.0803 89.4192 49.9814C89.4192 46.6631 88.8274 47.0329 89.4192 43.2581C89.9417 39.9257 92.8463 34.9223 92.8463 31.6448C92.8463 27.7566 89.7232 24.1684 85.7824 22.081C82.417 20.2984 77.589 21.4358 74.175 17.6407C68.03 10.8093 73.4923 4.58161 63.2505 1.24556C57.4468 0.220803 56.0448 2.61148 52.326 4.58161Z" stroke="black" stroke-width="2" stroke-linecap="round"/>
<path d="M31.2212 43.5635C33.9671 43.5635 36.431 43.0001 39.0497 43.0001C39.7859 43.0001 41.6744 42.9669 40.751 44.0851C40.242 44.5783 36.9095 48.5625 36.2392 49.3848C34.8063 50.5533 34.9737 51.6369 33.9671 50.5533C33.4042 49.9473 32.5869 49.5916 32.0288 49.051C31.0063 48.0603 30.0886 47.0669 29.0784 46.0882C28.6975 45.7191 28.1313 44.9273 28.0123 44.4085C27.8057 43.5074 30.2494 43.7204 31.2212 43.5635Z" fill="black" stroke="black" stroke-width="2" stroke-linecap="round"/>
<path d="M47.9735 43.5635C50.5081 43.5635 52.7824 43.0001 55.1997 43.0001C55.8793 43.0001 57.6225 42.9669 56.7702 44.0851C56.3003 44.5783 53.2242 48.5625 52.6054 49.3848C51.2827 50.5533 51.4373 51.6369 50.5081 50.5533C49.9885 49.9473 49.234 49.5916 48.7189 49.051C47.775 48.0603 46.9279 47.0669 45.9954 46.0882C45.6439 45.7191 45.1212 44.9273 45.0114 44.4085C44.8206 43.5074 47.0763 43.7204 47.9735 43.5635Z" fill="black" stroke="black" stroke-width="2" stroke-linecap="round"/>
<path d="M40 45C42.2184 44.1926 44.5411 44.6672 46.7833 44.2037C47.1791 44.1219 47.5995 44 48 44" stroke="black" stroke-width="2" stroke-linecap="round"/>
</svg>
