<svg width="375" height="304" viewBox="0 0 375 304" fill="none" xmlns="http://www.w3.org/2000/svg">
<rect width="375" height="304" fill="white"/>
<g filter="url(#filter0_d_2087_8079)">
<rect x="51" y="84" width="100" height="38" rx="19" fill="#0066FF"/>
<path d="M69.484 95.932L69.034 99.442H66.766L67.198 95.932H65.83L65.398 99.442H63.616V100.81H65.218L64.876 103.69H63.22V105.058H64.696L64.228 109H65.596L66.064 105.058H68.35L67.882 109H69.25L69.736 105.058H71.5V103.69H69.862L70.222 100.81H71.896V99.442H70.384L70.816 95.932H69.484ZM66.586 100.81H68.89L68.53 103.69H66.244L66.586 100.81ZM86.704 103.6L87.514 102.07C86.71 101.926 85.954 101.674 85.246 101.314C84.55 100.942 83.938 100.504 83.41 100C82.882 99.484 82.462 98.92 82.15 98.308C81.85 97.684 81.7 97.048 81.7 96.4V95.176H79.738V96.4C79.738 97.036 79.582 97.666 79.27 98.29C78.97 98.902 78.556 99.466 78.028 99.982C77.5 100.486 76.882 100.924 76.174 101.296C75.478 101.668 74.728 101.926 73.924 102.07L74.716 103.6C75.376 103.468 76.006 103.264 76.606 102.988C77.218 102.712 77.782 102.382 78.298 101.998C78.826 101.614 79.294 101.182 79.702 100.702C80.11 100.21 80.446 99.688 80.71 99.136C80.974 99.688 81.31 100.21 81.718 100.702C82.126 101.182 82.588 101.614 83.104 101.998C83.632 102.382 84.196 102.712 84.796 102.988C85.408 103.264 86.044 103.468 86.704 103.6ZM88.144 106.768H73.42V108.298H88.144V106.768ZM103.065 104.212V102.718H93.6865V100.486H102.579V99.028H93.6865V96.94H102.939V95.446H91.7965V104.212H103.065ZM104.721 106.876H89.9785V108.388H104.721V106.876ZM120.397 94.132H118.633V110.386H120.397V94.132ZM115.339 94.492V99.82H113.503V101.35H115.339V109.576H117.067V94.492H115.339ZM108.823 104.95V101.746H112.783V95.842H107.005V97.336H111.001V100.252H107.041V106.48H108.157C109.177 106.48 110.167 106.456 111.127 106.408C112.087 106.36 113.113 106.24 114.205 106.048L114.043 104.518C113.083 104.686 112.189 104.8 111.361 104.86C110.533 104.908 109.687 104.938 108.823 104.95ZM136.488 104.032V94.132H134.634V104.032H136.488ZM132.312 103.33L133.158 101.89C132.534 101.71 131.97 101.47 131.466 101.17C130.974 100.87 130.554 100.528 130.206 100.144C129.87 99.748 129.612 99.328 129.432 98.884C129.252 98.428 129.162 97.96 129.162 97.48V97.462H132.654V95.986H129.162V94.132H127.308V95.986H123.78V97.462H127.308V97.48C127.308 97.984 127.218 98.482 127.038 98.974C126.858 99.466 126.594 99.928 126.246 100.36C125.91 100.78 125.496 101.158 125.004 101.494C124.512 101.818 123.948 102.076 123.312 102.268L124.194 103.69C125.178 103.39 126.012 102.934 126.696 102.322C127.38 101.71 127.902 100.99 128.262 100.162C128.646 100.918 129.18 101.572 129.864 102.124C130.548 102.664 131.364 103.066 132.312 103.33ZM131.052 104.338C130.2 104.338 129.432 104.41 128.748 104.554C128.064 104.686 127.482 104.884 127.002 105.148C126.534 105.4 126.174 105.712 125.922 106.084C125.67 106.456 125.544 106.882 125.544 107.362C125.544 107.842 125.67 108.268 125.922 108.64C126.174 109.012 126.534 109.324 127.002 109.576C127.482 109.84 128.064 110.038 128.748 110.17C129.432 110.314 130.2 110.386 131.052 110.386C131.904 110.386 132.672 110.314 133.356 110.17C134.04 110.038 134.616 109.84 135.084 109.576C135.564 109.324 135.93 109.012 136.182 108.64C136.434 108.268 136.56 107.842 136.56 107.362C136.56 106.882 136.434 106.456 136.182 106.084C135.93 105.712 135.564 105.4 135.084 105.148C134.616 104.884 134.04 104.686 133.356 104.554C132.672 104.41 131.904 104.338 131.052 104.338ZM131.052 108.946C129.888 108.946 128.988 108.814 128.352 108.55C127.716 108.274 127.398 107.878 127.398 107.362C127.398 106.846 127.716 106.456 128.352 106.192C128.988 105.916 129.888 105.778 131.052 105.778C132.216 105.778 133.116 105.916 133.752 106.192C134.388 106.456 134.706 106.846 134.706 107.362C134.706 107.878 134.388 108.274 133.752 108.55C133.116 108.814 132.216 108.946 131.052 108.946Z" fill="white"/>
</g>
<g filter="url(#filter1_d_2087_8079)">
<rect x="125" y="57" width="103" height="32" rx="16" fill="#0066FF"/>
<path d="M139.208 67.384L138.808 70.504H136.792L137.176 67.384H135.96L135.576 70.504H133.992V71.72H135.416L135.112 74.28H133.64V75.496H134.952L134.536 79H135.752L136.168 75.496H138.2L137.784 79H139L139.432 75.496H141V74.28H139.544L139.864 71.72H141.352V70.504H140.008L140.392 67.384H139.208ZM136.632 71.72H138.68L138.36 74.28H136.328L136.632 71.72ZM155.011 75.56V65.768H153.443V75.56H155.011ZM150.531 70.296V74.264H152.083V66.056H150.531V68.968H147.699V70.296H150.531ZM149.459 73.384L149.283 72.04C147.795 72.36 146.467 72.472 145.059 72.52V67.064H143.427V73.864H144.371C146.083 73.864 147.619 73.784 149.459 73.384ZM150.915 75.288V74.84H149.267V75.288C149.267 77 147.315 78.52 144.499 78.904L145.123 80.184C147.379 79.848 149.203 78.808 150.099 77.336C150.995 78.808 152.819 79.848 155.075 80.184L155.667 78.904C152.899 78.52 150.915 77 150.915 75.288ZM160.625 67.464V69.8H158.657V71.048H169.201V69.8H167.249V67.464H169.281V66.2H158.577V67.464H160.625ZM165.601 67.464V69.8H162.273V67.464H165.601ZM170.497 72.056H157.409V73.368H170.497V72.056ZM160.625 78.872V77.784H168.849V74.424H158.961V75.64H167.233V76.648H158.993V80.104H169.265V78.872H160.625ZM184.048 65.768H182.4V74.648H184.048V65.768ZM181.088 73.48L180.896 72.152C178.816 72.488 176.992 72.584 174.512 72.584V70.808H179.456V66.6H172.848V67.928H177.84V69.56H172.88V73.928H174.096C176.864 73.928 178.832 73.864 181.088 73.48ZM174.304 75.352V76.696H182.4V80.248H184.048V75.352H174.304ZM198.671 74.2L199.391 72.84C196.543 72.328 194.223 70.104 194.223 67.8V66.712H192.479V67.8C192.479 70.056 190.159 72.328 187.311 72.84L188.015 74.2C190.367 73.736 192.399 72.2 193.343 70.232C194.287 72.2 196.319 73.736 198.671 74.2ZM199.951 77.016H186.863V78.376H199.951V77.016ZM218.232 72.872H212.504V71.496H216.536V66.104H214.904V67.528H208.472V66.104H206.84V71.496H210.84V72.872H205.128V74.2H218.232V72.872ZM208.472 70.184V68.792H214.904V70.184H208.472ZM206.712 75.336V80.056H216.632V75.336H206.712ZM208.344 78.744V76.648H215.016V78.744H208.344Z" fill="white"/>
</g>
<g filter="url(#filter2_d_2087_8079)">
<rect x="87" y="135" width="103" height="32" rx="16" fill="#0066FF"/>
<path d="M101.208 145.384L100.808 148.504H98.792L99.176 145.384H97.96L97.576 148.504H95.992V149.72H97.416L97.112 152.28H95.64V153.496H96.952L96.536 157H97.752L98.168 153.496H100.2L99.784 157H101L101.432 153.496H103V152.28H101.544L101.864 149.72H103.352V148.504H102.008L102.392 145.384H101.208ZM98.632 149.72H100.68L100.36 152.28H98.328L98.632 149.72ZM111.539 150.392H115.027V152.296H116.675V143.768H115.027V145.768H111.539C110.851 145.048 109.891 144.6 108.675 144.6C106.515 144.6 104.899 146.04 104.899 148.088C104.899 150.12 106.515 151.56 108.675 151.56C109.843 151.56 110.851 151.144 111.539 150.392ZM106.467 148.088C106.467 146.824 107.395 145.992 108.675 145.992C109.955 145.992 110.851 146.808 110.851 148.088C110.851 149.368 109.955 150.168 108.675 150.168C107.395 150.168 106.467 149.32 106.467 148.088ZM112.291 147.112H115.027V149.064H112.275C112.371 148.76 112.419 148.424 112.419 148.088C112.419 147.784 112.371 147.48 112.291 147.112ZM111.859 152.616C108.851 152.616 106.995 153.672 106.995 155.416C106.995 157.192 108.851 158.232 111.859 158.232C114.867 158.232 116.739 157.192 116.739 155.416C116.739 153.672 114.867 152.616 111.859 152.616ZM111.859 156.936C109.795 156.936 108.611 156.44 108.611 155.416C108.611 154.456 109.795 153.912 111.859 153.912C113.923 153.912 115.107 154.456 115.107 155.416C115.107 156.44 113.923 156.936 111.859 156.936ZM130.705 147.112H132.705V145.752H130.705V143.768H129.057V152.28H130.705V150.232H132.705V148.872H130.705V147.112ZM127.297 148.056C127.297 146.008 125.665 144.616 123.441 144.616C121.249 144.616 119.601 146.008 119.601 148.056C119.601 150.088 121.249 151.512 123.441 151.512C125.665 151.512 127.297 150.088 127.297 148.056ZM121.217 148.056C121.217 146.808 122.161 145.992 123.441 145.992C124.737 145.992 125.681 146.776 125.681 148.056C125.681 149.336 124.737 150.12 123.441 150.12C122.161 150.12 121.217 149.32 121.217 148.056ZM126.049 152.68C123.089 152.68 121.233 153.736 121.233 155.464C121.233 157.192 123.089 158.232 126.049 158.232C129.025 158.232 130.865 157.192 130.865 155.464C130.865 153.736 129.025 152.68 126.049 152.68ZM126.049 156.92C123.985 156.92 122.865 156.424 122.865 155.464C122.865 154.504 123.985 153.992 126.049 153.992C128.113 153.992 129.233 154.504 129.233 155.464C129.233 156.424 128.113 156.92 126.049 156.92ZM146.464 143.768H144.896V158.216H146.464V143.768ZM141.984 144.056V148.856H139.856V150.2H141.984V157.528H143.536V144.056H141.984ZM138.528 147.752V146.712H140.912V145.352H134.384V146.712H136.928V147.752C136.928 150.328 135.968 152.936 133.92 154.216L134.912 155.432C136.32 154.536 137.232 153.048 137.744 151.176C138.256 152.856 139.152 154.264 140.512 155.08L141.472 153.88C139.44 152.728 138.528 150.184 138.528 147.752ZM164.409 143.784H162.761V147.32H159.753V144.856H153.065V151.432H159.753V148.664H162.761V152.328H164.409V143.784ZM158.153 146.168V150.12H154.681V146.168H158.153ZM154.665 153.064V154.392H162.761V158.264H164.409V153.064H154.665ZM173.688 144.088C170.536 144.088 168.536 145.128 168.536 146.856C168.536 148.568 170.536 149.624 173.688 149.624C176.84 149.624 178.84 148.568 178.84 146.856C178.84 145.128 176.84 144.088 173.688 144.088ZM173.688 145.368C175.88 145.368 177.128 145.896 177.128 146.856C177.128 147.816 175.88 148.328 173.688 148.328C171.496 148.328 170.232 147.816 170.232 146.856C170.232 145.896 171.496 145.368 173.688 145.368ZM180.216 150.68H167.144V151.992H180.216V150.68ZM178.632 153.224H168.712V158.056H178.632V153.224ZM170.344 154.536H177.016V156.744H170.344V154.536Z" fill="white"/>
</g>
<g filter="url(#filter3_d_2087_8079)">
<rect x="211" y="76" width="79" height="46" rx="23" fill="#0066FF"/>
<path d="M232.536 91.028L231.986 95.318H229.214L229.742 91.028H228.07L227.542 95.318H225.364V96.99H227.322L226.904 100.51H224.88V102.182H226.684L226.112 107H227.784L228.356 102.182H231.15L230.578 107H232.25L232.844 102.182H235V100.51H232.998L233.438 96.99H235.484V95.318H233.636L234.164 91.028H232.536ZM228.994 96.99H231.81L231.37 100.51H228.576L228.994 96.99ZM255.673 94.768H252.857V88.806H250.591V103.458H252.857V96.638H255.673V94.768ZM247.907 100.356L249.051 98.552C248.303 98.288 247.635 97.9433 247.049 97.518C246.462 97.0927 245.963 96.6087 245.553 96.066C245.157 95.5233 244.849 94.9367 244.629 94.306C244.423 93.6753 244.321 93.03 244.321 92.37V90.038H242.033V92.348C242.033 93.0667 241.923 93.7707 241.703 94.46C241.497 95.1493 241.189 95.7873 240.779 96.374C240.368 96.9607 239.855 97.4813 239.239 97.936C238.637 98.3907 237.941 98.75 237.149 99.014L238.381 100.774C239.569 100.349 240.566 99.7327 241.373 98.926C242.179 98.1193 242.795 97.166 243.221 96.066C243.661 97.034 244.277 97.8993 245.069 98.662C245.861 99.41 246.807 99.9747 247.907 100.356ZM242.583 106.472V102.05H240.317V108.32H253.649V106.472H242.583ZM274.393 88.85H272.237V93.998H270.191V89.18H268.057V100.906H270.191V95.846H272.237V101.016H274.393V88.85ZM266.385 100.136L267.419 98.442C266.275 98.0167 265.358 97.3567 264.669 96.462C263.98 95.5527 263.635 94.4747 263.635 93.228V93.074H266.891V91.27H263.635V89.026H261.457V91.27H258.113V93.074H261.457V93.228C261.457 93.8147 261.376 94.394 261.215 94.966C261.054 95.5233 260.812 96.044 260.489 96.528C260.181 97.012 259.785 97.452 259.301 97.848C258.832 98.2293 258.282 98.5447 257.651 98.794L258.729 100.488C259.697 100.107 260.496 99.5713 261.127 98.882C261.758 98.1927 262.242 97.408 262.579 96.528C262.946 97.364 263.437 98.09 264.053 98.706C264.684 99.3073 265.461 99.784 266.385 100.136ZM260.929 101.984V103.81H272.127V108.716H274.393V101.984H260.929Z" fill="white"/>
</g>
<g filter="url(#filter4_d_2087_8079)">
<rect x="205" y="151" width="84" height="32" rx="16" fill="#0066FF"/>
<path d="M224.708 161.384L224.308 164.504H222.292L222.676 161.384H221.46L221.076 164.504H219.492V165.72H220.916L220.612 168.28H219.14V169.496H220.452L220.036 173H221.252L221.668 169.496H223.7L223.284 173H224.5L224.932 169.496H226.5V168.28H225.044L225.364 165.72H226.852V164.504H225.508L225.892 161.384H224.708ZM222.132 165.72H224.18L223.86 168.28H221.828L222.132 165.72ZM241.535 163.304H239.487V159.784H237.839V168.408H239.487V164.664H241.535V163.304ZM235.519 167.416V160.696H233.887V162.696H230.351V160.696H228.703V167.416H235.519ZM233.887 163.992V166.104H230.351V163.992H233.887ZM234.831 168.744C234.084 168.744 233.412 168.808 232.815 168.936C232.228 169.064 231.727 169.245 231.311 169.48C230.895 169.715 230.575 170.003 230.351 170.344C230.127 170.685 230.015 171.069 230.015 171.496C230.015 171.923 230.127 172.307 230.351 172.648C230.575 172.989 230.895 173.277 231.311 173.512C231.727 173.757 232.228 173.939 232.815 174.056C233.412 174.184 234.084 174.248 234.831 174.248C235.577 174.248 236.244 174.184 236.831 174.056C237.428 173.939 237.935 173.757 238.351 173.512C238.767 173.277 239.087 172.989 239.311 172.648C239.535 172.307 239.647 171.923 239.647 171.496C239.647 171.069 239.535 170.685 239.311 170.344C239.087 170.003 238.767 169.715 238.351 169.48C237.935 169.245 237.428 169.064 236.831 168.936C236.244 168.808 235.577 168.744 234.831 168.744ZM234.831 172.952C233.796 172.952 233.007 172.829 232.463 172.584C231.919 172.339 231.647 171.976 231.647 171.496C231.647 171.016 231.919 170.659 232.463 170.424C233.007 170.179 233.796 170.056 234.831 170.056C235.865 170.056 236.655 170.179 237.199 170.424C237.743 170.659 238.015 171.016 238.015 171.496C238.015 171.976 237.743 172.339 237.199 172.584C236.655 172.829 235.865 172.952 234.831 172.952ZM254.344 167.976L255.112 166.712C254.557 166.552 254.061 166.339 253.624 166.072C253.197 165.805 252.829 165.501 252.52 165.16C252.221 164.819 251.992 164.456 251.832 164.072C251.672 163.677 251.592 163.272 251.592 162.856V162.728H254.632V161.416H251.608V159.704H249.944V161.416H246.904V162.728H249.944V162.856C249.944 163.304 249.864 163.747 249.704 164.184C249.554 164.611 249.33 165.011 249.032 165.384C248.744 165.747 248.381 166.077 247.944 166.376C247.517 166.664 247.026 166.893 246.472 167.064L247.272 168.344C248.136 168.077 248.861 167.677 249.448 167.144C250.045 166.611 250.504 165.976 250.824 165.24C251.154 165.88 251.613 166.44 252.2 166.92C252.797 167.389 253.512 167.741 254.344 167.976ZM256.824 163.768H254.216V165.128H256.824V168.52H258.472V159.768H256.824V163.768ZM253.656 168.84C252.141 168.84 250.952 169.075 250.088 169.544C249.224 170.003 248.792 170.664 248.792 171.528C248.792 171.955 248.904 172.339 249.128 172.68C249.352 173.011 249.672 173.288 250.088 173.512C250.504 173.747 251.01 173.923 251.608 174.04C252.216 174.168 252.898 174.232 253.656 174.232C254.413 174.232 255.09 174.168 255.688 174.04C256.296 173.923 256.808 173.747 257.224 173.512C257.65 173.288 257.976 173.011 258.2 172.68C258.424 172.339 258.536 171.955 258.536 171.528C258.536 171.101 258.424 170.723 258.2 170.392C257.976 170.061 257.65 169.784 257.224 169.56C256.808 169.325 256.296 169.149 255.688 169.032C255.09 168.904 254.413 168.84 253.656 168.84ZM253.656 172.952C252.621 172.952 251.826 172.829 251.272 172.584C250.717 172.339 250.44 171.987 250.44 171.528C250.44 171.069 250.717 170.723 251.272 170.488C251.826 170.243 252.621 170.12 253.656 170.12C254.69 170.12 255.485 170.243 256.04 170.488C256.605 170.723 256.888 171.069 256.888 171.528C256.888 171.987 256.605 172.339 256.04 172.584C255.485 172.829 254.69 172.952 253.656 172.952ZM273.062 167.992L273.75 166.616C273.036 166.499 272.364 166.285 271.734 165.976C271.116 165.656 270.572 165.277 270.102 164.84C269.633 164.403 269.26 163.917 268.982 163.384C268.716 162.851 268.582 162.307 268.582 161.752V160.664H266.838V161.752C266.838 162.307 266.7 162.851 266.422 163.384C266.156 163.917 265.788 164.403 265.318 164.84C264.849 165.277 264.3 165.656 263.67 165.976C263.041 166.285 262.369 166.499 261.654 166.616L262.358 167.992C262.945 167.875 263.51 167.699 264.054 167.464C264.598 167.229 265.1 166.952 265.558 166.632C266.028 166.301 266.444 165.928 266.806 165.512C267.18 165.096 267.484 164.648 267.718 164.168C267.974 164.68 268.289 165.149 268.662 165.576C269.046 165.992 269.473 166.365 269.942 166.696C270.412 167.016 270.913 167.288 271.446 167.512C271.98 167.725 272.518 167.885 273.062 167.992ZM274.31 171.08H268.518V167.704H266.87V171.08H261.222V172.44H274.31V171.08Z" fill="white"/>
</g>
<line y1="-1.5" x2="33.7187" y2="-1.5" transform="matrix(0.162679 0.986679 0.986679 -0.162679 304.964 172.274)" stroke="#FF46F8" stroke-width="3"/>
<line y1="-1.5" x2="33.7187" y2="-1.5" transform="matrix(0.978685 -0.205368 -0.205368 -0.978685 291 191.012)" stroke="#FF46F8" stroke-width="3"/>
<line y1="-1.5" x2="47.6855" y2="-1.5" transform="matrix(0.582656 -0.812719 -0.812719 -0.582656 293.842 205.755)" stroke="#FF46F8" stroke-width="3"/>
<circle cx="277.5" cy="204.5" r="5.5" fill="#FF6B6B"/>
<circle cx="279.5" cy="200.5" r="5" stroke="black"/>
<defs>
<filter id="filter0_d_2087_8079" x="31" y="68" width="140" height="78" filterUnits="userSpaceOnUse" color-interpolation-filters="sRGB">
<feFlood flood-opacity="0" result="BackgroundImageFix"/>
<feColorMatrix in="SourceAlpha" type="matrix" values="0 0 0 0 0 0 0 0 0 0 0 0 0 0 0 0 0 0 127 0" result="hardAlpha"/>
<feOffset dy="4"/>
<feGaussianBlur stdDeviation="10"/>
<feComposite in2="hardAlpha" operator="out"/>
<feColorMatrix type="matrix" values="0 0 0 0 0 0 0 0 0 0 0 0 0 0 0 0 0 0 0.08 0"/>
<feBlend mode="normal" in2="BackgroundImageFix" result="effect1_dropShadow_2087_8079"/>
<feBlend mode="normal" in="SourceGraphic" in2="effect1_dropShadow_2087_8079" result="shape"/>
</filter>
<filter id="filter1_d_2087_8079" x="105" y="41" width="143" height="72" filterUnits="userSpaceOnUse" color-interpolation-filters="sRGB">
<feFlood flood-opacity="0" result="BackgroundImageFix"/>
<feColorMatrix in="SourceAlpha" type="matrix" values="0 0 0 0 0 0 0 0 0 0 0 0 0 0 0 0 0 0 127 0" result="hardAlpha"/>
<feOffset dy="4"/>
<feGaussianBlur stdDeviation="10"/>
<feComposite in2="hardAlpha" operator="out"/>
<feColorMatrix type="matrix" values="0 0 0 0 0 0 0 0 0 0 0 0 0 0 0 0 0 0 0.08 0"/>
<feBlend mode="normal" in2="BackgroundImageFix" result="effect1_dropShadow_2087_8079"/>
<feBlend mode="normal" in="SourceGraphic" in2="effect1_dropShadow_2087_8079" result="shape"/>
</filter>
<filter id="filter2_d_2087_8079" x="67" y="119" width="143" height="72" filterUnits="userSpaceOnUse" color-interpolation-filters="sRGB">
<feFlood flood-opacity="0" result="BackgroundImageFix"/>
<feColorMatrix in="SourceAlpha" type="matrix" values="0 0 0 0 0 0 0 0 0 0 0 0 0 0 0 0 0 0 127 0" result="hardAlpha"/>
<feOffset dy="4"/>
<feGaussianBlur stdDeviation="10"/>
<feComposite in2="hardAlpha" operator="out"/>
<feColorMatrix type="matrix" values="0 0 0 0 0 0 0 0 0 0 0 0 0 0 0 0 0 0 0.08 0"/>
<feBlend mode="normal" in2="BackgroundImageFix" result="effect1_dropShadow_2087_8079"/>
<feBlend mode="normal" in="SourceGraphic" in2="effect1_dropShadow_2087_8079" result="shape"/>
</filter>
<filter id="filter3_d_2087_8079" x="191" y="56" width="119" height="86" filterUnits="userSpaceOnUse" color-interpolation-filters="sRGB">
<feFlood flood-opacity="0" result="BackgroundImageFix"/>
<feColorMatrix in="SourceAlpha" type="matrix" values="0 0 0 0 0 0 0 0 0 0 0 0 0 0 0 0 0 0 127 0" result="hardAlpha"/>
<feOffset/>
<feGaussianBlur stdDeviation="10"/>
<feComposite in2="hardAlpha" operator="out"/>
<feColorMatrix type="matrix" values="0 0 0 0 0 0 0 0 0 0 0 0 0 0 0 0 0 0 0.15 0"/>
<feBlend mode="normal" in2="BackgroundImageFix" result="effect1_dropShadow_2087_8079"/>
<feBlend mode="normal" in="SourceGraphic" in2="effect1_dropShadow_2087_8079" result="shape"/>
</filter>
<filter id="filter4_d_2087_8079" x="185" y="135" width="124" height="72" filterUnits="userSpaceOnUse" color-interpolation-filters="sRGB">
<feFlood flood-opacity="0" result="BackgroundImageFix"/>
<feColorMatrix in="SourceAlpha" type="matrix" values="0 0 0 0 0 0 0 0 0 0 0 0 0 0 0 0 0 0 127 0" result="hardAlpha"/>
<feOffset dy="4"/>
<feGaussianBlur stdDeviation="10"/>
<feComposite in2="hardAlpha" operator="out"/>
<feColorMatrix type="matrix" values="0 0 0 0 0 0 0 0 0 0 0 0 0 0 0 0 0 0 0.08 0"/>
<feBlend mode="normal" in2="BackgroundImageFix" result="effect1_dropShadow_2087_8079"/>
<feBlend mode="normal" in="SourceGraphic" in2="effect1_dropShadow_2087_8079" result="shape"/>
</filter>
</defs>
</svg>
