<svg width="450" height="450" viewBox="0 0 450 450" fill="none" xmlns="http://www.w3.org/2000/svg">
<g opacity="0.3">
<path d="M237.703 325.79C238.19 335.088 238.235 344.408 237.791 353.695C237.592 358.03 237.259 362.861 236.872 366.899C236.783 367.812 236.705 368.747 236.561 369.65C236.484 370.101 236.362 370.519 236.251 370.959C236.14 371.399 236.317 370.728 236.351 370.673C236.572 370.332 236.949 370.145 236.473 370.497C237.005 370.101 237.659 369.804 238.179 369.463C238.7 369.122 238.445 369.386 238.113 369.463C237.127 369.661 238.844 369.463 237.836 369.463C236.827 369.463 235.531 369.463 234.389 369.463L218.076 369.518C215.494 369.518 212.214 371.069 211.682 373.864C211.567 374.457 211.589 375.069 211.747 375.652C211.905 376.236 212.195 376.776 212.594 377.232C212.993 377.687 213.492 378.047 214.052 378.283C214.612 378.52 215.219 378.627 215.826 378.596L231.585 378.541C234.079 378.541 236.794 378.772 239.243 378.166C240.965 377.794 242.561 376.984 243.872 375.815C245.184 374.646 246.166 373.158 246.724 371.498C247.304 369.197 247.62 366.839 247.666 364.467C247.909 361.947 248.098 359.427 248.264 356.908C248.604 351.773 248.8 346.638 248.851 341.503C248.911 335.634 248.781 329.766 248.464 323.897C248.32 321.19 245.194 319.925 242.812 320.442C240.429 320.959 237.548 322.995 237.703 325.845V325.79Z" fill="black"/>
<path d="M182.415 328.231C183.137 339.2 182.879 350.208 181.644 361.134C181.32 363.916 180.94 366.675 180.527 369.435C180.405 370.424 180.214 371.403 179.957 372.367C179.876 372.634 179.779 372.896 179.666 373.151C180.088 372.405 180.675 371.758 181.386 371.253C182.096 370.748 182.913 370.399 183.779 370.23C183.567 370.23 182.382 370.434 182.594 370.413C176.816 370.885 170.993 371.078 165.215 371.411C163.898 371.523 162.617 371.883 161.446 372.471C160.274 373.059 159.234 373.863 158.386 374.837C157.604 375.75 155.95 378.746 158.621 378.595L173.821 377.715C176.827 377.543 179.632 377.436 182.415 376.19C184.007 375.531 185.442 374.566 186.632 373.354C187.822 372.143 188.741 370.711 189.334 369.145C189.931 366.823 190.346 364.461 190.574 362.079C190.932 359.667 191.237 357.243 191.491 354.809C192.005 349.955 192.321 345.084 192.441 340.194C192.59 334.61 192.474 329.033 192.094 323.463C191.949 321.251 188.238 322.604 187.165 323.162C185.489 324.021 182.292 326.019 182.438 328.231H182.415Z" fill="black"/>
<path d="M317.293 259.902C323.506 278.842 320.694 298.305 309.115 316.521C308.257 317.853 315.934 321.328 316.749 320.051C328.419 301.588 331.187 281.866 324.802 262.688C324.004 261.449 322.423 260.393 320.326 259.702C319.364 259.347 316.896 258.681 317.293 259.858V259.902Z" fill="black"/>
<path d="M106.533 266.101L113.135 328.786C113.137 329.494 113.633 330.179 114.537 330.723C115.441 331.267 116.697 331.635 118.085 331.764C120.528 331.962 123.872 331.102 123.718 329.657L117.117 266.973C117.125 266.265 116.635 265.579 115.734 265.035C114.832 264.49 113.577 264.122 112.189 263.995C109.724 263.797 106.379 264.657 106.533 266.101V266.101Z" fill="black"/>
<path d="M340.347 145.197C347.794 161.224 330.802 183.179 331.56 199.825C332.329 217.08 350.958 237.431 345.202 253.446C339.446 269.462 312.173 273.057 300.607 285.809C289.458 298.109 288.524 325.926 272.608 333.436C256.693 340.946 234.889 323.824 218.358 324.588C201.234 325.362 181.013 344.12 165.108 338.325C149.203 332.529 145.633 305.066 132.969 293.419C120.754 282.193 93.1294 281.252 85.7371 265.226C78.3449 249.199 95.2713 227.244 94.5244 210.598C93.7555 193.344 75.1265 172.992 80.8822 156.977C86.6378 140.961 113.911 137.367 125.477 124.614C136.626 112.314 137.56 84.4973 153.476 76.9983C169.392 69.4993 191.195 86.5988 207.726 85.8467C224.861 85.0724 245.072 66.3139 260.977 72.1096C276.881 77.9053 280.451 105.368 293.116 117.015C305.264 128.23 332.889 129.171 340.347 145.197Z" fill="black"/>
<path d="M192.65 205.324C200.121 204.13 207.651 202.93 215.162 202.064C217.267 201.822 225.53 199.354 224.955 202.514C223.389 211.116 220.381 218.425 217.116 226.478C216.447 228.129 212.08 238.251 210.322 237.133C208.564 236.016 203.095 227.562 201.364 223.529C200.276 220.994 194.398 208.918 192.504 206.817" stroke="black" stroke-width="6" stroke-linecap="round"/>
<path d="M228.735 177.882C229.161 178.391 230.266 181.986 231.653 181.369C234.239 180.219 235.021 176.152 233.738 173.895C230.519 168.233 229.209 176.39 228.818 177.287" stroke="black" stroke-width="6" stroke-linecap="round"/>
<path d="M185.62 177.882C186.046 178.391 187.15 181.986 188.538 181.369C191.124 180.219 191.906 176.152 190.623 173.895C187.404 168.233 186.093 176.39 185.703 177.287" stroke="black" stroke-width="6" stroke-linecap="round"/>
<path d="M33.9268 112.077C33.9268 116.935 32.9547 121.616 30.059 125.694C26.6057 130.558 25.2256 131.53 21.3572 134.448C17.4888 137.366 8.44977 137.109 11.6873 137.366C21.7557 138.166 31.0262 157.41 31.0262 165.573" stroke="black" stroke-width="6" stroke-linecap="round"/>
<path d="M34.0793 112.077C34.0793 116.096 37.0473 134.869 44.1419 136.393C45.6059 136.708 49.8672 137.234 51.1215 138.043M49.1732 139.311C34.0793 143.202 31.0605 160.094 31.0605 165.573" stroke="black" stroke-width="6" stroke-linecap="round"/>
<path d="M40.4464 181.812C41.7062 191.217 37.1564 197.85 28.9305 202.442C22.1497 206.228 20.402 203.724 30.7663 205.964C41.7027 208.328 46.3457 223.941 46.3457 233.398" stroke="black" stroke-width="6" stroke-linecap="round"/>
<path d="M40.6133 182.768C44.366 191.698 52.4423 195.863 61.5316 195.863C65.6869 195.863 67.4757 194.292 62.1403 196.367C59.4733 197.405 55.3322 202.659 54.2255 205.009C52.4881 208.699 51.3215 211.862 50.3535 215.777C49.6491 218.626 47.7586 230.741 47.4494 233.398" stroke="black" stroke-width="6" stroke-linecap="round"/>
<path d="M225.829 81.1923C216.378 86.1988 209.8 88.2227 200.572 88.2227C187.943 88.2227 186.972 71.925 157.829 76.5587C128.686 81.1923 137.429 131.963 99.7752 139.285C94.1848 140.528 77.1994 152.375 80.1139 173.759C82.2027 183.164 86.3236 194.67 92.4614 201.173C96.7359 205.701 94.5696 221.528 92.1002 226.47L92.0125 226.645C86.287 238.102 77.306 256.073 84.971 269.016C87.8923 273.948 92.4614 276.792 98.5711 278.736C104.681 280.68 112.082 284.479 115.086 285.737C125.879 290.258 131.213 291.357 138.4 299.148C147.354 308.854 146.461 326.822 157.829 335.112C171.701 345.228 175.772 341.399 191.829 335.112C201.281 331.411 203.339 327.401 212.229 323.448C214.368 322.497 225.794 321.946 227.772 324.42C232.426 330.241 237.487 332.196 253.03 333.168C265.658 336.151 281.353 328.77 284.116 325.392C293.452 313.975 294.858 308.772 292.914 290.616C291.028 273.008 316.947 272.323 331.379 267.072C341.758 263.295 347.259 256.507 347.259 245.688C347.259 239.618 342.821 236.056 341.131 230.135C339.833 225.591 331.379 216.361 331.379 210.388C331.379 200.945 329.695 201.997 331.379 191.255C332.866 181.772 341.131 167.534 341.131 158.207C341.131 147.142 332.244 136.931 321.03 130.991C311.454 125.918 297.716 129.155 288.001 118.355C270.515 98.9148 286.059 81.1923 256.915 71.6988C240.401 68.7826 236.411 75.5858 225.829 81.1923Z" stroke="black" stroke-width="6" stroke-linecap="round"/>
<path d="M166.153 191.07C173.821 191.07 180.701 189.455 188.013 189.455C190.069 189.455 195.342 189.36 192.764 192.565C191.342 193.978 182.037 205.396 180.165 207.753C176.164 211.102 176.631 214.207 173.821 211.102C172.249 209.365 169.966 208.346 168.408 206.796C165.553 203.957 162.99 201.11 160.169 198.305C159.106 197.248 157.525 194.979 157.193 193.492C156.616 190.909 163.439 191.52 166.153 191.07Z" fill="black" stroke="black" stroke-width="6" stroke-linecap="round"/>
<path d="M212.962 191.07C220.629 191.07 227.509 189.455 234.821 189.455C236.877 189.455 242.151 189.36 239.572 192.565C238.151 193.978 228.845 205.396 226.974 207.753C222.972 211.102 223.44 214.207 220.629 211.102C219.057 209.365 216.775 208.346 215.217 206.796C212.361 203.957 209.799 201.11 206.978 198.305C205.914 197.248 204.334 194.979 204.001 193.492C203.424 190.909 210.248 191.52 212.962 191.07Z" fill="black" stroke="black" stroke-width="6" stroke-linecap="round"/>
<path d="M190.593 196.142C196.685 194.6 203.065 195.506 209.223 194.621C210.31 194.464 211.464 194.231 212.564 194.231" stroke="black" stroke-width="6" stroke-linecap="round"/>
<path d="M353.946 105.871C355.409 104.033 357.497 102.82 358.752 100.835C359.318 99.9395 360.513 99.0554 361.356 98.3996C363.385 96.8216 365.013 94.9718 366.954 93.298C368.423 92.0321 369.787 90.6995 371.242 89.447C371.581 89.1552 372.002 88.7857 372.229 88.3938C372.611 87.7326 375.049 88.9185 375.626 89.1179C377.387 89.7263 379.082 89.9924 380.885 91.0598C385.434 93.7541 386.423 94.994 388.036 96.5565C391.233 99.6527 394.483 101.93 397.727 104.785C399.966 106.756 402.59 108.111 404.862 110.002C406.836 111.645 408.668 113.5 410.719 115.038C412.981 116.733 414.673 118.83 416.786 120.682C417.441 121.256 418.671 122.272 418.873 123.2C419.084 124.165 418.207 124.81 417.725 125.488C416.006 127.901 413.796 130.414 411.657 132.466C408.905 135.105 407.664 136.028 404.764 138.977C403.629 140.132 402.324 141.691 399.96 142.899C396.066 144.889 392.872 146.338 389.638 148.165C389.382 148.31 387.624 149.743 387.437 149.219C386.73 147.24 386.4 145.859 385.172 143.492C381.568 137.994 379.118 135.297 376.516 130.886C374.907 128.158 373.523 125.281 371.84 122.591C370.698 120.765 370.936 120.298 369.003 118.332C367.07 116.365 365.137 114.1 364.171 113.416C363.007 112.593 361.87 111.369 360.644 110.677C359.889 110.25 359.213 109.864 358.372 109.484C357.058 108.89 354.761 107.24 353.946 105.997" stroke="black" stroke-width="6" stroke-linecap="round"/>
<path d="M397.974 182.805C400.207 183.507 402.094 185.021 404.385 185.474C405.419 185.679 406.674 186.477 407.589 187.028C409.792 188.354 412.096 189.206 414.354 190.415C416.061 191.33 417.792 192.123 419.482 193.03C419.876 193.242 420.372 193.502 420.817 193.572C421.566 193.689 421.376 196.403 421.406 197.015C421.496 198.884 421.878 200.569 421.561 202.644C420.763 207.882 419.987 209.258 419.145 211.336C417.477 215.454 416.582 219.323 415.153 223.398C414.167 226.21 413.889 229.159 412.988 231.973C412.205 234.419 411.174 236.807 410.517 239.286C409.793 242.02 408.488 244.366 407.564 247.017C407.278 247.839 406.797 249.359 406.018 249.886C405.208 250.434 404.29 249.847 403.488 249.641C400.632 248.91 397.502 247.753 394.823 246.496C391.377 244.879 390.069 244.051 386.283 242.408C384.8 241.765 382.883 241.11 380.897 239.336C377.627 236.412 375.113 233.949 372.236 231.585C372.009 231.398 370.04 230.273 370.453 229.908C372.013 228.526 373.163 227.716 374.888 225.706C378.616 220.335 380.193 217.062 383.291 213.023C385.207 210.526 387.344 208.185 389.198 205.632C390.456 203.899 390.974 203.952 392.07 201.428C393.165 198.904 394.536 196.272 394.808 195.118C395.136 193.73 395.842 192.221 396.027 190.822C396.14 189.959 396.245 189.187 396.285 188.26C396.346 186.815 397.015 184.066 397.859 182.851" stroke="black" stroke-width="6" stroke-linecap="round"/>
<path d="M384.429 101.569C383.369 102.671 379.077 107.658 378.018 108.759C377.41 109.391 376.814 110.123 376.611 110.739C376.335 111.578 375.87 112.379 375.922 113.359C375.951 113.898 375.965 114.542 376.611 114.621C378.009 114.792 379.703 114.342 381.594 113.359C383.444 112.398 391.078 108.759 392.936 108.759C393.572 108.759 386.691 115.142 385.375 116.307C384.058 117.471 383.396 119.055 383.484 120.777C383.535 121.769 383.678 121.537 384.157 122.432C384.242 122.592 384.801 122.577 384.931 122.57C385.824 122.524 387.363 122.701 388.21 122.432C389.416 122.05 390.798 121.642 391.991 121.219C393.934 120.531 395.212 119.464 396.86 118.141C397.164 117.897 397.72 117.467 397.889 117.115" stroke="black" stroke-width="6" stroke-linecap="round"/>
<path d="M413.167 209.834C411.752 209.22 405.537 206.925 404.123 206.311C403.312 205.959 402.412 205.654 401.768 205.684C400.891 205.725 399.978 205.57 399.094 205.977C398.609 206.2 398.022 206.448 398.193 207.095C398.564 208.495 399.618 209.953 401.238 211.406C402.822 212.828 409.058 218.813 409.76 220.592C410 221.2 401.521 216.934 399.952 216.097C398.382 215.26 396.673 215.202 395.12 215.913C394.226 216.322 394.494 216.375 393.85 217.158C393.735 217.298 393.96 217.827 394.016 217.95C394.396 218.788 394.815 220.325 395.382 221.038C396.19 222.053 397.087 223.228 397.928 224.217C399.296 225.826 400.762 226.662 402.602 227.759C402.942 227.961 403.549 228.337 403.936 228.371" stroke="black" stroke-width="6" stroke-linecap="round"/>
<path d="M376.873 103.479C380.258 106.042 383.996 108.066 387.514 110.438C389.13 111.529 390.766 112.592 392.281 113.819C393.696 114.965 394.993 116.228 396.332 117.456C398.66 119.591 401.285 121.408 403.621 123.54" stroke="black" stroke-width="6" stroke-linecap="round"/>
<path d="M409.039 203.04C407.85 207.174 407.303 211.436 406.344 215.623C405.903 217.547 405.495 219.479 404.886 221.359C404.317 223.115 403.594 224.805 402.919 226.521C401.747 229.504 400.986 232.646 399.818 235.636" stroke="black" stroke-width="6" stroke-linecap="round"/>
</g>
</svg>
