<svg width="450" height="450" viewBox="0 0 450 450" fill="none" xmlns="http://www.w3.org/2000/svg">
<path d="M242.114 368.717C242.624 378.45 242.671 388.206 242.207 397.928C241.998 402.466 241.65 407.523 241.244 411.75C241.151 412.706 241.069 413.685 240.919 414.63C240.837 415.102 240.71 415.54 240.594 416.001C240.478 416.461 240.664 415.759 240.698 415.701C240.93 415.344 241.325 415.148 240.826 415.517C241.383 415.102 242.067 414.791 242.613 414.434C243.158 414.077 242.891 414.353 242.543 414.434C241.511 414.641 243.309 414.434 242.253 414.434C241.197 414.434 239.84 414.434 238.645 414.434L221.568 414.492C218.865 414.492 215.431 416.116 214.875 419.041C214.754 419.663 214.778 420.303 214.943 420.913C215.109 421.524 215.412 422.089 215.83 422.567C216.248 423.044 216.77 423.42 217.356 423.668C217.942 423.915 218.577 424.027 219.213 423.995L235.71 423.937C238.32 423.937 241.162 424.179 243.726 423.545C245.529 423.156 247.199 422.308 248.572 421.084C249.945 419.86 250.973 418.303 251.557 416.565C252.164 414.156 252.495 411.687 252.543 409.205C252.798 406.567 252.995 403.929 253.169 401.291C253.525 395.916 253.73 390.541 253.784 385.165C253.846 379.022 253.711 372.879 253.378 366.736C253.228 363.902 249.956 362.578 247.462 363.119C244.968 363.66 241.951 365.791 242.114 368.774V368.717Z" fill="black"/>
<path d="M184.238 371.272C184.993 382.754 184.723 394.278 183.431 405.716C183.092 408.627 182.694 411.516 182.261 414.405C182.133 415.44 181.934 416.465 181.664 417.474C181.581 417.754 181.479 418.028 181.36 418.295C181.802 417.514 182.417 416.836 183.161 416.308C183.904 415.78 184.759 415.414 185.666 415.237C185.443 415.237 184.203 415.451 184.426 415.428C178.377 415.923 172.281 416.125 166.233 416.474C164.854 416.591 163.514 416.968 162.287 417.583C161.06 418.199 159.972 419.04 159.084 420.06C158.265 421.015 156.534 424.152 159.33 423.994L175.241 423.073C178.389 422.893 181.325 422.78 184.238 421.476C185.905 420.786 187.407 419.776 188.652 418.508C189.898 417.24 190.86 415.74 191.48 414.102C192.106 411.671 192.54 409.198 192.779 406.705C193.154 404.179 193.473 401.643 193.739 399.095C194.277 394.013 194.608 388.914 194.733 383.795C194.889 377.95 194.768 372.112 194.37 366.281C194.218 363.965 190.334 365.382 189.211 365.966C187.456 366.866 184.11 368.956 184.262 371.272H184.238Z" fill="black"/>
<path d="M394.081 222.891C384.761 241.318 368.316 253.258 346.244 257.624C344.622 257.935 347.793 266.289 349.343 265.986C371.665 261.509 388.267 249.35 397.634 230.62C397.952 229.116 397.549 227.149 396.493 225.054C396.036 224.065 394.685 221.706 394.114 222.859L394.081 222.891Z" fill="black"/>
<path d="M103.06 264.761C82.9622 260.017 67.5018 246.827 58.0857 226.393C57.4031 224.889 50.0247 229.929 50.6823 231.365C60.2646 252.016 75.9753 265.308 96.3789 270.025C97.9153 269.982 99.7325 269.13 101.522 267.612C102.377 266.936 104.354 265.069 103.099 264.785L103.06 264.761Z" fill="black"/>
<path d="M349.764 179.671C357.56 196.447 339.772 219.43 340.566 236.856C341.371 254.918 360.872 276.222 354.847 292.987C348.821 309.752 320.271 313.515 308.164 326.865C296.493 339.74 295.516 368.859 278.855 376.721C262.194 384.583 239.37 366.659 222.065 367.458C204.139 368.269 182.971 387.906 166.322 381.839C149.672 375.772 145.935 347.023 132.678 334.831C119.892 323.079 90.974 322.095 83.2357 305.318C75.4974 288.541 93.2162 265.558 92.4343 248.133C91.6294 230.071 72.1284 208.767 78.1535 192.001C84.1785 175.236 112.729 171.473 124.836 158.123C136.507 145.248 137.484 116.129 154.145 108.279C170.806 100.429 193.63 118.329 210.935 117.542C228.872 116.731 250.029 97.0945 266.678 103.161C283.328 109.228 287.065 137.977 300.322 150.169C313.039 161.91 341.957 162.894 349.764 179.671Z" fill="#FFB800"/>
<path d="M195.947 243.49C203.538 242.274 211.189 241.05 218.82 240.168C220.958 239.921 229.354 237.405 228.77 240.626C227.178 249.394 224.122 256.844 220.805 265.052C220.125 266.735 215.689 277.051 213.902 275.912C212.116 274.774 206.56 266.157 204.801 262.046C203.696 259.462 197.723 247.154 195.799 245.012" stroke="black" stroke-width="6" stroke-linecap="round"/>
<path d="M230.231 112.707C220.302 117.966 213.391 120.093 203.697 120.093C190.429 120.093 189.409 102.972 158.793 107.839C128.176 112.707 137.361 166.042 97.8045 173.734C91.9316 175.04 74.0875 187.485 77.1493 209.95C79.3437 219.829 83.673 231.917 90.121 238.748C94.6115 243.505 92.3358 260.131 89.7416 265.322L89.6494 265.507C83.6344 277.543 74.1995 296.422 82.252 310.017C85.3209 315.199 90.121 318.186 96.5396 320.229C102.958 322.271 110.734 326.262 113.889 327.583C125.228 332.333 130.831 333.487 138.382 341.672C147.789 351.868 146.85 370.744 158.793 379.452C173.366 390.079 177.643 386.057 194.512 379.452C204.441 375.565 206.604 371.352 215.943 367.199C218.19 366.2 230.194 365.621 232.272 368.22C237.161 374.335 242.477 376.389 258.806 377.41C272.073 380.543 288.561 372.79 291.463 369.241C301.271 357.247 302.749 351.782 300.706 332.709C298.725 314.212 325.955 313.491 341.116 307.975C352.019 304.008 357.799 296.877 357.799 285.511C357.799 279.135 353.137 275.393 351.361 269.173C349.997 264.4 341.116 254.703 341.116 248.428C341.116 238.509 339.347 239.614 341.116 228.329C342.678 218.367 351.361 203.41 351.361 193.612C351.361 181.988 342.025 171.261 330.244 165.021C320.184 159.692 305.751 163.092 295.545 151.747C277.176 131.325 293.504 112.707 262.888 102.734C245.539 99.6706 241.348 106.817 230.231 112.707Z" stroke="black" stroke-width="6" stroke-linecap="round"/>
<path d="M283.097 25.0463C284.249 24.7766 291.269 25.6603 294.202 28.3734C296.089 29.699 297.187 31.5219 298.078 33.6818C299.284 36.6038 298.759 37.9995 298.078 40.4668C296.716 42.9341 295.393 45.9582 292.631 47.2518C290.347 48.3211 289.773 49.0539 287.341 48.9969C283.33 48.903 279.773 46.7276 276.287 44.7845C273.799 42.3173 274.244 39.85 273.799 36.5519C273.904 33.4981 274.275 31.8314 277.649 28.3734C279.692 26.28 280.12 25.7432 283.097 25.0463Z" fill="white" stroke="black" stroke-width="6" stroke-linecap="round"/>
<path d="M234.176 97.9247C227.156 105.471 223.413 108.693 225.527 112.844C227.642 116.994 243.615 121.728 256.748 125.499C263.631 127.476 284.339 127.582 288.589 118.364C290.059 113.931 291.275 81.1749 289.78 75.7168C288.381 66.4811 286.511 59.9161 285.512 52.4811C284.939 48.2128 283.796 47.3007 281.011 50.7301C273.544 59.925 263.577 67.1593 256.003 76.2206C249.475 84.0299 241.126 90.4547 234.176 97.9247Z" fill="#FFFACE" stroke="black" stroke-width="6" stroke-linecap="round"/>
<path d="M261.799 72C264.242 77.6451 270.21 81.0025 275.486 83.4354C279.063 85.0855 283.781 88 287.799 88" stroke="black" stroke-width="6" stroke-linecap="round"/>
<path d="M247.799 89C248.794 90.2026 250.02 91.1061 251.013 92.2606C252.711 94.2343 255.147 95.0492 257.204 96.668C258.844 97.9593 261.015 99.1122 263.037 99.7487C265.044 100.381 267.156 100.642 269.132 101.368C270.481 101.863 271.837 102.897 273.275 103.144C276.216 103.649 279.039 105.19 282.085 105.19C283.309 105.19 285.707 105.484 286.799 106" stroke="black" stroke-width="6" stroke-linecap="round"/>
<path d="M233.799 100C236.01 103.625 239.891 105.851 243.125 108.397C247.215 111.619 251.429 114.3 255.748 117.186C257.453 118.326 259.388 119.314 260.929 120.687C261.75 121.418 263.051 121.507 263.802 122.132C264.873 123.022 267.17 123.716 268.56 123.797C269.895 123.874 271.681 125.419 272.799 126" stroke="black" stroke-width="6" stroke-linecap="round"/>
<path d="M98.1725 106.022C101.488 107.376 104.648 109.429 107.707 111.473C108.347 112.081 105.418 118.682 106.051 121.98C106.241 122.966 107.377 127.396 105.787 126.971C101.257 125.762 94.9899 126.84 90.4922 126.84C86.8618 126.84 82.4642 127.645 86.2548 123.885C89.2218 120.942 90.5312 117.586 92.8095 114.1C93.5291 112.998 97.0089 105.547 98.1725 106.022Z" fill="white" stroke="black" stroke-width="6" stroke-linecap="round"/>
<path d="M393.526 147.657C389.143 145.766 384.233 144.679 379.427 143.678C378.247 143.637 374.628 152.614 370.87 155.101C369.747 155.844 364.434 158.913 366.32 160.031C371.692 163.214 376.481 170.197 380.661 174.484C384.036 177.943 387.35 182.889 387.439 175.753C387.509 170.167 389.517 165.775 390.749 160.337C391.138 158.619 395.064 148.32 393.526 147.657Z" fill="white" stroke="black" stroke-width="6" stroke-linecap="round"/>
<path d="M374.883 193.014C376.712 191.111 382.034 188.424 383.524 191.179C384.607 193.181 385.593 194.694 383.844 196.773C381.836 199.161 379.626 199.23 376.526 198.789C373.243 198.322 373.226 194.738 374.883 193.014Z" fill="#FFD9D9" stroke="black" stroke-width="6" stroke-linecap="round"/>
<path d="M123.489 103.786C122.59 106.225 119.146 105.957 116.982 105.957C116.982 106.382 115.775 103.561 115.799 102.627C115.87 99.9314 117.69 99 120.235 99C123.571 99 124.317 101.54 123.489 103.786Z" fill="#FFFACE" stroke="black" stroke-width="6" stroke-linecap="round"/>
<path d="M361.206 326.409C366.733 320.242 373.071 308 374.365 308C375.863 308.745 377.295 310.638 378.73 311.63C381.869 313.799 382.666 313.122 380.814 317.334C378.66 322.233 376.448 326.967 374.17 331.853C373.558 333.165 373.336 334.085 373.071 335.534C372.968 336.098 373.089 338.235 372.574 337.979C369.641 336.52 355.678 335.534 354.854 333.798C354.229 332.48 359.039 328.827 361.206 326.409Z" fill="#FFFACE" stroke="black" stroke-width="6" stroke-linecap="round"/>
<path d="M57.1143 318C55.207 320.496 54.7988 320.637 54.7988 323.655C54.7988 326.229 55.0871 326.751 57.6931 326.878C58.3979 326.912 62.634 327.543 62.8707 328.39C63.2416 329.717 61.3305 331.353 60.3302 331.645C59.7214 331.823 60.4765 333.11 60.7161 333.355C61.6666 334.327 64.8772 334.745 66.2474 335.032C68.8158 335.569 73.1395 333.957 75.3162 335.229C76.2876 335.797 75.6378 340.986 75.6378 341.937C75.6378 344.152 75.2722 345.368 77.4066 346.375C77.8592 346.589 80.3439 347 79.6899 347" stroke="black" stroke-width="6" stroke-linecap="round"/>
<path d="M341.95 106C336.714 112.035 342.431 107.267 344.427 111.308C345.023 112.515 341.295 115.723 341.295 117.467C341.295 120.51 345.511 118.852 345.774 121.104C346.049 123.451 343.917 126.393 343.917 129" stroke="black" stroke-width="6" stroke-linecap="round"/>
<path d="M337.085 362.823C335.416 363.877 330.799 367.144 330.799 362.823C330.799 359.694 331.786 356.731 334.513 355.424C338.592 353.467 338.799 358.728 338.799 362.207" stroke="black" stroke-width="6" stroke-linecap="round"/>
<path d="M47.4264 286.555C48.8295 289.206 52.1017 289.213 55.1546 288.801C57.9883 288.801 68.4504 281.054 63.4774 278.566C59.8743 276.764 51.1384 279.68 48.153 281.5C46.377 282.582 46.5861 284.967 47.4264 286.555Z" fill="#FFD9D9" stroke="black" stroke-width="6" stroke-linecap="round"/>
<path d="M222.799 203C224.933 207.998 227.357 214.267 234.308 211.18C238.263 209.063 240.246 208.022 244.799 204.925" stroke="black" stroke-width="6" stroke-linecap="round"/>
<path d="M179.849 208.02C182.882 212.436 186.432 218.023 192.913 213.77C196.538 211.003 198.359 209.636 202.414 205.816" stroke="black" stroke-width="6" stroke-linecap="round"/>
</svg>
