<svg width="413" height="400" viewBox="0 0 413 400" fill="none" xmlns="http://www.w3.org/2000/svg">
<path d="M295.315 344.717C295.825 354.45 295.872 364.206 295.408 373.928C295.199 378.466 294.851 383.523 294.445 387.75C294.352 388.706 294.271 389.685 294.12 390.63C294.039 391.102 293.911 391.54 293.795 392.001C293.679 392.461 293.865 391.759 293.9 391.701C294.132 391.344 294.526 391.148 294.027 391.517C294.584 391.102 295.269 390.791 295.814 390.434C296.359 390.077 296.092 390.353 295.744 390.434C294.712 390.641 296.51 390.434 295.454 390.434C294.398 390.434 293.041 390.434 291.846 390.434L274.77 390.492C272.066 390.492 268.633 392.116 268.076 395.041C267.955 395.663 267.979 396.303 268.144 396.913C268.31 397.524 268.613 398.089 269.031 398.567C269.449 399.044 269.971 399.42 270.557 399.668C271.143 399.915 271.778 400.027 272.414 399.995L288.911 399.937C291.521 399.937 294.364 400.179 296.927 399.545C298.73 399.156 300.4 398.308 301.773 397.084C303.146 395.86 304.175 394.303 304.758 392.565C305.365 390.156 305.696 387.687 305.744 385.205C305.999 382.567 306.197 379.929 306.371 377.291C306.726 371.916 306.931 366.541 306.985 361.165C307.047 355.022 306.912 348.879 306.58 342.736C306.429 339.902 303.157 338.578 300.663 339.119C298.169 339.66 295.152 341.791 295.315 344.774V344.717Z" fill="black"/>
<path d="M237.44 347.272C238.195 358.754 237.925 370.278 236.632 381.716C236.293 384.627 235.895 387.516 235.462 390.405C235.335 391.44 235.135 392.465 234.866 393.474C234.782 393.754 234.68 394.028 234.561 394.295C235.004 393.514 235.618 392.836 236.362 392.308C237.106 391.78 237.961 391.414 238.867 391.237C238.645 391.237 237.405 391.451 237.627 391.428C231.578 391.923 225.483 392.125 219.434 392.474C218.056 392.591 216.715 392.968 215.488 393.583C214.262 394.199 213.173 395.04 212.285 396.06C211.466 397.015 209.735 400.152 212.531 399.994L228.443 399.073C231.59 398.893 234.526 398.78 237.44 397.476C239.106 396.786 240.608 395.776 241.853 394.508C243.099 393.24 244.061 391.74 244.682 390.102C245.307 387.671 245.741 385.198 245.98 382.705C246.355 380.179 246.675 377.643 246.94 375.095C247.478 370.013 247.809 364.914 247.934 359.795C248.09 353.95 247.969 348.112 247.572 342.281C247.419 339.965 243.535 341.382 242.412 341.966C240.657 342.866 237.311 344.956 237.463 347.272H237.44Z" fill="black"/>
<path d="M378.631 276.733C385.135 296.25 382.192 316.306 370.07 335.077C369.172 336.449 377.208 340.03 378.062 338.714C390.278 319.688 393.176 299.366 386.491 279.605C385.656 278.327 384.001 277.24 381.806 276.527C380.799 276.161 378.215 275.475 378.631 276.687V276.733Z" fill="black"/>
<path d="M152.871 265.47C132.25 266.566 113.706 258.254 98.9258 241.29C97.848 240.038 92.1836 246.948 93.2183 248.142C108.219 265.268 127.032 273.607 147.939 272.4C149.401 271.927 150.906 270.598 152.197 268.638C152.827 267.75 154.199 265.402 152.915 265.482L152.871 265.47Z" fill="black"/>
<path d="M402.764 155.671C410.56 172.447 392.772 195.43 393.566 212.856C394.371 230.918 413.872 252.222 407.847 268.987C401.821 285.752 373.271 289.515 361.164 302.865C349.493 315.74 348.516 344.859 331.855 352.721C315.194 360.583 292.37 342.659 275.065 343.458C257.139 344.269 235.971 363.906 219.322 357.839C202.672 351.772 198.935 323.023 185.678 310.831C172.892 299.079 143.974 298.095 136.236 281.318C128.497 264.541 146.216 241.558 145.434 224.133C144.629 206.071 125.128 184.767 131.153 168.001C137.179 151.236 165.729 147.473 177.836 134.123C189.507 121.248 190.484 92.1291 207.145 84.2791C223.806 76.429 246.63 94.329 263.935 93.5417C281.872 92.7312 303.029 73.0945 319.678 79.1615C336.328 85.2285 340.065 113.977 353.322 126.169C366.039 137.91 394.957 138.894 402.764 155.671Z" fill="#FFB800"/>
<path d="M248.152 219.49C255.974 218.274 263.857 217.05 271.719 216.168C273.922 215.921 282.572 213.405 281.97 216.626C280.33 225.394 277.182 232.844 273.764 241.052C273.064 242.735 268.493 253.051 266.652 251.912C264.811 250.774 259.087 242.157 257.275 238.046C256.136 235.462 249.982 223.154 248 221.012" stroke="black" stroke-width="6" stroke-linecap="round"/>
<path d="M285.919 190.154C286.365 190.687 287.521 194.45 288.973 193.804C291.68 192.6 292.499 188.343 291.156 185.981C287.786 180.053 286.414 188.592 286.005 189.532" stroke="black" stroke-width="6" stroke-linecap="round"/>
<path d="M240.786 190.154C241.232 190.687 242.388 194.45 243.84 193.804C246.547 192.6 247.366 188.343 246.023 185.981C242.653 180.053 241.281 188.592 240.872 189.532" stroke="black" stroke-width="6" stroke-linecap="round"/>
<path d="M282.886 88.7071C272.992 93.9665 266.106 96.0926 256.446 96.0926C243.226 96.0926 242.21 78.9717 211.702 83.8394C181.195 88.7071 190.347 142.042 150.931 149.734C145.079 151.04 127.298 163.485 130.349 185.95C132.536 195.829 136.85 207.917 143.275 214.748C147.749 219.505 145.482 236.131 142.897 241.322L142.805 241.507C136.811 253.543 127.41 272.422 135.434 286.017C138.492 291.199 143.275 294.186 149.67 296.229C156.066 298.271 163.814 302.262 166.958 303.583C178.257 308.333 183.84 309.487 191.364 317.672C200.737 327.868 199.802 346.744 211.702 355.452C226.224 366.079 230.485 362.057 247.294 355.452C257.188 351.565 259.343 347.352 268.649 343.199C270.888 342.2 282.849 341.621 284.92 344.22C289.792 350.335 295.089 352.389 311.359 353.41C324.579 356.543 341.009 348.79 343.901 345.241C353.674 333.247 355.146 327.782 353.111 308.709C351.137 290.212 378.269 289.491 393.376 283.975C404.241 280.008 410 272.877 410 261.511C410 255.135 405.354 251.393 403.585 245.173C402.226 240.4 393.376 230.703 393.376 224.428C393.376 214.509 391.614 215.614 393.376 204.329C394.933 194.367 403.585 179.41 403.585 169.612C403.585 157.988 394.282 147.261 382.543 141.021C372.519 135.692 358.137 139.092 347.968 127.747C329.664 107.325 345.934 88.7071 315.427 78.7341C298.14 75.6706 293.963 82.8175 282.886 88.7071Z" stroke="black" stroke-width="6" stroke-linecap="round"/>
<path d="M19.6128 192.203H75.7866C78.31 192.809 76.2746 197.915 75.257 202.001C74.2393 206.086 73.6187 208.98 73.2216 211.193C72.1524 217.15 70.2896 219.076 69.216 223.985L69.1101 224.469C66.3498 237.091 63.5062 250.093 58.3366 261.766C55.7636 267.576 50.9181 267.117 45.4646 267.117C36.5805 267.117 20.4666 270.514 13.9577 263.982C5.91133 255.907 5.70564 248.561 4.04806 237.748C3.09539 231.533 3.00149 224.618 3.00149 218.343C3.00149 214.787 2.9173 207.108 4.04806 200.98C4.80182 196.895 4.57464 194.574 8.0897 192.81C10.7752 191.462 16.653 192.203 19.6128 192.203Z" fill="#FFFBC2" stroke="black" stroke-width="6" stroke-linecap="round"/>
<path d="M71.9335 218.278C75.2059 214.496 83.4524 211.813 90.0927 216.477C96.7331 221.141 100 226.208 100 233.801C100 236.918 98.4853 240.894 96.9502 243.805C93.8583 249.668 86.0071 250.795 81.3387 250.936C73.957 251.158 67.8106 251.079 65 246.003" stroke="black" stroke-width="6" stroke-linecap="round"/>
<path d="M68.1694 234.436C70.7434 231.184 75.5527 225.49 80.8588 226.838C86.9706 228.39 89.4096 231.012 87.1573 236.939C83.9474 245.386 72.2485 240.445 68.7796 237.43" stroke="black" stroke-width="6" stroke-linecap="round"/>
<path d="M11.8365 192C1.93067 189.52 4.43105 184 9.0817 180.839C13.3667 177.927 17.3807 182.617 21.3399 177.946C26.8213 171.478 9.79338 168.844 27.4691 162.095C35.6414 158.975 35.6414 175.981 42.7922 163.831C49.4322 152.548 58.4557 159.828 56.0248 167.303C54.6929 171.399 58.4604 172.297 59.1353 172.985C61.1784 175.113 58.4469 171.753 67.3091 166.831C70.1489 165.253 77.1231 163.068 79.4679 166.831C80.7696 168.919 81.2246 170.588 80.9276 172.985C80.7939 174.064 74.2459 177.879 76.2783 177.946C79.3349 178.045 82.0327 177.83 82.8198 180.839C84.0431 185.516 78.7715 187.434 75.0889 189.52" stroke="black" stroke-width="6" stroke-linecap="round"/>
<path d="M38 219C37.8798 226.359 37 233.64 37 241" stroke="black" stroke-width="6" stroke-linecap="round"/>
<path d="M53 220C50.9821 224.734 49 236.407 49 241" stroke="black" stroke-width="6" stroke-linecap="round"/>
<path d="M21 218C22.6402 225.33 23.4602 235.8 24 242" stroke="black" stroke-width="6" stroke-linecap="round"/>
<path d="M207 4C207.731 5.58568 209.166 11.1371 211 12" stroke="black" stroke-width="6" stroke-linecap="round"/>
<path d="M200 19.1832C206.322 17.743 211.999 14.6925 217.793 11.8474C220.004 10.7614 222.655 10.5496 225.054 10.1045C228.635 9.43995 226.423 12.0774 225.131 14.2926C219.687 23.6296 214.978 33.7217 211.587 44" stroke="black" stroke-width="6" stroke-linecap="round"/>
<path d="M218 33C220.838 35.5002 222.997 38.2616 226.53 39.6C228.382 40.3016 230.292 41.1766 232 42" stroke="black" stroke-width="6" stroke-linecap="round"/>
<path d="M248 7C248.322 10.6367 248.93 14.2026 249.326 17.8235C249.582 20.1588 249.632 22.5231 249.847 24.8649C250.08 27.4018 250.155 29.9016 250.312 32.4379C250.45 34.641 250.573 36.8553 251 39" stroke="black" stroke-width="6" stroke-linecap="round"/>
<path d="M284.066 3.64645C282.158 3.64645 280.253 4.0443 278.716 5.19073C276.624 6.75192 276 9.53374 276 12.0233C276 13.2368 275.942 15.862 277.189 16.737C278.218 17.4587 279.518 17.7832 280.691 18.1915C282.173 18.7072 283.666 19.1288 285.254 18.9636C287.424 18.7381 290.304 17.6521 291.299 15.5159C292.1 13.7949 292.033 11.6819 291.957 9.8236C291.871 7.70462 290.917 5.76176 289.772 4.02354C289.183 3.13045 288.012 3 287.028 3" stroke="black" stroke-width="6" stroke-linecap="round"/>
<path d="M295 13C299.973 13 304.954 13 309.931 13C311.603 13 313.354 13 315 13" stroke="black" stroke-width="6" stroke-linecap="round"/>
<path d="M319 4C318.525 7.57384 317.782 11.1885 317.737 14.8006C317.71 16.9734 317.264 19.1875 316.86 21.3191C316.585 22.7685 316 24.4981 316 26" stroke="black" stroke-width="6" stroke-linecap="round"/>
<path d="M283 31C288.048 31.4118 293.1 31.524 298.16 31.684C300.326 31.7525 302.81 31.5166 304.924 32.0529C305.474 32.1927 306.029 32.5342 306.582 32.7099C307.167 32.8963 308.351 32.9943 308.816 33.4659C309.605 34.2671 309.357 35.4735 309.33 36.5977C309.313 37.2805 309.124 38.0719 308.851 38.6946C308.619 39.2243 307.541 39.3821 307.06 39.6576C305.218 40.7134 302.93 41.1817 300.908 41.7635C298.752 42.3835 296.448 43.2115 294.223 43.4734C293.232 43.5901 292.305 43.8447 291.333 44.0313C290.685 44.1559 289.988 43.9945 289.383 44.2833C288.444 44.7319 287.364 44.754 286.493 45.3543C285.612 45.961 284.82 46.2943 284.277 47.2352C283.842 47.9873 283.882 49.2409 283.807 50.079C283.726 50.9822 284.047 52.4486 284.986 52.5809C289.142 53.1669 293.558 53.0175 297.743 52.8509C299.698 52.7731 301.565 52.0881 303.514 51.9329C304.773 51.8327 306.046 51.9107 307.309 51.8969C308.968 51.8788 310.641 51.792 312.3 51.726C312.613 51.7135 312.867 51.6803 313 51.411" stroke="black" stroke-width="6" stroke-linecap="round"/>
<path d="M362 19C359.037 20.1656 356.345 21.4529 353.593 22.8016C351.596 23.7804 348.989 24.5477 346.77 25.3175C345.077 25.9047 344.075 25.9817 343 27" stroke="black" stroke-width="6" stroke-linecap="round"/>
<path d="M354 23C355.54 25.367 357.131 27.5858 357.38 30.2657C357.415 30.6352 357.642 30.8521 358 31" stroke="black" stroke-width="6" stroke-linecap="round"/>
<path d="M380 27C377.663 28.2488 375.309 29.4794 372.939 30.6908C371.259 31.5493 369.59 32.4733 367.668 32.9807C366.247 33.3559 365.239 34.3623 364 35" stroke="black" stroke-width="6" stroke-linecap="round"/>
<path d="M374 31C375.518 33.6301 376.492 36.4333 378 39" stroke="black" stroke-width="6" stroke-linecap="round"/>
<path d="M333 44C337.925 45.5344 342.821 47.0419 347.588 48.7463C350.441 49.7664 353.264 50.8751 355.959 52.0503C357.413 52.6846 358.607 53.5101 360.077 54.13C362.278 55.0585 364.235 55.8902 366.24 56.9811C368.132 58.0101 370.085 58.9904 372 60" stroke="black" stroke-width="6" stroke-linecap="round"/>
<path d="M391.767 51C391.686 54.4135 390.516 56.4487 391.23 59.5658C391.67 61.4904 397.828 61.7407 399.421 62.0219C403.801 62.7949 404.278 68.6564 406 72" stroke="black" stroke-width="6" stroke-linecap="round"/>
</svg>
