<svg width="61" height="62" viewBox="0 0 61 62" fill="none" xmlns="http://www.w3.org/2000/svg">
<path d="M37.597 47.0362C37.6639 48.5034 37.6626 49.9737 37.5864 51.4384C37.552 52.1221 37.4967 52.8839 37.4335 53.5206C37.4191 53.6646 37.4064 53.8121 37.3834 53.9543C37.3711 54.0254 37.3521 54.0912 37.3346 54.1606C37.3172 54.2299 37.345 54.1242 37.3502 54.1155C37.3846 54.0619 37.4427 54.0327 37.3691 54.0879C37.4512 54.0259 37.552 53.9795 37.6324 53.9262C37.7128 53.8728 37.6734 53.9143 37.6222 53.9261C37.4704 53.9565 37.7346 53.9268 37.5796 53.9259C37.4245 53.925 37.2252 53.9239 37.0497 53.9229L34.5415 53.9173C34.1445 53.9151 33.6388 54.157 33.5545 54.5974C33.5363 54.6909 33.5393 54.7874 33.5631 54.8796C33.5869 54.9717 33.6309 55.0572 33.6919 55.1294C33.7529 55.2017 33.8293 55.2589 33.9152 55.2966C34.0011 55.3344 34.0942 55.3518 34.1877 55.3474L36.6107 55.3525C36.9941 55.3547 37.4113 55.3935 37.7884 55.3002C38.0535 55.243 38.2995 55.1166 38.5022 54.9333C38.7048 54.75 38.8572 54.5162 38.9444 54.2548C39.0355 53.8923 39.0862 53.5205 39.0953 53.1464C39.1349 52.7491 39.1661 52.3517 39.1938 51.9544C39.2505 51.1446 39.2851 50.3347 39.2975 49.5247C39.3117 48.599 39.2969 47.6731 39.2532 46.747C39.2334 46.3198 38.7539 46.1175 38.3871 46.197C38.0204 46.2765 37.5756 46.5951 37.5969 47.0448L37.597 47.0362Z" fill="black"/>
<path d="M26.8462 46.4014C27.0527 48.2938 27.0767 50.2002 26.9179 52.0995C26.8757 52.583 26.8229 53.0633 26.7638 53.5438C26.7475 53.7156 26.7184 53.8865 26.6766 54.0551C26.6634 54.1019 26.647 54.1479 26.6275 54.1929C26.7015 54.0608 26.8067 53.9444 26.936 53.852C27.0653 53.7595 27.2154 53.6931 27.3759 53.6575C27.3362 53.6591 27.1165 53.703 27.156 53.6977C26.0809 53.8217 24.9955 53.8977 23.9195 53.9974C23.6745 54.0264 23.4378 54.0981 23.223 54.2083C23.0082 54.3186 22.8195 54.4652 22.6676 54.64C22.5276 54.8036 22.2385 55.334 22.736 55.2885L25.5667 55.0251C26.1266 54.9735 26.6493 54.9344 27.1605 54.6986C27.4532 54.5729 27.7147 54.3955 27.9287 54.1772C28.1428 53.9589 28.305 53.7044 28.4053 53.4293C28.5016 53.0232 28.5636 52.6115 28.5905 52.1978C28.6414 51.7778 28.6826 51.3563 28.7139 50.9333C28.778 50.0898 28.8052 49.2447 28.7954 48.3979C28.7866 47.4307 28.7285 46.4667 28.6211 45.5059C28.5795 45.1242 27.8959 45.3854 27.6993 45.4899C27.3921 45.6507 26.8087 46.0196 26.8504 46.4013L26.8462 46.4014Z" fill="black"/>
<path d="M47.6491 37.129C50.098 38.9885 51.4191 41.7355 51.4923 45.1198C51.4963 45.3683 52.7953 45.1152 52.7907 44.8776C52.7078 41.4533 51.3587 38.6772 48.8667 36.8031C48.6556 36.7169 48.3586 36.7256 48.0261 36.8277C47.8702 36.8697 47.4917 37.0089 47.6453 37.1234L47.6491 37.129Z" fill="black"/>
<path d="M16.9685 31.1146C13.9935 30.4009 11.7049 28.4164 10.311 25.3419C10.21 25.1156 9.11775 25.8739 9.2151 26.09C10.6336 29.1972 12.9592 31.1969 15.9796 31.9067C16.207 31.9002 16.476 31.772 16.7409 31.5436C16.8674 31.442 17.1601 31.161 16.9743 31.1183L16.9685 31.1146Z" fill="black"/>
<path d="M53.4086 18.3118C54.5626 20.836 51.9295 24.2939 52.0469 26.9157C52.166 29.6332 55.0528 32.8385 54.1609 35.361C53.269 37.8834 49.0427 38.4496 47.2504 40.4582C45.5228 42.3953 45.3781 46.7765 42.9118 47.9593C40.4455 49.1422 37.0669 46.4455 34.5052 46.5657C31.8517 46.6876 28.7182 49.6421 26.2536 48.7293C23.7889 47.8165 23.2358 43.491 21.2733 41.6567C19.3806 39.8885 15.0998 39.7404 13.9543 37.2162C12.8088 34.6921 15.4317 31.2341 15.316 28.6124C15.1968 25.8948 12.3101 22.6895 13.202 20.167C14.0939 17.6446 18.3201 17.0784 20.1124 15.0699C21.8401 13.1328 21.9847 8.75155 24.451 7.57046C26.9174 6.38937 30.296 9.08254 32.8576 8.96408C35.5129 8.84214 38.6447 5.88767 41.1093 6.80049C43.5739 7.71331 44.1271 12.0388 46.0896 13.8731C47.9721 15.6395 52.2528 15.7876 53.4086 18.3118Z" fill="#FFB800"/>
<path d="M36.1874 23.4811C36.2535 23.5613 36.4246 24.1275 36.6396 24.0303C37.0403 23.8491 37.1615 23.2086 36.9627 22.8532C36.4639 21.9614 36.2608 23.2461 36.2003 23.3875" stroke="black" stroke-linecap="round"/>
<path d="M29.5078 23.4811C29.5738 23.5613 29.7449 24.1275 29.9599 24.0303C30.3607 23.8491 30.4818 23.2086 30.283 22.8532C29.7842 21.9614 29.5811 23.2461 29.5206 23.3875" stroke="black" stroke-linecap="round"/>
<path d="M9.92381 9.33447C9.92381 10.0995 9.77318 10.8369 9.32447 11.4792C8.78934 12.2451 8.57548 12.3983 7.97604 12.8579C7.37659 13.3175 5.97591 13.277 6.4776 13.3175C8.03779 13.4434 9.68068 16.5338 9.68068 17.8194" stroke="black" stroke-linecap="round"/>
<path d="M9.94714 9.33447C9.94714 9.96738 10.4071 12.9243 11.5064 13.1643C11.7333 13.2138 12.8196 13.3634 12.588 13.424C10.249 14.0368 9.67969 16.9564 9.67969 17.8194" stroke="black" stroke-linecap="round"/>
<path d="M35.7438 8.23669C34.274 9.028 33.251 9.34789 31.8159 9.34789C29.852 9.34789 29.701 6.77194 25.1688 7.50431C20.6367 8.23669 21.9963 16.2613 16.1407 17.4186C15.2713 17.6151 12.6299 19.4876 13.0831 22.8675C13.408 24.354 14.0488 26.1726 15.0033 27.2003C15.6681 27.9161 15.3312 30.4176 14.9472 31.1987L14.9335 31.2264C14.0431 33.0373 12.6465 35.8778 13.8385 37.9234C14.2928 38.703 15.0033 39.1524 15.9535 39.4597C16.9036 39.7669 18.0546 40.3675 18.5217 40.5663C20.2002 41.2808 21.0297 41.4546 22.1474 42.6859C23.5399 44.22 23.4009 47.06 25.1688 48.3703C27.3261 49.9692 27.9592 49.364 30.4563 48.3703C31.9261 47.7854 32.2463 47.1516 33.6288 46.5267C33.9614 46.3764 35.7383 46.2893 36.0459 46.6804C36.7697 47.6004 37.5566 47.9094 39.9738 48.0631C41.9377 48.5345 44.3784 47.368 44.808 46.834C46.2599 45.0294 46.4786 44.2071 46.1763 41.3374C45.883 38.5544 49.9138 38.446 52.1581 37.6161C53.7721 37.0192 54.6277 35.9463 54.6277 34.2362C54.6277 33.2769 53.9375 32.7139 53.6746 31.7781C53.4728 31.0599 52.1581 29.601 52.1581 28.6569C52.1581 27.1644 51.8962 27.3307 52.1581 25.6328C52.3893 24.134 53.6746 21.8835 53.6746 20.4094C53.6746 18.6605 52.2926 17.0465 50.5487 16.1077C49.0595 15.3059 46.923 15.8175 45.4123 14.1105C42.693 11.0378 45.1102 8.23669 40.578 6.73618C38.0098 6.27526 37.3894 7.35055 35.7438 8.23669Z" stroke="black" stroke-linecap="round"/>
<path d="M28.5635 24.9887C28.7273 24.9464 29.7248 25.0849 30.1416 25.5101C30.4098 25.7179 30.5659 26.0036 30.6925 26.3421C30.8638 26.8001 30.7893 27.0188 30.6925 27.4055C30.499 27.7922 30.3109 28.2661 29.9183 28.4689C29.5938 28.6365 29.5123 28.7513 29.1666 28.7424C28.5966 28.7277 28.0912 28.3867 27.5958 28.0822C27.2422 27.6955 27.3055 27.3088 27.2422 26.7919C27.2571 26.3133 27.3098 26.0521 27.7894 25.5101C28.0797 25.1821 28.1405 25.0979 28.5635 24.9887Z" stroke="black" stroke-linecap="round"/>
<path d="M34.8206 24.9887C34.9707 24.9464 35.8851 25.0849 36.2672 25.5101C36.5131 25.7179 36.6561 26.0036 36.7722 26.3421C36.9292 26.8001 36.8609 27.0188 36.7722 27.4055C36.5947 27.7922 36.4224 28.2661 36.0625 28.4689C35.765 28.6365 35.6903 28.7513 35.3734 28.7424C34.8509 28.7277 34.3877 28.3867 33.9336 28.0822C33.6093 27.6955 33.6674 27.3088 33.6094 26.7919C33.6231 26.3133 33.6714 26.0521 34.1109 25.5101C34.3771 25.1821 34.4328 25.0979 34.8206 24.9887Z" stroke="black" stroke-linecap="round"/>
<path d="M31.0898 26.035C31.6293 25.9022 32.1306 25.8352 32.6678 25.9268C32.8776 25.9625 33.1023 26.035 33.3103 26.035" stroke="black" stroke-linecap="round"/>
<path d="M29.9062 29.9964C30.3489 30.4506 31.1221 31.3702 31.6669 31.8624C32.0319 32.0986 32.3002 32.5581 32.6989 32.651C33.0977 32.7439 35.4205 31.0445 36.2446 30.4787C37.3655 29.709 38.3193 28.8403 39.2321 27.8401" stroke="black" stroke-linecap="round"/>
</svg>
