<svg width="375" height="761" viewBox="0 0 375 761" fill="none" xmlns="http://www.w3.org/2000/svg">
<rect x="298.5" y="0.5" width="57" height="30" rx="15" fill="#0066FF" stroke="#0066FF"/>
<path d="M326.69 15.408V14.092H315.42V15.408H326.69ZM325.64 21.05V19.706H318.444V19.132H325.262V16.108H316.778V17.396H323.638V17.984H316.806V21.05H325.64ZM325.528 13.504V12.216H323.792L324.114 10.774L322.532 10.55L322.266 12.216H319.816L319.62 10.55L318.024 10.774L318.276 12.216H316.54V13.504H325.528ZM325.556 10.2V8.912H316.498V10.2H325.556ZM338.131 17.9V8.632H336.577V12.146H335.555V8.856H334.029V17.578H335.555V13.462H336.577V17.9H338.131ZM333.497 15.758C333.441 15.338 333.371 14.932 333.329 14.526C332.489 14.736 330.725 14.82 329.689 14.82V13.42H332.783V9.57H328.009V10.872H331.145V12.146H328.051V16.136H328.919C330.347 16.136 332.447 16.01 333.497 15.758ZM338.439 20.798V19.496H331.341V16.976H329.703V20.798H338.439Z" fill="white"/>
<path d="M275.592 116.377C275.306 117.154 275.703 118.017 276.48 118.304L289.146 122.977C289.923 123.264 290.785 122.866 291.072 122.089C291.359 121.312 290.961 120.449 290.184 120.162L278.926 116.008L283.08 104.75C283.367 103.973 282.969 103.111 282.192 102.824C281.415 102.537 280.552 102.935 280.266 103.712L275.592 116.377ZM330.041 24.2458C331.458 30.1375 330.933 37.8341 328.732 46.4048C326.537 54.9494 322.707 64.2395 317.651 73.2557C307.514 91.331 292.592 108.058 276.372 115.534L277.628 118.259C294.642 110.416 309.965 93.093 320.267 74.7231C325.43 65.5168 329.368 55.9854 331.637 47.1512C333.9 38.3432 334.535 30.1039 332.958 23.5442L330.041 24.2458Z" fill="#0066FF"/>
<path d="M148.704 116.768H147.04V131.264H148.704V116.768ZM144.368 118.144H137.584V127.696H144.368V118.144ZM139.2 119.456H142.752V126.368H139.2V119.456ZM162.975 116.752H161.311V131.264H162.975V116.752ZM153.535 126.464V123.424H158.575V118.064H151.839V119.408H156.911V122.096H151.871V127.824H153.103C154.372 127.824 155.577 127.792 156.719 127.728C157.86 127.664 159.049 127.525 160.287 127.312L160.111 125.968C158.969 126.149 157.871 126.277 156.815 126.352C155.769 126.416 154.676 126.453 153.535 126.464ZM171.592 118.464V120.8H169.624V122.048H180.168V120.8H178.216V118.464H180.248V117.2H169.544V118.464H171.592ZM176.568 118.464V120.8H173.24V118.464H176.568ZM181.464 123.056H168.376V124.368H181.464V123.056ZM171.592 129.872V128.784H179.816V125.424H169.928V126.64H178.2V127.648H169.96V131.104H180.232V129.872H171.592ZM191.686 127.168V122.352H193.286V127.552H194.854V116.768H193.286V121.008H191.686V117.04H190.15V127.168H191.686ZM189.526 125.088L189.382 123.76C188.636 123.909 187.905 124.011 187.19 124.064C186.486 124.117 185.702 124.144 184.838 124.144V122.288H188.678V117.984H183.206V119.296H187.078V121.072H183.238V125.472H184.214C184.748 125.472 185.238 125.467 185.686 125.456C186.145 125.445 186.582 125.424 186.998 125.392C187.425 125.36 187.841 125.323 188.246 125.28C188.662 125.227 189.089 125.163 189.526 125.088ZM195.254 129.616H186.966V126.544H185.302V130.96H195.254V129.616ZM203.397 121.984C205.061 121.984 206.336 121.771 207.221 121.344C208.106 120.917 208.549 120.304 208.549 119.504C208.549 118.693 208.106 118.075 207.221 117.648C206.336 117.221 205.061 117.008 203.397 117.008C201.722 117.008 200.442 117.221 199.557 117.648C198.682 118.075 198.245 118.693 198.245 119.504C198.245 120.304 198.682 120.917 199.557 121.344C200.442 121.771 201.722 121.984 203.397 121.984ZM203.397 118.24C204.528 118.24 205.381 118.347 205.957 118.56C206.544 118.773 206.837 119.088 206.837 119.504C206.837 119.909 206.544 120.219 205.957 120.432C205.381 120.645 204.528 120.752 203.397 120.752C202.266 120.752 201.408 120.645 200.821 120.432C200.245 120.219 199.957 119.909 199.957 119.504C199.957 119.088 200.245 118.773 200.821 118.56C201.408 118.347 202.266 118.24 203.397 118.24ZM209.941 122.832H196.853V124.144H209.941V122.832ZM200.069 129.84V128.64H208.293V125.184H198.405V126.432H206.677V127.472H198.437V131.104H208.709V129.84H200.069ZM226.542 116.784H224.974V131.232H226.542V116.784ZM222.03 117.056V121.84H219.902V123.184H222.03V130.56H223.582V117.056H222.03ZM218.638 120.64V118.112H217.038V120.72C217.038 121.339 216.974 121.957 216.846 122.576C216.729 123.184 216.542 123.765 216.286 124.32C216.03 124.875 215.71 125.381 215.326 125.84C214.953 126.299 214.51 126.683 213.998 126.992L215.006 128.24C215.71 127.813 216.297 127.243 216.766 126.528C217.235 125.813 217.598 125.003 217.854 124.096C218.099 124.907 218.435 125.648 218.862 126.32C219.299 126.981 219.854 127.515 220.526 127.92L221.454 126.64C220.974 126.331 220.553 125.957 220.19 125.52C219.838 125.072 219.545 124.587 219.31 124.064C219.086 123.531 218.915 122.976 218.798 122.4C218.691 121.813 218.638 121.227 218.638 120.64ZM234.957 123.728C235.714 123.728 236.407 123.653 237.037 123.504C237.666 123.355 238.205 123.141 238.653 122.864C239.101 122.576 239.447 122.235 239.693 121.84C239.949 121.445 240.077 121.003 240.077 120.512C240.077 120.021 239.949 119.579 239.693 119.184C239.447 118.789 239.101 118.453 238.653 118.176C238.205 117.899 237.666 117.685 237.037 117.536C236.407 117.387 235.714 117.312 234.957 117.312C234.189 117.312 233.49 117.387 232.861 117.536C232.231 117.685 231.693 117.899 231.245 118.176C230.797 118.453 230.445 118.789 230.189 119.184C229.943 119.579 229.821 120.021 229.821 120.512C229.821 121.003 229.943 121.445 230.189 121.84C230.445 122.235 230.797 122.576 231.245 122.864C231.693 123.141 232.231 123.355 232.861 123.504C233.49 123.653 234.189 123.728 234.957 123.728ZM234.957 118.64C235.991 118.64 236.818 118.805 237.437 119.136C238.066 119.467 238.381 119.925 238.381 120.512C238.381 121.12 238.066 121.589 237.437 121.92C236.818 122.24 235.991 122.4 234.957 122.4C233.89 122.4 233.047 122.24 232.429 121.92C231.821 121.589 231.517 121.12 231.517 120.512C231.517 119.925 231.821 119.467 232.429 119.136C233.047 118.805 233.89 118.64 234.957 118.64ZM241.533 126.32V124.96H228.429V126.32H234.109V131.232H235.757V126.32H241.533ZM252.668 119.472V119.552C252.668 120.405 252.641 121.365 252.588 122.432C252.545 123.499 252.385 124.741 252.108 126.16L253.772 126.336C253.91 125.589 254.017 124.901 254.092 124.272C254.166 123.632 254.22 123.04 254.252 122.496C254.294 121.941 254.316 121.424 254.316 120.944C254.326 120.464 254.332 120 254.332 119.552V118.128H244.044V119.472H252.668ZM255.74 127.984H249.212V122.896H247.548V127.984H242.684V129.344H255.74V127.984ZM137.552 138.224V150H140.704C141.589 150 142.373 149.872 143.056 149.616C143.749 149.349 144.336 148.965 144.816 148.464C145.296 147.963 145.659 147.344 145.904 146.608C146.16 145.872 146.288 145.024 146.288 144.064C146.288 142.101 145.803 140.64 144.832 139.68C143.872 138.709 142.464 138.224 140.608 138.224H137.552ZM140.48 148.48H139.408V139.728H140.48C141.749 139.728 142.715 140.08 143.376 140.784C144.037 141.488 144.368 142.581 144.368 144.064C144.368 145.579 144.043 146.693 143.392 147.408C142.741 148.123 141.771 148.48 140.48 148.48ZM151.62 150.208C152.164 150.208 152.686 150.107 153.188 149.904C153.689 149.691 154.126 149.392 154.5 149.008C154.884 148.613 155.188 148.133 155.412 147.568C155.646 146.992 155.764 146.341 155.764 145.616C155.764 144.88 155.646 144.224 155.412 143.648C155.188 143.072 154.884 142.587 154.5 142.192C154.126 141.797 153.689 141.499 153.188 141.296C152.686 141.083 152.164 140.976 151.62 140.976C151.076 140.976 150.553 141.083 150.052 141.296C149.55 141.499 149.108 141.797 148.724 142.192C148.35 142.587 148.046 143.072 147.812 143.648C147.588 144.224 147.476 144.88 147.476 145.616C147.476 146.341 147.588 146.992 147.812 147.568C148.046 148.133 148.35 148.613 148.724 149.008C149.108 149.392 149.55 149.691 150.052 149.904C150.553 150.107 151.076 150.208 151.62 150.208ZM151.62 148.704C151.278 148.704 150.969 148.629 150.692 148.48C150.414 148.331 150.18 148.123 149.988 147.856C149.796 147.589 149.646 147.264 149.54 146.88C149.433 146.496 149.38 146.075 149.38 145.616C149.38 144.677 149.577 143.925 149.972 143.36C150.366 142.784 150.916 142.496 151.62 142.496C152.324 142.496 152.873 142.784 153.268 143.36C153.673 143.925 153.876 144.677 153.876 145.616C153.876 146.075 153.822 146.496 153.716 146.88C153.609 147.264 153.46 147.589 153.268 147.856C153.076 148.123 152.841 148.331 152.564 148.48C152.286 148.629 151.972 148.704 151.62 148.704ZM157.432 141.2V150H159.256V143.76C159.65 143.365 160.008 143.067 160.328 142.864C160.648 142.661 161.01 142.56 161.416 142.56C161.938 142.56 162.317 142.725 162.552 143.056C162.786 143.376 162.904 143.92 162.904 144.688V150H164.744V144.464C164.744 143.333 164.525 142.469 164.088 141.872C163.661 141.275 162.978 140.976 162.04 140.976C161.442 140.976 160.909 141.12 160.44 141.408C159.97 141.685 159.533 142.021 159.128 142.416H159.08L158.936 141.2H157.432ZM170.6 150.208C171.176 150.208 171.715 150.123 172.216 149.952C172.717 149.781 173.171 149.557 173.576 149.28L172.936 148.112C172.616 148.325 172.285 148.491 171.944 148.608C171.603 148.715 171.235 148.768 170.84 148.768C170.072 148.768 169.443 148.533 168.952 148.064C168.472 147.584 168.195 146.923 168.12 146.08H173.832C173.853 145.963 173.869 145.829 173.88 145.68C173.901 145.52 173.912 145.344 173.912 145.152C173.912 144.523 173.832 143.952 173.672 143.44C173.523 142.928 173.293 142.491 172.984 142.128C172.685 141.765 172.312 141.483 171.864 141.28C171.427 141.077 170.915 140.976 170.328 140.976C169.816 140.976 169.315 141.083 168.824 141.296C168.344 141.509 167.917 141.819 167.544 142.224C167.171 142.619 166.872 143.104 166.648 143.68C166.424 144.245 166.312 144.891 166.312 145.616C166.312 146.341 166.424 146.992 166.648 147.568C166.872 148.133 167.176 148.613 167.56 149.008C167.944 149.392 168.397 149.691 168.92 149.904C169.443 150.107 170.003 150.208 170.6 150.208ZM172.328 144.816H168.104C168.147 144.432 168.237 144.091 168.376 143.792C168.515 143.493 168.685 143.243 168.888 143.04C169.091 142.837 169.32 142.683 169.576 142.576C169.832 142.469 170.093 142.416 170.36 142.416C171 142.416 171.485 142.624 171.816 143.04C172.157 143.456 172.328 144.048 172.328 144.816ZM177.487 146.704L177.807 137.952H175.951L175.999 139.84L176.255 146.704H177.487ZM175.935 150.208H177.823V148.224H175.935V150.208ZM195.045 136.768L193.381 136.752V142.016H190.357V137.92H188.741V141.552H185.221V137.904H183.589V147.728H190.357V143.344H193.381V151.264H195.045V136.768ZM188.741 142.848V146.384H185.221V142.848H188.741ZM208.868 143.568V142.288H200.58V141.024H208.42V139.792H200.58V138.544H208.772V137.28H198.932V143.568H208.868ZM210.34 144.688H197.268V146.016H210.34V144.688ZM200.548 149.616V146.928H198.9V150.96H208.996V149.616H200.548ZM227.661 142.544H225.773C225.922 141.744 226.008 141.024 226.029 140.384C226.061 139.744 226.077 139.136 226.077 138.56V137.392H216.269V138.688H224.461V139.232C224.461 139.424 224.456 139.621 224.445 139.824L215.885 140.08L216.077 141.344L224.365 140.992C224.344 141.237 224.312 141.488 224.269 141.744C224.237 142 224.189 142.267 224.125 142.544H214.637V143.856H227.661V142.544ZM217.757 149.776V148.56H226.189V144.992H216.109V146.272H224.557V147.36H216.141V151.056H226.685V149.776H217.757ZM240.764 136.768H239.116V145.648H240.764V136.768ZM237.804 144.48L237.612 143.152C237.089 143.237 236.577 143.307 236.076 143.36C235.585 143.413 235.084 143.456 234.572 143.488C234.06 143.52 233.526 143.547 232.972 143.568C232.428 143.579 231.846 143.584 231.228 143.584V141.808H236.172V137.6H229.564V138.928H234.556V140.56H229.596V144.928H230.812C231.505 144.928 232.15 144.923 232.748 144.912C233.356 144.901 233.937 144.88 234.492 144.848C235.057 144.816 235.606 144.773 236.14 144.72C236.684 144.656 237.238 144.576 237.804 144.48ZM231.02 146.352V147.696H239.116V151.248H240.764V146.352H231.02ZM256.539 143.968V142.592H254.315V136.784H252.651V151.248H254.315V143.968H256.539ZM248.107 139.008V136.992H246.459V139.008H243.019V140.352H251.483V139.008H248.107ZM247.307 141.376C246.784 141.376 246.304 141.461 245.867 141.632C245.429 141.792 245.051 142.021 244.731 142.32C244.411 142.619 244.16 142.976 243.979 143.392C243.808 143.797 243.723 144.251 243.723 144.752C243.723 145.243 243.808 145.696 243.979 146.112C244.16 146.528 244.411 146.885 244.731 147.184C245.051 147.483 245.429 147.717 245.867 147.888C246.304 148.048 246.784 148.128 247.307 148.128C247.819 148.128 248.293 148.048 248.731 147.888C249.168 147.717 249.547 147.483 249.867 147.184C250.187 146.885 250.437 146.528 250.619 146.112C250.8 145.696 250.891 145.243 250.891 144.752C250.891 144.251 250.8 143.797 250.619 143.392C250.437 142.976 250.187 142.619 249.867 142.32C249.547 142.021 249.168 141.792 248.731 141.632C248.293 141.461 247.819 141.376 247.307 141.376ZM247.307 146.768C246.72 146.768 246.235 146.587 245.851 146.224C245.477 145.851 245.291 145.36 245.291 144.752C245.291 144.144 245.477 143.659 245.851 143.296C246.235 142.923 246.72 142.736 247.307 142.736C247.893 142.736 248.373 142.923 248.747 143.296C249.131 143.659 249.323 144.144 249.323 144.752C249.323 145.36 249.131 145.851 248.747 146.224C248.373 146.587 247.893 146.768 247.307 146.768ZM264.649 144.896V143.632H267.657V147.328H269.305V136.784H267.657V139.2H264.649V137.984H257.961V144.896H264.649ZM263.049 139.296V143.584H259.577V139.296H263.049ZM264.649 140.544H267.657V142.304H264.649V140.544ZM269.641 149.616H261.561V146.368H259.897V150.96H269.641V149.616ZM287.762 142.24H285.746C285.97 141.301 286.098 140.496 286.13 139.824C286.173 139.152 286.194 138.576 286.194 138.096V137.312H281.506V138.64H284.578C284.567 139.088 284.53 139.605 284.466 140.192C284.413 140.779 284.285 141.461 284.082 142.24H280.05C280.327 141.205 280.487 140.325 280.53 139.6C280.583 138.875 280.61 138.299 280.61 137.872V137.312H275.89V138.64H278.994C278.973 139.088 278.925 139.6 278.85 140.176C278.775 140.752 278.631 141.44 278.418 142.24H274.658V143.568H287.762V142.24ZM277.938 149.808V148.528H285.826V147.328H277.938V146.08H286.178V144.848H276.29V151.056H286.29V149.808H277.938ZM291.457 146.704L291.777 137.952H289.921L289.969 139.84L290.225 146.704H291.457ZM289.905 150.208H291.793V148.224H289.905V150.208Z" fill="white"/>
<path d="M43.72 569.768H42.072V578.504H43.72V569.768ZM39.896 577.928L40.728 576.648C40.1733 576.467 39.6773 576.227 39.24 575.928C38.8027 575.629 38.4293 575.288 38.12 574.904C37.8213 574.52 37.592 574.109 37.432 573.672C37.272 573.224 37.192 572.771 37.192 572.312V572.04H40.28V570.712H32.376V572.04H35.512V572.312C35.512 572.792 35.432 573.267 35.272 573.736C35.112 574.205 34.8773 574.643 34.568 575.048C34.2693 575.453 33.896 575.816 33.448 576.136C33.0107 576.456 32.504 576.712 31.928 576.904L32.792 578.2C33.656 577.891 34.3867 577.448 34.984 576.872C35.592 576.296 36.056 575.624 36.376 574.856C36.696 575.571 37.1547 576.195 37.752 576.728C38.3493 577.261 39.064 577.661 39.896 577.928ZM33.976 579.224V580.552H42.072V584.232H43.72V579.224H33.976ZM58.0228 569.784H56.3588V573.16H53.8148V574.52H56.3588V577.672H58.0228V569.784ZM53.8308 577.608L54.6468 576.312C54.1028 576.12 53.6174 575.875 53.1908 575.576C52.7748 575.267 52.4228 574.92 52.1348 574.536C51.8468 574.152 51.6281 573.741 51.4788 573.304C51.3294 572.867 51.2548 572.424 51.2548 571.976V571.896H54.2628V570.552H46.5348V571.896H49.5908V571.992C49.5908 572.472 49.5108 572.952 49.3508 573.432C49.1908 573.901 48.9561 574.339 48.6468 574.744C48.3481 575.149 47.9801 575.517 47.5428 575.848C47.1054 576.168 46.6041 576.424 46.0388 576.616L46.8868 577.912C47.7508 577.613 48.4814 577.165 49.0788 576.568C49.6761 575.971 50.1348 575.283 50.4548 574.504C50.7641 575.208 51.2014 575.832 51.7668 576.376C52.3428 576.909 53.0308 577.32 53.8308 577.608ZM56.3748 578.312V579.88H50.2628V578.312H48.6308V584.056H58.0228V578.312H56.3748ZM56.3748 581.176V582.728H50.2628V581.176H56.3748ZM76.7676 576.856V575.48H74.5756V569.768H72.9276V584.216H74.5756V576.856H76.7676ZM70.8476 571.224H64.2716V572.568H69.2156C69.1516 573.368 69.0236 574.12 68.8316 574.824L63.5356 575.16L63.7596 576.584L68.3356 576.136C67.909 577.043 67.3063 577.869 66.5276 578.616C65.749 579.352 64.7196 580.04 63.4396 580.68L64.3356 581.96C65.6476 581.299 66.725 580.573 67.5676 579.784C68.4103 578.984 69.0716 578.131 69.5516 577.224C70.0423 576.317 70.3783 575.363 70.5596 574.36C70.7516 573.347 70.8476 572.301 70.8476 571.224ZM89.9664 569.768H88.3824V584.216H89.9664V569.768ZM85.4384 570.088V575.16H83.5824V576.52H85.4384V583.544H86.9904V570.088H85.4384ZM79.6944 579.544V576.648H82.8624V575.352H79.6944V572.776H83.4704V571.448H78.1104V580.888H79.0704C79.6144 580.888 80.1157 580.888 80.5744 580.888C81.033 580.877 81.465 580.861 81.8704 580.84C82.2757 580.808 82.6704 580.771 83.0544 580.728C83.449 580.685 83.849 580.627 84.2544 580.552L84.1104 579.208C83.7584 579.272 83.4117 579.325 83.0704 579.368C82.729 579.411 82.3824 579.448 82.0304 579.48C81.6784 579.501 81.3104 579.517 80.9264 579.528C80.553 579.539 80.1424 579.544 79.6944 579.544ZM101.853 572.472V572.552C101.853 573.405 101.826 574.365 101.773 575.432C101.73 576.499 101.57 577.741 101.293 579.16L102.957 579.336C103.096 578.589 103.202 577.901 103.277 577.272C103.352 576.632 103.405 576.04 103.437 575.496C103.48 574.941 103.501 574.424 103.501 573.944C103.512 573.464 103.517 573 103.517 572.552V571.128H93.2291V572.472H101.853ZM104.925 580.984H98.3971V575.896H96.7331V580.984H91.8691V582.344H104.925V580.984ZM118.028 569.752H116.364V584.264H118.028V569.752ZM108.588 579.464V576.424H113.628V571.064H106.892V572.408H111.964V575.096H106.924V580.824H108.156C109.425 580.824 110.631 580.792 111.772 580.728C112.913 580.664 114.103 580.525 115.34 580.312L115.164 578.968C114.023 579.149 112.924 579.277 111.868 579.352C110.823 579.416 109.729 579.453 108.588 579.464ZM136.885 576.792V575.432H134.629V569.784H132.981V584.248H134.629V576.792H136.885ZM127.285 570.84C126.741 570.84 126.239 570.963 125.781 571.208C125.333 571.443 124.943 571.784 124.613 572.232C124.293 572.669 124.037 573.203 123.845 573.832C123.663 574.461 123.573 575.165 123.573 575.944C123.573 576.723 123.663 577.427 123.845 578.056C124.037 578.685 124.293 579.219 124.613 579.656C124.943 580.093 125.333 580.435 125.781 580.68C126.239 580.915 126.741 581.032 127.285 581.032C127.829 581.032 128.325 580.915 128.773 580.68C129.231 580.435 129.621 580.093 129.941 579.656C130.271 579.219 130.527 578.685 130.709 578.056C130.901 577.427 130.997 576.723 130.997 575.944C130.997 575.165 130.901 574.461 130.709 573.832C130.527 573.203 130.271 572.669 129.941 572.232C129.621 571.784 129.231 571.443 128.773 571.208C128.325 570.963 127.829 570.84 127.285 570.84ZM127.285 579.56C126.645 579.56 126.127 579.24 125.733 578.6C125.349 577.96 125.157 577.075 125.157 575.944C125.157 574.813 125.349 573.928 125.733 573.288C126.127 572.648 126.645 572.328 127.285 572.328C127.925 572.328 128.437 572.648 128.821 573.288C129.215 573.928 129.413 574.813 129.413 575.944C129.413 577.075 129.215 577.96 128.821 578.6C128.437 579.24 127.925 579.56 127.285 579.56ZM149.572 569.768H147.908V584.264H149.572V569.768ZM141.876 570.84C141.342 570.84 140.846 570.963 140.388 571.208C139.94 571.443 139.55 571.784 139.22 572.232C138.889 572.669 138.628 573.203 138.436 573.832C138.254 574.451 138.164 575.149 138.164 575.928C138.164 576.707 138.254 577.416 138.436 578.056C138.628 578.685 138.889 579.219 139.22 579.656C139.55 580.093 139.94 580.435 140.388 580.68C140.846 580.915 141.342 581.032 141.876 581.032C142.42 581.032 142.916 580.915 143.364 580.68C143.822 580.435 144.217 580.093 144.548 579.656C144.878 579.219 145.134 578.685 145.316 578.056C145.508 577.416 145.604 576.707 145.604 575.928C145.604 575.149 145.508 574.451 145.316 573.832C145.134 573.203 144.878 572.669 144.548 572.232C144.217 571.784 143.822 571.443 143.364 571.208C142.916 570.963 142.42 570.84 141.876 570.84ZM141.876 572.328C142.516 572.328 143.033 572.648 143.428 573.288C143.822 573.917 144.02 574.797 144.02 575.928C144.02 577.091 143.822 577.987 143.428 578.616C143.033 579.245 142.516 579.56 141.876 579.56C141.236 579.56 140.718 579.245 140.324 578.616C139.94 577.987 139.748 577.091 139.748 575.928C139.748 574.797 139.94 573.917 140.324 573.288C140.718 572.648 141.236 572.328 141.876 572.328ZM161.762 573.08L153.074 573.32L153.298 574.68L161.682 574.312C161.65 574.621 161.613 574.947 161.57 575.288C161.528 575.619 161.464 575.971 161.378 576.344L163.01 576.472C163.213 575.501 163.33 574.637 163.362 573.88C163.394 573.112 163.41 572.387 163.41 571.704V570.408H153.442V571.736H161.778V572.408C161.778 572.632 161.773 572.856 161.762 573.08ZM164.962 577.32H158.69V575.384H157.026V577.32H151.938V578.648H164.962V577.32ZM155.186 582.68V579.752H153.538V584.008H163.682V582.68H155.186ZM172.689 574.984C174.353 574.984 175.628 574.771 176.513 574.344C177.398 573.917 177.841 573.304 177.841 572.504C177.841 571.693 177.398 571.075 176.513 570.648C175.628 570.221 174.353 570.008 172.689 570.008C171.014 570.008 169.734 570.221 168.849 570.648C167.974 571.075 167.537 571.693 167.537 572.504C167.537 573.304 167.974 573.917 168.849 574.344C169.734 574.771 171.014 574.984 172.689 574.984ZM172.689 571.24C173.82 571.24 174.673 571.347 175.249 571.56C175.836 571.773 176.129 572.088 176.129 572.504C176.129 572.909 175.836 573.219 175.249 573.432C174.673 573.645 173.82 573.752 172.689 573.752C171.558 573.752 170.7 573.645 170.113 573.432C169.537 573.219 169.249 572.909 169.249 572.504C169.249 572.088 169.537 571.773 170.113 571.56C170.7 571.347 171.558 571.24 172.689 571.24ZM179.233 575.832H166.145V577.144H179.233V575.832ZM169.361 582.84V581.64H177.585V578.184H167.697V579.432H175.969V580.472H167.729V584.104H178.001V582.84H169.361ZM193.818 574.392V580.536H195.466V569.784H193.818V573.032H190.89V574.392H193.818ZM191.146 578.264L192.026 576.984C191.482 576.792 191.002 576.536 190.586 576.216C190.17 575.885 189.818 575.517 189.53 575.112C189.242 574.707 189.023 574.269 188.874 573.8C188.725 573.331 188.65 572.856 188.65 572.376V570.664H186.97V572.344C186.97 572.877 186.89 573.4 186.73 573.912C186.581 574.424 186.357 574.899 186.058 575.336C185.77 575.773 185.407 576.163 184.97 576.504C184.533 576.845 184.031 577.117 183.466 577.32L184.346 578.6C185.178 578.28 185.887 577.816 186.474 577.208C187.071 576.589 187.53 575.875 187.85 575.064C188.159 575.8 188.591 576.445 189.146 577C189.701 577.555 190.367 577.976 191.146 578.264ZM195.802 582.616H187.722V579.4H186.058V583.96H195.802V582.616ZM209.961 569.784H208.393V573.448H206.793V570.056H205.257V578.472H206.793V574.792H208.393V578.568H209.961V569.784ZM204.537 577.544L204.361 576.2C204.009 576.264 203.662 576.317 203.321 576.36C202.979 576.403 202.627 576.44 202.265 576.472C201.913 576.504 201.539 576.525 201.145 576.536C200.761 576.547 200.339 576.552 199.881 576.552V574.936H203.753V573.656H199.881V572.136H203.913V570.808H198.281V577.896H199.257C199.822 577.896 200.334 577.891 200.793 577.88C201.262 577.869 201.705 577.853 202.121 577.832C202.537 577.811 202.937 577.779 203.321 577.736C203.715 577.683 204.121 577.619 204.537 577.544ZM200.153 579.272V580.6H208.313V584.248H209.961V579.272H200.153ZM225.415 576.968V575.592H223.191V569.784H221.527V584.248H223.191V576.968H225.415ZM216.983 572.008V569.992H215.335V572.008H211.895V573.352H220.359V572.008H216.983ZM216.183 574.376C215.661 574.376 215.181 574.461 214.743 574.632C214.306 574.792 213.927 575.021 213.607 575.32C213.287 575.619 213.037 575.976 212.855 576.392C212.685 576.797 212.599 577.251 212.599 577.752C212.599 578.243 212.685 578.696 212.855 579.112C213.037 579.528 213.287 579.885 213.607 580.184C213.927 580.483 214.306 580.717 214.743 580.888C215.181 581.048 215.661 581.128 216.183 581.128C216.695 581.128 217.17 581.048 217.607 580.888C218.045 580.717 218.423 580.483 218.743 580.184C219.063 579.885 219.314 579.528 219.495 579.112C219.677 578.696 219.767 578.243 219.767 577.752C219.767 577.251 219.677 576.797 219.495 576.392C219.314 575.976 219.063 575.619 218.743 575.32C218.423 575.021 218.045 574.792 217.607 574.632C217.17 574.461 216.695 574.376 216.183 574.376ZM216.183 579.768C215.597 579.768 215.111 579.587 214.727 579.224C214.354 578.851 214.167 578.36 214.167 577.752C214.167 577.144 214.354 576.659 214.727 576.296C215.111 575.923 215.597 575.736 216.183 575.736C216.77 575.736 217.25 575.923 217.623 576.296C218.007 576.659 218.199 577.144 218.199 577.752C218.199 578.36 218.007 578.851 217.623 579.224C217.25 579.587 216.77 579.768 216.183 579.768ZM237.814 575.272V573.928H229.542V570.296H227.894V575.272H237.814ZM239.318 577H226.198V578.328H239.318V577ZM229.446 582.584V579.656H227.798V583.912H237.894V582.584H229.446ZM255.951 569.768H254.383V575.48H252.799V570.04H251.247V583.56H252.799V576.84H254.383V584.232H255.951V569.768ZM247.951 573.528V572.728H250.367V571.368H243.743V572.728H246.351V573.528C246.351 574.243 246.292 574.931 246.175 575.592C246.058 576.253 245.876 576.867 245.631 577.432C245.386 577.997 245.071 578.509 244.687 578.968C244.314 579.427 243.866 579.811 243.343 580.12L244.351 581.352C245.066 580.925 245.658 580.36 246.127 579.656C246.596 578.952 246.954 578.131 247.199 577.192C247.466 577.992 247.823 578.712 248.271 579.352C248.719 579.981 249.295 580.483 249.999 580.856L250.959 579.592C250.436 579.315 249.983 578.968 249.599 578.552C249.226 578.125 248.916 577.651 248.671 577.128C248.426 576.605 248.244 576.04 248.127 575.432C248.01 574.813 247.951 574.179 247.951 573.528ZM269.678 569.768H268.014V584.264H269.678V569.768ZM265.342 571.144H258.558V580.696H265.342V571.144ZM260.174 572.456H263.726V579.368H260.174V572.456ZM274.572 579.704L274.892 570.952H273.036L273.084 572.84L273.34 579.704H274.572ZM273.02 583.208H274.908V581.224H273.02V583.208Z" fill="white"/>
<path d="M154.12 443.784H152.552V449.768H151.016V444.088H149.48V457.56H151.016V451.128H152.552V458.232H154.12V443.784ZM146.152 446.136V444.2H144.52V446.136H141.784V447.464H148.856V446.136H146.152ZM145.336 448.28C144.877 448.28 144.456 448.36 144.072 448.52C143.688 448.68 143.357 448.909 143.08 449.208C142.803 449.507 142.584 449.864 142.424 450.28C142.275 450.685 142.2 451.139 142.2 451.64C142.2 452.131 142.275 452.584 142.424 453C142.584 453.416 142.803 453.773 143.08 454.072C143.357 454.36 143.688 454.589 144.072 454.76C144.456 454.92 144.877 455 145.336 455C145.795 455 146.216 454.92 146.6 454.76C146.984 454.589 147.315 454.36 147.592 454.072C147.869 453.773 148.083 453.416 148.232 453C148.392 452.584 148.472 452.131 148.472 451.64C148.472 451.139 148.392 450.685 148.232 450.28C148.083 449.864 147.869 449.507 147.592 449.208C147.315 448.909 146.984 448.68 146.6 448.52C146.216 448.36 145.795 448.28 145.336 448.28ZM145.336 453.624C144.845 453.624 144.445 453.448 144.136 453.096C143.827 452.733 143.672 452.248 143.672 451.64C143.672 451.032 143.827 450.547 144.136 450.184C144.445 449.821 144.845 449.64 145.336 449.64C145.827 449.64 146.227 449.821 146.536 450.184C146.845 450.547 147 451.032 147 451.64C147 452.248 146.845 452.733 146.536 453.096C146.227 453.448 145.827 453.624 145.336 453.624ZM167.943 443.768H166.279V458.264H167.943V443.768ZM161.383 447.352V444.984H159.735V447.352C159.735 448.045 159.644 448.733 159.463 449.416C159.281 450.088 159.025 450.717 158.695 451.304C158.364 451.891 157.964 452.413 157.495 452.872C157.025 453.331 156.503 453.688 155.927 453.944L156.903 455.32C157.777 454.893 158.524 454.28 159.143 453.48C159.772 452.669 160.252 451.731 160.583 450.664C160.913 451.667 161.383 452.541 161.991 453.288C162.609 454.035 163.335 454.605 164.167 455L165.127 453.688C164.561 453.432 164.044 453.085 163.575 452.648C163.116 452.2 162.721 451.699 162.391 451.144C162.071 450.579 161.82 449.976 161.639 449.336C161.468 448.685 161.383 448.024 161.383 447.352ZM182.63 443.784H181.062V449.496H179.446V444.056H177.91V457.544H179.446V450.84H181.062V458.216H182.63V443.784ZM172.39 453.416V450.472H176.31V449.176H172.39V446.696H176.566V445.368H170.806V454.776H171.782C172.347 454.776 172.864 454.771 173.334 454.76C173.803 454.749 174.246 454.733 174.662 454.712C175.088 454.691 175.499 454.659 175.894 454.616C176.288 454.563 176.694 454.499 177.11 454.424L176.966 453.08C176.603 453.144 176.246 453.197 175.894 453.24C175.542 453.283 175.184 453.32 174.822 453.352C174.459 453.373 174.08 453.389 173.686 453.4C173.291 453.411 172.859 453.416 172.39 453.416ZM194.276 446.552V446.776C194.276 447.245 194.271 447.736 194.26 448.248C194.26 448.749 194.239 449.283 194.196 449.848C194.164 450.403 194.111 450.995 194.036 451.624C193.962 452.243 193.855 452.909 193.716 453.624L195.38 453.8C195.519 453.032 195.626 452.328 195.7 451.688C195.775 451.037 195.828 450.429 195.86 449.864C195.892 449.299 195.908 448.765 195.908 448.264C195.919 447.752 195.924 447.256 195.924 446.776V445.224H185.924V446.552H194.276ZM197.604 454.856H184.532V456.216H197.604V454.856ZM212.131 450.984V449.608H210.003V443.784H208.355V458.216H210.003V450.984H212.131ZM203.891 453.768V451.544C204.339 451.459 204.75 451.32 205.123 451.128C205.496 450.936 205.811 450.696 206.067 450.408C206.334 450.109 206.542 449.773 206.691 449.4C206.84 449.016 206.915 448.6 206.915 448.152C206.915 447.64 206.819 447.171 206.627 446.744C206.435 446.317 206.163 445.955 205.811 445.656C205.47 445.347 205.064 445.107 204.595 444.936C204.126 444.765 203.614 444.68 203.059 444.68C202.504 444.68 201.987 444.765 201.507 444.936C201.038 445.107 200.632 445.347 200.291 445.656C199.95 445.955 199.678 446.317 199.475 446.744C199.283 447.171 199.187 447.64 199.187 448.152C199.187 448.6 199.262 449.016 199.411 449.4C199.56 449.773 199.768 450.109 200.035 450.408C200.312 450.696 200.638 450.941 201.011 451.144C201.384 451.336 201.795 451.475 202.243 451.56V453.832C201.592 453.853 200.963 453.864 200.355 453.864H198.611L198.835 455.224C199.464 455.224 200.131 455.219 200.835 455.208C201.55 455.197 202.286 455.176 203.043 455.144C203.8 455.112 204.568 455.059 205.347 454.984C206.126 454.909 206.894 454.808 207.651 454.68L207.507 453.464C206.931 453.549 206.339 453.619 205.731 453.672C205.123 453.715 204.51 453.747 203.891 453.768ZM200.787 448.152C200.787 447.512 200.995 447.011 201.411 446.648C201.838 446.275 202.387 446.088 203.059 446.088C203.731 446.088 204.275 446.275 204.691 446.648C205.107 447.011 205.315 447.512 205.315 448.152C205.315 448.792 205.107 449.293 204.691 449.656C204.275 450.019 203.731 450.2 203.059 450.2C202.387 450.2 201.838 450.019 201.411 449.656C200.995 449.293 200.787 448.792 200.787 448.152ZM225.964 445.624V447.064H217.676V451.208H227.964V449.864H219.34V448.312H227.644V444.296H217.644V445.624H225.964ZM229.196 453.832V452.504H216.092V453.832H221.788V458.264H223.452V453.832H229.196ZM242.251 454.488V443.8H240.603V454.488H242.251ZM239.307 451.88L239.147 450.584C238.667 450.659 238.197 450.723 237.739 450.776C237.28 450.819 236.8 450.856 236.299 450.888C235.797 450.92 235.259 450.941 234.683 450.952C234.117 450.963 233.488 450.968 232.795 450.968V449.208H237.659V447.912H232.795V446.232H238.075V444.904H231.163V452.28H232.363C233.141 452.28 233.84 452.275 234.459 452.264C235.088 452.253 235.675 452.237 236.219 452.216C236.763 452.184 237.285 452.141 237.787 452.088C238.288 452.035 238.795 451.965 239.307 451.88ZM242.667 456.616H234.475V453.576H232.811V457.96H242.667V456.616ZM260.724 449.544H258.836C258.985 448.744 259.07 448.024 259.092 447.384C259.124 446.744 259.14 446.136 259.14 445.56V444.392H249.332V445.688H257.524V446.232C257.524 446.424 257.518 446.621 257.508 446.824L248.948 447.08L249.14 448.344L257.428 447.992C257.406 448.237 257.374 448.488 257.332 448.744C257.3 449 257.252 449.267 257.188 449.544H247.7V450.856H260.724V449.544ZM250.82 456.776V455.56H259.252V451.992H249.172V453.272H257.62V454.36H249.204V458.056H259.748V456.776H250.82ZM273.826 443.768H272.178V452.648H273.826V443.768ZM270.866 451.48L270.674 450.152C270.152 450.237 269.64 450.307 269.138 450.36C268.648 450.413 268.146 450.456 267.634 450.488C267.122 450.52 266.589 450.547 266.034 450.568C265.49 450.579 264.909 450.584 264.29 450.584V448.808H269.234V444.6H262.626V445.928H267.618V447.56H262.658V451.928H263.874C264.568 451.928 265.213 451.923 265.81 451.912C266.418 451.901 267 451.88 267.554 451.848C268.12 451.816 268.669 451.773 269.202 451.72C269.746 451.656 270.301 451.576 270.866 451.48ZM264.082 453.352V454.696H272.178V458.248H273.826V453.352H264.082ZM287.803 446.744V445.432H284.363V443.768H282.715V445.432H279.275V446.744H287.803ZM292.587 448.392H290.539V443.784H288.891V454.616H290.539V449.752H292.587V448.392ZM287.035 450.152C287.035 449.747 286.95 449.379 286.779 449.048C286.608 448.707 286.368 448.419 286.059 448.184C285.75 447.939 285.382 447.752 284.955 447.624C284.528 447.485 284.054 447.416 283.531 447.416C283.019 447.416 282.544 447.485 282.107 447.624C281.68 447.752 281.312 447.939 281.003 448.184C280.694 448.419 280.454 448.707 280.283 449.048C280.112 449.379 280.027 449.747 280.027 450.152C280.027 450.568 280.112 450.947 280.283 451.288C280.454 451.619 280.694 451.907 281.003 452.152C281.312 452.387 281.68 452.568 282.107 452.696C282.544 452.824 283.019 452.888 283.531 452.888C284.054 452.888 284.528 452.824 284.955 452.696C285.382 452.568 285.75 452.387 286.059 452.152C286.368 451.907 286.608 451.619 286.779 451.288C286.95 450.947 287.035 450.568 287.035 450.152ZM281.611 450.152C281.611 449.693 281.787 449.336 282.139 449.08C282.491 448.824 282.955 448.696 283.531 448.696C284.107 448.696 284.571 448.824 284.923 449.08C285.286 449.336 285.467 449.693 285.467 450.152C285.467 450.611 285.286 450.968 284.923 451.224C284.571 451.48 284.107 451.608 283.531 451.608C282.955 451.608 282.491 451.48 282.139 451.224C281.787 450.968 281.611 450.611 281.611 450.152ZM283.051 456.616V453.784H281.387V457.96H291.115V456.616H283.051ZM300.81 452.12V449.096H303.818V454.488H305.466V443.784H303.818V447.752H300.81V444.744H299.194V447.128H295.786V444.744H294.154V452.12H300.81ZM299.194 448.424V450.776H295.786V448.424H299.194ZM305.802 456.616H297.722V453.432H296.058V457.96H305.802V456.616ZM319.625 443.768H317.961V458.264H319.625V443.768ZM311.929 444.84C311.395 444.84 310.899 444.963 310.441 445.208C309.993 445.443 309.603 445.784 309.273 446.232C308.942 446.669 308.681 447.203 308.489 447.832C308.307 448.451 308.217 449.149 308.217 449.928C308.217 450.707 308.307 451.416 308.489 452.056C308.681 452.685 308.942 453.219 309.273 453.656C309.603 454.093 309.993 454.435 310.441 454.68C310.899 454.915 311.395 455.032 311.929 455.032C312.473 455.032 312.969 454.915 313.417 454.68C313.875 454.435 314.27 454.093 314.601 453.656C314.931 453.219 315.187 452.685 315.369 452.056C315.561 451.416 315.657 450.707 315.657 449.928C315.657 449.149 315.561 448.451 315.369 447.832C315.187 447.203 314.931 446.669 314.601 446.232C314.27 445.784 313.875 445.443 313.417 445.208C312.969 444.963 312.473 444.84 311.929 444.84ZM311.929 446.328C312.569 446.328 313.086 446.648 313.481 447.288C313.875 447.917 314.073 448.797 314.073 449.928C314.073 451.091 313.875 451.987 313.481 452.616C313.086 453.245 312.569 453.56 311.929 453.56C311.289 453.56 310.771 453.245 310.377 452.616C309.993 451.987 309.801 451.091 309.801 449.928C309.801 448.797 309.993 447.917 310.377 447.288C310.771 446.648 311.289 446.328 311.929 446.328ZM329.287 451.896V450.632H332.295V454.328H333.943V443.784H332.295V446.2H329.287V444.984H322.599V451.896H329.287ZM327.687 446.296V450.584H324.215V446.296H327.687ZM329.287 447.544H332.295V449.304H329.287V447.544ZM334.279 456.616H326.199V453.368H324.535V457.96H334.279V456.616ZM152.136 467.688H148.344V469.016H152.136V474.312H153.784V463.784H152.136V467.688ZM150.12 471.832L149.96 470.52C149.512 470.595 149.075 470.659 148.648 470.712C148.221 470.765 147.784 470.813 147.336 470.856C146.888 470.888 146.413 470.915 145.912 470.936C145.421 470.947 144.883 470.952 144.296 470.952V466.216H149.224V464.888H142.648V472.296H143.768C144.44 472.296 145.059 472.291 145.624 472.28C146.189 472.269 146.723 472.248 147.224 472.216C147.725 472.173 148.211 472.125 148.68 472.072C149.149 472.008 149.629 471.928 150.12 471.832ZM154.152 476.68H146.056V473.512H144.408V478.008H154.152V476.68ZM167.975 463.752H166.311V478.264H167.975V463.752ZM158.535 473.464V470.424H163.575V465.064H156.839V466.408H161.911V469.096H156.871V474.824H158.103C159.372 474.824 160.577 474.792 161.719 474.728C162.86 474.664 164.049 474.525 165.287 474.312L165.111 472.968C163.969 473.149 162.871 473.277 161.815 473.352C160.769 473.416 159.676 473.453 158.535 473.464ZM182.102 472.2L182.822 470.84C182.107 470.712 181.435 470.488 180.806 470.168C180.187 469.837 179.643 469.448 179.174 469C178.704 468.541 178.331 468.04 178.054 467.496C177.787 466.941 177.654 466.376 177.654 465.8V464.712H175.91V465.8C175.91 466.365 175.771 466.925 175.494 467.48C175.227 468.024 174.859 468.525 174.39 468.984C173.92 469.432 173.371 469.821 172.742 470.152C172.123 470.483 171.456 470.712 170.742 470.84L171.446 472.2C172.032 472.083 172.592 471.901 173.126 471.656C173.67 471.411 174.171 471.117 174.63 470.776C175.099 470.435 175.515 470.051 175.878 469.624C176.24 469.187 176.539 468.723 176.774 468.232C177.008 468.723 177.307 469.187 177.67 469.624C178.032 470.051 178.443 470.435 178.902 470.776C179.371 471.117 179.872 471.411 180.406 471.656C180.95 471.901 181.515 472.083 182.102 472.2ZM183.382 475.016H170.294V476.376H183.382V475.016ZM196.164 472.744V471.416H187.828V469.432H195.732V468.136H187.828V466.28H196.052V464.952H186.148V472.744H196.164ZM197.636 475.112H184.532V476.456H197.636V475.112ZM215.197 468.824V467.464H213.149V463.768H211.501V472.488H213.149V468.824H215.197ZM209.517 471.912L210.365 470.648C209.81 470.467 209.32 470.227 208.893 469.928C208.466 469.619 208.109 469.272 207.821 468.888C207.533 468.504 207.314 468.093 207.165 467.656C207.016 467.219 206.941 466.771 206.941 466.312V466.056H209.965V464.712H202.205V466.056H205.277V466.312C205.277 466.803 205.197 467.283 205.037 467.752C204.888 468.221 204.658 468.659 204.349 469.064C204.05 469.459 203.682 469.816 203.245 470.136C202.808 470.456 202.301 470.712 201.725 470.904L202.589 472.2C203.453 471.901 204.178 471.469 204.765 470.904C205.352 470.339 205.805 469.672 206.125 468.904C206.434 469.608 206.872 470.221 207.437 470.744C208.013 471.256 208.706 471.645 209.517 471.912ZM203.645 473.192V474.52H211.501V478.232H213.149V473.192H203.645ZM226.428 468.008V472.296H228.076V463.768H226.428V466.664H223.5V468.008H226.428ZM223.804 471.72L224.684 470.424C224.14 470.243 223.655 470.003 223.228 469.704C222.812 469.395 222.46 469.043 222.172 468.648C221.884 468.243 221.665 467.811 221.516 467.352C221.367 466.883 221.292 466.397 221.292 465.896V464.552H219.628V465.976C219.628 466.499 219.548 467.011 219.388 467.512C219.239 468.013 219.009 468.477 218.7 468.904C218.401 469.331 218.028 469.709 217.58 470.04C217.132 470.371 216.62 470.632 216.044 470.824L216.908 472.152C217.783 471.843 218.519 471.384 219.116 470.776C219.724 470.168 220.188 469.464 220.508 468.664C220.817 469.368 221.249 469.987 221.804 470.52C222.359 471.043 223.025 471.443 223.804 471.72ZM223.26 472.696C222.513 472.696 221.836 472.76 221.228 472.888C220.631 473.005 220.119 473.187 219.692 473.432C219.276 473.667 218.956 473.955 218.732 474.296C218.508 474.637 218.396 475.027 218.396 475.464C218.396 475.901 218.508 476.291 218.732 476.632C218.956 476.973 219.276 477.261 219.692 477.496C220.119 477.741 220.631 477.923 221.228 478.04C221.836 478.168 222.513 478.232 223.26 478.232C224.017 478.232 224.695 478.168 225.292 478.04C225.9 477.923 226.412 477.741 226.828 477.496C227.255 477.261 227.58 476.973 227.804 476.632C228.028 476.291 228.14 475.901 228.14 475.464C228.14 475.027 228.028 474.637 227.804 474.296C227.58 473.955 227.255 473.667 226.828 473.432C226.412 473.187 225.9 473.005 225.292 472.888C224.695 472.76 224.017 472.696 223.26 472.696ZM223.26 476.936C222.225 476.936 221.431 476.813 220.876 476.568C220.321 476.312 220.044 475.944 220.044 475.464C220.044 474.984 220.321 474.621 220.876 474.376C221.431 474.12 222.225 473.992 223.26 473.992C224.295 473.992 225.089 474.12 225.644 474.376C226.209 474.621 226.492 474.984 226.492 475.464C226.492 475.944 226.209 476.312 225.644 476.568C225.089 476.813 224.295 476.936 223.26 476.936ZM246.741 468.52H244.757V463.8H243.109V474.84H244.757V469.88H246.741V468.52ZM242.373 472.216L242.261 471.016C241.685 471.101 241.087 471.171 240.469 471.224C239.861 471.277 239.247 471.325 238.629 471.368V470.12C239.034 470.056 239.402 469.944 239.733 469.784C240.074 469.613 240.362 469.405 240.597 469.16C240.842 468.915 241.029 468.632 241.157 468.312C241.285 467.992 241.349 467.651 241.349 467.288C241.349 466.861 241.258 466.472 241.077 466.12C240.906 465.768 240.661 465.464 240.341 465.208C240.031 464.952 239.658 464.755 239.221 464.616C238.783 464.477 238.303 464.408 237.781 464.408C237.258 464.408 236.778 464.477 236.341 464.616C235.903 464.755 235.525 464.952 235.205 465.208C234.885 465.464 234.634 465.768 234.453 466.12C234.282 466.472 234.197 466.861 234.197 467.288C234.197 467.651 234.261 467.992 234.389 468.312C234.527 468.632 234.719 468.915 234.965 469.16C235.21 469.405 235.503 469.613 235.845 469.784C236.186 469.944 236.565 470.056 236.981 470.12V471.432C236.33 471.453 235.701 471.469 235.093 471.48C234.495 471.48 233.935 471.48 233.413 471.48L233.621 472.824C234.229 472.824 234.885 472.819 235.589 472.808C236.293 472.797 237.023 472.771 237.781 472.728C238.538 472.685 239.306 472.627 240.085 472.552C240.863 472.467 241.626 472.355 242.373 472.216ZM235.733 467.288C235.733 466.776 235.919 466.376 236.293 466.088C236.677 465.8 237.173 465.656 237.781 465.656C238.389 465.656 238.879 465.8 239.253 466.088C239.626 466.376 239.813 466.776 239.813 467.288C239.813 467.8 239.626 468.205 239.253 468.504C238.879 468.792 238.389 468.936 237.781 468.936C237.173 468.936 236.677 468.792 236.293 468.504C235.919 468.205 235.733 467.8 235.733 467.288ZM237.061 476.616V473.896H235.413V477.944H245.253V476.616H237.061ZM260.772 475.176H257.412V472.68H259.54V471.352H250.884V469.352H259.22V464.792H249.236V466.12H257.588V468.04H249.268V472.68H251.188V475.176H247.684V476.536H260.772V475.176ZM252.82 475.176V472.68H255.78V475.176H252.82ZM264.466 473.704L264.786 464.952H262.93L262.978 466.84L263.234 473.704H264.466ZM262.914 477.208H264.802V475.224H262.914V477.208Z" fill="white"/>
<g filter="url(#filter0_d_2127_8100)">
<path d="M0 663C0 651.954 8.95431 643 20 643H355C366.046 643 375 651.954 375 663V761H0V663Z" fill="white"/>
</g>
<path d="M128.458 677.622V675.696H122.122V672.888C125.056 672.546 127.126 670.836 127.126 668.388C127.126 665.598 124.48 663.816 120.934 663.816C117.406 663.816 114.76 665.598 114.76 668.388C114.76 670.836 116.812 672.546 119.746 672.888V675.696H113.446V677.622H128.458ZM117.1 668.388C117.1 666.696 118.666 665.706 120.934 665.706C123.22 665.706 124.786 666.696 124.786 668.388C124.786 670.08 123.22 671.07 120.934 671.07C118.666 671.07 117.1 670.08 117.1 668.388ZM131.499 668.172H142.929V666.3H133.875V663.132H131.499V668.172ZM144.657 671.106V669.234H129.645V671.106H144.657ZM143.361 677.568H133.749V676.524H142.893V672.132H131.337V673.914H140.499V674.85H131.355V679.35H143.361V677.568ZM159.668 679.584V662.952H157.292V679.584H159.668ZM151.172 664.068C148.58 664.068 146.618 665.778 146.618 668.154C146.618 670.53 148.58 672.24 151.172 672.24C153.764 672.24 155.744 670.53 155.744 668.154C155.744 665.778 153.764 664.068 151.172 664.068ZM151.172 666.102C152.468 666.102 153.422 666.858 153.422 668.154C153.422 669.45 152.468 670.206 151.172 670.206C149.876 670.206 148.922 669.45 148.922 668.154C148.922 666.858 149.876 666.102 151.172 666.102ZM145.916 674.292L146.222 676.218C149.084 676.218 152.972 676.182 156.536 675.462L156.392 673.752C152.9 674.274 148.832 674.292 145.916 674.292ZM174.58 672.582L175.66 670.746C172.996 670.026 171.844 668.316 171.844 666.57V666.516H175.12V664.644H171.844V662.916H169.468V664.644H166.228V666.516H169.468V666.57C169.468 668.442 168.316 670.386 165.652 671.142L166.768 672.996C168.712 672.438 169.99 671.25 170.71 669.738C171.484 671.052 172.708 672.078 174.58 672.582ZM177.244 662.97V667.362H174.706V669.288H177.244V674.238H179.62V662.97H177.244ZM175.3 673.554V673.32H172.87V673.554C172.87 675.138 171.088 677.154 167.614 677.64L168.496 679.494C171.178 679.116 173.05 677.892 174.058 676.308C175.066 677.91 176.902 679.116 179.656 679.494L180.52 677.64C176.974 677.154 175.3 675.264 175.3 673.554ZM182.661 672.636H190.491V669.288H193.443V675.21H195.819V662.988H193.443V667.38H190.491V664.086H188.169V666.588H185.019V664.068H182.661V672.636ZM185.019 668.406H188.169V670.746H185.019V668.406ZM196.179 679.26V677.37H187.251V674.022H184.875V679.26H196.179ZM212.719 679.548V662.97H210.505V669.396H209.461V663.24H207.283V674.112C205.645 672.528 205.483 669.864 205.483 667.56V666.696H206.653V664.806H202.801V666.696H203.449V667.56C203.449 669.234 203.431 671.232 202.603 672.87C201.793 671.232 201.775 669.18 201.775 667.56V666.696H202.405V664.806H198.283V666.696H199.741V667.56C199.741 669.918 199.561 672.69 197.743 674.274L199.039 675.858C199.885 675.138 200.407 674.13 200.749 672.96C201.109 674.202 201.685 675.282 202.603 676.056C203.539 675.282 204.115 674.202 204.457 672.978C204.799 674.13 205.321 675.138 206.167 675.858L207.283 674.49V678.792H209.461V671.286H210.505V679.548H212.719ZM222.592 664.68H218.938V678H222.736C226.66 678 229.18 675.75 229.18 671.286C229.18 666.768 226.66 664.68 222.592 664.68ZM222.43 675.858H221.602V666.804H222.43C224.932 666.804 226.462 668.028 226.462 671.286C226.462 674.526 224.932 675.858 222.43 675.858ZM235.424 678.252C237.944 678.252 240.266 676.29 240.266 672.978C240.266 669.612 237.944 667.668 235.424 667.668C232.904 667.668 230.582 669.612 230.582 672.978C230.582 676.29 232.904 678.252 235.424 678.252ZM235.424 676.092C234.056 676.092 233.282 674.868 233.282 672.978C233.282 671.034 234.056 669.828 235.424 669.828C236.792 669.828 237.566 671.034 237.566 672.978C237.566 674.868 236.792 676.092 235.424 676.092ZM244.279 667.92H242.119V678H244.747V671.07C245.521 670.332 246.007 669.936 246.853 669.936C247.861 669.936 248.275 670.476 248.275 672.042V678H250.921V671.718C250.921 669.18 249.985 667.668 247.807 667.668C246.439 667.668 245.413 668.388 244.531 669.252H244.459L244.279 667.92ZM257.665 678.252C258.961 678.252 260.185 677.838 261.193 677.136L260.293 675.516C259.573 675.966 258.871 676.218 258.025 676.218C256.513 676.218 255.451 675.354 255.235 673.698H261.445C261.517 673.464 261.571 672.978 261.571 672.492C261.571 669.702 260.131 667.668 257.359 667.668C254.965 667.668 252.661 669.72 252.661 672.978C252.661 676.29 254.857 678.252 257.665 678.252ZM259.303 671.952H255.199C255.397 670.494 256.333 669.72 257.395 669.72C258.691 669.72 259.303 670.584 259.303 671.952Z" fill="black"/>
<rect x="50" y="702" width="305" height="44" rx="15" fill="#FAFAFA"/>
<path d="M77.144 720.824V719.464H75.096V715.768H73.448V724.488H75.096V720.824H77.144ZM71.464 723.912L72.312 722.648C70.088 721.928 68.888 720.136 68.888 718.312V718.056H71.912V716.712H64.152V718.056H67.224V718.312C67.224 720.28 65.96 722.136 63.672 722.904L64.536 724.2C66.264 723.608 67.432 722.44 68.072 720.904C68.696 722.312 69.848 723.384 71.464 723.912ZM65.592 725.192V726.52H73.448V730.232H75.096V725.192H65.592ZM84.7428 722.104C87.8628 722.104 89.8948 721 89.8948 719.16C89.8948 717.32 87.8628 716.232 84.7428 716.232C81.6228 716.232 79.5908 717.32 79.5908 719.16C79.5908 721 81.6228 722.104 84.7428 722.104ZM84.7428 717.56C86.8708 717.56 88.1828 718.136 88.1828 719.16C88.1828 720.184 86.8708 720.776 84.7428 720.776C82.6148 720.776 81.2868 720.184 81.2868 719.16C81.2868 718.136 82.6148 717.56 84.7428 717.56ZM91.2708 723.272H78.1988V724.616H91.2708V723.272ZM81.5108 728.616V725.752H79.8468V729.96H89.8148V728.616H81.5108ZM104.518 723.112V715.768H102.87V723.112H104.518ZM100.47 719.512C100.47 717.592 98.8535 716.248 96.6615 716.248C94.5015 716.248 92.8855 717.592 92.8855 719.512C92.8855 721.416 94.5015 722.76 96.6615 722.76C98.8535 722.76 100.47 721.416 100.47 719.512ZM94.4855 719.512C94.4855 718.36 95.4295 717.608 96.6615 717.608C97.9255 717.608 98.8695 718.36 98.8695 719.512C98.8695 720.664 97.9255 721.416 96.6615 721.416C95.4295 721.416 94.4855 720.664 94.4855 719.512ZM104.95 728.76H96.6935V727.48H104.518V723.768H95.0455V725.064H102.886V726.264H95.0775V730.056H104.95V728.76ZM120.1 727.144H114.356V723.736H118.628V722.408H110.26V718.2H118.5V716.872H108.612V723.736H112.708V727.144H107.012V728.504H120.1V727.144ZM134.013 726.344V721.592H135.405V726.728H136.973V715.784H135.405V720.248H134.013V716.056H132.477V726.344H134.013ZM129.469 721.784L131.005 721.928C131.309 720.2 131.309 718.872 131.309 717.848V716.888H125.245V718.232H129.773C129.773 719.144 129.741 720.248 129.469 721.784ZM131.933 723.976L131.837 722.792C130.749 722.936 129.517 723 128.285 723.064V720.2H126.781V723.112C125.933 723.128 125.149 723.128 124.509 723.128L124.685 724.472C126.605 724.472 129.597 724.408 131.933 723.976ZM137.357 728.616H128.653V725.624H126.989V729.96H137.357V728.616ZM146.956 723.016L147.628 721.768C145.468 721.304 144.156 719.992 144.156 718.6V718.488H147.196V717.16H144.172V715.72H142.508V717.16H139.468V718.488H142.508V718.6C142.508 720.2 141.212 721.608 138.988 722.168L139.708 723.432C141.516 722.984 142.748 722.008 143.404 720.664C144.06 721.816 145.276 722.648 146.956 723.016ZM152.396 718.936H150.348V715.768H148.7V723.192H150.348V720.296H152.396V718.936ZM148.844 724.696V723.512H147.244V724.696H144.412V725.896H151.66V724.696H148.844ZM142.06 728.6V724.488H140.46V729.96H141.212C142.38 729.96 143.596 729.88 144.94 729.448L144.668 728.136C143.772 728.44 142.892 728.552 142.06 728.6ZM148.044 726.344C146.444 726.344 145.308 727.112 145.308 728.28C145.308 729.48 146.444 730.232 148.044 730.232C149.644 730.232 150.764 729.48 150.764 728.28C150.764 727.112 149.644 726.344 148.044 726.344ZM148.044 729.112C147.324 729.112 146.796 728.808 146.796 728.28C146.796 727.768 147.324 727.464 148.044 727.464C148.748 727.464 149.276 727.768 149.276 728.28C149.276 728.808 148.748 729.112 148.044 729.112ZM166.907 722.792V721.432H164.651V715.784H163.003V730.248H164.651V722.792H166.907ZM157.307 716.84C155.147 716.84 153.595 718.824 153.595 721.944C153.595 725.064 155.147 727.032 157.307 727.032C159.467 727.032 161.019 725.064 161.019 721.944C161.019 718.824 159.467 716.84 157.307 716.84ZM157.307 725.56C156.027 725.56 155.179 724.2 155.179 721.944C155.179 719.688 156.027 718.328 157.307 718.328C158.587 718.328 159.435 719.688 159.435 721.944C159.435 724.2 158.587 725.56 157.307 725.56ZM180.953 727.112H177.865V723.352C179.017 722.696 179.705 721.672 179.705 720.392C179.705 718.088 177.465 716.616 174.393 716.616C171.305 716.616 169.081 718.088 169.081 720.392C169.081 721.672 169.769 722.712 170.921 723.352V727.112H167.865V728.456H180.953V727.112ZM174.393 717.912C176.569 717.912 178.089 718.872 178.089 720.392C178.089 721.928 176.569 722.888 174.393 722.888C172.201 722.888 170.681 721.928 170.681 720.392C170.681 718.872 172.201 717.912 174.393 717.912ZM172.569 727.112V723.976C173.129 724.104 173.737 724.168 174.393 724.168C175.033 724.168 175.657 724.104 176.217 723.96V727.112H172.569ZM182.376 726.968L181.768 730.296H183.24L184.264 726.968H182.376ZM200.864 715.784H199.216V720.856H197.008V722.264H199.216V730.232H200.864V715.784ZM196.08 719.896V717.016H194.496V719.896C194.496 721.48 194.32 723.512 193.296 724.952C192.288 723.48 192.08 721.432 192.08 719.896V717.016H190.528V719.896C190.528 721.96 190.16 724.456 188.368 725.816L189.44 726.968C190.4 726.216 190.976 725.064 191.312 723.768C191.648 725.128 192.272 726.36 193.296 727.144C194.336 726.36 194.928 725.16 195.296 723.752C195.632 725.096 196.208 726.264 197.232 727.016L198.24 725.816C196.448 724.456 196.08 721.992 196.08 719.896ZM216.127 727.112H210.383V724.2H214.623V716.744H212.991V719.176H206.143V716.744H204.511V724.2H208.735V727.112H203.039V728.472H216.127V727.112ZM206.143 722.872V720.504H212.991V722.872H206.143ZM229.773 715.784H228.205V730.232H229.773V715.784ZM225.261 716.056V720.84H223.133V722.184H225.261V729.56H226.813V716.056H225.261ZM221.869 719.64V717.112H220.269V719.72C220.269 722.184 219.277 724.76 217.229 725.992L218.237 727.24C219.645 726.392 220.573 724.904 221.085 723.096C221.581 724.712 222.413 726.104 223.757 726.92L224.685 725.64C222.749 724.392 221.869 721.992 221.869 719.64ZM244.924 727.112H241.836V723.352C242.988 722.696 243.676 721.672 243.676 720.392C243.676 718.088 241.436 716.616 238.364 716.616C235.276 716.616 233.052 718.088 233.052 720.392C233.052 721.672 233.74 722.712 234.892 723.352V727.112H231.836V728.456H244.924V727.112ZM238.364 717.912C240.54 717.912 242.06 718.872 242.06 720.392C242.06 721.928 240.54 722.888 238.364 722.888C236.172 722.888 234.652 721.928 234.652 720.392C234.652 718.872 236.172 717.912 238.364 717.912ZM236.54 727.112V723.976C237.1 724.104 237.708 724.168 238.364 724.168C239.004 724.168 239.628 724.104 240.188 723.96V727.112H236.54ZM248.779 725.704L249.099 716.952H247.243L247.291 718.84L247.547 725.704H248.779ZM247.227 729.208H249.115V727.224H247.227V729.208Z" fill="#CCCCCC"/>
<path d="M315.347 476.54C314.541 476.348 313.732 476.847 313.541 477.653L310.425 490.788C310.234 491.594 310.732 492.403 311.538 492.594C312.344 492.785 313.153 492.287 313.344 491.481L316.114 479.805L327.79 482.574C328.596 482.766 329.404 482.267 329.596 481.461C329.787 480.655 329.288 479.847 328.482 479.655L315.347 476.54ZM351.382 723.082C375.083 666.856 366.226 605.319 351.558 557.993C344.217 534.308 335.404 514.126 328.426 499.863C324.936 492.731 321.904 487.076 319.742 483.201C318.661 481.263 317.797 479.77 317.203 478.759C316.905 478.254 316.675 477.869 316.519 477.61C316.441 477.48 316.381 477.382 316.341 477.315C316.32 477.282 316.305 477.257 316.294 477.239C316.289 477.231 316.285 477.224 316.282 477.22C316.281 477.217 316.279 477.215 316.279 477.214C316.278 477.213 316.277 477.212 315.001 477.999C313.724 478.786 313.724 478.786 313.724 478.787C313.725 478.788 313.725 478.789 313.726 478.791C313.729 478.794 313.732 478.8 313.737 478.807C313.746 478.823 313.76 478.846 313.779 478.877C313.817 478.939 313.874 479.033 313.95 479.158C314.101 479.409 314.325 479.785 314.617 480.281C315.201 481.273 316.053 482.746 317.122 484.663C319.261 488.496 322.268 494.103 325.731 501.182C332.659 515.342 341.408 535.378 348.693 558.881C363.275 605.93 371.917 666.643 348.618 721.917L351.382 723.082Z" fill="#0066FF"/>
<path d="M326.8 726.52H328.56L328.02 731H329.3L329.86 726.52H332.62L332.08 731H333.38L333.92 726.52H335.98V725.16H334.08L334.5 721.84H336.42V720.48H334.66L335.14 716.48H333.88L333.36 720.48H330.6L331.08 716.48H329.8L329.3 720.48H327.24V721.84H329.14L328.72 725.16H326.8V726.52ZM333.2 721.84L332.78 725.16H330.02L330.42 721.84H333.2Z" fill="white"/>
<rect x="20.4" y="712.4" width="9.62117" height="9.62117" rx="1.6" stroke="#0066FF" stroke-width="0.8"/>
<rect x="31.9779" y="712.4" width="9.62117" height="9.62117" rx="1.6" stroke="#0066FF" stroke-width="0.8"/>
<rect x="20.4" y="723.979" width="9.62117" height="9.62117" rx="1.6" stroke="#0066FF" stroke-width="0.8"/>
<rect x="31.9779" y="723.979" width="9.62117" height="9.62117" rx="1.6" stroke="#0066FF" stroke-width="0.8"/>
<path d="M43.6704 598.056C43.1496 597.412 42.2051 597.312 41.5609 597.833L31.0618 606.319C30.4175 606.84 30.3174 607.784 30.8381 608.428C31.3589 609.073 32.3034 609.173 32.9476 608.652L42.2802 601.109L49.8236 610.441C50.3444 611.085 51.2889 611.186 51.9331 610.665C52.5774 610.144 52.6775 609.2 52.1568 608.555L43.6704 598.056ZM32.493 707.658L43.9954 599.157L41.0122 598.841L29.5097 707.342L32.493 707.658Z" fill="#0066FF"/>
<defs>
<filter id="filter0_d_2127_8100" x="-100" y="563" width="535" height="278" filterUnits="userSpaceOnUse" color-interpolation-filters="sRGB">
<feFlood flood-opacity="0" result="BackgroundImageFix"/>
<feColorMatrix in="SourceAlpha" type="matrix" values="0 0 0 0 0 0 0 0 0 0 0 0 0 0 0 0 0 0 127 0" result="hardAlpha"/>
<feOffset dx="-20"/>
<feGaussianBlur stdDeviation="40"/>
<feComposite in2="hardAlpha" operator="out"/>
<feColorMatrix type="matrix" values="0 0 0 0 0 0 0 0 0 0 0 0 0 0 0 0 0 0 0.12 0"/>
<feBlend mode="normal" in2="BackgroundImageFix" result="effect1_dropShadow_2127_8100"/>
<feBlend mode="normal" in="SourceGraphic" in2="effect1_dropShadow_2127_8100" result="shape"/>
</filter>
</defs>
</svg>
