<svg width="30" height="30" viewBox="0 0 30 30" fill="none" xmlns="http://www.w3.org/2000/svg">
<path d="M30 15C30 16.9068 27.7869 18.3553 27.1004 20.0117C26.3879 21.7278 26.9002 24.3127 25.6068 25.6049C24.3133 26.897 21.7297 26.386 20.0136 27.0985C18.3553 27.7869 16.9068 30 15 30C13.0932 30 11.6447 27.7869 9.98835 27.1004C8.27225 26.3879 5.68729 26.9002 4.39513 25.6068C3.10297 24.3133 3.61398 21.7297 2.90148 20.0136C2.21314 18.3553 0 16.9068 0 15C0 13.0932 2.21314 11.6447 2.89958 9.98835C3.61208 8.27225 3.09979 5.68729 4.39322 4.39513C5.68665 3.10297 8.27034 3.61398 9.98644 2.90148C11.6447 2.21314 13.0932 0 15 0C16.9068 0 18.3553 2.21314 20.0117 2.89958C21.7278 3.61208 24.3127 3.09979 25.6049 4.39322C26.897 5.68665 26.386 8.27034 27.0985 9.98644C27.7869 11.6447 30 13.0932 30 15Z" fill="#FF9100"/>
</svg>
