<svg width="374" height="304" viewBox="0 0 374 304" fill="none" xmlns="http://www.w3.org/2000/svg">
<rect width="375" height="304" fill="white"/>
<path d="M260.503 154.652C260.636 157.354 260.649 160.063 260.528 162.762C260.473 164.022 260.383 165.425 260.277 166.599C260.253 166.864 260.231 167.136 260.192 167.399C260.171 167.53 260.138 167.651 260.108 167.779C260.077 167.907 260.126 167.712 260.135 167.696C260.195 167.597 260.298 167.542 260.168 167.645C260.313 167.53 260.491 167.443 260.633 167.344C260.776 167.245 260.706 167.322 260.615 167.344C260.346 167.402 260.815 167.344 260.54 167.344C260.265 167.344 259.911 167.344 259.6 167.344L255.15 167.36C254.446 167.36 253.552 167.811 253.406 168.623C253.375 168.796 253.381 168.973 253.424 169.143C253.467 169.313 253.546 169.47 253.655 169.602C253.764 169.734 253.9 169.839 254.053 169.908C254.206 169.976 254.371 170.007 254.537 169.998L258.835 169.982C259.515 169.982 260.256 170.05 260.924 169.874C261.393 169.766 261.828 169.53 262.186 169.19C262.544 168.851 262.812 168.418 262.964 167.936C263.122 167.267 263.208 166.582 263.221 165.892C263.287 165.16 263.339 164.428 263.384 163.695C263.477 162.203 263.53 160.711 263.544 159.218C263.56 157.513 263.525 155.807 263.438 154.102C263.399 153.315 262.547 152.947 261.897 153.097C261.247 153.248 260.461 153.839 260.503 154.668V154.652Z" fill="black"/>
<path d="M244.841 155.874C245.049 158.95 244.974 162.037 244.619 165.101C244.526 165.881 244.417 166.655 244.298 167.429C244.263 167.707 244.208 167.981 244.134 168.252C244.111 168.326 244.083 168.4 244.051 168.471C244.172 168.262 244.341 168.081 244.545 167.939C244.749 167.798 244.984 167.7 245.233 167.652C245.172 167.652 244.832 167.709 244.893 167.703C243.231 167.836 241.557 167.89 239.896 167.984C239.518 168.015 239.15 168.116 238.813 168.281C238.476 168.446 238.177 168.671 237.933 168.944C237.708 169.2 237.233 170.04 238.001 169.998L242.37 169.751C243.235 169.703 244.041 169.673 244.841 169.324C245.299 169.139 245.711 168.868 246.053 168.528C246.395 168.189 246.66 167.787 246.83 167.348C247.002 166.697 247.121 166.034 247.187 165.366C247.29 164.69 247.377 164.01 247.45 163.327C247.598 161.966 247.689 160.6 247.723 159.229C247.766 157.663 247.733 156.099 247.624 154.537C247.582 153.916 246.515 154.296 246.207 154.452C245.725 154.693 244.806 155.253 244.848 155.874H244.841Z" fill="black"/>
<path d="M302.457 114.558C299.885 119.642 295.348 122.936 289.259 124.14C288.811 124.226 289.686 126.531 290.113 126.448C296.272 125.212 300.853 121.858 303.437 116.69C303.525 116.275 303.414 115.733 303.122 115.154C302.996 114.882 302.623 114.231 302.466 114.549L302.457 114.558Z" fill="black"/>
<path d="M222.161 126.11C216.616 124.801 212.35 121.162 209.752 115.525C209.564 115.11 207.528 116.5 207.71 116.896C210.354 122.594 214.688 126.261 220.317 127.563C220.741 127.551 221.243 127.316 221.736 126.897C221.972 126.71 222.518 126.195 222.171 126.117L222.161 126.11Z" fill="black"/>
<path d="M290.058 102.34C292.203 106.991 287.308 113.363 287.527 118.193C287.748 123.201 293.114 129.107 291.456 133.755C289.798 138.403 281.942 139.446 278.61 143.147C275.399 146.717 275.13 154.79 270.545 156.969C265.96 159.149 259.68 154.18 254.918 154.401C249.985 154.626 244.16 160.07 239.579 158.388C234.997 156.706 233.969 148.736 230.321 145.356C226.802 142.098 218.845 141.825 216.715 137.174C214.586 132.522 219.462 126.151 219.247 121.32C219.025 116.312 213.659 110.406 215.317 105.758C216.975 101.11 224.831 100.067 228.163 96.3661C231.374 92.7967 231.643 84.7237 236.228 82.5474C240.813 80.3711 247.093 85.3336 251.855 85.1153C256.791 84.8907 262.613 79.4467 267.194 81.1286C271.776 82.8106 272.804 90.7808 276.452 94.1609C279.952 97.4157 287.909 97.6886 290.058 102.34Z" fill="#FFB800"/>
<path d="M257.981 112.112C258.104 112.26 258.423 113.298 258.824 113.12C259.571 112.787 259.797 111.613 259.426 110.961C258.496 109.326 258.118 111.681 258.005 111.941" stroke="black" stroke-width="2" stroke-linecap="round"/>
<path d="M245.531 112.112C245.654 112.26 245.973 113.298 246.374 113.12C247.121 112.787 247.346 111.613 246.976 110.961C246.046 109.326 245.668 111.681 245.555 111.941" stroke="black" stroke-width="2" stroke-linecap="round"/>
<path d="M256.92 83.7862C254.207 85.2498 252.319 85.8415 249.67 85.8415C246.045 85.8415 245.767 81.0771 237.402 82.4317C229.037 83.7862 231.546 98.6284 220.739 100.769C219.134 101.132 214.259 104.596 215.095 110.847C215.695 113.597 216.878 116.96 218.639 118.861C219.866 120.185 219.244 124.812 218.536 126.256L218.511 126.308C216.867 129.657 214.289 134.911 216.489 138.694C217.328 140.136 218.639 140.968 220.393 141.536C222.147 142.104 224.271 143.215 225.133 143.583C228.231 144.904 229.762 145.226 231.825 147.503C234.395 150.34 234.139 155.593 237.402 158.017C241.383 160.974 242.552 159.855 247.161 158.017C249.874 156.935 250.465 155.763 253.016 154.607C253.63 154.329 256.91 154.168 257.478 154.891C258.813 156.593 260.266 157.164 264.727 157.449C268.352 158.32 272.857 156.163 273.65 155.175C276.329 151.838 276.733 150.317 276.175 145.009C275.634 139.861 283.073 139.661 287.216 138.126C290.195 137.022 291.774 135.037 291.774 131.875C291.774 130.1 290.5 129.059 290.015 127.328C289.642 126 287.216 123.301 287.216 121.555C287.216 118.795 286.732 119.102 287.216 115.962C287.642 113.19 290.015 109.027 290.015 106.301C290.015 103.066 287.464 100.081 284.245 98.3443C281.497 96.8613 277.553 97.8076 274.765 94.6503C269.746 88.9672 274.207 83.7862 265.842 81.0109C261.102 80.1584 259.957 82.1473 256.92 83.7862Z" stroke="black" stroke-width="2" stroke-linecap="round"/>
<path d="M202.831 101.23C204.379 101.717 203.666 104.007 204.379 103.595C205.293 103.595 208.073 103.524 208.073 104.281C208.073 104.628 207.904 106.065 208.315 105.825C208.935 105.463 209.378 105.909 210.069 105.987C211.515 106.152 209.877 107.746 210.722 108.609C211.146 109.043 211.959 108.531 212.363 109.181C213.049 110.282 212.705 112.884 212.102 113.985C211.802 114.533 211.543 115.096 211.132 115.568C210.949 115.779 211.203 116.388 210.927 116.388C210.912 116.388 209.532 116.413 209.324 116.39C209.515 116.48 210.663 117.194 210.707 117.247C210.975 117.576 210.598 117.997 210.516 118.39C210.091 120.439 208.972 120.79 207.084 120.754C206.465 120.742 205.885 120.671 205.293 120.487C205.152 120.443 204.987 120.209 204.883 120.315C204.841 120.358 204.85 120.871 204.845 120.906C204.748 121.612 204.557 122.302 204.304 122.965C203.704 124.544 202.68 125.593 201.441 126.664C200.539 127.444 197.994 126.931 196.88 126.931C195.113 126.931 195.099 126.06 194.044 124.786C193.478 124.103 193.386 124.144 192.757 124.739C192.061 125.397 191.227 125.73 190.276 125.73C189.514 125.73 189.307 125.358 189.017 124.672C188.858 124.296 188.464 121.898 188.168 121.812C188.016 121.767 187.832 122.169 187.72 122.26C187.578 122.377 187.123 122.305 186.956 122.298C185.102 122.225 186.871 119.087 186.517 117.823C186.42 117.475 184.813 116.948 184.605 116.121C184.416 115.368 184.554 114.376 184.773 113.642C185.005 112.865 185.83 112.519 186.517 112.336C186.673 112.295 187.979 111.672 187.664 111.488C187.409 111.339 186.956 110.616 186.956 110.34C186.956 109.502 187.021 109.102 187.332 108.325C187.912 106.876 188.927 107.017 190.267 106.426C190.529 106.31 192.041 105.892 191.824 105.616C191.777 105.554 191.624 105.217 191.619 105.139C191.58 104.458 192.202 103.905 192.627 103.423C193.036 102.957 193.682 102.568 194.372 102.568C195.856 102.568 196.625 101.992 198.661 103.499C199.141 103.714 199.067 103.454 199.16 103.144C199.312 102.641 199.894 102.001 200.247 101.64C200.738 101.138 202.146 101.015 202.831 101.23Z" fill="#FFFACE"/>
<path d="M204.379 103.595C203.666 104.007 204.379 101.717 202.831 101.23C202.146 101.015 200.738 101.138 200.247 101.64C199.894 102.001 199.312 102.641 199.16 103.144C199.067 103.454 199.141 103.714 198.661 103.499C196.625 101.992 195.856 102.568 194.372 102.568C193.682 102.568 193.036 102.957 192.627 103.423C192.202 103.905 191.58 104.458 191.619 105.139C191.624 105.217 191.777 105.554 191.824 105.616C192.041 105.892 190.529 106.31 190.267 106.426C188.927 107.017 187.912 106.876 187.332 108.325C187.021 109.102 186.956 109.502 186.956 110.34C186.956 110.616 187.409 111.339 187.664 111.488C187.979 111.672 186.673 112.295 186.517 112.336C185.83 112.519 185.005 112.865 184.773 113.642C184.554 114.376 184.416 115.368 184.605 116.121C184.813 116.948 186.42 117.475 186.517 117.823C186.871 119.087 185.102 122.225 186.956 122.298C187.123 122.305 187.578 122.377 187.72 122.26C187.832 122.169 188.016 121.767 188.168 121.812C188.464 121.898 188.858 124.296 189.017 124.672C189.307 125.358 189.514 125.73 190.276 125.73C191.227 125.73 192.061 125.397 192.757 124.739C193.386 124.144 193.478 124.103 194.044 124.786C195.099 126.06 195.113 126.931 196.88 126.931C197.994 126.931 200.539 127.444 201.441 126.664C202.68 125.593 203.704 124.544 204.304 122.965C204.557 122.302 204.748 121.612 204.845 120.906C204.85 120.871 204.841 120.358 204.883 120.315C204.987 120.209 205.152 120.443 205.293 120.487C205.885 120.671 206.465 120.742 207.084 120.754C208.972 120.79 210.091 120.439 210.516 118.39C210.598 117.997 210.975 117.576 210.707 117.247C210.658 117.188 209.257 116.32 209.299 116.384C209.32 116.417 210.911 116.388 210.927 116.388C211.203 116.388 210.949 115.779 211.132 115.568C211.543 115.096 211.802 114.533 212.102 113.985C212.705 112.884 213.049 110.282 212.363 109.181C211.959 108.531 211.146 109.043 210.722 108.609C209.877 107.746 211.515 106.152 210.069 105.987C209.378 105.909 208.935 105.463 208.315 105.825C207.904 106.065 208.073 104.628 208.073 104.281C208.073 103.524 205.293 103.595 204.379 103.595Z" stroke="black" stroke-width="2" stroke-linecap="round"/>
<path d="M301.684 103.489C300.136 103.976 300.849 106.266 300.136 105.853C299.222 105.853 296.442 105.782 296.442 106.539C296.442 106.886 296.611 108.324 296.2 108.084C295.58 107.721 295.137 108.167 294.446 108.246C293.001 108.41 294.638 110.004 293.794 110.867C293.369 111.301 292.557 110.789 292.152 111.439C291.466 112.54 291.81 115.142 292.413 116.244C292.713 116.792 292.972 117.354 293.383 117.826C293.566 118.037 293.312 118.646 293.588 118.646C293.603 118.646 294.983 118.671 295.191 118.648C295 118.738 293.852 119.452 293.808 119.506C293.54 119.835 293.917 120.255 293.999 120.648C294.424 122.698 295.543 123.048 297.431 123.012C298.05 123 298.63 122.929 299.222 122.745C299.363 122.701 299.528 122.467 299.632 122.574C299.674 122.616 299.665 123.129 299.67 123.165C299.767 123.87 299.959 124.561 300.211 125.224C300.811 126.803 301.835 127.851 303.074 128.923C303.976 129.702 306.521 129.189 307.635 129.189C309.402 129.189 309.417 128.318 310.471 127.045C311.037 126.361 311.129 126.402 311.758 126.997C312.454 127.656 313.288 127.988 314.239 127.988C315.001 127.988 315.208 127.616 315.498 126.93C315.657 126.554 316.051 124.157 316.347 124.07C316.5 124.026 316.683 124.427 316.795 124.518C316.938 124.635 317.392 124.563 317.56 124.556C319.413 124.484 317.645 121.346 317.998 120.081C318.095 119.733 319.702 119.206 319.91 118.379C320.1 117.626 319.961 116.634 319.742 115.901C319.51 115.123 318.685 114.778 317.998 114.595C317.842 114.553 316.536 113.93 316.851 113.746C317.106 113.597 317.56 112.874 317.56 112.598C317.56 111.76 317.494 111.36 317.183 110.583C316.604 109.135 315.588 109.275 314.248 108.684C313.986 108.569 312.474 108.15 312.691 107.874C312.739 107.813 312.891 107.475 312.896 107.397C312.935 106.716 312.313 106.163 311.889 105.681C311.479 105.216 310.834 104.826 310.143 104.826C308.659 104.826 307.89 104.251 305.854 105.758C305.374 105.972 305.448 105.712 305.355 105.402C305.204 104.899 304.621 104.26 304.268 103.899C303.777 103.397 302.369 103.273 301.684 103.489Z" fill="#FFFACE"/>
<path d="M300.136 105.853C300.849 106.266 300.136 103.976 301.684 103.489C302.369 103.273 303.777 103.397 304.268 103.899C304.621 104.26 305.204 104.899 305.355 105.402C305.448 105.712 305.374 105.972 305.854 105.758C307.89 104.251 308.659 104.826 310.143 104.826C310.834 104.826 311.479 105.216 311.889 105.681C312.313 106.163 312.935 106.716 312.896 107.397C312.891 107.475 312.739 107.813 312.691 107.874C312.474 108.15 313.986 108.569 314.248 108.684C315.588 109.275 316.604 109.135 317.183 110.583C317.494 111.36 317.56 111.76 317.56 112.598C317.56 112.874 317.106 113.597 316.851 113.746C316.536 113.93 317.842 114.553 317.998 114.595C318.685 114.778 319.51 115.123 319.742 115.901C319.961 116.634 320.1 117.626 319.91 118.379C319.702 119.206 318.095 119.733 317.998 120.081C317.645 121.346 319.413 124.484 317.56 124.556C317.392 124.563 316.938 124.635 316.795 124.518C316.683 124.427 316.5 124.026 316.347 124.07C316.051 124.157 315.657 126.554 315.498 126.93C315.208 127.616 315.001 127.988 314.239 127.988C313.288 127.988 312.454 127.656 311.758 126.997C311.129 126.402 311.037 126.361 310.471 127.045C309.417 128.318 309.402 129.189 307.635 129.189C306.521 129.189 303.976 129.702 303.074 128.923C301.835 127.851 300.811 126.803 300.211 125.224C299.959 124.561 299.767 123.87 299.67 123.165C299.665 123.129 299.674 122.616 299.632 122.574C299.528 122.467 299.363 122.701 299.222 122.745C298.63 122.929 298.05 123 297.431 123.012C295.543 123.048 294.424 122.698 293.999 120.648C293.917 120.255 293.54 119.835 293.808 119.506C293.857 119.446 295.259 118.578 295.217 118.642C295.195 118.675 293.604 118.646 293.588 118.646C293.312 118.646 293.566 118.037 293.383 117.826C292.972 117.354 292.713 116.792 292.413 116.244C291.81 115.142 291.466 112.54 292.152 111.439C292.557 110.789 293.369 111.301 293.794 110.867C294.638 110.004 293.001 108.41 294.446 108.246C295.137 108.167 295.58 107.721 296.2 108.084C296.611 108.324 296.442 106.886 296.442 106.539C296.442 105.782 299.222 105.853 300.136 105.853Z" stroke="black" stroke-width="2" stroke-linecap="round"/>
<path d="M244.354 122.39C245.86 124.522 247.975 127.599 249.686 129.132C249.737 129.178 249.94 129.355 250.007 129.355C250.216 129.355 250.454 129.184 250.639 129.079C251.25 128.733 251.87 128.42 252.48 128.073C254.725 126.796 256.856 125.107 258.998 123.522C260.124 122.688 263.58 120.104 264.677 119.193" stroke="black" stroke-width="2" stroke-linecap="round"/>
<path d="M203.709 90.9679C203.349 89.117 202.58 87.1913 202.58 85.3228" stroke="black" stroke-width="2" stroke-linecap="round"/>
<path d="M195.806 93.2256C195.332 91.5923 194.019 90.2631 193.548 88.7095" stroke="black" stroke-width="2" stroke-linecap="round"/>
<path d="M190.161 95.484C188.257 95.0835 186.492 94.609 184.516 94.355" stroke="black" stroke-width="2" stroke-linecap="round"/>
<path d="M303.064 97.7421C302.686 96.9825 302.434 95.0591 301.935 94.355" stroke="black" stroke-width="2" stroke-linecap="round"/>
<path d="M308.709 98.8707C308.875 98.4611 310.523 94.3292 310.967 93.2256" stroke="black" stroke-width="2" stroke-linecap="round"/>
<path d="M314.354 101.129C315.215 100.579 316.565 99.7263 317.742 98.8711" stroke="black" stroke-width="2" stroke-linecap="round"/>
<path d="M231.95 71.8844C230.592 71.5286 228.836 72.0383 228.569 73.3819C228.303 74.7204 230.652 74.9553 231.69 75.0743C232.654 75.1847 233.135 75.3046 233.865 74.6537C234.186 74.3676 234.273 73.7826 234.119 73.4126C233.86 72.7888 232.568 72.1339 231.843 71.9767" stroke="black" stroke-width="2" stroke-linecap="round"/>
<path d="M236.451 68.3872C236.893 71.4406 238.331 74.0044 239.493 76.7161C239.549 76.8457 239.729 77.7044 239.838 77.3222" stroke="black" stroke-width="2" stroke-linecap="round"/>
<path d="M237.58 72.9034C238.816 72.6975 240.033 72.4843 241.229 72.0985C241.403 72.0423 242.009 71.948 242.096 71.7744" stroke="black" stroke-width="2" stroke-linecap="round"/>
<path d="M246.612 65.2119C248.291 65.1701 250.009 65.23 251.683 65.0838C251.78 65.0753 251.965 65.062 252.064 65.0222C252.508 64.8428 252.056 65.8079 252.001 65.9139C251.543 66.8048 250.434 67.1573 249.996 68.0104C249.938 68.1229 249.714 68.5902 249.714 68.2856" stroke="black" stroke-width="2" stroke-linecap="round"/>
<path d="M251.128 67.2583C252.228 67.6731 253.507 67.9 254.516 68.3873" stroke="black" stroke-width="2" stroke-linecap="round"/>
<path d="M252.223 70.645C252.223 71.333 251.693 71.7741 252.258 72.9031" stroke="black" stroke-width="2" stroke-linecap="round"/>
<path d="M248.871 74.0324C249.89 73.8845 250.918 73.718 251.943 73.6275C252.517 73.5769 253.064 73.287 253.651 73.2169C254.315 73.1376 254.968 72.9033 255.645 72.9033" stroke="black" stroke-width="2" stroke-linecap="round"/>
<path d="M257.918 65C257.767 68.2518 258.808 71.4893 258.808 74.7433C258.808 74.9925 259.312 75.3459 258.808 75.0469" stroke="black" stroke-width="2" stroke-linecap="round"/>
<path d="M259.032 70.645C260.162 70.645 261.287 70.645 262.419 70.645" stroke="black" stroke-width="2" stroke-linecap="round"/>
<path d="M266.935 67.2583C268.037 67.4643 269.13 67.6907 270.247 67.7578C270.905 67.7972 271.955 67.6107 272.556 67.9901C272.684 68.0708 272.271 68.381 272.225 68.4315C270.702 70.1028 269.009 71.4715 267.308 72.9035" stroke="black" stroke-width="2" stroke-linecap="round"/>
<path d="M271.451 70.645C272.181 71.4132 272.872 72.2779 273.709 72.9031" stroke="black" stroke-width="2" stroke-linecap="round"/>
<path d="M270.322 74.0322C270.322 74.1057 270.322 76.331 270.322 76.2891" stroke="black" stroke-width="2" stroke-linecap="round"/>
<path d="M266.935 76.2905C268.197 76.2905 269.317 76.4907 270.525 76.8271C270.918 76.9363 271.256 77.1024 271.661 77.1914C271.991 77.2639 272.3 77.5352 272.58 77.3636" stroke="black" stroke-width="2" stroke-linecap="round"/>
<path d="M279.354 70.645C278.881 71.6237 278.538 72.664 278.138 73.6878C277.895 74.3096 277.577 74.8775 277.341 75.5028C277.007 76.3887 276.627 77.2766 276.379 78.2039C276.253 78.6757 275.967 79.1773 275.967 79.6773" stroke="black" stroke-width="2" stroke-linecap="round"/>
<path d="M278.225 75.1611C278.821 75.1611 279.469 75.1611 280.13 75.1611C280.287 75.1611 280.366 75.1611 280.483 75.1611" stroke="black" stroke-width="2" stroke-linecap="round"/>
<path d="M289.516 76.2905C287.846 76.9768 286.312 77.9349 284.937 79.0456C284.602 79.3157 284.262 79.497 283.871 79.6776" stroke="black" stroke-width="2" stroke-linecap="round"/>
<path d="M281.612 81.9355C280.88 82.1159 280.506 82.2044 280.506 82.6624C280.506 82.7564 280.38 83.1359 280.727 83.0528C281.047 82.9761 281.289 82.7087 281.391 82.5413" stroke="black" stroke-width="2" stroke-linecap="round"/>
<path d="M123.538 99.2466C123.682 102.011 123.695 104.781 123.564 107.542C123.506 108.831 123.408 110.267 123.294 111.468C123.267 111.739 123.245 112.017 123.202 112.286C123.179 112.42 123.143 112.544 123.111 112.675C123.078 112.806 123.13 112.606 123.14 112.59C123.205 112.488 123.316 112.433 123.176 112.537C123.333 112.42 123.525 112.331 123.679 112.23C123.832 112.129 123.757 112.207 123.659 112.23C123.369 112.289 123.874 112.23 123.577 112.23C123.281 112.23 122.899 112.23 122.562 112.23L117.758 112.246C116.998 112.246 116.032 112.708 115.875 113.538C115.841 113.715 115.848 113.897 115.895 114.07C115.941 114.244 116.026 114.404 116.144 114.54C116.262 114.675 116.408 114.782 116.573 114.852C116.738 114.923 116.917 114.954 117.096 114.945L121.737 114.929C122.471 114.929 123.271 114.997 123.992 114.818C124.499 114.707 124.969 114.466 125.355 114.118C125.741 113.771 126.031 113.329 126.195 112.835C126.366 112.151 126.459 111.45 126.472 110.745C126.544 109.996 126.6 109.247 126.649 108.498C126.749 106.971 126.806 105.444 126.822 103.918C126.839 102.173 126.801 100.429 126.707 98.6839C126.665 97.8792 125.745 97.5031 125.043 97.6568C124.341 97.8106 123.493 98.4157 123.538 99.2629V99.2466Z" fill="black"/>
<path d="M107.114 99.9809C107.326 103.24 107.25 106.511 106.887 109.757C106.791 110.584 106.68 111.404 106.558 112.224C106.522 112.517 106.466 112.808 106.39 113.095C106.367 113.174 106.338 113.252 106.305 113.328C106.429 113.106 106.602 112.914 106.811 112.764C107.02 112.614 107.26 112.51 107.514 112.46C107.452 112.46 107.104 112.52 107.166 112.514C105.467 112.654 103.755 112.712 102.055 112.811C101.668 112.844 101.291 112.951 100.947 113.126C100.602 113.3 100.297 113.539 100.047 113.828C99.817 114.1 99.3306 114.99 100.116 114.945L104.586 114.684C105.47 114.633 106.295 114.601 107.114 114.23C107.582 114.035 108.004 113.748 108.353 113.388C108.703 113.028 108.974 112.602 109.148 112.137C109.324 111.448 109.446 110.746 109.513 110.038C109.618 109.321 109.708 108.601 109.782 107.878C109.934 106.436 110.027 104.988 110.062 103.535C110.105 101.876 110.072 100.219 109.96 98.5643C109.917 97.907 108.826 98.309 108.51 98.4749C108.017 98.7302 107.077 99.3236 107.12 99.9809H107.114Z" fill="black"/>
<path d="M82.9412 72.7304C77.243 71.3855 72.8595 67.6458 70.1897 61.852C69.9962 61.4256 67.9042 62.8545 68.0906 63.2617C70.8075 69.117 75.262 72.8855 81.047 74.223C81.4826 74.2109 81.9978 73.9692 82.5052 73.5388C82.7475 73.3473 83.3081 72.8179 82.9522 72.7373L82.9412 72.7304Z" fill="black"/>
<path d="M151.42 72.7304C157.118 71.3855 161.502 67.6458 164.172 61.852C164.365 61.4256 166.457 62.8545 166.271 63.2617C163.554 69.117 159.099 72.8855 153.314 74.223C152.879 74.2109 152.363 73.9692 151.856 73.5388C151.614 73.3473 151.053 72.8179 151.409 72.7373L151.42 72.7304Z" fill="black"/>
<path d="M153.927 45.736C156.137 50.4937 151.094 57.0114 151.319 61.953C151.547 67.0753 157.076 73.1168 155.368 77.8713C153.66 82.6257 145.564 83.6929 142.131 87.4787C138.822 91.1299 138.545 99.3878 133.82 101.617C129.096 103.847 122.624 98.764 117.718 98.9905C112.635 99.2204 106.632 104.789 101.911 103.069C97.1904 101.348 96.1308 93.1952 92.3716 89.7377C88.7461 86.405 80.5463 86.1259 78.3521 81.3682C76.1579 76.6104 81.1821 70.0928 80.9604 65.1511C80.7322 60.0289 75.2026 53.9873 76.9111 49.2329C78.6195 44.4784 86.7149 43.4113 90.148 39.6255C93.4573 35.9743 93.7344 27.7163 98.4587 25.4901C103.183 23.264 109.655 28.3402 114.562 28.1169C119.648 27.8871 125.647 22.3183 130.368 24.0389C135.089 25.7594 136.148 33.9122 139.907 37.3697C143.513 40.6992 151.713 40.9783 153.927 45.736Z" fill="#FFB800"/>
<path d="M110.327 63.6933C112.518 63.3427 114.727 62.9901 116.929 62.7359C117.547 62.6647 119.97 61.9399 119.801 62.868C119.342 65.3944 118.46 67.541 117.502 69.9063C117.306 70.3912 116.025 73.3638 115.51 73.0356C114.994 72.7075 113.39 70.2246 112.883 69.0401C112.564 68.2954 110.84 64.7488 110.284 64.1318" stroke="black" stroke-width="2" stroke-linecap="round"/>
<path d="M120.105 26.8186C117.296 28.3057 115.341 28.9069 112.598 28.9069C108.845 28.9069 108.556 24.0658 99.894 25.4422C91.2322 26.8186 93.8308 41.8995 82.6396 44.0746C80.978 44.4438 75.9297 47.9628 76.7959 54.3148C77.4167 57.1084 78.6416 60.5262 80.4658 62.4577C81.7363 63.8029 81.0924 68.5042 80.3585 69.972L80.3324 70.0242C78.6307 73.4274 75.9614 78.7656 78.2395 82.61C79.1078 84.0752 80.4658 84.9198 82.2817 85.4973C84.0976 86.0747 86.2974 87.2033 87.1901 87.577C90.3981 88.9199 91.9833 89.2463 94.1195 91.5605C96.7808 94.4436 96.5152 99.7809 99.894 102.243C104.017 105.248 105.227 104.111 109.999 102.243C112.809 101.144 113.421 99.953 116.063 98.7787C116.698 98.4961 120.094 98.3326 120.682 99.0674C122.066 100.796 123.57 101.377 128.189 101.666C131.943 102.552 136.607 100.36 137.428 99.3561C140.203 95.9647 140.621 94.4193 140.043 89.0261C139.483 83.796 147.187 83.5923 151.476 82.0325C154.561 80.9108 156.196 78.8943 156.196 75.6806C156.196 73.8778 154.877 72.8196 154.374 71.0609C153.989 69.7111 151.476 66.9694 151.476 65.1951C151.476 62.3901 150.975 62.7027 151.476 59.5119C151.918 56.695 154.374 52.4657 154.374 49.6952C154.374 46.4085 151.733 43.3753 148.4 41.6108C145.554 40.104 141.471 41.0655 138.583 37.8574C133.386 32.0829 138.006 26.8186 129.344 23.9986C124.436 23.1324 123.25 25.1532 120.105 26.8186Z" stroke="black" stroke-width="2" stroke-linecap="round"/>
<path d="M102.342 59.4127C104.604 59.4127 106.633 58.9337 108.79 58.9337C109.397 58.9337 110.952 58.9055 110.192 59.8561C109.772 60.2754 107.028 63.6627 106.475 64.3618C105.295 65.3552 105.433 66.2765 104.604 65.3552C104.14 64.84 103.467 64.5376 103.007 64.078C102.165 63.2357 101.409 62.3911 100.577 61.5591C100.263 61.2453 99.7972 60.5722 99.6991 60.1311C99.5289 59.365 101.542 59.5461 102.342 59.4127Z" fill="black" stroke="black" stroke-width="2" stroke-linecap="round"/>
<path d="M116.201 59.4127C118.463 59.4127 120.492 58.9337 122.649 58.9337C123.256 58.9337 124.811 58.9055 124.051 59.8561C123.631 60.2754 120.886 63.6627 120.334 64.3618C119.154 65.3552 119.292 66.2765 118.463 65.3552C117.999 64.84 117.326 64.5376 116.866 64.078C116.024 63.2357 115.268 62.3911 114.436 61.5591C114.122 61.2453 113.656 60.5722 113.558 60.1311C113.388 59.365 115.401 59.5461 116.201 59.4127Z" fill="black" stroke="black" stroke-width="2" stroke-linecap="round"/>
<path d="M109.665 60.8453C111.461 60.4002 113.342 60.6618 115.158 60.4063C115.478 60.3612 115.818 60.2939 116.143 60.2939" stroke="black" stroke-width="2" stroke-linecap="round"/>
<path d="M115.854 53.1597C116.475 54.5459 117.181 56.2849 119.205 55.4286C120.357 54.8413 120.935 54.5525 122.26 53.6935" stroke="black" stroke-width="2" stroke-linecap="round"/>
<path d="M103.732 54.5703C104.592 55.8225 105.599 57.4066 107.436 56.2008C108.464 55.4163 108.98 55.0286 110.13 53.9456" stroke="black" stroke-width="2" stroke-linecap="round"/>
<path d="M116.996 16.4574C118.376 12.4289 119.853 8.41083 120.858 4.26783C121.065 3.41776 121.195 2.71737 121.674 2" stroke="black" stroke-width="2" stroke-linecap="round"/>
<path d="M154.204 29.6384C158.823 26.6965 162.825 23.1197 167.173 19.8584" stroke="black" stroke-width="2" stroke-linecap="round"/>
<path d="M169.086 54.5148C172.081 54.166 175.079 53.8316 178.075 53.4872C179.018 53.3788 180.179 53.3428 181.11 53.0266C181.399 52.9286 181.527 52.814 181.843 52.814" stroke="black" stroke-width="2" stroke-linecap="round"/>
<path d="M75.538 34.7416C68.4981 32.7616 66.7714 31.4633 59.8091 29.2354" stroke="black" stroke-width="2" stroke-linecap="round"/>
<path d="M63.8431 58.3408C60.1653 59.2208 56.63 60.4928 53 61.53" stroke="black" stroke-width="2" stroke-linecap="round"/>
<path d="M152.076 98.5244C152.476 100.088 152.8 101.71 153.494 103.178C153.897 104.031 154.559 104.784 154.616 105.753C154.644 106.243 154.417 106.603 154.84 106.391" stroke="black" stroke-width="2" stroke-linecap="round"/>
<path d="M78.5129 98.0996C76.5885 100.011 74.6813 101.931 72.7725 103.84" stroke="black" stroke-width="2" stroke-linecap="round"/>
<path d="M91.6941 17.5218C90.5106 14.7781 89.1031 11.7219 87.4419 9.22998" stroke="black" stroke-width="2" stroke-linecap="round"/>
<path d="M170.26 206.352C172.414 208.026 174.647 209.597 176.953 211.047C178.029 211.726 179.245 212.456 180.28 213.04C180.515 213.172 180.752 213.31 180.993 213.427C181.115 213.484 181.235 213.525 181.359 213.572C181.484 213.62 181.293 213.55 181.274 213.548C181.155 213.544 181.048 213.602 181.212 213.548C181.028 213.608 180.848 213.714 180.68 213.781C180.511 213.848 180.617 213.831 180.691 213.765C180.902 213.563 180.569 213.939 180.737 213.699C180.904 213.459 181.119 213.15 181.309 212.878L184.029 209.003C184.457 208.388 185.374 207.866 186.135 208.208C186.296 208.28 186.44 208.388 186.554 208.523C186.668 208.658 186.75 208.818 186.793 208.989C186.836 209.161 186.84 209.34 186.804 209.513C186.768 209.686 186.693 209.848 186.584 209.988L183.956 213.731C183.543 214.325 183.148 215.01 182.596 215.492C182.22 215.84 181.761 216.084 181.262 216.201C180.764 216.317 180.243 216.302 179.751 216.157C179.102 215.91 178.482 215.59 177.905 215.203C177.258 214.839 176.621 214.462 175.988 214.08C174.697 213.3 173.43 212.487 172.187 211.639C170.767 210.67 169.377 209.656 168.019 208.598C167.392 208.11 167.607 207.154 168.126 206.673C168.646 206.192 169.613 205.847 170.273 206.361L170.26 206.352Z" fill="black"/>
<path d="M157.169 220.58C159.324 222.254 161.557 223.825 163.863 225.275C164.938 225.954 166.155 226.684 167.19 227.268C167.424 227.4 167.662 227.538 167.903 227.655C168.024 227.712 168.145 227.753 168.269 227.8C168.393 227.848 168.203 227.778 168.184 227.776C168.065 227.772 167.958 227.83 168.121 227.776C167.938 227.836 167.758 227.942 167.589 228.009C167.421 228.076 167.527 228.059 167.6 227.993C167.812 227.791 167.479 228.167 167.646 227.927C167.814 227.687 168.029 227.378 168.218 227.106L170.938 223.231C171.367 222.616 172.284 222.094 173.044 222.436C173.206 222.508 173.349 222.616 173.463 222.751C173.577 222.886 173.659 223.046 173.703 223.217C173.746 223.389 173.75 223.568 173.713 223.741C173.677 223.914 173.602 224.076 173.494 224.216L170.866 227.959C170.452 228.553 170.057 229.238 169.505 229.72C169.13 230.068 168.671 230.312 168.172 230.429C167.673 230.545 167.153 230.53 166.661 230.385C166.012 230.138 165.392 229.818 164.814 229.431C164.168 229.067 163.531 228.69 162.898 228.308C161.607 227.528 160.34 226.715 159.097 225.867C157.676 224.898 156.287 223.884 154.929 222.826C154.302 222.338 154.516 221.382 155.036 220.901C155.556 220.42 156.523 220.075 157.182 220.589L157.169 220.58Z" fill="black"/>
<path d="M118.991 230.921C114.922 226.632 113.851 221.025 115.875 214.61C116.026 214.14 113.07 214.206 112.926 214.656C110.898 221.149 112.011 226.82 116.162 231.151C116.561 231.38 117.205 231.458 117.986 231.371C118.348 231.341 119.252 231.198 118.995 230.933L118.991 230.921Z" fill="black"/>
<path d="M167.453 179.699C173.024 178.197 178.577 179.387 183.606 183.161C183.974 183.44 185.119 181.221 184.766 180.955C179.668 177.15 174.04 175.968 168.397 177.518C168.024 177.732 167.691 178.183 167.452 178.794C167.332 179.074 167.094 179.795 167.44 179.699L167.453 179.699Z" fill="black"/>
<path d="M140.449 159.829C145.579 160.541 148.674 167.052 152.994 169.212C157.469 171.454 165.31 170.49 168.529 173.888C171.747 177.286 168.712 183.338 170.265 187.466C171.763 191.445 178.663 195.502 178.261 199.786C177.859 204.07 170.375 206.129 168.178 209.601C165.897 213.195 167.717 219.919 163.951 222.351C160.185 224.784 152.723 221.693 147.946 222.652C143.34 223.578 139.107 229.072 133.985 228.349C128.862 227.626 125.757 221.128 121.439 218.967C116.964 216.725 109.123 217.688 105.904 214.29C102.686 210.892 105.721 204.84 104.168 200.713C102.67 196.733 95.7697 192.677 96.1748 188.394C96.5799 184.111 104.058 182.049 106.258 178.579C108.541 174.983 106.719 168.261 110.485 165.829C114.251 163.396 121.713 166.487 126.49 165.528C131.084 164.613 135.317 159.12 140.449 159.829Z" fill="#FFB800"/>
<path d="M107.853 174.171C107.751 176.794 107.311 178.417 105.974 180.298C104.145 182.872 99.8804 180.804 96.8328 187.389C93.7853 193.974 107.9 199.254 104.3 207.948C103.805 209.26 104.344 214.371 110.177 216.751C112.86 217.633 116.369 218.393 118.903 218.047C120.668 217.805 124.36 220.448 125.253 221.639L125.284 221.681C127.355 224.442 130.602 228.772 134.987 229.01C136.659 229.1 138.04 228.564 139.417 227.589C140.793 226.614 142.827 225.634 143.58 225.196C146.287 223.625 147.337 222.691 150.35 222.309C154.103 221.834 158.52 224.515 162.265 223.351C166.833 221.93 166.454 220.567 167.188 216.42C167.62 213.978 166.904 213.001 167.19 210.639C167.26 210.07 168.775 207.664 169.687 207.605C171.834 207.466 173.062 206.706 175.559 203.673C178.142 201.514 178.547 197.288 178.092 196.255C176.555 192.763 175.442 191.753 170.565 189.624C165.837 187.56 169.416 182.181 170.177 178.508C170.725 175.867 169.803 173.802 167.065 172.297C165.529 171.453 163.985 171.862 162.242 171.383C160.904 171.015 157.344 171.455 155.832 170.624C153.443 169.311 153.465 169.8 150.99 167.963C148.806 166.341 146.4 162.676 144.039 161.379C141.239 159.84 137.368 160.231 134.241 161.691C131.57 162.937 130.4 166.188 126.26 166.666C118.808 167.527 116.574 161.893 109.952 166.514C106.822 169.475 107.966 171.234 107.853 174.171Z" stroke="black" stroke-width="2" stroke-linecap="round"/>
<path d="M128.524 189.374C128.791 189.802 129.402 191.047 130.149 190.715C130.43 190.59 130.914 190.322 130.832 189.954C130.629 189.042 129.253 188.91 128.524 188.91" stroke="black" stroke-width="2" stroke-linecap="round"/>
<path d="M139.896 182.179C141.011 183.049 141.985 183.654 141.985 181.947C141.985 181.205 140.935 181.483 140.36 181.483" stroke="black" stroke-width="2" stroke-linecap="round"/>
<path d="M105.175 154.044C106.24 153.449 107.467 153.084 108.484 152.425C108.547 152.384 110.014 151.407 110.014 151.735C110.014 152.978 109.062 154.353 108.394 155.324C108.012 155.88 107.253 156.569 107.165 157.274C107.133 157.524 107.176 157.543 106.975 157.644" stroke="black" stroke-width="2" stroke-linecap="round"/>
<path d="M108.955 155.484C109.924 155.853 111.002 156.001 112.015 156.204" stroke="black" stroke-width="2" stroke-linecap="round"/>
<path d="M106.973 160.884C110.226 160.293 113.213 159.224 116.332 158.185" stroke="black" stroke-width="2" stroke-linecap="round"/>
<path d="M113.99 159.625C113.834 160.515 113.99 161.574 113.99 162.504" stroke="black" stroke-width="2" stroke-linecap="round"/>
<path d="M117.232 149.905C118.882 149.471 120.547 149.033 122.181 148.546C122.595 148.422 123.891 147.684 123.891 148.506C123.891 149.667 124.037 151.414 123.531 152.425" stroke="black" stroke-width="2" stroke-linecap="round"/>
<path d="M119.03 154.765C122.414 154.336 125.575 153.123 128.749 152.065" stroke="black" stroke-width="2" stroke-linecap="round"/>
<path d="M121.194 157.463C121.194 158.964 120.852 162.167 123.174 161.283C124.537 160.764 126.953 161.268 126.953 159.363C126.953 157.952 126.864 156.923 125.323 156.923C124.146 156.923 123.036 157.283 121.914 157.283" stroke="black" stroke-width="2" stroke-linecap="round"/>
<path d="M144.494 190.686C143.422 191.394 138.784 193.693 138.69 194.752C138.623 195.505 138.42 195.614 139.79 195.881C141.414 196.198 142.982 196.333 144.664 196.333C145.087 196.333 145.984 196.447 146.353 196.308C146.985 196.069 146.244 194.048 146.182 193.635C146.07 192.893 145.985 191.292 144.835 190.911" stroke="black" stroke-width="2" stroke-linecap="round"/>
<path d="M141.578 152.761C143.115 151.596 144.849 149.994 145.981 152.541C146.861 154.52 148.122 153.141 149.723 152.785C151.381 152.417 151.255 156.235 152.585 155.745C155.024 154.847 154.639 155.329 156.548 156.283" stroke="black" stroke-width="2" stroke-linecap="round"/>
<path d="M97.5514 215.282C97.2338 215.825 95.6421 217.695 96.6708 218.266C97.251 218.589 98.6309 219.237 99.2636 219C100.243 218.633 99.7528 219.847 99.7528 220.908C99.7528 223.281 101.287 221.742 103.031 222.376C103.903 222.693 104.242 224.261 104.596 224.969" stroke="black" stroke-width="2" stroke-linecap="round"/>
<path d="M140.697 235.975C142.102 235.667 143.262 234.457 144.464 234.239C145.556 234.04 145.933 235.095 146.861 235.095C148.74 235.095 149.793 234.069 151.264 233.333" stroke="black" stroke-width="2" stroke-linecap="round"/>
</svg>
