<svg width="497" height="385" viewBox="0 0 497 385" fill="none" xmlns="http://www.w3.org/2000/svg">
<path d="M278.315 329.717C278.825 339.45 278.872 349.206 278.408 358.928C278.199 363.466 277.851 368.523 277.445 372.75C277.352 373.706 277.271 374.685 277.12 375.63C277.039 376.102 276.911 376.54 276.795 377.001C276.679 377.461 276.865 376.759 276.9 376.701C277.132 376.344 277.526 376.148 277.027 376.517C277.584 376.102 278.269 375.791 278.814 375.434C279.359 375.077 279.092 375.353 278.744 375.434C277.712 375.641 279.51 375.434 278.454 375.434C277.398 375.434 276.041 375.434 274.846 375.434L257.77 375.492C255.066 375.492 251.633 377.116 251.076 380.041C250.955 380.663 250.979 381.303 251.144 381.913C251.31 382.524 251.613 383.089 252.031 383.567C252.449 384.044 252.971 384.42 253.557 384.668C254.143 384.915 254.778 385.027 255.414 384.995L271.911 384.937C274.521 384.937 277.364 385.179 279.927 384.545C281.73 384.156 283.4 383.308 284.773 382.084C286.146 380.86 287.175 379.303 287.758 377.565C288.365 375.156 288.696 372.687 288.744 370.205C288.999 367.567 289.197 364.929 289.371 362.291C289.726 356.916 289.931 351.541 289.985 346.165C290.047 340.022 289.912 333.879 289.58 327.736C289.429 324.902 286.157 323.578 283.663 324.119C281.169 324.66 278.152 326.791 278.315 329.774V329.717Z" fill="black"/>
<path d="M220.44 332.272C221.195 343.754 220.925 355.278 219.632 366.716C219.293 369.627 218.895 372.516 218.462 375.405C218.335 376.44 218.135 377.465 217.866 378.474C217.782 378.754 217.68 379.028 217.561 379.295C218.004 378.514 218.618 377.836 219.362 377.308C220.106 376.78 220.961 376.414 221.867 376.237C221.645 376.237 220.405 376.451 220.627 376.428C214.578 376.923 208.483 377.125 202.434 377.474C201.056 377.591 199.715 377.968 198.488 378.583C197.262 379.199 196.173 380.04 195.285 381.06C194.466 382.015 192.735 385.152 195.531 384.994L211.443 384.073C214.59 383.893 217.526 383.78 220.44 382.476C222.106 381.786 223.608 380.776 224.853 379.508C226.099 378.24 227.061 376.74 227.682 375.102C228.307 372.671 228.741 370.198 228.98 367.705C229.355 365.179 229.675 362.643 229.94 360.095C230.478 355.013 230.809 349.914 230.934 344.795C231.09 338.95 230.969 333.112 230.572 327.281C230.419 324.965 226.535 326.382 225.412 326.966C223.657 327.866 220.311 329.956 220.463 332.272H220.44Z" fill="black"/>
<path d="M430.07 184.152C420.749 202.578 404.304 214.518 382.233 218.884C380.61 219.195 383.781 227.549 385.331 227.246C407.653 222.769 424.256 210.61 433.622 191.88C433.941 190.376 433.538 188.41 432.481 186.314C432.025 185.325 430.673 182.966 430.102 184.119L430.07 184.152Z" fill="black"/>
<path d="M139.049 226.021C118.951 221.277 103.491 208.088 94.0749 187.653C93.3923 186.149 86.0139 191.189 86.6716 192.625C96.2539 213.277 111.965 226.568 132.368 231.285C133.905 231.242 135.722 230.39 137.511 228.872C138.366 228.197 140.343 226.33 139.088 226.045L139.049 226.021Z" fill="black"/>
<path d="M385.764 140.671C393.56 157.447 375.772 180.43 376.566 197.856C377.371 215.918 396.872 237.222 390.847 253.987C384.821 270.752 356.271 274.515 344.164 287.865C332.493 300.74 331.516 329.859 314.855 337.721C298.194 345.583 275.37 327.659 258.065 328.458C240.139 329.269 218.971 348.906 202.322 342.839C185.672 336.772 181.935 308.023 168.678 295.831C155.892 284.079 126.974 283.095 119.236 266.318C111.497 249.541 129.216 226.558 128.434 209.133C127.629 191.071 108.128 169.767 114.153 153.001C120.179 136.236 148.729 132.473 160.836 119.123C172.507 106.248 173.484 77.1291 190.145 69.2791C206.806 61.429 229.63 79.329 246.935 78.5417C264.872 77.7312 286.029 58.0945 302.678 64.1615C319.328 70.2285 323.065 98.9773 336.322 111.169C349.039 122.91 377.957 123.894 385.764 140.671Z" fill="#FFB800"/>
<path d="M268.881 175.288C269.327 175.821 270.483 179.584 271.935 178.938C274.642 177.734 275.461 173.477 274.118 171.115C270.748 165.187 269.376 173.726 268.967 174.666" stroke="black" stroke-width="6" stroke-linecap="round"/>
<path d="M223.748 175.288C224.194 175.821 225.35 179.584 226.802 178.938C229.509 177.734 230.328 173.477 228.985 171.115C225.615 165.187 224.243 173.726 223.834 174.666" stroke="black" stroke-width="6" stroke-linecap="round"/>
<path d="M265.886 74.6694C255.992 79.9103 249.106 82.0289 239.446 82.0289C226.226 82.0289 225.21 64.9683 194.702 69.8189C164.195 74.6694 173.347 127.817 133.931 135.482C128.079 136.783 110.298 149.184 113.349 171.569C115.536 181.415 119.85 193.459 126.275 200.266C130.749 205.007 128.482 221.574 125.897 226.747L125.805 226.931C119.811 238.924 110.41 257.737 118.434 271.285C121.492 276.449 126.275 279.425 132.67 281.46C139.066 283.495 146.814 287.472 149.958 288.789C161.257 293.522 166.84 294.672 174.364 302.828C183.737 312.988 182.802 331.797 194.702 340.475C209.224 351.065 213.485 347.057 230.294 340.475C240.188 336.602 242.343 332.404 251.649 328.265C253.888 327.27 265.849 326.693 267.92 329.283C272.792 335.376 278.089 337.423 294.359 338.44C307.579 341.563 324.009 333.837 326.901 330.3C336.674 318.349 338.146 312.902 336.111 293.896C334.137 275.465 361.269 274.747 376.376 269.25C387.241 265.297 393 258.191 393 246.865C393 240.512 388.354 236.783 386.585 230.585C385.226 225.828 376.376 216.166 376.376 209.913C376.376 200.028 374.614 201.13 376.376 189.885C377.933 179.958 386.585 165.053 386.585 155.289C386.585 143.707 377.282 133.017 365.543 126.799C355.519 121.489 341.137 124.877 330.968 113.572C312.664 93.2215 328.934 74.6694 298.427 64.7315C281.14 61.6788 276.963 68.8005 265.886 74.6694Z" stroke="black" stroke-width="6" stroke-linecap="round"/>
<path d="M69.1853 137.359C74.7806 139.085 72.2043 147.197 74.7806 145.735C78.0838 145.735 88.1283 145.486 88.1283 148.167C88.1283 149.397 87.5191 154.489 89.0047 153.638C91.2455 152.355 92.8466 153.935 95.3415 154.213C100.567 154.794 94.6491 160.443 97.7009 163.5C99.2355 165.038 102.171 163.225 103.633 165.527C106.11 169.427 104.87 178.647 102.689 182.549C101.605 184.49 100.668 186.482 99.184 188.155C98.5214 188.902 99.4398 191.06 98.4425 191.06C98.3899 191.06 93.4016 191.149 92.6516 191.068C93.3405 191.387 97.4888 193.916 97.647 194.106C98.6156 195.271 97.2543 196.76 96.9594 198.152C95.4221 205.414 91.3779 206.656 84.5555 206.528C82.3198 206.486 80.2237 206.234 78.0838 205.583C77.5727 205.427 76.9784 204.596 76.6007 204.975C76.4493 205.127 76.4837 206.943 76.4659 207.069C76.1148 209.567 75.422 212.014 74.5109 214.364C72.3423 219.957 68.64 223.672 64.1631 227.468C60.9053 230.23 51.7078 228.414 47.6807 228.414C41.2951 228.414 41.2436 225.326 37.4339 220.815C35.3891 218.393 35.0548 218.538 32.7824 220.646C30.2674 222.979 27.2521 224.158 23.8165 224.158C21.0614 224.158 20.3137 222.84 19.2662 220.409C18.6923 219.078 17.2676 210.583 16.1989 210.277C15.6479 210.12 14.9854 211.54 14.581 211.865C14.0648 212.278 12.4214 212.023 11.8171 212C5.11943 211.742 11.5099 200.624 10.2329 196.145C9.88089 194.911 4.07509 193.045 3.32306 190.114C2.63847 187.447 3.13747 183.931 3.92977 181.333C4.7695 178.579 7.74927 177.355 10.2329 176.706C10.7965 176.559 15.5167 174.352 14.3788 173.7C13.4562 173.172 11.8171 170.612 11.8171 169.632C11.8171 166.664 12.0535 165.246 13.1771 162.494C15.2721 157.362 18.9431 157.86 23.7828 155.766C24.7295 155.357 30.1939 153.875 29.4118 152.895C29.2391 152.679 28.6865 151.483 28.6703 151.207C28.5286 148.793 30.7769 146.835 32.3106 145.127C33.7919 143.478 36.1231 142.099 38.6198 142.099C43.9812 142.099 46.7615 140.059 54.1186 145.398C55.8515 146.157 55.5838 145.236 55.9209 144.138C56.4683 142.356 58.5725 140.09 59.8487 138.812C61.6239 137.033 66.711 136.597 69.1853 137.359Z" fill="#FFFACE" stroke="black" stroke-width="6" stroke-linecap="round"/>
<path d="M427.815 145.359C422.219 147.085 424.796 155.197 422.219 153.735C418.916 153.735 408.872 153.486 408.872 156.167C408.872 157.397 409.481 162.489 407.995 161.638C405.754 160.355 404.153 161.935 401.659 162.213C396.433 162.794 402.351 168.443 399.299 171.5C397.764 173.038 394.829 171.225 393.367 173.527C390.89 177.427 392.13 186.647 394.311 190.549C395.395 192.49 396.332 194.482 397.816 196.155C398.479 196.902 397.56 199.06 398.558 199.06C398.61 199.06 403.598 199.149 404.348 199.068C403.659 199.387 399.511 201.916 399.353 202.106C398.384 203.271 399.746 204.76 400.041 206.152C401.578 213.414 405.622 214.656 412.445 214.528C414.68 214.486 416.776 214.234 418.916 213.583C419.427 213.427 420.022 212.596 420.399 212.975C420.551 213.127 420.516 214.943 420.534 215.069C420.885 217.567 421.578 220.014 422.489 222.364C424.658 227.957 428.36 231.672 432.837 235.468C436.095 238.23 445.292 236.414 449.319 236.414C455.705 236.414 455.756 233.326 459.566 228.815C461.611 226.393 461.945 226.538 464.218 228.646C466.733 230.979 469.748 232.158 473.183 232.158C475.939 232.158 476.686 230.84 477.734 228.409C478.308 227.078 479.732 218.583 480.801 218.277C481.352 218.12 482.015 219.54 482.419 219.865C482.935 220.278 484.579 220.023 485.183 220C491.881 219.742 485.49 208.624 486.767 204.145C487.119 202.911 492.925 201.045 493.677 198.114C494.362 195.447 493.863 191.931 493.07 189.333C492.231 186.579 489.251 185.355 486.767 184.706C486.203 184.559 481.483 182.352 482.621 181.7C483.544 181.172 485.183 178.612 485.183 177.632C485.183 174.664 484.947 173.246 483.823 170.494C481.728 165.362 478.057 165.86 473.217 163.766C472.27 163.357 466.806 161.875 467.588 160.895C467.761 160.679 468.314 159.483 468.33 159.207C468.471 156.793 466.223 154.835 464.689 153.127C463.208 151.478 460.877 150.099 458.38 150.099C453.019 150.099 450.238 148.059 442.881 153.398C441.149 154.157 441.416 153.236 441.079 152.138C440.532 150.356 438.427 148.09 437.151 146.812C435.376 145.033 430.289 144.597 427.815 145.359Z" fill="#FFFACE" stroke="black" stroke-width="6" stroke-linecap="round"/>
<path d="M221 212.698C226.407 219.829 234.005 230.125 240.152 235.256C240.334 235.408 241.063 236 241.305 236C242.054 236 242.909 235.429 243.575 235.078C245.769 233.92 247.996 232.874 250.188 231.712C258.251 227.438 265.907 221.787 273.599 216.484C277.646 213.694 290.058 205.048 294 202" stroke="black" stroke-width="6" stroke-linecap="round"/>
<path d="M70 99C69.3627 92.1148 68 84.9511 68 78" stroke="black" stroke-width="6" stroke-linecap="round"/>
<path d="M43 106C41.7398 100.575 38.2532 96.1603 37 91" stroke="black" stroke-width="6" stroke-linecap="round"/>
<path d="M21 116C15.6044 113.872 10.6007 111.35 5 110" stroke="black" stroke-width="6" stroke-linecap="round"/>
<path d="M432 124C430.662 120.636 429.767 112.118 428 109" stroke="black" stroke-width="6" stroke-linecap="round"/>
<path d="M454 125C454.513 123.621 459.623 109.714 461 106" stroke="black" stroke-width="6" stroke-linecap="round"/>
<path d="M473 137C476.558 134.319 482.136 130.166 487 126" stroke="black" stroke-width="6" stroke-linecap="round"/>
<path d="M174.847 30.3896C170.516 29.1291 164.918 30.935 164.066 35.695C163.218 40.4374 170.708 41.2694 174.018 41.6909C177.092 42.0823 178.625 42.5068 180.954 40.201C181.978 39.1873 182.254 37.1148 181.765 35.804C180.939 33.5937 176.819 31.2736 174.508 30.7166" stroke="black" stroke-width="6" stroke-linecap="round"/>
<path d="M189 19C190.825 29.8176 196.769 38.9008 201.574 48.508C201.804 48.9672 202.548 52.0095 203 50.6554" stroke="black" stroke-width="6" stroke-linecap="round"/>
<path d="M196 34C200.379 33.2702 204.689 32.5149 208.926 31.1481C209.543 30.9491 211.693 30.6149 212 30" stroke="black" stroke-width="6" stroke-linecap="round"/>
<path d="M228 5.8133C233.948 5.65293 240.035 5.88274 245.964 5.32176C246.309 5.28906 246.965 5.23779 247.314 5.08509C248.889 4.39654 247.286 8.10063 247.092 8.50767C245.467 11.9268 241.541 13.2799 239.988 16.5544C239.783 16.9861 238.989 18.7796 238.989 17.6103" stroke="black" stroke-width="6" stroke-linecap="round"/>
<path d="M245 12C248.247 13.8372 252.023 14.8417 255 17" stroke="black" stroke-width="6" stroke-linecap="round"/>
<path d="M246.935 23C246.935 26.6563 247.429 30.6537 245.688 34.0805C245.481 34.4886 245.368 35.4314 245 34.773" stroke="black" stroke-width="6" stroke-linecap="round"/>
<path d="M236 38C239.461 37.6072 242.952 37.1647 246.432 36.9242C248.379 36.7897 250.238 36.0195 252.23 35.8333C254.486 35.6225 256.703 35 259 35" stroke="black" stroke-width="6" stroke-linecap="round"/>
<path d="M270.013 3C269.879 15.1609 270.802 27.2678 270.802 39.4369C270.802 40.369 271.248 41.6903 270.802 40.5721" stroke="black" stroke-width="6" stroke-linecap="round"/>
<path d="M273 25C276.671 24.2559 280.324 24 284 24" stroke="black" stroke-width="6" stroke-linecap="round"/>
<path d="M303 14C306.902 14.6569 310.775 15.3787 314.735 15.5926C317.064 15.7183 320.784 15.1235 322.913 16.3333C323.366 16.5907 321.903 17.5798 321.74 17.7407C316.346 23.0699 310.348 27.4339 304.32 32" stroke="black" stroke-width="6" stroke-linecap="round"/>
<path d="M316 24C318.909 27.0618 321.663 30.5082 325 33" stroke="black" stroke-width="6" stroke-linecap="round"/>
<path d="M313 36C313 36.4556 313 43.2526 313 42.9927" stroke="black" stroke-width="6" stroke-linecap="round"/>
<path d="M302 46C306.248 46 310.017 46.5318 314.084 47.4257C315.405 47.716 316.544 48.1573 317.906 48.3937C319.017 48.5865 320.057 49.3074 321 48.8513" stroke="black" stroke-width="6" stroke-linecap="round"/>
<path d="M347 25C345.043 28.3589 343.624 31.9293 341.972 35.4433C340.968 37.5773 339.655 39.5266 338.68 41.6726C337.297 44.7133 335.725 47.7607 334.7 50.9433C334.179 52.5625 333 54.2839 333 56" stroke="black" stroke-width="6" stroke-linecap="round"/>
<path d="M343 40C345.373 41.2136 347.959 42.4028 350.593 42.625C351.216 42.6776 351.532 42.6488 352 43" stroke="black" stroke-width="6" stroke-linecap="round"/>
<path d="M382 44C376.085 46.6339 370.65 50.3113 365.778 54.5741C364.593 55.611 363.387 56.3066 362 57" stroke="black" stroke-width="6" stroke-linecap="round"/>
<path d="M353 67C351.703 67.4793 351.039 67.7144 351.039 68.9314C351.039 69.1812 350.817 70.1894 351.431 69.9686C351.998 69.765 352.427 69.0544 352.608 68.6095" stroke="black" stroke-width="6" stroke-linecap="round"/>
</svg>
