<svg width="461" height="401" viewBox="0 0 461 401" fill="none" xmlns="http://www.w3.org/2000/svg">
<path d="M252.315 345.717C252.825 355.45 252.872 365.206 252.408 374.928C252.199 379.466 251.851 384.523 251.445 388.75C251.352 389.706 251.271 390.685 251.12 391.63C251.039 392.102 250.911 392.54 250.795 393.001C250.679 393.461 250.865 392.759 250.9 392.701C251.132 392.344 251.526 392.148 251.027 392.517C251.584 392.102 252.269 391.791 252.814 391.434C253.359 391.077 253.092 391.353 252.744 391.434C251.712 391.641 253.51 391.434 252.454 391.434C251.398 391.434 250.041 391.434 248.846 391.434L231.77 391.492C229.066 391.492 225.633 393.116 225.076 396.041C224.955 396.663 224.979 397.303 225.144 397.913C225.31 398.524 225.613 399.089 226.031 399.567C226.449 400.044 226.971 400.42 227.557 400.668C228.143 400.915 228.778 401.027 229.414 400.995L245.911 400.937C248.521 400.937 251.364 401.179 253.927 400.545C255.73 400.156 257.4 399.308 258.773 398.084C260.146 396.86 261.175 395.303 261.758 393.565C262.365 391.156 262.696 388.687 262.744 386.205C262.999 383.567 263.197 380.929 263.371 378.291C263.726 372.916 263.931 367.541 263.985 362.165C264.047 356.022 263.912 349.879 263.58 343.736C263.429 340.902 260.157 339.578 257.663 340.119C255.169 340.66 252.152 342.791 252.315 345.774V345.717Z" fill="black"/>
<path d="M194.44 348.272C195.195 359.754 194.925 371.278 193.632 382.716C193.293 385.627 192.895 388.516 192.462 391.405C192.335 392.44 192.135 393.465 191.866 394.474C191.782 394.754 191.68 395.028 191.561 395.295C192.004 394.514 192.618 393.836 193.362 393.308C194.106 392.78 194.961 392.414 195.867 392.237C195.645 392.237 194.405 392.451 194.627 392.428C188.578 392.923 182.483 393.125 176.434 393.474C175.056 393.591 173.715 393.968 172.488 394.583C171.262 395.199 170.173 396.04 169.285 397.06C168.466 398.015 166.735 401.152 169.531 400.994L185.443 400.073C188.59 399.893 191.526 399.78 194.44 398.476C196.106 397.786 197.608 396.776 198.853 395.508C200.099 394.24 201.061 392.74 201.682 391.102C202.307 388.671 202.741 386.198 202.98 383.705C203.355 381.179 203.675 378.643 203.94 376.095C204.478 371.013 204.809 365.914 204.934 360.795C205.09 354.95 204.969 349.112 204.572 343.281C204.419 340.965 200.535 342.382 199.412 342.966C197.657 343.866 194.311 345.956 194.463 348.272H194.44Z" fill="black"/>
<path d="M108.891 252.512C88.7933 247.769 73.3328 234.579 63.9167 214.145C63.2341 212.641 55.8557 217.681 56.5134 219.117C66.0957 239.768 81.8063 253.06 102.21 257.777C103.746 257.734 105.564 256.882 107.353 255.364C108.208 254.688 110.185 252.821 108.93 252.537L108.891 252.512Z" fill="black"/>
<path d="M350.426 252.512C370.523 247.769 385.984 234.579 395.4 214.145C396.082 212.641 403.461 217.681 402.803 219.117C393.221 239.768 377.51 253.06 357.106 257.777C355.57 257.734 353.753 256.882 351.963 255.364C351.109 254.688 349.132 252.821 350.387 252.537L350.426 252.512Z" fill="black"/>
<path d="M359.742 157.671C367.566 174.447 349.714 197.43 350.511 214.856C351.318 232.918 370.889 254.222 364.842 270.987C358.796 287.752 330.143 291.515 317.992 304.865C306.28 317.74 305.299 346.859 288.578 354.721C271.858 362.583 248.952 344.659 231.585 345.458C213.595 346.269 192.351 365.906 175.642 359.839C158.933 353.772 155.183 325.023 141.878 312.831C129.046 301.079 100.024 300.095 92.2581 283.318C84.492 266.541 102.274 243.558 101.49 226.133C100.682 208.071 81.1109 186.767 87.1576 170.001C93.2043 153.236 121.857 149.473 134.008 136.123C145.72 123.248 146.701 94.1291 163.422 86.2791C180.142 78.429 203.048 96.329 220.415 95.5417C238.417 94.7312 259.649 75.0945 276.358 81.1615C293.067 87.2285 296.818 115.977 310.123 128.169C322.885 139.91 351.907 140.894 359.742 157.671Z" fill="#FFB800"/>
<path d="M205.152 220.612C212.974 219.362 220.857 218.105 228.719 217.199C230.922 216.946 239.572 214.362 238.97 217.67C237.33 226.675 234.182 234.326 230.764 242.756C230.064 244.485 225.493 255.08 223.652 253.91C221.811 252.74 216.087 243.891 214.275 239.669C213.136 237.015 206.982 224.374 205 222.175" stroke="black" stroke-width="6" stroke-linecap="round"/>
<path d="M239.886 90.6694C229.992 95.9103 223.106 98.0289 213.446 98.0289C200.226 98.0289 199.21 80.9683 168.702 85.8189C138.195 90.6694 147.347 143.817 107.931 151.482C102.079 152.783 84.2983 165.184 87.3492 187.569C89.5358 197.415 93.8497 209.459 100.275 216.266C104.749 221.007 102.482 237.574 99.8967 242.747L99.8048 242.931C93.8113 254.924 84.4099 273.737 92.4337 287.285C95.4918 292.449 100.275 295.425 106.67 297.46C113.066 299.495 120.814 303.472 123.958 304.789C135.257 309.522 140.84 310.672 148.364 318.828C157.737 328.988 156.802 347.797 168.702 356.475C183.224 367.065 187.485 363.057 204.294 356.475C214.188 352.602 216.343 348.404 225.649 344.265C227.888 343.27 239.849 342.693 241.92 345.283C246.792 351.376 252.089 353.423 268.359 354.44C281.579 357.563 298.009 349.837 300.901 346.3C310.674 334.349 312.146 328.902 310.111 309.896C308.137 291.465 335.269 290.747 350.376 285.25C361.241 281.297 367 274.191 367 262.865C367 256.512 362.354 252.783 360.585 246.585C359.226 241.828 350.376 232.166 350.376 225.913C350.376 216.028 348.614 217.13 350.376 205.885C351.933 195.958 360.585 181.053 360.585 171.289C360.585 159.707 351.282 149.017 339.543 142.799C329.519 137.489 315.137 140.877 304.968 129.572C286.664 109.222 302.934 90.6694 272.427 80.7315C255.14 77.6788 250.963 84.8005 239.886 90.6694Z" stroke="black" stroke-width="6" stroke-linecap="round"/>
<path d="M177.416 205.69C185.442 205.69 192.644 204 200.299 204C202.451 204 207.971 203.901 205.272 207.255C203.784 208.735 194.043 220.687 192.084 223.154C187.895 226.66 188.385 229.911 185.442 226.66C183.797 224.842 181.408 223.775 179.777 222.153C176.788 219.181 174.105 216.201 171.152 213.264C170.039 212.157 168.384 209.782 168.036 208.226C167.432 205.522 174.575 206.161 177.416 205.69Z" fill="black" stroke="black" stroke-width="6" stroke-linecap="round"/>
<path d="M226.416 205.69C234.442 205.69 241.644 204 249.299 204C251.451 204 256.971 203.901 254.272 207.255C252.784 208.735 243.043 220.687 241.084 223.154C236.895 226.66 237.385 229.911 234.442 226.66C232.797 224.842 230.408 223.775 228.777 222.153C225.788 219.181 223.105 216.201 220.152 213.264C219.039 212.157 217.384 209.782 217.036 208.226C216.432 205.522 223.575 206.161 226.416 205.69Z" fill="black" stroke="black" stroke-width="6" stroke-linecap="round"/>
<path d="M203 211C209.378 209.385 216.056 210.334 222.502 209.407C223.64 209.244 224.849 209 226 209" stroke="black" stroke-width="6" stroke-linecap="round"/>
<path d="M225 183C227.231 187.998 229.765 194.267 237.032 191.18C241.167 189.063 243.241 188.022 248 184.925" stroke="black" stroke-width="6" stroke-linecap="round"/>
<path d="M182.214 188.464C185.247 192.88 188.797 198.467 195.279 194.215C198.903 191.448 200.724 190.08 204.78 186.261" stroke="black" stroke-width="6" stroke-linecap="round"/>
<path d="M229 54C234.014 39.7889 239.383 25.6148 243.038 11C243.788 8.00127 244.262 5.53058 246 3" stroke="black" stroke-width="6" stroke-linecap="round"/>
<path d="M360 101C376.384 90.4715 390.577 77.6714 406 66" stroke="black" stroke-width="6" stroke-linecap="round"/>
<path d="M413 188C423.567 186.77 434.14 185.59 444.708 184.375C448.035 183.993 452.132 183.865 455.417 182.75C456.435 182.404 456.887 182 458 182" stroke="black" stroke-width="6" stroke-linecap="round"/>
<path d="M83 119C58.2497 111.935 33.4775 104.95 9 97" stroke="black" stroke-width="6" stroke-linecap="round"/>
<path d="M42 202C28.7717 205.035 16.0563 209.423 3 213" stroke="black" stroke-width="6" stroke-linecap="round"/>
<path d="M353 343C354.301 348.52 355.355 354.252 357.615 359.435C358.928 362.446 361.084 365.105 361.269 368.529C361.363 370.257 360.621 371.529 362 370.781" stroke="black" stroke-width="6" stroke-linecap="round"/>
<path d="M93 342C86.2951 348.659 79.6504 355.35 73 362" stroke="black" stroke-width="6" stroke-linecap="round"/>
<path d="M140 58C135.825 48.4044 130.86 37.7152 125 29" stroke="black" stroke-width="6" stroke-linecap="round"/>
</svg>
