<svg width="35" height="18" viewBox="0 0 35 18" fill="none" xmlns="http://www.w3.org/2000/svg">
<path d="M12.23 3.74H11.24V12.77H12.23V3.74ZM9.42 3.96V6.18H8.28C8.31333 5.96667 8.33667 5.75 8.35 5.53C8.37 5.31 8.38 5.08333 8.38 4.85H4.89V5.68H7.36C7.28667 6.62 7.01667 7.45667 6.55 8.19C6.09 8.91667 5.39 9.56333 4.45 10.13L5.04 10.86C5.88667 10.3533 6.55667 9.77667 7.05 9.13C7.54333 8.48333 7.89333 7.78 8.1 7.02H9.42V8.45H7.94V9.29H9.42V12.33H10.38V3.96H9.42ZM19.0192 5.25V4.5H16.8992V3.67H15.8592V4.5H13.7392V5.25H19.0192ZM20.8492 3.75H19.8192V9.83H20.8492V3.75ZM19.2592 9.23L19.1792 8.52C18.8126 8.57333 18.4392 8.61667 18.0592 8.65C17.6859 8.67667 17.2992 8.7 16.8992 8.72V8.2C17.4192 8.14 17.8259 7.99333 18.1192 7.76C18.4192 7.52667 18.5692 7.23 18.5692 6.87C18.5692 6.66333 18.5159 6.48 18.4092 6.32C18.3092 6.15333 18.1626 6.01333 17.9692 5.9C17.7759 5.78 17.5459 5.69 17.2792 5.63C17.0126 5.56333 16.7126 5.53 16.3792 5.53C16.0526 5.53 15.7526 5.56333 15.4792 5.63C15.2126 5.69 14.9826 5.78 14.7892 5.9C14.6026 6.01333 14.4559 6.15333 14.3492 6.32C14.2492 6.48 14.1992 6.66333 14.1992 6.87C14.1992 7.23 14.3459 7.52667 14.6392 7.76C14.9326 7.99333 15.3392 8.14 15.8592 8.2V8.76C15.4326 8.77333 15.0159 8.78333 14.6092 8.79C14.2026 8.79 13.8192 8.79 13.4592 8.79L13.5892 9.59C13.9892 9.59 14.4192 9.58667 14.8792 9.58C15.3392 9.57333 15.8126 9.55667 16.2992 9.53C16.7859 9.50333 17.2792 9.46667 17.7792 9.42C18.2792 9.37333 18.7726 9.31 19.2592 9.23ZM15.1792 6.87C15.1792 6.67 15.2859 6.51333 15.4992 6.4C15.7192 6.28667 16.0126 6.23 16.3792 6.23C16.7592 6.23 17.0559 6.28667 17.2692 6.4C17.4826 6.51333 17.5892 6.67 17.5892 6.87C17.5892 7.08333 17.4826 7.24667 17.2692 7.36C17.0559 7.47333 16.7592 7.53 16.3792 7.53C16.0126 7.53 15.7192 7.47333 15.4992 7.36C15.2859 7.24667 15.1792 7.08333 15.1792 6.87ZM14.7292 10.21V11.03H19.8192V12.78H20.8492V10.21H14.7292ZM29.7884 3.72H28.7584V7.11H27.1784V7.96H28.7584V12.78H29.7884V3.72ZM23.6384 9.8V7.81H26.6584V4.54H22.6084V5.37H25.6484V6.98H22.6284V10.65H23.3384C23.7318 10.65 24.1018 10.6467 24.4484 10.64C24.8018 10.6333 25.1418 10.62 25.4684 10.6C25.8018 10.58 26.1284 10.5533 26.4484 10.52C26.7684 10.48 27.0984 10.43 27.4384 10.37L27.3484 9.53C27.0418 9.58333 26.7384 9.62667 26.4384 9.66C26.1451 9.69333 25.8484 9.72 25.5484 9.74C25.2484 9.76 24.9418 9.77667 24.6284 9.79C24.3151 9.79667 23.9851 9.8 23.6384 9.8Z" fill="#FF9100"/>
<rect x="0.5" y="0.5" width="34" height="17" rx="8.5" stroke="#FF9100"/>
</svg>
