<svg width="375" height="812" viewBox="0 0 375 812" fill="none" xmlns="http://www.w3.org/2000/svg">
<rect width="375" height="812" fill="white"/>
<path d="M41 54V55H37V77H59V55H55V54H53V55H43V54H41ZM39 57H41V58H43V57H53V58H55V57H57V59H39V57ZM39 61H57V75H39V61ZM45 63V65H47V63H45ZM49 63V65H51V63H49ZM53 63V65H55V63H53ZM41 67V69H43V67H41ZM45 67V69H47V67H45ZM49 67V69H51V67H49ZM53 67V69H55V67H53ZM41 71V73H43V71H41ZM45 71V73H47V71H45ZM49 71V73H51V71H49Z" fill="black"/>
<path d="M326.69 67.408V66.092H315.42V67.408H326.69ZM325.64 73.05V71.706H318.444V71.132H325.262V68.108H316.778V69.396H323.638V69.984H316.806V73.05H325.64ZM325.528 65.504V64.216H323.792L324.114 62.774L322.532 62.55L322.266 64.216H319.816L319.62 62.55L318.024 62.774L318.276 64.216H316.54V65.504H325.528ZM325.556 62.2V60.912H316.498V62.2H325.556ZM338.131 69.9V60.632H336.577V64.146H335.555V60.856H334.029V69.578H335.555V65.462H336.577V69.9H338.131ZM333.497 67.758C333.441 67.338 333.371 66.932 333.329 66.526C332.489 66.736 330.725 66.82 329.689 66.82V65.42H332.783V61.57H328.009V62.872H331.145V64.146H328.051V68.136H328.919C330.347 68.136 332.447 68.01 333.497 67.758ZM338.439 72.798V71.496H331.341V68.976H329.703V72.798H338.439Z" fill="#0066FF"/>
<rect x="298.5" y="52.5" width="57" height="30" rx="15" stroke="#0066FF"/>
<path d="M37.2146 18.1675C34.9222 18.1675 33.2889 19.7349 33.2889 21.8809V21.8955C33.2889 23.9023 34.7098 25.3818 36.7386 25.3818C38.1888 25.3818 39.1116 24.6421 39.4998 23.8071H39.6463C39.6463 23.8877 39.639 23.9683 39.639 24.0488C39.5584 26.0703 38.8479 27.7109 37.1707 27.7109C36.2405 27.7109 35.5887 27.2275 35.3104 26.4878L35.2884 26.4146H33.428L33.4427 26.4951C33.7796 28.1138 35.2298 29.2637 37.1707 29.2637C39.8294 29.2637 41.4334 27.1543 41.4334 23.5947V23.5801C41.4334 19.7715 39.4705 18.1675 37.2146 18.1675ZM37.2073 23.9316C36.0062 23.9316 35.1346 23.0527 35.1346 21.8296V21.8149C35.1346 20.6357 36.0647 19.7056 37.2293 19.7056C38.4012 19.7056 39.3167 20.6504 39.3167 21.8589V21.8735C39.3167 23.0674 38.4012 23.9316 37.2073 23.9316ZM44.4586 22.1519C45.1324 22.1519 45.6231 21.6392 45.6231 20.9946C45.6231 20.3428 45.1324 19.8374 44.4586 19.8374C43.7921 19.8374 43.294 20.3428 43.294 20.9946C43.294 21.6392 43.7921 22.1519 44.4586 22.1519ZM44.4586 27.5864C45.1324 27.5864 45.6231 27.0811 45.6231 26.4292C45.6231 25.7773 45.1324 25.272 44.4586 25.272C43.7921 25.272 43.294 25.7773 43.294 26.4292C43.294 27.0811 43.7921 27.5864 44.4586 27.5864ZM52.6107 29H54.4198V26.9712H55.8407V25.4111H54.4198V18.4312H51.7465C50.3109 20.6138 48.8095 23.0454 47.4398 25.4258V26.9712H52.6107V29ZM49.1977 25.4551V25.3452C50.223 23.5508 51.4462 21.5952 52.5302 19.9399H52.64V25.4551H49.1977ZM59.9206 29H61.8103V18.4312H59.9279L57.1667 20.3721V22.1519L59.7961 20.2915H59.9206V29Z" fill="black"/>
<rect opacity="0.35" x="336.833" y="18.8334" width="21" height="10.3333" rx="2.16667" stroke="black"/>
<path opacity="0.4" d="M359.333 22.0001V26.0001C360.138 25.6613 360.662 24.8732 360.662 24.0001C360.662 23.1269 360.138 22.3388 359.333 22.0001Z" fill="black"/>
<rect x="338.333" y="20.3334" width="18" height="7.33333" rx="1.33333" fill="black"/>
<path fill-rule="evenodd" clip-rule="evenodd" d="M323.667 20.6152C325.892 20.6153 328.031 21.4694 329.644 23.001C329.765 23.1192 329.959 23.1177 330.079 22.9976L331.239 21.8273C331.3 21.7664 331.334 21.6839 331.333 21.598C331.333 21.5122 331.298 21.4301 331.237 21.3699C327.005 17.3176 320.329 17.3176 316.097 21.3699C316.035 21.43 316.001 21.5121 316 21.598C315.999 21.6838 316.033 21.7663 316.094 21.8273L317.255 22.9976C317.374 23.1179 317.568 23.1194 317.69 23.001C319.302 21.4693 321.442 20.6152 323.667 20.6152ZM323.667 24.4227C324.889 24.4227 326.068 24.8766 326.974 25.6964C327.097 25.8127 327.29 25.8102 327.409 25.6907L328.569 24.5204C328.63 24.459 328.663 24.3757 328.663 24.2892C328.662 24.2027 328.626 24.1201 328.564 24.0599C325.805 21.4955 321.532 21.4955 318.773 24.0599C318.71 24.1201 318.675 24.2027 318.674 24.2893C318.673 24.3758 318.707 24.4591 318.768 24.5204L319.927 25.6907C320.047 25.8102 320.24 25.8127 320.362 25.6964C321.268 24.8772 322.446 24.4233 323.667 24.4227ZM325.989 26.9846C325.991 27.0714 325.957 27.155 325.895 27.2158L323.89 29.2378C323.831 29.2972 323.751 29.3307 323.667 29.3307C323.583 29.3307 323.503 29.2972 323.445 29.2378L321.439 27.2158C321.377 27.155 321.343 27.0713 321.345 26.9845C321.347 26.8977 321.384 26.8156 321.449 26.7574C322.729 25.6751 324.605 25.6751 325.886 26.7574C325.95 26.8156 325.988 26.8978 325.989 26.9846Z" fill="black"/>
<path fill-rule="evenodd" clip-rule="evenodd" d="M310 18.6666H309C308.448 18.6666 308 19.1143 308 19.6666V28.3333C308 28.8856 308.448 29.3333 309 29.3333H310C310.552 29.3333 311 28.8856 311 28.3333V19.6666C311 19.1143 310.552 18.6666 310 18.6666ZM304.333 21H305.333C305.886 21 306.333 21.4477 306.333 22V28.3333C306.333 28.8856 305.886 29.3333 305.333 29.3333H304.333C303.781 29.3333 303.333 28.8856 303.333 28.3333V22C303.333 21.4477 303.781 21 304.333 21ZM300.667 23.3333H299.667C299.114 23.3333 298.667 23.781 298.667 24.3333V28.3333C298.667 28.8856 299.114 29.3333 299.667 29.3333H300.667C301.219 29.3333 301.667 28.8856 301.667 28.3333V24.3333C301.667 23.781 301.219 23.3333 300.667 23.3333ZM296 25.3333H295C294.448 25.3333 294 25.781 294 26.3333V28.3333C294 28.8856 294.448 29.3333 295 29.3333H296C296.552 29.3333 297 28.8856 297 28.3333V26.3333C297 25.781 296.552 25.3333 296 25.3333Z" fill="black"/>
<path d="M146.716 116.76C145.068 116.76 143.684 117.2 142.564 118.08C141.46 118.96 140.764 120.32 140.476 122.16L143.62 122.688C143.636 122.448 143.652 122.232 143.668 122.04C143.7 121.848 143.748 121.664 143.812 121.488C144.004 120.96 144.332 120.504 144.796 120.12C145.26 119.72 145.828 119.52 146.5 119.52C147.284 119.52 147.9 119.736 148.348 120.168C148.812 120.584 149.044 121.208 149.044 122.04C149.044 122.968 148.78 123.824 148.252 124.608C147.724 125.392 147.004 126.24 146.092 127.152L140.068 133.08V135H152.572V131.976H146.812C146.54 131.976 146.252 131.992 145.948 132.024C145.66 132.04 145.356 132.088 145.036 132.168L148.756 128.424C149.204 127.96 149.636 127.48 150.052 126.984C150.484 126.488 150.868 125.976 151.204 125.448C151.54 124.92 151.812 124.368 152.02 123.792C152.244 123.2 152.364 122.592 152.38 121.968C152.38 121.2 152.236 120.496 151.948 119.856C151.676 119.216 151.292 118.672 150.796 118.224C150.3 117.76 149.7 117.4 148.996 117.144C148.308 116.888 147.548 116.76 146.716 116.76ZM160.533 116.76C158.885 116.76 157.501 117.2 156.381 118.08C155.277 118.96 154.581 120.32 154.293 122.16L157.437 122.688C157.453 122.448 157.469 122.232 157.485 122.04C157.517 121.848 157.565 121.664 157.629 121.488C157.821 120.96 158.149 120.504 158.613 120.12C159.077 119.72 159.645 119.52 160.317 119.52C161.101 119.52 161.717 119.736 162.165 120.168C162.629 120.584 162.861 121.208 162.861 122.04C162.861 122.968 162.597 123.824 162.069 124.608C161.541 125.392 160.821 126.24 159.909 127.152L153.885 133.08V135H166.389V131.976H160.629C160.357 131.976 160.069 131.992 159.765 132.024C159.477 132.04 159.173 132.088 158.853 132.168L162.573 128.424C163.021 127.96 163.453 127.48 163.869 126.984C164.301 126.488 164.685 125.976 165.021 125.448C165.357 124.92 165.629 124.368 165.837 123.792C166.061 123.2 166.181 122.592 166.197 121.968C166.197 121.2 166.053 120.496 165.765 119.856C165.493 119.216 165.109 118.672 164.613 118.224C164.117 117.76 163.517 117.4 162.813 117.144C162.125 116.888 161.365 116.76 160.533 116.76ZM168.374 135.336H171.878V131.928H168.374V135.336ZM186.743 126.096C186.743 124.496 186.575 123.12 186.239 121.968C185.903 120.8 185.431 119.84 184.823 119.088C184.231 118.32 183.527 117.752 182.711 117.384C181.895 117.016 181.007 116.832 180.047 116.832C179.119 116.832 178.247 117.016 177.431 117.384C176.631 117.752 175.927 118.32 175.319 119.088C174.727 119.84 174.263 120.8 173.927 121.968C173.591 123.12 173.423 124.496 173.423 126.096C173.423 127.68 173.591 129.056 173.927 130.224C174.263 131.376 174.727 132.336 175.319 133.104C175.927 133.856 176.631 134.416 177.431 134.784C178.247 135.152 179.119 135.336 180.047 135.336C181.007 135.336 181.895 135.152 182.711 134.784C183.527 134.416 184.231 133.856 184.823 133.104C185.431 132.336 185.903 131.376 186.239 130.224C186.575 129.056 186.743 127.68 186.743 126.096ZM183.383 126.096C183.383 127.36 183.287 128.408 183.095 129.24C182.919 130.072 182.679 130.736 182.375 131.232C182.071 131.728 181.711 132.072 181.295 132.264C180.895 132.456 180.479 132.552 180.047 132.552C179.631 132.552 179.223 132.456 178.823 132.264C178.439 132.072 178.095 131.728 177.791 131.232C177.487 130.736 177.239 130.072 177.047 129.24C176.871 128.408 176.783 127.36 176.783 126.096C176.783 124.816 176.871 123.76 177.047 122.928C177.239 122.08 177.487 121.416 177.791 120.936C178.095 120.44 178.439 120.096 178.823 119.904C179.223 119.696 179.631 119.592 180.047 119.592C180.479 119.592 180.895 119.696 181.295 119.904C181.711 120.096 182.071 120.44 182.375 120.936C182.679 121.416 182.919 122.08 183.095 122.928C183.287 123.76 183.383 124.816 183.383 126.096ZM194.296 116.76C192.648 116.76 191.264 117.2 190.144 118.08C189.04 118.96 188.344 120.32 188.056 122.16L191.2 122.688C191.216 122.448 191.232 122.232 191.248 122.04C191.28 121.848 191.328 121.664 191.392 121.488C191.584 120.96 191.912 120.504 192.376 120.12C192.84 119.72 193.408 119.52 194.08 119.52C194.864 119.52 195.48 119.736 195.928 120.168C196.392 120.584 196.624 121.208 196.624 122.04C196.624 122.968 196.36 123.824 195.832 124.608C195.304 125.392 194.584 126.24 193.672 127.152L187.648 133.08V135H200.152V131.976H194.392C194.12 131.976 193.832 131.992 193.528 132.024C193.24 132.04 192.936 132.088 192.616 132.168L196.336 128.424C196.784 127.96 197.216 127.48 197.632 126.984C198.064 126.488 198.448 125.976 198.784 125.448C199.12 124.92 199.392 124.368 199.6 123.792C199.824 123.2 199.944 122.592 199.96 121.968C199.96 121.2 199.816 120.496 199.528 119.856C199.256 119.216 198.872 118.672 198.376 118.224C197.88 117.76 197.28 117.4 196.576 117.144C195.888 116.888 195.128 116.76 194.296 116.76ZM202.137 135.336H205.641V131.928H202.137V135.336ZM216.498 132.336V117.048H213.666L208.482 121.512L210.378 123.672L213.306 121.008L213.21 122.568V132.336H209.706V135H219.594V132.336H216.498ZM227.723 135.456C228.667 135.456 229.531 135.328 230.315 135.072C231.099 134.832 231.771 134.488 232.331 134.04C232.891 133.576 233.323 133.016 233.627 132.36C233.947 131.688 234.107 130.936 234.107 130.104C234.107 129.08 233.867 128.184 233.387 127.416C232.907 126.648 232.139 126.056 231.083 125.64C231.867 125.24 232.467 124.696 232.883 124.008C233.315 123.32 233.531 122.544 233.531 121.68C233.531 120.944 233.387 120.272 233.099 119.664C232.811 119.056 232.411 118.536 231.899 118.104C231.387 117.672 230.771 117.336 230.051 117.096C229.347 116.856 228.571 116.736 227.723 116.736C226.891 116.736 226.123 116.856 225.419 117.096C224.715 117.336 224.107 117.672 223.595 118.104C223.099 118.536 222.707 119.056 222.419 119.664C222.131 120.272 221.987 120.944 221.987 121.68C221.987 122.544 222.195 123.32 222.611 124.008C223.027 124.68 223.619 125.224 224.387 125.64C223.331 126.056 222.563 126.648 222.083 127.416C221.603 128.184 221.363 129.08 221.363 130.104C221.363 130.936 221.515 131.688 221.819 132.36C222.139 133.016 222.579 133.576 223.139 134.04C223.699 134.488 224.371 134.832 225.155 135.072C225.939 135.328 226.795 135.456 227.723 135.456ZM227.723 124.464C227.259 124.464 226.859 124.384 226.523 124.224C226.203 124.048 225.939 123.832 225.731 123.576C225.539 123.304 225.395 123.008 225.299 122.688C225.203 122.352 225.155 122.032 225.155 121.728C225.155 121.04 225.363 120.464 225.779 120C226.211 119.52 226.859 119.28 227.723 119.28C228.587 119.28 229.235 119.52 229.667 120C230.115 120.464 230.339 121.04 230.339 121.728C230.339 122.032 230.291 122.352 230.195 122.688C230.099 123.008 229.947 123.304 229.739 123.576C229.531 123.832 229.259 124.048 228.923 124.224C228.587 124.384 228.187 124.464 227.723 124.464ZM227.723 132.816C226.763 132.816 226.019 132.568 225.491 132.072C224.963 131.56 224.699 130.888 224.699 130.056C224.699 129.096 224.971 128.36 225.515 127.848C226.059 127.32 226.795 127.056 227.723 127.056C228.651 127.056 229.395 127.32 229.955 127.848C230.531 128.36 230.819 129.096 230.819 130.056C230.819 130.888 230.539 131.56 229.979 132.072C229.435 132.568 228.683 132.816 227.723 132.816Z" fill="black"/>
<path d="M295 135L303 126.5L295 118" stroke="black" stroke-width="3"/>
<path d="M79 118L71 126.5L79 135" stroke="black" stroke-width="3"/>
<path d="M150.381 205.42H152.821C153.447 205.42 154.027 205.313 154.561 205.1C155.107 204.873 155.581 204.56 155.981 204.16C156.394 203.76 156.707 203.293 156.921 202.76C157.147 202.227 157.261 201.647 157.261 201.02C157.261 200.393 157.147 199.813 156.921 199.28C156.694 198.733 156.381 198.26 155.981 197.86C155.581 197.46 155.107 197.147 154.561 196.92C154.027 196.693 153.447 196.58 152.821 196.58H150.381V205.42ZM147.481 208V194H152.861C153.914 194 154.887 194.18 155.781 194.54C156.674 194.887 157.454 195.38 158.121 196.02C158.787 196.66 159.307 197.407 159.681 198.26C160.067 199.113 160.261 200.033 160.261 201.02C160.261 202.02 160.074 202.94 159.701 203.78C159.327 204.62 158.801 205.36 158.121 206C157.454 206.627 156.674 207.12 155.781 207.48C154.887 207.827 153.914 208 152.861 208H147.481ZM167.146 208.2C166.106 208.2 165.166 207.96 164.326 207.48C163.486 207 162.82 206.353 162.326 205.54C161.833 204.727 161.586 203.813 161.586 202.8C161.586 201.787 161.826 200.873 162.306 200.06C162.8 199.233 163.466 198.58 164.306 198.1C165.16 197.62 166.106 197.38 167.146 197.38C168.186 197.38 169.126 197.62 169.966 198.1C170.82 198.58 171.486 199.233 171.966 200.06C172.46 200.873 172.706 201.787 172.706 202.8C172.706 203.813 172.46 204.727 171.966 205.54C171.486 206.353 170.826 207 169.986 207.48C169.146 207.96 168.2 208.2 167.146 208.2ZM167.146 205.82C167.693 205.82 168.18 205.687 168.606 205.42C169.046 205.153 169.393 204.793 169.646 204.34C169.913 203.873 170.046 203.36 170.046 202.8C170.046 202.227 169.913 201.713 169.646 201.26C169.393 200.807 169.046 200.447 168.606 200.18C168.18 199.9 167.693 199.76 167.146 199.76C166.613 199.76 166.126 199.9 165.686 200.18C165.246 200.447 164.9 200.807 164.646 201.26C164.393 201.713 164.266 202.227 164.266 202.8C164.266 203.36 164.393 203.873 164.646 204.34C164.9 204.793 165.246 205.153 165.686 205.42C166.126 205.687 166.613 205.82 167.146 205.82ZM174.391 208V197.58H177.131V198.44C177.917 197.733 178.891 197.38 180.051 197.38C180.864 197.38 181.577 197.56 182.191 197.92C182.817 198.267 183.304 198.753 183.651 199.38C183.997 199.993 184.171 200.713 184.171 201.54V208H181.431V201.94C181.431 201.26 181.237 200.727 180.851 200.34C180.464 199.94 179.937 199.74 179.271 199.74C178.804 199.74 178.391 199.833 178.031 200.02C177.671 200.193 177.371 200.447 177.131 200.78V208H174.391ZM191.346 208.2C190.306 208.2 189.359 207.96 188.506 207.48C187.666 207 186.999 206.353 186.506 205.54C186.013 204.727 185.766 203.813 185.766 202.8C185.766 201.787 185.999 200.873 186.466 200.06C186.946 199.247 187.593 198.6 188.406 198.12C189.219 197.64 190.126 197.4 191.126 197.4C192.126 197.4 193.013 197.647 193.786 198.14C194.559 198.633 195.166 199.3 195.606 200.14C196.059 200.98 196.286 201.933 196.286 203V203.72H188.566C188.686 204.133 188.879 204.507 189.146 204.84C189.426 205.173 189.766 205.433 190.166 205.62C190.579 205.807 191.019 205.9 191.486 205.9C191.953 205.9 192.379 205.827 192.766 205.68C193.166 205.533 193.506 205.327 193.786 205.06L195.586 206.7C194.946 207.22 194.286 207.6 193.606 207.84C192.939 208.08 192.186 208.2 191.346 208.2ZM188.526 201.76H193.586C193.493 201.347 193.319 200.987 193.066 200.68C192.826 200.36 192.533 200.113 192.186 199.94C191.853 199.753 191.479 199.66 191.066 199.66C190.639 199.66 190.253 199.747 189.906 199.92C189.559 200.093 189.266 200.34 189.026 200.66C188.799 200.967 188.633 201.333 188.526 201.76ZM201.988 208V194L204.728 193.54V208H201.988ZM206.871 208V197.58H209.611V208H206.871ZM208.231 196.34C207.804 196.34 207.438 196.187 207.131 195.88C206.824 195.573 206.671 195.207 206.671 194.78C206.671 194.34 206.824 193.973 207.131 193.68C207.438 193.373 207.804 193.22 208.231 193.22C208.671 193.22 209.038 193.373 209.331 193.68C209.638 193.973 209.791 194.34 209.791 194.78C209.791 195.207 209.638 195.573 209.331 195.88C209.038 196.187 208.671 196.34 208.231 196.34ZM215.654 208.2C214.694 208.2 213.807 208.08 212.994 207.84C212.18 207.587 211.474 207.227 210.874 206.76L212.234 204.94C212.834 205.34 213.407 205.64 213.954 205.84C214.514 206.04 215.067 206.14 215.614 206.14C216.227 206.14 216.714 206.04 217.074 205.84C217.447 205.627 217.634 205.353 217.634 205.02C217.634 204.753 217.527 204.54 217.314 204.38C217.114 204.22 216.787 204.107 216.334 204.04L214.334 203.74C213.294 203.58 212.507 203.247 211.974 202.74C211.44 202.22 211.174 201.54 211.174 200.7C211.174 200.02 211.347 199.44 211.694 198.96C212.054 198.467 212.554 198.087 213.194 197.82C213.847 197.54 214.62 197.4 215.514 197.4C216.274 197.4 217.014 197.507 217.734 197.72C218.467 197.933 219.154 198.26 219.794 198.7L218.474 200.48C217.9 200.12 217.354 199.86 216.834 199.7C216.314 199.54 215.787 199.46 215.254 199.46C214.76 199.46 214.36 199.553 214.054 199.74C213.76 199.927 213.614 200.173 213.614 200.48C213.614 200.76 213.72 200.98 213.934 201.14C214.147 201.3 214.514 201.413 215.034 201.48L217.014 201.78C218.054 201.927 218.847 202.26 219.394 202.78C219.94 203.287 220.214 203.947 220.214 204.76C220.214 205.427 220.014 206.02 219.614 206.54C219.214 207.047 218.674 207.453 217.994 207.76C217.314 208.053 216.534 208.2 215.654 208.2ZM226.323 208.16C225.163 208.16 224.283 207.9 223.683 207.38C223.096 206.847 222.803 206.073 222.803 205.06V199.86H220.663V197.58H222.803V194.92L225.543 194.3V197.58H228.523V199.86H225.543V204.5C225.543 204.98 225.649 205.327 225.863 205.54C226.076 205.74 226.449 205.84 226.983 205.84C227.249 205.84 227.489 205.827 227.703 205.8C227.929 205.76 228.176 205.693 228.443 205.6V207.86C228.163 207.953 227.809 208.027 227.383 208.08C226.969 208.133 226.616 208.16 226.323 208.16Z" fill="black"/>
<rect x="20" y="227" width="335" height="280" rx="15" fill="#FAFAFA"/>
<rect width="332" height="119" rx="15" transform="matrix(1 0 0 -1 23 706)" fill="#FAFAFA"/>
<path d="M60.872 619.344V618.256H55V615.264C55.672 615.221 56.2853 615.104 56.84 614.912C57.3947 614.709 57.8693 614.448 58.264 614.128C58.6693 613.797 58.984 613.413 59.208 612.976C59.432 612.539 59.544 612.059 59.544 611.536C59.544 610.96 59.416 610.443 59.16 609.984C58.904 609.525 58.5413 609.131 58.072 608.8C57.6133 608.469 57.064 608.219 56.424 608.048C55.7947 607.867 55.1013 607.776 54.344 607.776C53.5867 607.776 52.888 607.867 52.248 608.048C51.608 608.219 51.0533 608.469 50.584 608.8C50.1253 609.131 49.7627 609.525 49.496 609.984C49.24 610.443 49.112 610.96 49.112 611.536C49.112 612.059 49.224 612.539 49.448 612.976C49.672 613.413 49.9867 613.797 50.392 614.128C50.7973 614.448 51.2773 614.709 51.832 614.912C52.3867 615.104 53 615.221 53.672 615.264V618.256H47.832V619.344H60.872ZM50.376 611.536C50.376 611.12 50.472 610.747 50.664 610.416C50.8667 610.085 51.144 609.803 51.496 609.568C51.848 609.323 52.264 609.136 52.744 609.008C53.2347 608.88 53.768 608.816 54.344 608.816C54.92 608.816 55.448 608.88 55.928 609.008C56.408 609.136 56.824 609.323 57.176 609.568C57.528 609.803 57.8 610.085 57.992 610.416C58.1947 610.747 58.296 611.12 58.296 611.536C58.296 611.952 58.1947 612.325 57.992 612.656C57.8 612.987 57.528 613.275 57.176 613.52C56.824 613.755 56.408 613.936 55.928 614.064C55.448 614.192 54.92 614.256 54.344 614.256C53.768 614.256 53.2347 614.192 52.744 614.064C52.264 613.936 51.848 613.755 51.496 613.52C51.144 613.275 50.8667 612.987 50.664 612.656C50.472 612.325 50.376 611.952 50.376 611.536ZM63.9908 611.312H73.7348V610.256H65.2868V607.04H63.9908V611.312ZM75.2548 613.792V612.72H62.2308V613.792H75.2548ZM74.0868 619.968H65.1908V618.448H73.6068V615.088H63.8468V616.096H72.2948V617.472H63.8788V620.992H74.0868V619.968ZM83.1255 612.048C84.7042 612.048 85.9362 611.84 86.8215 611.424C87.7175 610.997 88.1655 610.379 88.1655 609.568C88.1655 608.757 87.7175 608.139 86.8215 607.712C85.9362 607.285 84.7042 607.072 83.1255 607.072C81.5468 607.072 80.3095 607.285 79.4135 607.712C78.5282 608.139 78.0855 608.757 78.0855 609.568C78.0855 610.379 78.5282 610.997 79.4135 611.424C80.3095 611.84 81.5468 612.048 83.1255 612.048ZM83.1255 608.064C84.3202 608.064 85.2322 608.197 85.8615 608.464C86.5015 608.72 86.8215 609.088 86.8215 609.568C86.8215 610.048 86.5015 610.421 85.8615 610.688C85.2322 610.944 84.3202 611.072 83.1255 611.072C81.9308 611.072 81.0135 610.944 80.3735 610.688C79.7442 610.421 79.4295 610.048 79.4295 609.568C79.4295 609.088 79.7442 608.72 80.3735 608.464C81.0135 608.197 81.9308 608.064 83.1255 608.064ZM89.6215 614.08V613.024H76.6295V614.08H89.6215ZM88.3895 620H79.5255V618.544H87.9575V615.312H78.1975V616.304H86.6615V617.584H78.2455V621.024H88.3895V620ZM94.3504 609.648H102.814V608.592H99.2304V606.848H97.9184V608.592H94.3504V609.648ZM107.566 612.672V611.568H105.438V606.848H104.126V617.6H105.438V612.672H107.566ZM102.014 613.104C102.014 612.699 101.929 612.336 101.758 612.016C101.598 611.685 101.364 611.408 101.054 611.184C100.756 610.949 100.393 610.768 99.9664 610.64C99.5504 610.512 99.0864 610.448 98.5744 610.448C98.0624 610.448 97.5984 610.512 97.1824 610.64C96.7664 610.768 96.4037 610.949 96.0944 611.184C95.7957 611.408 95.561 611.685 95.3904 612.016C95.2304 612.336 95.1504 612.699 95.1504 613.104C95.1504 613.509 95.2304 613.877 95.3904 614.208C95.561 614.539 95.7957 614.821 96.0944 615.056C96.4037 615.28 96.7664 615.456 97.1824 615.584C97.5984 615.712 98.0624 615.776 98.5744 615.776C99.0864 615.776 99.5504 615.712 99.9664 615.584C100.393 615.456 100.756 615.28 101.054 615.056C101.364 614.821 101.598 614.539 101.758 614.208C101.929 613.877 102.014 613.509 102.014 613.104ZM96.3984 613.104C96.3984 612.592 96.5904 612.192 96.9744 611.904C97.369 611.616 97.9024 611.472 98.5744 611.472C99.225 611.472 99.753 611.616 100.158 611.904C100.564 612.192 100.766 612.592 100.766 613.104C100.766 613.616 100.564 614.021 100.158 614.32C99.753 614.608 99.225 614.752 98.5744 614.752C97.9024 614.752 97.369 614.608 96.9744 614.32C96.5904 614.021 96.3984 613.616 96.3984 613.104ZM106.078 619.792H97.8224V616.752H96.5104V620.864H106.078V619.792ZM119.741 613.664H122.109V612.56H119.741V606.848H118.429V621.184H119.741V613.664ZM115.853 608.272H109.277V617.536H115.853V608.272ZM114.573 616.48H110.557V609.328H114.573V616.48ZM134.844 621.216V606.832H133.532V621.216H134.844ZM125.324 616.528V609.296H130.812V608.192H124.028V617.648H125.18C125.905 617.648 126.572 617.643 127.18 617.632C127.788 617.611 128.369 617.584 128.924 617.552C129.479 617.509 130.017 617.456 130.54 617.392C131.063 617.328 131.601 617.248 132.156 617.152L132.012 616.048C131.479 616.144 130.961 616.224 130.46 616.288C129.959 616.352 129.441 616.4 128.908 616.432C128.385 616.464 127.831 616.491 127.244 616.512C126.657 616.523 126.017 616.528 125.324 616.528ZM150.523 619.408V618.336H144.651V615.632H149.243V614.576H140.411V612.256H148.907V607.888H139.083V608.96H147.627V611.2H139.115V615.632H143.323V618.336H137.483V619.408H150.523ZM165.652 606.848V610.56H162.82V611.632H165.652V615.392H166.98V606.848H165.652ZM162.964 614.848L163.62 613.824C163.097 613.643 162.622 613.403 162.196 613.104C161.769 612.795 161.401 612.448 161.092 612.064C160.793 611.669 160.558 611.248 160.388 610.8C160.217 610.352 160.132 609.899 160.132 609.44V608.944H163.284V607.888H155.62V608.944H158.82V609.44C158.82 609.952 158.729 610.453 158.548 610.944C158.377 611.435 158.132 611.893 157.812 612.32C157.492 612.736 157.108 613.109 156.66 613.44C156.222 613.771 155.737 614.032 155.204 614.224L155.892 615.264C156.734 614.944 157.47 614.464 158.1 613.824C158.729 613.184 159.198 612.448 159.508 611.616C159.817 612.352 160.27 613.003 160.868 613.568C161.465 614.133 162.164 614.56 162.964 614.848ZM162.244 615.84C161.508 615.84 160.841 615.899 160.244 616.016C159.657 616.133 159.156 616.309 158.74 616.544C158.334 616.768 158.02 617.045 157.796 617.376C157.572 617.707 157.46 618.085 157.46 618.512C157.46 618.939 157.572 619.317 157.796 619.648C158.02 619.979 158.334 620.256 158.74 620.48C159.156 620.715 159.657 620.891 160.244 621.008C160.841 621.125 161.508 621.184 162.244 621.184C162.98 621.184 163.641 621.125 164.228 621.008C164.814 620.891 165.316 620.715 165.732 620.48C166.148 620.256 166.462 619.979 166.676 619.648C166.9 619.317 167.012 618.939 167.012 618.512C167.012 618.085 166.9 617.707 166.676 617.376C166.462 617.045 166.148 616.768 165.732 616.544C165.316 616.309 164.814 616.133 164.228 616.016C163.641 615.899 162.98 615.84 162.244 615.84ZM162.244 620.16C161.145 620.16 160.292 620.016 159.684 619.728C159.076 619.44 158.772 619.035 158.772 618.512C158.772 617.989 159.076 617.584 159.684 617.296C160.292 616.997 161.145 616.848 162.244 616.848C163.342 616.848 164.196 616.997 164.804 617.296C165.412 617.584 165.716 617.989 165.716 618.512C165.716 619.035 165.412 619.44 164.804 619.728C164.196 620.016 163.342 620.16 162.244 620.16ZM181.33 621.2V606.816H180.018V621.2H181.33ZM171.698 616.64V613.296H176.994V608.16H170.338V609.232H175.666V612.224H170.386V617.728H171.57C172.189 617.728 172.792 617.723 173.378 617.712C173.965 617.691 174.552 617.664 175.138 617.632C175.725 617.589 176.317 617.536 176.914 617.472C177.522 617.397 178.152 617.307 178.802 617.2L178.674 616.128C177.426 616.32 176.242 616.453 175.122 616.528C174.013 616.603 172.872 616.64 171.698 616.64ZM195.009 613.84H197.361V612.736H195.009V606.848H193.697V621.184H195.009V613.84ZM192.337 609.136H188.801V607.008H187.489V609.136H183.873V610.192H192.337V609.136ZM188.161 611.376C187.66 611.376 187.196 611.461 186.769 611.632C186.342 611.792 185.974 612.021 185.665 612.32C185.356 612.608 185.116 612.955 184.945 613.36C184.774 613.765 184.689 614.208 184.689 614.688C184.689 615.179 184.774 615.627 184.945 616.032C185.116 616.437 185.356 616.784 185.665 617.072C185.974 617.36 186.342 617.584 186.769 617.744C187.196 617.904 187.66 617.984 188.161 617.984C188.673 617.984 189.142 617.904 189.569 617.744C189.996 617.584 190.364 617.36 190.673 617.072C190.993 616.784 191.238 616.437 191.409 616.032C191.58 615.627 191.665 615.179 191.665 614.688C191.665 614.208 191.58 613.765 191.409 613.36C191.238 612.955 190.993 612.608 190.673 612.32C190.364 612.021 189.996 611.792 189.569 611.632C189.142 611.461 188.673 611.376 188.161 611.376ZM188.161 616.896C187.841 616.896 187.542 616.843 187.265 616.736C186.988 616.619 186.748 616.464 186.545 616.272C186.353 616.08 186.198 615.851 186.081 615.584C185.974 615.307 185.921 615.008 185.921 614.688C185.921 614.368 185.974 614.075 186.081 613.808C186.198 613.531 186.353 613.296 186.545 613.104C186.748 612.901 186.988 612.747 187.265 612.64C187.542 612.523 187.841 612.464 188.161 612.464C188.492 612.464 188.796 612.523 189.073 612.64C189.35 612.747 189.585 612.901 189.777 613.104C189.98 613.296 190.134 613.531 190.241 613.808C190.358 614.075 190.417 614.368 190.417 614.688C190.417 615.008 190.358 615.307 190.241 615.584C190.134 615.851 189.98 616.08 189.777 616.272C189.585 616.464 189.35 616.619 189.073 616.736C188.796 616.843 188.492 616.896 188.161 616.896ZM199.728 609.344H208.48V609.696C208.48 610.549 208.458 611.504 208.416 612.56C208.373 613.616 208.213 614.827 207.936 616.192L209.248 616.336C209.386 615.611 209.493 614.944 209.568 614.336C209.642 613.717 209.696 613.141 209.728 612.608C209.76 612.064 209.776 611.557 209.776 611.088C209.786 610.608 209.792 610.144 209.792 609.696V608.272H199.728V609.344ZM211.344 619.168V618.096H204.72V612.96H203.408V618.096H198.368V619.168H211.344ZM227.785 615.136L228.377 614.048C227.747 613.931 227.118 613.712 226.489 613.392C225.87 613.072 225.31 612.688 224.809 612.24C224.318 611.781 223.918 611.269 223.609 610.704C223.299 610.139 223.145 609.552 223.145 608.944V607.84H221.769V608.944C221.769 609.563 221.614 610.155 221.305 610.72C220.995 611.275 220.59 611.781 220.089 612.24C219.598 612.688 219.043 613.072 218.425 613.392C217.806 613.701 217.182 613.92 216.553 614.048L217.145 615.136C217.678 615.008 218.211 614.821 218.745 614.576C219.289 614.32 219.795 614.016 220.265 613.664C220.745 613.301 221.171 612.896 221.545 612.448C221.929 612 222.233 611.515 222.457 610.992C222.681 611.515 222.979 612.005 223.353 612.464C223.737 612.912 224.163 613.312 224.633 613.664C225.113 614.016 225.619 614.32 226.153 614.576C226.697 614.821 227.241 615.008 227.785 615.136ZM229.017 619.264V618.176H216.009V619.264H229.017ZM242.183 621.168V606.832H240.871V621.168H242.183ZM232.615 616.656V613.216H237.751V612.16H232.615V609.2H238.279V608.128H231.319V617.728H232.455C233.138 617.728 233.773 617.723 234.359 617.712C234.957 617.691 235.533 617.664 236.087 617.632C236.642 617.6 237.186 617.552 237.719 617.488C238.253 617.424 238.797 617.344 239.351 617.248L239.223 616.176C238.69 616.272 238.167 616.352 237.655 616.416C237.143 616.48 236.621 616.528 236.087 616.56C235.565 616.592 235.015 616.619 234.439 616.64C233.874 616.651 233.266 616.656 232.615 616.656ZM256.614 621.184V606.848H255.302V612.592H251.99V613.664H255.302V621.184H256.614ZM252.038 608.32H245.59V609.392H250.742C250.71 609.84 250.657 610.272 250.582 610.688C250.518 611.104 250.417 611.515 250.278 611.92L244.854 612.272L245.094 613.408L249.878 612.96C249.43 613.92 248.801 614.805 247.99 615.616C247.179 616.427 246.118 617.152 244.806 617.792L245.542 618.832C246.811 618.192 247.862 617.483 248.694 616.704C249.526 615.915 250.187 615.077 250.678 614.192C251.179 613.296 251.531 612.357 251.734 611.376C251.937 610.384 252.038 609.365 252.038 608.32ZM272.229 619.408V618.336H266.357V615.632H270.949V614.576H262.117V612.256H270.613V607.888H260.789V608.96H269.333V611.2H260.821V615.632H265.029V618.336H259.189V619.408H272.229ZM283.998 614.88H289.822V613.808H287.838C288.104 612.528 288.259 611.445 288.302 610.56C288.344 609.675 288.366 608.976 288.366 608.464V607.824H283.598V608.896H287.07C287.059 609.44 287.022 610.112 286.958 610.912C286.904 611.712 286.76 612.677 286.526 613.808H281.902C282.222 612.453 282.408 611.312 282.462 610.384C282.515 609.445 282.542 608.752 282.542 608.304V607.824H277.902V608.896H281.262C281.251 609.44 281.203 610.112 281.118 610.912C281.032 611.712 280.84 612.677 280.542 613.808H276.846V614.88H282.686V621.184H283.998V614.88ZM303.085 621.216V606.832H301.773V610.272H298.365V608.24H291.837V617.552H298.365V615.296H301.773V621.216H303.085ZM293.117 609.28H297.069V616.512H293.117V609.28ZM301.773 611.344V614.224H298.365V611.344H301.773ZM318.667 619.344V618.272H312.811V615.184H317.099V607.856H315.819V610.416H308.491V607.856H307.195V615.184H311.483V618.272H305.659V619.344H318.667ZM315.819 614.128H308.491V611.488H315.819V614.128ZM332.25 621.184V606.832H331.002V621.184H332.25ZM329.322 607.152H328.09V611.984H325.722V613.072H328.09V620.48H329.322V607.152ZM324.314 610.88V608.192H323.05V610.928C323.05 611.547 322.975 612.165 322.826 612.784C322.687 613.392 322.479 613.973 322.202 614.528C321.935 615.072 321.605 615.568 321.21 616.016C320.826 616.464 320.389 616.832 319.898 617.12L320.714 618.112C321.429 617.664 322.037 617.061 322.538 616.304C323.05 615.536 323.434 614.667 323.69 613.696C323.946 614.571 324.309 615.371 324.778 616.096C325.258 616.811 325.839 617.376 326.522 617.792L327.274 616.768C326.805 616.48 326.383 616.123 326.01 615.696C325.647 615.259 325.338 614.779 325.082 614.256C324.837 613.733 324.645 613.184 324.506 612.608C324.378 612.032 324.314 611.456 324.314 610.88ZM60.872 644.344V643.256H57.656V639.368C58.264 639.059 58.728 638.653 59.048 638.152C59.3787 637.651 59.544 637.075 59.544 636.424C59.544 635.869 59.416 635.368 59.16 634.92C58.904 634.461 58.5413 634.072 58.072 633.752C57.6133 633.432 57.064 633.187 56.424 633.016C55.7947 632.835 55.096 632.744 54.328 632.744C53.5707 632.744 52.872 632.835 52.232 633.016C51.592 633.187 51.0373 633.432 50.568 633.752C50.1093 634.072 49.752 634.461 49.496 634.92C49.24 635.368 49.112 635.869 49.112 636.424C49.112 637.075 49.2773 637.656 49.608 638.168C49.9493 638.669 50.424 639.075 51.032 639.384V643.256H47.832V644.344H60.872ZM54.328 633.768C54.904 633.768 55.432 633.832 55.912 633.96C56.4027 634.088 56.824 634.269 57.176 634.504C57.528 634.728 57.8 635.005 57.992 635.336C58.1947 635.656 58.296 636.019 58.296 636.424C58.296 636.819 58.1947 637.181 57.992 637.512C57.8 637.843 57.528 638.125 57.176 638.36C56.824 638.584 56.4027 638.76 55.912 638.888C55.432 639.016 54.904 639.08 54.328 639.08C53.752 639.08 53.2187 639.016 52.728 638.888C52.248 638.76 51.832 638.584 51.48 638.36C51.1387 638.125 50.8667 637.843 50.664 637.512C50.472 637.181 50.376 636.819 50.376 636.424C50.376 636.019 50.472 635.656 50.664 635.336C50.8667 635.005 51.1387 634.728 51.48 634.504C51.832 634.269 52.248 634.088 52.728 633.96C53.2187 633.832 53.752 633.768 54.328 633.768ZM56.344 643.256H52.344V639.88C52.6533 639.955 52.9733 640.013 53.304 640.056C53.6347 640.088 53.976 640.104 54.328 640.104C54.9573 640.104 55.6293 640.029 56.344 639.88V643.256ZM64.4868 633.016H62.9988L63.2388 642.136H64.2468L64.4868 633.016ZM63.0148 645.208H64.4708V643.704H63.0148V645.208ZM72.8484 647.288L73.7604 646.856C73.0564 645.693 72.539 644.472 72.2084 643.192C71.8777 641.912 71.7124 640.568 71.7124 639.16C71.7124 637.752 71.8777 636.408 72.2084 635.128C72.539 633.848 73.0564 632.627 73.7604 631.464L72.8484 631.048C72.1124 632.243 71.5364 633.501 71.1204 634.824C70.7044 636.147 70.4964 637.592 70.4964 639.16C70.4964 640.739 70.7044 642.189 71.1204 643.512C71.5364 644.835 72.1124 646.093 72.8484 647.288ZM86.6546 646.2V631.832H85.3426V646.2H86.6546ZM75.4706 638.872L76.0786 639.896C76.9426 639.619 77.6893 639.213 78.3186 638.68C78.9586 638.136 79.4333 637.48 79.7426 636.712C80.0733 637.427 80.548 638.045 81.1666 638.568C81.796 639.091 82.5426 639.48 83.4066 639.736L84.0146 638.728C83.492 638.568 83.0066 638.36 82.5586 638.104C82.1213 637.837 81.7426 637.533 81.4226 637.192C81.1026 636.851 80.852 636.477 80.6706 636.072C80.4893 635.656 80.3933 635.219 80.3826 634.76H83.6946V633.704H80.3826V631.944H79.0706V633.704H75.8066V634.76H79.0706C79.06 635.229 78.964 635.677 78.7826 636.104C78.612 636.531 78.3666 636.925 78.0466 637.288C77.7373 637.64 77.364 637.955 76.9266 638.232C76.4893 638.499 76.004 638.712 75.4706 638.872ZM80.3826 642.024V639.416H79.0706V642.088C78.3346 642.109 77.6306 642.125 76.9586 642.136C76.2866 642.136 75.6466 642.136 75.0386 642.136L75.2146 643.24C75.8546 643.24 76.548 643.235 77.2946 643.224C78.0413 643.213 78.8146 643.192 79.6146 643.16C80.4146 643.117 81.2306 643.053 82.0626 642.968C82.8946 642.883 83.7106 642.765 84.5106 642.616L84.3986 641.64C83.7586 641.747 83.0973 641.827 82.4146 641.88C81.732 641.933 81.0546 641.981 80.3826 642.024ZM101.549 646.184V631.832H100.285V637.592H98.2534V632.152H97.0214V645.464H98.2534V638.664H100.285V646.184H101.549ZM91.1654 641.56V634.648H95.2134V633.576H89.8694V642.648H90.8134C91.3467 642.648 91.8427 642.643 92.3014 642.632C92.76 642.621 93.2027 642.605 93.6294 642.584C94.056 642.552 94.472 642.509 94.8774 642.456C95.2827 642.392 95.6987 642.312 96.1254 642.216L96.0134 641.128C95.6294 641.213 95.2454 641.283 94.8614 641.336C94.488 641.389 94.104 641.432 93.7094 641.464C93.3254 641.496 92.9254 641.523 92.5094 641.544C92.0934 641.555 91.6454 641.56 91.1654 641.56ZM115.27 639.16C115.27 638.115 115.158 637.213 114.934 636.456C114.71 635.688 114.406 635.053 114.022 634.552C113.638 634.051 113.185 633.683 112.662 633.448C112.14 633.203 111.574 633.08 110.966 633.08C110.358 633.08 109.793 633.203 109.27 633.448C108.748 633.683 108.289 634.051 107.894 634.552C107.51 635.053 107.206 635.688 106.982 636.456C106.769 637.213 106.662 638.115 106.662 639.16C106.662 640.195 106.769 641.096 106.982 641.864C107.206 642.621 107.51 643.251 107.894 643.752C108.289 644.253 108.748 644.627 109.27 644.872C109.793 645.107 110.358 645.224 110.966 645.224C111.574 645.224 112.14 645.107 112.662 644.872C113.185 644.627 113.638 644.253 114.022 643.752C114.406 643.251 114.71 642.621 114.934 641.864C115.158 641.096 115.27 640.195 115.27 639.16ZM113.798 639.16C113.798 640.067 113.718 640.835 113.558 641.464C113.409 642.083 113.201 642.584 112.934 642.968C112.678 643.352 112.38 643.629 112.038 643.8C111.697 643.96 111.34 644.04 110.966 644.04C110.593 644.04 110.236 643.96 109.894 643.8C109.553 643.629 109.254 643.352 108.998 642.968C108.742 642.584 108.534 642.083 108.374 641.464C108.225 640.835 108.15 640.067 108.15 639.16C108.15 638.243 108.225 637.475 108.374 636.856C108.534 636.227 108.742 635.725 108.998 635.352C109.254 634.968 109.553 634.696 109.894 634.536C110.236 634.365 110.593 634.28 110.966 634.28C111.34 634.28 111.697 634.365 112.038 634.536C112.38 634.696 112.678 634.968 112.934 635.352C113.201 635.725 113.409 636.227 113.558 636.856C113.718 637.475 113.798 638.243 113.798 639.16ZM124.482 639.16C124.482 638.115 124.37 637.213 124.146 636.456C123.922 635.688 123.618 635.053 123.234 634.552C122.85 634.051 122.396 633.683 121.874 633.448C121.351 633.203 120.786 633.08 120.178 633.08C119.57 633.08 119.004 633.203 118.482 633.448C117.959 633.683 117.5 634.051 117.106 634.552C116.722 635.053 116.418 635.688 116.194 636.456C115.98 637.213 115.874 638.115 115.874 639.16C115.874 640.195 115.98 641.096 116.194 641.864C116.418 642.621 116.722 643.251 117.106 643.752C117.5 644.253 117.959 644.627 118.482 644.872C119.004 645.107 119.57 645.224 120.178 645.224C120.786 645.224 121.351 645.107 121.874 644.872C122.396 644.627 122.85 644.253 123.234 643.752C123.618 643.251 123.922 642.621 124.146 641.864C124.37 641.096 124.482 640.195 124.482 639.16ZM123.01 639.16C123.01 640.067 122.93 640.835 122.77 641.464C122.62 642.083 122.412 642.584 122.146 642.968C121.89 643.352 121.591 643.629 121.25 643.8C120.908 643.96 120.551 644.04 120.178 644.04C119.804 644.04 119.447 643.96 119.106 643.8C118.764 643.629 118.466 643.352 118.21 642.968C117.954 642.584 117.746 642.083 117.586 641.464C117.436 640.835 117.362 640.067 117.362 639.16C117.362 638.243 117.436 637.475 117.586 636.856C117.746 636.227 117.954 635.725 118.21 635.352C118.466 634.968 118.764 634.696 119.106 634.536C119.447 634.365 119.804 634.28 120.178 634.28C120.551 634.28 120.908 634.365 121.25 634.536C121.591 634.696 121.89 634.968 122.146 635.352C122.412 635.725 122.62 636.227 122.77 636.856C122.93 637.475 123.01 638.243 123.01 639.16ZM138.461 638.232V637.176H136.461C136.621 636.365 136.711 635.651 136.733 635.032C136.765 634.403 136.781 633.843 136.781 633.352V632.44H127.101V633.496H135.485C135.485 633.976 135.469 634.509 135.437 635.096C135.405 635.683 135.309 636.376 135.149 637.176H125.437V638.232H138.461ZM137.181 644.968H128.317V643.288H136.829V639.672H126.973V640.712H135.517V642.296H127.021V646.008H137.181V644.968ZM150.876 638.728H153.244V637.624H150.876V631.848H149.564V646.184H150.876V638.728ZM144.668 636.216V634.392H147.852V633.304H140.092V634.392H143.372V636.216C143.372 636.824 143.27 637.443 143.068 638.072C142.865 638.691 142.593 639.277 142.252 639.832C141.91 640.387 141.51 640.888 141.052 641.336C140.593 641.784 140.108 642.136 139.596 642.392L140.364 643.432C140.769 643.229 141.153 642.968 141.516 642.648C141.889 642.317 142.236 641.949 142.556 641.544C142.876 641.128 143.158 640.68 143.404 640.2C143.66 639.709 143.868 639.203 144.028 638.68C144.188 639.16 144.39 639.624 144.636 640.072C144.881 640.509 145.158 640.92 145.468 641.304C145.777 641.677 146.113 642.019 146.476 642.328C146.849 642.627 147.233 642.877 147.628 643.08L148.38 642.024C147.857 641.779 147.372 641.448 146.924 641.032C146.476 640.605 146.081 640.131 145.74 639.608C145.409 639.085 145.148 638.536 144.956 637.96C144.764 637.373 144.668 636.792 144.668 636.216ZM154.074 646.76L154.97 647.192C155.717 645.997 156.298 644.739 156.714 643.416C157.13 642.093 157.338 640.643 157.338 639.064C157.338 637.496 157.13 636.051 156.714 634.728C156.298 633.405 155.717 632.147 154.97 630.952L154.074 631.368C154.778 632.531 155.296 633.752 155.626 635.032C155.957 636.312 156.122 637.656 156.122 639.064C156.122 640.472 155.957 641.816 155.626 643.096C155.296 644.376 154.778 645.597 154.074 646.76Z" fill="#939393"/>
<path d="M59.672 263.216V248.832H58.36V252.048H54.68C54.3707 251.376 53.96 250.859 53.448 250.496C52.9467 250.123 52.36 249.936 51.688 249.936C51.1653 249.936 50.6853 250.053 50.248 250.288C49.8107 250.523 49.432 250.859 49.112 251.296C48.792 251.733 48.5413 252.261 48.36 252.88C48.1893 253.488 48.104 254.176 48.104 254.944C48.104 255.712 48.1893 256.405 48.36 257.024C48.5413 257.632 48.792 258.155 49.112 258.592C49.432 259.029 49.8107 259.365 50.248 259.6C50.6853 259.835 51.1653 259.952 51.688 259.952C52.392 259.952 53.0053 259.755 53.528 259.36C54.0613 258.955 54.4773 258.384 54.776 257.648H58.36V263.216H59.672ZM51.688 258.784C51.3467 258.784 51.032 258.693 50.744 258.512C50.456 258.331 50.2053 258.075 49.992 257.744C49.7893 257.403 49.6293 256.997 49.512 256.528C49.4053 256.059 49.352 255.531 49.352 254.944C49.352 254.368 49.4053 253.845 49.512 253.376C49.6293 252.896 49.7893 252.491 49.992 252.16C50.2053 251.829 50.456 251.573 50.744 251.392C51.032 251.211 51.3467 251.12 51.688 251.12C52.0293 251.12 52.3387 251.211 52.616 251.392C52.904 251.573 53.1493 251.829 53.352 252.16C53.5653 252.491 53.7307 252.896 53.848 253.376C53.9653 253.845 54.024 254.368 54.024 254.944C54.024 255.531 53.9653 256.059 53.848 256.528C53.7307 256.997 53.5653 257.403 53.352 257.744C53.1493 258.075 52.904 258.331 52.616 258.512C52.3387 258.693 52.0293 258.784 51.688 258.784ZM58.36 253.12V256.576H55.096C55.2027 256.16 55.256 255.616 55.256 254.944C55.256 254.613 55.2347 254.299 55.192 254C55.16 253.691 55.112 253.397 55.048 253.12H58.36ZM74.0228 263.184V248.832H72.7108V263.184H74.0228ZM69.8148 250.384H63.0948V251.44H68.4868C68.3481 253.147 67.7881 254.677 66.8068 256.032C65.8254 257.387 64.3694 258.523 62.4388 259.44L63.1428 260.512C64.3374 259.925 65.3561 259.264 66.1988 258.528C67.0414 257.781 67.7294 256.981 68.2628 256.128C68.8068 255.264 69.2014 254.352 69.4468 253.392C69.6921 252.421 69.8148 251.419 69.8148 250.384ZM78.2775 250.176H86.6935V251.344H78.3095V254.416H88.2455V253.472H79.6055V252.24H87.9895V249.248H78.2775V250.176ZM89.6535 256.496V255.504H76.6455V256.496H89.6535ZM88.4855 262.048H79.5255V260.72H88.0375V257.664H78.1975V258.608H86.7415V259.808H78.2295V262.992H88.4855V262.048ZM96.0464 253.312H105.79V252.256H97.3424V249.04H96.0464V253.312ZM101.438 257.136V255.632H107.31V254.56H94.3024V255.632H100.126V257.136H95.9024V258.144H104.35V259.488H95.9344V263.024H106.142V262H97.2464V260.448H105.662V257.136H101.438ZM120.509 263.2V248.816H119.197V254.352H116.461V255.424H119.197V263.2H120.509ZM110.525 258.656V255.184H115.613V250.16H109.197V251.232H114.333V254.128H109.229V259.744H110.333C110.984 259.744 111.586 259.739 112.141 259.728C112.706 259.717 113.25 259.696 113.773 259.664C114.306 259.621 114.824 259.573 115.325 259.52C115.837 259.456 116.365 259.376 116.909 259.28L116.781 258.192C116.269 258.288 115.768 258.368 115.277 258.432C114.786 258.485 114.29 258.533 113.789 258.576C113.298 258.608 112.781 258.629 112.237 258.64C111.704 258.651 111.133 258.656 110.525 258.656ZM136.854 248.848V252.816H132.822V253.872H136.854V259.312H138.182V248.848H136.854ZM134.694 256.736L134.55 255.664C134.07 255.76 133.601 255.84 133.142 255.904C132.694 255.957 132.23 256.005 131.75 256.048C131.27 256.08 130.763 256.101 130.23 256.112C129.697 256.123 129.115 256.128 128.486 256.128V251.088H133.75V250.016H127.174V257.2H128.262C128.934 257.2 129.547 257.195 130.102 257.184C130.667 257.173 131.206 257.152 131.718 257.12C132.23 257.077 132.726 257.029 133.206 256.976C133.686 256.912 134.182 256.832 134.694 256.736ZM138.55 262.96V261.888H130.294V258.544H128.982V262.96H138.55ZM152.533 263.2V248.816H151.221V263.2H152.533ZM142.901 258.64V255.296H148.197V250.16H141.541V251.232H146.869V254.224H141.589V259.728H142.773C143.391 259.728 143.994 259.723 144.581 259.712C145.167 259.691 145.754 259.664 146.341 259.632C146.927 259.589 147.519 259.536 148.117 259.472C148.725 259.397 149.354 259.307 150.005 259.2L149.877 258.128C148.629 258.32 147.445 258.453 146.325 258.528C145.215 258.603 144.074 258.64 142.901 258.64ZM166.932 257.136L167.524 256.048C166.894 255.931 166.265 255.712 165.636 255.392C165.017 255.072 164.457 254.688 163.956 254.24C163.465 253.781 163.065 253.269 162.756 252.704C162.446 252.139 162.292 251.552 162.292 250.944V249.84H160.916V250.944C160.916 251.563 160.761 252.155 160.452 252.72C160.142 253.275 159.737 253.781 159.236 254.24C158.745 254.688 158.19 255.072 157.572 255.392C156.953 255.701 156.329 255.92 155.7 256.048L156.292 257.136C156.825 257.008 157.358 256.821 157.892 256.576C158.436 256.32 158.942 256.016 159.412 255.664C159.892 255.301 160.318 254.896 160.692 254.448C161.076 254 161.38 253.515 161.604 252.992C161.828 253.515 162.126 254.005 162.5 254.464C162.884 254.912 163.31 255.312 163.78 255.664C164.26 256.016 164.766 256.32 165.3 256.576C165.844 256.821 166.388 257.008 166.932 257.136ZM168.164 261.264V260.176H155.156V261.264H168.164ZM171.218 257.632H181.074V256.576H172.546V254.304H180.61V253.264H172.546V251.136H180.93V250.08H171.218V257.632ZM182.562 261.328V260.256H169.538V261.328H182.562ZM185.585 250.176H194.001V251.344H185.617V254.416H195.553V253.472H186.913V252.24H195.297V249.248H185.585V250.176ZM196.961 256.496V255.504H183.953V256.496H196.961ZM195.793 262.048H186.833V260.72H195.345V257.664H185.505V258.608H194.049V259.808H185.537V262.992H195.793V262.048ZM212.746 253.696H214.874V252.608H212.746V248.848H211.434V257.488H212.746V253.696ZM209.274 256.88L209.946 255.856C209.423 255.675 208.943 255.435 208.506 255.136C208.079 254.827 207.711 254.48 207.402 254.096C207.103 253.712 206.869 253.296 206.698 252.848C206.538 252.4 206.458 251.936 206.458 251.456V250.896H209.626V249.84H201.93V250.896H205.146V251.472C205.146 251.984 205.061 252.48 204.89 252.96C204.719 253.44 204.474 253.883 204.154 254.288C203.845 254.693 203.466 255.056 203.018 255.376C202.581 255.685 202.09 255.936 201.546 256.128L202.234 257.168C203.077 256.859 203.807 256.4 204.426 255.792C205.045 255.184 205.509 254.48 205.818 253.68C206.127 254.416 206.581 255.067 207.178 255.632C207.775 256.187 208.474 256.603 209.274 256.88ZM212.746 258.256H203.402V259.312H211.434V263.2H212.746V258.256ZM223.385 252.96H226.505V257.328H227.833V248.848H226.505V251.888H223.385V252.96ZM223.721 256.656L224.425 255.632C223.902 255.451 223.422 255.205 222.985 254.896C222.558 254.587 222.19 254.235 221.881 253.84C221.582 253.445 221.347 253.013 221.177 252.544C221.017 252.075 220.937 251.584 220.937 251.072V249.648H219.625V251.12C219.625 251.664 219.539 252.192 219.369 252.704C219.198 253.205 218.953 253.669 218.633 254.096C218.323 254.523 217.945 254.901 217.497 255.232C217.049 255.563 216.547 255.824 215.993 256.016L216.681 257.088C217.545 256.757 218.286 256.283 218.905 255.664C219.534 255.045 220.003 254.304 220.313 253.44C220.622 254.187 221.065 254.837 221.641 255.392C222.227 255.936 222.921 256.357 223.721 256.656ZM223.097 257.76C222.361 257.76 221.694 257.819 221.097 257.936C220.51 258.053 220.009 258.229 219.593 258.464C219.187 258.699 218.873 258.981 218.649 259.312C218.425 259.643 218.313 260.027 218.313 260.464C218.313 260.891 218.425 261.275 218.649 261.616C218.873 261.947 219.187 262.224 219.593 262.448C220.009 262.683 220.51 262.859 221.097 262.976C221.694 263.104 222.361 263.168 223.097 263.168C223.833 263.168 224.494 263.104 225.081 262.976C225.667 262.859 226.169 262.683 226.585 262.448C227.001 262.224 227.315 261.947 227.529 261.616C227.753 261.275 227.865 260.891 227.865 260.464C227.865 260.027 227.753 259.643 227.529 259.312C227.315 258.981 227.001 258.699 226.585 258.464C226.169 258.229 225.667 258.053 225.081 257.936C224.494 257.819 223.833 257.76 223.097 257.76ZM223.097 262.128C221.998 262.128 221.145 261.984 220.537 261.696C219.929 261.397 219.625 260.987 219.625 260.464C219.625 259.92 219.929 259.504 220.537 259.216C221.145 258.928 221.998 258.784 223.097 258.784C224.195 258.784 225.049 258.928 225.657 259.216C226.265 259.504 226.569 259.92 226.569 260.464C226.569 260.987 226.265 261.397 225.657 261.696C225.049 261.984 224.195 262.128 223.097 262.128ZM242.567 263.168V248.816H241.303V254.88H239.463V249.152H238.231V262.48H239.463V255.952H241.303V263.168H242.567ZM237.511 251.28H234.599V249.248H233.303V251.28H230.391V252.352H237.511V251.28ZM233.959 253.312C233.511 253.312 233.101 253.392 232.727 253.552C232.354 253.712 232.029 253.936 231.751 254.224C231.485 254.512 231.271 254.859 231.111 255.264C230.962 255.659 230.887 256.096 230.887 256.576C230.887 257.067 230.962 257.515 231.111 257.92C231.271 258.315 231.485 258.656 231.751 258.944C232.029 259.232 232.354 259.456 232.727 259.616C233.101 259.776 233.511 259.856 233.959 259.856C234.407 259.856 234.818 259.776 235.191 259.616C235.565 259.456 235.885 259.232 236.151 258.944C236.429 258.656 236.642 258.315 236.791 257.92C236.951 257.515 237.031 257.067 237.031 256.576C237.031 256.096 236.951 255.659 236.791 255.264C236.642 254.859 236.429 254.512 236.151 254.224C235.885 253.936 235.565 253.712 235.191 253.552C234.818 253.392 234.407 253.312 233.959 253.312ZM233.959 258.768C233.682 258.768 233.426 258.715 233.191 258.608C232.957 258.501 232.754 258.352 232.583 258.16C232.423 257.957 232.295 257.723 232.199 257.456C232.103 257.189 232.055 256.896 232.055 256.576C232.055 255.936 232.226 255.419 232.567 255.024C232.919 254.619 233.383 254.416 233.959 254.416C234.237 254.416 234.493 254.469 234.727 254.576C234.962 254.683 235.159 254.832 235.319 255.024C235.49 255.216 235.623 255.445 235.719 255.712C235.815 255.979 235.863 256.267 235.863 256.576C235.863 256.896 235.815 257.189 235.719 257.456C235.623 257.723 235.49 257.957 235.319 258.16C235.159 258.352 234.962 258.501 234.727 258.608C234.493 258.715 234.237 258.768 233.959 258.768ZM257.814 261.344V260.272H251.958V257.184H256.246V249.856H254.966V252.416H247.638V249.856H246.342V257.184H250.63V260.272H244.806V261.344H257.814ZM254.966 256.128H247.638V253.488H254.966V256.128ZM271.397 263.184V248.832H270.149V263.184H271.397ZM268.469 249.152H267.237V253.984H264.869V255.072H267.237V262.48H268.469V249.152ZM263.461 252.88V250.192H262.197V252.928C262.197 253.547 262.122 254.165 261.973 254.784C261.834 255.392 261.626 255.973 261.349 256.528C261.082 257.072 260.752 257.568 260.357 258.016C259.973 258.464 259.536 258.832 259.045 259.12L259.861 260.112C260.576 259.664 261.184 259.061 261.685 258.304C262.197 257.536 262.581 256.667 262.837 255.696C263.093 256.571 263.456 257.371 263.925 258.096C264.405 258.811 264.986 259.376 265.669 259.792L266.421 258.768C265.952 258.48 265.53 258.123 265.157 257.696C264.794 257.259 264.485 256.779 264.229 256.256C263.984 255.733 263.792 255.184 263.653 254.608C263.525 254.032 263.461 253.456 263.461 252.88ZM286.628 261.344V260.256H283.412V256.368C284.02 256.059 284.484 255.653 284.804 255.152C285.134 254.651 285.3 254.075 285.3 253.424C285.3 252.869 285.172 252.368 284.916 251.92C284.66 251.461 284.297 251.072 283.828 250.752C283.369 250.432 282.82 250.187 282.18 250.016C281.55 249.835 280.852 249.744 280.084 249.744C279.326 249.744 278.628 249.835 277.988 250.016C277.348 250.187 276.793 250.432 276.324 250.752C275.865 251.072 275.508 251.461 275.252 251.92C274.996 252.368 274.868 252.869 274.868 253.424C274.868 254.075 275.033 254.656 275.364 255.168C275.705 255.669 276.18 256.075 276.788 256.384V260.256H273.588V261.344H286.628ZM280.084 250.768C280.66 250.768 281.188 250.832 281.668 250.96C282.158 251.088 282.58 251.269 282.932 251.504C283.284 251.728 283.556 252.005 283.748 252.336C283.95 252.656 284.052 253.019 284.052 253.424C284.052 253.819 283.95 254.181 283.748 254.512C283.556 254.843 283.284 255.125 282.932 255.36C282.58 255.584 282.158 255.76 281.668 255.888C281.188 256.016 280.66 256.08 280.084 256.08C279.508 256.08 278.974 256.016 278.484 255.888C278.004 255.76 277.588 255.584 277.236 255.36C276.894 255.125 276.622 254.843 276.42 254.512C276.228 254.181 276.132 253.819 276.132 253.424C276.132 253.019 276.228 252.656 276.42 252.336C276.622 252.005 276.894 251.728 277.236 251.504C277.588 251.269 278.004 251.088 278.484 250.96C278.974 250.832 279.508 250.768 280.084 250.768ZM282.1 260.256H278.1V256.88C278.409 256.955 278.729 257.013 279.06 257.056C279.39 257.088 279.732 257.104 280.084 257.104C280.713 257.104 281.385 257.029 282.1 256.88V260.256ZM290.242 250.016H288.754L288.994 259.136H290.002L290.242 250.016ZM288.77 262.208H290.226V260.704H288.77V262.208Z" fill="#939393"/>
<path d="M145.924 554.32C145.924 552.44 147.664 551.34 150.184 551.34C152.724 551.34 154.464 552.44 154.464 554.32C154.464 556.2 152.724 557.3 150.184 557.3C147.664 557.3 145.924 556.2 145.924 554.32ZM151.504 562.44V559.32C154.764 558.94 157.064 557.06 157.064 554.32C157.064 551.24 154.124 549.24 150.184 549.24C146.264 549.24 143.324 551.24 143.324 554.32C143.324 557.06 145.624 558.92 148.864 559.32V562.44H141.864V564.58H158.544V562.44H151.504ZM175.022 552H164.962V548.48H162.322V554.08H175.022V552ZM164.822 563.36H174.982V558.48H162.142V560.46H172.322V561.5H162.162V566.5H175.502V564.52H164.822V563.36ZM160.262 555.26V557.34H176.942V555.26H160.262ZM189.521 550.24H185.401V548.28H182.741V550.24H178.661V552.3H189.501L189.521 550.24ZM182.081 556.5C182.081 555.5 182.901 554.96 184.081 554.96C185.241 554.96 186.081 555.5 186.081 556.5C186.081 557.52 185.241 558.06 184.081 558.06C182.901 558.06 182.081 557.52 182.081 556.5ZM188.601 556.5C188.601 554.42 186.721 552.96 184.081 552.96C181.441 552.96 179.561 554.42 179.561 556.5C179.561 558.62 181.441 560.06 184.081 560.06C186.721 560.06 188.601 558.62 188.601 556.5ZM183.921 561.06H181.281V566.4H193.821V564.3H183.921V561.06ZM193.161 553.92V548.3H190.521V562.08H193.161V556.1H195.601V553.92H193.161ZM200.219 552.12H203.819V560.16H200.219V552.12ZM197.619 562.24H206.419V550.04H197.619V562.24ZM214.159 555.24H211.479V548.32H208.839V566.72H211.479V557.42H214.159V555.24ZM219.198 552.08H225.458V549.94H216.558V562.38H218.178C222.098 562.38 224.438 562.3 226.938 561.82L226.698 559.64C224.478 560.06 222.418 560.16 219.198 560.18V552.08ZM228.078 548.3V566.78H230.718V548.3H228.078Z" fill="black"/>
</svg>
