<svg width="74" height="76" viewBox="0 0 74 76" fill="none" xmlns="http://www.w3.org/2000/svg">
<path d="M73.6067 35.0686C73.6067 39.5265 68.4325 42.913 66.8277 46.7854C65.1619 50.7975 66.3596 56.8409 63.3357 59.8619C60.3118 62.8828 54.2714 61.6881 50.2593 63.3539C46.3824 64.9632 42.9959 70.1373 38.538 70.1373C34.0801 70.1373 30.6936 64.9632 26.8212 63.3583C22.8091 61.6926 16.7657 62.8903 13.7448 59.8663C10.7238 56.8424 11.9185 50.802 10.2528 46.7899C8.64348 42.913 3.46936 39.5265 3.46936 35.0686C3.46936 30.6108 8.64347 27.2243 10.2483 23.3519C11.9141 19.3398 10.7164 13.2964 13.7403 10.2754C16.7642 7.25446 22.8047 8.44917 26.8168 6.78341C30.6936 5.17411 34.0801 0 38.538 0C42.9959 0 46.3824 5.17411 50.2548 6.77895C54.2669 8.44471 60.3103 7.24702 63.3312 10.271C66.3522 13.2949 65.1575 19.3353 66.8232 23.3474C68.4325 27.2243 73.6067 30.6108 73.6067 35.0686Z" fill="#FF9100"/>
<path d="M27.7399 23.8983L26.3984 27.2025C26.3129 27.4701 26.3218 27.7537 26.4238 28.017C26.5258 28.2803 26.7163 28.5113 26.971 28.6806C27.2257 28.8498 27.533 28.9496 27.8536 28.9672C28.1742 28.9848 28.4936 28.9193 28.771 28.7792C29.1223 28.5859 29.3851 28.2932 29.5146 27.9511L30.8562 24.6386C30.9416 24.3709 30.9328 24.0874 30.8308 23.8241C30.7288 23.5608 30.5383 23.3298 30.2836 23.1605C30.0289 22.9912 29.7216 22.8915 29.401 22.8739C29.0804 22.8563 28.7609 22.9218 28.4836 23.0619C28.1322 23.2548 27.8699 23.5477 27.7419 23.89L27.7399 23.8983Z" fill="black"/>
<path d="M39.938 23.8981L38.5965 27.2017C38.5107 27.4695 38.5194 27.7533 38.6214 28.0169C38.7234 28.2804 38.9142 28.5117 39.1692 28.681C39.4242 28.8503 39.7319 28.95 40.0529 28.9673C40.3738 28.9846 40.6935 28.9187 40.9709 28.7781C41.3222 28.5852 41.5845 28.2924 41.7125 27.9501L43.054 24.6383C43.1394 24.3707 43.1306 24.0871 43.0286 23.8239C42.9266 23.5607 42.7361 23.3297 42.4814 23.1604C42.2268 22.9912 41.9195 22.8915 41.5989 22.8739C41.2783 22.8563 40.9589 22.9218 40.6815 23.0618C40.3302 23.2551 40.0675 23.5478 39.938 23.8898V23.8981Z" fill="black"/>
<path d="M23.6601 39.6196C24.1307 40.1858 24.58 40.7718 25.0217 41.3548L25.3939 41.8401L25.6193 42.1332L25.7162 42.2614C25.6405 42.1606 25.6435 42.1667 25.7162 42.2614C26.0641 42.7162 26.4126 43.1704 26.7616 43.6242C27.3455 44.3873 27.9325 45.1412 28.5332 45.889C28.8675 46.3057 29.2079 46.7055 29.7026 46.9405C30.2504 47.2096 30.8628 47.3155 31.4682 47.2458C32.6785 47.0932 33.7814 46.4369 34.8706 45.9119C35.8792 45.4266 36.8818 44.9296 37.8783 44.4209C39.7542 43.4624 41.607 42.4618 43.4366 41.4189C45.6832 40.143 47.8981 38.8122 50.1039 37.4662C50.6743 37.1182 50.9375 36.2956 50.5578 35.7065C50.178 35.1174 49.4246 34.8717 48.8134 35.2487C45.1704 37.4738 41.4941 39.6471 37.7103 41.6234C35.8041 42.6205 33.8757 43.5728 31.925 44.4804L31.7435 44.5658C31.7617 44.5567 31.9326 44.4987 31.7949 44.543C31.6921 44.5765 31.5907 44.6162 31.4924 44.6452C31.4455 44.6589 31.1414 44.7322 31.3017 44.6986C31.4621 44.6651 31.3017 44.6986 31.2654 44.6986C31.1837 44.6986 31.096 44.6986 31.0143 44.6986C30.8539 44.7154 31.1157 44.6986 31.1081 44.72C31.057 44.7126 31.0065 44.7019 30.9568 44.6879C30.9099 44.6757 30.863 44.6559 30.8161 44.6467C30.8403 44.6467 31.0067 44.7566 30.8978 44.6788C30.857 44.6504 30.814 44.6253 30.7692 44.604C30.7904 44.6132 30.9205 44.7566 30.8252 44.6483C30.7299 44.5399 30.6572 44.4743 30.5801 44.3797C29.9946 43.6685 29.4318 42.9374 28.869 42.2095C28.5392 41.7811 28.2099 41.3528 27.8811 40.9244C27.7918 40.8085 27.9023 40.9519 27.9144 40.9657L27.7812 40.7932L27.4197 40.3201L26.9749 39.7417C26.4741 39.09 25.9764 38.4383 25.4529 37.8065C25.0233 37.2876 24.0913 37.3258 23.6496 37.8065C23.1473 38.3574 23.1957 39.0732 23.6496 39.6257L23.6601 39.6196Z" fill="black"/>
<path d="M7.64595 38.1172C6.49605 41.3625 4.92852 44.7626 4.99431 48.2717C5.01395 49.3189 5.20524 50.3581 5.20524 51.4055" stroke="#FF9100" stroke-width="2" stroke-linecap="round"/>
<path d="M68.0302 35.5083C69.7433 41.1667 71.2844 46.4559 71.2844 52.3221" stroke="#FF9100" stroke-width="2" stroke-linecap="round"/>
<path d="M21.6774 61.6074C16.5384 64.2974 11.0241 65.4866 5.78269 67.9201C4.92033 68.3205 4.26237 68.6074 3.77889 67.6941C3.09516 66.4026 2.08453 65.4736 1.60938 64.0481" stroke="#FF9100" stroke-width="2" stroke-linecap="round"/>
<path d="M34.6094 61.6074C33.1777 63.3428 31.9934 65.0541 30.2138 66.8337C28.8807 68.1668 27.8539 69.2279 26.6547 70.3928C25.6101 71.4075 24.8752 71.8757 23.6888 73.0621C22.799 73.9519 21.9027 74.5517 21.6127 74.8417C21.2995 75.1548 19.931 73.6217 19.5365 73.3587C18.9433 72.7655 18.3247 72.1515 17.757 71.8757C16.5706 70.986 17.1581 71.3068 16.4397 70.8279" stroke="#FF9100" stroke-width="2" stroke-linecap="round"/>
</svg>
