<svg width="22" height="22" viewBox="0 0 22 22" fill="none" xmlns="http://www.w3.org/2000/svg">
<path d="M22 11C22 12.3983 20.377 13.4606 19.8736 14.6752C19.3511 15.9337 19.7268 17.8293 18.7783 18.7769C17.8298 19.7245 15.9351 19.3497 14.6766 19.8722C13.4606 20.377 12.3983 22 11 22C9.6017 22 8.53945 20.377 7.32479 19.8736C6.06631 19.3511 4.17068 19.7268 3.22309 18.7783C2.27551 17.8298 2.65025 15.9351 2.12775 14.6766C1.62297 13.4606 0 12.3983 0 11C0 9.6017 1.62297 8.53945 2.12636 7.32479C2.64886 6.06631 2.27318 4.17068 3.22169 3.22309C4.17021 2.27551 6.06492 2.65025 7.32339 2.12775C8.53945 1.62297 9.6017 0 11 0C12.3983 0 13.4606 1.62297 14.6752 2.12636C15.9337 2.64886 17.8293 2.27318 18.7769 3.22169C19.7245 4.17021 19.3497 6.06492 19.8722 7.32339C20.377 8.53945 22 9.6017 22 11Z" fill="#E4E4E4"/>
</svg>
