<svg width="310" height="124" viewBox="0 0 310 124" fill="none" xmlns="http://www.w3.org/2000/svg">
<rect x="107" y="83" width="51" height="27" rx="13.5" fill="#FF9100"/>
<path d="M93.7618 11.216V5.249H92.4228V11.216H93.7618ZM90.4728 8.291C90.4728 7.901 90.3948 7.54567 90.2388 7.225C90.0828 6.89567 89.8662 6.614 89.5888 6.38C89.3202 6.146 88.9952 5.964 88.6138 5.834C88.2325 5.704 87.8208 5.639 87.3788 5.639C86.9368 5.639 86.5295 5.704 86.1568 5.834C85.7842 5.964 85.4592 6.146 85.1818 6.38C84.9132 6.614 84.7008 6.89567 84.5448 7.225C84.3888 7.54567 84.3108 7.901 84.3108 8.291C84.3108 8.681 84.3888 9.03633 84.5448 9.357C84.7008 9.67767 84.9132 9.955 85.1818 10.189C85.4592 10.423 85.7842 10.605 86.1568 10.735C86.5295 10.865 86.9368 10.93 87.3788 10.93C87.8208 10.93 88.2325 10.865 88.6138 10.735C88.9952 10.605 89.3202 10.423 89.5888 10.189C89.8662 9.955 90.0828 9.67767 90.2388 9.357C90.3948 9.03633 90.4728 8.681 90.4728 8.291ZM85.6108 8.291C85.6108 8.057 85.6542 7.84467 85.7408 7.654C85.8362 7.46333 85.9618 7.303 86.1178 7.173C86.2738 7.03433 86.4602 6.93033 86.6768 6.861C86.8935 6.783 87.1275 6.744 87.3788 6.744C87.6388 6.744 87.8772 6.783 88.0938 6.861C88.3105 6.93033 88.4968 7.03433 88.6528 7.173C88.8175 7.303 88.9432 7.46333 89.0298 7.654C89.1252 7.84467 89.1728 8.057 89.1728 8.291C89.1728 8.525 89.1252 8.73733 89.0298 8.928C88.9432 9.11867 88.8175 9.28333 88.6528 9.422C88.4968 9.552 88.3105 9.656 88.0938 9.734C87.8772 9.80333 87.6388 9.838 87.3788 9.838C87.1275 9.838 86.8935 9.80333 86.6768 9.734C86.4602 9.656 86.2738 9.552 86.1178 9.422C85.9618 9.28333 85.8362 9.11867 85.7408 8.928C85.6542 8.73733 85.6108 8.525 85.6108 8.291ZM94.1128 15.805H87.4048V14.765H93.7618V11.749H86.0658V12.802H92.4358V13.777H86.0918V16.858H94.1128V15.805ZM101.73 10.943V10.02H104.161V11.346H105.513V5.262H104.161V6.848H101.73V5.782H100.417V7.316H97.6478V5.782H96.3218V10.943H101.73ZM101.73 7.875H104.161V8.98H101.73V7.875ZM100.417 8.343V9.877H97.6478V8.343H100.417ZM105.903 15.805H99.2078V14.804H105.513V11.866H97.8688V12.919H104.187V13.816H97.8818V16.858H105.903V15.805ZM118.52 8.434H115.439V9.513H118.52V13.816H119.859V5.262H118.52V8.434ZM116.882 11.801L116.752 10.735C116.388 10.7957 116.033 10.8477 115.686 10.891C115.339 10.9343 114.984 10.9733 114.62 11.008C114.256 11.034 113.87 11.0557 113.463 11.073C113.064 11.0817 112.627 11.086 112.15 11.086V7.238H116.154V6.159H110.811V12.178H111.721C112.267 12.178 112.77 12.1737 113.229 12.165C113.688 12.1563 114.122 12.139 114.529 12.113C114.936 12.0783 115.331 12.0393 115.712 11.996C116.093 11.944 116.483 11.879 116.882 11.801ZM120.158 15.74H113.58V13.166H112.241V16.819H120.158V15.74ZM131.519 5.236H130.167V17.027H131.519V5.236ZM123.849 13.127V10.657H127.944V6.302H122.471V7.394H126.592V9.578H122.497V14.232H123.498C124.529 14.232 125.509 14.206 126.436 14.154C127.363 14.102 128.33 13.9893 129.335 13.816L129.192 12.724C128.265 12.8713 127.372 12.9753 126.514 13.036C125.665 13.088 124.776 13.1183 123.849 13.127ZM143.127 12.1L143.712 10.995C143.131 10.891 142.585 10.709 142.074 10.449C141.571 10.1803 141.129 9.864 140.748 9.5C140.367 9.12733 140.063 8.72 139.838 8.278C139.621 7.82733 139.513 7.368 139.513 6.9V6.016H138.096V6.9C138.096 7.35933 137.983 7.81433 137.758 8.265C137.541 8.707 137.242 9.11433 136.861 9.487C136.48 9.851 136.033 10.1673 135.522 10.436C135.019 10.7047 134.478 10.891 133.897 10.995L134.469 12.1C134.946 12.0047 135.401 11.8573 135.834 11.658C136.276 11.4587 136.683 11.2203 137.056 10.943C137.437 10.6657 137.775 10.3537 138.07 10.007C138.365 9.65167 138.607 9.27467 138.798 8.876C138.989 9.27467 139.231 9.65167 139.526 10.007C139.821 10.3537 140.154 10.6657 140.527 10.943C140.908 11.2203 141.316 11.4587 141.749 11.658C142.191 11.8573 142.65 12.0047 143.127 12.1ZM144.167 14.388H133.533V15.493H144.167V14.388ZM154.683 12.542V11.463H147.91V9.851H154.332V8.798H147.91V7.29H154.592V6.211H146.545V12.542H154.683ZM155.879 14.466H145.232V15.558H155.879V14.466ZM169.562 5.262H168.288V9.851H166.949V5.574H165.688V16.455H166.949V10.943H168.288V17.001H169.562V5.262ZM164.622 6.744H160.007V7.836H163.296C163.253 8.41667 163.149 8.97567 162.984 9.513C162.828 10.0417 162.599 10.5487 162.295 11.034C162.001 11.5193 161.624 11.9787 161.164 12.412C160.705 12.8367 160.155 13.231 159.513 13.595L160.293 14.544C161.117 14.0673 161.806 13.5387 162.36 12.958C162.915 12.3773 163.357 11.7577 163.686 11.099C164.024 10.4403 164.263 9.747 164.401 9.019C164.549 8.28233 164.622 7.524 164.622 6.744ZM180.91 10.67L181.43 9.591C180.841 9.50433 180.291 9.357 179.779 9.149C179.277 8.93233 178.839 8.67667 178.466 8.382C178.102 8.07867 177.816 7.745 177.608 7.381C177.4 7.017 177.296 6.64433 177.296 6.263V5.639H175.879V6.263C175.879 6.653 175.775 7.03 175.567 7.394C175.359 7.74933 175.073 8.07867 174.709 8.382C174.345 8.67667 173.908 8.93233 173.396 9.149C172.894 9.357 172.343 9.50433 171.745 9.591L172.265 10.67C173.262 10.514 174.133 10.2063 174.878 9.747C175.632 9.279 176.204 8.70267 176.594 8.018C176.984 8.694 177.552 9.266 178.297 9.734C179.043 10.202 179.914 10.514 180.91 10.67ZM181.885 12.867V11.775H171.277V12.867H175.879V17.014H177.218V12.867H181.885Z" fill="black"/>
<path d="M127.841 47.596C128.354 47.4 128.741 47.106 129.003 46.714C129.264 46.3127 129.395 45.8367 129.395 45.286C129.395 44.8473 129.306 44.46 129.129 44.124C128.951 43.7787 128.713 43.4893 128.415 43.256C128.125 43.0227 127.785 42.8453 127.393 42.724C127.01 42.6027 126.613 42.542 126.203 42.542C125.792 42.542 125.391 42.6027 124.999 42.724C124.616 42.8453 124.275 43.0227 123.977 43.256C123.687 43.4893 123.454 43.7787 123.277 44.124C123.099 44.46 123.011 44.8473 123.011 45.286C123.011 45.8367 123.141 46.3127 123.403 46.714C123.664 47.106 124.056 47.4 124.579 47.596C123.963 47.7827 123.487 48.086 123.151 48.506C122.824 48.926 122.661 49.4627 122.661 50.116C122.661 50.62 122.754 51.0587 122.941 51.432C123.137 51.8053 123.393 52.118 123.711 52.37C124.037 52.622 124.415 52.8087 124.845 52.93C125.274 53.0513 125.727 53.112 126.203 53.112C126.66 53.112 127.099 53.0513 127.519 52.93C127.948 52.8087 128.326 52.6267 128.653 52.384C128.989 52.1413 129.255 51.8333 129.451 51.46C129.647 51.0773 129.745 50.6293 129.745 50.116C129.745 49.472 129.581 48.94 129.255 48.52C128.928 48.0907 128.457 47.7827 127.841 47.596ZM126.203 43.718C126.679 43.718 127.08 43.858 127.407 44.138C127.733 44.4087 127.897 44.8007 127.897 45.314C127.897 45.8553 127.743 46.2753 127.435 46.574C127.136 46.8727 126.725 47.022 126.203 47.022C125.671 47.022 125.255 46.8773 124.957 46.588C124.658 46.2893 124.509 45.8647 124.509 45.314C124.509 44.81 124.663 44.418 124.971 44.138C125.288 43.858 125.699 43.718 126.203 43.718ZM126.203 51.894C125.633 51.894 125.162 51.7353 124.789 51.418C124.425 51.1007 124.243 50.6573 124.243 50.088C124.243 49.472 124.429 49.0147 124.803 48.716C125.176 48.408 125.643 48.254 126.203 48.254C126.763 48.254 127.229 48.408 127.603 48.716C127.976 49.0147 128.163 49.472 128.163 50.088C128.163 50.3867 128.111 50.648 128.009 50.872C127.906 51.096 127.766 51.2873 127.589 51.446C127.411 51.5953 127.201 51.7073 126.959 51.782C126.725 51.8567 126.473 51.894 126.203 51.894ZM141.556 41.436H140.184V46.378H138.742V41.772H137.384V53.49H138.742V47.554H140.184V54.078H141.556V41.436ZM136.236 43.032H131.266V44.208H134.808C134.762 44.8333 134.65 45.4353 134.472 46.014C134.304 46.5833 134.057 47.1293 133.73 47.652C133.413 48.1747 133.007 48.6693 132.512 49.136C132.018 49.5933 131.425 50.018 130.734 50.41L131.574 51.432C132.461 50.9187 133.203 50.3493 133.8 49.724C134.398 49.0987 134.874 48.4313 135.228 47.722C135.592 47.0127 135.849 46.266 135.998 45.482C136.157 44.6887 136.236 43.872 136.236 43.032Z" fill="black"/>
<path d="M118.253 99.52L117.341 100.8C117.533 100.981 117.752 101.147 117.997 101.296C118.371 101.573 118.803 101.781 119.293 101.92C119.784 102.059 120.259 102.128 120.717 102.128C121.347 102.128 121.928 102.027 122.461 101.824C122.995 101.621 123.453 101.339 123.837 100.976C124.221 100.613 124.52 100.176 124.733 99.664C124.947 99.1413 125.053 98.5707 125.053 97.952C125.053 97.3653 124.957 96.8533 124.765 96.416C124.573 95.968 124.307 95.5947 123.965 95.296C123.624 94.9867 123.224 94.7573 122.765 94.608C122.307 94.448 121.805 94.368 121.261 94.368C120.749 94.368 120.227 94.4267 119.693 94.544L120.173 91.792H124.669V90.176H118.941L117.981 95.824L119.069 96.128C119.368 96.0427 119.667 95.9733 119.965 95.92C120.275 95.856 120.584 95.824 120.893 95.824C121.629 95.824 122.211 96.0107 122.637 96.384C123.075 96.7573 123.293 97.312 123.293 98.048C123.293 98.4107 123.235 98.752 123.117 99.072C123.011 99.3813 122.851 99.6533 122.637 99.888C122.435 100.112 122.179 100.293 121.869 100.432C121.56 100.56 121.213 100.624 120.829 100.624C120.349 100.624 119.885 100.523 119.437 100.32C118.989 100.107 118.595 99.84 118.253 99.52ZM134.713 96.096C134.713 95.4133 134.643 94.7147 134.505 94C134.366 93.2853 134.131 92.6347 133.801 92.048C133.47 91.4613 133.027 90.9813 132.473 90.608C131.918 90.2347 131.225 90.048 130.393 90.048C129.571 90.048 128.883 90.2347 128.329 90.608C127.774 90.9707 127.331 91.44 127.001 92.016C126.67 92.592 126.435 93.2427 126.297 93.968C126.158 94.6827 126.089 95.392 126.089 96.096C126.089 96.8 126.158 97.5093 126.297 98.224C126.435 98.9387 126.67 99.5893 127.001 100.176C127.331 100.752 127.774 101.221 128.329 101.584C128.883 101.947 129.571 102.128 130.393 102.128C131.214 102.128 131.902 101.947 132.457 101.584C133.011 101.221 133.454 100.752 133.785 100.176C134.126 99.5893 134.366 98.9387 134.505 98.224C134.643 97.5093 134.713 96.8 134.713 96.096ZM132.889 96.096C132.889 96.512 132.862 96.9813 132.809 97.504C132.755 98.0267 132.638 98.5227 132.457 98.992C132.286 99.4613 132.035 99.856 131.705 100.176C131.385 100.496 130.947 100.656 130.393 100.656C129.849 100.656 129.411 100.496 129.081 100.176C128.75 99.856 128.494 99.4613 128.313 98.992C128.142 98.5227 128.03 98.0267 127.977 97.504C127.923 96.9813 127.897 96.512 127.897 96.096C127.897 95.68 127.923 95.2107 127.977 94.688C128.03 94.1653 128.142 93.6693 128.313 93.2C128.494 92.7307 128.745 92.336 129.065 92.016C129.395 91.696 129.838 91.536 130.393 91.536C130.947 91.536 131.385 91.696 131.705 92.016C132.035 92.336 132.286 92.7307 132.457 93.2C132.638 93.6693 132.755 94.1653 132.809 94.688C132.862 95.2107 132.889 95.68 132.889 96.096ZM147.956 88.784H146.388V94.432H144.74V89.168H143.188V102.56H144.74V95.776H146.388V103.232H147.956V88.784ZM141.876 90.608H136.196V91.952H140.244C140.191 92.6667 140.063 93.3547 139.86 94.016C139.668 94.6667 139.385 95.2907 139.012 95.888C138.649 96.4853 138.185 97.0507 137.62 97.584C137.055 98.1067 136.377 98.592 135.588 99.04L136.548 100.208C137.561 99.6213 138.409 98.9707 139.092 98.256C139.775 97.5413 140.319 96.7787 140.724 95.968C141.14 95.1573 141.433 94.304 141.604 93.408C141.785 92.5013 141.876 91.568 141.876 90.608Z" fill="white"/>
<rect x="209" y="83" width="87" height="27" rx="13.5" fill="#FF9100"/>
<path d="M32.6209 47.584V42.076H31.3849V47.584H32.6209ZM29.5849 44.884C29.5849 44.524 29.5129 44.196 29.3689 43.9C29.2249 43.596 29.0249 43.336 28.7689 43.12C28.5209 42.904 28.2209 42.736 27.8689 42.616C27.5169 42.496 27.1369 42.436 26.7289 42.436C26.3209 42.436 25.9449 42.496 25.6009 42.616C25.2569 42.736 24.9569 42.904 24.7009 43.12C24.4529 43.336 24.2569 43.596 24.1129 43.9C23.9689 44.196 23.8969 44.524 23.8969 44.884C23.8969 45.244 23.9689 45.572 24.1129 45.868C24.2569 46.164 24.4529 46.42 24.7009 46.636C24.9569 46.852 25.2569 47.02 25.6009 47.14C25.9449 47.26 26.3209 47.32 26.7289 47.32C27.1369 47.32 27.5169 47.26 27.8689 47.14C28.2209 47.02 28.5209 46.852 28.7689 46.636C29.0249 46.42 29.2249 46.164 29.3689 45.868C29.5129 45.572 29.5849 45.244 29.5849 44.884ZM25.0969 44.884C25.0969 44.668 25.1369 44.472 25.2169 44.296C25.3049 44.12 25.4209 43.972 25.5649 43.852C25.7089 43.724 25.8809 43.628 26.0809 43.564C26.2809 43.492 26.4969 43.456 26.7289 43.456C26.9689 43.456 27.1889 43.492 27.3889 43.564C27.5889 43.628 27.7609 43.724 27.9049 43.852C28.0569 43.972 28.1729 44.12 28.2529 44.296C28.3409 44.472 28.3849 44.668 28.3849 44.884C28.3849 45.1 28.3409 45.296 28.2529 45.472C28.1729 45.648 28.0569 45.8 27.9049 45.928C27.7609 46.048 27.5889 46.144 27.3889 46.216C27.1889 46.28 26.9689 46.312 26.7289 46.312C26.4969 46.312 26.2809 46.28 26.0809 46.216C25.8809 46.144 25.7089 46.048 25.5649 45.928C25.4209 45.8 25.3049 45.648 25.2169 45.472C25.1369 45.296 25.0969 45.1 25.0969 44.884ZM32.9449 51.82H26.7529V50.86H32.6209V48.076H25.5169V49.048H31.3969V49.948H25.5409V52.792H32.9449V51.82ZM44.488 45.28H42.952V42.1H41.716V50.056H42.952V46.3H44.488V45.28ZM39.976 48.304V42.868H38.752V44.56H36.1V42.868H34.864V48.304H39.976ZM38.752 45.52V47.308H36.1V45.52H38.752ZM37.336 51.712V49.288H36.088V52.72H43.384V51.712H37.336Z" fill="black"/>
<path d="M15.2939 79.104V82.644H13.7339V83.652H21.8219V82.644H20.2499V79.104H21.8459V78.108H13.6979V79.104H15.2939ZM19.0259 79.104V82.644H16.5299V79.104H19.0259ZM22.7219 85.572H12.8819V86.592H22.7219V85.572ZM32.6329 77.064H31.3849V87.948H32.6329V77.064ZM25.5529 84.348V82.068H29.3329V78.048H24.2809V79.056H28.0849V81.072H24.3049V85.368H25.2289C26.1809 85.368 27.0849 85.344 27.9409 85.296C28.7969 85.248 29.6889 85.144 30.6169 84.984L30.4849 83.976C29.6289 84.112 28.8049 84.208 28.0129 84.264C27.2289 84.312 26.4089 84.34 25.5529 84.348ZM43.408 77.076H42.16V87.948H43.408V77.076ZM40.156 78.108H35.068V85.272H40.156V78.108ZM36.28 79.092H38.944V84.276H36.28V79.092ZM54.2671 77.088H53.0311V79.74H51.0271C50.9631 79.436 50.8471 79.16 50.6791 78.912C50.5191 78.656 50.3191 78.44 50.0791 78.264C49.8391 78.08 49.5631 77.94 49.2511 77.844C48.9391 77.74 48.6071 77.688 48.2551 77.688C47.8471 77.688 47.4711 77.752 47.1271 77.88C46.7831 78.008 46.4831 78.188 46.2271 78.42C45.9791 78.644 45.7831 78.916 45.6391 79.236C45.5031 79.548 45.4351 79.892 45.4351 80.268C45.4351 80.652 45.5031 81.004 45.6391 81.324C45.7831 81.644 45.9791 81.92 46.2271 82.152C46.4831 82.376 46.7831 82.552 47.1271 82.68C47.4711 82.808 47.8471 82.872 48.2551 82.872C48.6151 82.872 48.9511 82.824 49.2631 82.728C49.5751 82.624 49.8511 82.48 50.0911 82.296C50.3391 82.104 50.5431 81.88 50.7031 81.624C50.8631 81.36 50.9711 81.072 51.0271 80.76H53.0311V83.28H54.2671V77.088ZM48.2551 81.84C47.7751 81.84 47.3831 81.7 47.0791 81.42C46.7751 81.132 46.6231 80.748 46.6231 80.268C46.6231 79.812 46.7751 79.44 47.0791 79.152C47.3831 78.864 47.7751 78.72 48.2551 78.72C48.4951 78.72 48.7151 78.76 48.9151 78.84C49.1151 78.912 49.2871 79.016 49.4311 79.152C49.5751 79.288 49.6871 79.452 49.7671 79.644C49.8551 79.828 49.8991 80.036 49.8991 80.268C49.8991 80.508 49.8551 80.724 49.7671 80.916C49.6871 81.108 49.5751 81.276 49.4311 81.42C49.2871 81.556 49.1151 81.66 48.9151 81.732C48.7151 81.804 48.4951 81.84 48.2551 81.84ZM47.1511 83.808V87.792H54.2671V83.808H47.1511ZM48.3631 86.808V84.792H53.0551V86.808H48.3631Z" fill="#FF9100"/>
<path d="M221.631 11.008V9.89H219.85V5.249H218.511V16.988H219.85V11.008H221.631ZM216.821 6.432H211.478V7.524H215.495C215.443 8.174 215.339 8.785 215.183 9.357L210.88 9.63L211.062 10.787L214.78 10.423C214.433 11.1597 213.944 11.8313 213.311 12.438C212.678 13.036 211.842 13.595 210.802 14.115L211.53 15.155C212.596 14.6177 213.471 14.0283 214.156 13.387C214.841 12.737 215.378 12.0437 215.768 11.307C216.167 10.5703 216.44 9.79467 216.587 8.98C216.743 8.15667 216.821 7.30733 216.821 6.432ZM232.485 5.249H231.198V16.988H232.485V5.249ZM228.806 5.509V9.63H227.298V10.735H228.806V16.442H230.067V5.509H228.806ZM224.139 13.192V10.839H226.713V9.786H224.139V7.693H227.207V6.614H222.852V14.284H223.632C224.074 14.284 224.481 14.284 224.854 14.284C225.227 14.2753 225.578 14.2623 225.907 14.245C226.236 14.219 226.557 14.1887 226.869 14.154C227.19 14.1193 227.515 14.0717 227.844 14.011L227.727 12.919C227.441 12.971 227.159 13.0143 226.882 13.049C226.605 13.0837 226.323 13.114 226.037 13.14C225.751 13.1573 225.452 13.1703 225.14 13.179C224.837 13.1877 224.503 13.192 224.139 13.192ZM242.273 7.446V7.511C242.273 8.20433 242.251 8.98433 242.208 9.851C242.173 10.7177 242.043 11.7273 241.818 12.88L243.17 13.023C243.283 12.4163 243.369 11.8573 243.43 11.346C243.491 10.826 243.534 10.345 243.56 9.903C243.595 9.45233 243.612 9.032 243.612 8.642C243.621 8.252 243.625 7.875 243.625 7.511V6.354H235.266V7.446H242.273ZM244.769 14.362H239.465V10.228H238.113V14.362H234.161V15.467H244.769V14.362ZM255.545 5.236H254.193V17.027H255.545V5.236ZM247.875 13.127V10.657H251.97V6.302H246.497V7.394H250.618V9.578H246.523V14.232H247.524C248.555 14.232 249.535 14.206 250.462 14.154C251.389 14.102 252.356 13.9893 253.361 13.816L253.218 12.724C252.291 12.8713 251.398 12.9753 250.54 13.036C249.691 13.088 248.802 13.1183 247.875 13.127ZM271.126 10.956V9.851H269.293V5.262H267.954V17.014H269.293V10.956H271.126ZM263.326 6.12C262.884 6.12 262.477 6.21967 262.104 6.419C261.74 6.60967 261.424 6.887 261.155 7.251C260.895 7.60633 260.687 8.03967 260.531 8.551C260.384 9.06233 260.31 9.63433 260.31 10.267C260.31 10.8997 260.384 11.4717 260.531 11.983C260.687 12.4943 260.895 12.9277 261.155 13.283C261.424 13.6383 261.74 13.9157 262.104 14.115C262.477 14.3057 262.884 14.401 263.326 14.401C263.768 14.401 264.171 14.3057 264.535 14.115C264.908 13.9157 265.224 13.6383 265.484 13.283C265.753 12.9277 265.961 12.4943 266.108 11.983C266.264 11.4717 266.342 10.8997 266.342 10.267C266.342 9.63433 266.264 9.06233 266.108 8.551C265.961 8.03967 265.753 7.60633 265.484 7.251C265.224 6.887 264.908 6.60967 264.535 6.419C264.171 6.21967 263.768 6.12 263.326 6.12ZM263.326 13.205C262.806 13.205 262.386 12.945 262.065 12.425C261.753 11.905 261.597 11.1857 261.597 10.267C261.597 9.34833 261.753 8.629 262.065 8.109C262.386 7.589 262.806 7.329 263.326 7.329C263.846 7.329 264.262 7.589 264.574 8.109C264.895 8.629 265.055 9.34833 265.055 10.267C265.055 11.1857 264.895 11.905 264.574 12.425C264.262 12.945 263.846 13.205 263.326 13.205ZM281.564 5.249H280.212V17.027H281.564V5.249ZM275.311 6.12C274.878 6.12 274.475 6.21967 274.102 6.419C273.738 6.60967 273.422 6.887 273.153 7.251C272.884 7.60633 272.672 8.03967 272.516 8.551C272.369 9.05367 272.295 9.62133 272.295 10.254C272.295 10.8867 272.369 11.463 272.516 11.983C272.672 12.4943 272.884 12.9277 273.153 13.283C273.422 13.6383 273.738 13.9157 274.102 14.115C274.475 14.3057 274.878 14.401 275.311 14.401C275.753 14.401 276.156 14.3057 276.52 14.115C276.893 13.9157 277.213 13.6383 277.482 13.283C277.751 12.9277 277.959 12.4943 278.106 11.983C278.262 11.463 278.34 10.8867 278.34 10.254C278.34 9.62133 278.262 9.05367 278.106 8.551C277.959 8.03967 277.751 7.60633 277.482 7.251C277.213 6.887 276.893 6.60967 276.52 6.419C276.156 6.21967 275.753 6.12 275.311 6.12ZM275.311 7.329C275.831 7.329 276.251 7.589 276.572 8.109C276.893 8.62033 277.053 9.33533 277.053 10.254C277.053 11.1987 276.893 11.9267 276.572 12.438C276.251 12.9493 275.831 13.205 275.311 13.205C274.791 13.205 274.371 12.9493 274.05 12.438C273.738 11.9267 273.582 11.1987 273.582 10.254C273.582 9.33533 273.738 8.62033 274.05 8.109C274.371 7.589 274.791 7.329 275.311 7.329ZM291.599 7.94L284.54 8.135L284.722 9.24L291.534 8.941C291.508 9.19233 291.478 9.45667 291.443 9.734C291.408 10.0027 291.356 10.2887 291.287 10.592L292.613 10.696C292.778 9.90733 292.873 9.20533 292.899 8.59C292.925 7.966 292.938 7.37667 292.938 6.822V5.769H284.839V6.848H291.612V7.394C291.612 7.576 291.608 7.758 291.599 7.94ZM294.199 11.385H289.103V9.812H287.751V11.385H283.617V12.464H294.199V11.385ZM286.256 15.74V13.361H284.917V16.819H293.159V15.74H286.256Z" fill="black"/>
<path d="M248.681 42.654H246.763L243.935 46.434C243.608 46.8727 243.319 47.358 243.067 47.89C242.824 48.4127 242.703 48.954 242.703 49.514C242.703 50.0647 242.782 50.564 242.941 51.012C243.109 51.4507 243.342 51.8287 243.641 52.146C243.949 52.454 244.317 52.692 244.747 52.86C245.185 53.028 245.671 53.112 246.203 53.112C246.707 53.112 247.178 53.028 247.617 52.86C248.055 52.692 248.438 52.4587 248.765 52.16C249.091 51.852 249.348 51.488 249.535 51.068C249.721 50.648 249.815 50.186 249.815 49.682C249.815 49.234 249.74 48.8233 249.591 48.45C249.451 48.0673 249.245 47.7407 248.975 47.47C248.713 47.19 248.391 46.9753 248.009 46.826C247.635 46.6673 247.215 46.588 246.749 46.588C246.189 46.588 245.666 46.7233 245.181 46.994L248.681 42.654ZM246.175 51.838C245.531 51.838 245.036 51.6467 244.691 51.264C244.355 50.872 244.187 50.3727 244.187 49.766C244.187 49.4767 244.238 49.2107 244.341 48.968C244.443 48.7253 244.583 48.5153 244.761 48.338C244.947 48.1607 245.167 48.0207 245.419 47.918C245.671 47.8153 245.941 47.764 246.231 47.764C246.847 47.764 247.341 47.9507 247.715 48.324C248.088 48.688 248.275 49.178 248.275 49.794C248.275 50.102 248.219 50.382 248.107 50.634C247.995 50.8767 247.845 51.0913 247.659 51.278C247.472 51.4553 247.248 51.5953 246.987 51.698C246.735 51.7913 246.464 51.838 246.175 51.838ZM251.364 45.482L251.868 46.602C252.998 46.4807 253.968 46.21 254.78 45.79C255.592 45.3607 256.171 44.8193 256.516 44.166C256.684 44.4833 256.913 44.782 257.202 45.062C257.501 45.3327 257.851 45.5753 258.252 45.79C258.654 45.9953 259.097 46.168 259.582 46.308C260.068 46.448 260.59 46.546 261.15 46.602L261.668 45.482C261.08 45.426 260.539 45.328 260.044 45.188C259.559 45.0387 259.134 44.8613 258.77 44.656C258.406 44.4413 258.112 44.208 257.888 43.956C257.674 43.6947 257.543 43.424 257.496 43.144H261.192V41.982H251.854V43.144H255.522C255.466 43.424 255.326 43.6947 255.102 43.956C254.888 44.208 254.598 44.4413 254.234 44.656C253.88 44.8613 253.46 45.0387 252.974 45.188C252.489 45.328 251.952 45.426 251.364 45.482ZM262.228 47.624H257.216V45.93H255.774V47.624H250.79V48.786H262.228V47.624ZM256.488 49.654C255.088 49.654 254.01 49.8453 253.254 50.228C252.508 50.6107 252.134 51.1567 252.134 51.866C252.134 52.5753 252.508 53.1213 253.254 53.504C254.01 53.8867 255.088 54.078 256.488 54.078C257.898 54.078 258.976 53.8867 259.722 53.504C260.469 53.1213 260.842 52.5753 260.842 51.866C260.842 51.1567 260.469 50.6107 259.722 50.228C258.976 49.8453 257.898 49.654 256.488 49.654ZM256.488 52.972C255.555 52.972 254.841 52.8833 254.346 52.706C253.852 52.5193 253.604 52.2393 253.604 51.866C253.604 51.502 253.852 51.2267 254.346 51.04C254.841 50.8533 255.555 50.76 256.488 50.76C257.422 50.76 258.136 50.8533 258.63 51.04C259.134 51.2267 259.386 51.502 259.386 51.866C259.386 52.2393 259.134 52.5193 258.63 52.706C258.136 52.8833 257.422 52.972 256.488 52.972Z" fill="black"/>
<path d="M219.159 96.736V100.192H220.567V96.736H223.815V95.392H220.567V91.936H219.159V95.392H215.911V96.736H219.159ZM231.724 90.176H229.532L226.3 94.496C225.927 94.9973 225.596 95.552 225.308 96.16C225.031 96.7573 224.892 97.376 224.892 98.016C224.892 98.6453 224.983 99.216 225.164 99.728C225.356 100.229 225.623 100.661 225.964 101.024C226.316 101.376 226.738 101.648 227.228 101.84C227.73 102.032 228.284 102.128 228.892 102.128C229.468 102.128 230.007 102.032 230.508 101.84C231.01 101.648 231.447 101.381 231.82 101.04C232.194 100.688 232.487 100.272 232.7 99.792C232.914 99.312 233.02 98.784 233.02 98.208C233.02 97.696 232.935 97.2267 232.764 96.8C232.604 96.3627 232.37 95.9893 232.06 95.68C231.762 95.36 231.394 95.1147 230.956 94.944C230.53 94.7627 230.05 94.672 229.516 94.672C228.876 94.672 228.279 94.8267 227.724 95.136L231.724 90.176ZM228.86 100.672C228.124 100.672 227.559 100.453 227.164 100.016C226.78 99.568 226.588 98.9973 226.588 98.304C226.588 97.9733 226.647 97.6693 226.764 97.392C226.882 97.1147 227.042 96.8747 227.244 96.672C227.458 96.4693 227.708 96.3093 227.996 96.192C228.284 96.0747 228.594 96.016 228.924 96.016C229.628 96.016 230.194 96.2293 230.62 96.656C231.047 97.072 231.26 97.632 231.26 98.336C231.26 98.688 231.196 99.008 231.068 99.296C230.94 99.5733 230.77 99.8187 230.556 100.032C230.343 100.235 230.087 100.395 229.788 100.512C229.5 100.619 229.191 100.672 228.86 100.672ZM234.792 93.408L235.368 94.688C236.658 94.5493 237.768 94.24 238.696 93.76C239.624 93.2693 240.285 92.6507 240.68 91.904C240.872 92.2667 241.133 92.608 241.464 92.928C241.805 93.2373 242.205 93.5147 242.664 93.76C243.122 93.9947 243.629 94.192 244.184 94.352C244.738 94.512 245.336 94.624 245.976 94.688L246.568 93.408C245.896 93.344 245.277 93.232 244.712 93.072C244.157 92.9013 243.672 92.6987 243.256 92.464C242.84 92.2187 242.504 91.952 242.248 91.664C242.002 91.3653 241.853 91.056 241.8 90.736H246.024V89.408H235.352V90.736H239.544C239.48 91.056 239.32 91.3653 239.064 91.664C238.818 91.952 238.488 92.2187 238.072 92.464C237.666 92.6987 237.186 92.9013 236.632 93.072C236.077 93.232 235.464 93.344 234.792 93.408ZM247.208 95.856H241.48V93.92H239.832V95.856H234.136V97.184H247.208V95.856ZM240.648 98.176C239.048 98.176 237.816 98.3947 236.952 98.832C236.098 99.2693 235.672 99.8933 235.672 100.704C235.672 101.515 236.098 102.139 236.952 102.576C237.816 103.013 239.048 103.232 240.648 103.232C242.258 103.232 243.49 103.013 244.344 102.576C245.197 102.139 245.624 101.515 245.624 100.704C245.624 99.8933 245.197 99.2693 244.344 98.832C243.49 98.3947 242.258 98.176 240.648 98.176ZM240.648 101.968C239.581 101.968 238.765 101.867 238.2 101.664C237.634 101.451 237.352 101.131 237.352 100.704C237.352 100.288 237.634 99.9733 238.2 99.76C238.765 99.5467 239.581 99.44 240.648 99.44C241.714 99.44 242.53 99.5467 243.096 99.76C243.672 99.9733 243.96 100.288 243.96 100.704C243.96 101.131 243.672 101.451 243.096 101.664C242.53 101.867 241.714 101.968 240.648 101.968ZM248.326 93.408V94.752H256.23V93.408H248.326ZM248.326 97.376V98.72H256.23V97.376H248.326ZM259.067 94.064L260.987 92.448C260.977 92.5867 260.971 92.72 260.971 92.848V100.464H258.507V102H264.955V100.464H262.731V90.144H261.291L258.091 92.88L259.067 94.064ZM274.503 102V100.432H270.407C270.151 100.432 269.889 100.453 269.623 100.496C269.367 100.539 269.116 100.592 268.871 100.656L271.879 97.616C272.177 97.3173 272.471 97.0133 272.759 96.704C273.047 96.3947 273.303 96.0693 273.527 95.728C273.761 95.376 273.948 95.008 274.087 94.624C274.225 94.24 274.295 93.824 274.295 93.376C274.295 92.8427 274.199 92.368 274.007 91.952C273.815 91.536 273.553 91.1893 273.223 90.912C272.903 90.624 272.524 90.4107 272.087 90.272C271.649 90.1227 271.18 90.048 270.679 90.048C269.58 90.048 268.679 90.3467 267.975 90.944C267.281 91.5307 266.86 92.3573 266.711 93.424L268.471 93.744C268.449 93.424 268.487 93.1307 268.583 92.864C268.679 92.5973 268.823 92.368 269.015 92.176C269.207 91.984 269.436 91.8347 269.703 91.728C269.969 91.6107 270.263 91.552 270.583 91.552C271.148 91.552 271.575 91.68 271.863 91.936C272.161 92.1813 272.348 92.4907 272.423 92.864C272.508 93.2267 272.503 93.6213 272.407 94.048C272.311 94.4747 272.161 94.8693 271.959 95.232C271.745 95.5627 271.516 95.8667 271.271 96.144C271.025 96.4213 270.764 96.6987 270.487 96.976L266.503 100.976V102H274.503ZM276.418 93.408L276.994 94.688C278.285 94.5493 279.394 94.24 280.322 93.76C281.25 93.2693 281.911 92.6507 282.306 91.904C282.498 92.2667 282.759 92.608 283.09 92.928C283.431 93.2373 283.831 93.5147 284.29 93.76C284.749 93.9947 285.255 94.192 285.81 94.352C286.365 94.512 286.962 94.624 287.602 94.688L288.194 93.408C287.522 93.344 286.903 93.232 286.338 93.072C285.783 92.9013 285.298 92.6987 284.882 92.464C284.466 92.2187 284.13 91.952 283.874 91.664C283.629 91.3653 283.479 91.056 283.426 90.736H287.65V89.408H276.978V90.736H281.17C281.106 91.056 280.946 91.3653 280.69 91.664C280.445 91.952 280.114 92.2187 279.698 92.464C279.293 92.6987 278.813 92.9013 278.258 93.072C277.703 93.232 277.09 93.344 276.418 93.408ZM288.834 95.856H283.106V93.92H281.458V95.856H275.762V97.184H288.834V95.856ZM282.274 98.176C280.674 98.176 279.442 98.3947 278.578 98.832C277.725 99.2693 277.298 99.8933 277.298 100.704C277.298 101.515 277.725 102.139 278.578 102.576C279.442 103.013 280.674 103.232 282.274 103.232C283.885 103.232 285.117 103.013 285.97 102.576C286.823 102.139 287.25 101.515 287.25 100.704C287.25 99.8933 286.823 99.2693 285.97 98.832C285.117 98.3947 283.885 98.176 282.274 98.176ZM282.274 101.968C281.207 101.968 280.391 101.867 279.826 101.664C279.261 101.451 278.978 101.131 278.978 100.704C278.978 100.288 279.261 99.9733 279.826 99.76C280.391 99.5467 281.207 99.44 282.274 99.44C283.341 99.44 284.157 99.5467 284.722 99.76C285.298 99.9733 285.586 100.288 285.586 100.704C285.586 101.131 285.298 101.451 284.722 101.664C284.157 101.867 283.341 101.968 282.274 101.968Z" fill="white"/>
<path opacity="0.1" d="M68 0L68 123.5" stroke="black" stroke-width="0.5"/>
<path opacity="0.1" d="M309.5 24L0 24" stroke="black" stroke-width="0.5"/>
<circle cx="34.5" cy="104.5" r="12.5" fill="#FFB859"/>
<circle cx="34.5" cy="104.5" r="10.5" fill="#FF9100"/>
<path d="M30.945 110V99.5H36.21C36.9 99.5 37.505 99.64 38.025 99.92C38.555 100.2 38.97 100.59 39.27 101.09C39.57 101.58 39.72 102.15 39.72 102.8C39.72 103.42 39.57 103.975 39.27 104.465C38.97 104.955 38.555 105.34 38.025 105.62C37.495 105.9 36.89 106.04 36.21 106.04H33.12V110H30.945ZM33.12 104.24H35.97C36.44 104.24 36.815 104.11 37.095 103.85C37.385 103.59 37.53 103.245 37.53 102.815C37.53 102.375 37.385 102.025 37.095 101.765C36.815 101.505 36.44 101.375 35.97 101.375H33.12V104.24Z" fill="white"/>
</svg>
