<svg width="25" height="25" viewBox="0 0 25 25" fill="none" xmlns="http://www.w3.org/2000/svg">
<path fill-rule="evenodd" clip-rule="evenodd" d="M24.962 13.4817L23.965 13.4043C23.9882 13.1061 24 12.8045 24 12.5C24 12.1955 23.9882 11.8939 23.965 11.5957L24.962 11.5183C24.9872 11.8422 25 12.1696 25 12.5C25 12.8304 24.9872 13.1578 24.962 13.4817ZM24.6573 9.58067L23.6847 9.81336C23.5434 9.22261 23.3564 8.64961 23.1278 8.09821L24.0515 7.71515C24.3002 8.31486 24.5035 8.93813 24.6573 9.58067ZM23.1596 5.96801L22.3075 6.4913C21.9914 5.97668 21.636 5.4887 21.2452 5.03161L22.0053 4.38181C22.4298 4.8784 22.8161 5.40865 23.1596 5.96801ZM20.6182 2.99469C20.1216 2.57017 19.5914 2.18388 19.032 1.84039L18.5087 2.69254C19.0233 3.00856 19.5113 3.36404 19.9684 3.7548L20.6182 2.99469ZM17.2848 0.948506L16.9018 1.87223C16.3504 1.64358 15.7774 1.45663 15.1866 1.31529L15.4193 0.342737C16.0619 0.496468 16.6851 0.699816 17.2848 0.948506ZM13.4817 0.0379829L13.4043 1.03498C13.1061 1.01181 12.8045 1 12.5 1C12.1955 1 11.8939 1.01181 11.5957 1.03498L11.5183 0.037983C11.8422 0.0128177 12.1696 0 12.5 0C12.8304 0 13.1578 0.0128177 13.4817 0.0379829ZM9.58067 0.342737L9.81336 1.31529C9.22261 1.45663 8.64961 1.64358 8.09821 1.87223L7.71515 0.948506C8.31486 0.699816 8.93813 0.496467 9.58067 0.342737ZM5.96801 1.84039L6.4913 2.69254C5.97668 3.00856 5.4887 3.36404 5.03161 3.7548L4.38181 2.99469C4.8784 2.57017 5.40865 2.18388 5.96801 1.84039ZM2.99469 4.38181L3.7548 5.03161C3.36404 5.4887 3.00856 5.97668 2.69254 6.4913L1.84039 5.968C2.18388 5.40865 2.57017 4.87839 2.99469 4.38181ZM0.948506 7.71515L1.87223 8.09821C1.64358 8.64961 1.45663 9.22261 1.31529 9.81336L0.342737 9.58067C0.496468 8.93813 0.699816 8.31486 0.948506 7.71515ZM0.0379829 11.5183C0.0128177 11.8422 0 12.1696 0 12.5C0 12.8304 0.0128177 13.1578 0.037983 13.4817L1.03498 13.4043C1.01181 13.1061 1 12.8045 1 12.5C1 12.1955 1.01181 11.8939 1.03498 11.5957L0.0379829 11.5183ZM0.342737 15.4193L1.31529 15.1866C1.45663 15.7774 1.64358 16.3504 1.87223 16.9018L0.948506 17.2848C0.699816 16.6851 0.496467 16.0619 0.342737 15.4193ZM1.84039 19.032L2.69254 18.5087C3.00856 19.0233 3.36404 19.5113 3.7548 19.9684L2.99469 20.6182C2.57017 20.1216 2.18388 19.5914 1.84039 19.032ZM4.38181 22.0053L5.03161 21.2452C5.4887 21.636 5.97668 21.9914 6.4913 22.3075L5.968 23.1596C5.40865 22.8161 4.87839 22.4298 4.38181 22.0053ZM7.71515 24.0515L8.09821 23.1278C8.64961 23.3564 9.22261 23.5434 9.81336 23.6847L9.58067 24.6573C8.93813 24.5035 8.31486 24.3002 7.71515 24.0515ZM11.5183 24.962L11.5957 23.965C11.8939 23.9882 12.1955 24 12.5 24C12.8045 24 13.1061 23.9882 13.4043 23.965L13.4817 24.962C13.1578 24.9872 12.8304 25 12.5 25C12.1696 25 11.8422 24.9872 11.5183 24.962ZM15.4193 24.6573L15.1866 23.6847C15.7774 23.5434 16.3504 23.3564 16.9018 23.1278L17.2848 24.0515C16.6851 24.3002 16.0619 24.5035 15.4193 24.6573ZM19.032 23.1596L18.5087 22.3075C19.0233 21.9914 19.5113 21.636 19.9684 21.2452L20.6182 22.0053C20.1216 22.4298 19.5914 22.8161 19.032 23.1596ZM22.0053 20.6182C22.4298 20.1216 22.8161 19.5914 23.1596 19.032L22.3075 18.5087C21.9914 19.0233 21.636 19.5113 21.2452 19.9684L22.0053 20.6182ZM24.0515 17.2848L23.1278 16.9018C23.3564 16.3504 23.5434 15.7774 23.6847 15.1866L24.6573 15.4193C24.5035 16.0619 24.3002 16.6851 24.0515 17.2848Z" fill="black"/>
</svg>
