<svg width="384" height="333" viewBox="0 0 384 333" fill="none" xmlns="http://www.w3.org/2000/svg">
<path d="M308.678 211.81C316.388 217.799 324.379 223.423 332.632 228.612C336.48 231.041 340.833 233.653 344.537 235.743C345.376 236.215 346.226 236.709 347.088 237.127C347.522 237.332 347.954 237.479 348.399 237.648C348.843 237.817 348.161 237.566 348.094 237.561C347.668 237.546 347.284 237.755 347.87 237.56C347.213 237.776 346.569 238.155 345.966 238.394C345.364 238.634 345.742 238.575 346.006 238.337C346.762 237.616 345.572 238.961 346.17 238.101C346.769 237.242 347.539 236.137 348.217 235.164L357.951 221.295C359.484 219.095 362.766 217.229 365.487 218.451C366.065 218.709 366.578 219.094 366.986 219.579C367.394 220.063 367.687 220.634 367.842 221.247C367.997 221.861 368.01 222.501 367.881 223.12C367.752 223.739 367.484 224.32 367.096 224.819L357.691 238.216C356.211 240.341 354.797 242.794 352.822 244.518C351.48 245.763 349.836 246.636 348.051 247.053C346.267 247.47 344.403 247.416 342.644 246.896C340.32 246.011 338.104 244.866 336.036 243.484C333.724 242.181 331.444 240.831 329.177 239.463C324.558 236.674 320.024 233.763 315.576 230.729C310.492 227.262 305.52 223.634 300.66 219.846C298.417 218.1 299.184 214.679 301.044 212.958C302.904 211.238 306.366 210.002 308.725 211.843L308.678 211.81Z" fill="black"/>
<path d="M261.835 262.726C269.545 268.715 277.536 274.339 285.789 279.528C289.637 281.957 293.99 284.569 297.695 286.659C298.533 287.131 299.384 287.626 300.245 288.044C300.68 288.248 301.112 288.395 301.556 288.564C302 288.734 301.318 288.482 301.251 288.478C300.826 288.462 300.441 288.671 301.027 288.476C300.37 288.692 299.726 289.071 299.124 289.311C298.521 289.55 298.899 289.491 299.163 289.254C299.919 288.532 298.729 289.877 299.328 289.018C299.926 288.158 300.696 287.053 301.374 286.081L311.108 272.212C312.641 270.011 315.924 268.146 318.644 269.368C319.223 269.625 319.735 270.011 320.143 270.495C320.551 270.98 320.844 271.55 320.999 272.164C321.154 272.777 321.168 273.418 321.038 274.037C320.909 274.656 320.641 275.237 320.253 275.736L310.849 289.133C309.368 291.258 307.955 293.71 305.98 295.434C304.637 296.679 302.993 297.553 301.208 297.97C299.424 298.387 297.561 298.332 295.801 297.812C293.477 296.928 291.261 295.783 289.193 294.4C286.881 293.098 284.601 291.748 282.335 290.379C277.715 287.591 273.181 284.68 268.733 281.646C263.649 278.178 258.677 274.551 253.817 270.762C251.574 269.017 252.342 265.595 254.201 263.875C256.061 262.154 259.523 260.919 261.883 262.759L261.835 262.726Z" fill="black"/>
<path d="M125.216 299.732C110.658 284.385 106.825 264.319 114.065 241.363C114.608 239.679 104.027 239.915 103.515 241.526C96.2574 264.764 100.239 285.057 115.094 300.553C116.52 301.375 118.826 301.653 121.62 301.34C122.916 301.234 126.15 300.723 125.232 299.775L125.216 299.732Z" fill="black"/>
<path d="M298.639 116.433C318.576 111.056 338.447 115.314 356.443 128.819C357.758 129.818 361.855 121.877 360.594 120.926C342.349 107.309 322.209 103.081 302.015 108.626C300.684 109.394 299.49 111.008 298.637 113.194C298.206 114.194 297.354 116.776 298.593 116.43L298.639 116.433Z" fill="black"/>
<path d="M202 45.3324C220.359 47.8789 231.436 71.1792 246.894 78.9072C262.908 86.9298 290.967 83.4814 302.484 95.641C314 107.801 303.139 129.458 308.696 144.228C314.058 158.468 338.751 172.985 337.311 188.316C335.871 203.647 309.092 211.014 301.227 223.437C293.066 236.298 299.579 260.361 286.103 269.065C272.626 277.769 245.923 266.709 228.828 270.142C212.346 273.456 197.199 293.114 178.868 290.528C160.538 287.941 149.427 264.689 133.975 256.953C117.961 248.93 89.9006 252.379 78.3842 240.219C66.8677 228.059 77.7287 206.402 72.1724 191.632C66.8105 177.392 42.1175 162.875 43.5671 147.55C45.0167 132.224 71.7764 124.845 79.6507 112.428C87.8176 99.5596 81.2992 75.5047 94.7757 66.8005C108.252 58.0963 134.955 69.1564 152.05 65.7232C168.488 62.4516 183.635 42.7938 202 45.3324Z" fill="#FFB800"/>
<path d="M85.3503 96.654C84.9866 106.04 83.4109 111.846 78.6288 118.578C72.0847 127.79 56.8222 120.387 45.9166 143.953C35.011 167.519 85.5194 186.411 72.6388 217.523C70.8676 222.219 72.7943 240.506 93.6701 249.024C103.269 252.181 115.825 254.901 124.894 253.661C131.21 252.796 144.42 262.254 147.616 266.515L147.729 266.666C155.138 276.545 166.759 292.041 182.451 292.892C188.432 293.216 193.375 291.298 198.301 287.808C203.228 284.319 210.504 280.811 213.199 279.246C222.887 273.622 226.646 270.279 237.426 268.913C250.855 267.212 266.664 276.807 280.063 272.641C296.412 267.556 295.054 262.68 297.681 247.838C299.228 239.101 296.663 235.603 297.69 227.151C297.937 225.117 303.359 216.508 306.624 216.296C314.307 215.798 318.7 213.08 327.635 202.225C336.88 194.497 338.329 179.375 336.701 175.678C331.2 163.185 327.217 159.57 309.767 151.951C292.845 144.563 305.655 125.314 308.378 112.173C310.336 102.723 307.039 95.3305 297.241 89.9456C291.745 86.9249 286.219 88.3891 279.982 86.6756C275.194 85.3604 262.454 86.9335 257.045 83.9606C248.494 79.2606 248.574 81.0129 239.718 74.4378C231.901 68.6334 223.29 55.5175 214.843 50.8753C204.823 45.3681 190.971 46.7685 179.78 51.9922C170.224 56.4531 166.036 68.086 151.222 69.7971C124.556 72.877 116.561 52.7178 92.8615 69.2521C81.663 79.8477 85.7566 86.1442 85.3503 96.654Z" stroke="black" stroke-width="6" stroke-linecap="round"/>
<path d="M159.148 150.753C160.072 152.363 162.179 157.046 164.757 155.797C165.729 155.327 167.399 154.319 167.117 152.935C166.417 149.502 161.666 149.006 159.148 149.006" stroke="black" stroke-width="6" stroke-linecap="round"/>
<path d="M200.148 125.338C203.885 128.053 207.148 129.939 207.148 124.614C207.148 122.298 203.631 123.166 201.704 123.166" stroke="black" stroke-width="6" stroke-linecap="round"/>
<path d="M76.1484 24.756C79.8889 22.5636 84.2018 21.2217 87.7745 18.7933C87.9942 18.6439 93.1484 15.0464 93.1484 16.2536C93.1484 20.8322 89.8049 25.8905 87.4584 29.4672C86.1161 31.5131 83.4478 34.048 83.1381 36.6445C83.0283 37.5651 83.179 37.6353 82.4708 38.0063" stroke="black" stroke-width="6" stroke-linecap="round"/>
<path d="M89.1484 30.0063C92.6311 31.0316 96.5073 31.4436 100.148 32.0063" stroke="black" stroke-width="6" stroke-linecap="round"/>
<path d="M82.1484 49.0063C93.9689 46.815 104.82 42.8564 116.148 39.0063" stroke="black" stroke-width="6" stroke-linecap="round"/>
<path d="M107.148 45.0063C107.148 48.0974 107.148 51.7764 107.148 55.0063" stroke="black" stroke-width="6" stroke-linecap="round"/>
<path d="M119.148 9.63528C125.078 8.02033 131.06 6.39119 136.934 4.57788C138.422 4.11875 143.079 1.37482 143.079 4.42913C143.079 8.74763 143.602 15.2461 141.785 19.0063" stroke="black" stroke-width="6" stroke-linecap="round"/>
<path d="M125.148 27.0063C137.334 25.5784 148.719 21.5332 160.148 18.0063" stroke="black" stroke-width="6" stroke-linecap="round"/>
<path d="M133.213 36.9213C133.213 42.2433 131.971 53.6042 140.409 50.468C145.365 48.626 154.148 50.415 154.148 43.6592C154.148 38.6561 153.824 35.0063 148.224 35.0063C143.945 35.0063 139.911 36.283 135.83 36.283" stroke="black" stroke-width="6" stroke-linecap="round"/>
<path d="M216.458 156.006C212.558 158.498 195.676 166.573 195.334 170.295C195.09 172.942 194.351 173.324 199.338 174.264C205.249 175.378 210.955 175.851 217.08 175.851C218.617 175.851 221.883 176.253 223.224 175.763C225.527 174.922 222.83 167.823 222.602 166.37C222.194 163.764 221.885 158.136 217.701 156.8" stroke="black" stroke-width="6" stroke-linecap="round"/>
<path d="M206.148 19.8867C211.59 15.5496 217.729 9.58028 221.737 19.0668C224.852 26.4408 229.318 21.303 234.987 19.9779C240.854 18.6062 240.408 32.8278 245.119 31.002C253.753 27.6556 252.392 29.4521 259.148 33.0063" stroke="black" stroke-width="6" stroke-linecap="round"/>
<path d="M48.5841 244.006C47.4314 245.911 41.6553 252.475 45.3885 254.481C47.4939 255.612 52.5015 257.89 54.7976 257.057C58.3519 255.768 56.5729 260.028 56.5729 263.754C56.5729 272.084 62.1404 266.68 68.4675 268.905C71.6329 270.019 72.8653 275.524 74.1484 278.006" stroke="black" stroke-width="6" stroke-linecap="round"/>
<path d="M203.148 318.006C208.201 316.839 212.372 312.26 216.695 311.432C220.621 310.681 221.977 314.673 225.315 314.673C232.071 314.673 235.86 310.79 241.148 308.006" stroke="black" stroke-width="6" stroke-linecap="round"/>
</svg>
