<svg width="450" height="450" viewBox="0 0 450 450" fill="none" xmlns="http://www.w3.org/2000/svg">
<g opacity="0.3">
<path d="M216.315 330.717C216.825 340.45 216.872 350.206 216.408 359.928C216.199 364.466 215.851 369.523 215.445 373.75C215.352 374.706 215.271 375.685 215.12 376.63C215.039 377.102 214.911 377.54 214.795 378.001C214.679 378.461 214.865 377.759 214.9 377.701C215.132 377.344 215.526 377.148 215.027 377.517C215.584 377.102 216.269 376.791 216.814 376.434C217.359 376.077 217.092 376.353 216.744 376.434C215.712 376.641 217.51 376.434 216.454 376.434C215.398 376.434 214.041 376.434 212.846 376.434L195.77 376.492C193.066 376.492 189.633 378.116 189.076 381.041C188.955 381.663 188.979 382.303 189.144 382.913C189.31 383.524 189.613 384.089 190.031 384.567C190.449 385.044 190.971 385.42 191.557 385.668C192.143 385.915 192.778 386.027 193.414 385.995L209.911 385.937C212.521 385.937 215.364 386.179 217.927 385.545C219.73 385.156 221.4 384.308 222.773 383.084C224.146 381.86 225.175 380.303 225.758 378.565C226.365 376.156 226.696 373.687 226.744 371.205C226.999 368.567 227.197 365.929 227.371 363.291C227.726 357.916 227.931 352.541 227.985 347.165C228.047 341.022 227.912 334.879 227.58 328.736C227.429 325.902 224.157 324.578 221.663 325.119C219.169 325.66 216.152 327.791 216.315 330.774V330.717Z" fill="black"/>
<path d="M158.44 333.272C159.195 344.754 158.925 356.278 157.632 367.716C157.293 370.627 156.895 373.516 156.462 376.405C156.335 377.44 156.135 378.465 155.866 379.474C155.782 379.754 155.68 380.028 155.561 380.295C156.004 379.514 156.618 378.836 157.362 378.308C158.106 377.78 158.961 377.414 159.867 377.237C159.645 377.237 158.405 377.451 158.627 377.428C152.578 377.923 146.483 378.125 140.434 378.474C139.056 378.591 137.715 378.968 136.488 379.583C135.262 380.199 134.173 381.04 133.285 382.06C132.466 383.015 130.735 386.152 133.531 385.994L149.443 385.073C152.59 384.893 155.526 384.78 158.44 383.476C160.106 382.786 161.608 381.776 162.853 380.508C164.099 379.24 165.061 377.74 165.682 376.102C166.307 373.671 166.741 371.198 166.98 368.705C167.355 366.179 167.675 363.643 167.94 361.095C168.478 356.013 168.809 350.914 168.934 345.795C169.09 339.95 168.969 334.112 168.572 328.281C168.419 325.965 164.535 327.382 163.412 327.966C161.657 328.866 158.311 330.956 158.463 333.272H158.44Z" fill="black"/>
<path d="M291.374 241.47C293.536 262.006 304.664 279.011 323.742 290.938C325.148 291.805 319.215 298.486 317.874 297.652C298.6 285.534 287.404 268.268 285.306 247.431C285.543 245.912 286.619 244.218 288.351 242.635C289.129 241.872 291.231 240.147 291.355 241.429L291.374 241.47Z" fill="black"/>
<path d="M79.0054 268.235L85.9155 333.853C85.9178 334.594 86.4373 335.312 87.3838 335.881C88.3303 336.45 89.6442 336.836 91.0981 336.97C93.6549 337.178 97.1559 336.278 96.9946 334.765L90.0848 269.147C90.0925 268.406 89.5796 267.688 88.6362 267.118C87.6927 266.548 86.3789 266.163 84.9252 266.03C82.3454 265.822 78.8441 266.722 79.0054 268.235V268.235Z" fill="black"/>
<path d="M322.764 141.671C330.56 158.447 312.772 181.43 313.566 198.856C314.371 216.918 333.872 238.222 327.847 254.987C321.821 271.752 293.271 275.515 281.164 288.865C269.493 301.74 268.516 330.859 251.855 338.721C235.194 346.583 212.37 328.659 195.065 329.458C177.139 330.269 155.971 349.906 139.322 343.839C122.672 337.772 118.935 309.023 105.678 296.831C92.892 285.079 63.974 284.095 56.2357 267.318C48.4974 250.541 66.2162 227.558 65.4343 210.133C64.6294 192.071 45.1284 170.767 51.1535 154.001C57.1785 137.236 85.7286 133.473 97.8362 120.123C109.507 107.248 110.484 78.1291 127.145 70.2791C143.806 62.429 166.63 80.329 183.935 79.5417C201.872 78.7312 223.029 59.0945 239.678 65.1615C256.328 71.2285 260.065 99.9773 273.322 112.169C286.039 123.91 314.957 124.894 322.764 141.671Z" fill="black"/>
<path d="M169.152 204.612C176.974 203.362 184.857 202.105 192.719 201.199C194.922 200.946 203.572 198.362 202.97 201.67C201.33 210.675 198.182 218.326 194.764 226.756C194.064 228.485 189.493 239.08 187.652 237.91C185.811 236.74 180.087 227.891 178.275 223.669C177.136 221.015 170.982 208.374 169 206.175" stroke="black" stroke-width="6" stroke-linecap="round"/>
<path d="M203.886 74.7071C193.992 79.9665 187.106 82.0926 177.446 82.0926C164.226 82.0926 163.21 64.9717 132.702 69.8394C102.195 74.7071 111.347 128.042 71.9309 135.734C66.0789 137.04 48.2983 149.485 51.3492 171.95C53.5358 181.829 57.8497 193.917 64.2748 200.748C68.7493 205.505 66.4817 222.131 63.8967 227.322L63.8049 227.507C57.8113 239.543 48.4099 258.422 56.4337 272.017C59.4918 277.199 64.2748 280.186 70.6705 282.229C77.0662 284.271 84.8141 288.262 87.958 289.583C99.2569 294.333 104.84 295.487 112.364 303.672C121.737 313.868 120.802 332.744 132.702 341.452C147.224 352.079 151.485 348.057 168.294 341.452C178.188 337.565 180.343 333.352 189.649 329.199C191.888 328.2 203.849 327.621 205.92 330.22C210.792 336.335 216.089 338.389 232.359 339.41C245.579 342.543 262.009 334.79 264.901 331.241C274.674 319.247 276.146 313.782 274.111 294.709C272.137 276.212 299.269 275.491 314.376 269.975C325.241 266.008 331 258.877 331 247.511C331 241.135 326.354 237.393 324.585 231.173C323.226 226.4 314.376 216.703 314.376 210.428C314.376 200.509 312.614 201.614 314.376 190.329C315.933 180.367 324.585 165.41 324.585 155.612C324.585 143.988 315.282 133.261 303.543 127.021C293.519 121.692 279.137 125.092 268.968 113.747C250.664 93.3248 266.934 74.7071 236.427 64.7341C219.14 61.6706 214.963 68.8175 203.886 74.7071Z" stroke="black" stroke-width="6" stroke-linecap="round"/>
<path d="M140 173.279C145.957 171.696 153.591 169.303 159.95 170.193C160.32 170.244 153.395 174.905 152.483 175.451C149.353 177.325 145.881 181.097 142.1 181.509C141.537 181.57 139.718 182.79 141.4 182.424C145.754 181.476 149.893 179.686 154.233 178.651C158.784 177.567 159.95 179.223 154.7 178.937C152.323 178.808 149.031 178.956 147.875 180.995C142.917 189.739 155.998 187.046 161 184.595" stroke="black" stroke-width="6" stroke-linecap="round"/>
<path d="M207 173.279C212.957 171.696 220.591 169.303 226.95 170.193C227.32 170.244 220.395 174.905 219.483 175.451C216.353 177.325 212.881 181.097 209.1 181.509C208.537 181.57 206.718 182.79 208.4 182.424C212.754 181.476 216.893 179.686 221.233 178.651C225.784 177.567 226.95 179.223 221.7 178.937C219.323 178.808 216.031 178.956 214.875 180.995C209.917 189.739 222.998 187.046 228 184.595" stroke="black" stroke-width="6" stroke-linecap="round"/>
<path d="M348 303.087C345.091 300.153 342.967 298.304 339.044 296.943C337.071 296.259 336.162 294.983 334.459 294.125C333.446 293.614 330.981 292.09 329.946 292.029C323.635 291.654 318.539 295.036 313.181 297.739C312.034 298.317 308.739 300.693 308.166 301.786C306.963 304.077 312.664 306.205 313.825 307.279C317.027 310.24 322.373 312.999 324.644 316.748C325.55 318.243 327.226 319.279 328.656 320" stroke="black" stroke-width="6" stroke-linecap="round"/>
<path d="M353 304C346.382 306.781 338.06 310.457 332.634 315.536C330.942 317.12 329.386 318.871 327.62 320.319C324.551 322.836 321.972 325.188 323.408 329.456C325.905 336.878 330.701 346.722 335.976 352.37C340.787 357.522 345.187 363.047 349.727 368.074C351.073 369.564 352.365 371.046 353 373" stroke="black" stroke-width="6" stroke-linecap="round"/>
<path d="M353.648 304C359.039 304.131 363.324 308.46 367.797 311.359C371.929 314.037 373.575 318.555 376.257 322.343C380.617 328.501 385.741 334.061 391.09 339.393C393.424 341.721 403.742 351.618 400.306 355.044C398.74 356.606 395.8 357.833 393.826 358.92C391.546 360.177 389.432 362.408 387.525 364.197C381.958 369.422 374.038 371.92 368.193 376.689C366.897 377.746 365.224 378.917 363.692 379.596C361.612 380.518 361.54 379.649 359.48 379.094C356.019 378.161 354.501 377.42 353 374.427" stroke="black" stroke-width="6" stroke-linecap="round"/>
</g>
</svg>
