<svg width="60" height="60" viewBox="0 0 60 60" fill="none" xmlns="http://www.w3.org/2000/svg">
<circle cx="30" cy="30" r="30" fill="#FF5959"/>
<path d="M28.8456 13.8478C29.1156 13.8477 29.3771 13.9424 29.5846 14.1153C29.7921 14.2882 29.9323 14.5283 29.9809 14.794L29.9994 15.0017V21.9248C29.9997 23.2547 29.5404 24.544 28.6994 25.5743C27.8583 26.6045 26.6871 27.3126 25.384 27.5786V45.0017C25.3845 45.29 25.2771 45.5681 25.0828 45.7812C24.8886 45.9943 24.6216 46.1269 24.3344 46.1529C24.0473 46.179 23.7608 46.0966 23.5313 45.9219C23.3019 45.7473 23.1462 45.4931 23.0948 45.2094L23.0763 45.0017V27.5786C21.8398 27.3257 20.7202 26.6744 19.8891 25.7246C19.058 24.7747 18.5612 23.5785 18.4748 22.3194L18.4609 21.9248V15.0017C18.4604 14.7133 18.5679 14.4353 18.7621 14.2222C18.9564 14.0091 19.2234 13.8765 19.5105 13.8504C19.7977 13.8244 20.0842 13.9068 20.3136 14.0814C20.5431 14.256 20.6988 14.5103 20.7502 14.794L20.7686 15.0017V21.9248C20.7683 22.6409 20.99 23.3395 21.4033 23.9243C21.8166 24.5092 22.4011 24.9514 23.0763 25.1901V15.0017C23.0758 14.7133 23.1832 14.4353 23.3775 14.2222C23.5718 14.0091 23.8388 13.8765 24.1259 13.8504C24.4131 13.8244 24.6996 13.9068 24.929 14.0814C25.1584 14.256 25.3142 14.5103 25.3656 14.794L25.384 15.0017V25.1878C26.6256 24.7494 27.5417 23.6232 27.6756 22.2686L27.6917 21.9248V15.0017C27.6917 14.6957 27.8133 14.4022 28.0297 14.1858C28.246 13.9694 28.5395 13.8478 28.8456 13.8478ZM40.384 13.8478C40.6541 13.8477 40.9156 13.9424 41.1231 14.1153C41.3305 14.2882 41.4708 14.5283 41.5194 14.794L41.5379 15.0017V45.0017C41.5384 45.29 41.431 45.5681 41.2367 45.7812C41.0424 45.9943 40.7754 46.1269 40.4883 46.1529C40.2011 46.179 39.9146 46.0966 39.6852 45.9219C39.4557 45.7473 39.3 45.4931 39.2486 45.2094L39.2302 45.0017V32.3094H35.7686C35.4986 32.3095 35.237 32.2148 35.0296 32.0419C34.8221 31.869 34.6819 31.6289 34.6332 31.3632L34.6148 31.1555V19.6171C34.6148 18.087 35.2226 16.6195 36.3046 15.5376C37.3865 14.4557 38.8539 13.8478 40.384 13.8478ZM39.2302 30.0017V16.3517C37.9886 16.7901 37.0725 17.9163 36.9386 19.2732L36.9225 19.6171V30.0017H39.2302V16.3517V30.0017Z" fill="white"/>
</svg>
