<svg width="145" height="138" viewBox="0 0 145 138" fill="none" xmlns="http://www.w3.org/2000/svg">
<path d="M63.2973 23.1109L63.5357 23.0358L63.4806 22.8609H63.2973V23.1109ZM69.7614 27.013V27.263H70.4382L69.9239 26.8231L69.7614 27.013ZM67.6449 23.1109V22.8609H67.4089L67.3953 23.0965L67.6449 23.1109ZM1.25 12.0555C1.25 6.08777 6.08777 1.25 12.0555 1.25V0.75C5.81162 0.75 0.75 5.81163 0.75 12.0555H1.25ZM12.0555 22.8609C6.08777 22.8609 1.25 18.0231 1.25 12.0555H0.75C0.75 18.2993 5.81162 23.3609 12.0555 23.3609V22.8609ZM63.2973 22.8609H12.0555V23.3609H63.2973V22.8609ZM69.7614 26.763C67.653 26.763 66.2349 26.2493 65.2795 25.5381C64.3236 24.8265 63.8082 23.9004 63.5357 23.0358L63.0588 23.1861C63.355 24.1259 63.9218 25.1508 64.9809 25.9392C66.0405 26.7279 67.5701 27.263 69.7614 27.263V26.763ZM67.3953 23.0965C67.2967 24.8089 68.4224 26.1966 69.5988 27.203L69.9239 26.8231C68.7748 25.8401 67.8101 24.5918 67.8945 23.1253L67.3953 23.0965ZM74.9445 22.8609H67.6449V23.3609H74.9445V22.8609ZM85.75 12.0555C85.75 18.0231 80.9122 22.8609 74.9445 22.8609V23.3609C81.1884 23.3609 86.25 18.2993 86.25 12.0555H85.75ZM74.9445 1.25C80.9122 1.25 85.75 6.08777 85.75 12.0555H86.25C86.25 5.81163 81.1884 0.75 74.9445 0.75V1.25ZM12.0555 1.25H74.9445V0.75H12.0555V1.25Z" fill="black"/>
<path d="M22.3375 10.18H19.9675V11.01H22.3375V14.32H23.3675V7.74H22.3375V10.18ZM21.0775 12.77L20.9775 11.95C20.6975 11.9967 20.4242 12.0367 20.1575 12.07C19.8909 12.1033 19.6175 12.1333 19.3375 12.16C19.0575 12.18 18.7609 12.1967 18.4475 12.21C18.1409 12.2167 17.8042 12.22 17.4375 12.22V9.26H20.5175V8.43H16.4075V13.06H17.1075C17.5275 13.06 17.9142 13.0567 18.2675 13.05C18.6209 13.0433 18.9542 13.03 19.2675 13.01C19.5809 12.9833 19.8842 12.9533 20.1775 12.92C20.4709 12.88 20.7709 12.83 21.0775 12.77ZM23.5975 15.8H18.5375V13.82H17.5075V16.63H23.5975V15.8ZM31.3368 10.18H28.9668V11.01H31.3368V14.32H32.3668V7.74H31.3368V10.18ZM30.0768 12.77L29.9768 11.95C29.6968 11.9967 29.4234 12.0367 29.1568 12.07C28.8901 12.1033 28.6168 12.1333 28.3368 12.16C28.0568 12.18 27.7601 12.1967 27.4468 12.21C27.1401 12.2167 26.8034 12.22 26.4368 12.22V9.26H29.5168V8.43H25.4068V13.06H26.1068C26.5268 13.06 26.9134 13.0567 27.2668 13.05C27.6201 13.0433 27.9534 13.03 28.2668 13.01C28.5801 12.9833 28.8834 12.9533 29.1768 12.92C29.4701 12.88 29.7701 12.83 30.0768 12.77ZM32.5968 15.8H27.5368V13.82H26.5068V16.63H32.5968V15.8ZM34.996 16.13V14.89H33.816V16.13H34.996ZM37.4425 16.13V14.89H36.2625V16.13H37.4425ZM39.8889 16.13V14.89H38.7089V16.13H39.8889ZM43.0754 17.45L43.7954 17.13C43.3554 16.4033 43.0354 15.64 42.8354 14.84C42.6354 14.04 42.5354 13.2033 42.5354 12.33C42.5354 11.4633 42.6354 10.63 42.8354 9.83C43.0354 9.02333 43.3554 8.25667 43.7954 7.53L43.0754 7.22C42.6088 7.97333 42.2454 8.76667 41.9854 9.6C41.7254 10.4333 41.5954 11.3433 41.5954 12.33C41.5954 13.3233 41.7254 14.2367 41.9854 15.07C42.2454 15.8967 42.6088 16.69 43.0754 17.45ZM50.4201 14.34V11.37H51.2901V14.58H52.2701V7.74H51.2901V10.53H50.4201V7.91H49.4601V14.34H50.4201ZM47.5801 11.49L48.5401 11.58C48.6334 11.04 48.6868 10.56 48.7001 10.14C48.7201 9.72 48.7301 9.35 48.7301 9.03V8.43H44.9401V9.27H47.7701C47.7701 9.55667 47.7601 9.88 47.7401 10.24C47.7201 10.5933 47.6668 11.01 47.5801 11.49ZM49.1201 12.86L49.0601 12.12C48.7201 12.1667 48.3601 12.2033 47.9801 12.23C47.6068 12.25 47.2268 12.27 46.8401 12.29V10.5H45.9001V12.32C45.6334 12.3267 45.3801 12.33 45.1401 12.33H44.4801L44.5901 13.17C44.8901 13.17 45.2268 13.1667 45.6001 13.16C45.9734 13.1533 46.3601 13.14 46.7601 13.12C47.1601 13.0933 47.5601 13.06 47.9601 13.02C48.3668 12.98 48.7534 12.9267 49.1201 12.86ZM52.5101 15.76H47.0701V13.89H46.0301V16.6H52.5101V15.76ZM58.5093 12.26L58.9293 11.48C58.5893 11.4067 58.286 11.3033 58.0193 11.17C57.7527 11.0367 57.526 10.8833 57.3393 10.71C57.1527 10.53 57.0093 10.34 56.9093 10.14C56.8093 9.93333 56.7593 9.72 56.7593 9.5V9.43H58.6593V8.6H56.7693V7.7H55.7293V8.6H53.8293V9.43H55.7293V9.5C55.7293 9.74667 55.6793 9.98667 55.5793 10.22C55.4793 10.4533 55.336 10.6667 55.1493 10.86C54.9627 11.0533 54.7327 11.2267 54.4593 11.38C54.186 11.5267 53.876 11.6433 53.5293 11.73L53.9793 12.52C54.546 12.38 55.0193 12.1633 55.3993 11.87C55.786 11.57 56.0827 11.21 56.2893 10.79C56.496 11.15 56.786 11.4567 57.1593 11.71C57.5327 11.9633 57.9827 12.1467 58.5093 12.26ZM61.9093 9.71H60.6293V7.73H59.5993V12.37H60.6293V10.56H61.9093V9.71ZM59.6893 13.31V12.57H58.6893V13.31H56.9193V14.06H61.4493V13.31H59.6893ZM55.4493 15.75V13.18H54.4493V16.6H54.9193C55.286 16.6 55.6593 16.58 56.0393 16.54C56.426 16.5 56.8293 16.4133 57.2493 16.28L57.0793 15.46C56.7993 15.5533 56.5227 15.6233 56.2493 15.67C55.976 15.71 55.7093 15.7367 55.4493 15.75ZM59.1893 14.34C58.9427 14.34 58.7127 14.37 58.4993 14.43C58.2927 14.4833 58.1127 14.5633 57.9593 14.67C57.806 14.7767 57.686 14.9067 57.5993 15.06C57.5193 15.2067 57.4793 15.37 57.4793 15.55C57.4793 15.7367 57.5193 15.9033 57.5993 16.05C57.686 16.2033 57.806 16.3333 57.9593 16.44C58.1127 16.5467 58.2927 16.6267 58.4993 16.68C58.7127 16.74 58.9427 16.77 59.1893 16.77C59.4427 16.77 59.6727 16.74 59.8793 16.68C60.086 16.6267 60.2627 16.5467 60.4093 16.44C60.5627 16.3333 60.6793 16.2033 60.7593 16.05C60.846 15.9033 60.8893 15.7367 60.8893 15.55C60.8893 15.37 60.846 15.2067 60.7593 15.06C60.6793 14.9067 60.5627 14.7767 60.4093 14.67C60.2627 14.5633 60.086 14.4833 59.8793 14.43C59.6727 14.37 59.4427 14.34 59.1893 14.34ZM59.1893 16.07C58.9627 16.07 58.776 16.0267 58.6293 15.94C58.4827 15.8467 58.4093 15.7167 58.4093 15.55C58.4093 15.39 58.4827 15.2667 58.6293 15.18C58.776 15.0867 58.9627 15.04 59.1893 15.04C59.4093 15.04 59.5927 15.0867 59.7393 15.18C59.886 15.2667 59.9593 15.39 59.9593 15.55C59.9593 15.7167 59.886 15.8467 59.7393 15.94C59.5927 16.0267 59.4093 16.07 59.1893 16.07ZM70.9786 12.12V11.27H69.5686V7.74H68.5386V16.78H69.5686V12.12H70.9786ZM64.9786 8.4C64.6386 8.4 64.3252 8.47667 64.0386 8.63C63.7586 8.77667 63.5152 8.99 63.3086 9.27C63.1086 9.54333 62.9486 9.87667 62.8286 10.27C62.7152 10.6633 62.6586 11.1033 62.6586 11.59C62.6586 12.0767 62.7152 12.5167 62.8286 12.91C62.9486 13.3033 63.1086 13.6367 63.3086 13.91C63.5152 14.1833 63.7586 14.3967 64.0386 14.55C64.3252 14.6967 64.6386 14.77 64.9786 14.77C65.3186 14.77 65.6286 14.6967 65.9086 14.55C66.1952 14.3967 66.4386 14.1833 66.6386 13.91C66.8452 13.6367 67.0052 13.3033 67.1186 12.91C67.2386 12.5167 67.2986 12.0767 67.2986 11.59C67.2986 11.1033 67.2386 10.6633 67.1186 10.27C67.0052 9.87667 66.8452 9.54333 66.6386 9.27C66.4386 8.99 66.1952 8.77667 65.9086 8.63C65.6286 8.47667 65.3186 8.4 64.9786 8.4ZM64.9786 13.85C64.5786 13.85 64.2552 13.65 64.0086 13.25C63.7686 12.85 63.6486 12.2967 63.6486 11.59C63.6486 10.8833 63.7686 10.33 64.0086 9.93C64.2552 9.53 64.5786 9.33 64.9786 9.33C65.3786 9.33 65.6986 9.53 65.9386 9.93C66.1852 10.33 66.3086 10.8833 66.3086 11.59C66.3086 12.2967 66.1852 12.85 65.9386 13.25C65.6986 13.65 65.3786 13.85 64.9786 13.85ZM71.5178 17.13L72.2378 17.45C72.7111 16.69 73.0778 15.8967 73.3378 15.07C73.5978 14.2367 73.7278 13.3233 73.7278 12.33C73.7278 11.3433 73.5978 10.4333 73.3378 9.6C73.0778 8.76667 72.7111 7.97333 72.2378 7.22L71.5178 7.53C71.9578 8.25667 72.2778 9.02333 72.4778 9.83C72.6778 10.63 72.7778 11.4633 72.7778 12.33C72.7778 13.2033 72.6778 14.04 72.4778 14.84C72.2778 15.64 71.9578 16.4033 71.5178 17.13Z" fill="black"/>
<path d="M103.354 119.185C101.806 122.058 100.122 124.857 98.2993 127.559C97.4508 128.821 96.4725 130.208 95.6222 131.348C95.4296 131.605 95.2362 131.872 95.0292 132.116C94.924 132.237 94.8118 132.34 94.6988 132.452C94.5858 132.564 94.7606 132.395 94.7804 132.384C94.9083 132.322 95.0542 132.334 94.8487 132.354C95.0786 132.331 95.3267 132.36 95.5434 132.352C95.76 132.343 95.6363 132.376 95.5236 132.34C95.195 132.221 95.7407 132.472 95.4414 132.29C95.1422 132.108 94.7575 131.874 94.4188 131.668L89.5689 128.742C88.8028 128.276 87.547 128.149 86.8803 128.89C86.7381 129.047 86.6335 129.235 86.5741 129.438C86.5148 129.641 86.5023 129.855 86.5378 130.064C86.5733 130.272 86.6558 130.47 86.7789 130.642C86.902 130.813 87.0626 130.955 87.2485 131.055L91.934 133.881C92.6738 134.331 93.4374 134.89 94.2742 135.15C94.8529 135.35 95.4737 135.395 96.0757 135.281C96.6777 135.167 97.2401 134.899 97.7078 134.502C98.2989 133.918 98.822 133.268 99.2675 132.566C99.7986 131.856 100.313 131.135 100.821 130.41C101.857 128.934 102.85 127.431 103.801 125.902C104.887 124.155 105.917 122.374 106.891 120.559C107.341 119.723 106.645 118.78 105.844 118.505C105.042 118.23 103.817 118.32 103.344 119.202L103.354 119.185Z" fill="black"/>
<path d="M80.1494 120.67C76.7758 122.527 73.2457 124.082 69.5979 125.318C68.6679 125.63 67.7365 125.92 66.8002 126.201C66.4687 126.309 66.13 126.395 65.7863 126.457C65.6899 126.472 65.5925 126.48 65.4948 126.483C65.7935 126.504 66.0853 126.592 66.3499 126.741C66.6145 126.889 66.8454 127.093 67.0264 127.34C66.9951 127.273 66.7562 126.932 66.7943 126.995C65.7945 125.251 64.8767 123.452 63.9212 121.687C63.6921 121.29 63.3894 120.941 63.0306 120.661C62.6718 120.38 62.2639 120.173 61.8301 120.052C61.4255 119.942 60.2317 119.868 60.6723 120.684L63.1873 125.326C63.684 126.244 64.1307 127.109 64.9352 127.797C65.3784 128.199 65.8956 128.507 66.4549 128.7C67.0142 128.894 67.6037 128.969 68.1875 128.923C69.012 128.765 69.8224 128.545 70.6116 128.262C71.4295 128.016 72.2432 127.752 73.0527 127.47C74.6681 126.91 76.2602 126.285 77.8289 125.596C79.6223 124.813 81.3745 123.948 83.0855 123.001C83.7659 122.627 82.7909 121.663 82.4559 121.409C81.9368 121.01 80.8331 120.303 80.1527 120.677L80.1494 120.67Z" fill="black"/>
<path d="M129.845 97.6574C135.031 102.213 137.523 108.533 137.094 116.042C137.059 116.593 140.028 116.264 140.059 115.737C140.474 108.138 137.924 101.748 132.643 97.1527C132.183 96.9241 131.513 96.8904 130.746 97.0573C130.388 97.1226 129.511 97.3632 129.837 97.6442L129.845 97.6574Z" fill="black"/>
<path d="M64.0245 96.2958C58.838 100.851 56.3461 107.171 56.7755 114.68C56.8102 115.231 53.8413 114.903 53.81 114.375C53.3955 106.776 55.9453 100.387 61.2263 95.791C61.6864 95.5624 62.3566 95.5287 63.123 95.6957C63.4813 95.7609 64.3579 96.0015 64.0321 96.2825L64.0245 96.2958Z" fill="black"/>
<path d="M141.329 57.8858C143.935 63.4954 137.988 71.18 138.254 77.0063C138.523 83.0456 145.042 90.1688 143.028 95.7745C141.014 101.38 131.469 102.638 127.421 107.102C123.519 111.407 123.193 121.143 117.622 123.772C112.052 126.401 104.422 120.408 98.6367 120.675C92.6438 120.946 85.5669 127.512 80.0006 125.483C74.4344 123.455 73.1851 113.842 68.7529 109.765C64.4783 105.836 54.8104 105.507 52.2234 99.8975C49.6363 94.2879 55.56 86.6033 55.2986 80.777C55.0296 74.7377 48.51 67.6145 50.5243 62.0088C52.5386 56.4031 62.0834 55.1449 66.1312 50.6813C70.0329 46.3764 70.3597 36.64 75.9297 34.0152C81.4998 31.3904 89.1303 37.3755 94.9156 37.1123C100.912 36.8413 107.985 30.2755 113.552 32.3041C119.118 34.3326 120.367 43.9451 124.799 48.0217C129.051 51.9472 138.719 52.2763 141.329 57.8858Z" fill="#FFB800"/>
<path d="M101.448 35.581C98.1356 37.3344 95.8305 38.0433 92.5967 38.0433C88.1712 38.0433 87.8309 32.3354 77.6183 33.9582C67.4056 35.581 70.4694 53.3621 57.2746 55.9266C55.3156 56.3619 49.3634 60.5109 50.3847 68.0001C51.1167 71.294 52.5608 75.3236 54.7117 77.601C56.2096 79.187 55.4504 84.7299 54.5851 86.4606L54.5544 86.5221C52.548 90.5346 49.4008 96.8286 52.0868 101.361C53.1105 103.089 54.7117 104.085 56.8527 104.765C58.9937 105.446 61.5874 106.777 62.6398 107.217C66.4222 108.801 68.2912 109.186 70.8099 111.914C73.9476 115.313 73.6345 121.606 77.6183 124.51C82.4794 128.053 83.906 126.712 89.5329 124.51C92.845 123.214 93.5665 121.809 96.6818 120.425C97.4314 120.092 101.435 119.899 102.128 120.765C103.759 122.804 105.533 123.489 110.979 123.829C115.405 124.873 120.905 122.289 121.873 121.106C125.144 117.107 125.637 115.285 124.956 108.926C124.295 102.76 133.378 102.519 138.435 100.68C142.072 99.3579 144 96.9804 144 93.1912C144 91.0657 142.445 89.818 141.852 87.7445C141.398 86.153 138.435 82.9204 138.435 80.8284C138.435 77.5213 137.845 77.8898 138.435 74.1277C138.956 70.8065 141.852 65.8199 141.852 62.5534C141.852 58.6783 138.738 55.1021 134.809 53.0217C131.453 51.2451 126.639 52.3787 123.234 48.5963C117.107 41.7879 122.554 35.581 112.341 32.2562C106.554 31.2349 105.156 33.6175 101.448 35.581Z" stroke="black" stroke-width="2" stroke-linecap="round"/>
<path d="M96.4353 66.6385C97.168 68.2729 98.0001 70.3233 100.387 69.3136C101.745 68.6212 102.426 68.2808 103.989 67.2679" stroke="black" stroke-width="2" stroke-linecap="round"/>
<path d="M82.1382 68.302C83.1523 69.7783 84.339 71.6461 86.5057 70.2244C87.7172 69.2995 88.3259 68.8424 89.6818 67.5655" stroke="black" stroke-width="2" stroke-linecap="round"/>
<path d="M82.9229 80.0879C84.7384 82.5157 87.2895 86.0205 89.3532 87.767C89.4145 87.8189 89.659 88.0204 89.7404 88.0204C89.9917 88.0204 90.279 87.826 90.5025 87.7064C91.2393 87.3124 91.987 86.9562 92.723 86.5606C95.4302 85.1057 98.0007 83.1819 100.583 81.3768C101.942 80.4271 106.109 77.4838 107.433 76.4462" stroke="black" stroke-width="2" stroke-linecap="round"/>
</svg>
