<svg width="335" height="178" viewBox="0 0 335 178" fill="none" xmlns="http://www.w3.org/2000/svg">
<path d="M135.297 23.1109L135.536 23.0358L135.481 22.8609H135.297V23.1109ZM141.761 27.013V27.263H142.438L141.924 26.8231L141.761 27.013ZM139.645 23.1109V22.8609H139.409L139.395 23.0965L139.645 23.1109ZM73.25 12.0555C73.25 6.08777 78.0878 1.25 84.0555 1.25V0.75C77.8116 0.75 72.75 5.81163 72.75 12.0555H73.25ZM84.0555 22.8609C78.0878 22.8609 73.25 18.0231 73.25 12.0555H72.75C72.75 18.2993 77.8116 23.3609 84.0555 23.3609V22.8609ZM135.297 22.8609H84.0555V23.3609H135.297V22.8609ZM141.761 26.763C139.653 26.763 138.235 26.2493 137.279 25.5381C136.324 24.8265 135.808 23.9004 135.536 23.0358L135.059 23.1861C135.355 24.1259 135.922 25.1508 136.981 25.9392C138.04 26.7279 139.57 27.263 141.761 27.263V26.763ZM139.395 23.0965C139.297 24.8089 140.422 26.1966 141.599 27.203L141.924 26.8231C140.775 25.8401 139.81 24.5918 139.894 23.1253L139.395 23.0965ZM146.945 22.8609H139.645V23.3609H146.945V22.8609ZM157.75 12.0555C157.75 18.0231 152.912 22.8609 146.945 22.8609V23.3609C153.188 23.3609 158.25 18.2993 158.25 12.0555H157.75ZM146.945 1.25C152.912 1.25 157.75 6.08777 157.75 12.0555H158.25C158.25 5.81163 153.188 0.75 146.945 0.75V1.25ZM84.0555 1.25H146.945V0.75H84.0555V1.25Z" fill="black"/>
<path d="M94.3375 10.18H91.9675V11.01H94.3375V14.32H95.3675V7.74H94.3375V10.18ZM93.0775 12.77L92.9775 11.95C92.6975 11.9967 92.4242 12.0367 92.1575 12.07C91.8909 12.1033 91.6175 12.1333 91.3375 12.16C91.0575 12.18 90.7609 12.1967 90.4475 12.21C90.1409 12.2167 89.8042 12.22 89.4375 12.22V9.26H92.5175V8.43H88.4075V13.06H89.1075C89.5275 13.06 89.9142 13.0567 90.2675 13.05C90.6209 13.0433 90.9542 13.03 91.2675 13.01C91.5809 12.9833 91.8842 12.9533 92.1775 12.92C92.4709 12.88 92.7709 12.83 93.0775 12.77ZM95.5975 15.8H90.5375V13.82H89.5075V16.63H95.5975V15.8ZM103.337 10.18H100.967V11.01H103.337V14.32H104.367V7.74H103.337V10.18ZM102.077 12.77L101.977 11.95C101.697 11.9967 101.423 12.0367 101.157 12.07C100.89 12.1033 100.617 12.1333 100.337 12.16C100.057 12.18 99.7601 12.1967 99.4468 12.21C99.1401 12.2167 98.8034 12.22 98.4368 12.22V9.26H101.517V8.43H97.4068V13.06H98.1068C98.5268 13.06 98.9134 13.0567 99.2668 13.05C99.6201 13.0433 99.9534 13.03 100.267 13.01C100.58 12.9833 100.883 12.9533 101.177 12.92C101.47 12.88 101.77 12.83 102.077 12.77ZM104.597 15.8H99.5368V13.82H98.5068V16.63H104.597V15.8ZM106.996 16.13V14.89H105.816V16.13H106.996ZM109.442 16.13V14.89H108.262V16.13H109.442ZM111.889 16.13V14.89H110.709V16.13H111.889ZM115.075 17.45L115.795 17.13C115.355 16.4033 115.035 15.64 114.835 14.84C114.635 14.04 114.535 13.2033 114.535 12.33C114.535 11.4633 114.635 10.63 114.835 9.83C115.035 9.02333 115.355 8.25667 115.795 7.53L115.075 7.22C114.609 7.97333 114.245 8.76667 113.985 9.6C113.725 10.4333 113.595 11.3433 113.595 12.33C113.595 13.3233 113.725 14.2367 113.985 15.07C114.245 15.8967 114.609 16.69 115.075 17.45ZM122.42 14.34V11.37H123.29V14.58H124.27V7.74H123.29V10.53H122.42V7.91H121.46V14.34H122.42ZM119.58 11.49L120.54 11.58C120.633 11.04 120.687 10.56 120.7 10.14C120.72 9.72 120.73 9.35 120.73 9.03V8.43H116.94V9.27H119.77C119.77 9.55667 119.76 9.88 119.74 10.24C119.72 10.5933 119.667 11.01 119.58 11.49ZM121.12 12.86L121.06 12.12C120.72 12.1667 120.36 12.2033 119.98 12.23C119.607 12.25 119.227 12.27 118.84 12.29V10.5H117.9V12.32C117.633 12.3267 117.38 12.33 117.14 12.33H116.48L116.59 13.17C116.89 13.17 117.227 13.1667 117.6 13.16C117.973 13.1533 118.36 13.14 118.76 13.12C119.16 13.0933 119.56 13.06 119.96 13.02C120.367 12.98 120.753 12.9267 121.12 12.86ZM124.51 15.76H119.07V13.89H118.03V16.6H124.51V15.76ZM130.509 12.26L130.929 11.48C130.589 11.4067 130.286 11.3033 130.019 11.17C129.753 11.0367 129.526 10.8833 129.339 10.71C129.153 10.53 129.009 10.34 128.909 10.14C128.809 9.93333 128.759 9.72 128.759 9.5V9.43H130.659V8.6H128.769V7.7H127.729V8.6H125.829V9.43H127.729V9.5C127.729 9.74667 127.679 9.98667 127.579 10.22C127.479 10.4533 127.336 10.6667 127.149 10.86C126.963 11.0533 126.733 11.2267 126.459 11.38C126.186 11.5267 125.876 11.6433 125.529 11.73L125.979 12.52C126.546 12.38 127.019 12.1633 127.399 11.87C127.786 11.57 128.083 11.21 128.289 10.79C128.496 11.15 128.786 11.4567 129.159 11.71C129.533 11.9633 129.983 12.1467 130.509 12.26ZM133.909 9.71H132.629V7.73H131.599V12.37H132.629V10.56H133.909V9.71ZM131.689 13.31V12.57H130.689V13.31H128.919V14.06H133.449V13.31H131.689ZM127.449 15.75V13.18H126.449V16.6H126.919C127.286 16.6 127.659 16.58 128.039 16.54C128.426 16.5 128.829 16.4133 129.249 16.28L129.079 15.46C128.799 15.5533 128.523 15.6233 128.249 15.67C127.976 15.71 127.709 15.7367 127.449 15.75ZM131.189 14.34C130.943 14.34 130.713 14.37 130.499 14.43C130.293 14.4833 130.113 14.5633 129.959 14.67C129.806 14.7767 129.686 14.9067 129.599 15.06C129.519 15.2067 129.479 15.37 129.479 15.55C129.479 15.7367 129.519 15.9033 129.599 16.05C129.686 16.2033 129.806 16.3333 129.959 16.44C130.113 16.5467 130.293 16.6267 130.499 16.68C130.713 16.74 130.943 16.77 131.189 16.77C131.443 16.77 131.673 16.74 131.879 16.68C132.086 16.6267 132.263 16.5467 132.409 16.44C132.563 16.3333 132.679 16.2033 132.759 16.05C132.846 15.9033 132.889 15.7367 132.889 15.55C132.889 15.37 132.846 15.2067 132.759 15.06C132.679 14.9067 132.563 14.7767 132.409 14.67C132.263 14.5633 132.086 14.4833 131.879 14.43C131.673 14.37 131.443 14.34 131.189 14.34ZM131.189 16.07C130.963 16.07 130.776 16.0267 130.629 15.94C130.483 15.8467 130.409 15.7167 130.409 15.55C130.409 15.39 130.483 15.2667 130.629 15.18C130.776 15.0867 130.963 15.04 131.189 15.04C131.409 15.04 131.593 15.0867 131.739 15.18C131.886 15.2667 131.959 15.39 131.959 15.55C131.959 15.7167 131.886 15.8467 131.739 15.94C131.593 16.0267 131.409 16.07 131.189 16.07ZM142.979 12.12V11.27H141.569V7.74H140.539V16.78H141.569V12.12H142.979ZM136.979 8.4C136.639 8.4 136.325 8.47667 136.039 8.63C135.759 8.77667 135.515 8.99 135.309 9.27C135.109 9.54333 134.949 9.87667 134.829 10.27C134.715 10.6633 134.659 11.1033 134.659 11.59C134.659 12.0767 134.715 12.5167 134.829 12.91C134.949 13.3033 135.109 13.6367 135.309 13.91C135.515 14.1833 135.759 14.3967 136.039 14.55C136.325 14.6967 136.639 14.77 136.979 14.77C137.319 14.77 137.629 14.6967 137.909 14.55C138.195 14.3967 138.439 14.1833 138.639 13.91C138.845 13.6367 139.005 13.3033 139.119 12.91C139.239 12.5167 139.299 12.0767 139.299 11.59C139.299 11.1033 139.239 10.6633 139.119 10.27C139.005 9.87667 138.845 9.54333 138.639 9.27C138.439 8.99 138.195 8.77667 137.909 8.63C137.629 8.47667 137.319 8.4 136.979 8.4ZM136.979 13.85C136.579 13.85 136.255 13.65 136.009 13.25C135.769 12.85 135.649 12.2967 135.649 11.59C135.649 10.8833 135.769 10.33 136.009 9.93C136.255 9.53 136.579 9.33 136.979 9.33C137.379 9.33 137.699 9.53 137.939 9.93C138.185 10.33 138.309 10.8833 138.309 11.59C138.309 12.2967 138.185 12.85 137.939 13.25C137.699 13.65 137.379 13.85 136.979 13.85ZM143.518 17.13L144.238 17.45C144.711 16.69 145.078 15.8967 145.338 15.07C145.598 14.2367 145.728 13.3233 145.728 12.33C145.728 11.3433 145.598 10.4333 145.338 9.6C145.078 8.76667 144.711 7.97333 144.238 7.22L143.518 7.53C143.958 8.25667 144.278 9.02333 144.478 9.83C144.678 10.63 144.778 11.4633 144.778 12.33C144.778 13.2033 144.678 14.04 144.478 14.84C144.278 15.64 143.958 16.4033 143.518 17.13Z" fill="black"/>
<path d="M175.354 119.185C173.806 122.058 172.122 124.857 170.299 127.559C169.451 128.821 168.473 130.208 167.622 131.348C167.43 131.605 167.236 131.872 167.029 132.116C166.924 132.237 166.812 132.34 166.699 132.452C166.586 132.564 166.761 132.395 166.78 132.384C166.908 132.322 167.054 132.334 166.849 132.354C167.079 132.331 167.327 132.36 167.543 132.352C167.76 132.343 167.636 132.376 167.524 132.34C167.195 132.221 167.741 132.472 167.441 132.29C167.142 132.108 166.758 131.874 166.419 131.668L161.569 128.742C160.803 128.276 159.547 128.149 158.88 128.89C158.738 129.047 158.633 129.235 158.574 129.438C158.515 129.641 158.502 129.855 158.538 130.064C158.573 130.272 158.656 130.47 158.779 130.642C158.902 130.813 159.063 130.955 159.248 131.055L163.934 133.881C164.674 134.331 165.437 134.89 166.274 135.15C166.853 135.35 167.474 135.395 168.076 135.281C168.678 135.167 169.24 134.899 169.708 134.502C170.299 133.918 170.822 133.268 171.267 132.566C171.799 131.856 172.313 131.135 172.821 130.41C173.857 128.934 174.85 127.431 175.801 125.902C176.887 124.155 177.917 122.374 178.891 120.559C179.341 119.723 178.645 118.78 177.844 118.505C177.042 118.23 175.817 118.32 175.344 119.202L175.354 119.185Z" fill="black"/>
<path d="M152.149 120.67C148.776 122.527 145.246 124.082 141.598 125.318C140.668 125.63 139.736 125.92 138.8 126.201C138.469 126.309 138.13 126.395 137.786 126.457C137.69 126.472 137.593 126.48 137.495 126.483C137.793 126.504 138.085 126.592 138.35 126.741C138.614 126.889 138.845 127.093 139.026 127.34C138.995 127.273 138.756 126.932 138.794 126.995C137.795 125.251 136.877 123.452 135.921 121.687C135.692 121.29 135.389 120.941 135.031 120.661C134.672 120.38 134.264 120.173 133.83 120.052C133.425 119.942 132.232 119.868 132.672 120.684L135.187 125.326C135.684 126.244 136.131 127.109 136.935 127.797C137.378 128.199 137.896 128.507 138.455 128.7C139.014 128.894 139.604 128.969 140.187 128.923C141.012 128.765 141.822 128.545 142.612 128.262C143.43 128.016 144.243 127.752 145.053 127.47C146.668 126.91 148.26 126.285 149.829 125.596C151.622 124.813 153.374 123.948 155.086 123.001C155.766 122.627 154.791 121.663 154.456 121.409C153.937 121.01 152.833 120.303 152.153 120.677L152.149 120.67Z" fill="black"/>
<path d="M201.845 97.6574C207.031 102.213 209.523 108.533 209.094 116.042C209.059 116.593 212.028 116.264 212.059 115.737C212.474 108.138 209.924 101.748 204.643 97.1527C204.183 96.9241 203.513 96.8904 202.746 97.0573C202.388 97.1226 201.511 97.3632 201.837 97.6442L201.845 97.6574Z" fill="black"/>
<path d="M136.024 96.2958C130.838 100.851 128.346 107.171 128.775 114.68C128.81 115.231 125.841 114.903 125.81 114.375C125.395 106.776 127.945 100.387 133.226 95.791C133.686 95.5624 134.357 95.5287 135.123 95.6957C135.481 95.7609 136.358 96.0015 136.032 96.2825L136.024 96.2958Z" fill="black"/>
<path d="M213.329 57.8858C215.935 63.4954 209.988 71.18 210.254 77.0063C210.523 83.0456 217.042 90.1688 215.028 95.7745C213.014 101.38 203.469 102.638 199.421 107.102C195.519 111.407 195.193 121.143 189.622 123.772C184.052 126.401 176.422 120.408 170.637 120.675C164.644 120.946 157.567 127.512 152.001 125.483C146.434 123.455 145.185 113.842 140.753 109.765C136.478 105.836 126.81 105.507 124.223 99.8975C121.636 94.2879 127.56 86.6033 127.299 80.777C127.03 74.7377 120.51 67.6145 122.524 62.0088C124.539 56.4031 134.083 55.1449 138.131 50.6813C142.033 46.3764 142.36 36.64 147.93 34.0152C153.5 31.3904 161.13 37.3755 166.916 37.1123C172.912 36.8413 179.985 30.2755 185.552 32.3041C191.118 34.3326 192.367 43.9451 196.799 48.0217C201.051 51.9472 210.719 52.2763 213.329 57.8858Z" fill="#FFB800"/>
<path d="M173.448 35.581C170.136 37.3344 167.831 38.0433 164.597 38.0433C160.171 38.0433 159.831 32.3354 149.618 33.9582C139.406 35.581 142.469 53.3621 129.275 55.9266C127.316 56.3619 121.363 60.5109 122.385 68.0001C123.117 71.294 124.561 75.3236 126.712 77.601C128.21 79.187 127.45 84.7299 126.585 86.4606L126.554 86.5221C124.548 90.5346 121.401 96.8286 124.087 101.361C125.111 103.089 126.712 104.085 128.853 104.765C130.994 105.446 133.587 106.777 134.64 107.217C138.422 108.801 140.291 109.186 142.81 111.914C145.948 115.313 145.635 121.606 149.618 124.51C154.479 128.053 155.906 126.712 161.533 124.51C164.845 123.214 165.566 121.809 168.682 120.425C169.431 120.092 173.435 119.899 174.128 120.765C175.759 122.804 177.533 123.489 182.979 123.829C187.405 124.873 192.905 122.289 193.873 121.106C197.144 117.107 197.637 115.285 196.956 108.926C196.295 102.76 205.378 102.519 210.435 100.68C214.072 99.3579 216 96.9804 216 93.1912C216 91.0657 214.445 89.818 213.852 87.7445C213.398 86.153 210.435 82.9204 210.435 80.8284C210.435 77.5213 209.845 77.8898 210.435 74.1277C210.956 70.8065 213.852 65.8199 213.852 62.5534C213.852 58.6783 210.738 55.1021 206.809 53.0217C203.453 51.2451 198.639 52.3787 195.234 48.5963C189.107 41.7879 194.554 35.581 184.341 32.2562C178.554 31.2349 177.156 33.6175 173.448 35.581Z" stroke="black" stroke-width="2" stroke-linecap="round"/>
<path d="M168.435 66.6385C169.168 68.2729 170 70.3233 172.387 69.3136C173.745 68.6212 174.426 68.2808 175.989 67.2679" stroke="black" stroke-width="2" stroke-linecap="round"/>
<path d="M154.138 68.302C155.152 69.7783 156.339 71.6461 158.506 70.2244C159.717 69.2995 160.326 68.8424 161.682 67.5655" stroke="black" stroke-width="2" stroke-linecap="round"/>
<path d="M154.923 80.0879C156.738 82.5157 159.29 86.0205 161.353 87.767C161.415 87.8189 161.659 88.0204 161.74 88.0204C161.992 88.0204 162.279 87.826 162.503 87.7064C163.239 87.3124 163.987 86.9562 164.723 86.5606C167.43 85.1057 170.001 83.1819 172.583 81.3768C173.942 80.4271 178.109 77.4838 179.433 76.4462" stroke="black" stroke-width="2" stroke-linecap="round"/>
<path d="M66.7583 151.224V163H69.9103C73.4303 163 75.4943 160.888 75.4943 157.064C75.4943 153.16 73.5103 151.224 69.8143 151.224H66.7583ZM69.6863 161.48H68.6143V152.728H69.6863C72.2303 152.728 73.5743 154.104 73.5743 157.064C73.5743 160.072 72.2623 161.48 69.6863 161.48ZM80.8258 163.208C83.0018 163.208 84.9698 161.512 84.9698 158.616C84.9698 155.672 83.0018 153.976 80.8258 153.976C78.6498 153.976 76.6818 155.672 76.6818 158.616C76.6818 161.512 78.6498 163.208 80.8258 163.208ZM80.8258 161.704C79.4658 161.704 78.5858 160.472 78.5858 158.616C78.5858 156.744 79.4178 155.496 80.8258 155.496C82.2338 155.496 83.0818 156.744 83.0818 158.616C83.0818 160.472 82.2178 161.704 80.8258 161.704ZM86.6379 154.2V163H88.4619V156.76C89.2459 155.976 89.8059 155.56 90.6219 155.56C91.6619 155.56 92.1099 156.152 92.1099 157.688V163H93.9499V157.464C93.9499 155.208 93.1179 153.976 91.2459 153.976C90.0459 153.976 89.1499 154.632 88.3339 155.416H88.2859L88.1419 154.2H86.6379ZM99.8063 163.208C100.958 163.208 101.966 162.84 102.782 162.28L102.142 161.112C101.502 161.544 100.83 161.768 100.046 161.768C98.5103 161.768 97.4703 160.76 97.3263 159.08H103.038C103.086 158.84 103.118 158.536 103.118 158.152C103.118 155.656 101.87 153.976 99.5343 153.976C97.4703 153.976 95.5183 155.736 95.5183 158.616C95.5183 161.512 97.4223 163.208 99.8063 163.208ZM101.534 157.816H97.3103C97.4863 156.28 98.4783 155.416 99.5663 155.416C100.846 155.416 101.534 156.28 101.534 157.816ZM107.967 151.224V163H114.799V161.432H109.823V151.224H107.967ZM117.881 150.472H115.993V152.456H117.881V150.472ZM116.009 163H117.833V154.2H116.009V163ZM122.279 163.208C124.455 163.208 125.623 162.008 125.623 160.536C125.623 158.872 124.263 158.328 123.031 157.864C122.071 157.512 121.159 157.224 121.159 156.472C121.159 155.848 121.607 155.384 122.567 155.384C123.319 155.384 123.911 155.704 124.535 156.152L125.399 155.016C124.679 154.456 123.751 153.976 122.535 153.976C120.599 153.976 119.415 155.08 119.415 156.552C119.415 158.056 120.775 158.648 121.927 159.112C122.887 159.496 123.879 159.816 123.879 160.632C123.879 161.32 123.415 161.816 122.327 161.816C121.367 161.816 120.615 161.432 119.831 160.808L118.967 161.992C119.815 162.696 121.063 163.208 122.279 163.208ZM129.687 163.208C130.327 163.208 130.919 163.064 131.415 162.888L131.079 161.528C130.823 161.64 130.439 161.736 130.135 161.736C129.223 161.736 128.855 161.224 128.855 160.136V155.672H131.143V154.2H128.855V151.768H127.303L127.095 154.2L125.735 154.296V155.672H127.015V160.12C127.015 161.976 127.703 163.208 129.687 163.208ZM145.406 156.856V155.48H143.214V149.768H141.566V164.216H143.214V156.856H145.406ZM139.438 151.304H132.734V152.648H137.79C137.454 155.96 135.518 158.52 132.014 160.328L132.926 161.592C137.646 159.208 139.438 155.496 139.438 151.304ZM162.695 154.824V153.464H160.647V149.768H158.999V158.488H160.647V154.824H162.695ZM157.015 157.912L157.863 156.648C155.639 155.928 154.439 154.136 154.439 152.312V152.056H157.463V150.712H149.703V152.056H152.775V152.312C152.775 154.28 151.511 156.136 149.223 156.904L150.087 158.2C151.815 157.608 152.983 156.44 153.623 154.904C154.247 156.312 155.399 157.384 157.015 157.912ZM151.143 159.192V160.52H158.999V164.232H160.647V159.192H151.143ZM173.926 154.008V158.296H175.574V149.768H173.926V152.664H170.998V154.008H173.926ZM171.302 157.72L172.182 156.424C170.006 155.704 168.79 153.896 168.79 151.896V150.552H167.126V151.976C167.126 154.088 165.862 156.056 163.542 156.824L164.406 158.152C166.15 157.528 167.366 156.264 168.006 154.664C168.63 156.072 169.75 157.16 171.302 157.72ZM170.758 158.696C167.75 158.696 165.894 159.72 165.894 161.464C165.894 163.208 167.75 164.232 170.758 164.232C173.782 164.232 175.638 163.208 175.638 161.464C175.638 159.72 173.782 158.696 170.758 158.696ZM170.758 162.936C168.694 162.936 167.542 162.424 167.542 161.464C167.542 160.504 168.694 159.992 170.758 159.992C172.822 159.992 173.99 160.504 173.99 161.464C173.99 162.424 172.822 162.936 170.758 162.936ZM189.733 149.752H188.069V164.264H189.733V149.752ZM183.429 159.784V157.176H186.373V155.848H180.565V152.44H186.309V151.096H178.917V157.176H181.781V159.848C180.421 159.88 179.141 159.896 177.909 159.896L178.117 161.256C180.853 161.256 184.197 161.24 187.317 160.728L187.189 159.512C185.973 159.656 184.709 159.736 183.429 159.784ZM203.972 149.784H202.308V164.232H203.972V149.784ZM197.412 153.96V152.584H200.628V151.224H192.532V152.584H195.748V153.96C195.748 156.408 194.26 159.16 192.02 160.168L192.964 161.48C194.66 160.68 195.956 158.936 196.596 156.936C197.284 158.808 198.564 160.36 200.244 161.112L201.156 159.816C198.9 158.84 197.412 156.376 197.412 153.96ZM222.748 152.92H220.7V149.784H219.052V156.936H220.7V154.28H222.748V152.92ZM217.18 153.912C217.18 151.944 215.564 150.552 213.388 150.552C211.212 150.552 209.596 151.944 209.596 153.912C209.596 155.88 211.212 157.272 213.388 157.272C215.564 157.272 217.18 155.88 217.18 153.912ZM211.196 153.912C211.196 152.696 212.124 151.896 213.388 151.896C214.652 151.896 215.58 152.696 215.58 153.912C215.58 155.112 214.62 155.912 213.388 155.912C212.156 155.912 211.196 155.112 211.196 153.912ZM219.196 158.504V157.32H217.596V158.504H214.764V159.704H222.012V158.504H219.196ZM212.412 162.504V158.424H210.812V163.864H211.564C212.732 163.864 213.948 163.8 215.292 163.352L215.02 162.04C214.124 162.344 213.244 162.456 212.412 162.504ZM218.396 160.152C216.796 160.152 215.66 160.952 215.66 162.2C215.66 163.448 216.796 164.248 218.396 164.248C219.996 164.248 221.116 163.448 221.116 162.2C221.116 160.952 219.996 160.152 218.396 160.152ZM218.396 163.096C217.644 163.096 217.116 162.76 217.116 162.2C217.116 161.624 217.644 161.304 218.396 161.304C219.116 161.304 219.66 161.624 219.66 162.2C219.66 162.76 219.116 163.096 218.396 163.096ZM236.987 153.08H234.939V149.784H233.291V157.96H234.939V154.44H236.987V153.08ZM227.675 157.496C229.899 157.496 231.531 156.072 231.531 154.04C231.531 151.992 229.899 150.6 227.675 150.6C225.483 150.6 223.835 151.992 223.835 154.04C223.835 156.072 225.483 157.496 227.675 157.496ZM227.675 151.976C228.971 151.976 229.915 152.76 229.915 154.04C229.915 155.32 228.971 156.104 227.675 156.104C226.379 156.104 225.451 155.32 225.451 154.04C225.451 152.76 226.379 151.976 227.675 151.976ZM233.867 159.24V158.584H232.251V159.24C232.251 160.392 231.659 161.688 230.363 162.6C229.099 161.784 228.523 160.472 228.523 159.24V158.584H226.923V159.24C226.923 160.68 225.995 162.184 224.139 162.856L224.955 164.056C226.299 163.56 227.211 162.632 227.723 161.48C228.171 162.696 228.987 163.672 230.395 164.2C231.739 163.64 232.571 162.6 233.035 161.448C233.531 162.616 234.427 163.56 235.835 164.056L236.667 162.856C234.795 162.216 233.867 160.776 233.867 159.24ZM249.898 149.768H248.234V155.16H245.418C245.21 152.52 243.722 150.84 241.786 150.84C239.658 150.84 238.138 152.824 238.138 155.928C238.138 159.064 239.658 161.032 241.786 161.032C243.754 161.032 245.258 159.304 245.434 156.504H248.234V164.264H249.898V149.768ZM241.786 159.56C240.554 159.56 239.706 158.248 239.706 155.928C239.706 153.672 240.554 152.328 241.786 152.328C243.066 152.328 243.882 153.672 243.882 155.928C243.882 158.248 243.066 159.56 241.786 159.56ZM265.225 161.112H262.137V157.352C263.289 156.696 263.977 155.672 263.977 154.392C263.977 152.088 261.737 150.616 258.665 150.616C255.577 150.616 253.353 152.088 253.353 154.392C253.353 155.672 254.041 156.712 255.193 157.352V161.112H252.137V162.456H265.225V161.112ZM258.665 151.912C260.841 151.912 262.361 152.872 262.361 154.392C262.361 155.928 260.841 156.888 258.665 156.888C256.473 156.888 254.953 155.928 254.953 154.392C254.953 152.872 256.473 151.912 258.665 151.912ZM256.841 161.112V157.976C257.401 158.104 258.009 158.168 258.665 158.168C259.305 158.168 259.929 158.104 260.489 157.96V161.112H256.841ZM268.151 163.208V161.224H266.263V163.208H268.151Z" fill="black"/>
</svg>
