<svg width="451" height="398" viewBox="0 0 451 398" fill="none" xmlns="http://www.w3.org/2000/svg">
<path d="M240.315 342.717C240.825 352.45 240.872 362.206 240.408 371.928C240.199 376.466 239.851 381.523 239.445 385.75C239.352 386.706 239.271 387.685 239.12 388.63C239.039 389.102 238.911 389.54 238.795 390.001C238.679 390.461 238.865 389.759 238.9 389.701C239.132 389.344 239.526 389.148 239.027 389.517C239.584 389.102 240.269 388.791 240.814 388.434C241.359 388.077 241.092 388.353 240.744 388.434C239.712 388.641 241.51 388.434 240.454 388.434C239.398 388.434 238.041 388.434 236.846 388.434L219.77 388.492C217.066 388.492 213.633 390.116 213.076 393.041C212.955 393.663 212.979 394.303 213.144 394.913C213.31 395.524 213.613 396.089 214.031 396.567C214.449 397.044 214.971 397.42 215.557 397.668C216.143 397.915 216.778 398.027 217.414 397.995L233.911 397.937C236.521 397.937 239.364 398.179 241.927 397.545C243.73 397.156 245.4 396.308 246.773 395.084C248.146 393.86 249.175 392.303 249.758 390.565C250.365 388.156 250.696 385.687 250.744 383.205C250.999 380.567 251.197 377.929 251.371 375.291C251.726 369.916 251.931 364.541 251.985 359.165C252.047 353.022 251.912 346.879 251.58 340.736C251.429 337.902 248.157 336.578 245.663 337.119C243.169 337.66 240.152 339.791 240.315 342.774V342.717Z" fill="black"/>
<path d="M182.44 345.272C183.195 356.754 182.925 368.278 181.632 379.716C181.293 382.627 180.895 385.516 180.462 388.405C180.335 389.44 180.135 390.465 179.866 391.474C179.782 391.754 179.68 392.028 179.561 392.295C180.004 391.514 180.618 390.836 181.362 390.308C182.106 389.78 182.961 389.414 183.867 389.237C183.645 389.237 182.405 389.451 182.627 389.428C176.578 389.923 170.483 390.125 164.434 390.474C163.056 390.591 161.715 390.968 160.488 391.583C159.262 392.199 158.173 393.04 157.285 394.06C156.466 395.015 154.735 398.152 157.531 397.994L173.443 397.073C176.59 396.893 179.526 396.78 182.44 395.476C184.106 394.786 185.608 393.776 186.853 392.508C188.099 391.24 189.061 389.74 189.682 388.102C190.307 385.671 190.741 383.198 190.98 380.705C191.355 378.179 191.675 375.643 191.94 373.095C192.478 368.013 192.809 362.914 192.934 357.795C193.09 351.95 192.969 346.112 192.572 340.281C192.419 337.965 188.535 339.382 187.412 339.966C185.657 340.866 182.311 342.956 182.463 345.272H182.44Z" fill="black"/>
<path d="M323.631 273.745C330.135 293.571 327.192 313.946 315.07 333.014C314.172 334.409 322.208 338.046 323.062 336.71C335.278 317.382 338.176 296.737 331.491 276.662C330.656 275.364 329.001 274.259 326.806 273.536C325.799 273.164 323.215 272.466 323.631 273.698V273.745Z" fill="black"/>
<path d="M103.005 280.235L109.916 345.853C109.918 346.594 110.437 347.312 111.384 347.881C112.33 348.45 113.644 348.836 115.098 348.97C117.655 349.178 121.156 348.278 120.995 346.765L114.085 281.147C114.093 280.406 113.58 279.688 112.636 279.118C111.693 278.548 110.379 278.163 108.925 278.03C106.345 277.822 102.844 278.722 103.005 280.235Z" fill="black"/>
<path d="M347.764 153.671C355.56 170.447 337.772 193.43 338.566 210.856C339.371 228.918 358.872 250.222 352.847 266.987C346.821 283.752 318.271 287.515 306.164 300.865C294.493 313.74 293.516 342.859 276.855 350.721C260.194 358.583 237.37 340.659 220.065 341.458C202.139 342.269 180.971 361.906 164.322 355.839C147.672 349.772 143.935 321.023 130.678 308.831C117.892 297.079 88.974 296.095 81.2357 279.318C73.4974 262.541 91.2162 239.558 90.4343 222.133C89.6294 204.071 70.1284 182.767 76.1535 166.001C82.1785 149.236 110.729 145.473 122.836 132.123C134.507 119.248 135.484 90.1291 152.145 82.2791C168.806 74.429 191.63 92.329 208.935 91.5417C226.872 90.7312 248.029 71.0945 264.678 77.1615C281.328 83.2285 285.065 111.977 298.322 124.169C311.039 135.91 339.957 136.894 347.764 153.671Z" fill="#FFB800"/>
<path d="M193.152 216.612C200.974 215.362 208.857 214.105 216.719 213.199C218.922 212.946 227.572 210.362 226.97 213.67C225.33 222.675 222.182 230.326 218.764 238.756C218.064 240.485 213.493 251.08 211.652 249.91C209.811 248.74 204.087 239.891 202.275 235.669C201.136 233.015 194.982 220.374 193 218.175" stroke="black" stroke-width="6" stroke-linecap="round"/>
<path d="M230.927 187.885C231.374 188.418 232.529 192.181 233.982 191.535C236.689 190.331 237.508 186.074 236.165 183.712C232.795 177.784 231.423 186.323 231.014 187.263" stroke="black" stroke-width="6" stroke-linecap="round"/>
<path d="M185.795 187.885C186.241 188.418 187.397 192.181 188.849 191.535C191.556 190.331 192.375 186.074 191.032 183.712C187.662 177.784 186.29 186.323 185.881 187.263" stroke="black" stroke-width="6" stroke-linecap="round"/>
<path d="M27 119C27 124.085 25.9824 128.986 22.9512 133.255C19.3362 138.345 17.8915 139.364 13.842 142.418C9.79254 145.473 0.33039 145.204 3.71951 145.473C14.2592 146.31 23.9637 166.455 23.9637 175" stroke="black" stroke-width="6" stroke-linecap="round"/>
<path d="M27.1601 119C27.1601 123.207 30.267 142.859 37.6937 144.455C39.2262 144.784 43.687 145.335 45 146.181M42.9605 147.509C27.1601 151.582 24 169.264 24 175" stroke="black" stroke-width="6" stroke-linecap="round"/>
<path d="M33.8245 192C35.1433 201.845 30.3805 208.788 21.7695 213.595C14.6713 217.558 12.8418 214.938 23.6913 217.282C35.1397 219.756 40 236.1 40 246" stroke="black" stroke-width="6" stroke-linecap="round"/>
<path d="M34 193C37.9284 202.347 46.3827 206.708 55.8975 206.708C60.2474 206.708 62.1199 205.063 56.5348 207.236C53.7429 208.322 49.4079 213.822 48.2495 216.282C46.4307 220.145 45.2095 223.455 44.1962 227.554C43.4588 230.537 41.4798 243.218 41.1562 246" stroke="black" stroke-width="6" stroke-linecap="round"/>
<path d="M227.886 86.6694C217.992 91.9103 211.106 94.0289 201.446 94.0289C188.226 94.0289 187.21 76.9683 156.702 81.8189C126.195 86.6694 135.347 139.817 95.9309 147.482C90.0789 148.783 72.2983 161.184 75.3492 183.569C77.5358 193.415 81.8497 205.459 88.2748 212.266C92.7493 217.007 90.4817 233.574 87.8967 238.747L87.8048 238.931C81.8113 250.924 72.4099 269.737 80.4337 283.285C83.4918 288.449 88.2748 291.425 94.6705 293.46C101.066 295.495 108.814 299.472 111.958 300.789C123.257 305.522 128.84 306.672 136.364 314.828C145.737 324.988 144.802 343.797 156.702 352.475C171.224 363.065 175.485 359.057 192.294 352.475C202.188 348.602 204.343 344.404 213.649 340.265C215.888 339.27 227.849 338.693 229.92 341.283C234.792 347.376 240.089 349.423 256.359 350.44C269.579 353.563 286.009 345.837 288.901 342.3C298.674 330.349 300.146 324.902 298.111 305.896C296.137 287.465 323.269 286.747 338.376 281.25C349.241 277.297 355 270.191 355 258.865C355 252.512 350.354 248.783 348.585 242.585C347.226 237.828 338.376 228.166 338.376 221.913C338.376 212.028 336.614 213.13 338.376 201.885C339.933 191.958 348.585 177.053 348.585 167.289C348.585 155.707 339.282 145.017 327.543 138.799C317.519 133.489 303.137 136.877 292.968 125.572C274.664 105.222 290.934 86.6694 260.427 76.7315C243.14 73.6788 238.963 80.8005 227.886 86.6694Z" stroke="black" stroke-width="6" stroke-linecap="round"/>
<path d="M165.416 201.69C173.442 201.69 180.644 200 188.299 200C190.451 200 195.971 199.901 193.272 203.255C191.784 204.735 182.043 216.687 180.084 219.154C175.895 222.66 176.385 225.911 173.442 222.66C171.797 220.842 169.408 219.775 167.777 218.153C164.788 215.181 162.105 212.201 159.152 209.264C158.039 208.157 156.384 205.782 156.036 204.226C155.432 201.522 162.575 202.161 165.416 201.69Z" fill="black" stroke="black" stroke-width="6" stroke-linecap="round"/>
<path d="M214.416 201.69C222.442 201.69 229.644 200 237.299 200C239.451 200 244.971 199.901 242.272 203.255C240.784 204.735 231.043 216.687 229.084 219.154C224.895 222.66 225.385 225.911 222.442 222.66C220.797 220.842 218.408 219.775 216.777 218.153C213.788 215.181 211.105 212.201 208.152 209.264C207.039 208.157 205.384 205.782 205.036 204.226C204.432 201.522 211.575 202.161 214.416 201.69Z" fill="black" stroke="black" stroke-width="6" stroke-linecap="round"/>
<path d="M191 207C197.378 205.385 204.056 206.334 210.502 205.407C211.64 205.244 212.849 205 214 205" stroke="black" stroke-width="6" stroke-linecap="round"/>
<path d="M170 6.01783C170.179 7.90721 169.489 19.8999 172.078 19.8999C176.516 19.8999 181.005 20.1252 185.437 19.8999C189.155 19.7109 187.812 12.5624 187.812 10.3434C187.812 7.74272 189 5.40829 189 3" stroke="black" stroke-width="6" stroke-linecap="round"/>
<path d="M169 13C176.447 13 183.644 12.1146 191 11" stroke="black" stroke-width="6" stroke-linecap="round"/>
<path d="M165 34C174.336 33.0678 183.482 31.15 192.721 29.6597C193.836 29.4799 194.879 29 196 29" stroke="black" stroke-width="6" stroke-linecap="round"/>
<path d="M178 32C179.417 37.7267 181 44.074 181 50" stroke="black" stroke-width="6" stroke-linecap="round"/>
<path d="M204 15.9448C212.409 14.0593 221.421 13.4224 230.026 13.0043C232.92 12.8637 228.498 16.2185 227.908 16.8597C225.04 19.974 222.572 23.4481 219.737 26.5961C218.41 28.0698 216.161 31.0746 215.5 33" stroke="black" stroke-width="6" stroke-linecap="round"/>
<path d="M225 23C226.157 25.6912 230 30.1576 230 33" stroke="black" stroke-width="6" stroke-linecap="round"/>
<path d="M253 6C250.13 20.3533 248 35.3324 248 50" stroke="black" stroke-width="6" stroke-linecap="round"/>
<path d="M250 28C254.203 28 258.89 28 263 28" stroke="black" stroke-width="6" stroke-linecap="round"/>
<path d="M362 112.503C363.532 110.579 365.717 109.31 367.03 107.232C367.623 106.294 368.874 105.369 369.757 104.682C371.881 103.03 373.584 101.094 375.617 99.3415C377.154 98.0164 378.582 96.6215 380.105 95.3103C380.46 95.0048 380.901 94.618 381.138 94.2078C381.539 93.5156 384.091 94.757 384.695 94.9658C386.538 95.6027 388.313 95.8812 390.199 96.9986C394.962 99.819 395.996 101.117 397.685 102.753C401.032 105.994 404.434 108.377 407.83 111.366C410.174 113.429 412.921 114.848 415.299 116.827C417.366 118.547 419.283 120.489 421.43 122.099C423.799 123.874 425.57 126.068 427.782 128.008C428.467 128.609 429.754 129.672 429.966 130.644C430.187 131.653 429.269 132.329 428.764 133.038C426.965 135.565 424.652 138.195 422.413 140.343C419.532 143.105 418.232 144.071 415.197 147.159C414.008 148.368 412.643 150 410.168 151.265C406.091 153.347 402.747 154.864 399.362 156.777C399.095 156.929 397.255 158.428 397.059 157.88C396.318 155.808 395.973 154.363 394.688 151.885C390.915 146.13 388.35 143.306 385.626 138.689C383.942 135.833 382.493 132.822 380.732 130.006C379.536 128.095 379.785 127.605 377.762 125.547C375.738 123.489 373.715 121.117 372.703 120.401C371.485 119.54 370.295 118.259 369.012 117.534C368.221 117.087 367.514 116.683 366.632 116.285C365.258 115.664 362.853 113.937 362 112.635" stroke="black" stroke-width="6" stroke-linecap="round"/>
<path d="M408.089 193.039C410.426 193.773 412.401 195.358 414.8 195.833C415.882 196.047 417.196 196.882 418.154 197.459C420.459 198.847 422.871 199.739 425.235 201.005C427.023 201.963 428.834 202.793 430.604 203.743C431.016 203.964 431.535 204.236 432 204.309C432.785 204.433 432.586 207.273 432.617 207.914C432.712 209.871 433.111 211.634 432.78 213.806C431.944 219.289 431.132 220.73 430.25 222.905C428.504 227.216 427.568 231.267 426.071 235.532C425.039 238.476 424.748 241.563 423.805 244.509C422.986 247.068 421.907 249.569 421.219 252.164C420.46 255.026 419.095 257.481 418.127 260.257C417.827 261.117 417.324 262.708 416.509 263.26C415.661 263.833 414.7 263.219 413.86 263.004C410.87 262.238 407.594 261.027 404.79 259.711C401.183 258.018 399.813 257.152 395.85 255.432C394.298 254.759 392.291 254.073 390.213 252.216C386.789 249.156 384.157 246.577 381.145 244.102C380.908 243.907 378.847 242.729 379.28 242.346C380.912 240.9 382.116 240.052 383.921 237.948C387.824 232.325 389.475 228.899 392.719 224.671C394.724 222.057 396.961 219.607 398.901 216.934C400.219 215.12 400.761 215.176 401.908 212.534C403.054 209.892 404.489 207.136 404.774 205.928C405.118 204.475 405.857 202.895 406.05 201.431C406.169 200.528 406.279 199.719 406.32 198.75C406.384 197.237 407.085 194.358 407.968 193.087" stroke="black" stroke-width="6" stroke-linecap="round"/>
<path d="M393.909 108C392.8 109.153 388.307 114.374 387.198 115.526C386.562 116.188 385.938 116.955 385.725 117.599C385.436 118.478 384.949 119.316 385.004 120.342C385.034 120.907 385.05 121.58 385.725 121.663C387.189 121.842 388.962 121.371 390.941 120.342C392.878 119.336 400.869 115.526 402.815 115.526C403.48 115.526 396.277 122.209 394.899 123.428C393.521 124.647 392.828 126.305 392.92 128.108C392.974 129.146 393.124 128.903 393.624 129.84C393.714 130.008 394.298 129.991 394.435 129.984C395.37 129.936 396.981 130.121 397.868 129.84C399.13 129.44 400.577 129.013 401.826 128.57C403.86 127.849 405.198 126.733 406.922 125.348C407.241 125.092 407.823 124.642 408 124.274" stroke="black" stroke-width="6" stroke-linecap="round"/>
<path d="M423.993 221.333C422.512 220.69 416.007 218.288 414.526 217.645C413.676 217.276 412.735 216.957 412.061 216.989C411.142 217.031 410.186 216.87 409.262 217.295C408.754 217.529 408.139 217.789 408.319 218.466C408.707 219.932 409.81 221.458 411.505 222.979C413.164 224.467 419.692 230.732 420.427 232.595C420.678 233.231 411.802 228.765 410.159 227.889C408.516 227.013 406.727 226.952 405.102 227.696C404.166 228.124 404.446 228.18 403.772 229C403.652 229.146 403.888 229.7 403.946 229.829C404.344 230.706 404.782 232.315 405.376 233.062C406.221 234.125 407.161 235.354 408.04 236.389C409.473 238.074 411.007 238.949 412.934 240.097C413.29 240.309 413.925 240.702 414.33 240.738" stroke="black" stroke-width="6" stroke-linecap="round"/>
<path d="M386 110C389.543 112.682 393.456 114.801 397.139 117.285C398.831 118.426 400.543 119.539 402.129 120.824C403.61 122.024 404.968 123.346 406.37 124.631C408.807 126.865 411.555 128.768 414 131" stroke="black" stroke-width="6" stroke-linecap="round"/>
<path d="M419.672 214.221C418.427 218.548 417.855 223.01 416.851 227.393C416.389 229.407 415.962 231.429 415.324 233.398C414.729 235.236 413.972 237.005 413.266 238.801C412.038 241.924 411.242 245.213 410.02 248.343" stroke="black" stroke-width="6" stroke-linecap="round"/>
</svg>
