<svg width="100" height="104" viewBox="0 0 100 104" fill="none" xmlns="http://www.w3.org/2000/svg">
<path d="M62.6908 85.5913C62.8336 88.6723 62.8309 91.7597 62.6682 94.8353C62.5947 96.271 62.4767 97.8706 62.3419 99.2076C62.3111 99.51 62.2839 99.8197 62.235 100.118C62.2087 100.268 62.168 100.406 62.1308 100.551C62.0936 100.697 62.153 100.475 62.164 100.457C62.2374 100.344 62.3614 100.283 62.2044 100.399C62.3797 100.269 62.5948 100.171 62.7664 100.059C62.9379 99.9472 62.8538 100.034 62.7445 100.059C62.4205 100.123 62.9845 100.06 62.6536 100.059C62.3227 100.057 61.8972 100.054 61.5226 100.052L56.1694 100.041C55.3221 100.036 54.2428 100.544 54.0631 101.469C54.0242 101.665 54.0305 101.868 54.0813 102.061C54.1321 102.255 54.226 102.434 54.3562 102.586C54.4864 102.738 54.6494 102.858 54.8327 102.937C55.0161 103.016 55.2149 103.053 55.4144 103.044L60.5857 103.054C61.404 103.059 62.2945 103.14 63.0994 102.944C63.6652 102.824 64.1901 102.559 64.6226 102.174C65.0551 101.789 65.3804 101.298 65.5664 100.749C65.761 99.9881 65.869 99.2074 65.8885 98.4219C65.9731 97.5876 66.0396 96.7532 66.0988 95.9188C66.2199 94.2184 66.2936 92.5177 66.3201 90.8168C66.3504 88.8729 66.3188 86.9287 66.2255 84.9841C66.1832 84.0871 65.16 83.6623 64.3772 83.8292C63.5943 83.9962 62.645 84.6652 62.6907 85.6095L62.6908 85.5913Z" fill="black"/>
<path d="M39.7418 84.2586C40.1826 88.2323 40.2338 92.2353 39.895 96.2236C39.8048 97.239 39.692 98.2474 39.566 99.2563C39.5312 99.6172 39.4691 99.976 39.3799 100.33C39.3518 100.428 39.3168 100.525 39.2752 100.619C39.433 100.342 39.6577 100.098 39.9336 99.9035C40.2095 99.7093 40.5299 99.5699 40.8723 99.4952C40.7878 99.4985 40.3189 99.5907 40.4031 99.5797C38.1085 99.8399 35.7921 99.9994 33.4954 100.209C32.9726 100.27 32.4675 100.42 32.009 100.652C31.5506 100.883 31.1478 101.191 30.8236 101.558C30.5248 101.902 29.9079 103.016 30.9696 102.92L37.011 102.367C38.206 102.258 39.3217 102.176 40.4127 101.681C41.0375 101.417 41.5954 101.045 42.0523 100.586C42.5092 100.128 42.8553 99.5937 43.0694 99.016C43.275 98.1633 43.4072 97.2988 43.4647 96.43C43.5734 95.548 43.6612 94.663 43.7281 93.7748C43.8649 92.0036 43.9228 90.2289 43.9019 88.4508C43.8831 86.4199 43.7592 84.3956 43.53 82.3781C43.4412 81.5766 41.9822 82.1251 41.5627 82.3444C40.907 82.6822 39.6619 83.4568 39.7507 84.2582L39.7418 84.2586Z" fill="black"/>
<path d="M84.1392 64.7866C89.3658 68.6911 92.1854 74.4593 92.3415 81.566C92.35 82.0878 95.1225 81.5562 95.1127 81.0573C94.9357 73.8667 92.0564 68.0376 86.7378 64.1021C86.2872 63.921 85.6533 63.9393 84.9437 64.1539C84.611 64.2421 83.8031 64.5342 84.131 64.7746L84.1392 64.7866Z" fill="black"/>
<path d="M18.658 52.1571C12.3085 50.6585 7.42403 46.4914 4.44915 40.0354C4.23349 39.5602 1.90239 41.1525 2.11016 41.6061C5.13756 48.1308 10.1011 52.33 16.5474 53.8204C17.0328 53.8068 17.6069 53.5375 18.1723 53.058C18.4422 52.8445 19.0669 52.2546 18.6703 52.1648L18.658 52.1571Z" fill="black"/>
<path d="M96.1043 25.522C98.5571 30.8187 92.9605 38.0748 93.2101 43.5763C93.4634 49.2788 99.599 56.0048 97.7033 61.298C95.8076 66.5911 86.8248 67.7791 83.0153 71.9938C79.3433 76.0587 79.0358 85.2522 73.7937 87.7342C68.5517 90.2163 61.3705 84.5576 55.9258 84.8099C50.2858 85.0657 43.6256 91.2654 38.3871 89.35C33.1486 87.4345 31.9729 78.358 27.8016 74.5088C23.7787 70.7985 14.6801 70.4878 12.2454 65.191C9.81069 59.8942 15.3856 52.6382 15.1396 47.1367C14.8864 41.4342 8.75068 34.7081 10.6464 29.415C12.5421 24.1219 21.5249 22.9339 25.3343 18.7192C29.0063 14.6543 29.3138 5.46081 34.5559 2.98241C39.798 0.504009 46.9792 6.15535 52.4239 5.90678C58.0676 5.65089 64.7242 -0.548757 69.9626 1.3667C75.2011 3.28216 76.3769 12.3587 80.5481 16.2079C84.5493 19.9145 93.6479 20.2252 96.1043 25.522Z" fill="#FF9100"/>
<path d="M59.6798 36.128C59.8208 36.2964 60.186 37.4853 60.6448 37.2812C61.5001 36.9008 61.7588 35.5559 61.3345 34.8095C60.2699 32.9368 59.8364 35.6345 59.7072 35.9314" stroke="black" stroke-width="2" stroke-linecap="round"/>
<path d="M45.4201 36.128C45.561 36.2964 45.9262 37.4853 46.3851 37.2812C47.2404 36.9008 47.499 35.5559 47.0747 34.8095C46.0101 32.9368 45.5766 35.6345 45.4474 35.9314" stroke="black" stroke-width="2" stroke-linecap="round"/>
<path d="M9.34954 4.73535C9.34954 6.34648 9.03277 7.89931 8.0892 9.25184C6.96389 10.8649 6.51419 11.1875 5.25364 12.1553C3.99309 13.1231 1.04765 13.0378 2.10264 13.1231C5.38348 13.3883 8.40437 19.7713 8.40437 22.4787" stroke="black" stroke-width="2" stroke-linecap="round"/>
<path d="M9.39945 4.73535C9.39945 6.06818 10.3666 12.2951 12.6784 12.8005C13.1555 12.9048 14.5441 13.0795 14.9528 13.3475M14.3179 13.7683C9.39945 15.0587 8.41577 20.6613 8.41577 22.4787" stroke="black" stroke-width="2" stroke-linecap="round"/>
<path d="M58.7246 4.37993C55.5899 6.04015 53.4081 6.71132 50.3473 6.71132C46.1587 6.71132 45.8365 1.30675 36.1704 2.84334C26.5042 4.37993 29.4041 21.2162 16.9153 23.6444C15.0611 24.0566 9.42743 27.9852 10.3941 35.0765C11.0869 38.1953 12.4537 42.0109 14.4895 44.1672C15.9072 45.669 15.1887 50.9174 14.3697 52.5561L14.3406 52.6144C12.4416 56.4137 9.4628 62.3732 12.0051 66.6651C12.974 68.3008 14.4895 69.2437 16.516 69.8884C18.5424 70.533 20.9973 71.793 21.9934 72.2101C25.5734 73.7093 27.3424 74.0738 29.7263 76.6574C32.6962 79.876 32.3998 85.8345 36.1704 88.5836C40.7714 91.9383 42.1217 90.6685 47.4475 88.5836C50.5824 87.3565 51.2652 86.0267 54.2138 84.7157C54.9233 84.4002 58.713 84.2176 59.369 85.038C60.9126 86.9683 62.5911 87.6167 67.7463 87.939C71.935 88.928 77.1406 86.4806 78.0569 85.3603C81.1534 81.5742 81.6198 79.8489 80.975 73.828C80.3496 67.9891 88.9464 67.7617 93.733 66.0204C97.1754 64.7681 99.0001 62.5169 99.0001 58.9291C99.0001 56.9165 97.5282 55.7351 96.9674 53.7718C96.5371 52.2649 93.733 49.204 93.733 47.2232C93.733 44.0918 93.1744 44.4407 93.733 40.8785C94.2261 37.7338 96.9674 33.0121 96.9674 29.9192C96.9674 26.2499 94.0199 22.8637 90.3006 20.8939C87.1244 19.2117 82.5677 20.2851 79.3456 16.7036C73.546 10.257 78.7012 4.37993 69.0351 1.23174C63.5577 0.26468 62.2344 2.52073 58.7246 4.37993Z" stroke="black" stroke-width="2" stroke-linecap="round"/>
<path d="M43.293 39.3025C43.6803 39.2185 46.0401 39.4936 47.0262 40.3382C47.6608 40.7508 48.0299 41.3183 48.3295 41.9906C48.7348 42.9002 48.5584 43.3347 48.3295 44.1027C47.8716 44.8707 47.4268 45.8121 46.498 46.2148C45.7303 46.5476 45.5375 46.7757 44.7196 46.758C43.3712 46.7288 42.1756 46.0516 41.0037 45.4467C40.1669 44.6787 40.3168 43.9107 40.167 42.884C40.2024 41.9334 40.3269 41.4146 41.4614 40.3382C42.1482 39.6865 42.2921 39.5194 43.293 39.3025Z" stroke="black" stroke-width="2" stroke-linecap="round"/>
<path d="M56.6061 39.3025C56.9073 39.2185 58.7428 39.4936 59.5098 40.3382C60.0033 40.7508 60.2904 41.3183 60.5234 41.9906C60.8386 42.9002 60.7014 43.3347 60.5234 44.1027C60.1673 44.8707 59.8213 45.8121 59.0989 46.2148C58.5018 46.5476 58.3519 46.7757 57.7158 46.758C56.667 46.7288 55.7371 46.0516 54.8255 45.4467C54.1748 44.6787 54.2913 43.9107 54.1748 42.884C54.2023 41.9334 54.2992 41.4146 55.1816 40.3382C55.7158 39.6865 55.8276 39.5194 56.6061 39.3025Z" stroke="black" stroke-width="2" stroke-linecap="round"/>
<path d="M48.5715 41.1558C49.7059 41.1558 50.7601 41.1558 51.8898 41.1558C52.331 41.1558 52.8035 41.1558 53.2408 41.1558" stroke="black" stroke-width="2" stroke-linecap="round"/>
<path d="M46.7039 49.4924C47.6346 50.4614 49.2605 52.4234 50.4062 53.4737C51.1738 53.9775 51.7379 54.958 52.5765 55.1562C53.4151 55.3545 58.2996 51.7285 60.0324 50.5213C62.3896 48.8792 64.3953 47.0256 66.3149 44.8916" stroke="black" stroke-width="2" stroke-linecap="round"/>
</svg>
