<svg width="62" height="62" viewBox="0 0 62 62" fill="none" xmlns="http://www.w3.org/2000/svg">
<path d="M34.9384 47.4904C35.0303 48.9512 35.0532 50.4162 35.0001 51.8769C34.9765 52.5587 34.933 53.3186 34.8795 53.9541C34.8673 54.0978 34.8568 54.245 34.8359 54.3871C34.8246 54.4581 34.8064 54.524 34.7899 54.5934C34.7734 54.6628 34.7998 54.557 34.8049 54.5483C34.8388 54.4943 34.8972 54.4643 34.8236 54.5204C34.9057 54.4572 35.0071 54.4094 35.0876 54.3549C35.1681 54.3004 35.1289 54.3423 35.0772 54.355C34.924 54.3878 35.1911 54.3538 35.0341 54.3555C34.877 54.3572 34.6751 54.3594 34.4974 54.3613L31.9572 54.3977C31.5551 54.4021 31.0469 54.6516 30.9689 55.0919C30.952 55.1853 30.9565 55.2814 30.9822 55.3728C31.0078 55.4643 31.0538 55.5487 31.1167 55.6197C31.1797 55.6907 31.258 55.7464 31.3456 55.7826C31.4332 55.8187 31.5279 55.8345 31.6224 55.8286L34.0763 55.7931C34.4646 55.7889 34.8878 55.8206 35.2682 55.7213C35.5357 55.6599 35.7827 55.5298 35.9849 55.3438C36.1872 55.1578 36.3376 54.9223 36.4216 54.6604C36.508 54.2977 36.5531 53.9264 36.5562 53.5535C36.5898 53.157 36.6149 52.7605 36.6364 52.3641C36.6805 51.5563 36.7022 50.7488 36.7014 49.9415C36.7006 49.0189 36.6704 48.0966 36.6108 47.1746C36.5838 46.7493 36.0949 46.5557 35.7248 46.6411C35.3546 46.7264 34.9094 47.0513 34.9385 47.499L34.9384 47.4904Z" fill="black"/>
<path d="M24.2675 48.1372C24.4102 49.8584 24.4008 51.5884 24.2393 53.3083C24.1967 53.7461 24.1453 54.1807 24.0887 54.6154C24.0725 54.771 24.0456 54.9254 24.0082 55.0776C23.9965 55.1197 23.9821 55.1611 23.9652 55.2015C24.0288 55.0832 24.1183 54.9798 24.2273 54.8986C24.3364 54.8174 24.4624 54.7603 24.5966 54.7313C24.5635 54.7319 24.3799 54.7672 24.4129 54.7632C23.5158 54.8534 22.6109 54.8998 21.7134 54.9681C21.509 54.9893 21.3109 55.0494 21.1303 55.145C20.9498 55.2405 20.7904 55.3697 20.6612 55.5251C20.5421 55.6706 20.2933 56.1458 20.7082 56.1149L23.0691 55.9346C23.5361 55.8993 23.9719 55.8747 24.4012 55.6713C24.6468 55.5634 24.8673 55.4078 25.0489 55.2143C25.2305 55.0207 25.3694 54.7931 25.4572 54.5456C25.5437 54.1792 25.6016 53.8069 25.6304 53.4321C25.6793 53.0521 25.7201 52.6706 25.7527 52.2875C25.8191 51.5236 25.8547 50.7574 25.8596 49.9889C25.8672 49.1112 25.8338 48.2355 25.7592 47.3615C25.7304 47.0144 25.1572 47.2372 24.9919 47.3279C24.7337 47.4674 24.2422 47.79 24.271 48.1372L24.2675 48.1372Z" fill="black"/>
<path d="M46.647 37.0424C48.9732 39.0856 50.0909 41.9202 49.8983 45.2881C49.8827 45.5353 51.2143 45.3877 51.2283 45.1514C51.4142 41.743 50.2706 38.8773 47.9021 36.8161C47.6957 36.7135 47.3951 36.6984 47.0513 36.7733C46.8907 36.8025 46.4975 36.9105 46.6436 37.0365L46.647 37.0424Z" fill="black"/>
<path d="M17.1274 36.4321C14.8012 38.4752 13.6835 41.3098 13.8761 44.6777C13.8917 44.9249 12.5601 44.7774 12.5461 44.541C12.3602 41.1326 13.5038 38.2669 15.8723 36.2057C16.0787 36.1032 16.3793 36.0881 16.7231 36.1629C16.8837 36.1922 17.2769 36.3001 17.1308 36.4261L17.1274 36.4321Z" fill="black"/>
<path d="M51.7981 19.2047C52.967 21.7207 50.2998 25.1673 50.4188 27.7804C50.5395 30.4891 53.4636 33.6839 52.5601 36.1981C51.6567 38.7123 47.3757 39.2766 45.5603 41.2786C43.8103 43.2094 43.6638 47.5763 41.1655 48.7552C38.6673 49.9342 35.245 47.2464 32.6502 47.3662C29.9624 47.4877 26.7883 50.4325 24.2918 49.5227C21.7953 48.6129 21.235 44.3016 19.2471 42.4732C17.3299 40.7108 12.9938 40.5633 11.8335 38.0473C10.6731 35.5314 13.33 32.0848 13.2127 29.4716C13.092 26.7629 10.168 23.5681 11.0714 21.0539C11.9748 18.5397 16.2558 17.9754 18.0712 15.9734C19.8212 14.0426 19.9677 9.67575 22.466 8.49852C24.9642 7.32129 28.3865 10.0057 30.9813 9.88758C33.6709 9.76604 36.8432 6.82123 39.3397 7.73107C41.8362 8.6409 42.3966 12.9522 44.3845 14.7805C46.2913 16.5412 50.6274 16.6888 51.7981 19.2047Z" fill="#FFB800"/>
<path d="M33.9131 9.20109C32.4276 9.9875 31.3938 10.3054 29.9434 10.3054C27.9585 10.3054 27.8059 7.7454 23.2254 8.47324C18.645 9.20109 20.0191 17.176 14.1011 18.3262C13.2225 18.5215 10.5529 20.3824 11.0109 23.7414C11.3392 25.2187 11.9869 27.026 12.9516 28.0474C13.6234 28.7588 13.2829 31.2448 12.8948 32.021L12.881 32.0486C11.9812 33.8483 10.5696 36.6712 11.7743 38.7041C12.2335 39.4789 12.9516 39.9256 13.9119 40.2309C14.8721 40.5363 16.0354 41.1331 16.5074 41.3307C18.2039 42.0408 19.0422 42.2135 20.1718 43.4372C21.5791 44.9618 21.4387 47.7842 23.2254 49.0864C25.4057 50.6754 26.0455 50.074 28.5693 49.0864C30.0548 48.5051 30.3783 47.8753 31.7756 47.2543C32.1118 47.1048 33.9076 47.0183 34.2185 47.4069C34.9499 48.3213 35.7453 48.6284 38.1882 48.7811C40.173 49.2496 42.6398 48.0903 43.074 47.5596C44.5413 45.7662 44.7623 44.949 44.4568 42.097C44.1604 39.3313 48.2341 39.2236 50.5024 38.3987C52.1336 37.8056 52.9983 36.7392 52.9983 35.0398C52.9983 34.0864 52.3008 33.5269 52.035 32.5969C51.8311 31.8831 50.5024 30.4332 50.5024 29.495C50.5024 28.0117 50.2377 28.177 50.5024 26.4896C50.736 25 52.035 22.7635 52.035 21.2985C52.035 19.5604 50.6383 17.9564 48.8759 17.0234C47.3708 16.2266 45.2115 16.735 43.6847 15.0385C40.9364 11.9849 43.3793 9.20109 38.7989 7.70987C36.2033 7.25179 35.5763 8.32043 33.9131 9.20109Z" stroke="black" stroke-linecap="round"/>
<path d="M23.8882 23.1178C24.7439 22.8904 25.8406 22.5466 26.754 22.6744C26.8071 22.6818 25.8124 23.3513 25.6814 23.4297C25.2317 23.699 24.7331 24.2409 24.1898 24.3C24.109 24.3088 23.8477 24.484 24.0893 24.4314C24.7147 24.2952 25.3093 24.0381 25.9328 23.8895C26.5866 23.7337 26.754 23.9716 25.9998 23.9306C25.6584 23.912 25.1855 23.9333 25.0194 24.2261C24.3072 25.4823 26.1863 25.0953 26.9048 24.7434" stroke="black" stroke-linecap="round"/>
<path d="M33.5112 23.1178C34.3669 22.8904 35.4636 22.5466 36.3771 22.6744C36.4302 22.6818 35.4354 23.3513 35.3045 23.4297C34.8547 23.699 34.3561 24.2409 33.8129 24.3C33.7321 24.3088 33.4707 24.484 33.7123 24.4314C34.3378 24.2952 34.9323 24.0381 35.5559 23.8895C36.2096 23.7337 36.3771 23.9716 35.6229 23.9306C35.2815 23.912 34.8085 23.9333 34.6425 24.2261C33.9302 25.4823 35.8094 25.0953 36.5279 24.7434" stroke="black" stroke-linecap="round"/>
<path d="M28.0766 27.619C29.2001 27.4395 30.3325 27.259 31.4619 27.1288C31.7784 27.0924 33.021 26.7213 32.9345 27.1965C32.699 28.49 32.2466 29.589 31.7557 30.8001C31.6551 31.0484 30.9984 32.5704 30.7341 32.4023C30.4697 32.2343 29.6473 30.9631 29.3871 30.3566C29.2234 29.9753 28.3394 28.1595 28.0547 27.8435" stroke="black" stroke-linecap="round"/>
<path d="M18.8955 7.8334C19.9304 8.15651 20.0828 8.96521 20.3536 10.2167C20.5616 10.512 21.0827 9.98603 21.8117 10.0294C22.9384 10.0294 23.3122 10.559 23.5615 10.7614C24.1631 11.2497 23.7471 12.5801 23.124 12.9574C22.2412 13.492 21.3671 12.9574 21.2068 13.2502C21.0744 13.492 22.0486 14.1167 22.2492 14.275C22.9782 15.1534 21.8695 15.8951 21.2068 16.1782C20.5084 16.4766 19.6218 15.7223 19.24 15.2489C18.6039 14.1286 18.3777 15.9608 17.8748 16.471C17.4122 16.9403 16.4167 17.3494 15.7234 16.471C14.5211 14.9479 17.6253 13.492 15.7234 13.492C14.0404 13.492 13.8752 11.5388 14.7507 10.6505C15.2502 9.88301 16.8063 9.69954 17.316 10.2167C17.5997 10.5045 17.3588 10.2161 17.3588 9.3491C17.3588 8.66211 18.0609 7.57285 18.8955 7.8334Z" fill="#9773FF" stroke="black" stroke-linecap="round"/>
<path d="M17.0991 12.6835C17.0991 13.5002 17.5411 14.1957 18.5723 13.9011C19.4561 13.6066 19.6034 13.4591 19.9948 13.0172C20.4346 12.5206 20.6346 11.6913 19.9948 11.1758C19.1615 10.8074 18.5629 10.9423 17.983 11.2493C17.6249 11.4389 17.0991 11.986 17.0991 12.6835Z" fill="#FFF665" stroke="black" stroke-linecap="round"/>
</svg>
