<svg width="25" height="25" viewBox="0 0 25 25" fill="none" xmlns="http://www.w3.org/2000/svg">
<circle cx="12.5" cy="12.5" r="12.5" fill="#796EFF"/>
<path d="M8.85835 8.54166H6.64169C6.51571 8.54166 6.39489 8.5917 6.30581 8.68078C6.21673 8.76986 6.16669 8.89068 6.16669 9.01666V15.9833C6.16669 16.0457 6.17897 16.1075 6.20284 16.1651C6.22672 16.2227 6.2617 16.2751 6.30581 16.3192C6.34992 16.3633 6.40228 16.3983 6.45991 16.4222C6.51754 16.446 6.57931 16.4583 6.64169 16.4583H8.85835C8.92073 16.4583 8.9825 16.446 9.04013 16.4222C9.09776 16.3983 9.15012 16.3633 9.19423 16.3192C9.23834 16.2751 9.27333 16.2227 9.2972 16.1651C9.32107 16.1075 9.33335 16.0457 9.33335 15.9833V9.01666C9.33335 8.89068 9.28331 8.76986 9.19423 8.68078C9.10515 8.5917 8.98433 8.54166 8.85835 8.54166V8.54166ZM18.3584 8.54166H16.1417C16.0157 8.54166 15.8949 8.5917 15.8058 8.68078C15.7167 8.76986 15.6667 8.89068 15.6667 9.01666V15.9833C15.6667 16.0457 15.679 16.1075 15.7028 16.1651C15.7267 16.2227 15.7617 16.2751 15.8058 16.3192C15.8499 16.3633 15.9023 16.3983 15.9599 16.4222C16.0175 16.446 16.0793 16.4583 16.1417 16.4583H18.3584C18.4207 16.4583 18.4825 16.446 18.5401 16.4222C18.5978 16.3983 18.6501 16.3633 18.6942 16.3192C18.7383 16.2751 18.7733 16.2227 18.7972 16.1651C18.8211 16.1075 18.8334 16.0457 18.8334 15.9833V9.01666C18.8334 8.89068 18.7833 8.76986 18.6942 8.68078C18.6051 8.5917 18.4843 8.54166 18.3584 8.54166V8.54166Z" stroke="white" stroke-linecap="round" stroke-linejoin="round"/>
<path d="M9.33335 12.5H15.6667M3.79169 14.4V10.6C3.79169 10.474 3.84173 10.3532 3.93081 10.2641C4.01989 10.175 4.14071 10.125 4.26669 10.125H5.69169C5.81766 10.125 5.93848 10.175 6.02756 10.2641C6.11664 10.3532 6.16669 10.474 6.16669 10.6V14.4C6.16669 14.526 6.11664 14.6468 6.02756 14.7359C5.93848 14.825 5.81766 14.875 5.69169 14.875H4.26669C4.14071 14.875 4.01989 14.825 3.93081 14.7359C3.84173 14.6468 3.79169 14.526 3.79169 14.4V14.4ZM21.2084 14.4V10.6C21.2084 10.474 21.1583 10.3532 21.0692 10.2641C20.9801 10.175 20.8593 10.125 20.7334 10.125H19.3084C19.1824 10.125 19.0616 10.175 18.9725 10.2641C18.8834 10.3532 18.8334 10.474 18.8334 10.6V14.4C18.8334 14.526 18.8834 14.6468 18.9725 14.7359C19.0616 14.825 19.1824 14.875 19.3084 14.875H20.7334C20.8593 14.875 20.9801 14.825 21.0692 14.7359C21.1583 14.6468 21.2084 14.526 21.2084 14.4V14.4Z" stroke="white" stroke-linecap="round" stroke-linejoin="round"/>
</svg>
