<svg width="75" height="75" viewBox="0 0 75 75" fill="none" xmlns="http://www.w3.org/2000/svg">
<circle cx="37.5" cy="37.5" r="37" stroke="#FF9100"/>
<path d="M64 38C64 41.3051 60.1639 43.8158 58.9741 46.6869C57.7391 49.6614 58.627 54.142 56.3851 56.3818C54.1431 58.6215 49.6647 57.7358 46.6902 58.9708C43.8158 60.1639 41.3051 64 38 64C34.6949 64 32.1842 60.1639 29.3131 58.9741C26.3386 57.7391 21.858 58.627 19.6182 56.3851C17.3785 54.1431 18.2642 49.6647 17.0292 46.6902C15.8361 43.8158 12 41.3051 12 38C12 34.6949 15.8361 32.1842 17.0259 29.3131C18.2609 26.3386 17.373 21.858 19.6149 19.6182C21.8569 17.3785 26.3353 18.2642 29.3098 17.0292C32.1842 15.8361 34.6949 12 38 12C41.3051 12 43.8158 15.8361 46.6869 17.0259C49.6614 18.2609 54.142 17.373 56.3818 19.6149C58.6215 21.8569 57.7358 26.3353 58.9708 29.3098C60.1639 32.1842 64 34.6949 64 38Z" fill="#FF9100"/>
<path d="M30.612 29.6737L30.0254 31.8408C29.9881 32.0163 29.9919 32.2023 30.0365 32.375C30.0811 32.5477 30.1644 32.6992 30.2758 32.8102C30.3871 32.9212 30.5215 32.9866 30.6617 32.9982C30.8019 33.0097 30.9416 32.9668 31.0628 32.8749C31.2164 32.7481 31.3314 32.5561 31.388 32.3317L31.9746 30.1592C32.0119 29.9837 32.0081 29.7977 31.9635 29.625C31.9189 29.4523 31.8356 29.3008 31.7242 29.1898C31.6128 29.0788 31.4785 29.0134 31.3383 29.0018C31.1981 28.9903 31.0584 29.0332 30.9372 29.1251C30.7835 29.2516 30.6688 29.4437 30.6129 29.6682L30.612 29.6737Z" fill="black"/>
<path d="M38.9182 29.6735L38.0384 31.8402C37.9821 32.0159 37.9878 32.202 38.0547 32.3749C38.1216 32.5477 38.2467 32.6994 38.414 32.8104C38.5812 32.9215 38.783 32.9869 38.9936 32.9982C39.2041 33.0096 39.4137 32.9664 39.5956 32.8741C39.8261 32.7476 39.9981 32.5556 40.082 32.3311L40.9618 30.159C41.0179 29.9835 41.0121 29.7975 40.9452 29.6249C40.8783 29.4523 40.7534 29.3008 40.5863 29.1898C40.4193 29.0788 40.2178 29.0134 40.0075 29.0018C39.7972 28.9903 39.5878 29.0332 39.4059 29.1251C39.1755 29.2519 39.0031 29.4438 38.9182 29.6681V29.6735Z" fill="black"/>
<path d="M27.2692 41.3577C27.612 41.7755 27.9395 42.2079 28.2614 42.638L28.5326 42.9961L28.6969 43.2123L28.7674 43.3069C28.7123 43.2326 28.7145 43.2371 28.7674 43.3069C29.021 43.6425 29.275 43.9777 29.5293 44.3125C29.9548 44.8755 30.3826 45.4318 30.8203 45.9835C31.0639 46.291 31.312 46.586 31.6725 46.7594C32.0717 46.9579 32.518 47.0361 32.9591 46.9846C33.8411 46.872 34.6448 46.3878 35.4386 46.0004C36.1736 45.6424 36.9042 45.2756 37.6303 44.9003C38.9974 44.1931 40.3476 43.4548 41.6809 42.6853C43.3181 41.7439 44.9321 40.762 46.5395 39.7688C46.9552 39.5121 47.147 38.9052 46.8703 38.4705C46.5935 38.0358 46.0445 37.8545 45.5991 38.1327C42.9443 39.7745 40.2653 41.378 37.508 42.8362C36.1188 43.5719 34.7135 44.2746 33.292 44.9442L33.1598 45.0073C33.173 45.0005 33.2976 44.9577 33.1972 44.9904C33.1223 45.0151 33.0484 45.0444 32.9767 45.0658C32.9426 45.0759 32.721 45.13 32.8378 45.1052C32.9547 45.0805 32.8378 45.1052 32.8114 45.1052C32.7518 45.1052 32.6879 45.1052 32.6284 45.1052C32.5115 45.1176 32.7022 45.1052 32.6967 45.121C32.6595 45.1156 32.6227 45.1077 32.5865 45.0973C32.5523 45.0883 32.5181 45.0737 32.4839 45.0669C32.5016 45.0669 32.6228 45.148 32.5435 45.0906C32.5138 45.0696 32.4824 45.0512 32.4498 45.0354C32.4652 45.0422 32.56 45.148 32.4905 45.0681C32.4211 44.9881 32.3682 44.9397 32.3119 44.8699C31.8853 44.3451 31.4752 43.8058 31.065 43.2686C30.8247 42.9526 30.5847 42.6365 30.3451 42.3205C30.2801 42.2349 30.3605 42.3408 30.3694 42.3509L30.2723 42.2236L30.0088 41.8746L29.6847 41.4478C29.3198 40.967 28.9571 40.4861 28.5756 40.0199C28.2625 39.6371 27.5834 39.6652 27.2615 40.0199C26.8954 40.4265 26.9307 40.9546 27.2615 41.3622L27.2692 41.3577Z" fill="black"/>
</svg>
