<svg width="14" height="14" viewBox="0 0 14 14" fill="none" xmlns="http://www.w3.org/2000/svg">
<g clip-path="url(#clip0_733_9087)">
<path d="M13.5065 8.4C13.5716 8.39991 13.636 8.4127 13.6961 8.43764C13.7562 8.46259 13.8108 8.49918 13.8567 8.54532C13.9026 8.59147 13.9388 8.64624 13.9634 8.70648C13.988 8.76672 14.0005 8.83123 14 8.8963V11.1391C14.0005 11.2039 13.9882 11.2681 13.9638 11.3281C13.9394 11.3881 13.9034 11.4427 13.8579 11.4888C13.8124 11.5349 13.7582 11.5716 13.6985 11.5968C13.6389 11.6219 13.5748 11.635 13.51 11.6354C13.4452 11.635 13.3812 11.6219 13.3215 11.5968C13.2618 11.5716 13.2076 11.5349 13.1621 11.4888C13.1166 11.4427 13.0806 11.3881 13.0562 11.3281C13.0319 11.2681 13.0196 11.2039 13.02 11.1391V10.3516C11.7453 12.4908 9.37931 14 6.82991 14C3.74291 14 1.15571 12.0953 0.0336124 9.1595C-0.0135015 9.03718 -0.0105333 8.90123 0.0418742 8.78109C0.0942818 8.66094 0.191909 8.56628 0.313612 8.5176C0.565612 8.4189 0.849812 8.5456 0.947812 8.8011C1.92781 11.3645 4.15941 13.0081 6.82991 13.0081C9.18961 13.0081 11.3939 11.4807 12.4208 9.4003L11.3911 9.4073C11.3263 9.40739 11.2622 9.39471 11.2023 9.36999C11.1424 9.34526 11.088 9.30898 11.0422 9.26321C10.9964 9.21744 10.96 9.16308 10.9352 9.10325C10.9104 9.04341 10.8976 8.97927 10.8976 8.9145C10.8959 8.78373 10.9462 8.65764 11.0374 8.56393C11.1287 8.47022 11.2533 8.41654 11.3841 8.4147L13.5065 8.4ZM7.17151 0C10.2571 0 12.845 1.9047 13.9671 4.8405C14.0142 4.96282 14.0113 5.09877 13.9589 5.21891C13.9064 5.33906 13.8088 5.43372 13.6871 5.4824C13.6269 5.50588 13.5626 5.51717 13.498 5.5156C13.4334 5.51403 13.3697 5.49964 13.3107 5.47326C13.2517 5.44689 13.1985 5.40905 13.1543 5.36195C13.11 5.31485 13.0756 5.25943 13.0529 5.1989C12.0729 2.6355 9.84131 0.9919 7.17081 0.9919C4.81111 0.9919 2.60681 2.5193 1.57991 4.5997L2.60961 4.5927C2.67439 4.59261 2.73854 4.60529 2.79841 4.63001C2.85828 4.65474 2.91269 4.69102 2.95853 4.73679C3.00436 4.78256 3.04072 4.83692 3.06553 4.89675C3.09034 4.95659 3.10311 5.02073 3.10311 5.0855C3.10479 5.21627 3.0545 5.34236 2.96328 5.43607C2.87206 5.52978 2.74738 5.58346 2.61661 5.5853L0.493512 5.6C0.428443 5.60009 0.363998 5.5873 0.303899 5.56236C0.243799 5.53742 0.189234 5.50082 0.143353 5.45468C0.0974724 5.40853 0.0611836 5.35376 0.0365812 5.29352C0.0119789 5.23328 -0.000449778 5.16877 1.24338e-05 5.1037V2.8609C1.24338e-05 2.5865 0.219112 2.3646 0.490012 2.3646C0.760212 2.3646 0.980012 2.5865 0.980012 2.8609V3.6484C2.25471 1.5092 4.62071 0 7.17011 0H7.17151Z" fill="black"/>
</g>
<defs>
<clipPath id="clip0_733_9087">
<rect width="14" height="14" fill="white"/>
</clipPath>
</defs>
</svg>
