<svg width="24" height="24" viewBox="0 0 24 24" fill="none" xmlns="http://www.w3.org/2000/svg">
<path d="M24 12C24 13.5254 22.2295 14.6842 21.6803 16.0093C21.1103 17.3822 21.5202 19.4502 20.4854 20.4839C19.4507 21.5176 17.3837 21.1088 16.0108 21.6788C14.6842 22.2295 13.5254 24 12 24C10.4746 24 9.31576 22.2295 7.99068 21.6803C6.6178 21.1103 4.54983 21.5202 3.5161 20.4854C2.48237 19.4507 2.89119 17.3837 2.32119 16.0108C1.77051 14.6842 0 13.5254 0 12C0 10.4746 1.77051 9.31576 2.31966 7.99068C2.88966 6.6178 2.47983 4.54983 3.51458 3.5161C4.54932 2.48237 6.61627 2.89119 7.98915 2.32119C9.31576 1.77051 10.4746 0 12 0C13.5254 0 14.6842 1.77051 16.0093 2.31966C17.3822 2.88966 19.4502 2.47983 20.4839 3.51458C21.5176 4.54932 21.1088 6.61627 21.6788 7.98915C22.2295 9.31576 24 10.4746 24 12Z" fill="#C0C0C0"/>
</svg>
