<svg width="20" height="20" viewBox="0 0 20 20" fill="none" xmlns="http://www.w3.org/2000/svg">
<circle cx="10" cy="10" r="10" fill="#C4C4C4"/>
<path d="M5.03467 5.76428L5.56755 5.2314C5.61492 5.18403 5.6736 5.19534 5.7436 5.26534L14.9834 14.5051C15.0534 14.5751 15.0647 14.6338 15.0173 14.6811L14.4844 15.214C14.4371 15.2614 14.3784 15.2501 14.3084 15.1801L5.06862 5.94032C4.99862 5.87033 4.98731 5.81164 5.03467 5.76428Z" fill="white"/>
<path d="M4.94704 14.6268L14.177 5.39676C14.2503 5.32351 14.3106 5.31056 14.358 5.35793L14.8908 5.89081C14.9382 5.93818 14.9253 5.99849 14.852 6.07174L5.62202 15.3017C5.54877 15.375 5.48846 15.3879 5.44109 15.3406L4.90821 14.8077C4.86084 14.7603 4.87379 14.7 4.94704 14.6268Z" fill="white"/>
</svg>
