<svg width="386" height="325" viewBox="0 0 386 325" fill="none" xmlns="http://www.w3.org/2000/svg">
<path d="M240.315 269.717C240.825 279.45 240.872 289.206 240.408 298.928C240.199 303.466 239.851 308.523 239.445 312.75C239.352 313.706 239.271 314.685 239.12 315.63C239.039 316.102 238.911 316.54 238.795 317.001C238.679 317.461 238.865 316.759 238.9 316.701C239.132 316.344 239.526 316.148 239.027 316.517C239.584 316.102 240.269 315.791 240.814 315.434C241.359 315.077 241.092 315.353 240.744 315.434C239.712 315.641 241.51 315.434 240.454 315.434C239.398 315.434 238.041 315.434 236.846 315.434L219.77 315.492C217.066 315.492 213.633 317.116 213.076 320.041C212.955 320.663 212.979 321.303 213.144 321.913C213.31 322.524 213.613 323.089 214.031 323.567C214.449 324.044 214.971 324.42 215.557 324.668C216.143 324.915 216.778 325.027 217.414 324.995L233.911 324.937C236.521 324.937 239.364 325.179 241.927 324.545C243.73 324.156 245.4 323.308 246.773 322.084C248.146 320.86 249.175 319.303 249.758 317.565C250.365 315.156 250.696 312.687 250.744 310.205C250.999 307.567 251.197 304.929 251.371 302.291C251.726 296.916 251.931 291.541 251.985 286.165C252.047 280.022 251.912 273.879 251.58 267.736C251.429 264.902 248.157 263.578 245.663 264.119C243.169 264.66 240.152 266.791 240.315 269.774V269.717Z" fill="black"/>
<path d="M182.44 272.272C183.195 283.754 182.925 295.278 181.632 306.716C181.293 309.627 180.895 312.516 180.462 315.405C180.335 316.44 180.135 317.465 179.866 318.474C179.782 318.754 179.68 319.028 179.561 319.295C180.004 318.514 180.618 317.836 181.362 317.308C182.106 316.78 182.961 316.414 183.867 316.237C183.645 316.237 182.405 316.451 182.627 316.428C176.578 316.923 170.483 317.125 164.434 317.474C163.056 317.591 161.715 317.968 160.488 318.583C159.262 319.199 158.173 320.04 157.285 321.06C156.466 322.015 154.735 325.152 157.531 324.994L173.443 324.073C176.59 323.893 179.526 323.78 182.44 322.476C184.106 321.786 185.608 320.776 186.853 319.508C188.099 318.24 189.061 316.74 189.682 315.102C190.307 312.671 190.741 310.198 190.98 307.705C191.355 305.179 191.675 302.643 191.94 300.095C192.478 295.013 192.809 289.914 192.934 284.795C193.09 278.95 192.969 273.112 192.572 267.281C192.419 264.965 188.535 266.382 187.412 266.966C185.657 267.866 182.311 269.956 182.463 272.272H182.44Z" fill="black"/>
<path d="M375.383 100.451C369.471 120.236 355.399 134.898 334.449 143.102C332.907 143.695 337.506 151.356 338.978 150.783C360.156 142.426 374.344 127.521 380.248 107.428C380.295 105.892 379.55 104.028 378.14 102.153C377.515 101.26 375.767 99.1771 375.41 100.413L375.383 100.451Z" fill="black"/>
<path d="M103.006 207.235L110.3 272.853C110.302 273.594 110.85 274.312 111.85 274.881C112.849 275.45 114.236 275.836 115.77 275.97C118.469 276.178 122.165 275.278 121.994 273.765L114.701 208.147C114.709 207.406 114.167 206.688 113.171 206.118C112.176 205.548 110.789 205.163 109.254 205.03C106.531 204.822 102.835 205.722 103.006 207.235Z" fill="black"/>
<path d="M347.764 80.6706C355.56 97.4475 337.772 120.43 338.566 137.856C339.371 155.918 358.872 177.222 352.847 193.987C346.821 210.752 318.271 214.515 306.164 227.865C294.493 240.74 293.516 269.859 276.855 277.721C260.194 285.583 237.37 267.659 220.065 268.458C202.139 269.269 180.971 288.906 164.322 282.839C147.672 276.772 143.935 248.023 130.678 235.831C117.892 224.079 88.974 223.095 81.2357 206.318C73.4974 189.541 91.2162 166.558 90.4343 149.133C89.6294 131.071 70.1284 109.767 76.1535 93.0014C82.1785 76.2361 110.729 72.4732 122.836 59.1235C134.507 46.2485 135.484 17.1291 152.145 9.27906C168.806 1.429 191.63 19.329 208.935 18.5417C226.872 17.7312 248.029 -1.90551 264.678 4.16149C281.328 10.2285 285.065 38.9773 298.322 51.1692C311.039 62.9095 339.957 63.8937 347.764 80.6706Z" fill="#FFB800"/>
<path d="M194.148 144.49C201.739 143.274 209.39 142.05 217.021 141.168C219.16 140.921 227.556 138.405 226.971 141.626C225.38 150.394 222.323 157.844 219.007 166.052C218.327 167.735 213.89 178.051 212.103 176.912C210.317 175.774 204.761 167.157 203.002 163.046C201.897 160.462 195.924 148.154 194 146.012" stroke="black" stroke-width="6" stroke-linecap="round"/>
<path d="M231.08 115.094C231.526 115.628 232.682 119.391 234.134 118.745C236.841 117.541 237.66 113.284 236.317 110.921C232.947 104.994 231.575 113.532 231.166 114.472" stroke="black" stroke-width="6" stroke-linecap="round"/>
<path d="M185.947 115.094C186.393 115.628 187.549 119.391 189.001 118.745C191.709 117.541 192.527 113.284 191.184 110.921C187.814 104.994 186.442 113.532 186.033 114.472" stroke="black" stroke-width="6" stroke-linecap="round"/>
<path d="M28 46C28 51.0849 26.94 55.9858 23.7825 60.2545C20.0168 65.3455 18.512 66.3636 14.2938 69.4182C10.0756 72.4727 0.219156 72.2036 3.74949 72.4727C14.7283 73.3097 24.8372 93.4552 24.8372 102" stroke="black" stroke-width="6" stroke-linecap="round"/>
<path d="M28.0096 46C28.0096 50.2066 30.9686 69.8593 38.0416 71.4545C39.5012 71.7837 43.7496 72.335 45 73.181M43.0576 74.5091C28.0096 78.5818 25 96.2643 25 102" stroke="black" stroke-width="6" stroke-linecap="round"/>
<path d="M33.8245 119C35.1433 128.845 30.3805 135.788 21.7695 140.595C14.6713 144.558 12.8418 141.938 23.6913 144.282C35.1397 146.756 40 163.1 40 173" stroke="black" stroke-width="6" stroke-linecap="round"/>
<path d="M34 120C37.9284 129.347 46.3827 133.708 55.8975 133.708C60.2474 133.708 62.1199 132.063 56.5348 134.236C53.7429 135.322 49.4079 140.822 48.2495 143.282C46.4307 147.145 45.2095 150.455 44.1962 154.554C43.4588 157.537 41.4798 170.218 41.1562 173" stroke="black" stroke-width="6" stroke-linecap="round"/>
<path d="M228.432 13.7071C218.503 18.9665 211.592 21.0926 201.898 21.0926C188.631 21.0926 187.61 3.97174 156.994 8.83943C126.377 13.7071 135.562 67.0421 96.0057 74.7343C90.1327 76.0401 72.2887 88.4853 75.3505 110.95C77.5448 120.829 81.8741 132.917 88.3222 139.748C92.8127 144.505 90.5369 161.131 87.9427 166.322L87.8506 166.507C81.8356 178.543 72.4007 197.422 80.4531 211.017C83.5221 216.199 88.3222 219.186 94.7407 221.229C101.159 223.271 108.935 227.262 112.09 228.583C123.429 233.333 129.032 234.487 136.583 242.672C145.99 252.868 145.051 271.744 156.994 280.452C171.567 291.079 175.844 287.057 192.713 280.452C202.642 276.565 204.805 272.352 214.144 268.199C216.392 267.2 228.395 266.621 230.473 269.22C235.362 275.335 240.678 277.389 257.007 278.41C270.274 281.543 286.762 273.79 289.665 270.241C299.473 258.247 300.95 252.782 298.907 233.709C296.927 215.212 324.156 214.491 339.317 208.975C350.22 205.008 356 197.877 356 186.511C356 180.135 351.338 176.393 349.562 170.173C348.199 165.4 339.317 155.703 339.317 149.428C339.317 139.509 337.548 140.614 339.317 129.329C340.879 119.367 349.562 104.41 349.562 94.6119C349.562 82.9882 340.226 72.2612 328.445 66.021C318.385 60.6921 303.952 64.0924 293.747 52.7468C275.377 32.3248 291.706 13.7071 261.089 3.7341C243.74 0.670612 239.549 7.81747 228.432 13.7071Z" stroke="black" stroke-width="6" stroke-linecap="round"/>
</svg>
