<svg width="32" height="32" viewBox="0 0 32 32" fill="none" xmlns="http://www.w3.org/2000/svg">
<path d="M32 16C32 18.0339 29.6393 19.579 28.9071 21.3458C28.1471 23.1763 28.6936 25.9336 27.3139 27.3119C25.9342 28.6902 23.1783 28.1451 21.3478 28.9051C19.579 29.6393 18.0339 32 16 32C13.9661 32 12.421 29.6393 10.6542 28.9071C8.82373 28.1471 6.06644 28.6936 4.68814 27.3139C3.30983 25.9342 3.85492 23.1783 3.09492 21.3478C2.36068 19.579 0 18.0339 0 16C0 13.9661 2.36068 12.421 3.09288 10.6542C3.85288 8.82373 3.30644 6.06644 4.6861 4.68814C6.06576 3.30983 8.82169 3.85491 10.6522 3.09491C12.421 2.36068 13.9661 0 16 0C18.0339 0 19.579 2.36068 21.3458 3.09288C23.1763 3.85288 25.9336 3.30644 27.3119 4.6861C28.6902 6.06576 28.1451 8.82169 28.9051 10.6522C29.6393 12.421 32 13.9661 32 16Z" fill="#FFB800"/>
</svg>
