<svg width="450" height="450" viewBox="0 0 450 450" fill="none" xmlns="http://www.w3.org/2000/svg">
<g opacity="0.3">
<path d="M245.914 361.436C246.398 370.69 246.442 379.967 246.002 389.21C245.804 393.525 245.474 398.333 245.089 402.353C245.001 403.262 244.923 404.193 244.78 405.091C244.703 405.54 244.583 405.956 244.472 406.394C244.362 406.832 244.538 406.164 244.571 406.109C244.791 405.77 245.166 405.584 244.693 405.934C245.221 405.54 245.87 405.244 246.387 404.905C246.905 404.565 246.652 404.828 246.321 404.905C245.342 405.102 247.048 404.905 246.046 404.905C245.045 404.905 243.757 404.905 242.623 404.905L226.422 404.959C223.858 404.959 220.6 406.504 220.072 409.285C219.958 409.876 219.98 410.484 220.137 411.065C220.294 411.646 220.581 412.183 220.978 412.637C221.375 413.091 221.87 413.449 222.426 413.684C222.982 413.919 223.585 414.026 224.188 413.995L239.839 413.94C242.315 413.94 245.012 414.17 247.444 413.568C249.154 413.197 250.739 412.391 252.041 411.227C253.343 410.064 254.319 408.583 254.873 406.931C255.449 404.64 255.763 402.293 255.808 399.932C256.051 397.424 256.238 394.916 256.403 392.408C256.74 387.297 256.935 382.186 256.986 377.075C257.045 371.234 256.917 365.393 256.601 359.552C256.458 356.858 253.354 355.598 250.988 356.113C248.622 356.628 245.76 358.654 245.914 361.49V361.436Z" fill="black"/>
<path d="M191.01 363.953C191.725 374.852 191.469 385.789 190.247 396.645C189.926 399.409 189.55 402.151 189.14 404.893C189.019 405.875 188.831 406.848 188.576 407.806C188.496 408.071 188.4 408.331 188.288 408.585C188.706 407.844 189.287 407.201 189.991 406.699C190.694 406.198 191.503 405.851 192.361 405.683C192.15 405.683 190.977 405.886 191.188 405.864C185.466 406.334 179.7 406.526 173.978 406.857C172.674 406.968 171.406 407.326 170.246 407.91C169.085 408.494 168.056 409.292 167.216 410.26C166.441 411.167 164.803 414.144 167.448 413.995L182.5 413.12C185.477 412.949 188.255 412.842 191.01 411.605C192.587 410.95 194.008 409.991 195.186 408.787C196.364 407.584 197.274 406.16 197.861 404.605C198.453 402.298 198.864 399.951 199.089 397.584C199.444 395.187 199.746 392.779 199.997 390.361C200.506 385.538 200.82 380.698 200.938 375.839C201.085 370.291 200.971 364.75 200.595 359.216C200.451 357.018 196.776 358.362 195.714 358.917C194.054 359.771 190.889 361.755 191.032 363.953H191.01Z" fill="black"/>
<path d="M109.771 272.448C90.6453 267.934 75.9324 255.382 66.9716 235.936C66.3219 234.504 59.3003 239.3 59.9261 240.667C69.0452 260.32 83.9962 272.969 103.413 277.458C104.875 277.417 106.605 276.606 108.308 275.162C109.121 274.519 111.002 272.742 109.808 272.471L109.771 272.448Z" fill="black"/>
<path d="M339.627 272.448C358.753 267.934 373.466 255.382 382.427 235.936C383.077 234.504 390.098 239.3 389.472 240.667C380.353 260.32 365.402 272.969 345.985 277.458C344.523 277.417 342.794 276.606 341.091 275.162C340.277 274.519 338.396 272.742 339.59 272.471L339.627 272.448Z" fill="black"/>
<path d="M348.055 182.077C355.488 198.078 338.529 219.998 339.285 236.617C340.052 253.843 358.645 274.162 352.9 290.151C347.156 306.141 319.936 309.73 308.393 322.462C297.266 334.741 296.334 362.513 280.449 370.011C264.565 377.509 242.804 360.415 226.306 361.177C209.215 361.95 189.034 380.679 173.16 374.892C157.286 369.106 153.723 341.687 141.084 330.059C128.893 318.851 101.323 317.912 93.9452 301.912C86.5674 285.911 103.461 263.991 102.715 247.372C101.948 230.146 83.3554 209.827 89.0997 193.838C94.844 177.848 122.064 174.259 133.607 161.527C144.734 149.248 145.666 121.475 161.551 113.989C177.435 106.502 199.196 123.574 215.694 122.823C232.796 122.05 252.967 103.321 268.84 109.108C284.714 114.894 288.277 142.313 300.916 153.941C313.041 165.138 340.611 166.077 348.055 182.077Z" fill="black"/>
<path d="M201.148 242.369C208.739 241.185 216.39 239.995 224.021 239.136C226.16 238.896 234.556 236.448 233.971 239.582C232.38 248.113 229.323 255.361 226.007 263.348C225.327 264.985 220.89 275.023 219.103 273.915C217.317 272.807 211.761 264.423 210.002 260.423C208.897 257.909 202.924 245.933 201 243.85" stroke="black" stroke-width="6" stroke-linecap="round"/>
<path d="M234.242 118.179C224.843 123.179 218.301 125.201 209.124 125.201C196.565 125.201 195.599 108.924 166.617 113.552C137.635 118.179 146.33 168.885 108.884 176.198C103.325 177.44 86.4334 189.271 89.3318 210.628C91.409 220.021 95.5072 231.512 101.611 238.007C105.862 242.529 103.708 258.336 101.252 263.271L101.165 263.447C95.4707 274.889 86.5394 292.837 94.162 305.763C97.0672 310.689 101.611 313.529 107.687 315.471C113.763 317.412 121.123 321.207 124.11 322.463C134.844 326.978 140.148 328.076 147.296 335.857C156.2 345.55 155.312 363.496 166.617 371.775C180.412 381.878 184.461 378.054 200.429 371.775C209.829 368.079 211.876 364.074 220.717 360.126C222.844 359.176 234.207 358.626 236.174 361.097C240.802 366.91 245.834 368.863 261.292 369.834C273.85 372.812 289.458 365.442 292.206 362.068C301.49 350.665 302.888 345.469 300.955 327.336C299.08 309.751 324.856 309.066 339.208 303.822C349.529 300.05 355 293.27 355 282.465C355 276.403 350.587 272.846 348.905 266.932C347.615 262.394 339.208 253.176 339.208 247.21C339.208 237.779 337.533 238.83 339.208 228.102C340.686 218.631 348.905 204.411 348.905 195.096C348.905 184.045 340.068 173.847 328.916 167.914C319.393 162.848 305.73 166.081 296.07 155.294C278.681 135.879 294.138 118.179 265.156 108.698C248.733 105.785 244.765 112.58 234.242 118.179Z" stroke="black" stroke-width="6" stroke-linecap="round"/>
<path d="M174.92 227.62C182.524 227.62 189.347 226 196.599 226C198.638 226 203.867 225.905 201.311 229.12C199.901 230.538 190.672 241.992 188.816 244.356C184.848 247.716 185.312 250.831 182.524 247.716C180.965 245.973 178.702 244.951 177.157 243.397C174.325 240.548 171.784 237.692 168.986 234.878C167.932 233.818 166.364 231.541 166.034 230.05C165.462 227.459 172.229 228.071 174.92 227.62Z" fill="black" stroke="black" stroke-width="6" stroke-linecap="round"/>
<path d="M221.92 227.62C229.524 227.62 236.347 226 243.599 226C245.638 226 250.867 225.905 248.311 229.12C246.901 230.538 237.672 241.992 235.816 244.356C231.848 247.716 232.312 250.831 229.524 247.716C227.965 245.973 225.702 244.951 224.157 243.397C221.325 240.548 218.784 237.692 215.986 234.878C214.932 233.818 213.364 231.541 213.034 230.05C212.462 227.459 219.229 228.071 221.92 227.62Z" fill="black" stroke="black" stroke-width="6" stroke-linecap="round"/>
<path d="M199 233C205.101 231.385 211.488 232.334 217.654 231.407C218.742 231.244 219.899 231 221 231" stroke="black" stroke-width="6" stroke-linecap="round"/>
<path d="M220 206C222.134 210.998 224.558 217.267 231.509 214.18C235.464 212.063 237.447 211.022 242 207.925" stroke="black" stroke-width="6" stroke-linecap="round"/>
<path d="M179.549 211.497C182.436 215.699 185.814 221.016 191.982 216.969C195.431 214.336 197.164 213.035 201.024 209.4" stroke="black" stroke-width="6" stroke-linecap="round"/>
<path d="M224 84C228.719 70.3462 233.772 56.728 237.212 42.6863C237.918 39.8051 238.364 37.4313 240 35" stroke="black" stroke-width="6" stroke-linecap="round"/>
<path d="M349 128C364.671 118.073 378.247 106.004 393 95" stroke="black" stroke-width="6" stroke-linecap="round"/>
<path d="M399 211C409.097 209.77 419.2 208.59 429.299 207.375C432.478 206.993 436.393 206.865 439.531 205.75C440.504 205.404 440.937 205 442 205" stroke="black" stroke-width="6" stroke-linecap="round"/>
<path d="M85 145C61.5875 138.256 38.1544 131.588 15 124" stroke="black" stroke-width="6" stroke-linecap="round"/>
<path d="M46 224C33.4501 227.035 21.3867 231.423 9 235" stroke="black" stroke-width="6" stroke-linecap="round"/>
<path d="M342 359C343.301 364.126 344.355 369.448 346.615 374.261C347.928 377.057 350.084 379.526 350.269 382.705C350.363 384.31 349.621 385.491 351 384.797" stroke="black" stroke-width="6" stroke-linecap="round"/>
<path d="M95 358C88.6303 364.326 82.3179 370.682 76 377" stroke="black" stroke-width="6" stroke-linecap="round"/>
<path d="M139 87C135.103 78.0661 130.47 68.1142 125 60" stroke="black" stroke-width="6" stroke-linecap="round"/>
</g>
</svg>
