<svg width="450" height="450" viewBox="0 0 450 450" fill="none" xmlns="http://www.w3.org/2000/svg">
<g opacity="0.3">
<path d="M350.882 272.273C359.199 278.734 367.821 284.802 376.724 290.4C380.875 293.02 385.572 295.838 389.568 298.093C390.473 298.602 391.39 299.136 392.32 299.587C392.789 299.807 393.255 299.966 393.734 300.149C394.214 300.331 393.477 300.06 393.405 300.055C392.946 300.038 392.531 300.264 393.163 300.053C392.455 300.286 391.76 300.695 391.11 300.954C390.46 301.212 390.868 301.148 391.153 300.892C391.968 300.114 390.684 301.565 391.33 300.638C391.976 299.711 392.807 298.518 393.538 297.469L404.039 282.506C405.693 280.132 409.234 278.12 412.169 279.438C412.794 279.716 413.347 280.132 413.787 280.655C414.227 281.177 414.543 281.793 414.71 282.455C414.878 283.117 414.892 283.808 414.753 284.475C414.613 285.143 414.324 285.77 413.906 286.309L403.759 300.762C402.162 303.054 400.637 305.7 398.507 307.56C397.058 308.903 395.284 309.846 393.359 310.295C391.434 310.745 389.424 310.687 387.526 310.126C385.018 309.171 382.627 307.936 380.397 306.445C377.902 305.039 375.442 303.583 372.997 302.106C368.014 299.098 363.122 295.958 358.323 292.684C352.839 288.944 347.475 285.03 342.232 280.943C339.812 279.06 340.639 275.368 342.646 273.512C344.652 271.656 348.387 270.323 350.933 272.309L350.882 272.273Z" fill="black"/>
<path d="M300.347 327.204C308.664 333.665 317.285 339.733 326.189 345.331C330.34 347.951 335.037 350.769 339.033 353.024C339.937 353.533 340.855 354.067 341.785 354.518C342.253 354.738 342.719 354.896 343.199 355.079C343.678 355.262 342.942 354.991 342.87 354.986C342.411 354.969 341.996 355.195 342.628 354.984C341.92 355.217 341.225 355.626 340.575 355.884C339.924 356.143 340.333 356.079 340.617 355.823C341.433 355.044 340.149 356.496 340.795 355.568C341.441 354.641 342.272 353.449 343.003 352.4L353.504 337.437C355.158 335.063 358.699 333.05 361.634 334.369C362.258 334.647 362.812 335.063 363.252 335.585C363.692 336.108 364.008 336.723 364.175 337.385C364.342 338.047 364.357 338.738 364.217 339.406C364.078 340.074 363.788 340.701 363.37 341.239L353.224 355.692C351.627 357.985 350.102 360.631 347.971 362.491C346.523 363.834 344.749 364.776 342.824 365.226C340.899 365.676 338.888 365.617 336.991 365.056C334.483 364.102 332.092 362.867 329.861 361.375C327.367 359.97 324.907 358.514 322.462 357.037C317.478 354.029 312.587 350.888 307.788 347.615C302.304 343.874 296.94 339.961 291.696 335.874C289.276 333.991 290.104 330.299 292.11 328.443C294.117 326.587 297.852 325.254 300.398 327.239L300.347 327.204Z" fill="black"/>
<path d="M152.955 367.128C137.249 350.57 133.114 328.923 140.926 304.157C141.511 302.34 130.096 302.595 129.543 304.333C121.714 329.402 126.009 351.295 142.036 368.013C143.574 368.9 146.062 369.2 149.076 368.863C150.475 368.747 153.964 368.197 152.973 367.174L152.955 367.128Z" fill="black"/>
<path d="M340.052 169.376C361.561 163.575 382.999 168.169 402.413 182.739C403.833 183.817 408.253 175.25 406.892 174.224C387.208 159.533 365.481 154.971 343.694 160.954C342.258 161.782 340.97 163.523 340.049 165.882C339.585 166.961 338.665 169.747 340.002 169.373L340.052 169.376Z" fill="black"/>
<path d="M235.793 92.6699C255.6 95.4172 267.55 120.555 284.227 128.892C301.504 137.547 331.776 133.827 344.2 146.945C356.624 160.063 344.907 183.429 350.902 199.363C356.686 214.726 383.326 230.387 381.773 246.927C380.22 263.467 351.329 271.415 342.845 284.817C334.04 298.692 341.066 324.652 326.527 334.042C311.988 343.433 283.179 331.501 264.737 335.205C246.955 338.78 230.614 359.988 210.838 357.197C191.062 354.407 179.075 329.321 162.405 320.975C145.128 312.32 114.856 316.04 102.431 302.922C90.007 289.804 101.724 266.439 95.7299 250.504C89.9453 235.142 63.3054 219.48 64.8693 202.946C66.4332 186.413 95.3027 178.452 103.798 165.056C112.609 151.173 105.576 125.221 120.115 115.831C134.654 106.44 163.463 118.372 181.906 114.668C199.639 111.139 215.981 89.9312 235.793 92.6699Z" fill="black"/>
<path d="M109.946 148.038C109.554 158.165 107.854 164.428 102.695 171.691C95.635 181.63 79.1691 173.643 67.4037 199.066C55.6382 224.49 110.129 244.871 96.2327 278.436C94.3219 283.504 96.4005 303.232 118.922 312.421C129.278 315.827 142.824 318.762 152.608 317.424C159.422 316.491 173.674 326.695 177.121 331.292L177.244 331.455C185.236 342.113 197.774 358.831 214.703 359.748C221.156 360.097 226.488 358.028 231.803 354.264C237.118 350.499 244.968 346.715 247.876 345.026C258.327 338.959 262.382 335.352 274.012 333.879C288.5 332.044 305.556 342.395 320.011 337.9C337.649 332.415 336.184 327.155 339.019 311.142C340.687 301.716 337.92 297.943 339.027 288.824C339.294 286.63 345.144 277.342 348.666 277.113C356.955 276.576 361.694 273.644 371.333 261.933C381.307 253.596 382.871 237.281 381.115 233.293C375.179 219.815 370.882 215.915 352.057 207.696C333.8 199.725 347.62 178.958 350.558 164.781C352.671 154.585 349.114 146.61 338.544 140.801C332.614 137.542 326.653 139.122 319.923 137.273C314.758 135.854 301.014 137.551 295.178 134.344C285.952 129.273 286.039 131.164 276.486 124.07C268.052 117.808 258.762 103.658 249.649 98.6501C238.839 92.7087 223.894 94.2195 211.822 99.8551C201.512 104.668 196.994 117.218 181.012 119.064C152.243 122.387 143.618 100.638 118.05 118.476C105.968 129.907 110.385 136.7 109.946 148.038Z" stroke="black" stroke-width="6" stroke-linecap="round"/>
<path d="M189.563 206.402C190.56 208.139 192.832 213.192 195.615 211.844C196.663 211.337 198.464 210.249 198.16 208.757C197.405 205.053 192.279 204.518 189.563 204.518" stroke="black" stroke-width="6" stroke-linecap="round"/>
<path d="M233.797 178.983C237.828 181.913 241.349 183.948 241.349 178.202C241.349 175.704 237.554 176.64 235.475 176.64" stroke="black" stroke-width="6" stroke-linecap="round"/>
<path d="M251.392 212.07C247.185 214.758 228.972 223.471 228.602 227.485C228.339 230.342 227.542 230.753 232.922 231.767C239.3 232.97 245.456 233.48 252.063 233.48C253.721 233.48 257.244 233.913 258.691 233.385C261.176 232.478 258.266 224.819 258.021 223.251C257.581 220.439 257.247 214.368 252.733 212.927" stroke="black" stroke-width="6" stroke-linecap="round"/>
<path d="M240.269 65.2181C246.139 60.539 252.762 54.099 257.086 64.3334C260.447 72.2889 265.265 66.746 271.381 65.3163C277.71 63.8365 277.23 79.1794 282.312 77.2096C291.626 73.5994 290.158 75.5376 297.447 79.3721" stroke="black" stroke-width="6" stroke-linecap="round"/>
<path d="M70.2815 307.008C69.0379 309.063 62.8064 316.145 66.834 318.309C69.1053 319.529 74.5078 321.986 76.9849 321.088C80.8194 319.697 78.9002 324.293 78.9002 328.313C78.9002 337.3 84.9066 331.47 91.7325 333.87C95.1475 335.072 96.4771 341.011 97.8614 343.689" stroke="black" stroke-width="6" stroke-linecap="round"/>
<path d="M237.033 386.843C242.484 385.583 246.984 380.643 251.648 379.75C255.883 378.94 257.347 383.246 260.948 383.246C268.236 383.246 272.324 379.057 278.029 376.054" stroke="black" stroke-width="6" stroke-linecap="round"/>
</g>
</svg>
