<svg width="408" height="465" viewBox="0 0 408 465" fill="none" xmlns="http://www.w3.org/2000/svg">
<path d="M321.742 211.671C329.566 228.447 311.714 251.43 312.511 268.856C313.318 286.918 332.889 308.222 326.842 324.987C320.796 341.752 292.143 345.515 279.992 358.865C268.28 371.74 267.299 400.859 250.578 408.721C233.858 416.583 210.952 398.659 193.585 399.458C175.595 400.269 154.351 419.906 137.642 413.839C120.933 407.772 117.183 379.023 103.878 366.831C91.0458 355.079 62.0241 354.095 54.2581 337.318C46.492 320.541 64.2743 297.558 63.4896 280.133C62.6819 262.071 43.1109 240.767 49.1576 224.001C55.2043 207.236 83.8566 203.473 96.0076 190.123C107.72 177.248 108.701 148.129 125.422 140.279C142.142 132.429 165.048 150.329 182.415 149.542C200.417 148.731 221.649 129.094 238.358 135.161C255.067 141.228 258.818 169.977 272.123 182.169C284.885 193.91 313.907 194.894 321.742 211.671Z" fill="#FFB800"/>
<path d="M177.597 144.363C185.987 149.223 200.132 155.092 210.071 149.85C212.256 148.697 212.145 146.459 213.869 144.742C215.972 142.647 219.18 142.475 221.655 140.958C224.43 139.256 229.055 138.201 232.289 139.634C242.745 144.263 250.155 151.902 254.888 162.904C257.773 169.612 260.68 177.591 265.142 183.148C268.117 186.853 273.166 184.472 277.296 185.607C288.001 188.549 299.13 184.647 309.2 189.959C320.992 196.178 319.454 213.185 319.454 224.77C319.454 234.536 312.852 239.247 311.289 249.176C309.518 260.423 317.745 270.127 317.745 280.014C317.745 286.268 321.508 286.23 322.873 290.987C324.65 297.187 328 303.931 328 310.285C328 321.613 327.9 317.493 316.986 321.447C301.81 326.945 282.34 338.958 284.322 357.394C286.367 376.404 270.307 376.656 260.49 388.611C257.585 392.148 236.099 407.597 233.998 403.935C229.935 396.851 216.674 398.205 211.78 392.111C209.7 389.52 204.629 391.966 202.38 392.962C193.031 397.101 188.106 407.818 178.167 411.692C161.282 418.275 149.077 421.906 134.489 411.314C122.535 402.634 119.028 391.584 109.612 381.421C102.054 373.264 98.744 368.749 87.3937 364.016C84.2354 362.699 79.9906 359.229 76.7591 358.907C71.1088 358.345 62.7399 358.585 59.6679 353.421C51.5663 339.801 60.1087 308.839 66.1246 296.852C68.7213 291.678 70.9993 275.107 66.5044 270.365C60.05 263.557 49.9955 253.82 47.799 243.973C46.0359 236.069 44.4992 227.561 48.6536 219.284C50.9104 214.787 52.8151 213.064 57.2941 212.378C63.7627 211.387 68.3167 206.869 74.1954 205.567C80.955 204.071 91.1155 193.913 93.8503 187.783C97.4655 179.679 97.4678 169.238 99.0727 160.445C101.795 145.526 120.01 127.849 134.774 140.106C139.424 143.967 148.197 148.037 154.429 145.215C160.999 142.24 166.651 135.958 174.179 140.958" stroke="black" stroke-width="6" stroke-linecap="round"/>
<path d="M318.507 325C319.924 333.372 318.013 344.517 316.234 352.813C315.632 355.619 315.444 362.122 313.445 364.375C311.779 366.252 311.483 367.814 312.928 370" stroke="black" stroke-width="6" stroke-linecap="round"/>
<path d="M77 360C79.6166 370.028 80 378.945 80 389.245C80 396.2 82 403.182 82 410" stroke="black" stroke-width="6" stroke-linecap="round"/>
<path d="M169.999 416C169.999 424.457 170.134 432.697 167.717 440.889C166.739 444.204 165.837 448.845 162.999 451.052C157.047 455.681 148.786 454.607 142 458" stroke="black" stroke-width="6" stroke-linecap="round"/>
<path d="M232.224 410C235.465 422.086 236.85 435.232 236.996 447.713C237.081 454.93 235.798 452.945 229.573 454.646C225.52 455.754 219.509 459.683 216 462" stroke="black" stroke-width="6" stroke-linecap="round"/>
<path d="M206.482 249.668C206.321 250.576 204.81 254.987 206.482 255.095C207.324 255.15 208.309 255.132 208.76 254.191C209.626 252.387 207.949 249.578 206.846 248.362C205.56 246.944 204.323 250.082 204.066 251.075C203.611 252.832 205.661 254.236 205.661 256" stroke="black" stroke-width="6" stroke-linecap="round"/>
<path d="M148.891 251.554C149.547 251.928 156.371 254.969 155.688 256.247C155.361 256.861 152.815 258.37 152.123 257.916C150.678 256.969 148 254.507 148 252.91C148 249.74 153.201 247.554 155.354 250.146C157.107 252.256 158.123 256.183 154.908 257.186" stroke="black" stroke-width="6" stroke-linecap="round"/>
<path d="M287.473 162.172C286.09 151.951 287.374 139.078 283.228 129.583C279.58 121.228 275.017 111.379 277.923 101.672C281.968 88.1602 287.771 73.8547 297.447 63.2354C304.934 55.019 311.186 48.0727 315.751 37.2385C321.362 23.9233 332.518 9.86088 346.47 5.02156C358.82 0.738042 372.987 4.05808 385.253 7.62656C395.901 10.7242 400.651 19.3144 403.027 29.583C404.517 36.0229 406.146 46.401 403.876 52.6559C401.582 58.9774 393.421 64.621 388.914 69.1365C381.396 76.6698 373.958 86.3389 365.252 91.8904C357.651 96.7373 347.457 98.3001 338.724 99.7585C335.735 100.258 331.277 100.942 328.537 102.098C325.731 103.282 322.768 102.309 319.942 103.32C315.132 105.042 310.659 108.939 308.483 113.847C306.638 118.006 302.47 122.916 302.753 127.722C302.881 129.913 304.033 131.381 303.495 134.208C302.894 137.374 299.624 138.455 298.986 140.694C297.845 144.693 295.232 148.962 293.415 152.603C291.753 155.934 292.248 162.221 292.248 166" stroke="black" stroke-width="6" stroke-linecap="round"/>
<path d="M10.1188 234C10.2556 241.161 10.3214 247.553 13.6601 253.909C14.8328 256.141 15.7573 257.408 14.1028 259.808C9.79906 266.05 1.82044 271.931 3.14691 279.506C3.44881 281.231 5.83632 282.015 6.07954 283.983C6.48811 287.289 7.53812 295.357 5.91354 298.257C5.04284 299.811 4.02405 305.995 6.13488 307" stroke="black" stroke-width="6" stroke-linecap="round"/>
<path d="M32.9256 304C34.0099 307.23 34.5953 310.326 31.9516 313.025C30.9956 314.001 30.0667 313.954 30.0037 315.543C29.8692 318.933 33.4625 323.28 35.3064 326.09C38.9149 331.588 38.2885 326.777 36.9297 331.389C36.2896 333.561 37.7954 335.764 37.7954 338" stroke="black" stroke-width="6" stroke-linecap="round"/>
<path d="M360.18 215C362.273 219.454 364.41 223.845 366.882 228.11C367.868 229.812 370.521 232.751 370.913 234.88C371.411 237.582 369.688 239.477 367.699 241.006C363.225 244.445 351.786 249.405 359.744 253.686C365.527 256.797 359.196 278.839 362.141 273.029" stroke="black" stroke-width="6" stroke-linecap="round"/>
<path d="M386.818 260C387.919 266.876 383.862 272.908 378.964 277.442C377.51 278.787 381.116 280.756 381.2 282.425C381.479 287.945 375.306 294.524 377.455 299" stroke="black" stroke-width="6" stroke-linecap="round"/>
<path d="M166 287H197" stroke="black" stroke-width="6" stroke-linecap="round"/>
<path d="M352.84 28C344.339 31.1545 341.912 32.1404 338.665 39.1898C337.071 42.6502 338.287 45.9989 342.917 44.7226C346.169 43.8263 354 34.6886 354 31.357" stroke="black" stroke-width="6" stroke-linecap="round"/>
<path d="M375.008 41C371.944 42.9897 365.26 46.8633 365.011 51.6476C364.854 54.6413 366.444 61.4645 369.454 55.854C371.492 52.0549 381.656 47.4785 378.341 42.1831" stroke="black" stroke-width="6" stroke-linecap="round"/>
<path d="M89 57V70" stroke="black" stroke-width="6" stroke-linecap="round"/>
<path d="M75 78C82.2782 76.7926 87.2322 75.8371 94.0082 73.3333C97.8244 71.9233 101.958 71 106 71" stroke="black" stroke-width="6" stroke-linecap="round"/>
<path d="M101.592 84.0732C93.7645 84.0732 91 82.8904 91 90.0366C91 94.2397 91.57 96 96.2961 96C98.8551 96 103.734 93.1582 103.946 90.8197C104.24 87.5707 103.317 88.3359 101.592 85.1574" stroke="black" stroke-width="6" stroke-linecap="round"/>
<path d="M113 70C115.029 76.2866 114.974 82.7162 116.867 88.9259C117.699 91.6558 119 95.1769 119 98" stroke="black" stroke-width="6" stroke-linecap="round"/>
<path d="M118.872 102C114 102.875 106.842 103.196 102.46 105.768C100.13 107.135 101.287 112.624 101.287 114.863C101.287 123.5 106.609 121.879 113.597 121.879C126.457 121.879 122.389 115.238 122.389 105.508" stroke="black" stroke-width="6" stroke-linecap="round"/>
<path d="M156.741 73C152.774 73.5747 140.242 73.7974 139.736 79.0235C139.181 84.7531 138.344 89.0193 139.862 94.5032C141.693 101.118 153.753 96.3168 159 96.3168" stroke="black" stroke-width="6" stroke-linecap="round"/>
<path d="M139 114C147.065 113.742 154.819 111 163 111" stroke="black" stroke-width="6" stroke-linecap="round"/>
<path d="M177.33 75.3256C179.484 75.3256 190.679 73.898 190.778 77.0216C190.84 78.9985 189.99 83.4979 188.944 85.3064C186.552 89.4423 185.707 92.9388 179.164 92.9388C176.036 92.9388 177.172 103.264 177.33 105.855C177.443 107.699 190.99 108.97 192 107.029" stroke="black" stroke-width="6" stroke-linecap="round"/>
<path d="M196 98C198.278 97.2819 208.853 96.6227 210 94" stroke="black" stroke-width="6" stroke-linecap="round"/>
<path d="M212 79C212 91.6494 213 104.567 213 117" stroke="black" stroke-width="6" stroke-linecap="round"/>
</svg>
