<svg width="418" height="448" viewBox="0 0 418 448" fill="none" xmlns="http://www.w3.org/2000/svg">
<path d="M217.315 392.717C217.825 402.45 217.872 412.206 217.408 421.928C217.199 426.466 216.851 431.523 216.445 435.75C216.352 436.706 216.271 437.685 216.12 438.63C216.039 439.102 215.911 439.54 215.795 440.001C215.679 440.461 215.865 439.759 215.9 439.701C216.132 439.344 216.526 439.148 216.027 439.517C216.584 439.102 217.269 438.791 217.814 438.434C218.359 438.077 218.092 438.353 217.744 438.434C216.712 438.641 218.51 438.434 217.454 438.434C216.398 438.434 215.041 438.434 213.846 438.434L196.77 438.492C194.066 438.492 190.633 440.116 190.076 443.041C189.955 443.663 189.979 444.303 190.144 444.913C190.31 445.524 190.613 446.089 191.031 446.567C191.449 447.044 191.971 447.42 192.557 447.668C193.143 447.915 193.778 448.027 194.414 447.995L210.911 447.937C213.521 447.937 216.364 448.179 218.927 447.545C220.73 447.156 222.4 446.308 223.773 445.084C225.146 443.86 226.175 442.303 226.758 440.565C227.365 438.156 227.696 435.687 227.744 433.205C227.999 430.567 228.197 427.929 228.371 425.291C228.726 419.916 228.931 414.541 228.985 409.165C229.047 403.022 228.912 396.879 228.58 390.736C228.429 387.902 225.157 386.578 222.663 387.119C220.169 387.66 217.152 389.791 217.315 392.774V392.717Z" fill="black"/>
<path d="M159.44 395.272C160.195 406.754 159.925 418.278 158.632 429.716C158.293 432.627 157.895 435.516 157.462 438.405C157.335 439.44 157.135 440.465 156.866 441.474C156.782 441.754 156.68 442.028 156.561 442.295C157.004 441.514 157.618 440.836 158.362 440.308C159.106 439.78 159.961 439.414 160.867 439.237C160.645 439.237 159.405 439.451 159.627 439.428C153.578 439.923 147.483 440.125 141.434 440.474C140.056 440.591 138.715 440.968 137.488 441.583C136.262 442.199 135.173 443.04 134.285 444.06C133.466 445.015 131.735 448.152 134.531 447.994L150.443 447.073C153.59 446.893 156.526 446.78 159.44 445.476C161.106 444.786 162.608 443.776 163.853 442.508C165.099 441.24 166.061 439.74 166.682 438.102C167.307 435.671 167.741 433.198 167.98 430.705C168.355 428.179 168.675 425.643 168.94 423.095C169.478 418.013 169.809 412.914 169.934 407.795C170.09 401.95 169.969 396.112 169.572 390.281C169.419 387.965 165.535 389.382 164.412 389.966C162.657 390.866 159.311 392.956 159.463 395.272H159.44Z" fill="black"/>
<path d="M369.07 246.891C359.749 265.318 343.304 277.258 321.233 281.624C319.61 281.935 322.781 290.289 324.331 289.986C346.653 285.509 363.256 273.35 372.622 254.62C372.941 253.116 372.538 251.149 371.481 249.054C371.025 248.065 369.673 245.706 369.102 246.859L369.07 246.891Z" fill="black"/>
<path d="M78.0489 288.761C57.9515 284.017 42.491 270.827 33.0749 250.393C32.3923 248.889 25.0139 253.929 25.6716 255.365C35.2539 276.016 50.9645 289.308 71.3682 294.025C72.9046 293.982 74.7218 293.13 76.5114 291.612C77.3659 290.936 79.3429 289.069 78.0878 288.785L78.0489 288.761Z" fill="black"/>
<path d="M324.764 203.671C332.56 220.447 314.772 243.43 315.566 260.856C316.371 278.918 335.872 300.222 329.847 316.987C323.821 333.752 295.271 337.515 283.164 350.865C271.493 363.74 270.516 392.859 253.855 400.721C237.194 408.583 214.37 390.659 197.065 391.458C179.139 392.269 157.971 411.906 141.322 405.839C124.672 399.772 120.935 371.023 107.678 358.831C94.892 347.079 65.974 346.095 58.2357 329.318C50.4974 312.541 68.2162 289.558 67.4343 272.133C66.6294 254.071 47.1284 232.767 53.1535 216.001C59.1785 199.236 87.7286 195.473 99.8362 182.123C111.507 169.248 112.484 140.129 129.145 132.279C145.806 124.429 168.63 142.329 185.935 141.542C203.872 140.731 225.029 121.094 241.678 127.161C258.328 133.228 262.065 161.977 275.322 174.169C288.039 185.91 316.957 186.894 324.764 203.671Z" fill="#FFB800"/>
<path d="M170.152 267.49C177.974 266.274 185.857 265.05 193.719 264.168C195.922 263.921 204.572 261.405 203.97 264.626C202.33 273.394 199.182 280.844 195.764 289.052C195.064 290.735 190.493 301.051 188.652 299.912C186.811 298.774 181.087 290.157 179.275 286.046C178.136 283.462 171.982 271.154 170 269.012" stroke="black" stroke-width="6" stroke-linecap="round"/>
<path d="M207.881 238.028C208.327 238.561 209.483 242.324 210.935 241.678C213.642 240.474 214.461 236.217 213.118 233.854C209.748 227.927 208.376 236.465 207.967 237.405" stroke="black" stroke-width="6" stroke-linecap="round"/>
<path d="M162.748 238.028C163.194 238.561 164.35 242.324 165.802 241.678C168.509 240.474 169.328 236.217 167.985 233.854C164.615 227.927 163.243 236.465 162.834 237.405" stroke="black" stroke-width="6" stroke-linecap="round"/>
<path d="M204.886 136.707C194.992 141.966 188.106 144.093 178.446 144.093C165.226 144.093 164.21 126.972 133.702 131.839C103.195 136.707 112.347 190.042 72.9309 197.734C67.0789 199.04 49.2983 211.485 52.3492 233.95C54.5358 243.829 58.8497 255.917 65.2748 262.748C69.7493 267.505 67.4817 284.131 64.8967 289.322L64.8049 289.507C58.8113 301.543 49.4099 320.422 57.4337 334.017C60.4918 339.199 65.2748 342.186 71.6705 344.229C78.0662 346.271 85.8141 350.262 88.958 351.583C100.257 356.333 105.84 357.487 113.364 365.672C122.737 375.868 121.802 394.744 133.702 403.452C148.224 414.079 152.485 410.057 169.294 403.452C179.188 399.565 181.343 395.352 190.649 391.199C192.888 390.2 204.849 389.621 206.92 392.22C211.792 398.335 217.089 400.389 233.359 401.41C246.579 404.543 263.009 396.79 265.901 393.241C275.674 381.247 277.146 375.782 275.111 356.709C273.137 338.212 300.269 337.491 315.376 331.975C326.241 328.008 332 320.877 332 309.511C332 303.135 327.354 299.393 325.585 293.173C324.226 288.4 315.376 278.703 315.376 272.428C315.376 262.509 313.614 263.614 315.376 252.329C316.933 242.367 325.585 227.41 325.585 217.612C325.585 205.988 316.282 195.261 304.543 189.021C294.519 183.692 280.137 187.092 269.968 175.747C251.664 155.325 267.934 136.707 237.427 126.734C220.14 123.671 215.963 130.817 204.886 136.707Z" stroke="black" stroke-width="6" stroke-linecap="round"/>
<path d="M316.644 79C318.521 90.7572 319.885 103.256 319.885 115.218C319.885 116.638 320.844 124.056 319.285 124.526C316.862 125.256 315.108 125.931 313.163 127.755C310.786 129.984 304.302 139.969 308.242 143.711C310.172 145.543 318.621 138.147 319.645 135.986C321.049 133.023 317.883 131.22 315.194 132.481C311.893 134.029 308.929 142.294 311.483 141.432C313.189 140.856 327.896 132.481 323.011 126.296C318.29 123.659 308.486 139.104 312.323 133.707" stroke="black" stroke-width="6" stroke-linecap="round"/>
<path d="M10.9421 337C12.4877 346.225 13.611 356.032 13.611 365.417C13.611 366.531 14.4009 372.351 13.1167 372.72C11.1216 373.293 9.6771 373.823 8.07554 375.254C6.11816 377.003 0.777817 384.838 4.02283 387.773C5.61207 389.211 12.57 383.408 13.4133 381.712C14.5697 379.387 11.9626 377.973 9.74823 378.962C7.02978 380.177 4.58825 386.661 6.69169 385.985C8.09654 385.533 20.2085 378.962 16.1853 374.109C12.2979 372.04 4.22372 384.159 7.38361 379.924" stroke="black" stroke-width="6" stroke-linecap="round"/>
<path d="M316 80C316.135 82.8999 322.097 88.3077 327.177 90.3846C331.972 92.3446 339.37 96.6154 334.29 107" stroke="black" stroke-width="6" stroke-linecap="round"/>
<path d="M68 155C50.8826 144.93 29.9877 142.801 12 135" stroke="black" stroke-width="6" stroke-linecap="round"/>
<path d="M110 95C105.222 81.1669 101.989 66.9308 97.6154 52.9803C96.4589 49.2913 96 45.831 96 42" stroke="black" stroke-width="6" stroke-linecap="round"/>
<path d="M202 81C204.334 57.4927 207 34.5273 207 10.8732C207 7.98631 207.494 5.77861 208 3" stroke="black" stroke-width="6" stroke-linecap="round"/>
<path d="M272 93C275.502 85.9682 277.908 77.8142 283.179 71.8063C286.535 67.9803 289.979 64.4857 292.913 60.3519C295.268 57.0343 295.569 53.162 298 50" stroke="black" stroke-width="6" stroke-linecap="round"/>
<path d="M347 173C369.609 161.845 391.785 149.818 415 140" stroke="black" stroke-width="6" stroke-linecap="round"/>
<path d="M12 338.17C18.8446 336.151 25.5645 333.679 32.74 332.952C33.2034 332.905 38.3125 331.892 38.3463 332.009C39.113 334.663 39.1949 337.514 40.0319 340.163C42.1154 346.757 43 354.056 43 361" stroke="black" stroke-width="6" stroke-linecap="round"/>
<path d="M40.1239 364.053C38.1371 366.708 36.1019 368.379 34.2186 371.088C33.3792 372.296 31.2501 373.641 31.2501 375.229C31.2501 378.924 35.0459 377.412 37.1147 376.365C41.7696 374.009 47.5854 362 41.1373 362C34.1754 362 25.224 381.079 33.0251 377.569C36.408 376.047 38.0093 377.167 39.3592 373.653C40.3836 370.987 42.3074 365.888 42.3074 363.026" stroke="black" stroke-width="6" stroke-linecap="round"/>
<path d="M13 350C18.1982 349.059 23.3369 347.635 28.5799 346.944C30.4707 346.695 32.2213 346.061 34.0959 345.768C34.6544 345.681 35.1602 345.502 35.7215 345.408C36.0947 345.346 36.8234 345.316 37 345" stroke="black" stroke-width="6" stroke-linecap="round"/>
<path d="M125 32.6954C125.134 36.0527 125.121 39.4089 125.121 42.7678C125.121 43.0667 124.933 44.0613 125.148 44.2889C125.314 44.4648 126.444 44.3302 126.609 44.3401C128.645 44.4614 130.639 44.8953 132.684 44.9792C134.241 45.0431 135.783 44.9446 137.337 44.8897C138.684 44.8421 138.378 42.1354 138.39 41.3618C138.418 39.4056 138.366 37.5135 138.752 35.5842C138.846 35.1136 139.121 34.4458 138.939 33.9608C138.661 33.2167 137.85 32.586 136.995 32.4653C133.866 32.0235 130.689 31.8696 127.534 32.1202" stroke="black" stroke-width="6" stroke-linecap="round"/>
<path d="M148.063 29C147.785 32.5607 148.498 36.1715 148.858 39.7142C149.115 42.2455 149.514 44.7601 149.776 47.292C149.941 48.8754 150 50.4124 150 52" stroke="black" stroke-width="6" stroke-linecap="round"/>
<path d="M152 44C154.7 42.9775 157.388 42.0622 160.214 41.4667C160.555 41.3948 161.802 41.3995 162 41" stroke="black" stroke-width="6" stroke-linecap="round"/>
<path d="M134 57C134.499 58.5018 134.858 60.213 135.607 61.5995C135.761 61.8848 136.062 62.4885 136.348 62.6702C136.665 62.8716 137.14 62.912 137.488 62.9417C139.377 63.1026 141.339 62.9021 143.215 62.6853C145.407 62.4318 147.597 62.088 149.772 61.69C151.128 61.4419 152.528 61.4088 153.865 61.0566C154.147 60.9821 155.829 60.6339 156 60.2574" stroke="black" stroke-width="6" stroke-linecap="round"/>
<path d="M237 37C232.351 41.6942 227.375 46.0284 222.227 50.1884C221.743 50.579 221.505 50.8016 221 51" stroke="black" stroke-width="6" stroke-linecap="round"/>
<path d="M229 45C230.316 46.6135 231.311 48.6163 232.105 50.6068C232.4 51.3471 232.601 52.3369 233 53" stroke="black" stroke-width="6" stroke-linecap="round"/>
<path d="M239 46C241.589 46.7392 244.119 47.6278 246.657 48.4933C246.977 48.6027 247.838 48.7098 248 49" stroke="black" stroke-width="6" stroke-linecap="round"/>
<path d="M252 42C250.965 44.5486 249.961 47.1118 249.194 49.7499C248.298 52.8366 247.631 55.9513 246.507 58.9802C246.095 60.0908 245.577 61.1566 245.208 62.2825C245.2 62.3069 245 63.1414 245 62.9791" stroke="black" stroke-width="6" stroke-linecap="round"/>
<path d="M262.198 43.7718C260.97 50.0689 258.594 56.1065 256.503 62.1538C256.291 62.7663 255.769 64.639 255.921 64.0092" stroke="black" stroke-width="6" stroke-linecap="round"/>
</svg>
