<svg width="219" height="361" viewBox="0 0 219 361" fill="none" xmlns="http://www.w3.org/2000/svg">
<path d="M219 155.5C219 169.419 202.844 179.994 197.833 192.085C192.632 204.613 196.372 223.483 186.93 232.916C177.487 242.348 158.627 238.618 146.099 243.819C133.994 248.844 123.419 265 109.5 265C95.5805 265 85.0063 248.844 72.9149 243.833C60.3874 238.632 41.5172 242.372 32.0844 232.93C22.6517 223.487 26.3821 204.627 21.1808 192.099C16.1559 179.994 0 169.419 0 155.5C0 141.581 16.1559 131.006 21.1669 118.915C26.3682 106.387 22.6285 87.5172 32.0705 78.0844C41.5126 68.6517 60.3735 72.3821 72.901 67.1808C85.0063 62.1559 95.5805 46 109.5 46C123.419 46 133.994 62.1559 146.085 67.1669C158.613 72.3682 177.483 68.6285 186.916 78.0705C196.348 87.5126 192.618 106.373 197.819 118.901C202.844 131.006 219 141.581 219 155.5Z" fill="#FF9100"/>
<path d="M78.2754 121.834L75.0276 131.09C74.8207 131.84 74.8421 132.634 75.089 133.372C75.336 134.109 75.7972 134.757 76.4138 135.231C77.0303 135.705 77.7743 135.985 78.5506 136.034C79.3268 136.083 80.1001 135.9 80.7717 135.507C81.6221 134.965 82.2584 134.146 82.5719 133.187L85.8198 123.908C86.0267 123.158 86.0052 122.363 85.7583 121.626C85.5114 120.888 85.0502 120.241 84.4336 119.767C83.817 119.293 83.073 119.013 82.2968 118.964C81.5205 118.915 80.7472 119.098 80.0757 119.49C79.2251 120.031 78.59 120.851 78.2801 121.81L78.2754 121.834Z" fill="black"/>
<path d="M113.032 121.834L109.784 131.09C109.577 131.84 109.598 132.636 109.845 133.374C110.092 134.113 110.553 134.761 111.171 135.235C111.788 135.709 112.533 135.989 113.31 136.037C114.088 136.086 114.861 135.901 115.533 135.507C116.384 134.967 117.019 134.146 117.329 133.187L120.577 123.908C120.783 123.158 120.762 122.363 120.515 121.626C120.268 120.888 119.807 120.241 119.19 119.767C118.574 119.293 117.83 119.013 117.054 118.964C116.277 118.915 115.504 119.098 114.832 119.49C113.982 120.032 113.346 120.852 113.032 121.81V121.834Z" fill="black"/>
<path d="M61.9844 168.26C63.4274 169.981 64.8054 171.763 66.1602 173.535L67.3016 175.011L67.9929 175.902L68.2899 176.292C68.0579 175.985 68.0672 176.004 68.2899 176.292C69.3571 177.674 70.4258 179.055 71.496 180.435C73.287 182.755 75.0873 185.047 76.9293 187.32C77.9547 188.587 78.9986 189.803 80.5159 190.517C82.1958 191.335 84.0741 191.657 85.9305 191.445C89.6424 190.981 93.0248 188.986 96.3655 187.39C99.4587 185.915 102.533 184.404 105.59 182.857C111.343 179.943 117.025 176.901 122.636 173.73C129.526 169.851 136.319 165.806 143.084 161.713C144.833 160.655 145.641 158.154 144.476 156.363C143.311 154.572 141.001 153.825 139.126 154.971C127.953 161.736 116.679 168.343 105.074 174.352C99.2283 177.383 93.314 180.279 87.3318 183.038L86.775 183.298C86.8307 183.27 87.355 183.094 86.9327 183.228C86.6172 183.33 86.3064 183.451 86.0048 183.539C85.8609 183.581 84.9283 183.803 85.4201 183.701C85.912 183.599 85.4202 183.701 85.3088 183.701C85.0582 183.701 84.7891 183.701 84.5386 183.701C84.0468 183.752 84.8495 183.701 84.8263 183.766C84.6697 183.744 84.5147 183.711 84.3623 183.669C84.2184 183.632 84.0746 183.571 83.9308 183.544C84.005 183.544 84.5154 183.878 84.1813 183.641C84.0563 183.555 83.9244 183.479 83.7869 183.414C83.8519 183.441 84.2509 183.878 83.9586 183.548C83.6663 183.219 83.4436 183.019 83.207 182.732C81.4114 180.569 79.6853 178.347 77.9593 176.134C76.9478 174.832 75.9379 173.529 74.9295 172.227C74.6557 171.874 74.9945 172.311 75.0316 172.352L74.6233 171.828L73.5144 170.39L72.1502 168.631C70.6145 166.65 69.088 164.669 67.4826 162.748C66.1649 161.17 63.3067 161.286 61.9519 162.748C60.4115 164.423 60.56 166.599 61.9519 168.279L61.9844 168.26Z" fill="black"/>
<path d="M35.0642 351.966L40.5242 355.641L41.3342 354.456L35.7242 350.781C36.1142 349.956 36.4142 349.041 36.5942 348.081L35.0642 347.811C34.4042 351.351 31.8542 354.186 29.0792 354.186V355.596C31.4492 355.596 33.6242 354.171 35.0642 351.966ZM35.9642 358.551V354.966H34.4492V358.551H28.8242V359.946H41.6192V358.551H35.9642Z" fill="#212325"/>
<path d="M49.0429 351.966L54.5029 355.641L55.3129 354.456L49.7029 350.781C50.0929 349.956 50.3929 349.041 50.5729 348.081L49.0429 347.811C48.3829 351.351 45.8329 354.186 43.0579 354.186V355.596C45.4279 355.596 47.6029 354.171 49.0429 351.966ZM49.9429 358.551V354.966H48.4279V358.551H42.8029V359.946H55.5979V358.551H49.9429Z" fill="#212325"/>
<path d="M61.9716 347.721H60.4566V349.776H57.0666V351.096H65.3766V349.776H61.9716V347.721ZM70.1766 352.941H68.3766V347.751H66.8916V360.561H68.3766V354.366H70.1766V352.941ZM61.2216 352.116C59.1366 352.116 57.6516 353.676 57.6516 356.031C57.6516 358.386 59.1366 359.946 61.2216 359.946C63.3066 359.946 64.7766 358.386 64.7766 356.031C64.7766 353.676 63.3066 352.116 61.2216 352.116ZM61.2216 358.656C60.0216 358.656 59.0916 357.666 59.0916 356.031C59.0916 354.396 60.0216 353.406 61.2216 353.406C62.4066 353.406 63.3366 354.396 63.3366 356.031C63.3366 357.666 62.4066 358.656 61.2216 358.656Z" fill="#212325"/>
<path d="M81.2304 347.751V360.561H82.7154V347.751H81.2304ZM76.2354 349.581H79.5204V348.216H71.3454V349.581H74.7354C74.6754 354.336 73.3254 357.906 71.0454 358.326V359.796C72.9804 359.571 74.5104 357.981 75.3954 355.296L78.8454 359.691L80.0154 358.806L75.8304 353.631C76.0704 352.431 76.2204 351.066 76.2354 349.581Z" fill="#212325"/>
<path d="M96.3341 350.796V347.751H94.8491V357.261H96.3341V352.221H98.1341V350.796H96.3341ZM92.6741 348.066H85.1891V354.981H92.6741V348.066ZM91.2041 353.691H86.6591V349.356H91.2041V353.691ZM87.1241 356.241H85.6241V360.396H96.6791V359.046H87.1241V356.241Z" fill="#212325"/>
<path d="M111.082 348.696H107.512V347.391H105.982V348.696H102.517V349.806H111.082V348.696ZM115.867 351.171H114.097V347.751H112.612V356.541H114.097V352.551H115.867V351.171ZM111.547 355.776V354.621C110.752 354.966 109.192 355.116 107.497 355.131V354.216C109.357 354.081 110.467 353.376 110.467 352.311C110.467 351.126 109.072 350.376 106.777 350.376C104.482 350.376 103.087 351.126 103.087 352.311C103.087 353.376 104.182 354.066 106.027 354.216V355.131H102.472V356.271H107.287C109.102 356.271 110.737 356.121 111.547 355.776ZM104.482 352.311C104.482 351.816 105.247 351.456 106.777 351.456C108.292 351.456 109.057 351.816 109.057 352.311C109.057 352.821 108.292 353.196 106.777 353.196C105.247 353.196 104.482 352.821 104.482 352.311ZM103.297 358.386H112.612V360.561H114.097V357.231H103.297V358.386Z" fill="#212325"/>
<path d="M128.406 347.751H126.921V354.021H128.406V347.751ZM120.966 351.441L124.956 353.691L125.676 352.566L121.611 350.331C121.926 349.611 122.091 348.801 122.091 347.961L120.606 347.871C120.591 350.196 119.076 352.146 116.646 352.581V353.901C118.506 353.661 120.006 352.746 120.966 351.441ZM119.031 359.226V358.116H128.406V354.726H117.531V355.896H126.936V357.006H117.561V360.396H128.721V359.226H119.031Z" fill="#212325"/>
<path d="M139.084 348.966H135.484V347.526H133.984V348.966H130.384V350.181H139.084V348.966ZM142.024 351.261V347.751H140.539V357.351H142.024V352.686H143.824V351.261H142.024ZM134.734 356.151C136.864 356.151 138.514 355.206 138.514 353.526C138.514 351.846 136.864 350.901 134.734 350.901C132.604 350.901 130.939 351.846 130.939 353.526C130.939 355.206 132.604 356.151 134.734 356.151ZM134.734 352.041C136.174 352.041 137.089 352.671 137.089 353.526C137.089 354.396 136.174 355.011 134.734 355.011C133.294 355.011 132.379 354.396 132.379 353.526C132.379 352.671 133.294 352.041 134.734 352.041ZM132.814 356.886H131.314V360.396H142.369V359.076H132.814V356.886Z" fill="#212325"/>
<path d="M158.737 354.951H160.222V347.751H158.737V349.836H155.647V351.156H158.737V354.951ZM152.452 351.921L156.112 354.441L156.937 353.391L153.037 350.721C153.352 349.881 153.517 348.951 153.517 347.961L152.032 347.871C152.002 350.601 150.592 352.896 148.192 353.346V354.696C150.067 354.441 151.537 353.406 152.452 351.921ZM154.792 355.371C151.687 355.371 149.257 356.091 149.257 357.966C149.257 359.841 151.687 360.561 154.792 360.561C157.897 360.561 160.327 359.841 160.327 357.966C160.327 356.091 157.897 355.371 154.792 355.371ZM154.792 359.346C152.587 359.346 150.832 358.911 150.832 357.966C150.832 357.021 152.587 356.586 154.792 356.586C156.997 356.586 158.752 357.021 158.752 357.966C158.752 358.911 156.997 359.346 154.792 359.346Z" fill="#212325"/>
<path d="M166.566 352.611L170.406 354.801L171.066 353.646L167.166 351.471C167.301 351.126 167.376 350.766 167.421 350.391H170.631V349.101H167.406V347.511H165.891V349.101H162.651V350.391H165.906C165.636 352.011 164.331 353.241 162.396 353.511V354.846C164.241 354.636 165.696 353.811 166.566 352.611ZM172.656 347.751V360.561H174.141V347.751H172.656ZM162.141 355.986V357.291H165.831V360.561H167.316V357.291H167.346C169.116 357.291 170.646 357.141 171.576 356.811V355.521C170.661 355.851 169.101 355.986 167.376 355.986H162.141Z" fill="#212325"/>
<path d="M189.515 350.376H187.715V347.751H186.23V354.711H187.715V351.801H189.515V350.376ZM183.83 349.461V348.066H176.45V349.326H182.33V349.716C182.33 352.011 180.065 353.046 176.45 353.061V354.351C180.89 354.351 183.83 352.956 183.83 349.461ZM177.005 360.396H187.715V355.416H177.005V360.396ZM178.49 356.676H186.23V359.136H178.49V356.676Z" fill="#212325"/>
<path fill-rule="evenodd" clip-rule="evenodd" d="M19.5789 71.3059L16.128 50.3752L13.168 50.8633L16.6189 71.7939L19.5789 71.3059Z" fill="#53ACFF"/>
<path fill-rule="evenodd" clip-rule="evenodd" d="M28.1039 57.808L7.34288 62.1645L7.95898 65.1006L28.72 60.7441L28.1039 57.808Z" fill="#53ACFF"/>
<path fill-rule="evenodd" clip-rule="evenodd" d="M25.981 47.057L8.5013 71.4386L10.9395 73.1865L28.4191 48.805L25.981 47.057Z" fill="#53ACFF"/>
<path fill-rule="evenodd" clip-rule="evenodd" d="M200.449 265.543L194.964 232.274L192.004 232.762L197.489 266.031L200.449 265.543Z" fill="#FF46F8"/>
<path fill-rule="evenodd" clip-rule="evenodd" d="M213.999 244.087L180.999 251.012L181.615 253.948L214.615 247.023L213.999 244.087Z" fill="#FF46F8"/>
<path fill-rule="evenodd" clip-rule="evenodd" d="M211.625 227L183.841 265.755L186.279 267.503L214.064 228.748L211.625 227Z" fill="#FF46F8"/>
<path d="M47 46C47 48.2091 45.2091 50 43 50C40.7909 50 39 48.2091 39 46C39 43.7909 40.7909 42 43 42C45.2091 42 47 43.7909 47 46Z" fill="#5CC4FF"/>
<path d="M173 264.5C173 267.538 170.538 270 167.5 270C164.462 270 162 267.538 162 264.5C162 261.462 164.462 259 167.5 259C170.538 259 173 261.462 173 264.5Z" fill="#FF6B6B"/>
<path d="M202.422 32L204.055 34.5165L190.634 43.227L189.001 40.7105L202.422 32Z" fill="#CEFF65"/>
<path fill-rule="evenodd" clip-rule="evenodd" d="M44.5 46C45.8807 46 47 44.8807 47 43.5C47 42.1193 45.8807 41 44.5 41C43.1193 41 42 42.1193 42 43.5C42 44.8807 43.1193 46 44.5 46ZM44.5 47C46.433 47 48 45.433 48 43.5C48 41.567 46.433 40 44.5 40C42.567 40 41 41.567 41 43.5C41 45.433 42.567 47 44.5 47Z" fill="black"/>
<path fill-rule="evenodd" clip-rule="evenodd" d="M169.5 265C171.985 265 174 262.985 174 260.5C174 258.015 171.985 256 169.5 256C167.015 256 165 258.015 165 260.5C165 262.985 167.015 265 169.5 265ZM169.5 266C172.538 266 175 263.538 175 260.5C175 257.462 172.538 255 169.5 255C166.462 255 164 257.462 164 260.5C164 263.538 166.462 266 169.5 266Z" fill="black"/>
<path d="M86.55 303.69H68V293.16H70.46C70.74 294.48 72.39 296.84 73.81 296.7L74.47 295.9C73.6062 295.703 72.8322 295.225 72.2693 294.541C71.7064 293.857 71.3866 293.006 71.36 292.12V290H83.36V293.16H86.52L86.55 303.69ZM68 317.89C68 309.02 71.17 304.54 77.26 304.54C83.35 304.54 86.55 309.02 86.55 317.89C86.55 326.76 83.39 331.15 77.26 331.15C71.13 331.15 68 326.67 68 317.89ZM73.43 316.29L72.58 317.56C75.474 318.72 78.573 319.281 81.69 319.21V317.8C78.8675 317.806 76.0679 317.294 73.43 316.29ZM97.43 330.49H87.56V291.75H97.43V305.75H98.65V291.75H108.52V330.52H98.65V316.22H97.43V330.49Z" fill="black"/>
<path d="M111.9 291.75H122.9V299.25C122.9 300.43 123.75 300.9 125.07 300.9C126.364 300.901 127.651 300.712 128.89 300.34V291.75H139.69V296.52H141.11V291.71H151.91V311.52H141.11V306.09H139.69V311.52H128.89V309.87C126.265 310.986 123.443 311.565 120.59 311.57C114.45 311.57 111.9 309.57 111.9 304.4V291.75ZM111.9 312.75H151.9V330.52H121.44C115.07 330.52 111.9 327.88 111.9 322.41V312.75ZM125.68 320.35C129.752 322.057 134.164 322.8 138.57 322.52V321.15C134.372 321.399 130.172 320.673 126.3 319.03L125.68 320.35Z" fill="black"/>
<path fill-rule="evenodd" clip-rule="evenodd" d="M183 0C192.389 0 200 7.61116 200 17C200 26.3888 192.389 34 183 34H176.538C175.655 36.7747 173.177 40 166.5 40C168.306 38.4705 169.929 36.4439 169.787 34H85C75.6112 34 68 26.3888 68 17C68 7.61116 75.6112 0 85 0H183Z" fill="black"/>
<path d="M83.2441 21.9998V11.4998H85.4191V21.9998H83.2441Z" fill="white"/>
<path d="M87.8261 10.8848H89.9561L88.3361 14.8298H86.7911L87.8261 10.8848Z" fill="white"/>
<path d="M90.741 21.9998V14.1848H92.796V14.7698C93.076 14.5298 93.386 14.3498 93.726 14.2298C94.066 14.0998 94.436 14.0348 94.836 14.0348C95.336 14.0348 95.786 14.1398 96.186 14.3498C96.596 14.5498 96.931 14.8348 97.191 15.2048C97.501 14.8248 97.876 14.5348 98.316 14.3348C98.756 14.1348 99.241 14.0348 99.771 14.0348C100.641 14.0348 101.356 14.3248 101.916 14.9048C102.476 15.4848 102.756 16.2298 102.756 17.1398V21.9998H100.701V17.4398C100.701 16.9498 100.566 16.5548 100.296 16.2548C100.036 15.9548 99.681 15.8048 99.231 15.8048C98.921 15.8048 98.636 15.8748 98.376 16.0148C98.126 16.1448 97.911 16.3348 97.731 16.5848C97.741 16.6748 97.751 16.7648 97.761 16.8548C97.771 16.9448 97.776 17.0398 97.776 17.1398V21.9998H95.721V17.4398C95.721 16.9498 95.586 16.5548 95.316 16.2548C95.056 15.9548 94.701 15.8048 94.251 15.8048C93.941 15.8048 93.666 15.8648 93.426 15.9848C93.186 16.1048 92.976 16.2798 92.796 16.5098V21.9998H90.741Z" fill="white"/>
<path d="M107.487 21.9998V11.4998H111.522C112.302 11.4998 113.032 11.6348 113.712 11.9048C114.392 12.1748 114.977 12.5448 115.467 13.0148C115.967 13.4848 116.357 14.0448 116.637 14.6948C116.927 15.3448 117.072 16.0398 117.072 16.7798C117.072 17.5098 116.927 18.1948 116.637 18.8348C116.357 19.4748 115.967 20.0298 115.467 20.4998C114.977 20.9598 114.392 21.3248 113.712 21.5948C113.032 21.8648 112.302 21.9998 111.522 21.9998H107.487ZM111.507 13.4348H109.662V20.0648H111.507C111.967 20.0648 112.397 19.9798 112.797 19.8098C113.207 19.6398 113.562 19.4098 113.862 19.1198C114.162 18.8198 114.397 18.4698 114.567 18.0698C114.737 17.6698 114.822 17.2398 114.822 16.7798C114.822 16.3098 114.737 15.8698 114.567 15.4598C114.397 15.0498 114.162 14.6948 113.862 14.3948C113.562 14.0948 113.207 13.8598 112.797 13.6898C112.397 13.5198 111.967 13.4348 111.507 13.4348Z" fill="white"/>
<path d="M118.067 18.0998C118.067 17.5298 118.172 16.9998 118.382 16.5098C118.602 16.0098 118.897 15.5798 119.267 15.2198C119.647 14.8498 120.092 14.5598 120.602 14.3498C121.112 14.1398 121.657 14.0348 122.237 14.0348C122.817 14.0348 123.362 14.1398 123.872 14.3498C124.382 14.5598 124.822 14.8498 125.192 15.2198C125.572 15.5798 125.867 16.0098 126.077 16.5098C126.297 16.9998 126.407 17.5298 126.407 18.0998C126.407 18.6698 126.297 19.2048 126.077 19.7048C125.867 20.1948 125.572 20.6198 125.192 20.9798C124.822 21.3398 124.382 21.6248 123.872 21.8348C123.362 22.0448 122.817 22.1498 122.237 22.1498C121.657 22.1498 121.112 22.0448 120.602 21.8348C120.092 21.6248 119.647 21.3398 119.267 20.9798C118.897 20.6198 118.602 20.1948 118.382 19.7048C118.172 19.2048 118.067 18.6698 118.067 18.0998ZM122.237 20.3648C122.837 20.3648 123.347 20.1448 123.767 19.7048C124.187 19.2648 124.397 18.7298 124.397 18.0998C124.397 17.4598 124.187 16.9198 123.767 16.4798C123.347 16.0398 122.837 15.8198 122.237 15.8198C121.637 15.8198 121.127 16.0398 120.707 16.4798C120.287 16.9198 120.077 17.4598 120.077 18.0998C120.077 18.7298 120.287 19.2648 120.707 19.7048C121.127 20.1448 121.637 20.3648 122.237 20.3648Z" fill="white"/>
<path d="M127.67 21.9998V14.1848H129.725V14.7998C130.025 14.5498 130.355 14.3598 130.715 14.2298C131.085 14.0998 131.485 14.0348 131.915 14.0348C132.815 14.0348 133.555 14.3248 134.135 14.9048C134.715 15.4848 135.005 16.2298 135.005 17.1398V21.9998H132.95V17.4398C132.95 16.9498 132.8 16.5548 132.5 16.2548C132.21 15.9548 131.82 15.8048 131.33 15.8048C130.99 15.8048 130.68 15.8748 130.4 16.0148C130.13 16.1448 129.905 16.3348 129.725 16.5848V21.9998H127.67Z" fill="white"/>
<path d="M143.566 21.0248C143.086 21.4148 142.591 21.6998 142.081 21.8798C141.581 22.0598 141.021 22.1498 140.401 22.1498C139.811 22.1498 139.256 22.0448 138.736 21.8348C138.226 21.6248 137.781 21.3398 137.401 20.9798C137.031 20.6198 136.736 20.1948 136.516 19.7048C136.306 19.2048 136.201 18.6698 136.201 18.0998C136.201 17.5398 136.301 17.0148 136.501 16.5248C136.711 16.0248 136.996 15.5948 137.356 15.2348C137.716 14.8648 138.141 14.5748 138.631 14.3648C139.131 14.1548 139.661 14.0498 140.221 14.0498C140.771 14.0498 141.281 14.1598 141.751 14.3798C142.231 14.5898 142.641 14.8798 142.981 15.2498C143.331 15.6198 143.601 16.0648 143.791 16.5848C143.991 17.0948 144.091 17.6498 144.091 18.2498V18.7898H138.271C138.411 19.2798 138.681 19.6748 139.081 19.9748C139.481 20.2748 139.951 20.4248 140.491 20.4248C140.831 20.4248 141.151 20.3698 141.451 20.2598C141.751 20.1498 142.006 19.9948 142.216 19.7948L143.566 21.0248ZM140.176 15.7448C139.706 15.7448 139.301 15.8898 138.961 16.1798C138.621 16.4598 138.386 16.8398 138.256 17.3198H142.081C141.951 16.8598 141.711 16.4848 141.361 16.1948C141.021 15.8948 140.626 15.7448 140.176 15.7448Z" fill="white"/>
<path d="M145.485 21.9998V11.4998H149.52C150.3 11.4998 151.03 11.6348 151.71 11.9048C152.39 12.1748 152.975 12.5448 153.465 13.0148C153.965 13.4848 154.355 14.0448 154.635 14.6948C154.925 15.3448 155.07 16.0398 155.07 16.7798C155.07 17.5098 154.925 18.1948 154.635 18.8348C154.355 19.4748 153.965 20.0298 153.465 20.4998C152.975 20.9598 152.39 21.3248 151.71 21.5948C151.03 21.8648 150.3 21.9998 149.52 21.9998H145.485ZM149.505 13.4348H147.66V20.0648H149.505C149.965 20.0648 150.395 19.9798 150.795 19.8098C151.205 19.6398 151.56 19.4098 151.86 19.1198C152.16 18.8198 152.395 18.4698 152.565 18.0698C152.735 17.6698 152.82 17.2398 152.82 16.7798C152.82 16.3098 152.735 15.8698 152.565 15.4598C152.395 15.0498 152.16 14.6948 151.86 14.3948C151.56 14.0948 151.205 13.8598 150.795 13.6898C150.395 13.5198 149.965 13.4348 149.505 13.4348Z" fill="white"/>
<path d="M156.065 18.0998C156.065 17.5298 156.17 16.9998 156.38 16.5098C156.6 16.0098 156.895 15.5798 157.265 15.2198C157.645 14.8498 158.09 14.5598 158.6 14.3498C159.11 14.1398 159.655 14.0348 160.235 14.0348C160.815 14.0348 161.36 14.1398 161.87 14.3498C162.38 14.5598 162.82 14.8498 163.19 15.2198C163.57 15.5798 163.865 16.0098 164.075 16.5098C164.295 16.9998 164.405 17.5298 164.405 18.0998C164.405 18.6698 164.295 19.2048 164.075 19.7048C163.865 20.1948 163.57 20.6198 163.19 20.9798C162.82 21.3398 162.38 21.6248 161.87 21.8348C161.36 22.0448 160.815 22.1498 160.235 22.1498C159.655 22.1498 159.11 22.0448 158.6 21.8348C158.09 21.6248 157.645 21.3398 157.265 20.9798C156.895 20.6198 156.6 20.1948 156.38 19.7048C156.17 19.2048 156.065 18.6698 156.065 18.0998ZM160.235 20.3648C160.835 20.3648 161.345 20.1448 161.765 19.7048C162.185 19.2648 162.395 18.7298 162.395 18.0998C162.395 17.4598 162.185 16.9198 161.765 16.4798C161.345 16.0398 160.835 15.8198 160.235 15.8198C159.635 15.8198 159.125 16.0398 158.705 16.4798C158.285 16.9198 158.075 17.4598 158.075 18.0998C158.075 18.7298 158.285 19.2648 158.705 19.7048C159.125 20.1448 159.635 20.3648 160.235 20.3648Z" fill="white"/>
<path d="M165.668 21.9998V14.1848H167.723V14.7998C168.023 14.5498 168.353 14.3598 168.713 14.2298C169.083 14.0998 169.483 14.0348 169.913 14.0348C170.813 14.0348 171.553 14.3248 172.133 14.9048C172.713 15.4848 173.003 16.2298 173.003 17.1398V21.9998H170.948V17.4398C170.948 16.9498 170.798 16.5548 170.498 16.2548C170.208 15.9548 169.818 15.8048 169.328 15.8048C168.988 15.8048 168.678 15.8748 168.398 16.0148C168.128 16.1448 167.903 16.3348 167.723 16.5848V21.9998H165.668Z" fill="white"/>
<path d="M181.564 21.0248C181.084 21.4148 180.589 21.6998 180.079 21.8798C179.579 22.0598 179.019 22.1498 178.399 22.1498C177.809 22.1498 177.254 22.0448 176.734 21.8348C176.224 21.6248 175.779 21.3398 175.399 20.9798C175.029 20.6198 174.734 20.1948 174.514 19.7048C174.304 19.2048 174.199 18.6698 174.199 18.0998C174.199 17.5398 174.299 17.0148 174.499 16.5248C174.709 16.0248 174.994 15.5948 175.354 15.2348C175.714 14.8648 176.139 14.5748 176.629 14.3648C177.129 14.1548 177.659 14.0498 178.219 14.0498C178.769 14.0498 179.279 14.1598 179.749 14.3798C180.229 14.5898 180.639 14.8798 180.979 15.2498C181.329 15.6198 181.599 16.0648 181.789 16.5848C181.989 17.0948 182.089 17.6498 182.089 18.2498V18.7898H176.269C176.409 19.2798 176.679 19.6748 177.079 19.9748C177.479 20.2748 177.949 20.4248 178.489 20.4248C178.829 20.4248 179.149 20.3698 179.449 20.2598C179.749 20.1498 180.004 19.9948 180.214 19.7948L181.564 21.0248ZM178.174 15.7448C177.704 15.7448 177.299 15.8898 176.959 16.1798C176.619 16.4598 176.384 16.8398 176.254 17.3198H180.079C179.949 16.8598 179.709 16.4848 179.359 16.1948C179.019 15.8948 178.624 15.7448 178.174 15.7448Z" fill="white"/>
<path d="M183.884 19.7048C184.224 19.7048 184.514 19.8248 184.754 20.0648C184.994 20.3048 185.114 20.5948 185.114 20.9348C185.114 21.2648 184.994 21.5498 184.754 21.7898C184.514 22.0298 184.224 22.1498 183.884 22.1498C183.554 22.1498 183.269 22.0298 183.029 21.7898C182.789 21.5498 182.669 21.2648 182.669 20.9348C182.669 20.5948 182.789 20.3048 183.029 20.0648C183.269 19.8248 183.554 19.7048 183.884 19.7048Z" fill="white"/>
</svg>
