<svg width="450" height="450" viewBox="0 0 450 450" fill="none" xmlns="http://www.w3.org/2000/svg">
<g opacity="0.3">
<path d="M243.768 370.717C244.278 380.45 244.325 390.206 243.861 399.928C243.652 404.466 243.304 409.523 242.898 413.75C242.805 414.706 242.724 415.685 242.573 416.63C242.492 417.102 242.364 417.54 242.248 418.001C242.132 418.461 242.318 417.759 242.353 417.701C242.585 417.344 242.979 417.148 242.48 417.517C243.037 417.102 243.722 416.791 244.267 416.434C244.812 416.077 244.545 416.353 244.197 416.434C243.165 416.641 244.963 416.434 243.907 416.434C242.852 416.434 241.494 416.434 240.299 416.434L223.223 416.492C220.52 416.492 217.086 418.116 216.529 421.041C216.408 421.663 216.432 422.303 216.597 422.913C216.763 423.524 217.066 424.089 217.484 424.567C217.902 425.044 218.424 425.42 219.01 425.668C219.596 425.915 220.231 426.027 220.868 425.995L237.364 425.937C239.974 425.937 242.817 426.179 245.381 425.545C247.183 425.156 248.853 424.308 250.226 423.084C251.599 421.86 252.628 420.303 253.211 418.565C253.819 416.156 254.149 413.687 254.197 411.205C254.452 408.567 254.65 405.929 254.824 403.291C255.179 397.916 255.384 392.541 255.439 387.165C255.5 381.022 255.365 374.879 255.033 368.736C254.882 365.902 251.61 364.578 249.116 365.119C246.622 365.66 243.606 367.791 243.768 370.774V370.717Z" fill="black"/>
<path d="M185.893 373.272C186.648 384.754 186.378 396.278 185.085 407.716C184.746 410.627 184.348 413.516 183.915 416.405C183.788 417.44 183.588 418.465 183.319 419.474C183.235 419.754 183.133 420.028 183.015 420.295C183.457 419.514 184.071 418.836 184.815 418.308C185.559 417.78 186.414 417.414 187.32 417.237C187.098 417.237 185.858 417.451 186.08 417.428C180.031 417.923 173.936 418.125 167.887 418.474C166.509 418.591 165.168 418.968 163.941 419.583C162.715 420.199 161.626 421.04 160.738 422.06C159.919 423.015 158.188 426.152 160.984 425.994L176.896 425.073C180.043 424.893 182.979 424.78 185.893 423.476C187.559 422.786 189.061 421.776 190.307 420.508C191.552 419.24 192.514 417.74 193.135 416.102C193.76 413.671 194.195 411.198 194.433 408.705C194.808 406.179 195.128 403.643 195.393 401.095C195.931 396.013 196.262 390.914 196.387 385.795C196.543 379.95 196.422 374.112 196.025 368.281C195.873 365.965 191.988 367.382 190.865 367.966C189.11 368.866 185.764 370.956 185.916 373.272H185.893Z" fill="black"/>
<path d="M327.516 302.733C334.345 322.25 331.254 342.306 318.526 361.077C317.584 362.449 326.022 366.03 326.918 364.714C339.745 345.688 342.788 325.366 335.769 305.605C334.892 304.327 333.154 303.24 330.849 302.527C329.792 302.161 327.079 301.475 327.516 302.687V302.733Z" fill="black"/>
<path d="M106.459 308.235L113.753 373.853C113.755 374.594 114.304 375.312 115.303 375.881C116.302 376.45 117.689 376.836 119.223 376.97C121.922 377.178 125.618 376.278 125.447 374.765L118.154 309.147C118.162 308.406 117.621 307.688 116.625 307.118C115.629 306.548 114.242 306.163 112.708 306.03C109.984 305.822 106.289 306.722 106.459 308.235V308.235Z" fill="black"/>
<path d="M351.218 181.671C359.013 198.447 341.226 221.43 342.019 238.856C342.824 256.918 362.325 278.222 356.3 294.987C350.275 311.752 321.724 315.515 309.617 328.865C297.946 341.74 296.969 370.859 280.308 378.721C263.647 386.583 240.823 368.659 223.518 369.458C205.593 370.269 184.424 389.906 167.775 383.839C151.126 377.772 147.389 349.023 134.131 336.831C121.345 325.079 92.4271 324.095 84.6888 307.318C76.9505 290.541 94.6693 267.558 93.8874 250.133C93.0825 232.071 73.5815 210.767 79.6066 194.001C85.6316 177.236 114.182 173.473 126.289 160.123C137.96 147.248 138.937 118.129 155.598 110.279C172.259 102.429 195.083 120.329 212.388 119.542C230.325 118.731 251.482 99.0945 268.131 105.161C284.781 111.228 288.518 139.977 301.775 152.169C314.492 163.91 343.41 164.894 351.218 181.671Z" fill="black"/>
<path d="M197.601 245.49C205.192 244.274 212.843 243.05 220.474 242.168C222.613 241.921 231.009 239.405 230.424 242.626C228.833 251.394 225.776 258.844 222.46 267.052C221.78 268.735 217.343 279.051 215.557 277.912C213.77 276.774 208.214 268.157 206.455 264.046C205.35 261.462 199.377 249.154 197.453 247.012" stroke="black" stroke-width="6" stroke-linecap="round"/>
<path d="M231.885 114.707C221.956 119.966 215.046 122.093 205.351 122.093C192.084 122.093 191.063 104.972 160.447 109.839C129.831 114.707 139.016 168.042 99.4588 175.734C93.5858 177.04 75.7418 189.485 78.8036 211.95C80.998 221.829 85.3273 233.917 91.7753 240.748C96.2658 245.505 93.9901 262.131 91.3959 267.322L91.3037 267.507C85.2887 279.543 75.8538 298.422 83.9063 312.017C86.9752 317.199 91.7753 320.186 98.1939 322.229C104.612 324.271 112.388 328.262 115.543 329.583C126.882 334.333 132.486 335.487 140.036 343.672C149.443 353.868 148.504 372.744 160.447 381.452C175.02 392.079 179.297 388.057 196.166 381.452C206.095 377.565 208.258 373.352 217.597 369.199C219.845 368.2 231.848 367.621 233.926 370.22C238.815 376.335 244.132 378.389 260.46 379.41C273.727 382.543 290.216 374.79 293.118 371.241C302.926 359.247 304.403 353.782 302.36 334.709C300.38 316.212 327.609 315.491 342.77 309.975C353.674 306.008 359.453 298.877 359.453 287.511C359.453 281.135 354.791 277.393 353.015 271.173C351.652 266.4 342.77 256.703 342.77 250.428C342.77 240.509 341.001 241.614 342.77 230.329C344.332 220.367 353.015 205.41 353.015 195.612C353.015 183.988 343.679 173.261 331.898 167.021C321.838 161.692 307.405 165.092 297.2 153.747C278.83 133.325 295.159 114.707 264.542 104.734C247.193 101.671 243.002 108.817 231.885 114.707Z" stroke="black" stroke-width="6" stroke-linecap="round"/>
<path d="M67.9347 92.2747C75.1393 94.5239 76.2003 100.154 78.0852 108.866C79.5334 110.921 83.1604 107.26 88.2357 107.562C96.079 107.562 98.6807 111.249 100.416 112.658C104.604 116.057 101.708 125.318 97.3711 127.945C91.2253 131.666 85.1407 127.945 84.0246 129.983C83.103 131.666 89.8847 136.015 91.2808 137.117C96.3561 143.232 88.6375 148.395 84.0246 150.366C79.1628 152.443 72.9906 147.192 70.3332 143.897C65.9046 136.098 64.33 148.852 60.8293 152.404C57.6094 155.671 50.6789 158.519 45.8524 152.404C37.4832 141.801 59.0924 131.666 45.8524 131.666C34.1371 131.666 32.9868 118.069 39.0811 111.886C42.5585 106.543 53.3911 105.266 56.9395 108.866C58.9142 110.869 57.2371 108.862 57.2371 102.826C57.2371 98.0436 62.1248 90.4609 67.9347 92.2747Z" fill="black" stroke="black" stroke-width="6" stroke-linecap="round"/>
<path d="M399.935 192.275C407.139 194.524 408.2 200.154 410.085 208.866C411.533 210.921 415.16 207.26 420.236 207.562C428.079 207.562 430.681 211.249 432.416 212.658C436.604 216.057 433.708 225.318 429.371 227.945C423.225 231.666 417.141 227.945 416.025 229.983C415.103 231.666 421.885 236.015 423.281 237.117C428.356 243.232 420.638 248.395 416.025 250.366C411.163 252.443 404.991 247.192 402.333 243.897C397.905 236.098 396.33 248.852 392.829 252.404C389.609 255.671 382.679 258.519 377.852 252.404C369.483 241.801 391.092 231.666 377.852 231.666C366.137 231.666 364.987 218.069 371.081 211.886C374.558 206.543 385.391 205.266 388.939 208.866C390.914 210.869 389.237 208.862 389.237 202.826C389.237 198.044 394.125 190.461 399.935 192.275Z" fill="black" stroke="black" stroke-width="6" stroke-linecap="round"/>
<path d="M406.586 306.873C410.911 311.416 409.412 315.917 407.269 322.982C407.492 325.055 411.602 323.874 415.166 326.147C420.862 329.321 421.265 333.041 421.958 334.763C423.629 338.917 417.792 344.444 413.584 344.588C407.62 344.792 404.702 339.637 403.069 340.66C401.722 341.504 404.893 347.395 405.463 348.757C406.684 355.234 398.997 355.845 394.853 355.403C390.484 354.938 388.119 348.642 387.517 345.182C387.445 337.749 381.16 346.337 377.186 347.489C373.53 348.549 367.349 347.804 366.309 341.427C364.506 330.37 384.284 331.786 374.669 326.427C366.161 321.685 370.807 311.385 377.726 309.379C382.405 306.922 390.787 310.382 391.912 314.423C392.539 316.671 392.13 314.54 394.563 310.175C396.491 306.715 403.098 303.209 406.586 306.873Z" fill="black" stroke="black" stroke-width="6" stroke-linecap="round"/>
<path d="M384.699 115.388C388.458 119.696 386.948 123.614 384.767 129.774C384.898 131.634 388.657 130.832 391.805 133.072C396.851 136.244 397.089 139.581 397.657 141.156C399.027 144.956 393.556 149.524 389.742 149.397C384.339 149.217 381.874 144.45 380.362 145.262C379.113 145.932 381.782 151.37 382.251 152.617C383.134 158.459 376.157 158.537 372.422 157.892C368.485 157.213 366.559 151.463 366.133 148.346C366.322 141.722 360.34 148.989 356.704 149.774C353.36 150.496 347.792 149.457 347.069 143.716C345.815 133.761 363.665 136.221 355.147 130.866C347.61 126.127 352.166 117.237 358.496 115.87C362.815 113.966 370.281 117.556 371.162 121.222C371.652 123.262 371.355 121.34 373.706 117.6C375.569 114.636 381.668 111.915 384.699 115.388Z" fill="black" stroke="black" stroke-width="6" stroke-linecap="round"/>
<path d="M34.3925 224.118C39.5022 222.798 42.212 225.755 46.5497 230.241C48.1691 230.929 48.9707 227.413 52.0965 225.721C56.7547 222.827 59.6618 224.06 61.213 224.258C64.9559 224.735 66.6573 231.311 65.0516 234.473C62.7762 238.953 57.7878 238.985 57.8779 240.608C57.9523 241.949 63.5866 242.034 64.8228 242.174C70.0958 243.939 67.4191 249.857 65.4074 252.73C63.2872 255.759 57.6819 254.914 54.8863 253.934C49.3752 250.93 53.1515 259.096 52.3845 262.499C51.679 265.63 48.6149 269.88 43.4896 268.024C34.6022 264.806 43.6923 250.807 35.829 255.691C28.8711 260.013 23.1652 252.351 24.5005 246.425C24.592 241.965 30.5538 237.209 33.9911 238.041C35.9041 238.505 34.1664 237.929 31.9368 234.34C30.1702 231.496 30.272 225.183 34.3925 224.118Z" fill="black" stroke="black" stroke-width="6" stroke-linecap="round"/>
<path d="M55.4531 126.47C55.4531 131.885 58.5296 136.496 65.7081 134.543C71.8611 132.59 72.8866 131.613 75.6111 128.683C78.6723 125.39 80.0651 119.892 75.6111 116.474C69.8101 114.032 65.6428 114.927 61.6061 116.962C59.1136 118.219 55.4531 121.847 55.4531 126.47Z" fill="black" stroke="black" stroke-width="6" stroke-linecap="round"/>
<path d="M387.453 226.044C387.453 231.729 390.53 236.571 397.708 234.52C403.861 232.47 404.887 231.443 407.611 228.367C410.672 224.91 412.065 219.137 407.611 215.548C401.81 212.984 397.643 213.923 393.606 216.06C391.114 217.38 387.453 221.189 387.453 226.044Z" fill="black" stroke="black" stroke-width="6" stroke-linecap="round"/>
<path d="M383.876 326.817C381.599 330.903 381.87 335.616 387.852 337.018C393.097 338.009 394.245 337.682 397.436 336.562C401.021 335.304 404.335 331.712 402.571 327.348C399.429 323.181 396.057 322.187 392.299 322.106C389.978 322.056 385.821 323.327 383.876 326.817Z" fill="black" stroke="black" stroke-width="6" stroke-linecap="round"/>
<path d="M364.056 132.457C361.708 136.192 361.554 140.532 366.706 141.892C371.243 142.865 372.282 142.577 375.186 141.583C378.45 140.467 381.669 137.2 380.479 133.163C378.059 129.292 375.172 128.338 371.869 128.219C369.829 128.147 366.061 129.268 364.056 132.457Z" fill="black" stroke="black" stroke-width="6" stroke-linecap="round"/>
<path d="M40.0213 249.202C42.0578 252.481 45.6435 254.123 49.2286 250.257C52.1969 246.775 52.4463 245.8 52.9837 243.007C53.5876 239.869 52.3577 236.019 48.392 235.614C43.9825 236.304 41.8113 238.403 40.1477 241.145C39.1205 242.837 38.2821 246.402 40.0213 249.202Z" fill="black" stroke="black" stroke-width="6" stroke-linecap="round"/>
<path d="M167.453 213.279C173.41 211.696 181.044 209.303 187.403 210.193C187.773 210.244 180.848 214.905 179.936 215.451C176.806 217.325 173.335 221.097 169.553 221.509C168.99 221.57 167.171 222.79 168.853 222.424C173.207 221.476 177.346 219.686 181.686 218.651C186.238 217.567 187.403 219.223 182.153 218.937C179.777 218.808 176.484 218.956 175.328 220.995C170.37 229.739 183.451 227.046 188.453 224.595" stroke="black" stroke-width="6" stroke-linecap="round"/>
<path d="M235.453 213.279C241.126 211.696 248.397 209.303 254.453 210.193C254.805 210.244 248.21 214.905 247.342 215.451C244.36 217.325 241.054 221.097 237.453 221.509C236.917 221.57 235.185 222.79 236.786 222.424C240.933 221.476 244.875 219.686 249.009 218.651C253.343 217.567 254.453 219.223 249.453 218.937C247.19 218.808 244.054 218.956 242.953 220.995C238.231 229.739 250.69 227.046 255.453 224.595" stroke="black" stroke-width="6" stroke-linecap="round"/>
<path d="M246.453 88C246.752 88.9412 247.453 90.0486 247.453 91" stroke="black" stroke-width="6" stroke-linecap="round"/>
<path d="M260.453 85C260.372 86.3577 259.888 87.6548 259.453 89" stroke="black" stroke-width="6" stroke-linecap="round"/>
<path d="M272.453 87C272.181 88.0504 271.855 89.0051 271.453 90" stroke="black" stroke-width="6" stroke-linecap="round"/>
</g>
</svg>
