<svg width="255" height="147" viewBox="0 0 255 147" fill="none" xmlns="http://www.w3.org/2000/svg">
<path d="M8.6208 110.6L16.164 115.902L17.2831 114.192L9.53262 108.891C10.0714 107.7 10.4859 106.38 10.7346 104.995L8.6208 104.606C7.70899 109.713 4.18606 113.803 0.352293 113.803V115.837C3.62654 115.837 6.63139 113.781 8.6208 110.6ZM9.86419 120.1V114.928H7.77116V120.1H0V122.113H17.6768V120.1H9.86419Z" fill="#212325"/>
<path d="M27.9329 110.6L35.4762 115.902L36.5952 114.192L28.8448 108.891C29.3836 107.7 29.798 106.38 30.0467 104.995L27.9329 104.606C27.0211 109.713 23.4982 113.803 19.6644 113.803V115.837C22.9387 115.837 25.9435 113.781 27.9329 110.6ZM29.1763 120.1V114.928H27.0833V120.1H19.3121V122.113H36.9889V120.1H29.1763Z" fill="#212325"/>
<path d="M45.7945 104.476H43.7014V107.441H39.018V109.345H50.4986V107.441H45.7945V104.476ZM57.13 112.007H54.6432V104.519H52.5916V123H54.6432V114.063H57.13V112.007ZM44.7583 110.817C41.8778 110.817 39.8262 113.067 39.8262 116.465C39.8262 119.862 41.8778 122.113 44.7583 122.113C47.6388 122.113 49.6697 119.862 49.6697 116.465C49.6697 113.067 47.6388 110.817 44.7583 110.817ZM44.7583 120.252C43.1005 120.252 41.8156 118.823 41.8156 116.465C41.8156 114.106 43.1005 112.678 44.7583 112.678C46.3954 112.678 47.6803 114.106 47.6803 116.465C47.6803 118.823 46.3954 120.252 44.7583 120.252Z" fill="#212325"/>
<path d="M72.4011 104.519V123H74.4527V104.519H72.4011ZM65.5003 107.159H70.0387V105.19H58.7446V107.159H63.428C63.3451 114.019 61.4801 119.17 58.3302 119.776V121.896C61.0034 121.572 63.1172 119.278 64.3399 115.404L69.1062 121.745L70.7226 120.468L64.9408 113.002C65.2724 111.271 65.4796 109.302 65.5003 107.159Z" fill="#212325"/>
<path d="M93.2675 108.912V104.519H91.2159V118.239H93.2675V110.968H95.7543V108.912H93.2675ZM88.2111 104.974H77.8703V114.95H88.2111V104.974ZM86.1802 113.089H79.9011V106.835H86.1802V113.089ZM80.5435 116.768H78.4712V122.762H93.7441V120.814H80.5435V116.768Z" fill="#212325"/>
<path d="M113.642 105.883H108.71V104H106.596V105.883H101.809V107.484H113.642V105.883ZM120.253 109.453H117.808V104.519H115.756V117.2H117.808V111.444H120.253V109.453ZM114.285 116.097V114.431C113.186 114.928 111.031 115.145 108.689 115.166V113.846C111.259 113.651 112.793 112.634 112.793 111.098C112.793 109.388 110.865 108.306 107.695 108.306C104.524 108.306 102.597 109.388 102.597 111.098C102.597 112.634 104.11 113.63 106.659 113.846V115.166H101.747V116.811H108.399C110.907 116.811 113.166 116.595 114.285 116.097ZM104.524 111.098C104.524 110.384 105.581 109.864 107.695 109.864C109.788 109.864 110.845 110.384 110.845 111.098C110.845 111.834 109.788 112.375 107.695 112.375C105.581 112.375 104.524 111.834 104.524 111.098ZM102.887 119.862H115.756V123H117.808V118.196H102.887V119.862Z" fill="#212325"/>
<path d="M137.576 104.519H135.524V113.565H137.576V104.519ZM127.297 109.843L132.809 113.089L133.804 111.466L128.188 108.241C128.623 107.203 128.851 106.034 128.851 104.822L126.8 104.692C126.779 108.047 124.686 110.86 121.329 111.487V113.392C123.898 113.046 125.971 111.726 127.297 109.843ZM124.624 121.074V119.473H137.576V114.582H122.551V116.27H135.545V117.871H122.593V122.762H138.011V121.074H124.624Z" fill="#212325"/>
<path d="M152.329 106.272H147.355V104.195H145.283V106.272H140.309V108.025H152.329V106.272ZM156.39 109.583V104.519H154.339V118.369H156.39V111.639H158.877V109.583H156.39ZM146.319 116.638C149.262 116.638 151.541 115.274 151.541 112.851C151.541 110.427 149.262 109.064 146.319 109.064C143.376 109.064 141.076 110.427 141.076 112.851C141.076 115.274 143.376 116.638 146.319 116.638ZM146.319 110.708C148.308 110.708 149.572 111.617 149.572 112.851C149.572 114.106 148.308 114.993 146.319 114.993C144.33 114.993 143.065 114.106 143.065 112.851C143.065 111.617 144.33 110.708 146.319 110.708ZM143.666 117.698H141.594V122.762H156.867V120.858H143.666V117.698Z" fill="#212325"/>
<path d="M179.48 114.907H181.531V104.519H179.48V107.527H175.211V109.432H179.48V114.907ZM170.797 110.535L175.853 114.171L176.993 112.656L171.605 108.804C172.04 107.592 172.268 106.251 172.268 104.822L170.217 104.692C170.175 108.631 168.227 111.942 164.911 112.591V114.539C167.502 114.171 169.533 112.678 170.797 110.535ZM174.03 115.513C169.74 115.513 166.383 116.551 166.383 119.256C166.383 121.961 169.74 123 174.03 123C178.319 123 181.676 121.961 181.676 119.256C181.676 116.551 178.319 115.513 174.03 115.513ZM174.03 121.247C170.983 121.247 168.559 120.62 168.559 119.256C168.559 117.893 170.983 117.265 174.03 117.265C177.076 117.265 179.5 117.893 179.5 119.256C179.5 120.62 177.076 121.247 174.03 121.247Z" fill="#212325"/>
<path d="M190.295 111.531L195.601 114.69L196.512 113.024L191.124 109.886C191.311 109.388 191.414 108.869 191.477 108.328H195.911V106.467H191.456V104.173H189.363V106.467H184.887V108.328H189.384C189.011 110.665 187.208 112.44 184.534 112.829V114.755C187.083 114.452 189.094 113.262 190.295 111.531ZM198.709 104.519V123H200.761V104.519H198.709ZM184.182 116.4V118.282H189.28V123H191.332V118.282H191.373C193.818 118.282 195.932 118.066 197.217 117.59V115.729C195.953 116.205 193.798 116.4 191.414 116.4H184.182Z" fill="#212325"/>
<path d="M222 108.306H219.513V104.519H217.462V114.56H219.513V110.362H222V108.306ZM214.146 106.986V104.974H203.95V106.792H212.074V107.354C212.074 110.665 208.944 112.158 203.95 112.18V114.041C210.084 114.041 214.146 112.028 214.146 106.986ZM204.717 122.762H219.513V115.577H204.717V122.762ZM206.769 117.395H217.462V120.944H206.769V117.395Z" fill="#212325"/>
<line y1="-1.5" x2="21.2132" y2="-1.5" transform="matrix(0.162679 0.986679 0.986679 -0.162679 43.7852 20.3755)" stroke="#53ACFF" stroke-width="3"/>
<line y1="-1.5" x2="21.2132" y2="-1.5" transform="matrix(0.978685 -0.205368 -0.205368 -0.978685 35 32.1641)" stroke="#53ACFF" stroke-width="3"/>
<line y1="-1.5" x2="30" y2="-1.5" transform="matrix(0.582656 -0.812719 -0.812719 -0.582656 36.1582 41.439)" stroke="#53ACFF" stroke-width="3"/>
<line y1="-1.5" x2="33.7187" y2="-1.5" transform="matrix(0.162679 0.986679 0.986679 -0.162679 234.964 109.274)" stroke="#FF46F8" stroke-width="3"/>
<line y1="-1.5" x2="33.7187" y2="-1.5" transform="matrix(0.978685 -0.205368 -0.205368 -0.978685 221 128.012)" stroke="#FF46F8" stroke-width="3"/>
<line y1="-1.5" x2="47.6855" y2="-1.5" transform="matrix(0.582656 -0.812719 -0.812719 -0.582656 223.842 142.755)" stroke="#FF46F8" stroke-width="3"/>
<circle cx="70.6562" cy="6" r="4" fill="#5CC4FF"/>
<circle cx="207.5" cy="141.5" r="5.5" fill="#FF6B6B"/>
<circle cx="72.1562" cy="3.5" r="3" stroke="black"/>
<circle cx="209.5" cy="137.5" r="5" stroke="black"/>
<path d="M88.55 49.69H70V39.16H72.46C72.74 40.48 74.39 42.84 75.81 42.7L76.47 41.9C75.6062 41.7033 74.8322 41.2254 74.2693 40.5413C73.7064 39.8571 73.3866 39.0055 73.36 38.12V36H85.36V39.16H88.52L88.55 49.69ZM70 63.89C70 55.02 73.17 50.54 79.26 50.54C85.35 50.54 88.55 55.02 88.55 63.89C88.55 72.76 85.39 77.15 79.26 77.15C73.13 77.15 70 72.67 70 63.89ZM75.43 62.29L74.58 63.56C77.474 64.7199 80.573 65.2813 83.69 65.21V63.8C80.8675 63.8058 78.0679 63.294 75.43 62.29ZM99.43 76.49H89.56V37.75H99.43V51.75H100.65V37.75H110.52V76.52H100.65V62.22H99.43V76.49Z" fill="black"/>
<path d="M113.9 37.7499H124.9V45.2499C124.9 46.4299 125.75 46.9 127.07 46.9C128.364 46.9005 129.651 46.7119 130.89 46.34V37.7499H141.69V42.52H143.11V37.71H153.91V57.52H143.11V52.09H141.69V57.52H130.89V55.8699C128.265 56.9864 125.443 57.5645 122.59 57.5699C116.45 57.5699 113.9 55.57 113.9 50.4V37.7499ZM113.9 58.7499H153.9V76.52H123.44C117.07 76.52 113.9 73.88 113.9 68.41V58.7499ZM127.68 66.35C131.752 68.0569 136.164 68.7995 140.57 68.52V67.15C136.372 67.399 132.172 66.6734 128.3 65.03L127.68 66.35Z" fill="black"/>
<path d="M68.1602 29.9999V15.9999H73.8402C74.8668 15.9999 75.8335 16.1865 76.7402 16.5599C77.6468 16.9199 78.4268 17.4132 79.0802 18.0399C79.7468 18.6665 80.2735 19.4132 80.6602 20.2799C81.0468 21.1332 81.2402 22.0532 81.2402 23.0399C81.2402 23.9999 81.0468 24.9066 80.6602 25.7599C80.2735 26.6132 79.7468 27.3532 79.0802 27.9799C78.4268 28.6066 77.6468 29.0999 76.7402 29.4599C75.8335 29.8199 74.8668 29.9999 73.8402 29.9999H68.1602ZM73.7602 19.0399H71.6002V26.9599H73.7602C74.3068 26.9599 74.8202 26.8599 75.3002 26.6599C75.7802 26.4599 76.1935 26.1866 76.5402 25.8399C76.9002 25.4799 77.1802 25.0599 77.3802 24.5799C77.5802 24.0999 77.6802 23.5865 77.6802 23.0399C77.6802 22.4799 77.5802 21.9599 77.3802 21.4799C77.1802 20.9865 76.9002 20.5599 76.5402 20.1999C76.1935 19.8399 75.7802 19.5599 75.3002 19.3599C74.8202 19.1465 74.3068 19.0399 73.7602 19.0399Z" fill="black"/>
<path d="M81.8225 24.7199C81.8225 23.9599 81.9692 23.2466 82.2625 22.5799C82.5692 21.8999 82.9758 21.3132 83.4825 20.8199C84.0025 20.3266 84.6092 19.9399 85.3025 19.6599C86.0092 19.3665 86.7625 19.2199 87.5625 19.2199C88.3625 19.2199 89.1092 19.3665 89.8025 19.6599C90.5092 19.9399 91.1158 20.3266 91.6225 20.8199C92.1425 21.3132 92.5492 21.8999 92.8425 22.5799C93.1492 23.2466 93.3025 23.9599 93.3025 24.7199C93.3025 25.4799 93.1492 26.1999 92.8425 26.8799C92.5492 27.5465 92.1425 28.1265 91.6225 28.6199C91.1158 29.1132 90.5092 29.4999 89.8025 29.7799C89.1092 30.0599 88.3625 30.1999 87.5625 30.1999C86.7625 30.1999 86.0092 30.0599 85.3025 29.7799C84.6092 29.4999 84.0025 29.1132 83.4825 28.6199C82.9758 28.1265 82.5692 27.5465 82.2625 26.8799C81.9692 26.1999 81.8225 25.4799 81.8225 24.7199ZM87.5625 27.3999C88.2825 27.3999 88.8892 27.1399 89.3825 26.6199C89.8892 26.0999 90.1425 25.4665 90.1425 24.7199C90.1425 23.9599 89.8892 23.3199 89.3825 22.7999C88.8892 22.2799 88.2825 22.0199 87.5625 22.0199C86.8425 22.0199 86.2292 22.2799 85.7225 22.7999C85.2292 23.3199 84.9825 23.9599 84.9825 24.7199C84.9825 25.4665 85.2292 26.0999 85.7225 26.6199C86.2292 27.1399 86.8425 27.3999 87.5625 27.3999Z" fill="black"/>
<path d="M94.222 29.9999V19.4199H97.462V20.1399C97.8487 19.8465 98.282 19.6199 98.762 19.4599C99.2554 19.2999 99.7687 19.2199 100.302 19.2199C101.542 19.2199 102.555 19.6199 103.342 20.4199C104.129 21.2199 104.522 22.2399 104.522 23.4799V29.9999H101.282V23.9199C101.282 23.3466 101.102 22.8865 100.742 22.5399C100.395 22.1799 99.9354 21.9999 99.362 21.9999C98.9487 21.9999 98.582 22.0732 98.262 22.2199C97.942 22.3665 97.6754 22.5732 97.462 22.8399V29.9999H94.222Z" fill="black"/>
<path d="M115.549 28.5999C114.882 29.1599 114.195 29.5666 113.489 29.8199C112.795 30.0732 112.009 30.1999 111.129 30.1999C110.329 30.1999 109.575 30.0599 108.869 29.7799C108.162 29.4999 107.549 29.1132 107.029 28.6199C106.522 28.1265 106.115 27.5465 105.809 26.8799C105.515 26.1999 105.369 25.4799 105.369 24.7199C105.369 23.9599 105.509 23.2466 105.789 22.5799C106.082 21.8999 106.475 21.3132 106.969 20.8199C107.462 20.3266 108.042 19.9399 108.709 19.6599C109.389 19.3799 110.115 19.2399 110.889 19.2399C111.662 19.2399 112.375 19.3865 113.029 19.6799C113.682 19.9732 114.242 20.3732 114.709 20.8799C115.189 21.3865 115.562 21.9999 115.829 22.7199C116.095 23.4265 116.229 24.1932 116.229 25.0199V25.8199H108.689C108.902 26.3132 109.235 26.7199 109.689 27.0399C110.142 27.3466 110.675 27.4999 111.289 27.4999C111.729 27.4999 112.129 27.4332 112.489 27.2999C112.849 27.1532 113.155 26.9532 113.409 26.6999L115.549 28.5999ZM110.829 21.8799C110.295 21.8799 109.835 22.0265 109.449 22.3199C109.062 22.6132 108.789 23.0266 108.629 23.5599H113.049C112.875 23.0532 112.589 22.6466 112.189 22.3399C111.802 22.0332 111.349 21.8799 110.829 21.8799Z" fill="black"/>
<path d="M120.609 29.9999V15.9999H124.049V26.9599H131.429V29.9999H120.609Z" fill="black"/>
<path d="M134.204 18.4399C133.71 18.4399 133.29 18.2665 132.944 17.9199C132.597 17.5732 132.424 17.1532 132.424 16.6599C132.424 16.1665 132.597 15.7465 132.944 15.3999C133.29 15.0532 133.71 14.8799 134.204 14.8799C134.697 14.8799 135.117 15.0532 135.464 15.3999C135.81 15.7465 135.984 16.1665 135.984 16.6599C135.984 17.1532 135.81 17.5732 135.464 17.9199C135.117 18.2665 134.697 18.4399 134.204 18.4399ZM135.824 19.4199V29.9999H132.584V19.4199H135.824Z" fill="black"/>
<path d="M136.398 28.8199L137.938 26.6399C138.605 27.0399 139.211 27.3332 139.758 27.5199C140.305 27.6932 140.845 27.7799 141.378 27.7799C141.911 27.7799 142.331 27.7065 142.638 27.5599C142.958 27.3999 143.118 27.1932 143.118 26.9399C143.118 26.7399 143.031 26.5799 142.858 26.4599C142.685 26.3265 142.411 26.2332 142.038 26.1799L139.938 25.8599C138.898 25.6999 138.098 25.3532 137.538 24.8199C136.978 24.2732 136.698 23.5666 136.698 22.6999C136.698 21.6332 137.105 20.7932 137.918 20.1799C138.731 19.5666 139.845 19.2599 141.258 19.2599C142.018 19.2599 142.778 19.3732 143.538 19.5999C144.311 19.8132 145.025 20.1265 145.678 20.5399L144.138 22.6199C143.565 22.2865 143.018 22.0465 142.498 21.8999C141.978 21.7399 141.458 21.6599 140.938 21.6599C140.525 21.6599 140.191 21.7332 139.938 21.8799C139.685 22.0132 139.558 22.1932 139.558 22.4199C139.558 22.6332 139.651 22.8066 139.838 22.9399C140.025 23.0599 140.345 23.1532 140.798 23.2199L142.898 23.5399C143.938 23.6865 144.738 24.0332 145.298 24.5799C145.871 25.1132 146.158 25.7932 146.158 26.6199C146.158 27.1265 146.038 27.5999 145.798 28.0399C145.558 28.4799 145.225 28.8599 144.798 29.1799C144.385 29.4999 143.885 29.7532 143.298 29.9399C142.711 30.1132 142.078 30.1999 141.398 30.1999C140.398 30.1999 139.465 30.0866 138.598 29.8599C137.745 29.6199 137.011 29.2732 136.398 28.8199Z" fill="black"/>
<path d="M148.099 26.7799V22.1199H145.959V19.4199H148.099V16.6999L151.339 15.9999V19.4199H154.299V22.1199H151.339V26.1399C151.339 26.6065 151.439 26.9399 151.639 27.1399C151.852 27.3265 152.219 27.4199 152.739 27.4199C152.992 27.4199 153.232 27.4065 153.459 27.3799C153.685 27.3399 153.932 27.2799 154.199 27.1999V29.8199C153.905 29.9132 153.532 29.9866 153.079 30.0399C152.625 30.1066 152.245 30.1399 151.939 30.1399C150.672 30.1399 149.712 29.8599 149.059 29.2999C148.419 28.7265 148.099 27.8865 148.099 26.7799Z" fill="black"/>
</svg>
