<svg width="450" height="450" viewBox="0 0 450 450" fill="none" xmlns="http://www.w3.org/2000/svg">
<g opacity="0.3">
<path d="M251.813 343.061C252.258 351.677 252.298 360.314 251.894 368.92C251.712 372.937 251.408 377.414 251.054 381.156C250.973 382.002 250.903 382.869 250.771 383.705C250.7 384.123 250.589 384.511 250.488 384.919C250.387 385.326 250.549 384.704 250.579 384.653C250.781 384.337 251.125 384.164 250.69 384.49C251.176 384.123 251.773 383.848 252.248 383.532C252.723 383.216 252.491 383.46 252.187 383.532C251.287 383.715 252.855 383.532 251.934 383.532C251.014 383.532 249.831 383.532 248.789 383.532L233.902 383.583C231.545 383.583 228.551 385.021 228.066 387.611C227.961 388.16 227.982 388.727 228.126 389.268C228.27 389.808 228.534 390.309 228.899 390.731C229.263 391.154 229.718 391.487 230.229 391.706C230.74 391.925 231.294 392.024 231.849 391.995L246.23 391.944C248.506 391.944 250.984 392.158 253.219 391.597C254.791 391.253 256.246 390.502 257.443 389.418C258.64 388.335 259.537 386.957 260.046 385.418C260.575 383.286 260.863 381.1 260.905 378.903C261.128 376.567 261.3 374.232 261.451 371.897C261.761 367.139 261.94 362.38 261.987 357.622C262.041 352.183 261.923 346.745 261.633 341.307C261.502 338.799 258.65 337.626 256.475 338.105C254.301 338.585 251.671 340.471 251.813 343.112V343.061Z" fill="black"/>
<path d="M200.581 345.528C201.255 355.648 201.014 365.804 199.861 375.885C199.559 378.451 199.204 380.997 198.818 383.544C198.704 384.456 198.526 385.359 198.286 386.249C198.211 386.495 198.12 386.736 198.014 386.972C198.409 386.284 198.957 385.686 199.62 385.221C200.283 384.755 201.046 384.433 201.854 384.277C201.656 384.277 200.55 384.465 200.748 384.445C195.354 384.881 189.917 385.06 184.522 385.367C183.293 385.47 182.097 385.802 181.003 386.345C179.909 386.887 178.938 387.629 178.146 388.527C177.416 389.369 175.872 392.134 178.365 391.995L192.557 391.183C195.364 391.024 197.983 390.925 200.581 389.776C202.067 389.167 203.407 388.277 204.518 387.16C205.629 386.042 206.487 384.72 207.04 383.276C207.598 381.134 207.986 378.955 208.199 376.757C208.533 374.531 208.818 372.295 209.054 370.049C209.534 365.571 209.83 361.076 209.941 356.565C210.08 351.413 209.973 346.268 209.618 341.129C209.482 339.088 206.018 340.336 205.016 340.852C203.451 341.644 200.466 343.487 200.602 345.528H200.581Z" fill="black"/>
<path d="M383.69 216.389C375.541 232.5 361.162 242.94 341.864 246.757C340.446 247.029 343.218 254.333 344.573 254.069C364.09 250.154 378.607 239.523 386.796 223.146C387.075 221.831 386.722 220.112 385.799 218.28C385.4 217.415 384.218 215.352 383.719 216.361L383.69 216.389Z" fill="black"/>
<path d="M129.238 252.997C111.666 248.85 98.1478 237.317 89.9149 219.451C89.318 218.136 82.8668 222.542 83.4418 223.798C91.82 241.854 105.557 253.476 123.396 257.6C124.74 257.563 126.329 256.817 127.893 255.49C128.64 254.9 130.369 253.267 129.272 253.018L129.238 252.997Z" fill="black"/>
<path d="M344.569 178.72C351.359 193.347 335.866 213.386 336.557 228.579C337.258 244.327 354.243 262.901 348.995 277.519C343.748 292.136 318.881 295.417 308.336 307.057C298.171 318.282 297.32 343.671 282.809 350.525C268.298 357.38 248.419 341.753 233.347 342.449C217.734 343.156 199.298 360.277 184.796 354.987C170.295 349.698 167.041 324.632 155.494 314.002C144.358 303.755 119.171 302.897 112.431 288.27C105.691 273.642 121.124 253.604 120.443 238.411C119.742 222.663 102.757 204.088 108.005 189.471C113.252 174.854 138.118 171.573 148.664 159.933C158.829 148.708 159.68 123.319 174.191 116.475C188.702 109.63 208.581 125.237 223.653 124.551C239.276 123.844 257.703 106.723 272.204 112.013C286.705 117.302 289.96 142.368 301.506 152.998C312.582 163.234 337.769 164.092 344.569 178.72Z" fill="black"/>
<path d="M242.754 208.639C243.144 209.105 244.155 212.395 245.425 211.831C247.792 210.778 248.507 207.056 247.333 204.99C244.387 199.808 243.187 207.273 242.83 208.095" stroke="black" stroke-width="6" stroke-linecap="round"/>
<path d="M203.293 208.639C203.683 209.105 204.694 212.395 205.964 211.831C208.331 210.778 209.047 207.056 207.872 204.99C204.926 199.808 203.726 207.273 203.369 208.095" stroke="black" stroke-width="6" stroke-linecap="round"/>
<path d="M240.229 121.312C231.608 125.886 225.607 127.736 217.189 127.736C205.669 127.736 204.783 112.845 178.198 117.079C151.612 121.312 159.588 167.699 125.24 174.389C120.14 175.524 104.646 186.348 107.304 205.886C109.21 214.478 112.969 224.991 118.568 230.932C122.467 235.069 120.491 249.53 118.239 254.045L118.159 254.205C112.936 264.673 104.743 281.092 111.735 292.917C114.4 297.423 118.568 300.021 124.141 301.797C129.715 303.573 136.467 307.045 139.206 308.194C149.052 312.325 153.918 313.329 160.474 320.447C168.642 329.315 167.827 345.731 178.198 353.305C190.852 362.548 194.566 359.05 209.213 353.305C217.835 349.924 219.713 346.261 227.823 342.649C229.774 341.78 240.197 341.276 242.002 343.537C246.247 348.855 250.863 350.641 265.042 351.529C276.562 354.254 290.879 347.511 293.399 344.425C301.916 333.993 303.198 329.24 301.425 312.652C299.705 296.564 323.349 295.938 336.514 291.14C345.981 287.69 351 281.488 351 271.603C351 266.058 346.952 262.803 345.409 257.394C344.226 253.242 336.514 244.809 336.514 239.352C336.514 230.724 334.977 231.685 336.514 221.871C337.87 213.207 345.409 200.198 345.409 191.677C345.409 181.567 337.303 172.238 327.073 166.811C318.338 162.176 305.805 165.133 296.944 155.266C280.993 137.504 295.171 121.312 268.586 112.638C253.522 109.974 249.882 116.19 240.229 121.312Z" stroke="black" stroke-width="6" stroke-linecap="round"/>
<path d="M68.3988 176.313C73.3358 177.813 71.0626 184.867 73.3358 183.596C76.2504 183.596 85.1132 183.379 85.1132 185.711C85.1132 186.78 84.5757 191.208 85.8865 190.468C87.8637 189.353 89.2764 190.726 91.4778 190.968C96.0881 191.473 90.8669 196.385 93.5597 199.044C94.9137 200.381 97.5039 198.804 98.7941 200.806C100.98 204.198 99.8853 212.215 97.9613 215.608C97.0043 217.295 96.178 219.028 94.8683 220.483C94.2836 221.132 95.094 223.009 94.214 223.009C94.1675 223.009 89.7661 223.086 89.1044 223.015C89.7122 223.293 93.3725 225.492 93.5121 225.657C94.3668 226.67 93.1655 227.965 92.9054 229.176C91.5489 235.491 87.9805 236.571 81.9607 236.459C79.988 236.423 78.1386 236.203 76.2504 235.637C75.7995 235.502 75.2751 234.779 74.9418 235.108C74.8082 235.24 74.8385 236.82 74.8229 236.929C74.513 239.102 73.9018 241.23 73.0979 243.273C71.1844 248.137 67.9176 251.367 63.9674 254.668C61.093 257.07 52.9775 255.49 49.4241 255.49C43.7898 255.49 43.7443 252.805 40.3829 248.882C38.5786 246.777 38.2836 246.902 36.2786 248.736C34.0595 250.765 31.399 251.79 28.3675 251.79C25.9366 251.79 25.2768 250.644 24.3525 248.53C23.8461 247.372 22.5891 239.985 21.6461 239.719C21.1599 239.582 20.5754 240.818 20.2185 241.1C19.7631 241.459 18.313 241.237 17.7798 241.217C11.8701 240.993 17.5087 231.325 16.3819 227.431C16.0714 226.357 10.9486 224.735 10.285 222.186C9.681 219.867 10.1213 216.81 10.8204 214.55C11.5613 212.156 14.1905 211.092 16.3819 210.527C16.8793 210.399 21.0442 208.48 20.0401 207.913C19.226 207.454 17.7798 205.228 17.7798 204.376C17.7798 201.795 17.9884 200.562 18.9798 198.168C20.8283 193.706 24.0674 194.139 28.3378 192.318C29.1731 191.962 33.9946 190.674 33.3045 189.822C33.1521 189.634 32.6645 188.594 32.6502 188.354C32.5252 186.255 34.509 184.552 35.8623 183.067C37.1694 181.633 39.2263 180.434 41.4293 180.434C46.1599 180.434 48.6131 178.66 55.1046 183.302C56.6336 183.963 56.3975 183.162 56.6949 182.207C57.1779 180.657 59.0346 178.687 60.1606 177.575C61.727 176.029 66.2156 175.649 68.3988 176.313Z" fill="black"/>
<path d="M73.3358 183.596C71.0626 184.867 73.3358 177.813 68.3988 176.313C66.2156 175.649 61.727 176.029 60.1606 177.575C59.0346 178.687 57.1779 180.657 56.6949 182.207C56.3975 183.162 56.6336 183.963 55.1046 183.302C48.6131 178.66 46.1599 180.434 41.4293 180.434C39.2263 180.434 37.1694 181.633 35.8623 183.067C34.509 184.552 32.5252 186.255 32.6502 188.354C32.6645 188.594 33.1521 189.634 33.3045 189.822C33.9946 190.674 29.1731 191.962 28.3378 192.318C24.0674 194.139 20.8283 193.706 18.9798 198.168C17.9884 200.562 17.7798 201.795 17.7798 204.376C17.7798 205.228 19.226 207.454 20.0401 207.913C21.0442 208.48 16.8793 210.399 16.3819 210.527C14.1905 211.092 11.5613 212.156 10.8204 214.55C10.1213 216.81 9.681 219.867 10.285 222.186C10.9486 224.735 16.0714 226.357 16.3819 227.431C17.5087 231.325 11.8701 240.993 17.7798 241.217C18.313 241.237 19.7631 241.459 20.2185 241.1C20.5754 240.818 21.1599 239.582 21.6461 239.719C22.5891 239.985 23.8461 247.372 24.3525 248.53C25.2768 250.644 25.9366 251.79 28.3675 251.79C31.399 251.79 34.0595 250.765 36.2786 248.736C38.2836 246.902 38.5786 246.777 40.3829 248.882C43.7443 252.805 43.7898 255.49 49.4241 255.49C52.9775 255.49 61.093 257.07 63.9674 254.668C67.9176 251.367 71.1844 248.137 73.0979 243.273C73.9018 241.23 74.513 239.102 74.8229 236.929C74.8385 236.82 74.8082 235.24 74.9418 235.108C75.2751 234.779 75.7995 235.502 76.2504 235.637C78.1386 236.203 79.988 236.423 81.9607 236.459C87.9805 236.571 91.5489 235.491 92.9054 229.176C93.1655 227.965 94.3668 226.67 93.5121 225.657C93.3575 225.474 88.8883 222.799 89.0222 222.997C89.0902 223.098 94.1641 223.009 94.214 223.009C95.094 223.009 94.2836 221.132 94.8683 220.483C96.178 219.028 97.0043 217.295 97.9613 215.608C99.8853 212.215 100.98 204.198 98.7941 200.806C97.5039 198.804 94.9137 200.381 93.5597 199.044C90.8669 196.385 96.0881 191.473 91.4778 190.968C89.2764 190.726 87.8637 189.353 85.8865 190.468C84.5757 191.208 85.1132 186.78 85.1132 185.711C85.1132 183.379 76.2504 183.596 73.3358 183.596Z" stroke="black" stroke-width="6" stroke-linecap="round"/>
<path d="M381.601 182.313C376.664 183.813 378.937 190.867 376.664 189.596C373.75 189.596 364.887 189.379 364.887 191.711C364.887 192.78 365.424 197.208 364.114 196.468C362.136 195.353 360.724 196.726 358.522 196.968C353.912 197.473 359.133 202.385 356.44 205.044C355.086 206.381 352.496 204.804 351.206 206.806C349.02 210.198 350.115 218.215 352.039 221.608C352.996 223.295 353.822 225.028 355.132 226.483C355.716 227.132 354.906 229.009 355.786 229.009C355.832 229.009 360.234 229.086 360.896 229.015C360.288 229.293 356.628 231.492 356.488 231.657C355.633 232.67 356.834 233.965 357.095 235.176C358.451 241.491 362.02 242.571 368.039 242.459C370.012 242.423 371.861 242.203 373.75 241.637C374.201 241.502 374.725 240.779 375.058 241.108C375.192 241.24 375.161 242.82 375.177 242.929C375.487 245.102 376.098 247.23 376.902 249.273C378.816 254.137 382.082 257.367 386.033 260.668C388.907 263.07 397.023 261.49 400.576 261.49C406.21 261.49 406.256 258.805 409.617 254.882C411.421 252.777 411.716 252.902 413.721 254.736C415.94 256.765 418.601 257.79 421.632 257.79C424.063 257.79 424.723 256.644 425.647 254.53C426.154 253.372 427.411 245.985 428.354 245.719C428.84 245.582 429.425 246.818 429.781 247.1C430.237 247.459 431.687 247.237 432.22 247.217C438.13 246.993 432.491 237.325 433.618 233.431C433.929 232.357 439.051 230.735 439.715 228.186C440.319 225.867 439.879 222.81 439.18 220.55C438.439 218.156 435.809 217.092 433.618 216.527C433.121 216.399 428.956 214.48 429.96 213.913C430.774 213.454 432.22 211.228 432.22 210.376C432.22 207.795 432.012 206.562 431.02 204.168C429.172 199.706 425.933 200.139 421.662 198.318C420.827 197.962 416.005 196.674 416.695 195.822C416.848 195.634 417.335 194.594 417.35 194.354C417.475 192.255 415.491 190.552 414.138 189.067C412.831 187.633 410.774 186.434 408.571 186.434C403.84 186.434 401.387 184.66 394.895 189.302C393.366 189.963 393.602 189.162 393.305 188.207C392.822 186.657 390.965 184.687 389.839 183.575C388.273 182.029 383.784 181.649 381.601 182.313Z" fill="black"/>
<path d="M376.664 189.596C378.937 190.867 376.664 183.813 381.601 182.313C383.784 181.649 388.273 182.029 389.839 183.575C390.965 184.687 392.822 186.657 393.305 188.207C393.602 189.162 393.366 189.963 394.895 189.302C401.387 184.66 403.84 186.434 408.571 186.434C410.774 186.434 412.831 187.633 414.138 189.067C415.491 190.552 417.475 192.255 417.35 194.354C417.335 194.594 416.848 195.634 416.695 195.822C416.005 196.674 420.827 197.962 421.662 198.318C425.933 200.139 429.172 199.706 431.02 204.168C432.012 206.562 432.22 207.795 432.22 210.376C432.22 211.228 430.774 213.454 429.96 213.913C428.956 214.48 433.121 216.399 433.618 216.527C435.809 217.092 438.439 218.156 439.18 220.55C439.879 222.81 440.319 225.867 439.715 228.186C439.051 230.735 433.929 232.357 433.618 233.431C432.491 237.325 438.13 246.993 432.22 247.217C431.687 247.237 430.237 247.459 429.781 247.1C429.425 246.818 428.84 245.582 428.354 245.719C427.411 245.985 426.154 253.372 425.647 254.53C424.723 256.644 424.063 257.79 421.632 257.79C418.601 257.79 415.94 256.765 413.721 254.736C411.716 252.902 411.421 252.777 409.617 254.882C406.256 258.805 406.21 261.49 400.576 261.49C397.023 261.49 388.907 263.07 386.033 260.668C382.082 257.367 378.816 254.137 376.902 249.273C376.098 247.23 375.487 245.102 375.177 242.929C375.161 242.82 375.192 241.24 375.058 241.108C374.725 240.779 374.201 241.502 373.75 241.637C371.861 242.203 370.012 242.423 368.039 242.459C362.02 242.571 358.451 241.491 357.095 235.176C356.834 233.965 355.633 232.67 356.488 231.657C356.642 231.474 361.112 228.799 360.978 228.997C360.91 229.098 355.836 229.009 355.786 229.009C354.906 229.009 355.716 227.132 355.132 226.483C353.822 225.028 352.996 223.295 352.039 221.608C350.115 218.215 349.02 210.198 351.206 206.806C352.496 204.804 355.086 206.381 356.44 205.044C359.133 202.385 353.912 197.473 358.522 196.968C360.724 196.726 362.136 195.353 364.114 196.468C365.424 197.208 364.887 192.78 364.887 191.711C364.887 189.379 373.75 189.596 376.664 189.596Z" stroke="black" stroke-width="6" stroke-linecap="round"/>
<path d="M201 241.439C205.741 247.732 212.402 256.816 217.791 261.343C217.951 261.478 218.589 262 218.802 262C219.458 262 220.208 261.496 220.792 261.186C222.716 260.165 224.668 259.242 226.59 258.216C233.659 254.445 240.371 249.459 247.114 244.78C250.662 242.318 261.544 234.689 265 232" stroke="black" stroke-width="6" stroke-linecap="round"/>
<path d="M69 141C68.3627 135.426 67 129.627 67 124" stroke="black" stroke-width="6" stroke-linecap="round"/>
<path d="M45 148C43.9498 143.298 41.0444 139.472 40 135" stroke="black" stroke-width="6" stroke-linecap="round"/>
<path d="M26 157C21.2788 155.226 16.9006 153.125 12 152" stroke="black" stroke-width="6" stroke-linecap="round"/>
<path d="M385 164C383.997 161.085 383.325 153.703 382 151" stroke="black" stroke-width="6" stroke-linecap="round"/>
<path d="M405 164C405.44 162.839 409.819 151.128 411 148" stroke="black" stroke-width="6" stroke-linecap="round"/>
<path d="M421 176C424.304 173.319 429.484 169.166 434 165" stroke="black" stroke-width="6" stroke-linecap="round"/>
</g>
</svg>
