<svg width="356" height="325" viewBox="0 0 356 325" fill="none" xmlns="http://www.w3.org/2000/svg">
<path d="M168.315 269.717C168.825 279.45 168.872 289.206 168.408 298.928C168.199 303.466 167.851 308.523 167.445 312.75C167.352 313.706 167.271 314.685 167.12 315.63C167.039 316.102 166.911 316.54 166.795 317.001C166.679 317.461 166.865 316.759 166.9 316.701C167.132 316.344 167.526 316.148 167.027 316.517C167.584 316.102 168.269 315.791 168.814 315.434C169.359 315.077 169.092 315.353 168.744 315.434C167.712 315.641 169.51 315.434 168.454 315.434C167.398 315.434 166.041 315.434 164.846 315.434L147.77 315.492C145.066 315.492 141.633 317.116 141.076 320.041C140.955 320.663 140.979 321.303 141.144 321.913C141.31 322.524 141.613 323.089 142.031 323.567C142.449 324.044 142.971 324.42 143.557 324.668C144.143 324.915 144.778 325.027 145.414 324.995L161.911 324.937C164.521 324.937 167.364 325.179 169.927 324.545C171.73 324.156 173.4 323.308 174.773 322.084C176.146 320.86 177.175 319.303 177.758 317.565C178.365 315.156 178.696 312.687 178.744 310.205C178.999 307.567 179.197 304.929 179.371 302.291C179.726 296.916 179.931 291.541 179.985 286.165C180.047 280.022 179.912 273.879 179.58 267.736C179.429 264.902 176.157 263.578 173.663 264.119C171.169 264.66 168.152 266.791 168.315 269.774V269.717Z" fill="black"/>
<path d="M110.44 272.272C111.195 283.754 110.925 295.278 109.632 306.716C109.293 309.627 108.895 312.516 108.462 315.405C108.335 316.44 108.135 317.465 107.866 318.474C107.782 318.754 107.68 319.028 107.561 319.295C108.004 318.514 108.618 317.836 109.362 317.308C110.106 316.78 110.961 316.414 111.867 316.237C111.645 316.237 110.405 316.451 110.627 316.428C104.578 316.923 98.4826 317.125 92.4339 317.474C91.0556 317.591 89.7147 317.968 88.4881 318.583C87.2615 319.199 86.1732 320.04 85.2853 321.06C84.4663 322.015 82.7347 325.152 85.5309 324.994L101.443 324.073C104.59 323.893 107.526 323.78 110.44 322.476C112.106 321.786 113.608 320.776 114.853 319.508C116.099 318.24 117.061 316.74 117.682 315.102C118.307 312.671 118.741 310.198 118.98 307.705C119.355 305.179 119.675 302.643 119.94 300.095C120.478 295.013 120.809 289.914 120.934 284.795C121.09 278.95 120.969 273.112 120.572 267.281C120.419 264.965 116.535 266.382 115.412 266.966C113.657 267.866 110.311 269.956 110.463 272.272H110.44Z" fill="black"/>
<path d="M243.374 180.47C245.536 201.006 256.664 218.011 275.742 229.938C277.148 230.805 271.215 237.486 269.874 236.652C250.6 224.534 239.404 207.268 237.306 186.431C237.543 184.912 238.619 183.218 240.351 181.635C241.129 180.872 243.231 179.147 243.355 180.429L243.374 180.47Z" fill="black"/>
<path d="M31.0054 207.235L37.9155 272.853C37.9178 273.594 38.4373 274.312 39.3838 274.881C40.3303 275.45 41.6442 275.836 43.0981 275.97C45.6549 276.178 49.1559 275.278 48.9946 273.765L42.0848 208.147C42.0925 207.406 41.5796 206.688 40.6362 206.118C39.6927 205.548 38.3789 205.163 36.9252 205.03C34.3454 204.822 30.8441 205.722 31.0054 207.235Z" fill="black"/>
<path d="M274.764 80.6706C282.56 97.4475 264.772 120.43 265.566 137.856C266.371 155.918 285.872 177.222 279.847 193.987C273.821 210.752 245.271 214.515 233.164 227.865C221.493 240.74 220.516 269.859 203.855 277.721C187.194 285.583 164.37 267.659 147.065 268.458C129.139 269.269 107.971 288.906 91.3218 282.839C74.6724 276.772 70.9355 248.023 57.678 235.831C44.892 224.079 15.974 223.095 8.23572 206.318C0.497421 189.541 18.2162 166.558 17.4343 149.133C16.6294 131.071 -2.87161 109.767 3.15346 93.0014C9.17852 76.2361 37.7286 72.4732 49.8362 59.1235C61.5069 46.2485 62.4842 17.1291 79.1451 9.27906C95.806 1.429 118.63 19.329 135.935 18.5417C153.872 17.7312 175.029 -1.90551 191.678 4.16149C208.328 10.2285 212.065 38.9773 225.322 51.1692C238.039 62.9095 266.957 63.8937 274.764 80.6706Z" fill="#FFB800"/>
<path d="M121.152 143.612C128.974 142.362 136.857 141.105 144.719 140.199C146.922 139.946 155.572 137.362 154.97 140.67C153.33 149.675 150.182 157.326 146.764 165.756C146.064 167.485 141.493 178.08 139.652 176.91C137.811 175.74 132.087 166.891 130.275 162.669C129.136 160.015 122.982 147.374 121 145.175" stroke="black" stroke-width="6" stroke-linecap="round"/>
<path d="M155.886 13.7071C145.992 18.9665 139.106 21.0926 129.446 21.0926C116.226 21.0926 115.21 3.97174 84.7021 8.83943C54.1947 13.7071 63.3469 67.0421 23.9309 74.7343C18.0789 76.0401 0.298318 88.4853 3.34925 110.95C5.53578 120.829 9.84968 132.917 16.2748 139.748C20.7493 144.505 18.4817 161.131 15.8967 166.322L15.8049 166.507C9.81129 178.543 0.409934 197.422 8.43373 211.017C11.4918 216.199 16.2748 219.186 22.6705 221.229C29.0662 223.271 36.8141 227.262 39.958 228.583C51.2569 233.333 56.8401 234.487 64.3639 242.672C73.7371 252.868 72.8018 271.744 84.7021 280.452C99.2235 291.079 103.485 287.057 120.294 280.452C130.188 276.565 132.343 272.352 141.649 268.199C143.888 267.2 155.849 266.621 157.92 269.22C162.792 275.335 168.089 277.389 184.359 278.41C197.579 281.543 214.009 273.79 216.901 270.241C226.674 258.247 228.146 252.782 226.111 233.709C224.137 215.212 251.269 214.491 266.376 208.975C277.241 205.008 283 197.877 283 186.511C283 180.135 278.354 176.393 276.585 170.173C275.226 165.4 266.376 155.703 266.376 149.428C266.376 139.509 264.614 140.614 266.376 129.329C267.933 119.367 276.585 104.41 276.585 94.6119C276.585 82.9882 267.282 72.2612 255.543 66.021C245.519 60.6921 231.137 64.0924 220.968 52.7468C202.664 32.3248 218.934 13.7071 188.427 3.7341C171.14 0.670612 166.963 7.81747 155.886 13.7071Z" stroke="black" stroke-width="6" stroke-linecap="round"/>
<path d="M92 112.279C97.9569 110.696 105.591 108.303 111.95 109.193C112.32 109.244 105.395 113.905 104.483 114.451C101.353 116.325 97.8814 120.097 94.1 120.509C93.5373 120.57 91.718 121.79 93.4 121.424C97.7537 120.476 101.893 118.686 106.233 117.651C110.784 116.567 111.95 118.223 106.7 117.937C104.323 117.808 101.031 117.956 99.875 119.995C94.9167 128.739 107.998 126.046 113 123.595" stroke="black" stroke-width="6" stroke-linecap="round"/>
<path d="M159 112.279C164.957 110.696 172.591 108.303 178.95 109.193C179.32 109.244 172.395 113.905 171.483 114.451C168.353 116.325 164.881 120.097 161.1 120.509C160.537 120.57 158.718 121.79 160.4 121.424C164.754 120.476 168.893 118.686 173.233 117.651C177.784 116.567 178.95 118.223 173.7 117.937C171.323 117.808 168.031 117.956 166.875 119.995C161.917 128.739 174.998 126.046 180 123.595" stroke="black" stroke-width="6" stroke-linecap="round"/>
<path d="M300 242.087C297.091 239.153 294.967 237.304 291.044 235.943C289.071 235.259 288.162 233.983 286.459 233.125C285.446 232.614 282.981 231.09 281.946 231.029C275.635 230.654 270.539 234.036 265.181 236.739C264.034 237.317 260.739 239.693 260.166 240.786C258.963 243.077 264.664 245.205 265.825 246.279C269.027 249.24 274.373 251.999 276.644 255.748C277.55 257.243 279.226 258.279 280.656 259" stroke="black" stroke-width="6" stroke-linecap="round"/>
<path d="M305 243C298.382 245.781 290.06 249.457 284.634 254.536C282.942 256.12 281.386 257.871 279.62 259.319C276.551 261.836 273.972 264.188 275.408 268.456C277.905 275.878 282.701 285.722 287.976 291.37C292.787 296.522 297.187 302.047 301.727 307.074C303.073 308.564 304.365 310.046 305 312" stroke="black" stroke-width="6" stroke-linecap="round"/>
<path d="M305.648 243C311.039 243.131 315.324 247.46 319.797 250.359C323.929 253.037 325.575 257.555 328.257 261.343C332.617 267.501 337.741 273.061 343.09 278.393C345.424 280.721 355.742 290.618 352.306 294.044C350.74 295.606 347.8 296.833 345.826 297.92C343.546 299.177 341.432 301.408 339.525 303.197C333.958 308.422 326.038 310.92 320.193 315.689C318.897 316.746 317.224 317.917 315.692 318.596C313.612 319.518 313.54 318.649 311.48 318.094C308.019 317.161 306.501 316.42 305 313.427" stroke="black" stroke-width="6" stroke-linecap="round"/>
</svg>
