<svg width="375" height="304" viewBox="0 0 375 304" fill="none" xmlns="http://www.w3.org/2000/svg">
<rect width="375" height="304" fill="white"/>
<line y1="-1.5" x2="21.2132" y2="-1.5" transform="matrix(0.162679 0.986679 0.986679 -0.162679 83.7852 55.375)" stroke="#53ACFF" stroke-width="3"/>
<line y1="-1.5" x2="21.2132" y2="-1.5" transform="matrix(0.978685 -0.205368 -0.205368 -0.978685 75 67.1641)" stroke="#53ACFF" stroke-width="3"/>
<line y1="-1.5" x2="30" y2="-1.5" transform="matrix(0.582656 -0.812719 -0.812719 -0.582656 76.1562 76.4395)" stroke="#53ACFF" stroke-width="3"/>
<circle cx="110.656" cy="41" r="4" fill="#5CC4FF"/>
<circle cx="112.156" cy="38.5" r="3" stroke="black"/>
<circle cx="236" cy="71" r="29" fill="#00B2FF"/>
<path d="M245.573 56.2146C245.706 56.3159 245.813 56.4476 245.887 56.5991C245.961 56.7507 246 56.9179 246 57.0875V76.6631C246 76.7014 245.998 76.7396 245.994 76.7777C246.048 77.9225 245.724 79.0525 245.073 79.9837C244.423 80.915 243.484 81.5926 242.411 81.9062C241.338 82.2198 240.192 82.1511 239.162 81.7111C238.132 81.2711 237.277 80.4858 236.736 79.483C236.195 78.4803 236.001 77.3191 236.185 76.1886C236.369 75.0581 236.92 74.0248 237.749 73.2569C238.577 72.489 239.634 72.0318 240.748 71.9596C241.862 71.8875 242.966 72.2047 243.882 72.8597V64.3493L231.882 68.047V79.5632C231.882 79.6015 231.88 79.6397 231.876 79.6778C231.931 80.8226 231.606 81.9526 230.956 82.8838C230.305 83.8151 229.367 84.4926 228.293 84.8063C227.22 85.1199 226.075 85.0512 225.044 84.6112C224.014 84.1712 223.159 83.3859 222.618 82.3831C222.078 81.3804 221.884 80.2192 222.068 79.0887C222.251 77.9582 222.802 76.9248 223.631 76.157C224.459 75.3891 225.517 74.9319 226.63 74.8597C227.744 74.7876 228.849 75.1048 229.764 75.7598V61.4377C229.765 61.2039 229.838 60.9765 229.974 60.789C230.109 60.6014 230.3 60.4638 230.518 60.3965L244.636 56.0464C244.794 55.9973 244.961 55.987 245.124 56.0162C245.287 56.0454 245.441 56.1134 245.573 56.2146V56.2146ZM231.882 65.7762L243.882 62.0786V58.5492L231.882 62.2468V65.7762ZM226.941 77.0256C226.192 77.0256 225.474 77.3312 224.944 77.8751C224.415 78.4189 224.117 79.1566 224.117 79.9257C224.117 80.6949 224.415 81.4325 224.944 81.9764C225.474 82.5203 226.192 82.8258 226.941 82.8258C227.69 82.8258 228.408 82.5203 228.938 81.9764C229.467 81.4325 229.764 80.6949 229.764 79.9257C229.764 79.1566 229.467 78.4189 228.938 77.8751C228.408 77.3312 227.69 77.0256 226.941 77.0256ZM238.235 77.0256C238.235 77.7948 238.533 78.5324 239.062 79.0763C239.592 79.6202 240.31 79.9257 241.059 79.9257C241.807 79.9257 242.526 79.6202 243.055 79.0763C243.585 78.5324 243.882 77.7948 243.882 77.0256C243.882 76.2565 243.585 75.5188 243.055 74.975C242.526 74.4311 241.807 74.1255 241.059 74.1255C240.31 74.1255 239.592 74.4311 239.062 74.975C238.533 75.5188 238.235 76.2565 238.235 77.0256Z" fill="white"/>
<ellipse cx="177.5" cy="140" rx="29.5" ry="29" fill="#FFE101"/>
<path fill-rule="evenodd" clip-rule="evenodd" d="M184 131.909C184 131.668 184.105 131.437 184.293 131.266C184.48 131.096 184.735 131 185 131H189C189.265 131 189.52 131.096 189.707 131.266C189.895 131.437 190 131.668 190 131.909V133.727H193C193.265 133.727 193.52 133.823 193.707 133.994C193.895 134.164 194 134.395 194 134.636V140.091H197V141.909H194V147.364C194 147.605 193.895 147.836 193.707 148.006C193.52 148.177 193.265 148.273 193 148.273H190V150.091C190 150.332 189.895 150.563 189.707 150.734C189.52 150.904 189.265 151 189 151H185C184.735 151 184.48 150.904 184.293 150.734C184.105 150.563 184 150.332 184 150.091V141.909H170V150.091C170 150.332 169.895 150.563 169.707 150.734C169.52 150.904 169.265 151 169 151H165C164.735 151 164.48 150.904 164.293 150.734C164.105 150.563 164 150.332 164 150.091V148.273H161C160.735 148.273 160.48 148.177 160.293 148.006C160.105 147.836 160 147.605 160 147.364V141.909H157V140.091H160V134.636C160 134.395 160.105 134.164 160.293 133.994C160.48 133.823 160.735 133.727 161 133.727H164V131.909C164 131.668 164.105 131.437 164.293 131.266C164.48 131.096 164.735 131 165 131H169C169.265 131 169.52 131.096 169.707 131.266C169.895 131.437 170 131.668 170 131.909V140.091H184V131.909ZM166 149.182H168V132.818H166V149.182ZM164 135.545H162V146.455H164V135.545ZM190 146.455V135.545H192V146.455H190ZM188 132.818V149.182H186V132.818H188Z" fill="white"/>
<ellipse cx="137.5" cy="102" rx="29.5" ry="29" fill="#796EFF"/>
<path fill-rule="evenodd" clip-rule="evenodd" d="M122 90.973C122 90.7149 122.105 90.4675 122.293 90.285C122.48 90.1025 122.735 90 123 90H132.996C135.084 90 136.923 91.0378 137.997 92.6128C138.544 91.8089 139.288 91.1495 140.161 90.6936C141.034 90.2376 142.009 89.9993 143 90H153C153.265 90 153.52 90.1025 153.707 90.285C153.895 90.4675 154 90.7149 154 90.973V110.514C154 110.643 153.974 110.77 153.923 110.888C153.873 111.007 153.798 111.114 153.705 111.205C153.611 111.295 153.5 111.367 153.378 111.415C153.256 111.464 153.125 111.488 152.993 111.487L142.751 111.42C142.221 111.416 141.695 111.515 141.205 111.711C140.715 111.906 140.269 112.194 139.895 112.559L138.708 113.715C138.615 113.805 138.505 113.877 138.383 113.926C138.262 113.975 138.132 114 138.001 114C137.869 114 137.739 113.975 137.618 113.926C137.496 113.877 137.386 113.805 137.293 113.715L136.091 112.546C135.341 111.816 134.323 111.406 133.263 111.406H123C122.735 111.406 122.48 111.303 122.293 111.121C122.105 110.938 122 110.691 122 110.433V90.973ZM136.996 95.834C136.995 94.8025 136.573 93.8135 135.823 93.0845C135.073 92.3555 134.056 91.946 132.996 91.946H124V109.46H133.263C134.62 109.46 135.938 109.908 137 110.731L136.996 95.834ZM139 110.734V95.8379C139 94.8057 139.421 93.8158 140.172 93.0859C140.922 92.356 141.939 91.946 143 91.946H152V109.535L142.764 109.474C141.399 109.465 140.071 109.909 139 110.734Z" fill="white"/>
<ellipse cx="96" cy="190.5" rx="29" ry="28.5" fill="#FFB800"/>
<path d="M106.286 203V180.091M114 180.091H78V203H114V180.091ZM101.143 180.091C101.143 180.091 101.143 175 96 175C90.8571 175 90.8571 180.091 90.8571 180.091H101.143ZM85.7143 203V180.091V203Z" stroke="white" stroke-width="2" stroke-linecap="round" stroke-linejoin="round"/>
<circle cx="204" cy="215" r="29" fill="#FF5959"/>
<path d="M202.9 199.002C203.157 199.002 203.407 199.093 203.605 199.259C203.802 199.424 203.936 199.655 203.982 199.91L204 200.109V206.751C204 208.027 203.562 209.264 202.761 210.252C201.959 211.241 200.842 211.92 199.6 212.175V228.891C199.601 229.168 199.498 229.434 199.313 229.639C199.128 229.843 198.873 229.97 198.599 229.995C198.326 230.02 198.053 229.941 197.834 229.774C197.615 229.606 197.467 229.362 197.418 229.09L197.4 228.891V212.175C196.221 211.933 195.154 211.308 194.362 210.397C193.569 209.485 193.096 208.338 193.013 207.13L193 206.751V200.109C192.999 199.832 193.102 199.566 193.287 199.361C193.472 199.157 193.727 199.03 194.001 199.005C194.274 198.98 194.548 199.059 194.766 199.226C194.985 199.394 195.133 199.638 195.182 199.91L195.2 200.109V206.751C195.2 207.438 195.411 208.108 195.805 208.669C196.199 209.231 196.756 209.655 197.4 209.884V200.109C197.399 199.832 197.502 199.566 197.687 199.361C197.872 199.157 198.127 199.03 198.401 199.005C198.674 198.98 198.948 199.059 199.166 199.226C199.385 199.394 199.533 199.638 199.582 199.91L199.6 200.109V209.882C200.784 209.461 201.657 208.381 201.785 207.081L201.8 206.751V200.109C201.8 199.815 201.916 199.534 202.122 199.326C202.328 199.119 202.608 199.002 202.9 199.002V199.002ZM213.9 199.002C214.157 199.002 214.407 199.093 214.605 199.259C214.802 199.424 214.936 199.655 214.982 199.91L215 200.109V228.891C215.001 229.168 214.898 229.434 214.713 229.639C214.528 229.843 214.273 229.97 213.999 229.995C213.726 230.02 213.452 229.941 213.234 229.774C213.015 229.606 212.867 229.362 212.818 229.09L212.8 228.891V216.714H209.5C209.243 216.714 208.993 216.623 208.795 216.457C208.598 216.292 208.464 216.061 208.418 215.806L208.4 215.607V204.537C208.4 203.069 208.979 201.661 210.011 200.623C211.042 199.585 212.441 199.002 213.9 199.002V199.002ZM212.8 214.5V201.404C211.616 201.825 210.743 202.905 210.615 204.207L210.6 204.537V214.5H212.8V201.404V214.5Z" fill="white"/>
<circle cx="275" cy="175" r="29" fill="#D4FF5B"/>
<path d="M290.544 175C290.219 175.001 289.902 174.896 289.643 174.7L274.523 163.38L259.403 174.7C259.084 174.939 258.684 175.041 258.29 174.985C257.895 174.929 257.539 174.718 257.3 174.4C257.061 174.082 256.959 173.682 257.015 173.288C257.071 172.894 257.282 172.539 257.601 172.3L273.622 160.3C273.882 160.105 274.198 160 274.523 160C274.848 160 275.164 160.105 275.424 160.3L291.445 172.3C291.736 172.536 291.928 172.872 291.983 173.242C292.039 173.612 291.954 173.989 291.745 174.3C291.618 174.506 291.441 174.677 291.232 174.8C291.022 174.922 290.786 174.99 290.544 175V175Z" fill="white"/>
<path d="M286.5 190H262.5C262.104 189.995 261.725 189.843 261.445 189.575C261.165 189.308 261.005 188.946 261 188.568V170.432C261 170.052 261.158 169.688 261.439 169.419C261.721 169.151 262.102 169 262.5 169C262.898 169 263.279 169.151 263.561 169.419C263.842 169.688 264 170.052 264 170.432V187.136H285V170.432C285 170.052 285.158 169.688 285.439 169.419C285.721 169.151 286.102 169 286.5 169C286.898 169 287.279 169.151 287.561 169.419C287.842 169.688 288 170.052 288 170.432V188.568C287.995 188.946 287.835 189.308 287.555 189.575C287.275 189.843 286.896 189.995 286.5 190V190Z" fill="white"/>
<path d="M278.5 190C278.104 189.995 277.725 189.845 277.445 189.581C277.165 189.317 277.005 188.961 277 188.588V176.824H272V188.588C272 188.963 271.842 189.322 271.561 189.587C271.279 189.851 270.898 190 270.5 190C270.102 190 269.721 189.851 269.439 189.587C269.158 189.322 269 188.963 269 188.588V175.412C269.005 175.039 269.165 174.683 269.445 174.419C269.725 174.155 270.104 174.005 270.5 174H278.5C278.896 174.005 279.275 174.155 279.555 174.419C279.835 174.683 279.995 175.039 280 175.412V188.588C279.995 188.961 279.835 189.317 279.555 189.581C279.275 189.845 278.896 189.995 278.5 190Z" fill="white"/>
</svg>
