<svg width="450" height="450" viewBox="0 0 450 450" fill="none" xmlns="http://www.w3.org/2000/svg">
<g opacity="0.3">
<path d="M333.37 206.06C340.571 221.502 324.14 242.655 324.873 258.693C325.616 275.317 343.629 294.926 338.064 310.356C332.499 325.787 306.127 329.25 294.943 341.537C284.163 353.388 283.26 380.189 267.871 387.425C252.481 394.661 231.399 378.164 215.414 378.9C198.856 379.645 179.303 397.719 163.924 392.135C148.545 386.551 145.093 360.091 132.848 348.869C121.037 338.053 94.3257 337.147 87.1779 321.706C80.03 306.264 96.3968 285.111 95.6746 269.073C94.9311 252.448 76.9181 232.84 82.4834 217.409C88.0487 201.979 114.42 198.515 125.604 186.228C136.384 174.378 137.287 147.577 152.677 140.351C168.066 133.126 189.149 149.601 205.133 148.877C221.702 148.131 241.244 130.057 256.623 135.641C272.002 141.225 275.454 167.686 287.7 178.907C299.447 189.713 326.158 190.619 333.37 206.06Z" fill="black"/>
<path d="M200.699 144.11C208.421 148.583 221.44 153.985 230.587 149.16C232.599 148.099 232.496 146.039 234.083 144.458C236.019 142.53 238.972 142.372 241.249 140.976C243.804 139.41 248.061 138.439 251.037 139.757C260.661 144.018 267.481 151.049 271.837 161.175C274.493 167.349 277.168 174.693 281.275 179.807C284.013 183.217 288.66 181.026 292.462 182.071C302.314 184.779 312.557 181.188 321.826 186.076C332.679 191.8 331.264 207.453 331.264 218.116C331.264 227.105 325.187 231.441 323.748 240.579C322.118 250.932 329.691 259.863 329.691 268.963C329.691 274.719 333.154 274.684 334.41 279.063C336.046 284.768 339.129 290.975 339.129 296.824C339.129 307.251 339.037 303.459 328.992 307.098C315.024 312.158 297.104 323.215 298.929 340.183C300.81 357.68 286.029 357.912 276.993 368.915C274.319 372.171 254.543 386.39 252.61 383.02C248.87 376.499 236.665 377.746 232.16 372.136C230.246 369.752 225.579 372.003 223.509 372.92C214.904 376.73 210.371 386.593 201.223 390.159C185.682 396.218 174.449 399.56 161.023 389.811C150.02 381.822 146.792 371.651 138.126 362.298C131.169 354.79 128.123 350.634 117.676 346.278C114.769 345.065 110.862 341.872 107.888 341.576C102.687 341.058 94.9845 341.28 92.1571 336.526C84.7003 323.99 92.5627 295.493 98.0998 284.461C100.49 279.699 102.586 264.446 98.4493 260.082C92.5088 253.816 83.2546 244.854 81.2329 235.791C79.6102 228.516 78.1959 220.685 82.0195 213.067C84.0966 208.928 85.8498 207.343 89.9722 206.711C95.9259 205.798 100.117 201.64 105.528 200.442C111.75 199.065 121.101 189.716 123.618 184.074C126.946 176.615 126.948 167.005 128.425 158.911C130.931 145.181 147.696 128.91 161.285 140.192C165.565 143.745 173.639 147.492 179.375 144.894C185.422 142.156 190.624 136.374 197.553 140.976" stroke="black" stroke-width="6" stroke-linecap="round"/>
<path d="M330.391 310.368C331.696 318.074 329.936 328.332 328.299 335.967C327.745 338.55 327.572 344.535 325.732 346.609C324.199 348.337 323.927 349.774 325.257 351.786" stroke="black" stroke-width="6" stroke-linecap="round"/>
<path d="M108.11 342.582C110.519 351.812 110.872 360.019 110.872 369.499C110.872 375.901 112.712 382.327 112.712 388.602" stroke="black" stroke-width="6" stroke-linecap="round"/>
<path d="M193.705 394.124C193.705 401.908 193.83 409.492 191.606 417.032C190.705 420.083 189.875 424.354 187.263 426.386C181.785 430.647 174.182 429.658 167.936 432.781" stroke="black" stroke-width="6" stroke-linecap="round"/>
<path d="M250.978 388.602C253.96 399.726 255.235 411.826 255.37 423.313C255.448 429.955 254.267 428.129 248.538 429.695C244.807 430.714 239.275 434.33 236.045 436.463" stroke="black" stroke-width="6" stroke-linecap="round"/>
<path d="M227.284 241.033C227.136 241.868 225.745 245.928 227.284 246.028C228.06 246.079 228.966 246.061 229.381 245.196C230.179 243.536 228.635 240.95 227.62 239.83C226.436 238.526 225.298 241.414 225.061 242.328C224.642 243.945 226.529 245.237 226.529 246.861" stroke="black" stroke-width="6" stroke-linecap="round"/>
<path d="M174.278 242.768C174.882 243.113 181.163 245.912 180.534 247.088C180.233 247.653 177.89 249.042 177.252 248.624C175.922 247.753 173.458 245.486 173.458 244.016C173.458 241.099 178.245 239.087 180.226 241.472C181.84 243.415 182.775 247.029 179.816 247.952" stroke="black" stroke-width="6" stroke-linecap="round"/>
<path d="M301.829 160.502C300.556 151.094 301.738 139.246 297.922 130.507C294.564 122.817 290.364 113.752 293.039 104.818C296.762 92.3813 302.103 79.2145 311.009 69.4405C317.9 61.8782 323.654 55.4848 327.856 45.5131C333.02 33.2578 343.288 20.3147 356.13 15.8606C367.496 11.9181 380.536 14.9739 391.826 18.2583C401.626 21.1093 405.997 29.0158 408.184 38.4669C409.556 44.3942 411.055 53.9462 408.966 59.7032C406.854 65.5215 399.343 70.7158 395.195 74.8719C388.276 81.8056 381.429 90.7049 373.416 95.8145C366.42 100.276 357.038 101.714 349 103.056C346.249 103.516 342.146 104.146 339.624 105.209C337.041 106.299 334.314 105.404 331.714 106.335C327.286 107.919 323.169 111.506 321.166 116.023C319.468 119.851 315.632 124.371 315.892 128.794C316.01 130.811 317.07 132.161 316.576 134.764C316.022 137.677 313.013 138.672 312.425 140.734C311.376 144.414 308.97 148.343 307.298 151.694C305.768 154.76 306.223 160.546 306.223 164.025" stroke="black" stroke-width="6" stroke-linecap="round"/>
<path d="M46.5522 226.612C46.678 233.202 46.7386 239.086 49.8116 244.936C50.8908 246.991 51.7418 248.157 50.219 250.366C46.2578 256.111 38.9143 261.523 40.1352 268.496C40.4131 270.083 42.6105 270.805 42.8344 272.616C43.2105 275.659 44.1769 283.085 42.6816 285.754C41.8802 287.184 40.9425 292.876 42.8853 293.801" stroke="black" stroke-width="6" stroke-linecap="round"/>
<path d="M67.5433 291.04C68.5413 294.012 69.0801 296.862 66.6468 299.346C65.7669 300.244 64.912 300.201 64.854 301.664C64.7302 304.783 68.0375 308.785 69.7346 311.371C73.0558 316.432 72.4793 312.004 71.2287 316.248C70.6395 318.248 72.0255 320.275 72.0255 322.333" stroke="black" stroke-width="6" stroke-linecap="round"/>
<path d="M368.748 209.124C370.674 213.223 372.642 217.265 374.916 221.191C375.824 222.757 378.266 225.462 378.627 227.422C379.085 229.908 377.499 231.653 375.668 233.06C371.55 236.225 361.022 240.791 368.347 244.731C373.669 247.594 367.842 267.882 370.553 262.534" stroke="black" stroke-width="6" stroke-linecap="round"/>
<path d="M393.265 250.542C394.278 256.871 390.544 262.423 386.036 266.596C384.698 267.834 388.017 269.646 388.095 271.182C388.351 276.263 382.669 282.318 384.648 286.438" stroke="black" stroke-width="6" stroke-linecap="round"/>
<path d="M190.025 275.393H218.558" stroke="black" stroke-width="6" stroke-linecap="round"/>
<path d="M361.992 37.0103C354.168 39.9137 351.934 40.8211 348.945 47.3094C347.478 50.4943 348.598 53.5764 352.859 52.4017C355.852 51.5768 363.059 43.1665 363.059 40.1" stroke="black" stroke-width="6" stroke-linecap="round"/>
<path d="M382.395 48.9751C379.575 50.8064 373.423 54.3716 373.193 58.7751C373.05 61.5306 374.512 67.8106 377.283 62.6467C379.159 59.1501 388.514 54.9379 385.463 50.064" stroke="black" stroke-width="6" stroke-linecap="round"/>
</g>
</svg>
