<svg width="423" height="406" viewBox="0 0 423 406" fill="none" xmlns="http://www.w3.org/2000/svg">
<path d="M229.315 350.717C229.825 360.45 229.872 370.206 229.408 379.928C229.199 384.466 228.851 389.523 228.445 393.75C228.352 394.706 228.271 395.685 228.12 396.63C228.039 397.102 227.911 397.54 227.795 398.001C227.679 398.461 227.865 397.759 227.9 397.701C228.132 397.344 228.526 397.148 228.027 397.517C228.584 397.102 229.269 396.791 229.814 396.434C230.359 396.077 230.092 396.353 229.744 396.434C228.712 396.641 230.51 396.434 229.454 396.434C228.398 396.434 227.041 396.434 225.846 396.434L208.77 396.492C206.066 396.492 202.633 398.116 202.076 401.041C201.955 401.663 201.979 402.303 202.144 402.913C202.31 403.524 202.613 404.089 203.031 404.567C203.449 405.044 203.971 405.42 204.557 405.668C205.143 405.915 205.778 406.027 206.414 405.995L222.911 405.937C225.521 405.937 228.364 406.179 230.927 405.545C232.73 405.156 234.4 404.308 235.773 403.084C237.146 401.86 238.175 400.303 238.758 398.565C239.365 396.156 239.696 393.687 239.744 391.205C239.999 388.567 240.197 385.929 240.371 383.291C240.726 377.916 240.931 372.541 240.985 367.165C241.047 361.022 240.912 354.879 240.58 348.736C240.429 345.902 237.157 344.578 234.663 345.119C232.169 345.66 229.152 347.791 229.315 350.774V350.717Z" fill="black"/>
<path d="M171.44 353.272C172.195 364.754 171.925 376.278 170.632 387.716C170.293 390.627 169.895 393.516 169.462 396.405C169.335 397.44 169.135 398.465 168.866 399.474C168.782 399.754 168.68 400.028 168.561 400.295C169.004 399.514 169.618 398.836 170.362 398.308C171.106 397.78 171.961 397.414 172.867 397.237C172.645 397.237 171.405 397.451 171.627 397.428C165.578 397.923 159.483 398.125 153.434 398.474C152.056 398.591 150.715 398.968 149.488 399.583C148.262 400.199 147.173 401.04 146.285 402.06C145.466 403.015 143.735 406.152 146.531 405.994L162.443 405.073C165.59 404.893 168.526 404.78 171.44 403.476C173.106 402.786 174.608 401.776 175.853 400.508C177.099 399.24 178.061 397.74 178.682 396.102C179.307 393.671 179.741 391.198 179.98 388.705C180.355 386.179 180.675 383.643 180.94 381.095C181.478 376.013 181.809 370.914 181.934 365.795C182.09 359.95 181.969 354.112 181.572 348.281C181.419 345.965 177.535 347.382 176.412 347.966C174.657 348.866 171.311 350.956 171.463 353.272H171.44Z" fill="black"/>
<path d="M313.063 282.733C319.892 302.25 316.801 322.306 304.073 341.077C303.131 342.449 311.568 346.03 312.465 344.714C325.292 325.688 328.335 305.366 321.316 285.605C320.439 284.327 318.701 283.24 316.396 282.527C315.339 282.161 312.626 281.475 313.063 282.687V282.733Z" fill="black"/>
<path d="M92.0057 288.235L99.2997 353.853C99.3021 354.594 99.8505 355.312 100.85 355.881C101.849 356.45 103.236 356.836 104.77 356.97C107.469 357.178 111.165 356.278 110.994 354.765L103.701 289.147C103.709 288.406 103.167 287.688 102.171 287.118C101.176 286.548 99.7888 286.163 98.2544 286.03C95.5313 285.822 91.8355 286.722 92.0057 288.235Z" fill="black"/>
<path d="M336.764 161.671C344.56 178.447 326.772 201.43 327.566 218.856C328.371 236.918 347.872 258.222 341.847 274.987C335.821 291.752 307.271 295.515 295.164 308.865C283.493 321.74 282.516 350.859 265.855 358.721C249.194 366.583 226.37 348.659 209.065 349.458C191.139 350.269 169.971 369.906 153.322 363.839C136.672 357.772 132.935 329.023 119.678 316.831C106.892 305.079 77.974 304.095 70.2357 287.318C62.4974 270.541 80.2162 247.558 79.4343 230.133C78.6294 212.071 59.1284 190.767 65.1535 174.001C71.1785 157.236 99.7286 153.473 111.836 140.123C123.507 127.248 124.484 98.1291 141.145 90.2791C157.806 82.429 180.63 100.329 197.935 99.5417C215.872 98.7312 237.029 79.0945 253.678 85.1615C270.328 91.2285 274.065 119.977 287.322 132.169C300.039 143.91 328.957 144.894 336.764 161.671Z" fill="#FFB800"/>
<path d="M183.148 225.49C190.739 224.274 198.39 223.05 206.021 222.168C208.16 221.921 216.556 219.405 215.971 222.626C214.38 231.394 211.323 238.844 208.007 247.052C207.327 248.735 202.89 259.051 201.103 257.912C199.317 256.774 193.761 248.157 192.002 244.046C190.897 241.462 184.924 229.154 183 227.012" stroke="black" stroke-width="6" stroke-linecap="round"/>
<path d="M217.432 94.7071C207.503 99.9665 200.592 102.093 190.898 102.093C177.631 102.093 176.61 84.9717 145.994 89.8394C115.377 94.7071 124.562 148.042 85.0057 155.734C79.1327 157.04 61.2887 169.485 64.3505 191.95C66.5448 201.829 70.8741 213.917 77.3222 220.748C81.8127 225.505 79.5369 242.131 76.9427 247.322L76.8506 247.507C70.8356 259.543 61.4007 278.422 69.4531 292.017C72.5221 297.199 77.3222 300.186 83.7407 302.229C90.1593 304.271 97.9349 308.262 101.09 309.583C112.429 314.333 118.032 315.487 125.583 323.672C134.99 333.868 134.051 352.744 145.994 361.452C160.567 372.079 164.844 368.057 181.713 361.452C191.642 357.565 193.805 353.352 203.144 349.199C205.392 348.2 217.395 347.621 219.473 350.22C224.362 356.335 229.678 358.389 246.007 359.41C259.274 362.543 275.762 354.79 278.665 351.241C288.473 339.247 289.95 333.782 287.907 314.709C285.927 296.212 313.156 295.491 328.317 289.975C339.22 286.008 345 278.877 345 267.511C345 261.135 340.338 257.393 338.562 251.173C337.199 246.4 328.317 236.703 328.317 230.428C328.317 220.509 326.548 221.614 328.317 210.329C329.879 200.367 338.562 185.41 338.562 175.612C338.562 163.988 329.226 153.261 317.445 147.021C307.385 141.692 292.952 145.092 282.747 133.747C264.377 113.325 280.706 94.7071 250.089 84.7341C232.74 81.6706 228.549 88.8175 217.432 94.7071Z" stroke="black" stroke-width="6" stroke-linecap="round"/>
<path d="M53.4816 72.2747C60.6862 74.5239 61.7472 80.1536 63.6321 88.8658C65.0802 90.9213 68.7073 87.2598 73.7825 87.5618C81.6258 87.5618 84.2275 91.2488 85.9631 92.6576C90.151 96.0569 87.2553 105.318 82.918 107.945C76.7721 111.666 70.6875 107.945 69.5715 109.983C68.6499 111.666 75.4315 116.015 76.8277 117.117C81.9029 123.232 74.1844 128.395 69.5715 130.366C64.7097 132.443 58.5375 127.192 55.8801 123.897C51.4515 116.098 49.8769 128.852 46.3762 132.404C43.1563 135.671 36.2257 138.519 31.3993 132.404C23.0301 121.801 44.6393 111.666 31.3993 111.666C19.6839 111.666 18.5337 98.0691 24.628 91.8857C28.1053 86.5427 38.938 85.2655 42.4863 88.8658C44.4611 90.8694 42.784 88.8617 42.784 82.8259C42.784 78.0436 47.6717 70.4609 53.4816 72.2747Z" fill="#73ABFF" stroke="black" stroke-width="6" stroke-linecap="round"/>
<path d="M385.482 172.275C392.686 174.524 393.747 180.154 395.632 188.866C397.08 190.921 400.707 187.26 405.783 187.562C413.626 187.562 416.228 191.249 417.963 192.658C422.151 196.057 419.255 205.318 414.918 207.945C408.772 211.666 402.688 207.945 401.571 209.983C400.65 211.666 407.432 216.015 408.828 217.117C413.903 223.232 406.184 228.395 401.571 230.366C396.71 232.443 390.538 227.192 387.88 223.897C383.451 216.098 381.877 228.852 378.376 232.404C375.156 235.671 368.226 238.519 363.399 232.404C355.03 221.801 376.639 211.666 363.399 211.666C351.684 211.666 350.534 198.069 356.628 191.886C360.105 186.543 370.938 185.266 374.486 188.866C376.461 190.869 374.784 188.862 374.784 182.826C374.784 178.044 379.672 170.461 385.482 172.275Z" fill="#FF7373" stroke="black" stroke-width="6" stroke-linecap="round"/>
<path d="M392.133 286.873C396.458 291.416 394.959 295.917 392.816 302.982C393.039 305.055 397.149 303.874 400.713 306.147C406.409 309.321 406.812 313.041 407.505 314.763C409.176 318.917 403.339 324.444 399.131 324.588C393.167 324.792 390.249 319.637 388.616 320.66C387.269 321.504 390.44 327.395 391.01 328.757C392.231 335.234 384.544 335.845 380.399 335.403C376.031 334.938 373.666 328.642 373.064 325.182C372.992 317.749 366.707 326.337 362.733 327.489C359.077 328.549 352.896 327.804 351.856 321.427C350.052 310.37 369.831 311.786 360.216 306.427C351.708 301.685 356.354 291.385 363.273 289.379C367.952 286.922 376.334 290.382 377.459 294.423C378.086 296.671 377.677 294.54 380.11 290.175C382.038 286.715 388.645 283.209 392.133 286.873Z" fill="#73ABFF" stroke="black" stroke-width="6" stroke-linecap="round"/>
<path d="M370.246 95.3883C374.005 99.6961 372.495 103.614 370.313 109.774C370.444 111.634 374.204 110.832 377.352 113.072C382.398 116.244 382.636 119.581 383.204 121.156C384.574 124.956 379.103 129.524 375.289 129.397C369.886 129.217 367.421 124.45 365.909 125.262C364.66 125.932 367.329 131.37 367.798 132.617C368.681 138.459 361.704 138.537 357.968 137.892C354.031 137.213 352.106 131.463 351.68 128.346C351.869 121.722 345.887 128.989 342.251 129.774C338.907 130.496 333.339 129.457 332.615 123.716C331.361 113.761 349.212 116.221 340.694 110.866C333.157 106.127 337.713 97.2368 344.043 95.8701C348.361 93.9658 355.828 97.5558 356.709 101.222C357.199 103.262 356.902 101.34 359.253 97.5996C361.116 94.6363 367.215 91.9145 370.246 95.3883Z" fill="#73ABFF" stroke="black" stroke-width="6" stroke-linecap="round"/>
<path d="M19.9394 204.118C25.0491 202.798 27.7589 205.755 32.0966 210.241C33.716 210.929 34.5176 207.413 37.6434 205.721C42.3015 202.827 45.2087 204.06 46.7599 204.258C50.5028 204.735 52.2042 211.311 50.5984 214.473C48.3231 218.953 43.3347 218.985 43.4248 220.608C43.4992 221.949 49.1334 222.034 50.3696 222.174C55.6427 223.939 52.9659 229.857 50.9543 232.73C48.8341 235.759 43.2288 234.914 40.4332 233.934C34.922 230.93 38.6984 239.096 37.9314 242.499C37.2259 245.63 34.1618 249.88 29.0365 248.024C20.1491 244.806 29.2392 230.807 21.3758 235.691C14.418 240.013 8.71212 232.351 10.0474 226.425C10.1389 221.965 16.1007 217.209 19.538 218.041C21.4509 218.505 19.7133 217.929 17.4836 214.34C15.717 211.496 15.8188 205.183 19.9394 204.118Z" fill="#FF7373" stroke="black" stroke-width="6" stroke-linecap="round"/>
<path d="M41 106.47C41 111.885 44.0765 116.496 51.255 114.543C57.408 112.59 58.4335 111.613 61.158 108.683C64.2192 105.39 65.612 99.8922 61.158 96.4744C55.357 94.032 51.1897 94.9267 47.153 96.9621C44.6605 98.2189 41 101.847 41 106.47Z" fill="#FFF665" stroke="black" stroke-width="6" stroke-linecap="round"/>
<path d="M373 206.044C373 211.729 376.076 216.571 383.255 214.52C389.408 212.47 390.433 211.443 393.158 208.367C396.219 204.91 397.612 199.137 393.158 195.548C387.357 192.984 383.19 193.923 379.153 196.06C376.66 197.38 373 201.189 373 206.044Z" fill="#FFF665" stroke="black" stroke-width="6" stroke-linecap="round"/>
<path d="M369.423 306.817C367.146 310.903 367.417 315.616 373.399 317.018C378.643 318.009 379.792 317.682 382.983 316.562C386.568 315.304 389.882 311.712 388.118 307.348C384.975 303.181 381.604 302.187 377.846 302.106C375.525 302.056 371.368 303.327 369.423 306.817Z" fill="#FFF665" stroke="black" stroke-width="6" stroke-linecap="round"/>
<path d="M349.603 112.457C347.255 116.192 347.101 120.532 352.253 121.892C356.79 122.865 357.829 122.577 360.733 121.583C363.997 120.467 367.216 117.2 366.026 113.163C363.606 109.292 360.719 108.338 357.416 108.219C355.376 108.147 351.608 109.268 349.603 112.457Z" fill="#FFF665" stroke="black" stroke-width="6" stroke-linecap="round"/>
<path d="M25.5681 229.202C27.6046 232.481 31.1904 234.123 34.7755 230.257C37.7437 226.775 37.9932 225.8 38.5306 223.007C39.1344 219.869 37.9046 216.019 33.9389 215.614C29.5293 216.304 27.3581 218.403 25.6945 221.145C24.6673 222.837 23.829 226.402 25.5681 229.202Z" fill="#FFF665" stroke="black" stroke-width="6" stroke-linecap="round"/>
<path d="M153 193.279C158.957 191.696 166.591 189.303 172.95 190.193C173.32 190.244 166.395 194.905 165.483 195.451C162.353 197.325 158.881 201.097 155.1 201.509C154.537 201.57 152.718 202.79 154.4 202.424C158.754 201.476 162.893 199.686 167.233 198.651C171.784 197.567 172.95 199.223 167.7 198.937C165.323 198.808 162.031 198.956 160.875 200.995C155.917 209.739 168.998 207.046 174 204.595" stroke="black" stroke-width="6" stroke-linecap="round"/>
<path d="M221 193.279C226.673 191.696 233.944 189.303 240 190.193C240.352 190.244 233.757 194.905 232.889 195.451C229.907 197.325 226.601 201.097 223 201.509C222.464 201.57 220.731 202.79 222.333 202.424C226.48 201.476 230.422 199.686 234.556 198.651C238.89 197.567 240 199.223 235 198.937C232.737 198.808 229.601 198.956 228.5 200.995C223.778 209.739 236.236 207.046 241 204.595" stroke="black" stroke-width="6" stroke-linecap="round"/>
<path d="M173 3C172.521 7.97844 172 12.9839 172 18" stroke="black" stroke-width="6" stroke-linecap="round"/>
<path d="M162 23C168.922 20.9598 176.683 21.0001 184 21.0001" stroke="black" stroke-width="6" stroke-linecap="round"/>
<path d="M176.095 34.1567C175.592 34.1567 175.089 34.1551 174.586 34.1596C174.43 34.161 173.609 34.0739 173.41 34.2116C173.107 34.4208 172.83 34.6576 172.509 34.8558C171.787 35.3017 171.118 36.0052 170.683 36.7566C170.361 37.3117 170.308 38.1696 170.251 38.7932C170.081 40.6351 169.587 42.9545 170.747 44.5679C171.439 45.5305 172.303 45.9896 173.401 46.2954C174.474 46.5942 175.619 46.8966 176.731 46.9887C177.187 47.0266 177.619 46.9638 178.069 46.879C178.844 46.7327 179.648 46.5923 180.4 46.3416C181.056 46.123 181.477 45.8185 181.816 45.1977C182.865 43.2788 183.201 40.9349 182.887 38.7614C182.745 37.778 182.455 36.8409 182.073 35.9304C181.932 35.5932 181.742 35.3273 181.543 35.0291C181.391 34.8015 181.285 34.5377 181.114 34.3242C180.829 33.9697 180.486 34.0007 180.077 34.0007C179.586 34.0007 179.095 34.0007 178.604 34.0007" stroke="black" stroke-width="6" stroke-linecap="round"/>
<path d="M187 38C188.404 37.9325 189.781 37.6977 191.171 37.4444C191.637 37.3596 192.118 37.3112 192.572 37.1429C192.702 37.0945 192.881 37 193 37" stroke="black" stroke-width="6" stroke-linecap="round"/>
<path d="M194 28C195.051 32.8389 194.451 37.781 194.59 42.6527C194.622 43.7757 195 44.8812 195 46" stroke="black" stroke-width="6" stroke-linecap="round"/>
<path d="M204 26C204.356 27.4804 204.574 28.9213 204.632 30.4414C204.673 31.5426 204.674 32.6377 204.678 33.7393C204.684 35.1347 204.741 36.5224 204.684 37.9179C204.642 38.9584 204.632 39.9956 204.632 41.0367C204.632 41.9185 204.608 42.8044 204.667 43.6848C204.721 44.4949 204.892 45.292 204.939 46.1019C204.957 46.413 204.939 46.6973 205 47" stroke="black" stroke-width="6" stroke-linecap="round"/>
<path d="M190 55C188.445 57.2207 186.96 58.9284 184.948 60.6969C183.719 61.7774 181.906 62.8999 180.938 64.2236C180.686 64.5675 180 66.1597 180 65.9869" stroke="black" stroke-width="6" stroke-linecap="round"/>
<path d="M188 60C192.936 60.7183 197.533 63.0426 202.404 64.184C203.518 64.4452 205.204 64.2122 206 65" stroke="black" stroke-width="6" stroke-linecap="round"/>
<path d="M232 68C232.299 68.9412 233 70.0486 233 71" stroke="black" stroke-width="6" stroke-linecap="round"/>
<path d="M246 65C245.919 66.3577 245.435 67.6548 245 69" stroke="black" stroke-width="6" stroke-linecap="round"/>
<path d="M258 67C257.728 68.0504 257.402 69.0051 257 70" stroke="black" stroke-width="6" stroke-linecap="round"/>
</svg>
