<svg width="450" height="450" viewBox="0 0 450 450" fill="none" xmlns="http://www.w3.org/2000/svg">
<g opacity="0.3">
<path d="M314.315 330.717C314.825 340.45 314.872 350.206 314.408 359.928C314.199 364.466 313.851 369.523 313.445 373.75C313.352 374.706 313.271 375.685 313.12 376.63C313.039 377.102 312.911 377.54 312.795 378.001C312.679 378.461 312.865 377.759 312.9 377.701C313.132 377.344 313.526 377.148 313.027 377.517C313.584 377.102 314.269 376.791 314.814 376.434C315.359 376.077 315.092 376.353 314.744 376.434C313.712 376.641 315.51 376.434 314.454 376.434C313.398 376.434 312.041 376.434 310.846 376.434L293.77 376.492C291.066 376.492 287.633 378.116 287.076 381.041C286.955 381.663 286.979 382.303 287.144 382.913C287.31 383.524 287.613 384.089 288.031 384.567C288.449 385.044 288.971 385.42 289.557 385.668C290.143 385.915 290.778 386.027 291.414 385.995L307.911 385.937C310.521 385.937 313.364 386.179 315.927 385.545C317.73 385.156 319.4 384.308 320.773 383.084C322.146 381.86 323.175 380.303 323.758 378.565C324.365 376.156 324.696 373.687 324.744 371.205C324.999 368.567 325.197 365.929 325.371 363.291C325.726 357.916 325.931 352.541 325.985 347.165C326.047 341.022 325.912 334.879 325.58 328.736C325.429 325.902 322.157 324.578 319.663 325.119C317.169 325.66 314.152 327.791 314.315 330.774V330.717Z" fill="black"/>
<path d="M256.44 333.272C257.195 344.754 256.925 356.278 255.632 367.716C255.293 370.627 254.895 373.516 254.462 376.405C254.335 377.44 254.135 378.465 253.866 379.474C253.782 379.754 253.68 380.028 253.561 380.295C254.004 379.514 254.618 378.836 255.362 378.308C256.106 377.78 256.961 377.414 257.867 377.237C257.645 377.237 256.405 377.451 256.627 377.428C250.578 377.923 244.483 378.125 238.434 378.474C237.056 378.591 235.715 378.968 234.488 379.583C233.262 380.199 232.173 381.04 231.285 382.06C230.466 383.015 228.735 386.152 231.531 385.994L247.443 385.073C250.59 384.893 253.526 384.78 256.44 383.476C258.106 382.786 259.608 381.776 260.853 380.508C262.099 379.24 263.061 377.74 263.682 376.102C264.307 373.671 264.741 371.198 264.98 368.705C265.355 366.179 265.675 363.643 265.94 361.095C266.478 356.013 266.809 350.914 266.934 345.795C267.09 339.95 266.969 334.112 266.572 328.281C266.419 325.965 262.535 327.382 261.412 327.966C259.657 328.866 256.311 330.956 256.463 333.272H256.44Z" fill="black"/>
<path d="M397.631 262.733C404.135 282.25 401.192 302.306 389.07 321.077C388.172 322.449 396.208 326.03 397.062 324.714C409.278 305.688 412.176 285.366 405.491 265.605C404.656 264.327 403.001 263.24 400.806 262.527C399.799 262.161 397.215 261.475 397.631 262.687V262.733Z" fill="black"/>
<path d="M171.871 251.47C151.25 252.566 132.706 244.254 117.926 227.29C116.848 226.038 111.184 232.948 112.218 234.142C127.219 251.268 146.032 259.607 166.939 258.4C168.401 257.927 169.906 256.598 171.197 254.638C171.827 253.75 173.199 251.402 171.915 251.482L171.871 251.47Z" fill="black"/>
<path d="M421.764 141.671C429.56 158.447 411.772 181.43 412.566 198.856C413.371 216.918 432.872 238.222 426.847 254.987C420.821 271.752 392.271 275.515 380.164 288.865C368.493 301.74 367.516 330.859 350.855 338.721C334.194 346.583 311.37 328.659 294.065 329.458C276.139 330.269 254.971 349.906 238.322 343.839C221.672 337.772 217.935 309.023 204.678 296.831C191.892 285.079 162.974 284.095 155.236 267.318C147.497 250.541 165.216 227.558 164.434 210.133C163.629 192.071 144.128 170.767 150.153 154.001C156.179 137.236 184.729 133.473 196.836 120.123C208.507 107.248 209.484 78.1291 226.145 70.2791C242.806 62.429 265.63 80.329 282.935 79.5417C300.872 78.7312 322.029 59.0945 338.678 65.1615C355.328 71.2285 359.065 99.9773 372.322 112.169C385.039 123.91 413.957 124.894 421.764 141.671Z" fill="black"/>
<path d="M267.152 205.49C274.974 204.274 282.857 203.05 290.719 202.168C292.922 201.921 301.572 199.405 300.97 202.626C299.33 211.394 296.182 218.844 292.764 227.052C292.064 228.735 287.493 239.051 285.652 237.912C283.811 236.774 278.087 228.157 276.275 224.046C275.136 221.462 268.982 209.154 267 207.012" stroke="black" stroke-width="6" stroke-linecap="round"/>
<path d="M304.919 176.154C305.365 176.687 306.521 180.45 307.973 179.804C310.68 178.6 311.499 174.343 310.156 171.981C306.786 166.053 305.414 174.592 305.005 175.532" stroke="black" stroke-width="6" stroke-linecap="round"/>
<path d="M259.786 176.154C260.232 176.687 261.388 180.45 262.84 179.804C265.547 178.6 266.366 174.343 265.023 171.981C261.653 166.053 260.281 174.592 259.872 175.532" stroke="black" stroke-width="6" stroke-linecap="round"/>
<path d="M301.886 74.7071C291.992 79.9665 285.106 82.0926 275.446 82.0926C262.226 82.0926 261.21 64.9717 230.702 69.8394C200.195 74.7071 209.347 128.042 169.931 135.734C164.079 137.04 146.298 149.485 149.349 171.95C151.536 181.829 155.85 193.917 162.275 200.748C166.749 205.505 164.482 222.131 161.897 227.322L161.805 227.507C155.811 239.543 146.41 258.422 154.434 272.017C157.492 277.199 162.275 280.186 168.67 282.229C175.066 284.271 182.814 288.262 185.958 289.583C197.257 294.333 202.84 295.487 210.364 303.672C219.737 313.868 218.802 332.744 230.702 341.452C245.224 352.079 249.485 348.057 266.294 341.452C276.188 337.565 278.343 333.352 287.649 329.199C289.888 328.2 301.849 327.621 303.92 330.22C308.792 336.335 314.089 338.389 330.359 339.41C343.579 342.543 360.009 334.79 362.901 331.241C372.674 319.247 374.146 313.782 372.111 294.709C370.137 276.212 397.269 275.491 412.376 269.975C423.241 266.008 429 258.877 429 247.511C429 241.135 424.354 237.393 422.585 231.173C421.226 226.4 412.376 216.703 412.376 210.428C412.376 200.509 410.614 201.614 412.376 190.329C413.933 180.367 422.585 165.41 422.585 155.612C422.585 143.988 413.282 133.261 401.543 127.021C391.519 121.692 377.137 125.092 366.968 113.747C348.664 93.3248 364.934 74.7071 334.427 64.7341C317.14 61.6706 312.963 68.8175 301.886 74.7071Z" stroke="black" stroke-width="6" stroke-linecap="round"/>
<path d="M38.6128 178.203H94.7866C97.31 178.809 95.2746 183.915 94.257 188.001C93.2393 192.086 92.6187 194.98 92.2216 197.193C91.1524 203.15 89.2896 205.076 88.216 209.985L88.1101 210.469C85.3498 223.091 82.5062 236.093 77.3366 247.766C74.7636 253.576 69.9181 253.117 64.4646 253.117C55.5805 253.117 39.4666 256.514 32.9577 249.982C24.9113 241.907 24.7056 234.561 23.0481 223.748C22.0954 217.533 22.0015 210.618 22.0015 204.343C22.0015 200.787 21.9173 193.108 23.0481 186.98C23.8018 182.895 23.5746 180.574 27.0897 178.81C29.7752 177.462 35.653 178.203 38.6128 178.203Z" fill="black" stroke="black" stroke-width="6" stroke-linecap="round"/>
<path d="M90.9335 204.278C94.2059 200.496 102.452 197.813 109.093 202.477C115.733 207.141 119 212.208 119 219.801C119 222.918 117.485 226.894 115.95 229.805C112.858 235.668 105.007 236.795 100.339 236.936C92.957 237.158 86.8106 237.079 84 232.003" stroke="black" stroke-width="6" stroke-linecap="round"/>
<path d="M87.1694 220.436C89.7434 217.184 94.5527 211.49 99.8588 212.838C105.971 214.39 108.41 217.012 106.157 222.939C102.947 231.386 91.2485 226.445 87.7796 223.43" stroke="black" stroke-width="6" stroke-linecap="round"/>
<path d="M30.8365 178C20.9307 175.52 23.4311 170 28.0817 166.839C32.3667 163.927 36.3807 168.617 40.3399 163.946C45.8213 157.478 28.7934 154.844 46.4691 148.095C54.6414 144.975 54.6414 161.981 61.7922 149.831C68.4322 138.548 77.4557 145.828 75.0248 153.303C73.6929 157.399 77.4604 158.297 78.1353 158.985C80.1784 161.113 77.4469 157.753 86.3091 152.831C89.1489 151.253 96.1231 149.068 98.4679 152.831C99.7696 154.919 100.225 156.588 99.9276 158.985C99.7939 160.064 93.2459 163.879 95.2783 163.946C98.3349 164.045 101.033 163.83 101.82 166.839C103.043 171.516 97.7715 173.434 94.0889 175.52" stroke="black" stroke-width="6" stroke-linecap="round"/>
<path d="M57 205C56.8798 212.359 56 219.64 56 227" stroke="black" stroke-width="6" stroke-linecap="round"/>
<path d="M72 206C69.9821 210.734 68 222.407 68 227" stroke="black" stroke-width="6" stroke-linecap="round"/>
<path d="M40 204C41.6402 211.33 42.4602 221.8 43 228" stroke="black" stroke-width="6" stroke-linecap="round"/>
</g>
</svg>
