<svg width="62" height="62" viewBox="0 0 62 62" fill="none" xmlns="http://www.w3.org/2000/svg">
<path d="M35.7049 53.3158C34.9725 54.6747 34.176 55.999 33.3139 57.2769C32.9125 57.8742 32.4497 58.5302 32.0475 59.0692C31.9564 59.1911 31.8649 59.3169 31.767 59.4325C31.7172 59.4898 31.6641 59.5386 31.6107 59.5915C31.5572 59.6444 31.6399 59.5645 31.6493 59.5595C31.7098 59.5301 31.7788 59.5358 31.6816 59.545C31.7903 59.5342 31.9077 59.5479 32.0102 59.544C32.1127 59.5402 32.0542 59.5558 32.0009 59.5384C31.8454 59.4823 32.1035 59.6008 31.962 59.5147C31.8204 59.4287 31.6384 59.318 31.4782 59.2207L29.184 57.8366C28.8216 57.6163 28.2276 57.5562 27.9122 57.9068C27.8449 57.981 27.7954 58.0696 27.7673 58.1657C27.7393 58.2619 27.7334 58.3631 27.7502 58.4617C27.767 58.5604 27.806 58.6539 27.8642 58.7352C27.9225 58.8164 27.9984 58.8833 28.0863 58.9308L30.3028 60.2676C30.6528 60.4803 31.014 60.7448 31.4098 60.868C31.6836 60.9622 31.9772 60.9835 32.262 60.9298C32.5468 60.876 32.8128 60.7491 33.034 60.5615C33.3137 60.285 33.5611 59.9778 33.7718 59.6457C34.0231 59.3095 34.2666 58.9685 34.507 58.6257C34.9969 57.9272 35.4667 57.2164 35.9163 56.4932C36.43 55.6668 36.9174 54.8244 37.3783 53.9658C37.5912 53.57 37.2616 53.1241 36.8826 52.994C36.5037 52.864 35.9239 52.9066 35.7002 53.3236L35.7049 53.3158Z" fill="black"/>
<path d="M24.7278 54.018C23.132 54.8962 21.4621 55.6318 19.7365 56.2165C19.2966 56.3639 18.856 56.5015 18.4131 56.634C18.2563 56.6854 18.096 56.726 17.9334 56.7555C17.8878 56.7623 17.8418 56.7663 17.7956 56.7674C17.9369 56.7777 18.0749 56.8194 18.2001 56.8894C18.3252 56.9595 18.4344 57.0563 18.5201 57.173C18.5053 57.1414 18.3923 56.9798 18.4103 57.0099C17.9373 56.1849 17.5032 55.3336 17.0512 54.4988C16.9428 54.3111 16.7996 54.1461 16.6299 54.0134C16.4602 53.8807 16.2672 53.7828 16.062 53.7253C15.8706 53.6733 15.3059 53.6382 15.5143 54.0244L16.704 56.2201C16.939 56.6545 17.1503 57.0636 17.5308 57.3894C17.7405 57.5795 17.9851 57.7248 18.2497 57.8163C18.5143 57.9079 18.7932 57.9437 19.0693 57.9217C19.4594 57.8473 19.8427 57.7428 20.216 57.6093C20.6029 57.4928 20.9879 57.3678 21.3708 57.2343C22.1349 56.9695 22.888 56.674 23.6301 56.348C24.4785 55.9776 25.3073 55.5684 26.1167 55.1204C26.4386 54.9433 25.9774 54.4873 25.8189 54.3672C25.5734 54.1786 25.0512 53.8442 24.7294 54.0213L24.7278 54.018Z" fill="black"/>
<path d="M48.2354 43.132C50.6889 45.2869 51.8677 48.2765 51.6645 51.8287C51.6481 52.0894 53.0525 51.9338 53.0673 51.6845C53.2634 48.0896 52.0573 45.0672 49.5591 42.8932C49.3414 42.7851 49.0244 42.7691 48.6619 42.8481C48.4924 42.879 48.0777 42.9928 48.2318 43.1257L48.2354 43.132Z" fill="black"/>
<path d="M17.0995 42.4882C14.6461 44.6431 13.4673 47.6327 13.6704 51.1849C13.6869 51.4456 12.2825 51.29 12.2676 51.0407C12.0715 47.4458 13.2777 44.4234 15.7758 42.2494C15.9935 42.1413 16.3105 42.1253 16.6731 42.2043C16.8426 42.2352 17.2573 42.349 17.1032 42.4819L17.0995 42.4882Z" fill="black"/>
<path d="M53.6682 24.3184C54.9011 26.972 52.088 30.6071 52.2135 33.3633C52.3408 36.2201 55.4248 39.5897 54.4719 42.2414C53.5191 44.8932 49.0039 45.4883 47.0891 47.5998C45.2435 49.6362 45.0889 54.242 42.454 55.4854C39.8191 56.7289 36.2096 53.894 33.4729 54.0204C30.638 54.1486 27.2903 57.2545 24.6573 56.2949C22.0242 55.3353 21.4332 50.7881 19.3366 48.8598C17.3145 47.001 12.7412 46.8453 11.5174 44.1918C10.2936 41.5382 13.0958 37.9031 12.9721 35.1469C12.8449 32.2901 9.76082 28.9205 10.7137 26.2688C11.6665 23.617 16.1816 23.0219 18.0964 20.9104C19.9421 18.874 20.0967 14.2682 22.7315 13.0266C25.3664 11.785 28.976 14.6162 31.7127 14.4916C34.5494 14.3634 37.8953 11.2576 40.5284 12.2172C43.1614 13.1768 43.7524 17.7239 45.849 19.6523C47.8602 21.5092 52.4335 21.6649 53.6682 24.3184Z" fill="#FFB800"/>
<path d="M34.803 13.7672C33.2363 14.5966 32.1459 14.9319 30.6162 14.9319C28.5227 14.9319 28.3617 12.2319 23.5307 12.9995C18.6997 13.7672 20.149 22.1784 13.9073 23.3915C12.9806 23.5974 10.1649 25.5601 10.6481 29.1028C10.9943 30.6609 11.6775 32.5671 12.6949 33.6444C13.4035 34.3947 13.0444 37.0167 12.635 37.8354L12.6205 37.8645C11.6714 39.7626 10.1826 42.7399 11.4532 44.8841C11.9375 45.7013 12.6949 46.1723 13.7077 46.4944C14.7205 46.8165 15.9474 47.4459 16.4453 47.6543C18.2345 48.4033 19.1186 48.5854 20.3101 49.8761C21.7944 51.4841 21.6462 54.4609 23.5307 55.8343C25.8303 57.5103 26.5051 56.8759 29.1669 55.8343C30.7336 55.2212 31.0749 54.5569 32.5486 53.9019C32.9032 53.7443 34.7972 53.6531 35.1251 54.063C35.8966 55.0273 36.7354 55.3512 39.312 55.5123C41.4054 56.0064 44.0071 54.7837 44.465 54.224C46.0126 52.3325 46.2457 51.4705 45.9235 48.4626C45.6109 45.5455 49.9075 45.4319 52.2998 44.562C54.0202 43.9364 54.9322 42.8117 54.9322 41.0193C54.9322 40.0138 54.1965 39.4236 53.9163 38.4427C53.7012 37.6899 52.2998 36.1607 52.2998 35.1712C52.2998 33.6067 52.0206 33.7811 52.2998 32.0014C52.5462 30.4304 53.9163 28.0715 53.9163 26.5263C53.9163 24.6932 52.4432 23.0015 50.5843 22.0174C48.9969 21.177 46.7195 21.7132 45.1091 19.9239C42.2105 16.7033 44.7871 13.7672 39.9561 12.1944C37.2185 11.7113 36.5572 12.8384 34.803 13.7672Z" stroke="black" stroke-linecap="round"/>
<path d="M32.4312 28.4587C32.7777 29.2319 33.1714 30.2018 34.3004 29.7242C34.9427 29.3966 35.2648 29.2356 36.0042 28.7565" stroke="black" stroke-linecap="round"/>
<path d="M25.668 29.2458C26.1477 29.9442 26.709 30.8277 27.734 30.1552C28.3071 29.7177 28.595 29.5015 29.2364 28.8974" stroke="black" stroke-linecap="round"/>
<path d="M26.0405 34.8208C26.8994 35.9693 28.1061 37.6272 29.0823 38.4534C29.1114 38.478 29.227 38.5733 29.2655 38.5733C29.3844 38.5733 29.5203 38.4813 29.6261 38.4247C29.9746 38.2383 30.3283 38.0698 30.6764 37.8827C31.957 37.1945 33.173 36.2844 34.3947 35.4306C35.0374 34.9813 37.0088 33.589 37.6349 33.0981" stroke="black" stroke-linecap="round"/>
<path d="M31.5404 14.6502C31.5108 13.6128 31.7695 11.3124 31.8785 10.2783" stroke="black" stroke-linecap="round"/>
<path d="M33.3266 7.10162C32.9867 7.6587 32.2599 9.74713 31.8784 10.2784C31.9783 10.3783 32.3021 10.4006 32.4519 10.3682C33.2121 10.2039 33.9839 10.0991 34.7305 9.87331C35.4495 9.6558 36.2355 9.46033 36.8686 9.0436C37.3131 8.75101 37.7791 8.44705 38.1897 8.1095C38.5855 7.78406 38.8946 7.37856 39.2426 7.00623C39.4421 6.7927 39.6648 6.60332 39.8635 6.3889C40.4053 5.80427 40.8635 5.19769 41.2349 4.48831C41.5742 3.84041 41.7279 3.08997 42.16 2.49774C42.2401 2.38796 41.9065 2.33936 41.8289 2.33936H41.8246C40.5929 2.33936 39.1627 2.33935 38.0637 2.97288C37.4364 3.33452 36.7841 3.65477 36.1793 4.05456C35.551 4.46988 35.0692 4.95499 34.5757 5.525C34.1384 6.0301 33.6754 6.52995 33.3266 7.10162Z" fill="#F5FFE6" stroke="black" stroke-linecap="round"/>
<path d="M28.6295 5.75871C29.6657 6.86403 30.4983 9.2189 31.443 10.4058C31.2213 10.5536 30.7064 10.4738 30.4689 10.4706C29.8261 10.4619 29.2064 10.3137 28.5845 10.1628C28.0437 10.0316 27.4805 9.89908 26.9845 9.63907C26.325 9.29337 25.7044 8.81052 25.1055 8.37201C24.5972 7.99982 24.1616 7.55754 23.752 7.07976C23.0031 6.20599 22.278 5.14477 22.0638 3.99491C21.983 3.56091 21.7993 3.16034 21.6751 2.73865C21.6579 2.68038 21.5342 2.38934 21.6823 2.47228C21.9095 2.59955 22.1712 2.58923 22.4202 2.64506C22.868 2.74547 23.2602 2.95711 23.6729 3.149C24.3665 3.47158 25.1173 3.61807 25.8254 3.90132C26.3426 4.1082 26.8323 4.38187 27.2958 4.68963C27.7663 5.002 28.2419 5.34532 28.6295 5.75871Z" fill="#F5FFE6" stroke="black" stroke-linecap="round"/>
</svg>
