<svg width="442" height="421" viewBox="0 0 442 421" fill="none" xmlns="http://www.w3.org/2000/svg">
<path d="M236.315 365.717C236.825 375.45 236.872 385.206 236.408 394.928C236.199 399.466 235.851 404.523 235.445 408.75C235.352 409.706 235.271 410.685 235.12 411.63C235.039 412.102 234.911 412.54 234.795 413.001C234.679 413.461 234.865 412.759 234.9 412.701C235.132 412.344 235.526 412.148 235.027 412.517C235.584 412.102 236.269 411.791 236.814 411.434C237.359 411.077 237.092 411.353 236.744 411.434C235.712 411.641 237.51 411.434 236.454 411.434C235.398 411.434 234.041 411.434 232.846 411.434L215.77 411.492C213.066 411.492 209.633 413.116 209.076 416.041C208.955 416.663 208.979 417.303 209.144 417.913C209.31 418.524 209.613 419.089 210.031 419.567C210.449 420.044 210.971 420.42 211.557 420.668C212.143 420.915 212.778 421.027 213.414 420.995L229.911 420.937C232.521 420.937 235.364 421.179 237.927 420.545C239.73 420.156 241.4 419.308 242.773 418.084C244.146 416.86 245.175 415.303 245.758 413.565C246.365 411.156 246.696 408.687 246.744 406.205C246.999 403.567 247.197 400.929 247.371 398.291C247.726 392.916 247.931 387.541 247.985 382.165C248.047 376.022 247.912 369.879 247.58 363.736C247.429 360.902 244.157 359.578 241.663 360.119C239.169 360.66 236.152 362.791 236.315 365.774V365.717Z" fill="black"/>
<path d="M178.44 368.272C179.195 379.754 178.925 391.278 177.632 402.716C177.293 405.627 176.895 408.516 176.462 411.405C176.335 412.44 176.135 413.465 175.866 414.474C175.782 414.754 175.68 415.028 175.561 415.295C176.004 414.514 176.618 413.836 177.362 413.308C178.106 412.78 178.961 412.414 179.867 412.237C179.645 412.237 178.405 412.451 178.627 412.428C172.578 412.923 166.483 413.125 160.434 413.474C159.056 413.591 157.715 413.968 156.488 414.583C155.262 415.199 154.173 416.04 153.285 417.06C152.466 418.015 150.735 421.152 153.531 420.994L169.443 420.073C172.59 419.893 175.526 419.78 178.44 418.476C180.106 417.786 181.608 416.776 182.853 415.508C184.099 414.24 185.061 412.74 185.682 411.102C186.307 408.671 186.741 406.198 186.98 403.705C187.355 401.179 187.675 398.643 187.94 396.095C188.478 391.013 188.809 385.914 188.934 380.795C189.09 374.95 188.969 369.112 188.572 363.281C188.419 360.965 184.535 362.382 183.412 362.966C181.657 363.866 178.311 365.956 178.463 368.272H178.44Z" fill="black"/>
<path d="M319.631 297.733C326.135 317.25 323.192 337.306 311.07 356.077C310.172 357.449 318.208 361.03 319.062 359.714C331.278 340.688 334.176 320.366 327.491 300.605C326.656 299.327 325.001 298.24 322.806 297.527C321.799 297.161 319.215 296.475 319.631 297.687V297.733Z" fill="black"/>
<path d="M99.0054 303.235L105.916 368.853C105.918 369.594 106.437 370.312 107.384 370.881C108.33 371.45 109.644 371.836 111.098 371.97C113.655 372.178 117.156 371.278 116.995 369.765L110.085 304.147C110.093 303.406 109.58 302.688 108.636 302.118C107.693 301.548 106.379 301.163 104.925 301.03C102.345 300.822 98.8441 301.722 99.0054 303.235Z" fill="black"/>
<path d="M343.764 176.671C351.56 193.447 333.772 216.43 334.566 233.856C335.371 251.918 354.872 273.222 348.847 289.987C342.821 306.752 314.271 310.515 302.164 323.865C290.493 336.74 289.516 365.859 272.855 373.721C256.194 381.583 233.37 363.659 216.065 364.458C198.139 365.269 176.971 384.906 160.322 378.839C143.672 372.772 139.935 344.023 126.678 331.831C113.892 320.079 84.974 319.095 77.2357 302.318C69.4974 285.541 87.2162 262.558 86.4343 245.133C85.6294 227.071 66.1284 205.767 72.1535 189.001C78.1785 172.236 106.729 168.473 118.836 155.123C130.507 142.248 131.484 113.129 148.145 105.279C164.806 97.429 187.63 115.329 204.935 114.542C222.872 113.731 244.029 94.0945 260.678 100.161C277.328 106.228 281.065 134.977 294.322 147.169C307.039 158.91 335.957 159.894 343.764 176.671Z" fill="#FFB800"/>
<path d="M189.152 240.49C196.974 239.274 204.857 238.05 212.719 237.168C214.922 236.921 223.572 234.405 222.97 237.626C221.33 246.394 218.182 253.844 214.764 262.052C214.064 263.735 209.493 274.051 207.652 272.912C205.811 271.774 200.087 263.157 198.275 259.046C197.136 256.462 190.982 244.154 189 242.012" stroke="black" stroke-width="6" stroke-linecap="round"/>
<path d="M226.842 211.154C227.289 211.687 228.445 215.45 229.897 214.804C232.604 213.6 233.423 209.343 232.08 206.981C228.71 201.053 227.338 209.592 226.929 210.532" stroke="black" stroke-width="6" stroke-linecap="round"/>
<path d="M181.709 211.154C182.155 211.687 183.311 215.45 184.764 214.804C187.471 213.6 188.289 209.343 186.946 206.981C183.577 201.053 182.205 209.592 181.796 210.532" stroke="black" stroke-width="6" stroke-linecap="round"/>
<path d="M223.886 109.707C213.992 114.966 207.106 117.093 197.446 117.093C184.226 117.093 183.21 99.9717 152.702 104.839C122.195 109.707 131.347 163.042 91.9309 170.734C86.0789 172.04 68.2983 184.485 71.3492 206.95C73.5358 216.829 77.8497 228.917 84.2748 235.748C88.7493 240.505 86.4817 257.131 83.8967 262.322L83.8049 262.507C77.8113 274.543 68.4099 293.422 76.4337 307.017C79.4918 312.199 84.2748 315.186 90.6705 317.229C97.0662 319.271 104.814 323.262 107.958 324.583C119.257 329.333 124.84 330.487 132.364 338.672C141.737 348.868 140.802 367.744 152.702 376.452C167.224 387.079 171.485 383.057 188.294 376.452C198.188 372.565 200.343 368.352 209.649 364.199C211.888 363.2 223.849 362.621 225.92 365.22C230.792 371.335 236.089 373.389 252.359 374.41C265.579 377.543 282.009 369.79 284.901 366.241C294.674 354.247 296.146 348.782 294.111 329.709C292.137 311.212 319.269 310.491 334.376 304.975C345.241 301.008 351 293.877 351 282.511C351 276.135 346.354 272.393 344.585 266.173C343.226 261.4 334.376 251.703 334.376 245.428C334.376 235.509 332.614 236.614 334.376 225.329C335.933 215.367 344.585 200.41 344.585 190.612C344.585 178.988 335.282 168.261 323.543 162.021C313.519 156.692 299.137 160.092 288.968 148.747C270.664 128.325 286.934 109.707 256.427 99.7341C239.14 96.6706 234.963 103.817 223.886 109.707Z" stroke="black" stroke-width="6" stroke-linecap="round"/>
<path d="M40.3183 124.995C43.5471 128.497 49.9061 137.138 53.1744 140.703C53.1744 142.09 59.887 138.184 60.3874 137.822C64.457 134.88 68.3648 132.026 71.7372 128.218C76.3948 122.959 84.2459 118.751 86.1632 111.464C87.3485 106.96 87.3621 102.868 85.6371 98.863C84.1914 95.5067 80.7525 93.1703 77.5501 91.7443C74.3476 90.3183 69.9339 90.6453 66.4304 93.7782C64.4163 95.5793 59.1172 106.363 58.3434 101.914C58.125 100.659 57.598 95.0247 57.3325 93.7782C57.0036 92.2343 55.435 89.697 54.2999 88.6934C50.9354 85.719 49.1262 85 44.3703 85C42.4522 85 37.7216 86.3192 36.3724 87.6765C31.1111 91.7443 30.5064 97.4084 30.0387 103.948C29.7551 107.914 31.0442 112.643 33.4023 116.117C34.4667 117.685 35.9465 119.734 37.1149 121.236C38.267 122.717 39.0432 123.613 40.3183 124.995Z" stroke="black" stroke-width="6" stroke-linecap="round"/>
<path d="M23.7173 239.079C29.5598 244.892 31.9629 252.507 32.7776 251.969C33.5923 251.432 34.3951 250.714 35.1051 250.051C36.5571 248.694 38.0938 245.507 40.1477 244.152C43.2285 242.121 44.2554 241.105 47.3362 241.105C51.3119 241.105 54.5113 243.413 55.5517 245.168C56.9525 247.532 57.9929 250.429 57.9929 251.991C57.9929 256.398 58.1848 258.318 56.5785 262.437C55.6403 264.843 52.9323 268.487 51.4438 270.564C50.266 272.207 48.9003 273.294 47.336 274.627C43.2076 278.145 39.859 282.221 35.0128 284.785C32.3509 286.194 29.4642 288.578 27.1526 290.513C25.4124 291.97 24.2586 289.821 22.7561 288.488C19.1132 285.254 15.7982 281.988 13.0364 277.978C11.5857 275.871 10.3665 274.627 8.89846 271.326C6.25893 267.516 3.60419 262.116 3.17796 258.374C2.36505 251.237 4.26514 244.017 10.3667 239.079C12.2394 237.563 14.9116 235.763 17.5552 236.026C20.1988 236.288 22.6898 238.057 23.7173 239.079Z" fill="#FF6B6B" stroke="black" stroke-width="6" stroke-linecap="round"/>
<path d="M365.717 88.0794C371.56 93.8917 373.963 101.507 374.778 100.969C375.592 100.432 376.395 99.714 377.105 99.0507C378.557 97.6943 380.094 94.5067 382.148 93.1522C385.228 91.1206 386.255 90.1048 389.336 90.1048C393.312 90.1048 396.511 92.4129 397.552 94.1682C398.953 96.5317 399.993 99.4286 399.993 100.991C399.993 105.398 400.185 107.318 398.578 111.437C397.64 113.843 394.932 117.487 393.444 119.564C392.266 121.207 390.9 122.294 389.336 123.627C385.208 127.145 381.859 131.221 377.013 133.785C374.351 135.194 371.464 137.578 369.153 139.513C367.412 140.97 366.259 138.821 364.756 137.488C361.113 134.254 357.798 130.988 355.036 126.978C353.586 124.871 352.366 123.627 350.898 120.326C348.259 116.516 345.604 111.116 345.178 107.374C344.365 100.237 346.265 93.017 352.367 88.0788C354.239 86.5632 356.912 84.7632 359.555 85.0257C362.199 85.2881 364.69 87.0573 365.717 88.0794Z" fill="#FFAEAE" stroke="black" stroke-width="6" stroke-linecap="round"/>
<path d="M375.071 237.47C379.97 250.289 390.579 260.852 401.088 269C404.818 267.755 406.72 263.887 410.989 260.715C413.527 258.83 415.174 256.28 417.953 254.682C419.879 252.923 421.579 251.214 422.904 250.047C428.069 245.494 431.584 242.054 435.312 236.274C437.566 232.781 439.532 227.894 438.87 223.583C438.602 221.839 437.545 217.97 436.234 216.865C433.27 212.752 430.142 212.914 427.143 212.752C423.345 212.546 418.701 214.651 415.618 216.865C412.798 218.89 410.453 221.394 408.01 223.841C406.196 225.658 406.493 226.213 405.631 224.163C405.107 222.918 404.904 221.24 404.677 219.911C404.405 218.31 404.188 217.045 403.616 215.535C401.996 211.258 400.89 207.659 397.529 204.571C394.599 201.878 389.992 200.45 385.829 201.198C380.984 202.069 377.151 205.921 374.857 210.169C372.593 214.361 372 219.592 372 224.163C372 228.534 373.489 233.33 375.071 237.47Z" fill="#FF5A5A" stroke="black" stroke-width="6" stroke-linecap="round"/>
<path d="M171.071 39.4695C175.97 52.2895 186.579 62.8521 197.088 71C200.818 69.7546 202.72 65.8865 206.989 62.7155C209.527 60.8298 211.174 58.28 213.953 56.6823C215.879 54.9233 217.579 53.2145 218.904 52.0466C224.069 47.4942 227.584 44.0537 231.312 38.2739C233.566 34.7807 235.532 29.8935 234.87 25.5833C234.602 23.8386 233.545 19.9699 232.234 18.8655C229.27 14.752 226.142 14.9143 223.143 14.752C219.345 14.5464 214.701 16.6515 211.618 18.8655C208.798 20.8904 206.453 23.394 204.01 25.8408C202.196 27.6576 202.493 28.2133 201.631 26.1627C201.107 24.9176 200.904 23.2398 200.677 21.9108C200.405 20.3104 200.188 19.0445 199.616 17.5348C197.996 13.2576 196.89 9.65907 193.529 6.57077C190.599 3.87807 185.992 2.44956 181.829 3.19781C176.984 4.06879 173.151 7.92094 170.857 12.1692C168.593 16.3606 168 21.5916 168 26.1627C168 30.5336 169.489 35.3301 171.071 39.4695Z" fill="#FF6666" stroke="black" stroke-width="6" stroke-linecap="round"/>
<path d="M391.314 369.999C383.998 377.244 373.411 381.176 363.63 383.487C361.422 381.479 361.285 378.245 359.292 374.754C358.107 372.678 357.743 370.424 356.303 368.47C355.504 366.67 354.847 364.975 354.284 363.766C352.091 359.052 350.703 355.61 349.882 350.503C349.386 347.417 349.515 343.466 351.291 340.725C352.01 339.615 353.926 337.298 355.173 336.95C358.485 335.057 360.606 336.138 362.736 336.956C365.434 337.993 368.014 340.873 369.476 343.342C370.814 345.601 371.676 348.039 372.624 350.47C373.327 352.274 372.951 352.562 374.176 351.427C374.92 350.738 375.573 349.654 376.136 348.816C376.815 347.807 377.352 347.008 378.209 346.154C380.64 343.732 382.507 341.615 385.782 340.546C388.638 339.614 392.271 340.066 394.931 341.868C398.026 343.966 399.509 347.787 399.803 351.403C400.093 354.97 398.906 358.73 397.51 361.855C396.174 364.843 393.676 367.66 391.314 369.999Z" fill="#FF6C6C" stroke="black" stroke-width="6" stroke-linecap="round"/>
<path d="M259 32C265.479 32.2506 271.79 35.1395 278.156 35.1395C280.746 35.1395 276.593 39.5049 276.1 40.093C272.694 44.152 270.168 48.443 268.38 53.3837C267.748 55.1297 266.143 57.2089 266.143 59" stroke="black" stroke-width="6" stroke-linecap="round"/>
<path d="M295 32C292.641 42.6852 291 54.0472 291 65" stroke="black" stroke-width="6" stroke-linecap="round"/>
<path d="M296 42C302.032 42.7677 307.912 43 314 43" stroke="black" stroke-width="6" stroke-linecap="round"/>
<path d="M293 53.0291C295.49 53.0291 297.472 52.7771 299.667 53.7553C300.539 54.144 302.202 53.8859 302.852 54.3495C304.376 55.4361 307.063 54.8493 309 56" stroke="black" stroke-width="6" stroke-linecap="round"/>
<path d="M313 69V72" stroke="black" stroke-width="6" stroke-linecap="round"/>
<path d="M321.944 74C321.944 75.8463 322.346 77.4716 321 79" stroke="black" stroke-width="6" stroke-linecap="round"/>
<path d="M330 81C329.35 82.3315 328.449 83.5631 328 85" stroke="black" stroke-width="6" stroke-linecap="round"/>
</svg>
