<svg width="26" height="26" viewBox="0 0 26 26" fill="none" xmlns="http://www.w3.org/2000/svg">
<circle cx="13" cy="13" r="10.5" stroke="#0066FF"/>
<path d="M12.7928 6H13.5822C13.6524 6 13.6875 6.05185 13.6875 6.15556V19.8444C13.6875 19.9481 13.6524 20 13.5822 20H12.7928C12.7226 20 12.6875 19.9481 12.6875 19.8444V6.15556C12.6875 6.05185 12.7226 6 12.7928 6Z" fill="#0066FF"/>
<path d="M6.16279 12.5H19.8372C19.9457 12.5 20 12.5351 20 12.6053V13.3947C20 13.4649 19.9457 13.5 19.8372 13.5H6.16279C6.05426 13.5 6 13.4649 6 13.3947V12.6053C6 12.5351 6.05426 12.5 6.16279 12.5Z" fill="#0066FF"/>
</svg>
