<svg width="450" height="450" viewBox="0 0 450 450" fill="none" xmlns="http://www.w3.org/2000/svg">
<g opacity="0.3">
<path d="M240.315 378.717C240.825 388.45 240.872 398.206 240.408 407.928C240.199 412.466 239.851 417.523 239.445 421.75C239.352 422.706 239.271 423.685 239.12 424.63C239.039 425.102 238.911 425.54 238.795 426.001C238.679 426.461 238.865 425.759 238.9 425.701C239.132 425.344 239.526 425.148 239.027 425.517C239.584 425.102 240.269 424.791 240.814 424.434C241.359 424.077 241.092 424.353 240.744 424.434C239.712 424.641 241.51 424.434 240.454 424.434C239.398 424.434 238.041 424.434 236.846 424.434L219.77 424.492C217.066 424.492 213.633 426.116 213.076 429.041C212.955 429.663 212.979 430.303 213.144 430.913C213.31 431.524 213.613 432.089 214.031 432.567C214.449 433.044 214.971 433.42 215.557 433.668C216.143 433.915 216.778 434.027 217.414 433.995L233.911 433.937C236.521 433.937 239.364 434.179 241.927 433.545C243.73 433.156 245.4 432.308 246.773 431.084C248.146 429.86 249.175 428.303 249.758 426.565C250.365 424.156 250.696 421.687 250.744 419.205C250.999 416.567 251.197 413.929 251.371 411.291C251.726 405.916 251.931 400.541 251.985 395.165C252.047 389.022 251.912 382.879 251.58 376.736C251.429 373.902 248.157 372.578 245.663 373.119C243.169 373.66 240.152 375.791 240.315 378.774V378.717Z" fill="black"/>
<path d="M182.44 381.272C183.195 392.754 182.925 404.278 181.632 415.716C181.293 418.627 180.895 421.516 180.462 424.405C180.335 425.44 180.135 426.465 179.866 427.474C179.782 427.754 179.68 428.028 179.561 428.295C180.004 427.514 180.618 426.836 181.362 426.308C182.106 425.78 182.961 425.414 183.867 425.237C183.645 425.237 182.405 425.451 182.627 425.428C176.578 425.923 170.483 426.125 164.434 426.474C163.056 426.591 161.715 426.968 160.488 427.583C159.262 428.199 158.173 429.04 157.285 430.06C156.466 431.015 154.735 434.152 157.531 433.994L173.443 433.073C176.59 432.893 179.526 432.78 182.44 431.476C184.106 430.786 185.608 429.776 186.853 428.508C188.099 427.24 189.061 425.74 189.682 424.102C190.307 421.671 190.741 419.198 190.98 416.705C191.355 414.179 191.675 411.643 191.94 409.095C192.478 404.013 192.809 398.914 192.934 393.795C193.09 387.95 192.969 382.112 192.572 376.281C192.419 373.965 188.535 375.382 187.412 375.966C185.657 376.866 182.311 378.956 182.463 381.272H182.44Z" fill="black"/>
<path d="M323.631 310.733C330.135 330.25 327.192 350.306 315.07 369.077C314.172 370.449 322.208 374.03 323.062 372.714C335.278 353.688 338.176 333.366 331.491 313.605C330.656 312.327 329.001 311.24 326.806 310.527C325.799 310.161 323.215 309.475 323.631 310.687V310.733Z" fill="black"/>
<path d="M103.005 316.235L109.916 381.853C109.918 382.594 110.437 383.312 111.384 383.881C112.33 384.45 113.644 384.836 115.098 384.97C117.655 385.178 121.156 384.278 120.995 382.765L114.085 317.147C114.093 316.406 113.58 315.688 112.636 315.118C111.693 314.548 110.379 314.163 108.925 314.03C106.345 313.822 102.844 314.722 103.005 316.235Z" fill="black"/>
<path d="M347.764 189.671C355.56 206.447 337.772 229.43 338.566 246.856C339.371 264.918 358.872 286.222 352.847 302.987C346.821 319.752 318.271 323.515 306.164 336.865C294.493 349.74 293.516 378.859 276.855 386.721C260.194 394.583 237.37 376.659 220.065 377.458C202.139 378.269 180.971 397.906 164.322 391.839C147.672 385.772 143.935 357.023 130.678 344.831C117.892 333.079 88.974 332.095 81.2357 315.318C73.4974 298.541 91.2162 275.558 90.4343 258.133C89.6294 240.071 70.1284 218.767 76.1535 202.001C82.1785 185.236 110.729 181.473 122.836 168.123C134.507 155.248 135.484 126.129 152.145 118.279C168.806 110.429 191.63 128.329 208.935 127.542C226.872 126.731 248.029 107.094 264.678 113.161C281.328 119.228 285.065 147.977 298.322 160.169C311.039 171.91 339.957 172.894 347.764 189.671Z" fill="black"/>
<path d="M193.152 253.49C200.974 252.274 208.857 251.05 216.719 250.168C218.922 249.921 227.572 247.405 226.97 250.626C225.33 259.394 222.182 266.844 218.764 275.052C218.064 276.735 213.493 287.051 211.652 285.912C209.811 284.774 204.087 276.157 202.275 272.046C201.136 269.462 194.982 257.154 193 255.012" stroke="black" stroke-width="6" stroke-linecap="round"/>
<path d="M230.842 224.154C231.289 224.687 232.445 228.45 233.897 227.804C236.604 226.6 237.423 222.343 236.08 219.981C232.71 214.053 231.338 222.592 230.929 223.532" stroke="black" stroke-width="6" stroke-linecap="round"/>
<path d="M185.71 224.154C186.156 224.687 187.312 228.45 188.764 227.804C191.471 226.6 192.29 222.343 190.947 219.981C187.577 214.053 186.205 222.592 185.796 223.532" stroke="black" stroke-width="6" stroke-linecap="round"/>
<path d="M227.886 122.707C217.992 127.966 211.106 130.093 201.446 130.093C188.226 130.093 187.21 112.972 156.702 117.839C126.195 122.707 135.347 176.042 95.9309 183.734C90.0789 185.04 72.2983 197.485 75.3492 219.95C77.5358 229.829 81.8497 241.917 88.2748 248.748C92.7493 253.505 90.4817 270.131 87.8967 275.322L87.8049 275.507C81.8113 287.543 72.4099 306.422 80.4337 320.017C83.4918 325.199 88.2748 328.186 94.6705 330.229C101.066 332.271 108.814 336.262 111.958 337.583C123.257 342.333 128.84 343.487 136.364 351.672C145.737 361.868 144.802 380.744 156.702 389.452C171.224 400.079 175.485 396.057 192.294 389.452C202.188 385.565 204.343 381.352 213.649 377.199C215.888 376.2 227.849 375.621 229.92 378.22C234.792 384.335 240.089 386.389 256.359 387.41C269.579 390.543 286.009 382.79 288.901 379.241C298.674 367.247 300.146 361.782 298.111 342.709C296.137 324.212 323.269 323.491 338.376 317.975C349.241 314.008 355 306.877 355 295.511C355 289.135 350.354 285.393 348.585 279.173C347.226 274.4 338.376 264.703 338.376 258.428C338.376 248.509 336.614 249.614 338.376 238.329C339.933 228.367 348.585 213.41 348.585 203.612C348.585 191.988 339.282 181.261 327.543 175.021C317.519 169.692 303.137 173.092 292.968 161.747C274.664 141.325 290.934 122.707 260.427 112.734C243.14 109.671 238.963 116.817 227.886 122.707Z" stroke="black" stroke-width="6" stroke-linecap="round"/>
<path d="M44.3183 137.995C47.5471 141.497 53.9061 150.138 57.1744 153.703C57.1744 155.09 63.887 151.184 64.3874 150.822C68.457 147.88 72.3648 145.026 75.7372 141.218C80.3948 135.959 88.2459 131.751 90.1632 124.464C91.3485 119.96 91.3621 115.868 89.6371 111.863C88.1914 108.507 84.7525 106.17 81.5501 104.744C78.3476 103.318 73.9339 103.645 70.4304 106.778C68.4163 108.579 63.1172 119.363 62.3434 114.914C62.125 113.659 61.598 108.025 61.3325 106.778C61.0036 105.234 59.435 102.697 58.2999 101.693C54.9354 98.719 53.1262 98 48.3703 98C46.4522 98 41.7216 99.3192 40.3724 100.676C35.1111 104.744 34.5064 110.408 34.0387 116.948C33.7551 120.914 35.0442 125.643 37.4023 129.117C38.4667 130.685 39.9465 132.734 41.1149 134.236C42.267 135.717 43.0432 136.613 44.3183 137.995Z" stroke="black" stroke-width="6" stroke-linecap="round"/>
<path d="M27.7173 252.079C33.5598 257.892 35.9629 265.507 36.7776 264.969C37.5923 264.432 38.3951 263.714 39.1051 263.051C40.5571 261.694 42.0938 258.507 44.1477 257.152C47.2285 255.121 48.2554 254.105 51.3362 254.105C55.3119 254.105 58.5113 256.413 59.5517 258.168C60.9525 260.532 61.9929 263.429 61.9929 264.991C61.9929 269.398 62.1848 271.318 60.5785 275.437C59.6403 277.843 56.9323 281.487 55.4438 283.564C54.266 285.207 52.9003 286.294 51.336 287.627C47.2076 291.145 43.859 295.221 39.0128 297.785C36.3509 299.194 33.4642 301.578 31.1526 303.513C29.4124 304.97 28.2586 302.821 26.7561 301.488C23.1132 298.254 19.7982 294.988 17.0364 290.978C15.5857 288.871 14.3665 287.627 12.8985 284.326C10.2589 280.516 7.60419 275.116 7.17796 271.374C6.36505 264.237 8.26514 257.017 14.3667 252.079C16.2394 250.563 18.9116 248.763 21.5552 249.026C24.1988 249.288 26.6898 251.057 27.7173 252.079Z" fill="black" stroke="black" stroke-width="6" stroke-linecap="round"/>
<path d="M369.717 101.079C375.56 106.892 377.963 114.507 378.778 113.969C379.592 113.432 380.395 112.714 381.105 112.051C382.557 110.694 384.094 107.507 386.148 106.152C389.228 104.121 390.255 103.105 393.336 103.105C397.312 103.105 400.511 105.413 401.552 107.168C402.953 109.532 403.993 112.429 403.993 113.991C403.993 118.398 404.185 120.318 402.578 124.437C401.64 126.843 398.932 130.487 397.444 132.564C396.266 134.207 394.9 135.294 393.336 136.627C389.208 140.145 385.859 144.221 381.013 146.785C378.351 148.194 375.464 150.578 373.153 152.513C371.412 153.97 370.259 151.821 368.756 150.488C365.113 147.254 361.798 143.988 359.036 139.978C357.586 137.871 356.366 136.627 354.898 133.326C352.259 129.516 349.604 124.116 349.178 120.374C348.365 113.237 350.265 106.017 356.367 101.079C358.239 99.5632 360.912 97.7632 363.555 98.0257C366.199 98.2881 368.69 100.057 369.717 101.079Z" fill="black" stroke="black" stroke-width="6" stroke-linecap="round"/>
<path d="M379.071 250.47C383.97 263.289 394.579 273.852 405.088 282C408.818 280.755 410.72 276.887 414.989 273.715C417.527 271.83 419.174 269.28 421.953 267.682C423.879 265.923 425.579 264.214 426.904 263.047C432.069 258.494 435.584 255.054 439.312 249.274C441.566 245.781 443.532 240.894 442.87 236.583C442.602 234.839 441.545 230.97 440.234 229.865C437.27 225.752 434.142 225.914 431.143 225.752C427.345 225.546 422.701 227.651 419.618 229.865C416.798 231.89 414.453 234.394 412.01 236.841C410.196 238.658 410.493 239.213 409.631 237.163C409.107 235.918 408.904 234.24 408.677 232.911C408.405 231.31 408.188 230.045 407.616 228.535C405.996 224.258 404.89 220.659 401.529 217.571C398.599 214.878 393.992 213.45 389.829 214.198C384.984 215.069 381.151 218.921 378.857 223.169C376.593 227.361 376 232.592 376 237.163C376 241.534 377.489 246.33 379.071 250.47Z" fill="black" stroke="black" stroke-width="6" stroke-linecap="round"/>
<path d="M175.071 52.4695C179.97 65.2895 190.579 75.8521 201.088 84C204.818 82.7546 206.72 78.8865 210.989 75.7155C213.527 73.8298 215.174 71.28 217.953 69.6823C219.879 67.9233 221.579 66.2145 222.904 65.0466C228.069 60.4942 231.584 57.0537 235.312 51.2739C237.566 47.7807 239.532 42.8935 238.87 38.5833C238.602 36.8386 237.545 32.9699 236.234 31.8655C233.27 27.752 230.142 27.9143 227.143 27.752C223.345 27.5464 218.701 29.6515 215.618 31.8655C212.798 33.8904 210.453 36.394 208.01 38.8408C206.196 40.6576 206.493 41.2133 205.631 39.1627C205.107 37.9176 204.904 36.2398 204.677 34.9108C204.405 33.3104 204.188 32.0445 203.616 30.5348C201.996 26.2576 200.89 22.6591 197.529 19.5708C194.599 16.8781 189.992 15.4496 185.829 16.1978C180.984 17.0688 177.151 20.9209 174.857 25.1692C172.593 29.3606 172 34.5916 172 39.1627C172 43.5336 173.489 48.3301 175.071 52.4695Z" fill="black" stroke="black" stroke-width="6" stroke-linecap="round"/>
<path d="M395.314 382.999C387.998 390.244 377.411 394.176 367.63 396.487C365.422 394.479 365.285 391.245 363.292 387.754C362.107 385.678 361.743 383.424 360.303 381.47C359.504 379.67 358.847 377.975 358.284 376.766C356.091 372.052 354.703 368.61 353.882 363.503C353.386 360.417 353.515 356.466 355.291 353.725C356.01 352.615 357.926 350.298 359.173 349.95C362.485 348.057 364.606 349.138 366.736 349.956C369.434 350.993 372.014 353.873 373.476 356.342C374.814 358.601 375.676 361.039 376.624 363.47C377.327 365.274 376.951 365.562 378.176 364.427C378.92 363.738 379.573 362.654 380.136 361.816C380.815 360.807 381.352 360.008 382.209 359.154C384.64 356.732 386.507 354.615 389.782 353.546C392.638 352.614 396.271 353.066 398.931 354.868C402.026 356.966 403.509 360.787 403.803 364.403C404.093 367.97 402.906 371.73 401.51 374.855C400.174 377.843 397.676 380.66 395.314 382.999Z" fill="black" stroke="black" stroke-width="6" stroke-linecap="round"/>
<path d="M263 45C269.479 45.2506 275.79 48.1395 282.156 48.1395C284.746 48.1395 280.593 52.5049 280.1 53.093C276.694 57.152 274.168 61.443 272.38 66.3837C271.748 68.1297 270.143 70.2089 270.143 72" stroke="black" stroke-width="6" stroke-linecap="round"/>
<path d="M299 45C296.641 55.6852 295 67.0472 295 78" stroke="black" stroke-width="6" stroke-linecap="round"/>
<path d="M300 55C306.032 55.7677 311.912 56 318 56" stroke="black" stroke-width="6" stroke-linecap="round"/>
<path d="M297 66.0291C299.49 66.0291 301.472 65.7771 303.667 66.7553C304.539 67.144 306.202 66.8859 306.852 67.3495C308.376 68.4361 311.063 67.8493 313 69" stroke="black" stroke-width="6" stroke-linecap="round"/>
<path d="M317 82V85" stroke="black" stroke-width="6" stroke-linecap="round"/>
<path d="M325.944 87C325.944 88.8463 326.346 90.4716 325 92" stroke="black" stroke-width="6" stroke-linecap="round"/>
<path d="M334 94C333.35 95.3315 332.449 96.5631 332 98" stroke="black" stroke-width="6" stroke-linecap="round"/>
</g>
</svg>
