<svg width="405" height="452" viewBox="0 0 405 452" fill="none" xmlns="http://www.w3.org/2000/svg">
<path d="M332.671 340.139C320.189 348.79 312.884 355.603 297.894 359.774C294.349 360.76 270.176 364.854 263.305 366.858C257.095 368.668 251.495 370.296 243.058 371.58C239.728 372.087 230.665 372.769 227.873 373.154C223.392 373.774 209.402 374.942 205.095 375.516C186.137 378.043 183.194 377.375 165.105 373.269L164.601 373.154C158.399 371.747 150.144 367.115 143.992 363.475C135.074 358.199 124.559 351.909 117.358 344.032C108.579 334.429 100.266 325.534 91.1458 316.324C85.1239 310.243 80.4322 303.222 75.369 296.458C64.6151 282.092 58.4426 264.006 50.4854 248.23C44.3763 236.118 40.224 226.257 40.224 212.628C40.224 201.777 36.6882 184.253 38.5331 173.495C39.0583 170.432 51.4906 188.446 52.0574 189.428C55.8904 196.069 60.711 200.252 64.7369 207.139C65.5977 208.611 75.369 228.874 74.5353 203.592C74.5353 196.673 74.0942 193.294 75.369 189.428C77.3803 183.329 79.1957 179.9 83.3325 174.937C85.8653 171.899 90.0946 167.692 92.6304 164.472C95.1663 161.252 97.6984 157.982 98.8418 155.723C99.9973 153.44 100.238 151.592 100.238 147.566C100.238 141.931 97.8935 139.519 97.6874 133.943C97.3194 123.986 96.7895 125.026 96.7895 114.56C96.7895 108.12 95.6865 99.9411 96.7895 92.8243C97.6874 87.0312 99.7564 81.9191 101.928 78.3338C103.852 75.1585 105.893 72.894 108.691 70.2835C113.762 65.5517 120.091 83.1567 121.37 88.228C122.107 91.1515 127.287 100.875 129.822 105.705C132.358 110.535 135.739 140.959 140.811 114.56C141.656 111.34 145.018 91.1741 145.018 88.228C145.018 78.7076 147.845 77.9046 151.85 69.0862C156.37 59.1341 156.661 54.3456 166.282 39.3933C175.903 24.4409 179.116 -1.14882 186.326 3.5726C190.097 6.04191 208.792 25.3049 211.001 29.9764C214.349 37.0603 215.153 53.9093 224.493 61.4614C232.875 68.2395 237.7 91.6498 240.553 88.228C242.577 85.7996 252.708 63.5835 254.707 61.2525C258.093 55.5853 262.204 45.1509 263.172 39.3933C264.757 29.9671 264.724 26.2576 269.944 18.3436C271.643 15.7686 272.916 11.5273 279.33 5.85483C285.744 0.182583 289.458 6.50377 289.458 9.51288C289.458 13.6279 290.299 20.5292 293.676 23.6796C299.533 29.1442 299.508 31.0628 306.441 35.4523C313.114 39.6769 315.067 41.6785 322.359 44.9322C327.671 47.3023 331.558 57.0653 335.014 61.4614C341.865 70.1782 341.763 74.0551 343.45 89.7971C346.824 105.539 338.685 141.491 341.763 140.959C344.196 140.538 353.964 121.751 361.166 108.688C364.638 102.391 369.28 92.1771 374.664 82.7132C383.1 67.8836 392.095 66.3711 398.286 63.6352C406.643 59.9417 398.286 94.3412 398.286 100.029C398.286 107.066 395.755 116.574 395.755 123.643C395.755 132.909 393.976 147.453 393.213 156.701C392.076 170.489 385.554 199.053 383.1 212.628C376.953 246.631 380.008 242.887 370.446 276.341C368.732 282.338 367.607 291.195 365.251 297.057C362.488 303.932 358.167 309.005 353.964 314.888C347.765 323.563 341.738 333.855 332.671 340.139Z" fill="#FF5B5B" stroke="black" stroke-width="6" stroke-linecap="round"/>
<path d="M240.712 314.592C241.117 322.411 241.154 330.248 240.786 338.057C240.62 341.702 240.343 345.764 240.02 349.16C239.946 349.928 239.882 350.715 239.762 351.473C239.697 351.853 239.596 352.204 239.504 352.574C239.412 352.944 239.559 352.38 239.587 352.334C239.771 352.047 240.085 351.89 239.688 352.186C240.131 351.853 240.675 351.603 241.108 351.316C241.542 351.029 241.33 351.251 241.053 351.316C240.232 351.482 241.662 351.316 240.823 351.316C239.983 351.316 238.904 351.316 237.955 351.316L224.381 351.362C222.232 351.362 219.503 352.667 219.06 355.017C218.964 355.516 218.983 356.03 219.115 356.521C219.246 357.011 219.487 357.465 219.819 357.849C220.152 358.232 220.567 358.534 221.033 358.733C221.499 358.932 222.003 359.022 222.509 358.996L235.622 358.949C237.696 358.949 239.956 359.144 241.994 358.635C243.427 358.322 244.754 357.641 245.845 356.657C246.936 355.674 247.754 354.424 248.218 353.028C248.701 351.093 248.964 349.109 249.002 347.115C249.205 344.996 249.361 342.877 249.5 340.759C249.782 336.441 249.945 332.123 249.988 327.805C250.038 322.87 249.93 317.935 249.666 313.001C249.546 310.725 246.945 309.661 244.963 310.096C242.98 310.53 240.583 312.242 240.712 314.638V314.592Z" fill="black"/>
<path d="M194.723 316.996C195.315 326.143 195.103 335.323 194.09 344.435C193.824 346.754 193.512 349.055 193.173 351.357C193.073 352.181 192.917 352.998 192.706 353.802C192.64 354.024 192.56 354.242 192.467 354.455C192.814 353.834 193.295 353.293 193.878 352.873C194.461 352.452 195.131 352.161 195.842 352.02C195.667 352.02 194.695 352.19 194.87 352.172C190.129 352.566 185.351 352.727 180.61 353.005C179.53 353.098 178.479 353.398 177.518 353.888C176.556 354.379 175.703 355.049 175.007 355.861C174.365 356.622 173.008 359.121 175.2 358.995L187.671 358.261C190.138 358.118 192.44 358.028 194.723 356.99C196.029 356.44 197.206 355.635 198.182 354.625C199.159 353.615 199.913 352.42 200.399 351.115C200.889 349.179 201.23 347.209 201.417 345.223C201.71 343.211 201.961 341.19 202.169 339.16C202.591 335.112 202.85 331.05 202.948 326.972C203.071 322.316 202.976 317.665 202.664 313.02C202.545 311.176 199.5 312.304 198.62 312.77C197.245 313.486 194.622 315.152 194.741 316.996H194.723Z" fill="black"/>
<path d="M118.003 301.751C113.158 286.254 115.884 270.508 125.935 255.949C126.679 254.884 120.312 251.912 119.605 252.933C109.474 267.692 106.778 283.648 111.764 299.342C112.409 300.364 113.714 301.252 115.458 301.854C116.257 302.161 118.313 302.751 118.002 301.788L118.003 301.751Z" fill="black"/>
<path d="M307.811 257.488C317.576 270.461 320.291 286.208 315.709 303.297C315.365 304.549 322.36 305.212 322.684 304.013C327.275 286.71 324.46 270.775 314.497 257.664C313.546 256.918 312.019 256.519 310.174 256.537C309.318 256.516 307.184 256.65 307.799 257.454L307.811 257.488Z" fill="black"/>
<path d="M324.128 165.363C330.219 178.617 316.32 196.774 316.94 210.541C317.569 224.81 332.806 241.641 328.099 254.886C323.391 268.132 301.083 271.105 291.623 281.651C282.503 291.823 281.74 314.828 268.722 321.039C255.703 327.25 237.87 313.09 224.348 313.721C210.342 314.362 193.802 329.876 180.793 325.082C167.783 320.289 164.864 297.577 154.505 287.945C144.514 278.66 121.919 277.883 115.872 264.628C109.826 251.374 123.671 233.217 123.06 219.45C122.431 205.18 107.194 188.349 111.901 175.104C116.609 161.859 138.917 158.886 148.377 148.34C157.496 138.168 158.26 115.163 171.278 108.961C184.296 102.759 202.13 116.9 215.652 116.278C229.667 115.638 246.198 100.124 259.207 104.918C272.217 109.711 275.137 132.423 285.495 142.055C295.432 151.331 318.027 152.108 324.128 165.363Z" fill="white"/>
<path d="M203.117 211.762C209.097 210.743 215.126 209.717 221.138 208.978C222.823 208.771 229.438 206.664 228.977 209.362C227.723 216.709 225.315 222.95 222.702 229.828C222.166 231.237 218.671 239.881 217.263 238.927C215.856 237.973 211.478 230.753 210.093 227.309C209.222 225.144 204.516 214.831 203 213.037" stroke="black" stroke-width="6" stroke-linecap="round"/>
<path d="M233.398 193.199C233.748 193.618 234.657 196.577 235.799 196.069C237.928 195.123 238.572 191.775 237.516 189.918C234.866 185.257 233.787 191.971 233.466 192.71" stroke="black" stroke-width="6" stroke-linecap="round"/>
<path d="M197.908 193.199C198.259 193.618 199.168 196.577 200.31 196.069C202.439 195.123 203.083 191.775 202.027 189.918C199.377 185.257 198.298 191.971 197.976 192.71" stroke="black" stroke-width="6" stroke-linecap="round"/>
<path d="M231.125 112.483C223.351 116.649 217.941 118.334 210.351 118.334C199.964 118.334 199.165 104.77 175.195 108.626C151.224 112.483 158.415 154.738 127.446 160.832C122.848 161.866 108.877 171.726 111.274 189.523C112.992 197.351 116.382 206.927 121.43 212.339C124.946 216.108 123.164 229.28 121.133 233.393L121.061 233.539C116.352 243.074 108.965 258.031 115.269 268.803C117.672 272.908 121.43 275.274 126.455 276.892C131.481 278.51 137.568 281.672 140.038 282.719C148.916 286.482 153.303 287.397 159.214 293.881C166.579 301.959 165.844 316.913 175.195 323.813C186.604 332.232 189.953 329.045 203.16 323.813C210.933 320.733 212.627 317.395 219.939 314.105C221.698 313.313 231.096 312.855 232.723 314.914C236.55 319.758 240.713 321.386 253.497 322.195C263.884 324.677 276.793 318.535 279.065 315.723C286.744 306.221 287.9 301.891 286.301 286.78C284.75 272.126 306.069 271.555 317.939 267.185C326.475 264.042 331 258.392 331 249.387C331 244.336 327.35 241.371 325.959 236.444C324.892 232.662 317.939 224.98 317.939 220.008C317.939 212.149 316.553 213.025 317.939 204.085C319.161 196.192 325.959 184.342 325.959 176.58C325.959 167.371 318.65 158.872 309.427 153.929C301.551 149.707 290.251 152.401 282.261 143.412C267.879 127.233 280.663 112.483 256.693 104.582C243.11 102.155 239.828 107.817 231.125 112.483Z" stroke="black" stroke-width="6" stroke-linecap="round"/>
<path d="M201 176C201.958 177.31 204.348 178.551 205 180" stroke="black" stroke-width="6" stroke-linecap="round"/>
<path d="M238 174C235.835 175.859 232.592 177.58 231 180" stroke="black" stroke-width="6" stroke-linecap="round"/>
<path d="M34 284C32.6134 286.493 28.8228 293.656 26 295" stroke="black" stroke-width="6" stroke-linecap="round"/>
<path d="M19 291C22.5808 296.338 26.9844 303.156 33 306" stroke="black" stroke-width="6" stroke-linecap="round"/>
<path d="M16.3048 311.496C9.48413 310.067 8.72522 311.693 5.02484 316.801C2.29486 320.57 1.67526 325 7.32076 325C15.6523 325 19 320.972 19 312.461" stroke="black" stroke-width="6" stroke-linecap="round"/>
<path d="M43 318C34.5988 326.543 27.3468 339.53 20 347" stroke="black" stroke-width="6" stroke-linecap="round"/>
<path d="M31 337C33.0973 339.928 37.5341 344.729 41 346" stroke="black" stroke-width="6" stroke-linecap="round"/>
<path d="M66.4236 340.823C73.4387 342.557 77.1365 348.144 73.0864 355.248C69.3959 361.722 64.0855 359.736 61.3032 357.541C57.6539 354.663 52.7792 351.597 54.6333 344.972C56.0376 339.955 63.1466 340.012 66.4236 340.823Z" stroke="black" stroke-width="6" stroke-linecap="round"/>
<path d="M88 354C83.1638 362.684 72.1908 368.596 69 378" stroke="black" stroke-width="6" stroke-linecap="round"/>
<path d="M80 365C85.7104 367.258 91.5948 368.595 96 373" stroke="black" stroke-width="6" stroke-linecap="round"/>
<path d="M74 372C78.6413 375.15 84.5949 375.916 89 379" stroke="black" stroke-width="6" stroke-linecap="round"/>
<path d="M50.7222 361.107C53.1686 367.275 61.3021 373.331 64.0415 379.437" stroke="black" stroke-width="6" stroke-linecap="round"/>
<path d="M42.4062 365.956C46.4334 369.817 49.7445 374.107 52.4999 377.733C53.8777 379.546 59.5318 384.984 59.8382 385.884" stroke="black" stroke-width="6" stroke-linecap="round"/>
<path d="M47.6377 382.997C46.4777 381.668 46.3046 381 44.5582 381C43.0128 381 41.1921 381.319 39.8685 381.983C37.6912 383.074 37.0893 387.453 39.8484 388.419C41.1048 388.859 41.871 389.048 43.2902 388.99C44.8391 388.925 45.4724 388.157 46.5508 387.626C47.3073 387.254 48 386.444 48 385.851C48 385.488 47.2754 384.733 47.2754 384.995" stroke="black" stroke-width="6" stroke-linecap="round"/>
<path d="M108.464 378C110.794 380.286 113.188 382.474 115.649 384.619C116.351 385.231 116.681 385.935 117.596 386.149C119.546 386.606 113.835 390.172 113.225 390.569C110.003 392.668 107.564 396.003 104.439 398.308C101.703 400.327 98.7199 401.968 96 404" stroke="black" stroke-width="6" stroke-linecap="round"/>
<path d="M109 399C111.822 400.136 114.495 401.33 117 403" stroke="black" stroke-width="6" stroke-linecap="round"/>
<path d="M124 393C122.543 398.14 120.259 404.628 116.667 408.54C115.004 410.35 112.766 412.593 112 415" stroke="black" stroke-width="6" stroke-linecap="round"/>
<path d="M134 398C131.417 403.456 128.653 409.076 124.625 413.633C123.161 415.289 122.642 417.039 122 419" stroke="black" stroke-width="6" stroke-linecap="round"/>
<path d="M154.663 393C152.946 398.782 150.207 404.216 150.207 410.421C150.207 410.576 149.982 410.016 150.001 409.963C150.066 409.781 151.539 410.246 151.693 410.29C154.115 410.988 156.343 411.617 158.892 411.816C159.903 411.895 163.322 412.38 163.945 411.358C164.879 409.829 165.353 407.929 166.049 406.278C166.933 404.184 168.15 402.242 168.937 400.108C169.497 398.591 171 396.999 171 395.355" stroke="black" stroke-width="6" stroke-linecap="round"/>
<path d="M153 402H164" stroke="black" stroke-width="6" stroke-linecap="round"/>
<path d="M141 417C150.004 418.805 159.498 419.301 168 422" stroke="black" stroke-width="6" stroke-linecap="round"/>
<path d="M154 421C153.544 422.387 152 425.445 152 427" stroke="black" stroke-width="6" stroke-linecap="round"/>
<path d="M143.743 428.003C149.227 428.003 155.697 427.717 159.368 432.394C161.447 435.042 157.876 436.118 156.157 437.166C153.851 438.572 150.028 437.258 147.51 437.166C146.182 437.117 142.118 436.59 141.432 438.12C140.746 439.65 138.896 444.171 140.918 445.373C142.922 446.565 145.443 446.934 147.682 447.388C149.267 447.709 151.805 447.694 153.075 448.533C154.312 449.35 157.601 448.487 159.154 449" stroke="black" stroke-width="6" stroke-linecap="round"/>
<path d="M196 414.318C192.929 413.712 189.739 413.136 186.607 413.136C185.754 413.136 184.008 412.803 183.186 413.18C182.076 413.688 181.608 416.081 181.379 417.078C180.785 419.663 180.473 422.488 180.295 425.137C180.156 427.226 179.438 429.252 179.19 431.291C178.978 433.039 178.598 433.32 180.317 434.117C182.816 435.276 186.784 436 189.497 436" stroke="black" stroke-width="6" stroke-linecap="round"/>
<path d="M182 424C186.703 425.115 192.396 426 197 426" stroke="black" stroke-width="6" stroke-linecap="round"/>
<path d="M207 417C205.232 422.858 206.127 429.366 204.519 435.371C203.931 437.565 204.151 440.039 203 442" stroke="black" stroke-width="6" stroke-linecap="round"/>
<path d="M206 430.266C208.647 430.266 212.644 429.508 215.2 430.551C215.776 430.786 217.406 431 218 431" stroke="black" stroke-width="6" stroke-linecap="round"/>
<path d="M223 416C222.01 422.969 219.877 429.602 218.655 436.497C218.435 437.734 218.221 438.786 217.648 439.927C217.222 440.775 217.558 441.99 217.008 442.708C215.916 444.135 216.002 446.276 216.002 448" stroke="black" stroke-width="6" stroke-linecap="round"/>
<path d="M244.596 399C242.602 400.631 242.033 401.32 241.156 403.575C240.845 404.373 239.661 406.665 240.094 407.545C241.134 409.659 244.205 410.331 246.317 409.854C248.311 409.404 249.607 405.667 249.927 403.877C250.462 400.889 247.933 400.836 246.508 399.388" stroke="black" stroke-width="6" stroke-linecap="round"/>
<path d="M233 425C238.917 424.337 244.783 423 250.743 423C253.578 423 256.908 422.663 259.552 421.489C260.283 421.164 261.451 421.4 262.228 421.4C263.508 421.4 264.711 421 266 421" stroke="black" stroke-width="6" stroke-linecap="round"/>
<path d="M252 425C252 425.766 252 429.49 252 430" stroke="black" stroke-width="6" stroke-linecap="round"/>
<path d="M239 436.993C239.175 437.696 240.092 445.125 241.084 445.568C242.544 446.219 244.349 445.941 245.893 445.941C248.562 445.941 251.231 445.941 253.9 445.941C256.906 445.941 259.912 445.941 262.918 445.941C263.861 445.941 265.865 446.111 266.632 445.34C267.635 444.334 266.285 439.86 266.137 438.526C265.62 433.854 260.165 434.384 256.644 434.384C253.033 434.384 249.421 434.384 245.81 434.384C244.292 434.384 242.687 433.925 241.229 434.011C240.825 434.035 240.805 434.384 240.486 434.384" stroke="black" stroke-width="6" stroke-linecap="round"/>
</svg>
