<svg width="450" height="450" viewBox="0 0 450 450" fill="none" xmlns="http://www.w3.org/2000/svg">
<g opacity="0.3">
<path d="M242.114 369.717C242.624 379.45 242.671 389.206 242.207 398.928C241.998 403.466 241.65 408.523 241.244 412.75C241.151 413.706 241.069 414.685 240.919 415.63C240.837 416.102 240.71 416.54 240.594 417.001C240.478 417.461 240.664 416.759 240.698 416.701C240.93 416.344 241.325 416.148 240.826 416.517C241.383 416.102 242.067 415.791 242.613 415.434C243.158 415.077 242.891 415.353 242.543 415.434C241.511 415.641 243.309 415.434 242.253 415.434C241.197 415.434 239.84 415.434 238.645 415.434L221.568 415.492C218.865 415.492 215.431 417.116 214.875 420.041C214.754 420.663 214.778 421.303 214.943 421.913C215.109 422.524 215.412 423.089 215.83 423.567C216.248 424.044 216.77 424.42 217.356 424.668C217.942 424.915 218.577 425.027 219.213 424.995L235.71 424.937C238.32 424.937 241.162 425.179 243.726 424.545C245.529 424.156 247.199 423.308 248.572 422.084C249.945 420.86 250.973 419.303 251.557 417.565C252.164 415.156 252.495 412.687 252.543 410.205C252.798 407.567 252.995 404.929 253.169 402.291C253.525 396.916 253.73 391.541 253.784 386.165C253.846 380.022 253.711 373.879 253.378 367.736C253.228 364.902 249.956 363.578 247.462 364.119C244.968 364.66 241.951 366.791 242.114 369.774V369.717Z" fill="black"/>
<path d="M184.238 372.272C184.993 383.754 184.723 395.278 183.431 406.716C183.092 409.627 182.694 412.516 182.261 415.405C182.133 416.44 181.934 417.465 181.664 418.474C181.581 418.754 181.479 419.028 181.36 419.295C181.802 418.514 182.417 417.836 183.161 417.308C183.904 416.78 184.759 416.414 185.666 416.237C185.443 416.237 184.203 416.451 184.426 416.428C178.377 416.923 172.281 417.125 166.233 417.474C164.854 417.591 163.514 417.968 162.287 418.583C161.06 419.199 159.972 420.04 159.084 421.06C158.265 422.015 156.534 425.152 159.33 424.994L175.241 424.073C178.389 423.893 181.325 423.78 184.238 422.476C185.905 421.786 187.407 420.776 188.652 419.508C189.898 418.24 190.86 416.74 191.48 415.102C192.106 412.671 192.54 410.198 192.779 407.705C193.154 405.179 193.473 402.643 193.739 400.095C194.277 395.013 194.608 389.914 194.733 384.795C194.889 378.95 194.768 373.112 194.37 367.281C194.218 364.965 190.334 366.382 189.211 366.966C187.456 367.866 184.11 369.956 184.262 372.272H184.238Z" fill="black"/>
<path d="M394.081 223.891C384.761 242.318 368.316 254.258 346.244 258.624C344.622 258.935 347.793 267.289 349.343 266.986C371.665 262.509 388.267 250.35 397.634 231.62C397.952 230.116 397.549 228.149 396.493 226.054C396.036 225.065 394.685 222.706 394.114 223.859L394.081 223.891Z" fill="black"/>
<path d="M103.06 265.761C82.9622 261.017 67.5018 247.827 58.0857 227.393C57.4031 225.889 50.0247 230.929 50.6823 232.365C60.2646 253.016 75.9753 266.308 96.3789 271.025C97.9153 270.982 99.7325 270.13 101.522 268.612C102.377 267.936 104.354 266.069 103.099 265.785L103.06 265.761Z" fill="black"/>
<path d="M349.764 180.671C357.56 197.447 339.772 220.43 340.566 237.856C341.371 255.918 360.872 277.222 354.847 293.987C348.821 310.752 320.271 314.515 308.164 327.865C296.493 340.74 295.516 369.859 278.855 377.721C262.194 385.583 239.37 367.659 222.065 368.458C204.139 369.269 182.971 388.906 166.322 382.839C149.672 376.772 145.935 348.023 132.678 335.831C119.892 324.079 90.974 323.095 83.2357 306.318C75.4974 289.541 93.2162 266.558 92.4343 249.133C91.6294 231.071 72.1284 209.767 78.1535 193.001C84.1785 176.236 112.729 172.473 124.836 159.123C136.507 146.248 137.484 117.129 154.145 109.279C170.806 101.429 193.63 119.329 210.935 118.542C228.872 117.731 250.029 98.0945 266.678 104.161C283.328 110.228 287.065 138.977 300.322 151.169C313.039 162.91 341.957 163.894 349.764 180.671Z" fill="black"/>
<path d="M195.947 244.49C203.538 243.274 211.189 242.05 218.82 241.168C220.958 240.921 229.354 238.405 228.77 241.626C227.178 250.394 224.122 257.844 220.805 266.052C220.125 267.735 215.689 278.051 213.902 276.912C212.116 275.774 206.56 267.157 204.801 263.046C203.696 260.462 197.723 248.154 195.799 246.012" stroke="black" stroke-width="6" stroke-linecap="round"/>
<path d="M230.231 113.707C220.302 118.966 213.391 121.093 203.697 121.093C190.429 121.093 189.409 103.972 158.793 108.839C128.176 113.707 137.361 167.042 97.8045 174.734C91.9316 176.04 74.0875 188.485 77.1493 210.95C79.3437 220.829 83.673 232.917 90.121 239.748C94.6115 244.505 92.3358 261.131 89.7416 266.322L89.6494 266.507C83.6344 278.543 74.1995 297.422 82.252 311.017C85.3209 316.199 90.121 319.186 96.5396 321.229C102.958 323.271 110.734 327.262 113.889 328.583C125.228 333.333 130.831 334.487 138.382 342.672C147.789 352.868 146.85 371.744 158.793 380.452C173.366 391.079 177.643 387.057 194.512 380.452C204.441 376.565 206.604 372.352 215.943 368.199C218.19 367.2 230.194 366.621 232.272 369.22C237.161 375.335 242.477 377.389 258.806 378.41C272.073 381.543 288.561 373.79 291.463 370.241C301.271 358.247 302.749 352.782 300.706 333.709C298.725 315.212 325.955 314.491 341.116 308.975C352.019 305.008 357.799 297.877 357.799 286.511C357.799 280.135 353.137 276.393 351.361 270.173C349.997 265.4 341.116 255.703 341.116 249.428C341.116 239.509 339.347 240.614 341.116 229.329C342.678 219.367 351.361 204.41 351.361 194.612C351.361 182.988 342.025 172.261 330.244 166.021C320.184 160.692 305.751 164.092 295.545 152.747C277.176 132.325 293.504 113.707 262.888 103.734C245.539 100.671 241.348 107.817 230.231 113.707Z" stroke="black" stroke-width="6" stroke-linecap="round"/>
<path d="M283.097 26.0463C284.249 25.7766 291.269 26.6603 294.202 29.3734C296.089 30.699 297.187 32.5219 298.078 34.6818C299.284 37.6038 298.759 38.9995 298.078 41.4668C296.716 43.9341 295.393 46.9582 292.631 48.2518C290.347 49.3211 289.773 50.0539 287.341 49.9969C283.33 49.903 279.773 47.7276 276.287 45.7845C273.799 43.3173 274.244 40.85 273.799 37.5519C273.904 34.4981 274.275 32.8314 277.649 29.3734C279.692 27.28 280.12 26.7432 283.097 26.0463Z" fill="black" stroke="black" stroke-width="6" stroke-linecap="round"/>
<path d="M234.176 98.9247C227.156 106.471 223.413 109.693 225.527 113.844C227.642 117.994 243.615 122.728 256.748 126.499C263.631 128.476 284.339 128.582 288.589 119.364C290.059 114.931 291.275 82.1749 289.78 76.7168C288.381 67.4811 286.511 60.9161 285.512 53.4811C284.939 49.2128 283.796 48.3007 281.011 51.7301C273.544 60.925 263.577 68.1593 256.003 77.2206C249.475 85.0299 241.126 91.4547 234.176 98.9247Z" fill="black" stroke="black" stroke-width="6" stroke-linecap="round"/>
<path d="M261.799 73C264.242 78.6451 270.21 82.0025 275.486 84.4354C279.063 86.0855 283.781 89 287.799 89" stroke="black" stroke-width="6" stroke-linecap="round"/>
<path d="M247.799 90C248.794 91.2026 250.02 92.1061 251.013 93.2606C252.711 95.2343 255.147 96.0492 257.204 97.668C258.844 98.9593 261.015 100.112 263.037 100.749C265.044 101.381 267.156 101.642 269.132 102.368C270.481 102.863 271.837 103.897 273.275 104.144C276.216 104.649 279.039 106.19 282.085 106.19C283.309 106.19 285.707 106.484 286.799 107" stroke="black" stroke-width="6" stroke-linecap="round"/>
<path d="M233.799 101C236.01 104.625 239.891 106.851 243.125 109.397C247.215 112.619 251.429 115.3 255.748 118.186C257.453 119.326 259.388 120.314 260.929 121.687C261.75 122.418 263.051 122.507 263.802 123.132C264.873 124.022 267.17 124.716 268.56 124.797C269.895 124.874 271.681 126.419 272.799 127" stroke="black" stroke-width="6" stroke-linecap="round"/>
<path d="M98.1725 107.022C101.488 108.376 104.648 110.429 107.707 112.473C108.347 113.081 105.418 119.682 106.051 122.98C106.241 123.966 107.377 128.396 105.787 127.971C101.257 126.762 94.9899 127.84 90.4922 127.84C86.8618 127.84 82.4642 128.645 86.2548 124.885C89.2218 121.942 90.5312 118.586 92.8095 115.1C93.5291 113.998 97.0089 106.547 98.1725 107.022Z" fill="black" stroke="black" stroke-width="6" stroke-linecap="round"/>
<path d="M393.526 148.657C389.143 146.766 384.233 145.679 379.427 144.678C378.247 144.637 374.628 153.614 370.87 156.101C369.747 156.844 364.434 159.913 366.32 161.031C371.692 164.214 376.481 171.197 380.661 175.484C384.036 178.943 387.35 183.889 387.439 176.753C387.509 171.167 389.517 166.775 390.749 161.337C391.138 159.619 395.064 149.32 393.526 148.657Z" fill="black" stroke="black" stroke-width="6" stroke-linecap="round"/>
<path d="M374.883 194.014C376.712 192.111 382.034 189.424 383.524 192.179C384.607 194.181 385.593 195.694 383.844 197.773C381.836 200.161 379.626 200.23 376.526 199.789C373.243 199.322 373.226 195.738 374.883 194.014Z" fill="black" stroke="black" stroke-width="6" stroke-linecap="round"/>
<path d="M123.489 104.786C122.59 107.225 119.146 106.957 116.982 106.957C116.982 107.382 115.775 104.561 115.799 103.627C115.87 100.931 117.69 100 120.235 100C123.571 100 124.317 102.54 123.489 104.786Z" fill="black" stroke="black" stroke-width="6" stroke-linecap="round"/>
<path d="M361.206 327.409C366.733 321.242 373.071 309 374.365 309C375.863 309.745 377.295 311.638 378.73 312.63C381.869 314.799 382.666 314.122 380.814 318.334C378.66 323.233 376.448 327.967 374.17 332.853C373.558 334.165 373.336 335.085 373.071 336.534C372.968 337.098 373.089 339.235 372.574 338.979C369.641 337.52 355.678 336.534 354.854 334.798C354.229 333.48 359.039 329.827 361.206 327.409Z" fill="black" stroke="black" stroke-width="6" stroke-linecap="round"/>
<path d="M57.1143 319C55.207 321.496 54.7988 321.637 54.7988 324.655C54.7988 327.229 55.0871 327.751 57.6931 327.878C58.3979 327.912 62.634 328.543 62.8707 329.39C63.2416 330.717 61.3305 332.353 60.3302 332.645C59.7214 332.823 60.4765 334.11 60.7161 334.355C61.6666 335.327 64.8772 335.745 66.2474 336.032C68.8158 336.569 73.1395 334.957 75.3162 336.229C76.2876 336.797 75.6378 341.986 75.6378 342.937C75.6378 345.152 75.2722 346.368 77.4066 347.375C77.8592 347.589 80.3439 348 79.6899 348" stroke="black" stroke-width="6" stroke-linecap="round"/>
<path d="M341.95 107C336.714 113.035 342.431 108.267 344.427 112.308C345.023 113.515 341.295 116.723 341.295 118.467C341.295 121.51 345.511 119.852 345.774 122.104C346.049 124.451 343.917 127.393 343.917 130" stroke="black" stroke-width="6" stroke-linecap="round"/>
<path d="M337.085 363.823C335.416 364.877 330.799 368.144 330.799 363.823C330.799 360.694 331.786 357.731 334.513 356.424C338.592 354.467 338.799 359.728 338.799 363.207" stroke="black" stroke-width="6" stroke-linecap="round"/>
<path d="M47.4264 287.555C48.8295 290.206 52.1017 290.213 55.1546 289.801C57.9883 289.801 68.4504 282.054 63.4774 279.566C59.8743 277.764 51.1384 280.68 48.153 282.5C46.377 283.582 46.5861 285.967 47.4264 287.555Z" fill="black" stroke="black" stroke-width="6" stroke-linecap="round"/>
<path d="M222.799 204C224.933 208.998 227.357 215.267 234.308 212.18C238.263 210.063 240.246 209.022 244.799 205.925" stroke="black" stroke-width="6" stroke-linecap="round"/>
<path d="M179.849 209.02C182.882 213.436 186.432 219.023 192.913 214.77C196.538 212.003 198.359 210.636 202.414 206.816" stroke="black" stroke-width="6" stroke-linecap="round"/>
</g>
</svg>
