<svg width="450" height="450" viewBox="0 0 450 450" fill="none" xmlns="http://www.w3.org/2000/svg">
<path d="M277.359 341.394C277.853 352.043 277.844 362.715 277.281 373.346C277.027 378.308 276.619 383.837 276.154 388.458C276.047 389.504 275.953 390.574 275.784 391.606C275.693 392.122 275.552 392.6 275.424 393.103C275.295 393.607 275.501 392.839 275.539 392.776C275.792 392.387 276.221 392.176 275.678 392.576C276.284 392.126 277.028 391.789 277.621 391.402C278.214 391.015 277.923 391.316 277.545 391.402C276.425 391.622 278.375 391.406 277.231 391.4C276.087 391.394 274.616 391.385 273.322 391.378L254.819 391.338C251.89 391.322 248.159 393.077 247.538 396.274C247.404 396.952 247.425 397.653 247.601 398.322C247.776 398.991 248.101 399.611 248.551 400.135C249.001 400.66 249.565 401.075 250.198 401.349C250.832 401.623 251.519 401.749 252.209 401.718L270.083 401.755C272.911 401.77 275.99 402.052 278.772 401.375C280.727 400.96 282.542 400.042 284.037 398.712C285.532 397.381 286.656 395.684 287.299 393.787C287.972 391.156 288.345 388.458 288.412 385.743C288.705 382.859 288.935 379.975 289.139 377.091C289.558 371.213 289.812 365.335 289.904 359.456C290.009 352.737 289.9 346.017 289.577 339.295C289.431 336.195 285.894 334.726 283.188 335.303C280.482 335.88 277.201 338.193 277.359 341.457L277.359 341.394Z" fill="black"/>
<path d="M198.047 336.789C199.571 350.524 199.748 364.36 198.576 378.146C198.265 381.655 197.875 385.141 197.439 388.628C197.319 389.876 197.104 391.116 196.796 392.34C196.699 392.679 196.578 393.013 196.434 393.34C196.98 392.381 197.756 391.536 198.71 390.865C199.664 390.194 200.771 389.712 201.955 389.454C201.662 389.465 200.042 389.784 200.333 389.746C192.401 390.645 184.395 391.197 176.457 391.921C174.649 392.131 172.904 392.651 171.319 393.452C169.734 394.252 168.342 395.316 167.221 396.584C166.189 397.772 164.056 401.622 167.726 401.291L188.608 399.38C192.739 399.005 196.595 398.721 200.366 397.01C202.525 396.098 204.454 394.81 206.033 393.226C207.612 391.642 208.809 389.794 209.549 387.797C210.259 384.85 210.716 381.862 210.915 378.859C211.291 375.811 211.594 372.751 211.825 369.681C212.299 363.559 212.499 357.425 212.426 351.279C212.362 344.259 211.933 337.263 211.141 330.289C210.834 327.519 205.791 329.414 204.341 330.172C202.075 331.34 197.771 334.018 198.078 336.788L198.047 336.789Z" fill="black"/>
<path d="M351.501 269.485C369.567 282.981 379.313 302.919 379.852 327.483C379.881 329.286 389.465 327.449 389.431 325.724C388.819 300.87 378.867 280.722 360.483 267.119C358.926 266.493 356.735 266.556 354.282 267.298C353.132 267.603 350.339 268.613 351.473 269.444L351.501 269.485Z" fill="black"/>
<path d="M125.176 225.829C103.229 220.649 86.3458 206.246 76.0632 183.931C75.3178 182.288 67.2604 187.792 67.9785 189.36C78.4427 211.912 95.5991 226.427 117.88 231.578C119.558 231.531 121.543 230.6 123.497 228.943C124.43 228.205 126.589 226.166 125.218 225.856L125.176 225.829Z" fill="black"/>
<path d="M394.007 132.909C402.52 151.23 383.095 176.328 383.961 195.356C384.84 215.081 406.136 238.345 399.556 256.653C392.977 274.961 361.799 279.071 348.577 293.649C335.833 307.709 334.766 339.508 316.571 348.093C298.377 356.678 273.453 337.105 254.556 337.978C234.981 338.863 211.864 360.307 193.683 353.681C175.501 347.056 171.42 315.661 156.943 302.348C142.98 289.514 111.401 288.44 102.951 270.119C94.5003 251.798 113.85 226.7 112.996 207.671C112.117 187.947 90.8212 164.683 97.4007 146.375C103.98 128.066 135.158 123.957 148.379 109.379C161.124 95.3192 162.191 63.5202 180.385 54.9477C198.58 46.3753 223.504 65.9225 242.401 65.0627C261.989 64.1776 285.093 42.7339 303.274 49.3592C321.456 55.9845 325.537 87.3789 340.014 100.693C353.902 113.513 385.481 114.588 394.007 132.909Z" fill="#FFB800"/>
<path d="M266.956 170.427C267.444 171.01 268.706 175.119 270.292 174.414C273.248 173.099 274.142 168.45 272.676 165.87C268.996 159.397 267.497 168.722 267.051 169.748" stroke="black" stroke-width="6" stroke-linecap="round"/>
<path d="M217.67 170.427C218.157 171.01 219.42 175.119 221.006 174.414C223.962 173.099 224.856 168.45 223.389 165.87C219.71 159.397 218.211 168.722 217.765 169.748" stroke="black" stroke-width="6" stroke-linecap="round"/>
<path d="M73.2086 67.7471C73.2086 73.2999 72.0973 78.6518 68.7872 83.3134C64.8395 88.8728 63.2619 89.9847 58.8398 93.3203C54.4176 96.6559 44.0847 96.362 47.7857 96.6559C59.2953 97.57 69.8929 119.569 69.8929 128.9" stroke="black" stroke-width="6" stroke-linecap="round"/>
<path d="M73.3835 67.7471C73.3835 72.3407 76.7763 93.802 84.8865 95.5441C86.56 95.9035 91.4314 96.5055 92.8651 97.4294M90.638 98.8797C73.3835 103.327 69.9326 122.637 69.9326 128.9" stroke="black" stroke-width="6" stroke-linecap="round"/>
<path d="M263.692 59.7833C252.85 65.5266 245.303 67.8484 234.717 67.8484C220.229 67.8484 219.114 49.152 185.68 54.4676C152.247 59.7833 162.277 118.026 119.08 126.426C112.666 127.852 93.1803 141.443 96.5239 165.974C98.9201 176.763 103.648 189.963 110.689 197.423C115.593 202.618 113.108 220.774 110.275 226.443L110.174 226.644C103.606 239.788 93.3026 260.404 102.096 275.251C105.447 280.91 110.689 284.172 117.698 286.402C124.708 288.632 133.199 292.99 136.644 294.434C149.027 299.62 155.146 300.881 163.391 309.818C173.664 320.953 172.639 341.565 185.68 351.076C201.595 362.681 206.265 358.288 224.687 351.076C235.53 346.83 237.891 342.23 248.09 337.695C250.544 336.604 263.652 335.972 265.922 338.81C271.261 345.487 277.066 347.73 294.897 348.846C309.385 352.267 327.391 343.801 330.56 339.925C341.271 326.827 342.884 320.859 340.653 300.03C338.49 279.831 368.225 279.045 384.782 273.021C396.689 268.689 403 260.901 403 248.489C403 241.527 397.909 237.44 395.969 230.648C394.481 225.435 384.782 214.847 384.782 207.994C384.782 197.162 382.85 198.369 384.782 186.046C386.487 175.167 395.969 158.833 395.969 148.133C395.969 135.44 385.774 123.726 372.91 116.911C361.923 111.092 346.162 114.805 335.018 102.416C314.958 80.1142 332.789 59.7833 299.355 48.8925C280.409 45.5471 275.832 53.3516 263.692 59.7833Z" stroke="black" stroke-width="6" stroke-linecap="round"/>
<path d="M210.723 181.371C211.931 181.064 219.29 182.069 222.365 185.155C224.344 186.663 225.494 188.737 226.429 191.194C227.693 194.517 227.143 196.105 226.429 198.912C225.001 201.718 223.614 205.158 220.718 206.63C218.324 207.846 217.722 208.68 215.172 208.615C210.967 208.508 207.239 206.034 203.585 203.823C200.975 201.017 201.443 198.21 200.976 194.458C201.086 190.985 201.474 189.089 205.012 185.155C207.154 182.774 207.602 182.163 210.723 181.371Z" stroke="black" stroke-width="6" stroke-linecap="round"/>
<path d="M256.868 181.371C257.975 181.064 264.721 182.069 267.539 185.155C269.353 186.663 270.408 188.737 271.265 191.194C272.423 194.517 271.919 196.105 271.265 198.912C269.956 201.718 268.684 205.158 266.03 206.63C263.835 207.846 263.284 208.68 260.946 208.615C257.092 208.508 253.674 206.034 250.324 203.823C247.932 201.017 248.361 198.21 247.933 194.458C248.034 190.985 248.39 189.089 251.633 185.155C253.596 182.774 254.007 182.163 256.868 181.371Z" stroke="black" stroke-width="6" stroke-linecap="round"/>
<path d="M229.368 188.962C233.348 187.998 237.046 187.512 241.009 188.177C242.557 188.436 244.214 188.962 245.749 188.962" stroke="black" stroke-width="6" stroke-linecap="round"/>
<path d="M220.632 217.717C223.897 221.014 229.601 227.688 233.62 231.261C236.313 232.975 238.292 236.31 241.234 236.985C244.176 237.659 261.311 225.324 267.39 221.217C275.659 215.631 282.695 209.326 289.429 202.066" stroke="black" stroke-width="6" stroke-linecap="round"/>
</svg>
