<svg width="450" height="450" viewBox="0 0 450 450" fill="none" xmlns="http://www.w3.org/2000/svg">
<g opacity="0.3">
<path d="M233.193 390.041C233.696 399.633 233.742 409.247 233.285 418.827C233.079 423.299 232.736 428.282 232.336 432.448C232.245 433.39 232.164 434.355 232.016 435.286C231.936 435.751 231.81 436.182 231.696 436.636C231.582 437.09 231.764 436.398 231.799 436.341C232.027 435.989 232.416 435.797 231.925 436.16C232.473 435.751 233.148 435.445 233.685 435.093C234.222 434.741 233.959 435.013 233.616 435.093C232.599 435.297 234.371 435.093 233.331 435.093C232.29 435.093 230.953 435.093 229.775 435.093L212.947 435.15C210.284 435.15 206.9 436.75 206.351 439.633C206.232 440.245 206.255 440.876 206.419 441.478C206.582 442.08 206.88 442.637 207.292 443.107C207.704 443.577 208.219 443.948 208.796 444.192C209.374 444.436 210 444.546 210.627 444.514L226.883 444.457C229.455 444.457 232.256 444.696 234.783 444.071C236.559 443.688 238.205 442.852 239.557 441.646C240.91 440.44 241.924 438.905 242.499 437.193C243.098 434.819 243.423 432.386 243.471 429.94C243.722 427.34 243.917 424.741 244.088 422.141C244.439 416.844 244.641 411.547 244.694 406.25C244.755 400.196 244.622 394.143 244.294 388.089C244.145 385.297 240.922 383.991 238.464 384.525C236.006 385.058 233.033 387.158 233.193 390.098V390.041Z" fill="black"/>
<path d="M176.161 392.559C176.905 403.874 176.639 415.23 175.365 426.501C175.031 429.37 174.639 432.217 174.213 435.064C174.087 436.084 173.89 437.094 173.625 438.089C173.542 438.364 173.442 438.634 173.325 438.897C173.76 438.128 174.366 437.46 175.099 436.939C175.832 436.419 176.674 436.059 177.567 435.884C177.348 435.884 176.127 436.095 176.346 436.072C170.385 436.56 164.378 436.759 158.418 437.103C157.059 437.218 155.738 437.59 154.529 438.196C153.32 438.802 152.248 439.632 151.373 440.636C150.566 441.578 148.86 444.669 151.615 444.514L167.295 443.605C170.396 443.428 173.29 443.317 176.161 442.032C177.803 441.352 179.283 440.357 180.511 439.107C181.738 437.857 182.686 436.38 183.297 434.765C183.914 432.37 184.342 429.933 184.577 427.476C184.946 424.987 185.261 422.487 185.523 419.976C186.053 414.969 186.38 409.944 186.503 404.9C186.656 399.139 186.537 393.386 186.145 387.641C185.996 385.359 182.168 386.755 181.061 387.331C179.331 388.217 176.034 390.277 176.184 392.559H176.161Z" fill="black"/>
<path d="M382.739 246.339C373.554 264.498 357.349 276.263 335.598 280.566C334 280.873 337.124 289.105 338.652 288.806C360.649 284.395 377.009 272.413 386.239 253.955C386.553 252.473 386.156 250.535 385.115 248.471C384.665 247.496 383.333 245.171 382.771 246.308L382.739 246.339Z" fill="black"/>
<path d="M95.9559 287.599C76.1511 282.925 60.9158 269.927 51.6369 249.79C50.9642 248.308 43.6932 253.274 44.3413 254.689C53.7841 275.04 69.2659 288.138 89.3724 292.787C90.8865 292.745 92.6772 291.905 94.4407 290.409C95.2828 289.743 97.2311 287.903 95.9942 287.623L95.9559 287.599Z" fill="black"/>
<path d="M339.078 203.748C346.76 220.281 329.232 242.929 330.014 260.101C330.807 277.9 350.024 298.893 344.086 315.415C338.149 331.936 310.015 335.644 298.083 348.799C286.583 361.487 285.619 390.182 269.201 397.929C252.783 405.676 230.291 388.014 213.239 388.801C195.574 389.6 174.714 408.951 158.307 402.972C141.9 396.994 138.218 368.663 125.153 356.649C112.554 345.068 84.0566 344.098 76.431 327.566C68.8054 311.033 86.2661 288.385 85.4957 271.214C84.7025 253.415 65.4855 232.421 71.4228 215.9C77.3601 199.379 105.494 195.67 117.426 182.515C128.926 169.828 129.89 141.132 146.308 133.397C162.726 125.661 185.218 143.3 202.271 142.524C219.947 141.726 240.795 122.375 257.202 128.354C273.609 134.332 277.292 162.662 290.356 174.677C302.888 186.246 331.385 187.216 339.078 203.748Z" fill="black"/>
<path d="M186.719 266.638C194.426 265.439 202.194 264.233 209.942 263.364C212.113 263.121 220.637 260.642 220.044 263.816C218.428 272.456 215.325 279.797 211.957 287.886C211.267 289.545 206.762 299.71 204.949 298.588C203.135 297.466 197.494 288.975 195.708 284.924C194.586 282.377 188.522 270.248 186.568 268.138" stroke="black" stroke-width="6" stroke-linecap="round"/>
<path d="M223.898 237.605C224.337 238.13 225.476 241.838 226.908 241.202C229.575 240.015 230.382 235.82 229.059 233.492C225.738 227.651 224.386 236.065 223.983 236.992" stroke="black" stroke-width="6" stroke-linecap="round"/>
<path d="M179.422 237.605C179.862 238.13 181.001 241.838 182.432 241.202C185.1 240.015 185.907 235.82 184.583 233.492C181.262 227.651 179.91 236.065 179.507 236.992" stroke="black" stroke-width="6" stroke-linecap="round"/>
<path d="M220.945 137.76C211.196 142.943 204.41 145.038 194.891 145.038C181.863 145.038 180.862 128.167 150.798 132.963C120.735 137.76 129.754 190.318 90.9122 197.899C85.1454 199.185 67.6238 211.449 70.6303 233.586C72.785 243.322 77.0361 255.234 83.3676 261.965C87.777 266.653 85.5423 283.037 82.995 288.153L82.9045 288.335C76.9982 300.195 67.7338 318.799 75.6407 332.197C78.6542 337.303 83.3676 340.247 89.6702 342.259C95.9728 344.272 103.608 348.205 106.706 349.507C117.84 354.187 123.342 355.325 130.756 363.39C139.993 373.438 139.071 392.039 150.798 400.621C165.108 411.093 169.308 407.129 185.872 400.621C195.622 396.79 197.746 392.639 206.916 388.546C209.123 387.561 220.909 386.991 222.95 389.552C227.751 395.578 232.971 397.602 249.004 398.608C262.032 401.696 278.222 394.056 281.072 390.559C290.702 378.739 292.153 373.353 290.147 354.558C288.203 336.33 314.94 335.62 329.827 330.185C340.533 326.275 346.208 319.248 346.208 308.048C346.208 301.765 341.63 298.077 339.887 291.948C338.548 287.244 329.827 277.688 329.827 271.505C329.827 261.73 328.09 262.819 329.827 251.699C331.361 241.882 339.887 227.142 339.887 217.487C339.887 206.032 330.719 195.462 319.152 189.312C309.273 184.061 295.101 187.412 285.08 176.231C267.042 156.107 283.076 137.76 253.013 127.932C235.977 124.914 231.861 131.956 220.945 137.76Z" stroke="black" stroke-width="6" stroke-linecap="round"/>
<path d="M331.077 80.8931C332.926 92.4791 334.27 104.796 334.27 116.584C334.27 117.983 335.216 125.293 333.679 125.756C331.292 126.475 329.563 127.141 327.647 128.938C325.304 131.134 318.914 140.975 322.797 144.662C324.699 146.467 333.025 139.179 334.034 137.049C335.418 134.129 332.298 132.353 329.648 133.595C326.395 135.121 323.474 143.265 325.991 142.415C327.672 141.848 342.165 133.595 337.351 127.5C332.699 124.902 323.038 140.122 326.819 134.803" stroke="black" stroke-width="6" stroke-linecap="round"/>
<path d="M29.8264 335.136C31.3496 344.226 32.4564 353.891 32.4564 363.139C32.4564 364.237 33.2349 369.972 31.9694 370.336C30.0033 370.9 28.5799 371.422 27.0016 372.832C25.0728 374.556 19.8102 382.277 23.0079 385.17C24.574 386.586 31.4306 380.868 32.2616 379.197C33.4012 376.906 30.8321 375.512 28.65 376.487C25.9711 377.684 23.5651 384.074 25.6379 383.407C27.0223 382.962 38.9579 376.487 34.9933 371.705C31.1625 369.666 23.2059 381.608 26.3198 377.434" stroke="black" stroke-width="6" stroke-linecap="round"/>
<path d="M330.441 81.8784C330.575 84.7361 336.449 90.0651 341.456 92.1118C346.18 94.0432 353.471 98.2518 348.465 108.485" stroke="black" stroke-width="6" stroke-linecap="round"/>
<path d="M86.0536 155.786C69.1854 145.863 48.5949 143.765 30.8691 136.078" stroke="black" stroke-width="6" stroke-linecap="round"/>
<path d="M127.442 96.6603C122.733 83.0286 119.547 68.9999 115.237 55.2525C114.098 51.6173 113.646 48.2074 113.646 44.4321" stroke="black" stroke-width="6" stroke-linecap="round"/>
<path d="M218.102 82.8641C220.402 59.6991 223.029 37.0682 223.029 13.7586C223.029 10.9137 223.516 8.73815 224.014 6" stroke="black" stroke-width="6" stroke-linecap="round"/>
<path d="M287.082 94.6892C290.533 87.7599 292.904 79.7245 298.098 73.8041C301.406 70.0339 304.799 66.5902 307.691 62.5165C310.011 59.2473 310.307 55.4314 312.703 52.3154" stroke="black" stroke-width="6" stroke-linecap="round"/>
<path d="M360.99 173.524C383.27 162.532 405.123 150.68 428 141.005" stroke="black" stroke-width="6" stroke-linecap="round"/>
<path d="M30.8691 336.289C37.614 334.3 44.2361 331.864 51.3071 331.147C51.7637 331.1 56.7984 330.103 56.8318 330.218C57.5873 332.833 57.668 335.643 58.4928 338.253C60.546 344.751 61.4177 351.944 61.4177 358.787" stroke="black" stroke-width="6" stroke-linecap="round"/>
<path d="M58.5829 361.795C56.625 364.411 54.6195 366.058 52.7636 368.728C51.9364 369.918 49.8384 371.243 49.8384 372.808C49.8384 376.45 53.5788 374.96 55.6175 373.928C60.2046 371.606 65.9358 359.772 59.5816 359.772C52.721 359.772 43.9 378.573 51.5875 375.114C54.9211 373.615 56.4991 374.718 57.8293 371.255C58.8388 368.628 60.7346 363.603 60.7346 360.783" stroke="black" stroke-width="6" stroke-linecap="round"/>
<path d="M31.8545 347.947C36.977 347.019 42.0409 345.616 47.2075 344.936C49.0708 344.69 50.7959 344.065 52.6432 343.776C53.1935 343.69 53.692 343.514 54.2451 343.422C54.6129 343.361 55.331 343.331 55.505 343.02" stroke="black" stroke-width="6" stroke-linecap="round"/>
</g>
</svg>
