<svg width="450" height="450" viewBox="0 0 450 450" fill="none" xmlns="http://www.w3.org/2000/svg">
<g opacity="0.3">
<path d="M276.116 342.279C276.679 352.97 276.73 363.686 276.219 374.364C275.988 379.348 275.605 384.902 275.157 389.545C275.055 390.595 274.965 391.671 274.799 392.708C274.709 393.227 274.569 393.708 274.441 394.214C274.313 394.72 274.517 393.948 274.556 393.885C274.812 393.493 275.247 393.278 274.697 393.682C275.311 393.227 276.065 392.885 276.667 392.493C277.268 392.101 276.973 392.405 276.59 392.493C275.451 392.721 277.434 392.493 276.27 392.493C275.106 392.493 273.609 392.493 272.292 392.493L253.464 392.556C250.484 392.556 246.697 394.34 246.084 397.554C245.951 398.236 245.977 398.939 246.159 399.61C246.342 400.281 246.676 400.902 247.137 401.426C247.597 401.95 248.173 402.363 248.819 402.635C249.466 402.907 250.166 403.03 250.867 402.994L269.056 402.931C271.934 402.931 275.068 403.196 277.894 402.501C279.882 402.073 281.723 401.141 283.237 399.797C284.75 398.453 285.885 396.742 286.528 394.834C287.198 392.188 287.562 389.476 287.615 386.749C287.897 383.852 288.114 380.955 288.306 378.058C288.698 372.154 288.924 366.25 288.984 360.346C289.052 353.598 288.903 346.851 288.536 340.103C288.37 336.991 284.763 335.536 282.013 336.131C279.263 336.725 275.937 339.066 276.116 342.342V342.279Z" fill="black"/>
<path d="M212.298 344.91C213.135 357.56 212.835 370.255 211.403 382.856C211.027 386.064 210.587 389.247 210.107 392.43C209.965 393.569 209.745 394.699 209.446 395.811C209.353 396.118 209.24 396.42 209.109 396.715C209.599 395.855 210.279 395.108 211.104 394.526C211.928 393.944 212.875 393.541 213.879 393.346C213.633 393.346 212.259 393.581 212.505 393.557C205.803 394.102 199.048 394.325 192.346 394.708C190.818 394.838 189.333 395.253 187.973 395.931C186.614 396.609 185.408 397.536 184.424 398.659C183.517 399.712 181.598 403.167 184.696 402.994L202.328 401.978C205.816 401.78 209.07 401.656 212.298 400.22C214.144 399.459 215.809 398.347 217.189 396.949C218.569 395.552 219.635 393.9 220.323 392.095C221.016 389.417 221.497 386.693 221.762 383.946C222.177 381.164 222.531 378.369 222.825 375.562C223.421 369.964 223.789 364.346 223.927 358.706C224.1 352.266 223.966 345.835 223.525 339.411C223.357 336.86 219.052 338.42 217.808 339.064C215.863 340.055 212.155 342.359 212.324 344.91H212.298Z" fill="black"/>
<path d="M425.522 154.74C418.986 176.615 403.428 192.825 380.265 201.895C378.561 202.551 383.646 211.021 385.273 210.388C408.687 201.148 424.373 184.669 430.9 162.455C430.952 160.756 430.129 158.695 428.57 156.622C427.879 155.635 425.947 153.332 425.551 154.699L425.522 154.74Z" fill="black"/>
<path d="M124.006 272.486L132.068 345.499C132.071 346.323 132.677 347.121 133.781 347.755C134.885 348.388 136.418 348.817 138.114 348.967C141.097 349.198 145.182 348.196 144.994 346.514L136.932 273.501C136.941 272.677 136.343 271.878 135.242 271.244C134.141 270.61 132.609 270.181 130.913 270.033C127.903 269.802 123.818 270.804 124.006 272.486Z" fill="black"/>
<path d="M395.094 132.963C403.728 151.531 384.028 176.967 384.906 196.253C385.798 216.243 407.395 239.822 400.723 258.377C394.05 276.932 362.429 281.097 349.02 295.872C336.094 310.121 335.012 342.35 316.56 351.051C298.107 359.751 272.829 339.915 253.664 340.799C233.81 341.696 210.366 363.429 191.926 356.715C173.487 350 169.348 318.182 154.665 304.688C140.504 291.681 108.477 290.592 99.9062 272.024C91.3359 253.456 110.96 228.02 110.094 208.734C109.202 188.744 87.6046 165.165 94.2775 146.61C100.95 128.055 132.57 123.89 145.98 109.115C158.905 94.8657 159.988 62.6376 178.44 53.9494C196.893 45.2613 222.171 65.0723 241.337 64.2009C261.203 63.3039 284.634 41.5708 303.074 48.2855C321.513 55.0002 325.652 86.8183 340.335 100.312C354.42 113.306 386.447 114.395 395.094 132.963Z" fill="black"/>
<path d="M225.161 202.976C233.443 201.628 241.789 200.272 250.114 199.294C252.447 199.02 261.606 196.233 260.968 199.802C259.232 209.518 255.898 217.773 252.28 226.869C251.538 228.733 246.698 240.165 244.749 238.903C242.8 237.641 236.739 228.093 234.821 223.538C233.615 220.674 227.099 207.035 225 204.662" stroke="black" stroke-width="6" stroke-linecap="round"/>
<path d="M265.982 170.93C266.475 171.52 267.753 175.68 269.359 174.966C272.352 173.635 273.257 168.928 271.772 166.316C268.047 159.763 266.53 169.203 266.078 170.242" stroke="black" stroke-width="6" stroke-linecap="round"/>
<path d="M216.084 170.93C216.577 171.52 217.855 175.68 219.461 174.966C222.454 173.635 223.359 168.928 221.874 166.316C218.148 159.763 216.631 169.203 216.179 170.242" stroke="black" stroke-width="6" stroke-linecap="round"/>
<path d="M41 95C41 100.539 39.8552 105.877 36.4451 110.527C32.3782 116.073 30.7529 117.182 26.1973 120.509C21.6416 123.836 10.9967 123.543 14.8095 123.836C26.6665 124.748 37.5841 146.692 37.5841 156" stroke="black" stroke-width="6" stroke-linecap="round"/>
<path d="M41.3105 95C41.3105 99.5822 44.5654 120.99 52.3458 122.727C53.9513 123.086 58.6245 123.686 60 124.608M57.8634 126.055C41.3105 130.491 38 149.752 38 156" stroke="black" stroke-width="6" stroke-linecap="round"/>
<path d="M48.0526 175C49.5362 185.939 44.1781 193.653 34.4907 198.995C26.5053 203.398 24.4471 200.486 36.6527 203.091C49.5321 205.84 55 224 55 235" stroke="black" stroke-width="6" stroke-linecap="round"/>
<path d="M48 176C52.3817 186.406 61.8115 191.26 72.4242 191.26C77.2759 191.26 79.3645 189.429 73.1349 191.847C70.0209 193.056 65.1858 199.179 63.8936 201.918C61.8651 206.217 60.5029 209.903 59.3726 214.466C58.5502 217.786 56.3428 231.903 55.9819 235" stroke="black" stroke-width="6" stroke-linecap="round"/>
<path d="M262.812 58.8382C251.824 64.6531 244.175 67.0038 233.446 67.0038C218.762 67.0038 217.633 48.0744 183.748 53.4563C149.863 58.8382 160.028 117.807 116.248 126.312C109.748 127.756 89.9992 141.515 93.3879 166.353C95.8165 177.276 100.608 190.64 107.744 198.193C112.714 203.453 110.196 221.835 107.325 227.575L107.223 227.779C100.565 241.086 90.1232 261.959 99.0353 276.991C102.432 282.72 107.744 286.023 114.848 288.281C121.952 290.539 130.558 294.952 134.05 296.413C146.6 301.664 152.801 302.94 161.158 311.989C171.569 323.262 170.53 344.132 183.748 353.761C199.877 365.51 204.61 361.063 223.28 353.761C234.27 349.463 236.663 344.805 247 340.213C249.487 339.108 262.772 338.469 265.072 341.342C270.483 348.103 276.367 350.374 294.439 351.503C309.122 354.967 327.371 346.395 330.583 342.471C341.438 329.21 343.073 323.167 340.812 302.079C338.62 281.629 368.756 280.832 385.536 274.733C397.603 270.347 404 262.462 404 249.896C404 242.847 398.84 238.709 396.874 231.833C395.366 226.555 385.536 215.834 385.536 208.896C385.536 197.928 383.578 199.151 385.536 186.674C387.264 175.66 396.874 159.122 396.874 148.289C396.874 135.438 386.542 123.578 373.503 116.678C362.369 110.786 346.395 114.546 335.1 102.002C314.769 79.4225 332.841 58.8382 298.956 47.8116C279.755 44.4245 275.116 52.3264 262.812 58.8382Z" stroke="black" stroke-width="6" stroke-linecap="round"/>
</g>
</svg>
