<svg width="269" height="438" viewBox="0 0 269 438" fill="none" xmlns="http://www.w3.org/2000/svg">
<path d="M27.2194 23.04V0.935999H24.0514V23.04H27.2194ZM23.0194 12.816L22.8034 10.488C22.3874 10.536 21.9554 10.584 21.5074 10.632C21.0754 10.664 20.6354 10.696 20.1874 10.728C20.4594 9.128 20.6194 7.768 20.6674 6.648C20.7154 5.512 20.7394 4.536 20.7394 3.72V2.472H10.0834V4.992H17.5954C17.5794 5.76 17.5314 6.632 17.4514 7.608C17.3714 8.568 17.2114 9.672 16.9714 10.92C15.4674 11 13.9794 11.048 12.5074 11.064C11.0514 11.08 9.64341 11.088 8.28341 11.088L8.69141 13.656C10.3074 13.656 12.0114 13.632 13.8034 13.584V21.888H16.9714V13.416C17.9794 13.352 18.9874 13.28 19.9954 13.2C21.0034 13.104 22.0114 12.976 23.0194 12.816ZM48.3135 23.112V0.935999H45.1455V5.472H40.4415C39.9455 4.512 39.2975 3.776 38.4975 3.264C37.7135 2.752 36.8175 2.496 35.8095 2.496C34.9935 2.496 34.2335 2.68 33.5295 3.048C32.8255 3.416 32.2175 3.944 31.7055 4.632C31.2095 5.304 30.8175 6.128 30.5295 7.104C30.2415 8.064 30.0975 9.152 30.0975 10.368C30.0975 11.584 30.2415 12.68 30.5295 13.656C30.8175 14.632 31.2095 15.464 31.7055 16.152C32.2175 16.84 32.8255 17.368 33.5295 17.736C34.2335 18.104 34.9935 18.288 35.8095 18.288C36.8815 18.304 37.8255 18.024 38.6415 17.448C39.4735 16.856 40.1375 16.008 40.6335 14.904H45.1455V23.112H48.3135ZM35.8095 15.408C34.9935 15.408 34.3375 14.984 33.8415 14.136C33.3455 13.272 33.0975 12.016 33.0975 10.368C33.0975 8.72 33.3455 7.472 33.8415 6.624C34.3375 5.776 34.9935 5.352 35.8095 5.352C36.6255 5.352 37.2815 5.776 37.7775 6.624C38.2895 7.472 38.5455 8.72 38.5455 10.368C38.5455 12.016 38.2895 13.272 37.7775 14.136C37.2815 14.984 36.6255 15.408 35.8095 15.408ZM45.1455 8.016V12.336H41.3775C41.4735 11.728 41.5215 11.072 41.5215 10.368C41.5215 9.52 41.4495 8.736 41.3055 8.016H45.1455ZM61.1037 10.536C62.3037 10.536 63.3917 10.432 64.3677 10.224C65.3437 10 66.1757 9.696 66.8637 9.312C67.5677 8.912 68.1037 8.432 68.4717 7.872C68.8557 7.296 69.0477 6.656 69.0477 5.952C69.0477 5.248 68.8557 4.616 68.4717 4.056C68.1037 3.496 67.5677 3.016 66.8637 2.616C66.1757 2.216 65.3437 1.912 64.3677 1.704C63.3917 1.48 62.3037 1.368 61.1037 1.368C59.9197 1.368 58.8397 1.48 57.8637 1.704C56.8877 1.912 56.0477 2.216 55.3437 2.616C54.6557 3.016 54.1197 3.496 53.7357 4.056C53.3517 4.616 53.1597 5.248 53.1597 5.952C53.1597 6.656 53.3517 7.296 53.7357 7.872C54.1197 8.432 54.6557 8.912 55.3437 9.312C56.0477 9.696 56.8877 10 57.8637 10.224C58.8397 10.432 59.9197 10.536 61.1037 10.536ZM61.1037 3.888C62.5117 3.888 63.6157 4.064 64.4157 4.416C65.2317 4.752 65.6397 5.264 65.6397 5.952C65.6397 6.64 65.2317 7.16 64.4157 7.512C63.6157 7.848 62.5117 8.016 61.1037 8.016C59.6957 8.016 58.5917 7.848 57.7917 7.512C56.9917 7.16 56.5917 6.64 56.5917 5.952C56.5917 5.264 56.9917 4.752 57.7917 4.416C58.5917 4.064 59.6957 3.888 61.1037 3.888ZM71.1357 14.208V11.688H51.1197V14.208H59.6877V18H62.9277V14.208H71.1357ZM68.9517 20.16H56.6637V16.056H53.4477V22.68H68.9517V20.16ZM92.5073 0.959999V6.72H87.2513V9.24H92.5073V17.04H95.6753V0.959999H92.5073ZM89.7473 13.488L89.5073 10.992C88.2753 11.2 87.0433 11.36 85.8113 11.472C84.5953 11.568 83.2033 11.616 81.6353 11.616V4.992H88.4993V2.472H78.4913V14.16H80.2673C81.2753 14.16 82.2033 14.152 83.0513 14.136C83.8993 14.12 84.6993 14.088 85.4513 14.04C86.2033 13.992 86.9233 13.928 87.6113 13.848C88.3153 13.752 89.0273 13.632 89.7473 13.488ZM96.1793 22.752V20.208H84.2753V15.744H81.1073V22.752H96.1793ZM113.865 0.959999V6.72H108.609V9.24H113.865V17.04H117.033V0.959999H113.865ZM111.105 13.488L110.865 10.992C109.633 11.2 108.401 11.36 107.169 11.472C105.953 11.568 104.561 11.616 102.993 11.616V4.992H109.857V2.472H99.8494V14.16H101.625C102.633 14.16 103.561 14.152 104.409 14.136C105.257 14.12 106.057 14.088 106.809 14.04C107.561 13.992 108.281 13.928 108.969 13.848C109.673 13.752 110.385 13.632 111.105 13.488ZM117.537 22.752V20.208H105.633V15.744H102.465V22.752H117.537ZM138.224 23.112V0.935999H135.056V23.112H138.224ZM126.344 2.496C125.512 2.496 124.736 2.68 124.016 3.048C123.312 3.416 122.704 3.944 122.192 4.632C121.68 5.304 121.272 6.128 120.968 7.104C120.68 8.064 120.536 9.152 120.536 10.368C120.536 11.584 120.68 12.68 120.968 13.656C121.272 14.632 121.68 15.464 122.192 16.152C122.704 16.84 123.312 17.368 124.016 17.736C124.736 18.104 125.512 18.288 126.344 18.288C127.176 18.288 127.944 18.104 128.648 17.736C129.368 17.368 129.984 16.84 130.496 16.152C131.008 15.464 131.408 14.632 131.696 13.656C132 12.68 132.152 11.584 132.152 10.368C132.152 9.152 132 8.064 131.696 7.104C131.408 6.128 131.008 5.304 130.496 4.632C129.984 3.944 129.368 3.416 128.648 3.048C127.944 2.68 127.176 2.496 126.344 2.496ZM126.344 5.352C127.16 5.352 127.824 5.776 128.336 6.624C128.848 7.472 129.104 8.72 129.104 10.368C129.104 12.016 128.848 13.272 128.336 14.136C127.824 14.984 127.16 15.408 126.344 15.408C125.528 15.408 124.864 14.984 124.352 14.136C123.84 13.272 123.584 12.016 123.584 10.368C123.584 8.72 123.84 7.472 124.352 6.624C124.864 5.776 125.528 5.352 126.344 5.352ZM163.963 14.016L165.307 11.376C164.059 11.168 162.955 10.808 161.995 10.296C161.035 9.784 160.227 9.184 159.571 8.496C158.915 7.808 158.419 7.064 158.083 6.264C157.747 5.448 157.579 4.64 157.579 3.84V2.256H154.195V3.84C154.195 4.624 154.027 5.424 153.691 6.24C153.355 7.04 152.859 7.784 152.203 8.472C151.547 9.16 150.739 9.768 149.779 10.296C148.819 10.808 147.715 11.168 146.467 11.376L147.811 14.016C149.747 13.648 151.395 12.96 152.755 11.952C154.115 10.928 155.155 9.712 155.875 8.304C156.595 9.712 157.635 10.92 158.995 11.928C160.371 12.936 162.027 13.632 163.963 14.016ZM166.003 20.376V17.808H145.987V20.376H166.003ZM185.753 23.088V0.959999H182.561V23.088H185.753ZM171.689 15.528V11.424H178.793V8.952H171.689V5.352H179.705V2.784H168.521V18.072H170.441C171.433 18.072 172.377 18.064 173.273 18.048C174.169 18.032 175.041 18 175.889 17.952C176.737 17.904 177.577 17.84 178.409 17.76C179.241 17.68 180.089 17.576 180.953 17.448L180.665 14.928C179.161 15.152 177.697 15.312 176.273 15.408C174.865 15.488 173.337 15.528 171.689 15.528ZM207.183 23.064V0.959999H204.015V9.432H199.887V12H204.015V23.064H207.183ZM199.935 3.072H189.807V5.592H196.791C196.743 6.12 196.679 6.632 196.599 7.128C196.519 7.608 196.423 8.08 196.311 8.544L188.631 8.976L189.039 11.64L195.351 11.064C194.711 12.28 193.847 13.4 192.759 14.424C191.671 15.448 190.255 16.416 188.511 17.328L190.239 19.728C192.223 18.688 193.839 17.56 195.087 16.344C196.351 15.112 197.343 13.8 198.063 12.408C198.783 11 199.271 9.52 199.527 7.968C199.799 6.4 199.935 4.768 199.935 3.072ZM227.63 12.216H230.486V9.6H227.63V0.935999H224.438V23.04H227.63V12.216ZM216.566 3.216H210.59V5.76H213.566C213.518 6.864 213.422 7.904 213.278 8.88C213.134 9.84 212.91 10.76 212.606 11.64C212.318 12.52 211.926 13.368 211.43 14.184C210.95 15 210.342 15.816 209.606 16.632L212.078 18.432C213.054 17.344 213.838 16.224 214.43 15.072C215.022 13.92 215.47 12.72 215.774 11.472C216.094 10.224 216.302 8.92 216.398 7.56C216.51 6.184 216.566 4.736 216.566 3.216ZM222.662 3.216H217.31V5.76H219.686C219.638 6.992 219.542 8.152 219.398 9.24C219.27 10.328 219.062 11.376 218.774 12.384C218.486 13.376 218.102 14.344 217.622 15.288C217.142 16.216 216.534 17.144 215.798 18.072L218.294 19.824C219.254 18.624 220.022 17.384 220.598 16.104C221.174 14.824 221.614 13.496 221.918 12.12C222.222 10.744 222.422 9.32 222.518 7.848C222.614 6.36 222.662 4.816 222.662 3.216ZM249.732 23.064V0.959999H246.564V23.064H249.732ZM239.964 6.912V5.688H244.524V3.072H232.14V5.688H236.748V6.912C236.748 7.856 236.636 8.808 236.412 9.768C236.188 10.712 235.844 11.608 235.38 12.456C234.932 13.288 234.364 14.048 233.676 14.736C232.988 15.424 232.18 15.976 231.252 16.392L233.052 18.912C234.348 18.32 235.436 17.456 236.316 16.32C237.212 15.184 237.908 13.888 238.404 12.432C238.9 13.792 239.58 14.984 240.444 16.008C241.324 17.016 242.412 17.8 243.708 18.36L245.436 15.864C244.508 15.48 243.7 14.968 243.012 14.328C242.34 13.688 241.772 12.968 241.308 12.168C240.86 11.368 240.524 10.52 240.3 9.624C240.076 8.712 239.964 7.808 239.964 6.912ZM255.034 15.912H257.338L257.842 6.096L257.962 2.76H254.41L254.53 6.096L255.034 15.912ZM254.458 21.336H257.962V17.928H254.458V21.336Z" fill="#212325"/>
<circle cx="114" cy="433" r="5" fill="#C4C4C4"/>
<circle cx="134" cy="433" r="5" fill="#C4C4C4"/>
<circle cx="154" cy="433" r="5" fill="#FF9100"/>
<path d="M81.9358 48.67V52.39H78.1558V53.38H81.9358V58.48H83.1808V48.67H81.9358ZM79.9108 56.065L79.7758 55.06C79.3258 55.15 78.8858 55.225 78.4558 55.285C78.0358 55.335 77.6008 55.38 77.1508 55.42C76.7008 55.45 76.2258 55.47 75.7258 55.48C75.2258 55.49 74.6808 55.495 74.0908 55.495V50.77H79.0258V49.765H72.8608V56.5H73.8808C74.5108 56.5 75.0858 56.495 75.6058 56.485C76.1358 56.475 76.6408 56.455 77.1208 56.425C77.6008 56.385 78.0658 56.34 78.5158 56.29C78.9658 56.23 79.4308 56.155 79.9108 56.065ZM83.5258 61.9V60.895H75.7858V57.76H74.5558V61.9H83.5258ZM95.2846 48.67V52.39H91.5046V53.38H95.2846V58.48H96.5296V48.67H95.2846ZM93.2596 56.065L93.1246 55.06C92.6746 55.15 92.2346 55.225 91.8046 55.285C91.3846 55.335 90.9496 55.38 90.4996 55.42C90.0496 55.45 89.5746 55.47 89.0746 55.48C88.5746 55.49 88.0296 55.495 87.4396 55.495V50.77H92.3746V49.765H86.2096V56.5H87.2296C87.8596 56.5 88.4346 56.495 88.9546 56.485C89.4846 56.475 89.9896 56.455 90.4696 56.425C90.9496 56.385 91.4146 56.34 91.8646 56.29C92.3146 56.23 92.7796 56.155 93.2596 56.065ZM96.8746 61.9V60.895H89.1346V57.76H87.9046V61.9H96.8746ZM109.803 62.14V48.655H108.573V62.14H109.803ZM102.708 49.69C102.208 49.69 101.748 49.8 101.328 50.02C100.908 50.24 100.548 50.555 100.248 50.965C99.9484 51.375 99.7134 51.87 99.5434 52.45C99.3734 53.02 99.2884 53.665 99.2884 54.385C99.2884 55.105 99.3734 55.755 99.5434 56.335C99.7134 56.905 99.9484 57.395 100.248 57.805C100.548 58.215 100.908 58.53 101.328 58.75C101.748 58.97 102.208 59.08 102.708 59.08C103.208 59.08 103.668 58.97 104.088 58.75C104.508 58.53 104.868 58.215 105.168 57.805C105.468 57.395 105.703 56.905 105.873 56.335C106.043 55.755 106.128 55.105 106.128 54.385C106.128 53.665 106.043 53.02 105.873 52.45C105.703 51.87 105.468 51.375 105.168 50.965C104.868 50.555 104.508 50.24 104.088 50.02C103.668 49.8 103.208 49.69 102.708 49.69ZM102.708 50.8C103.038 50.8 103.338 50.885 103.608 51.055C103.878 51.225 104.113 51.465 104.313 51.775C104.513 52.085 104.668 52.465 104.778 52.915C104.888 53.355 104.943 53.845 104.943 54.385C104.943 54.935 104.888 55.43 104.778 55.87C104.668 56.31 104.513 56.69 104.313 57.01C104.113 57.32 103.878 57.56 103.608 57.73C103.338 57.9 103.038 57.985 102.708 57.985C102.378 57.985 102.073 57.9 101.793 57.73C101.523 57.56 101.288 57.32 101.088 57.01C100.888 56.69 100.733 56.31 100.623 55.87C100.513 55.43 100.458 54.935 100.458 54.385C100.458 53.845 100.513 53.355 100.623 52.915C100.733 52.465 100.888 52.085 101.088 51.775C101.288 51.465 101.523 51.225 101.793 51.055C102.073 50.885 102.378 50.8 102.708 50.8ZM126.087 56.44L126.642 55.42C126.052 55.31 125.462 55.105 124.872 54.805C124.292 54.505 123.767 54.145 123.297 53.725C122.837 53.295 122.462 52.815 122.172 52.285C121.882 51.755 121.737 51.205 121.737 50.635V49.6H120.447V50.635C120.447 51.215 120.302 51.77 120.012 52.3C119.722 52.82 119.342 53.295 118.872 53.725C118.412 54.145 117.892 54.505 117.312 54.805C116.732 55.095 116.147 55.3 115.557 55.42L116.112 56.44C116.612 56.32 117.112 56.145 117.612 55.915C118.122 55.675 118.597 55.39 119.037 55.06C119.487 54.72 119.887 54.34 120.237 53.92C120.597 53.5 120.882 53.045 121.092 52.555C121.302 53.045 121.582 53.505 121.932 53.935C122.292 54.355 122.692 54.73 123.132 55.06C123.582 55.39 124.057 55.675 124.557 55.915C125.067 56.145 125.577 56.32 126.087 56.44ZM127.242 60.31V59.29H115.047V60.31H127.242ZM139.436 62.095V48.655H138.206V62.095H139.436ZM130.466 57.865V54.64H135.281V53.65H130.466V50.875H135.776V49.87H129.251V58.87H130.316C130.956 58.87 131.551 58.865 132.101 58.855C132.661 58.835 133.201 58.81 133.721 58.78C134.241 58.75 134.751 58.705 135.251 58.645C135.751 58.585 136.261 58.51 136.781 58.42L136.661 57.415C136.161 57.505 135.671 57.58 135.191 57.64C134.711 57.7 134.221 57.745 133.721 57.775C133.231 57.805 132.716 57.83 132.176 57.85C131.646 57.86 131.076 57.865 130.466 57.865ZM152.814 62.11V48.67H151.584V54.055H148.479V55.06H151.584V62.11H152.814ZM148.524 50.05H142.479V51.055H147.309C147.279 51.475 147.229 51.88 147.159 52.27C147.099 52.66 147.004 53.045 146.874 53.425L141.789 53.755L142.014 54.82L146.499 54.4C146.079 55.3 145.489 56.13 144.729 56.89C143.969 57.65 142.974 58.33 141.744 58.93L142.434 59.905C143.624 59.305 144.609 58.64 145.389 57.91C146.169 57.17 146.789 56.385 147.249 55.555C147.719 54.715 148.049 53.835 148.239 52.915C148.429 51.985 148.524 51.03 148.524 50.05ZM156.623 49.915H164.513V51.01H156.653V53.89H165.968V53.005H157.868V51.85H165.728V49.045H156.623V49.915ZM167.288 55.84V54.91H155.093V55.84H167.288ZM166.193 61.045H157.793V59.8H165.773V56.935H156.548V57.82H164.558V58.945H156.578V61.93H166.193V61.045ZM183.542 60.385V59.365H178.052V56.095H182.057V49.78H172.787V56.095H176.807V59.365H171.347V60.385H183.542ZM180.857 55.12H173.972V50.755H180.857V55.12ZM195.045 55.06H197.265V54.025H195.045V48.67H193.815V62.11H195.045V55.06ZM188.28 49.69C187.78 49.69 187.32 49.8 186.9 50.02C186.49 50.24 186.135 50.555 185.835 50.965C185.535 51.375 185.3 51.87 185.13 52.45C184.97 53.02 184.89 53.665 184.89 54.385C184.89 55.105 184.97 55.755 185.13 56.335C185.3 56.905 185.535 57.395 185.835 57.805C186.135 58.215 186.49 58.53 186.9 58.75C187.32 58.97 187.78 59.08 188.28 59.08C188.78 59.08 189.235 58.97 189.645 58.75C190.055 58.53 190.41 58.215 190.71 57.805C191.01 57.395 191.24 56.905 191.4 56.335C191.57 55.755 191.655 55.105 191.655 54.385C191.655 53.665 191.57 53.02 191.4 52.45C191.24 51.87 191.01 51.375 190.71 50.965C190.41 50.555 190.055 50.24 189.645 50.02C189.235 49.8 188.78 49.69 188.28 49.69ZM188.28 57.985C187.95 57.985 187.65 57.9 187.38 57.73C187.11 57.56 186.875 57.32 186.675 57.01C186.485 56.69 186.335 56.31 186.225 55.87C186.115 55.43 186.06 54.935 186.06 54.385C186.06 53.845 186.115 53.355 186.225 52.915C186.335 52.465 186.485 52.085 186.675 51.775C186.875 51.465 187.11 51.225 187.38 51.055C187.65 50.885 187.95 50.8 188.28 50.8C188.6 50.8 188.895 50.885 189.165 51.055C189.435 51.225 189.665 51.465 189.855 51.775C190.055 52.085 190.21 52.465 190.32 52.915C190.43 53.355 190.485 53.845 190.485 54.385C190.485 54.935 190.43 55.43 190.32 55.87C190.21 56.31 190.055 56.69 189.855 57.01C189.665 57.32 189.435 57.56 189.165 57.73C188.895 57.9 188.6 57.985 188.28 57.985ZM75.2663 77.225H77.4713V76.19H75.2663V70.67H74.0363V84.11H75.2663V77.225ZM72.7613 72.815H69.4463V70.82H68.2163V72.815H64.8263V73.805H72.7613V72.815ZM68.8463 74.915C68.3763 74.915 67.9413 74.995 67.5413 75.155C67.1413 75.305 66.7963 75.52 66.5063 75.8C66.2163 76.07 65.9913 76.395 65.8313 76.775C65.6713 77.155 65.5913 77.57 65.5913 78.02C65.5913 78.48 65.6713 78.9 65.8313 79.28C65.9913 79.66 66.2163 79.985 66.5063 80.255C66.7963 80.525 67.1413 80.735 67.5413 80.885C67.9413 81.035 68.3763 81.11 68.8463 81.11C69.3263 81.11 69.7663 81.035 70.1663 80.885C70.5663 80.735 70.9113 80.525 71.2013 80.255C71.5013 79.985 71.7313 79.66 71.8913 79.28C72.0513 78.9 72.1313 78.48 72.1313 78.02C72.1313 77.57 72.0513 77.155 71.8913 76.775C71.7313 76.395 71.5013 76.07 71.2013 75.8C70.9113 75.52 70.5663 75.305 70.1663 75.155C69.7663 74.995 69.3263 74.915 68.8463 74.915ZM68.8463 80.09C68.5463 80.09 68.2663 80.04 68.0063 79.94C67.7463 79.83 67.5213 79.685 67.3313 79.505C67.1513 79.325 67.0063 79.11 66.8963 78.86C66.7963 78.6 66.7463 78.32 66.7463 78.02C66.7463 77.72 66.7963 77.445 66.8963 77.195C67.0063 76.935 67.1513 76.715 67.3313 76.535C67.5213 76.345 67.7463 76.2 68.0063 76.1C68.2663 75.99 68.5463 75.935 68.8463 75.935C69.1563 75.935 69.4413 75.99 69.7013 76.1C69.9613 76.2 70.1813 76.345 70.3613 76.535C70.5513 76.715 70.6963 76.935 70.7963 77.195C70.9063 77.445 70.9613 77.72 70.9613 78.02C70.9613 78.32 70.9063 78.6 70.7963 78.86C70.6963 79.11 70.5513 79.325 70.3613 79.505C70.1813 79.685 69.9613 79.83 69.7013 79.94C69.4413 80.04 69.1563 80.09 68.8463 80.09ZM79.6902 72.17H87.7302V73.76H79.7352V77.435H89.2752V76.43H80.9652V74.705H88.9752V71.195H79.6902V72.17ZM84.9402 79.82H90.4452V78.815H78.2352V79.82H83.7102V84.125H84.9402V79.82ZM93.129 71.915H101.019V73.01H93.159V75.89H102.474V75.005H94.374V73.85H102.234V71.045H93.129V71.915ZM103.794 77.84V76.91H91.599V77.84H103.794ZM102.699 83.045H94.299V81.8H102.279V78.935H93.054V79.82H101.064V80.945H93.084V83.93H102.699V83.045ZM118.202 77.06H120.422V76.025H118.202V70.67H116.972V84.11H118.202V77.06ZM114.557 72.005H108.392V80.69H114.557V72.005ZM113.357 79.7H109.592V72.995H113.357V79.7ZM122.746 76.64H131.836V71.405H122.746V76.64ZM123.946 72.395H130.621V75.665H123.946V72.395ZM127.876 79.475H133.396V78.47H121.186V79.475H126.646V84.095H127.876V79.475ZM145.59 84.125V70.64H144.36V84.125H145.59ZM136.56 79.85V76.715H141.525V71.9H135.285V72.905H140.28V75.71H135.33V80.87H136.44C137.02 80.87 137.585 80.865 138.135 80.855C138.685 80.835 139.235 80.81 139.785 80.78C140.335 80.74 140.89 80.69 141.45 80.63C142.02 80.56 142.61 80.475 143.22 80.375L143.1 79.37C141.93 79.55 140.82 79.675 139.77 79.745C138.73 79.815 137.66 79.85 136.56 79.85ZM159.299 84.095V70.64H158.114V76.325H156.389V70.955H155.234V83.45H156.389V77.33H158.114V84.095H159.299ZM154.559 72.95H151.829V71.045H150.614V72.95H147.884V73.955H154.559V72.95ZM151.229 74.855C150.809 74.855 150.424 74.93 150.074 75.08C149.724 75.23 149.419 75.44 149.159 75.71C148.909 75.98 148.709 76.305 148.559 76.685C148.419 77.055 148.349 77.465 148.349 77.915C148.349 78.375 148.419 78.795 148.559 79.175C148.709 79.545 148.909 79.865 149.159 80.135C149.419 80.405 149.724 80.615 150.074 80.765C150.424 80.915 150.809 80.99 151.229 80.99C151.649 80.99 152.034 80.915 152.384 80.765C152.734 80.615 153.034 80.405 153.284 80.135C153.544 79.865 153.744 79.545 153.884 79.175C154.034 78.795 154.109 78.375 154.109 77.915C154.109 77.465 154.034 77.055 153.884 76.685C153.744 76.305 153.544 75.98 153.284 75.71C153.034 75.44 152.734 75.23 152.384 75.08C152.034 74.93 151.649 74.855 151.229 74.855ZM151.229 79.97C150.969 79.97 150.729 79.92 150.509 79.82C150.289 79.72 150.099 79.58 149.939 79.4C149.789 79.21 149.669 78.99 149.579 78.74C149.489 78.49 149.444 78.215 149.444 77.915C149.444 77.315 149.604 76.83 149.924 76.46C150.254 76.08 150.689 75.89 151.229 75.89C151.489 75.89 151.729 75.94 151.949 76.04C152.169 76.14 152.354 76.28 152.504 76.46C152.664 76.64 152.789 76.855 152.879 77.105C152.969 77.355 153.014 77.625 153.014 77.915C153.014 78.215 152.969 78.49 152.879 78.74C152.789 78.99 152.664 79.21 152.504 79.4C152.354 79.58 152.169 79.72 151.949 79.82C151.729 79.92 151.489 79.97 151.229 79.97ZM173.443 82.385V81.38H167.953V78.485H171.973V71.615H170.773V74.015H163.903V71.615H162.688V78.485H166.708V81.38H161.248V82.385H173.443ZM170.773 77.495H163.903V75.02H170.773V77.495ZM186.026 84.11V70.655H184.856V84.11H186.026ZM183.281 70.955H182.126V75.485H179.906V76.505H182.126V83.45H183.281V70.955ZM178.586 74.45V71.93H177.401V74.495C177.401 75.075 177.331 75.655 177.191 76.235C177.061 76.805 176.866 77.35 176.606 77.87C176.356 78.38 176.046 78.845 175.676 79.265C175.316 79.685 174.906 80.03 174.446 80.3L175.211 81.23C175.881 80.81 176.451 80.245 176.921 79.535C177.401 78.815 177.761 78 178.001 77.09C178.241 77.91 178.581 78.66 179.021 79.34C179.471 80.01 180.016 80.54 180.656 80.93L181.361 79.97C180.921 79.7 180.526 79.365 180.176 78.965C179.836 78.555 179.546 78.105 179.306 77.615C179.076 77.125 178.896 76.61 178.766 76.07C178.646 75.53 178.586 74.99 178.586 74.45ZM200.155 82.385V81.365H197.14V77.72C197.71 77.43 198.145 77.05 198.445 76.58C198.755 76.11 198.91 75.57 198.91 74.96C198.91 74.44 198.79 73.97 198.55 73.55C198.31 73.12 197.97 72.755 197.53 72.455C197.1 72.155 196.585 71.925 195.985 71.765C195.395 71.595 194.74 71.51 194.02 71.51C193.31 71.51 192.655 71.595 192.055 71.765C191.455 71.925 190.935 72.155 190.495 72.455C190.065 72.755 189.73 73.12 189.49 73.55C189.25 73.97 189.13 74.44 189.13 74.96C189.13 75.57 189.285 76.115 189.595 76.595C189.915 77.065 190.36 77.445 190.93 77.735V81.365H187.93V82.385H200.155ZM194.02 72.47C194.56 72.47 195.055 72.53 195.505 72.65C195.965 72.77 196.36 72.94 196.69 73.16C197.02 73.37 197.275 73.63 197.455 73.94C197.645 74.24 197.74 74.58 197.74 74.96C197.74 75.33 197.645 75.67 197.455 75.98C197.275 76.29 197.02 76.555 196.69 76.775C196.36 76.985 195.965 77.15 195.505 77.27C195.055 77.39 194.56 77.45 194.02 77.45C193.48 77.45 192.98 77.39 192.52 77.27C192.07 77.15 191.68 76.985 191.35 76.775C191.03 76.555 190.775 76.29 190.585 75.98C190.405 75.67 190.315 75.33 190.315 74.96C190.315 74.58 190.405 74.24 190.585 73.94C190.775 73.63 191.03 73.37 191.35 73.16C191.68 72.94 192.07 72.77 192.52 72.65C192.98 72.53 193.48 72.47 194.02 72.47ZM195.91 81.365H192.16V78.2C192.45 78.27 192.75 78.325 193.06 78.365C193.37 78.395 193.69 78.41 194.02 78.41C194.61 78.41 195.24 78.34 195.91 78.2V81.365ZM203.394 71.765H201.999L202.224 80.315H203.169L203.394 71.765ZM202.014 83.195H203.379V81.785H202.014V83.195Z" fill="#212325"/>
<path d="M208.503 279.652C208.636 282.354 208.649 285.063 208.528 287.762C208.473 289.022 208.383 290.425 208.277 291.599C208.253 291.864 208.231 292.136 208.192 292.399C208.171 292.53 208.138 292.651 208.108 292.779C208.077 292.907 208.126 292.712 208.135 292.696C208.195 292.597 208.298 292.542 208.168 292.645C208.313 292.53 208.491 292.443 208.633 292.344C208.776 292.245 208.706 292.322 208.615 292.344C208.346 292.402 208.815 292.344 208.54 292.344C208.265 292.344 207.911 292.344 207.6 292.344L203.15 292.36C202.446 292.36 201.552 292.811 201.406 293.623C201.375 293.796 201.381 293.973 201.424 294.143C201.467 294.313 201.546 294.47 201.655 294.602C201.764 294.734 201.9 294.839 202.053 294.908C202.206 294.976 202.371 295.007 202.537 294.998L206.835 294.982C207.515 294.982 208.256 295.05 208.924 294.874C209.393 294.766 209.828 294.53 210.186 294.19C210.544 293.851 210.812 293.418 210.964 292.936C211.122 292.267 211.208 291.582 211.221 290.892C211.287 290.16 211.339 289.428 211.384 288.695C211.477 287.203 211.53 285.711 211.544 284.218C211.56 282.513 211.525 280.807 211.438 279.102C211.399 278.315 210.547 277.947 209.897 278.097C209.247 278.248 208.461 278.839 208.503 279.668V279.652Z" fill="black"/>
<path d="M192.841 280.874C193.049 283.95 192.974 287.037 192.619 290.101C192.526 290.881 192.417 291.655 192.298 292.429C192.263 292.707 192.208 292.981 192.134 293.252C192.111 293.326 192.083 293.4 192.051 293.471C192.172 293.262 192.341 293.081 192.545 292.939C192.749 292.798 192.984 292.7 193.233 292.652C193.172 292.652 192.832 292.709 192.893 292.703C191.231 292.836 189.557 292.89 187.896 292.984C187.518 293.015 187.15 293.116 186.813 293.281C186.476 293.446 186.177 293.671 185.933 293.944C185.708 294.2 185.233 295.04 186.001 294.998L190.37 294.751C191.235 294.703 192.041 294.673 192.841 294.324C193.299 294.139 193.711 293.868 194.053 293.528C194.395 293.189 194.66 292.787 194.83 292.348C195.002 291.697 195.121 291.034 195.187 290.366C195.29 289.69 195.377 289.01 195.45 288.327C195.598 286.966 195.689 285.6 195.723 284.229C195.766 282.663 195.733 281.099 195.624 279.537C195.582 278.916 194.515 279.296 194.207 279.452C193.725 279.693 192.806 280.253 192.848 280.874H192.841Z" fill="black"/>
<path d="M250.457 239.558C247.885 244.642 243.348 247.936 237.259 249.14C236.811 249.226 237.686 251.531 238.113 251.448C244.272 250.212 248.853 246.858 251.437 241.69C251.525 241.275 251.414 240.733 251.122 240.154C250.996 239.882 250.623 239.231 250.466 239.549L250.457 239.558Z" fill="black"/>
<path d="M170.161 251.11C164.616 249.801 160.35 246.162 157.752 240.525C157.564 240.11 155.528 241.5 155.71 241.896C158.354 247.594 162.688 251.261 168.317 252.563C168.741 252.551 169.243 252.316 169.736 251.897C169.972 251.71 170.518 251.195 170.171 251.117L170.161 251.11Z" fill="black"/>
<path d="M238.058 227.34C240.203 231.991 235.308 238.363 235.527 243.193C235.748 248.201 241.114 254.107 239.456 258.755C237.798 263.403 229.942 264.446 226.61 268.147C223.399 271.717 223.13 279.79 218.545 281.969C213.96 284.149 207.68 279.18 202.918 279.401C197.985 279.626 192.16 285.07 187.579 283.388C182.997 281.706 181.969 273.736 178.321 270.356C174.802 267.098 166.845 266.825 164.715 262.174C162.586 257.522 167.462 251.151 167.247 246.32C167.025 241.312 161.659 235.406 163.317 230.758C164.975 226.11 172.831 225.067 176.163 221.366C179.374 217.797 179.643 209.724 184.228 207.547C188.813 205.371 195.093 210.334 199.855 210.115C204.791 209.891 210.613 204.447 215.194 206.129C219.776 207.811 220.804 215.781 224.452 219.161C227.952 222.416 235.909 222.689 238.058 227.34Z" fill="#FF9100"/>
<path d="M205.981 237.112C206.104 237.26 206.423 238.298 206.824 238.12C207.571 237.787 207.797 236.613 207.426 235.961C206.496 234.326 206.118 236.681 206.005 236.941" stroke="black" stroke-width="2" stroke-linecap="round"/>
<path d="M193.531 237.112C193.654 237.26 193.973 238.298 194.374 238.12C195.121 237.787 195.346 236.613 194.976 235.961C194.046 234.326 193.668 236.681 193.555 236.941" stroke="black" stroke-width="2" stroke-linecap="round"/>
<path d="M204.92 208.786C202.207 210.25 200.319 210.842 197.67 210.842C194.045 210.842 193.767 206.077 185.402 207.432C177.037 208.786 179.546 223.628 168.739 225.769C167.134 226.132 162.259 229.596 163.095 235.847C163.695 238.597 164.878 241.96 166.639 243.861C167.866 245.185 167.244 249.812 166.536 251.256L166.511 251.308C164.867 254.657 162.289 259.911 164.489 263.694C165.328 265.136 166.639 265.968 168.393 266.536C170.147 267.104 172.271 268.215 173.133 268.583C176.231 269.904 177.762 270.226 179.825 272.503C182.395 275.34 182.139 280.593 185.402 283.017C189.383 285.974 190.552 284.855 195.161 283.017C197.874 281.935 198.465 280.763 201.016 279.607C201.63 279.329 204.91 279.168 205.478 279.891C206.813 281.593 208.266 282.164 212.727 282.449C216.352 283.32 220.857 281.163 221.65 280.175C224.329 276.838 224.733 275.317 224.175 270.009C223.634 264.861 231.073 264.661 235.216 263.126C238.195 262.022 239.774 260.037 239.774 256.875C239.774 255.1 238.5 254.059 238.015 252.328C237.642 251 235.216 248.301 235.216 246.555C235.216 243.795 234.732 244.102 235.216 240.962C235.642 238.19 238.015 234.027 238.015 231.301C238.015 228.066 235.464 225.081 232.245 223.344C229.497 221.861 225.553 222.808 222.765 219.65C217.746 213.967 222.207 208.786 213.842 206.011C209.102 205.158 207.957 207.147 204.92 208.786Z" stroke="black" stroke-width="2" stroke-linecap="round"/>
<path d="M150.831 226.23C152.379 226.717 151.666 229.007 152.379 228.595C153.293 228.595 156.073 228.524 156.073 229.281C156.073 229.628 155.904 231.065 156.315 230.825C156.935 230.463 157.378 230.909 158.069 230.987C159.515 231.152 157.877 232.746 158.722 233.609C159.146 234.043 159.959 233.531 160.363 234.181C161.049 235.282 160.705 237.884 160.102 238.985C159.802 239.533 159.543 240.096 159.132 240.568C158.949 240.779 159.203 241.388 158.927 241.388C158.912 241.388 157.532 241.413 157.324 241.39C157.515 241.48 158.663 242.194 158.707 242.247C158.975 242.576 158.598 242.997 158.516 243.39C158.091 245.439 156.972 245.79 155.084 245.754C154.465 245.742 153.885 245.671 153.293 245.487C153.152 245.443 152.987 245.209 152.883 245.315C152.841 245.358 152.85 245.871 152.845 245.906C152.748 246.612 152.557 247.302 152.304 247.965C151.704 249.544 150.68 250.593 149.441 251.664C148.539 252.444 145.994 251.931 144.88 251.931C143.113 251.931 143.099 251.06 142.044 249.786C141.478 249.103 141.386 249.144 140.757 249.739C140.061 250.397 139.227 250.73 138.276 250.73C137.514 250.73 137.307 250.358 137.017 249.672C136.858 249.296 136.464 246.898 136.168 246.812C136.016 246.767 135.832 247.169 135.72 247.26C135.578 247.377 135.123 247.305 134.956 247.298C133.102 247.225 134.871 244.087 134.517 242.823C134.42 242.475 132.813 241.948 132.605 241.121C132.416 240.368 132.554 239.376 132.773 238.642C133.005 237.865 133.83 237.519 134.517 237.336C134.673 237.295 135.979 236.672 135.664 236.488C135.409 236.339 134.956 235.616 134.956 235.34C134.956 234.502 135.021 234.102 135.332 233.325C135.912 231.876 136.927 232.017 138.267 231.426C138.529 231.31 140.041 230.892 139.824 230.616C139.777 230.554 139.624 230.217 139.619 230.139C139.58 229.458 140.202 228.905 140.627 228.423C141.036 227.957 141.682 227.568 142.372 227.568C143.856 227.568 144.625 226.992 146.661 228.499C147.141 228.714 147.067 228.454 147.16 228.144C147.312 227.641 147.894 227.001 148.247 226.64C148.738 226.138 150.146 226.015 150.831 226.23Z" fill="#FFFACE"/>
<path d="M152.379 228.595C151.666 229.007 152.379 226.717 150.831 226.23C150.146 226.015 148.738 226.138 148.247 226.64C147.894 227.001 147.312 227.641 147.16 228.144C147.067 228.454 147.141 228.714 146.661 228.499C144.625 226.992 143.856 227.568 142.372 227.568C141.682 227.568 141.036 227.957 140.627 228.423C140.202 228.905 139.58 229.458 139.619 230.139C139.624 230.217 139.777 230.554 139.824 230.616C140.041 230.892 138.529 231.31 138.267 231.426C136.927 232.017 135.912 231.876 135.332 233.325C135.021 234.102 134.956 234.502 134.956 235.34C134.956 235.616 135.409 236.339 135.664 236.488C135.979 236.672 134.673 237.295 134.517 237.336C133.83 237.519 133.005 237.865 132.773 238.642C132.554 239.376 132.416 240.368 132.605 241.121C132.813 241.948 134.42 242.475 134.517 242.823C134.871 244.087 133.102 247.225 134.956 247.298C135.123 247.305 135.578 247.377 135.72 247.26C135.832 247.169 136.016 246.767 136.168 246.812C136.464 246.898 136.858 249.296 137.017 249.672C137.307 250.358 137.514 250.73 138.276 250.73C139.227 250.73 140.061 250.397 140.757 249.739C141.386 249.144 141.478 249.103 142.044 249.786C143.099 251.06 143.113 251.931 144.88 251.931C145.994 251.931 148.539 252.444 149.441 251.664C150.68 250.593 151.704 249.544 152.304 247.965C152.557 247.302 152.748 246.612 152.845 245.906C152.85 245.871 152.841 245.358 152.883 245.315C152.987 245.209 153.152 245.443 153.293 245.487C153.885 245.671 154.465 245.742 155.084 245.754C156.972 245.79 158.091 245.439 158.516 243.39C158.598 242.997 158.975 242.576 158.707 242.247C158.658 242.188 157.257 241.32 157.299 241.384C157.32 241.417 158.911 241.388 158.927 241.388C159.203 241.388 158.949 240.779 159.132 240.568C159.543 240.096 159.802 239.533 160.102 238.985C160.705 237.884 161.049 235.282 160.363 234.181C159.959 233.531 159.146 234.043 158.722 233.609C157.877 232.746 159.515 231.152 158.069 230.987C157.378 230.909 156.935 230.463 156.315 230.825C155.904 231.065 156.073 229.628 156.073 229.281C156.073 228.524 153.293 228.595 152.379 228.595Z" stroke="black" stroke-width="2" stroke-linecap="round"/>
<path d="M249.684 228.489C248.136 228.976 248.849 231.266 248.136 230.853C247.222 230.853 244.442 230.782 244.442 231.539C244.442 231.886 244.611 233.324 244.2 233.084C243.58 232.721 243.137 233.167 242.446 233.246C241.001 233.41 242.638 235.004 241.794 235.867C241.369 236.301 240.557 235.789 240.152 236.439C239.466 237.54 239.81 240.142 240.413 241.244C240.713 241.792 240.972 242.354 241.383 242.826C241.566 243.037 241.312 243.646 241.588 243.646C241.603 243.646 242.983 243.671 243.191 243.648C243 243.738 241.852 244.452 241.808 244.506C241.54 244.835 241.917 245.255 241.999 245.648C242.424 247.698 243.543 248.048 245.431 248.012C246.05 248 246.63 247.929 247.222 247.745C247.363 247.701 247.528 247.467 247.632 247.574C247.674 247.616 247.665 248.129 247.67 248.165C247.767 248.87 247.959 249.561 248.211 250.224C248.811 251.803 249.835 252.851 251.074 253.923C251.976 254.702 254.521 254.189 255.635 254.189C257.402 254.189 257.417 253.318 258.471 252.045C259.037 251.361 259.129 251.402 259.758 251.997C260.454 252.656 261.288 252.988 262.239 252.988C263.001 252.988 263.208 252.616 263.498 251.93C263.657 251.554 264.051 249.157 264.347 249.07C264.5 249.026 264.683 249.427 264.795 249.518C264.938 249.635 265.392 249.563 265.56 249.556C267.413 249.484 265.645 246.346 265.998 245.081C266.095 244.733 267.702 244.206 267.91 243.379C268.1 242.626 267.961 241.634 267.742 240.901C267.51 240.123 266.685 239.778 265.998 239.595C265.842 239.553 264.536 238.93 264.851 238.746C265.106 238.597 265.56 237.874 265.56 237.598C265.56 236.76 265.494 236.36 265.183 235.583C264.604 234.135 263.588 234.275 262.248 233.684C261.986 233.569 260.474 233.15 260.691 232.874C260.739 232.813 260.891 232.475 260.896 232.397C260.935 231.716 260.313 231.163 259.889 230.681C259.479 230.216 258.834 229.826 258.143 229.826C256.659 229.826 255.89 229.251 253.854 230.758C253.374 230.972 253.448 230.712 253.355 230.402C253.204 229.899 252.621 229.26 252.268 228.899C251.777 228.397 250.369 228.273 249.684 228.489Z" fill="#FFFACE"/>
<path d="M248.136 230.853C248.849 231.266 248.136 228.976 249.684 228.489C250.369 228.273 251.777 228.397 252.268 228.899C252.621 229.26 253.204 229.899 253.355 230.402C253.448 230.712 253.374 230.972 253.854 230.758C255.89 229.251 256.659 229.826 258.143 229.826C258.834 229.826 259.479 230.216 259.889 230.681C260.313 231.163 260.935 231.716 260.896 232.397C260.891 232.475 260.739 232.813 260.691 232.874C260.474 233.15 261.986 233.569 262.248 233.684C263.588 234.275 264.604 234.135 265.183 235.583C265.494 236.36 265.56 236.76 265.56 237.598C265.56 237.874 265.106 238.597 264.851 238.746C264.536 238.93 265.842 239.553 265.998 239.595C266.685 239.778 267.51 240.123 267.742 240.901C267.961 241.634 268.1 242.626 267.91 243.379C267.702 244.206 266.095 244.733 265.998 245.081C265.645 246.346 267.413 249.484 265.56 249.556C265.392 249.563 264.938 249.635 264.795 249.518C264.683 249.427 264.5 249.026 264.347 249.07C264.051 249.157 263.657 251.554 263.498 251.93C263.208 252.616 263.001 252.988 262.239 252.988C261.288 252.988 260.454 252.656 259.758 251.997C259.129 251.402 259.037 251.361 258.471 252.045C257.417 253.318 257.402 254.189 255.635 254.189C254.521 254.189 251.976 254.702 251.074 253.923C249.835 252.851 248.811 251.803 248.211 250.224C247.959 249.561 247.767 248.87 247.67 248.165C247.665 248.129 247.674 247.616 247.632 247.574C247.528 247.467 247.363 247.701 247.222 247.745C246.63 247.929 246.05 248 245.431 248.012C243.543 248.048 242.424 247.698 241.999 245.648C241.917 245.255 241.54 244.835 241.808 244.506C241.857 244.446 243.259 243.578 243.217 243.642C243.195 243.675 241.604 243.646 241.588 243.646C241.312 243.646 241.566 243.037 241.383 242.826C240.972 242.354 240.713 241.792 240.413 241.244C239.81 240.142 239.466 237.54 240.152 236.439C240.557 235.789 241.369 236.301 241.794 235.867C242.638 235.004 241.001 233.41 242.446 233.246C243.137 233.167 243.58 232.721 244.2 233.084C244.611 233.324 244.442 231.886 244.442 231.539C244.442 230.782 247.222 230.853 248.136 230.853Z" stroke="black" stroke-width="2" stroke-linecap="round"/>
<path d="M192.354 247.39C193.86 249.522 195.975 252.599 197.686 254.132C197.737 254.178 197.94 254.355 198.007 254.355C198.216 254.355 198.454 254.184 198.639 254.079C199.25 253.733 199.87 253.42 200.48 253.073C202.725 251.796 204.856 250.107 206.998 248.522C208.124 247.688 211.58 245.104 212.677 244.193" stroke="black" stroke-width="2" stroke-linecap="round"/>
<path d="M151.709 215.968C151.349 214.117 150.58 212.191 150.58 210.323" stroke="black" stroke-width="2" stroke-linecap="round"/>
<path d="M143.806 218.226C143.332 216.592 142.019 215.263 141.548 213.709" stroke="black" stroke-width="2" stroke-linecap="round"/>
<path d="M138.161 220.484C136.257 220.083 134.492 219.609 132.516 219.355" stroke="black" stroke-width="2" stroke-linecap="round"/>
<path d="M251.064 222.742C250.686 221.982 250.434 220.059 249.935 219.355" stroke="black" stroke-width="2" stroke-linecap="round"/>
<path d="M256.709 223.871C256.875 223.461 258.523 219.329 258.967 218.226" stroke="black" stroke-width="2" stroke-linecap="round"/>
<path d="M262.354 226.129C263.215 225.579 264.565 224.726 265.742 223.871" stroke="black" stroke-width="2" stroke-linecap="round"/>
<path d="M179.95 196.884C178.592 196.529 176.836 197.038 176.569 198.382C176.303 199.72 178.652 199.955 179.69 200.074C180.654 200.185 181.135 200.305 181.865 199.654C182.186 199.368 182.273 198.783 182.119 198.413C181.86 197.789 180.568 197.134 179.843 196.977" stroke="black" stroke-width="2" stroke-linecap="round"/>
<path d="M184.451 193.387C184.893 196.441 186.331 199.004 187.493 201.716C187.549 201.846 187.729 202.704 187.838 202.322" stroke="black" stroke-width="2" stroke-linecap="round"/>
<path d="M185.58 197.903C186.816 197.697 188.033 197.484 189.229 197.098C189.403 197.042 190.009 196.948 190.096 196.774" stroke="black" stroke-width="2" stroke-linecap="round"/>
<path d="M194.612 190.212C196.291 190.17 198.009 190.23 199.683 190.084C199.78 190.075 199.965 190.062 200.064 190.022C200.508 189.843 200.056 190.808 200.001 190.914C199.543 191.805 198.434 192.157 197.996 193.01C197.938 193.123 197.714 193.59 197.714 193.286" stroke="black" stroke-width="2" stroke-linecap="round"/>
<path d="M199.128 192.258C200.228 192.673 201.507 192.9 202.516 193.387" stroke="black" stroke-width="2" stroke-linecap="round"/>
<path d="M200.223 195.645C200.223 196.333 199.693 196.774 200.258 197.903" stroke="black" stroke-width="2" stroke-linecap="round"/>
<path d="M196.871 199.032C197.89 198.885 198.918 198.718 199.943 198.627C200.517 198.577 201.064 198.287 201.651 198.217C202.315 198.138 202.968 197.903 203.645 197.903" stroke="black" stroke-width="2" stroke-linecap="round"/>
<path d="M205.918 190C205.767 193.252 206.808 196.489 206.808 199.743C206.808 199.993 207.312 200.346 206.808 200.047" stroke="black" stroke-width="2" stroke-linecap="round"/>
<path d="M207.032 195.645C208.162 195.645 209.287 195.645 210.419 195.645" stroke="black" stroke-width="2" stroke-linecap="round"/>
<path d="M214.935 192.258C216.037 192.464 217.13 192.691 218.247 192.758C218.905 192.797 219.955 192.611 220.556 192.99C220.684 193.071 220.271 193.381 220.225 193.431C218.702 195.103 217.009 196.471 215.308 197.903" stroke="black" stroke-width="2" stroke-linecap="round"/>
<path d="M219.451 195.645C220.181 196.413 220.872 197.278 221.709 197.903" stroke="black" stroke-width="2" stroke-linecap="round"/>
<path d="M218.322 199.032C218.322 199.106 218.322 201.331 218.322 201.289" stroke="black" stroke-width="2" stroke-linecap="round"/>
<path d="M214.935 201.291C216.197 201.291 217.317 201.491 218.525 201.827C218.918 201.936 219.256 202.102 219.661 202.191C219.991 202.264 220.3 202.535 220.58 202.364" stroke="black" stroke-width="2" stroke-linecap="round"/>
<path d="M227.354 195.645C226.881 196.624 226.538 197.664 226.138 198.688C225.895 199.31 225.577 199.878 225.341 200.503C225.007 201.389 224.627 202.277 224.379 203.204C224.253 203.676 223.967 204.177 223.967 204.677" stroke="black" stroke-width="2" stroke-linecap="round"/>
<path d="M226.225 200.161C226.821 200.161 227.469 200.161 228.13 200.161C228.287 200.161 228.366 200.161 228.483 200.161" stroke="black" stroke-width="2" stroke-linecap="round"/>
<path d="M237.516 201.291C235.846 201.977 234.312 202.935 232.937 204.046C232.602 204.316 232.262 204.497 231.871 204.678" stroke="black" stroke-width="2" stroke-linecap="round"/>
<path d="M229.612 206.936C228.88 207.116 228.506 207.204 228.506 207.662C228.506 207.756 228.38 208.136 228.727 208.053C229.047 207.976 229.289 207.709 229.391 207.541" stroke="black" stroke-width="2" stroke-linecap="round"/>
<path d="M71.5383 224.247C71.6819 227.011 71.695 229.781 71.5644 232.542C71.5057 233.831 71.4077 235.267 71.2935 236.468C71.2674 236.739 71.2446 237.017 71.2021 237.286C71.1793 237.42 71.1435 237.544 71.1108 237.675C71.0782 237.806 71.1303 237.606 71.1401 237.59C71.2054 237.488 71.3164 237.433 71.1761 237.537C71.3327 237.42 71.5253 237.331 71.6787 237.23C71.8321 237.129 71.757 237.207 71.6591 237.23C71.3686 237.289 71.8745 237.23 71.5775 237.23C71.2805 237.23 70.8986 237.23 70.5625 237.23L65.7584 237.246C64.998 237.246 64.032 237.708 63.8753 238.538C63.8414 238.715 63.848 238.897 63.8946 239.07C63.9411 239.244 64.0264 239.404 64.144 239.54C64.2616 239.675 64.4085 239.782 64.5734 239.852C64.7383 239.923 64.9169 239.954 65.0959 239.945L69.7368 239.929C70.4711 239.929 71.2707 239.997 71.992 239.818C72.4992 239.707 72.9689 239.466 73.3551 239.118C73.7413 238.771 74.0308 238.329 74.1949 237.835C74.3658 237.151 74.4588 236.45 74.4723 235.745C74.5441 234.996 74.5996 234.247 74.6485 233.498C74.7486 231.971 74.8063 230.444 74.8215 228.918C74.8389 227.173 74.8009 225.429 74.7073 223.684C74.6649 222.879 73.7445 222.503 73.0429 222.657C72.3412 222.811 71.4926 223.416 71.5383 224.263V224.247Z" fill="black"/>
<path d="M55.1135 224.981C55.3256 228.24 55.2498 231.511 54.8867 234.757C54.7914 235.584 54.6797 236.404 54.5581 237.224C54.5222 237.517 54.4662 237.808 54.3904 238.095C54.3669 238.174 54.3383 238.252 54.305 238.328C54.4292 238.106 54.6018 237.914 54.8108 237.764C55.0197 237.614 55.2599 237.51 55.5145 237.46C55.452 237.46 55.1037 237.52 55.1661 237.514C53.4669 237.654 51.7545 237.712 50.0553 237.811C49.6681 237.844 49.2914 237.951 48.9469 238.126C48.6023 238.3 48.2965 238.539 48.0471 238.828C47.817 239.1 47.3306 239.99 48.1161 239.945L52.5861 239.684C53.4702 239.633 54.2951 239.601 55.1135 239.23C55.5816 239.035 56.0036 238.748 56.3535 238.388C56.7033 238.028 56.9737 237.602 57.148 237.137C57.3237 236.448 57.4457 235.746 57.5128 235.038C57.618 234.321 57.7078 233.601 57.7823 232.878C57.9335 231.436 58.0266 229.988 58.0617 228.535C58.1055 226.876 58.0716 225.219 57.9598 223.564C57.9171 222.907 56.8259 223.309 56.5103 223.475C56.0173 223.73 55.0774 224.324 55.1201 224.981H55.1135Z" fill="black"/>
<path d="M30.9412 197.73C25.243 196.385 20.8595 192.646 18.1897 186.852C17.9962 186.426 15.9042 187.855 16.0906 188.262C18.8075 194.117 23.262 197.886 29.047 199.223C29.4826 199.211 29.9978 198.969 30.5052 198.539C30.7475 198.347 31.3081 197.818 30.9522 197.737L30.9412 197.73Z" fill="black"/>
<path d="M99.4202 197.73C105.118 196.385 109.502 192.646 112.172 186.852C112.365 186.426 114.457 187.855 114.271 188.262C111.554 194.117 107.099 197.886 101.314 199.223C100.879 199.211 100.363 198.969 99.8561 198.539C99.6138 198.347 99.0533 197.818 99.4091 197.737L99.4202 197.73Z" fill="black"/>
<path d="M101.927 170.736C104.137 175.494 99.0937 182.011 99.3187 186.953C99.5469 192.075 105.076 198.117 103.368 202.871C101.66 207.626 93.5641 208.693 90.131 212.479C86.8217 216.13 86.5446 224.388 81.8203 226.617C77.0961 228.847 70.6244 223.764 65.7175 223.991C60.6347 224.22 54.6324 229.789 49.9114 228.069C45.1904 226.348 44.1308 218.195 40.3716 214.738C36.7461 211.405 28.5463 211.126 26.3521 206.368C24.1579 201.61 29.1821 195.093 28.9604 190.151C28.7322 185.029 23.2026 178.987 24.9111 174.233C26.6195 169.478 34.7149 168.411 38.148 164.625C41.4573 160.974 41.7344 152.716 46.4587 150.49C51.1829 148.264 57.6547 153.34 62.5615 153.117C67.6477 152.887 73.6467 147.318 78.3677 149.039C83.0887 150.759 84.1483 158.912 87.9075 162.37C91.5134 165.699 99.7132 165.978 101.927 170.736Z" fill="#FF9100"/>
<path d="M58.3269 188.693C60.5181 188.343 62.7266 187.99 64.9293 187.736C65.5465 187.665 67.97 186.94 67.8013 187.868C67.3419 190.394 66.4597 192.541 65.5023 194.906C65.3061 195.391 64.0254 198.364 63.5097 198.036C62.9941 197.707 61.3903 195.225 60.8827 194.04C60.5636 193.295 58.8395 189.749 58.2842 189.132" stroke="black" stroke-width="2" stroke-linecap="round"/>
<path d="M68.1049 151.819C65.2958 153.306 63.3408 153.907 60.598 153.907C56.8445 153.907 56.5559 149.066 47.894 150.442C39.2322 151.819 41.8308 166.9 30.6396 169.075C28.978 169.444 23.9297 172.963 24.7959 179.315C25.4167 182.108 26.6416 185.526 28.4658 187.458C29.7363 188.803 29.0924 193.504 28.3585 194.972L28.3324 195.024C26.6307 198.427 23.9614 203.766 26.2395 207.61C27.1078 209.075 28.4658 209.92 30.2817 210.497C32.0976 211.075 34.2974 212.203 35.1901 212.577C38.3981 213.92 39.9833 214.246 42.1195 216.561C44.7808 219.444 44.5152 224.781 47.894 227.243C52.017 230.248 53.227 229.111 57.9995 227.243C60.8086 226.144 61.4205 224.953 64.0627 223.779C64.6985 223.496 68.0944 223.333 68.6823 224.067C70.0656 225.796 71.5696 226.377 76.1892 226.666C79.9427 227.552 84.6074 225.36 85.4285 224.356C88.2033 220.965 88.6212 219.419 88.0434 214.026C87.483 208.796 95.1866 208.592 99.4759 207.033C102.561 205.911 104.196 203.894 104.196 200.681C104.196 198.878 102.877 197.82 102.374 196.061C101.989 194.711 99.4759 191.969 99.4759 190.195C99.4759 187.39 98.9753 187.703 99.4759 184.512C99.9177 181.695 102.374 177.466 102.374 174.695C102.374 171.408 99.733 168.375 96.4001 166.611C93.5539 165.104 89.4706 166.065 86.5834 162.857C81.3863 157.083 86.0059 151.819 77.3441 148.999C72.4358 148.132 71.25 150.153 68.1049 151.819Z" stroke="black" stroke-width="2" stroke-linecap="round"/>
<path d="M50.3422 184.413C52.6039 184.413 54.6334 183.934 56.7903 183.934C57.3968 183.934 58.9522 183.905 58.1917 184.856C57.7724 185.275 55.0275 188.663 54.4754 189.362C53.2952 190.355 53.4331 191.276 52.6039 190.355C52.1403 189.84 51.4671 189.538 51.0074 189.078C50.1652 188.236 49.4093 187.391 48.5772 186.559C48.2635 186.245 47.7972 185.572 47.6991 185.131C47.5289 184.365 49.5417 184.546 50.3422 184.413Z" fill="black" stroke="black" stroke-width="2" stroke-linecap="round"/>
<path d="M64.2011 184.413C66.4628 184.413 68.4923 183.934 70.6492 183.934C71.2557 183.934 72.8111 183.905 72.0506 184.856C71.6313 185.275 68.8864 188.663 68.3343 189.362C67.1541 190.355 67.292 191.276 66.4628 190.355C65.9991 189.84 65.326 189.538 64.8663 189.078C64.0241 188.236 63.2682 187.391 62.4361 186.559C62.1224 186.245 61.656 185.572 61.558 185.131C61.3878 184.365 63.4006 184.546 64.2011 184.413Z" fill="black" stroke="black" stroke-width="2" stroke-linecap="round"/>
<path d="M57.6646 185.845C59.4609 185.4 61.3418 185.662 63.1575 185.406C63.478 185.361 63.8185 185.294 64.1428 185.294" stroke="black" stroke-width="2" stroke-linecap="round"/>
<path d="M63.854 178.16C64.4754 179.546 65.1812 181.285 67.2055 180.429C68.3572 179.841 68.9346 179.553 70.2603 178.694" stroke="black" stroke-width="2" stroke-linecap="round"/>
<path d="M51.7319 179.57C52.592 180.822 53.5985 182.407 55.4362 181.201C56.4638 180.416 56.9801 180.029 58.13 178.946" stroke="black" stroke-width="2" stroke-linecap="round"/>
<path d="M64.9961 141.457C66.3755 137.429 67.8529 133.411 68.8585 129.268C69.0648 128.418 69.1953 127.717 69.6735 127" stroke="black" stroke-width="2" stroke-linecap="round"/>
<path d="M102.204 154.638C106.823 151.696 110.825 148.12 115.173 144.858" stroke="black" stroke-width="2" stroke-linecap="round"/>
<path d="M117.086 179.515C120.081 179.166 123.079 178.832 126.075 178.487C127.018 178.379 128.179 178.343 129.11 178.027C129.399 177.929 129.527 177.814 129.843 177.814" stroke="black" stroke-width="2" stroke-linecap="round"/>
<path d="M23.538 159.742C16.4981 157.762 14.7714 156.463 7.80908 154.235" stroke="black" stroke-width="2" stroke-linecap="round"/>
<path d="M11.8431 183.341C8.16525 184.221 4.63 185.493 1 186.53" stroke="black" stroke-width="2" stroke-linecap="round"/>
<path d="M100.076 223.524C100.476 225.088 100.8 226.71 101.494 228.178C101.897 229.031 102.559 229.784 102.616 230.753C102.644 231.243 102.417 231.603 102.84 231.391" stroke="black" stroke-width="2" stroke-linecap="round"/>
<path d="M26.5129 223.1C24.5885 225.011 22.6813 226.931 20.7725 228.84" stroke="black" stroke-width="2" stroke-linecap="round"/>
<path d="M39.6941 142.522C38.5106 139.778 37.1031 136.722 35.4419 134.23" stroke="black" stroke-width="2" stroke-linecap="round"/>
<path d="M118.26 331.352C120.414 333.026 122.647 334.597 124.953 336.047C126.029 336.726 127.245 337.456 128.28 338.04C128.515 338.172 128.752 338.31 128.993 338.427C129.115 338.484 129.235 338.525 129.359 338.572C129.484 338.62 129.293 338.55 129.274 338.548C129.155 338.544 129.048 338.602 129.212 338.548C129.028 338.608 128.848 338.714 128.68 338.781C128.511 338.848 128.617 338.831 128.691 338.765C128.902 338.563 128.569 338.939 128.737 338.699C128.904 338.459 129.119 338.15 129.309 337.878L132.029 334.003C132.457 333.388 133.374 332.866 134.135 333.208C134.296 333.28 134.44 333.388 134.554 333.523C134.668 333.658 134.75 333.818 134.793 333.989C134.836 334.161 134.84 334.34 134.804 334.513C134.768 334.686 134.693 334.848 134.584 334.988L131.956 338.731C131.543 339.325 131.148 340.01 130.596 340.492C130.22 340.84 129.761 341.084 129.262 341.201C128.764 341.317 128.243 341.302 127.751 341.157C127.102 340.91 126.482 340.59 125.905 340.203C125.258 339.839 124.621 339.462 123.988 339.08C122.697 338.3 121.43 337.487 120.187 336.639C118.767 335.67 117.377 334.656 116.019 333.598C115.392 333.11 115.607 332.154 116.126 331.673C116.646 331.192 117.613 330.847 118.273 331.361L118.26 331.352Z" fill="black"/>
<path d="M105.169 345.58C107.324 347.254 109.557 348.825 111.863 350.275C112.938 350.954 114.155 351.684 115.19 352.268C115.424 352.4 115.662 352.538 115.903 352.655C116.024 352.712 116.145 352.753 116.269 352.8C116.393 352.848 116.203 352.778 116.184 352.776C116.065 352.772 115.958 352.83 116.121 352.776C115.938 352.836 115.758 352.942 115.589 353.009C115.421 353.076 115.527 353.059 115.6 352.993C115.812 352.791 115.479 353.167 115.646 352.927C115.814 352.687 116.029 352.378 116.218 352.106L118.938 348.231C119.367 347.616 120.284 347.094 121.044 347.436C121.206 347.508 121.349 347.616 121.463 347.751C121.577 347.886 121.659 348.046 121.703 348.217C121.746 348.389 121.75 348.568 121.713 348.741C121.677 348.914 121.602 349.076 121.494 349.216L118.866 352.959C118.452 353.553 118.057 354.238 117.505 354.72C117.13 355.068 116.671 355.312 116.172 355.429C115.673 355.545 115.153 355.53 114.661 355.385C114.012 355.138 113.392 354.818 112.814 354.431C112.168 354.067 111.531 353.69 110.898 353.308C109.607 352.528 108.34 351.715 107.097 350.867C105.676 349.898 104.287 348.884 102.929 347.826C102.302 347.338 102.516 346.382 103.036 345.901C103.556 345.42 104.523 345.075 105.182 345.589L105.169 345.58Z" fill="black"/>
<path d="M66.9906 355.921C62.9224 351.632 61.8513 346.025 63.8747 339.61C64.0262 339.14 61.0696 339.206 60.9264 339.656C58.8982 346.149 60.0108 351.82 64.1622 356.151C64.5607 356.38 65.205 356.458 65.9859 356.371C66.3481 356.341 67.2518 356.198 66.9952 355.933L66.9906 355.921Z" fill="black"/>
<path d="M115.453 304.699C121.024 303.197 126.577 304.387 131.606 308.161C131.974 308.44 133.119 306.221 132.766 305.955C127.668 302.15 122.04 300.968 116.397 302.518C116.024 302.732 115.691 303.183 115.452 303.794C115.332 304.074 115.094 304.795 115.44 304.699L115.453 304.699Z" fill="black"/>
<path d="M88.4486 284.829C93.579 285.541 96.6744 292.052 100.994 294.212C105.469 296.454 113.31 295.49 116.529 298.888C119.747 302.286 116.712 308.338 118.265 312.466C119.763 316.445 126.663 320.502 126.261 324.786C125.859 329.07 118.375 331.129 116.178 334.601C113.897 338.195 115.717 344.919 111.951 347.351C108.185 349.784 100.723 346.693 95.9456 347.652C91.3398 348.578 87.107 354.072 81.9845 353.349C76.8621 352.626 73.7571 346.128 69.439 343.967C64.9639 341.725 57.1226 342.688 53.9044 339.29C50.6861 335.892 53.7212 329.84 52.1685 325.713C50.6701 321.733 43.7697 317.677 44.1748 313.394C44.5799 309.111 52.0578 307.049 54.2583 303.579C56.5405 299.983 54.719 293.261 58.4849 290.829C62.2509 288.396 69.7131 291.487 74.4903 290.528C79.0837 289.613 83.3166 284.12 88.4486 284.829Z" fill="#FF9100"/>
<path d="M55.8525 299.171C55.7509 301.794 55.3105 303.417 53.9742 305.298C52.1455 307.872 47.8804 305.804 44.8328 312.389C41.7853 318.974 55.8998 324.254 52.3003 332.948C51.8054 334.26 52.3438 339.371 58.1775 341.751C60.86 342.633 64.3686 343.393 66.903 343.047C68.668 342.805 72.3596 345.448 73.2526 346.639L73.2843 346.681C75.3546 349.442 78.602 353.772 82.9873 354.01C84.6586 354.1 86.0398 353.564 87.4165 352.589C88.7932 351.614 90.8265 350.634 91.5798 350.196C94.2869 348.625 95.3374 347.691 98.3498 347.309C102.103 346.834 106.52 349.515 110.265 348.351C114.833 346.93 114.454 345.567 115.188 341.42C115.62 338.978 114.904 338.001 115.19 335.639C115.26 335.07 116.775 332.664 117.687 332.605C119.834 332.466 121.062 331.706 123.559 328.673C126.142 326.514 126.547 322.288 126.092 321.255C124.555 317.763 123.442 316.753 118.565 314.624C113.837 312.56 117.416 307.181 118.177 303.508C118.725 300.867 117.803 298.802 115.065 297.297C113.529 296.453 111.985 296.862 110.242 296.383C108.904 296.015 105.344 296.455 103.832 295.624C101.443 294.311 101.465 294.8 98.9905 292.963C96.8059 291.341 94.3995 287.676 92.0392 286.379C89.239 284.84 85.368 285.231 82.2409 286.691C79.5704 287.937 78.4001 291.188 74.2602 291.666C66.8085 292.527 64.5742 286.893 57.9515 291.514C54.8221 294.475 55.966 296.234 55.8525 299.171Z" stroke="black" stroke-width="2" stroke-linecap="round"/>
<path d="M76.5239 314.374C76.7915 314.802 77.4016 316.047 78.1485 315.715C78.43 315.59 78.9136 315.322 78.8319 314.954C78.6291 314.042 77.253 313.91 76.5239 313.91" stroke="black" stroke-width="2" stroke-linecap="round"/>
<path d="M87.896 307.179C89.0111 308.049 89.9848 308.654 89.9848 306.947C89.9848 306.205 88.9351 306.483 88.3602 306.483" stroke="black" stroke-width="2" stroke-linecap="round"/>
<path d="M53.1748 279.044C54.2396 278.449 55.4674 278.084 56.4845 277.425C56.547 277.384 58.0143 276.407 58.0143 276.735C58.0143 277.978 57.0625 279.353 56.3945 280.324C56.0124 280.88 55.2528 281.569 55.1646 282.274C55.1333 282.524 55.1762 282.543 54.9746 282.644" stroke="black" stroke-width="2" stroke-linecap="round"/>
<path d="M56.9551 280.484C57.9238 280.853 59.002 281.001 60.0148 281.204" stroke="black" stroke-width="2" stroke-linecap="round"/>
<path d="M54.9727 285.884C58.2264 285.293 61.2134 284.224 64.3317 283.185" stroke="black" stroke-width="2" stroke-linecap="round"/>
<path d="M61.9896 284.625C61.8339 285.515 61.9896 286.574 61.9896 287.504" stroke="black" stroke-width="2" stroke-linecap="round"/>
<path d="M65.2319 274.905C66.882 274.471 68.5466 274.033 70.1814 273.546C70.5953 273.422 71.8912 272.684 71.8912 273.506C71.8912 274.667 72.0368 276.414 71.5313 277.425" stroke="black" stroke-width="2" stroke-linecap="round"/>
<path d="M67.0298 279.765C70.4137 279.336 73.5749 278.123 76.7488 277.065" stroke="black" stroke-width="2" stroke-linecap="round"/>
<path d="M69.1939 282.463C69.1939 283.964 68.8525 287.167 71.1737 286.283C72.537 285.764 74.9533 286.268 74.9533 284.363C74.9533 282.952 74.8641 281.923 73.3235 281.923C72.1465 281.923 71.0365 282.283 69.9138 282.283" stroke="black" stroke-width="2" stroke-linecap="round"/>
<path d="M92.4937 315.686C91.4222 316.394 86.7837 318.693 86.6896 319.752C86.6226 320.505 86.4196 320.614 87.7897 320.881C89.414 321.198 90.9818 321.333 92.6644 321.333C93.0868 321.333 93.9841 321.447 94.3526 321.308C94.9854 321.069 94.2444 319.048 94.1819 318.635C94.0698 317.893 93.9847 316.292 92.8351 315.911" stroke="black" stroke-width="2" stroke-linecap="round"/>
<path d="M89.5781 277.761C91.1151 276.596 92.849 274.994 93.981 277.541C94.8609 279.52 96.1224 278.141 97.7234 277.785C99.3806 277.417 99.2547 281.235 100.585 280.745C103.024 279.847 102.639 280.329 104.548 281.283" stroke="black" stroke-width="2" stroke-linecap="round"/>
<path d="M45.5514 340.282C45.2338 340.825 43.6421 342.695 44.6708 343.266C45.251 343.589 46.6309 344.237 47.2636 344C48.243 343.633 47.7528 344.847 47.7528 345.908C47.7528 348.281 49.287 346.742 51.0305 347.376C51.9028 347.693 52.2424 349.261 52.596 349.969" stroke="black" stroke-width="2" stroke-linecap="round"/>
<path d="M88.6973 360.975C90.1022 360.667 91.262 359.457 92.4642 359.239C93.5559 359.04 93.9331 360.095 94.8613 360.095C96.7398 360.095 97.7935 359.069 99.2641 358.333" stroke="black" stroke-width="2" stroke-linecap="round"/>
</svg>
